<svg width="406" height="410" viewBox="0 0 406 410" fill="none" xmlns="http://www.w3.org/2000/svg">
<path d="M31.7107 279.552C26.5907 279.552 19.7811 278.938 12.7667 277.811C3.96028 276.429 -2.84932 285.594 1.19548 293.53C15.2755 321.178 43.0771 342.17 80.0947 346.112C97.0931 347.955 93.3555 349.133 104.773 361.318C121.106 378.675 144.607 384.768 168.415 385.536L169.848 389.888L176.76 391.68C181.829 393.37 197.803 398.285 221.663 401.254C226.168 406.528 232.875 409.754 240.146 409.754H271.583C278.751 409.754 285.304 406.682 289.81 401.562C318.277 398.08 335.532 391.014 336.3 390.707L341.932 388.352L343.826 383.181C386.219 376.013 411.564 336.691 403.372 296.192C410.284 276.122 401.938 255.693 387.96 239.77C382.584 226.662 372.805 216.883 363.743 210.125C367.276 203.93 370.348 197.12 372.908 189.798C391.288 177.51 394.668 169.267 395.845 166.451C399.685 157.133 398.968 144.384 399.685 134.963L398.866 134.861C398.303 124.467 396.511 110.694 391.032 103.629C387.448 99.0208 381.612 95.4368 372.959 92.4672C360.159 57.344 331.794 31.0784 298.002 18.7392C291.039 3.584 272.607 0 255.864 0C239.173 0 220.69 3.6352 213.727 18.7392C179.832 31.1296 151.519 57.4464 138.77 92.4672C130.117 95.4368 124.28 99.0208 120.696 103.629C111.583 115.354 110.354 152.73 115.986 166.451C117.163 169.267 120.543 177.51 138.821 189.798C140.767 195.379 142.968 200.704 145.528 205.619C137.797 210.227 130.168 215.654 122.744 221.798C90.5395 242.739 66.3219 279.552 31.7107 279.552Z" fill="white"/>
<path d="M379.205 347.034C392.927 328.909 394.77 302.592 383.66 282.778C381.919 279.655 379.615 276.48 376.133 275.405C371.372 273.971 366.559 277.146 362.668 280.218C336.3 301.056 312.901 325.735 293.445 353.127L318.482 368.743C340.703 374.067 365.535 365.159 379.205 347.034Z" fill="#FF7D47"/>
<path d="M100.985 337.255C106.719 340.839 110.457 346.829 115.065 351.744C132.012 369.767 159.506 372.634 184.236 371.405C206.713 370.279 212.14 363.776 216.85 349.184C226.22 320.103 230.265 289.28 228.729 258.765C228.217 249.14 226.937 238.9 220.69 231.578C207.737 216.423 183.058 221.44 148.652 224.308C116.191 236.493 95.8646 267.879 65.759 284.263C50.7062 292.455 32.5302 296.551 16.2998 291.175C28.8438 312.832 51.679 328.192 76.511 331.623C84.7542 332.749 93.7654 332.749 100.985 337.255Z" fill="#FF7D47"/>
<path d="M188.332 281.088L215.878 236.083L185.67 216.729C185.67 216.729 144.863 229.325 126.739 259.328C107.436 291.379 134.982 309.299 134.982 309.299C149.164 298.137 166.879 289.485 188.332 281.088Z" fill="#E8EDEC"/>
<path d="M191.353 264.192C184.339 265.523 177.632 268.646 172.051 273.101C171.283 273.715 170.464 274.483 170.515 275.456C170.515 276.377 170.617 276.224 177.12 285.645C179.373 284.672 181.677 283.699 184.083 282.777C186.489 276.582 188.896 270.387 191.353 264.192Z" fill="#D0DBE2"/>
<path d="M177.12 285.696C177.12 285.696 137.696 299.827 133.241 311.193C128.736 322.611 147.884 330.803 147.884 330.803C147.884 330.803 140.87 339.865 147.372 348.825C153.209 356.915 163.552 361.933 176.608 361.677C172.819 340.838 171.641 308.736 177.12 285.696Z" fill="#08234B"/>
<path d="M144.658 339.456C155.615 338.586 160.684 333.824 160.684 333.824C155.871 333.824 147.833 330.803 147.833 330.803C147.833 330.803 145.068 334.49 144.658 339.456Z" fill="#394F6F"/>
<path d="M385.043 259.328C366.969 229.325 326.111 216.729 326.111 216.729L295.903 236.083L323.449 281.088C344.953 289.485 362.668 298.137 376.748 309.299C376.799 309.299 404.345 291.379 385.043 259.328Z" fill="#E8EDEC"/>
<path d="M341.317 275.507C341.317 274.534 340.549 273.766 339.781 273.152C334.2 268.646 327.493 265.574 320.479 264.243C322.885 270.438 325.343 276.634 327.749 282.829C330.104 283.802 332.408 284.723 334.712 285.696C341.266 276.275 341.317 276.429 341.317 275.507Z" fill="#D0DBE2"/>
<path d="M378.591 311.194C374.137 299.827 334.713 285.696 334.713 285.696C340.191 308.736 339.014 340.839 335.225 361.677C348.332 361.933 358.623 356.915 364.46 348.826C370.963 339.866 363.948 330.803 363.948 330.803C363.948 330.803 383.097 322.611 378.591 311.194Z" fill="#08234B"/>
<path d="M330.975 377.805C330.975 377.805 340.447 353.792 337.989 307.661C335.48 261.53 307.986 230.861 307.986 230.861H255.916V231.322H203.845C203.845 231.322 176.351 261.99 173.842 308.122C171.333 354.253 180.856 378.266 180.856 378.266C180.856 378.266 212.856 389.53 257.759 389.53C302.661 389.581 330.975 377.805 330.975 377.805Z" fill="#E8EDEC"/>
<path d="M183.212 266.599C178.553 278.221 174.764 292.25 173.894 308.122C171.385 354.253 180.908 378.266 180.908 378.266C180.908 378.266 212.908 389.53 257.81 389.53C302.713 389.53 331.026 377.754 331.026 377.754C331.026 377.754 340.498 353.741 338.041 307.61C337.222 292.352 333.638 278.733 329.234 267.418L328.671 266.547C328.671 266.547 356.831 355.738 255.967 355.738C155.052 355.789 183.212 266.599 183.212 266.599Z" fill="#D0DBE2"/>
<path d="M354.118 220.467C345.977 214.63 338.86 211.712 338.86 211.712C306.502 233.011 247.315 243.302 173.433 211.712C173.433 211.712 166.163 214.682 157.868 220.723C200.262 274.125 311.571 274.432 354.118 220.467Z" fill="#D0DBE2"/>
<path d="M330.975 377.805C330.975 377.805 333.432 371.559 335.532 359.271C322.988 362.445 295.442 368.128 258.015 368.128C219.768 368.128 189.612 362.445 176.197 359.424C178.296 371.917 180.805 378.266 180.805 378.266C180.805 378.266 212.805 389.53 257.708 389.53C302.661 389.581 330.975 377.805 330.975 377.805Z" fill="#FFD094"/>
<path d="M330.975 377.805C330.975 377.805 332.102 374.989 333.433 369.459C324.678 372.531 297.234 380.928 257.964 380.928C217.823 380.928 187.308 372.531 178.297 369.715C179.679 375.399 180.806 378.266 180.806 378.266C180.806 378.266 212.806 389.53 257.708 389.53C302.662 389.581 330.975 377.805 330.975 377.805Z" fill="#FFB060"/>
<path d="M287.097 327.014C294.726 327.014 300.921 320.819 300.921 313.19V287.386C300.921 279.757 294.726 273.562 287.097 273.562H224.94C217.311 273.562 211.116 279.757 211.116 287.386V313.19C211.116 320.819 217.311 327.014 224.94 327.014H287.097Z" fill="#BEC9CE"/>
<path d="M287.097 321.331C294.726 321.331 300.921 315.136 300.921 307.507V281.702C300.921 274.074 294.726 267.878 287.097 267.878H224.94C217.311 267.878 211.116 274.074 211.116 281.702V307.507C211.116 315.136 217.311 321.331 224.94 321.331H287.097Z" fill="#D0DBE2"/>
<path d="M236.307 305.715C242.443 305.715 247.417 300.741 247.417 294.605C247.417 288.469 242.443 283.495 236.307 283.495C230.171 283.495 225.196 288.469 225.196 294.605C225.196 300.741 230.171 305.715 236.307 305.715Z" fill="#08234B"/>
<path d="M232.466 300.288C229.906 300.288 227.602 299.418 225.708 297.984C227.142 302.49 231.34 305.715 236.306 305.715C242.45 305.715 247.417 300.749 247.417 294.605C247.417 291.021 245.727 287.795 243.065 285.798C243.423 286.874 243.577 288 243.577 289.178C243.577 295.322 238.61 300.288 232.466 300.288Z" fill="#394F6F"/>
<path d="M286.892 290.765C288.838 290.765 290.374 289.178 290.374 287.283V284.621C290.374 282.675 288.787 281.139 286.892 281.139H260.319C258.374 281.139 256.838 282.726 256.838 284.621V287.283C256.838 289.229 258.425 290.765 260.319 290.765H286.892Z" fill="#A0CF30"/>
<path d="M286.892 308.173C288.838 308.173 290.374 306.586 290.374 304.691V302.029C290.374 300.083 288.787 298.547 286.892 298.547H260.319C258.374 298.547 256.838 300.135 256.838 302.029V304.691C256.838 306.637 258.425 308.173 260.319 308.173H286.892Z" fill="#FFD094"/>
<path d="M286.892 290.765C288.838 290.765 290.374 289.178 290.374 287.283V284.621C290.374 282.675 288.787 281.139 286.892 281.139V283.443C286.892 285.389 285.305 286.925 283.411 286.925H256.838V287.283C256.838 289.229 258.425 290.765 260.319 290.765H286.892Z" fill="#89A520"/>
<path d="M286.892 308.173C288.838 308.173 290.374 306.586 290.374 304.691V302.029C290.374 300.083 288.787 298.547 286.892 298.547V300.851C286.892 302.797 285.305 304.333 283.411 304.333H256.838V304.691C256.838 306.637 258.425 308.173 260.319 308.173H286.892Z" fill="#FFB060"/>
<path d="M155.41 183.604L158.636 101.991C158.636 101.991 137.132 105.472 131.807 112.333C126.636 118.938 124.792 150.989 128.991 161.178C133.138 171.213 155.41 183.604 155.41 183.604Z" fill="#08234B"/>
<path d="M155.41 183.604L157.304 135.22C148.651 142.183 137.848 146.535 126.789 147.61C127.045 153.191 127.762 158.157 128.991 161.127C133.138 171.213 155.41 183.604 155.41 183.604Z" fill="#394F6F"/>
<path d="M382.84 161.178C387.038 150.989 385.195 118.938 380.024 112.333C374.699 105.524 353.195 101.991 353.195 101.991L356.421 183.604C356.421 183.604 378.693 171.213 382.84 161.178Z" fill="#08234B"/>
<path d="M382.943 161.178C384.171 158.157 384.888 153.242 385.144 147.661C374.085 146.586 363.282 142.234 354.629 135.271L356.421 183.655C356.421 183.603 378.795 171.213 382.943 161.178Z" fill="#394F6F"/>
<path d="M347.256 238.387C364.562 237.875 375.57 246.579 375.57 246.579C366.917 223.283 338.808 211.763 338.808 211.763L302.559 227.277C309.931 235.878 329.951 238.848 347.256 238.387Z" fill="#FE5F1D"/>
<path d="M209.682 227.174L170.361 208.896C170.361 208.896 153.157 214.835 131.039 233.165C156.383 230.4 192.121 248.269 209.682 227.174Z" fill="#FE5F1D"/>
<path d="M175.634 237.261C189.049 238.387 201.388 237.158 209.682 227.174L170.361 208.896C170.361 208.896 164.319 210.995 154.796 216.525C158.789 222.208 163.295 227.226 168.21 231.475C170.566 233.523 173.023 235.418 175.634 237.261Z" fill="#FF7D47"/>
<path d="M354.118 220.467C346.335 214.886 339.526 211.968 338.911 211.712C338.86 211.712 338.86 211.712 338.86 211.712C329.234 218.061 317.202 223.386 303.122 226.97L302.61 227.174C308.294 233.882 321.503 237.158 335.225 238.131C342.444 233.114 348.793 227.226 354.118 220.467Z" fill="#FF7D47"/>
<path d="M336.044 222.618C366.457 196.506 375.365 136.141 358.674 94.2081C341.983 52.2241 298.77 25.2417 255.916 25.2417C213.113 25.2417 169.849 52.2241 153.157 94.2081C136.466 136.192 145.375 196.557 175.788 222.618C217.106 258.099 294.674 258.099 336.044 222.618Z" fill="#E8EDEC"/>
<path d="M282.642 80.0257C282.642 80.0257 291.192 35.7377 285.048 24.1153C281.311 17.0497 270.456 14.0801 255.916 14.0801C241.324 14.0801 230.52 17.1009 226.783 24.1153C220.639 35.7377 229.189 80.0257 229.189 80.0257H255.916H282.642Z" fill="#08234B"/>
<path d="M226.731 24.1154C220.587 35.7378 229.137 80.0258 229.137 80.0258H255.864H282.59C282.59 80.0258 291.141 35.7378 284.997 24.1154C283.973 22.1698 282.437 20.5826 280.389 19.2002C281.413 33.9458 280.286 62.7202 255.813 62.7202C231.39 62.7202 230.213 33.997 231.237 19.2002C229.342 20.5314 227.755 22.1698 226.731 24.1154Z" fill="#394F6F"/>
<path d="M355.653 122.675C343.57 83.2001 298.207 70.1953 255.915 70.1953C213.624 70.1953 168.261 83.2001 156.178 122.675C148.6 147.507 147.423 236.135 255.915 236.135C364.408 236.135 363.282 147.456 355.653 122.675Z" fill="#2A0E59"/>
<path d="M335.275 183.604C334.251 185.447 334.968 187.802 336.811 188.775C338.655 189.799 341.01 189.082 341.983 187.239C341.829 187.546 347.307 178.228 350.379 164.762C352.12 156.98 352.888 149.044 352.427 141.159C352.325 139.367 349.611 139.367 349.56 141.159C349.56 140.852 349.509 150.938 345.311 163.329C341.266 175.463 335.736 182.682 335.275 183.604Z" fill="#5F30B2"/>
<path d="M162.373 157.031C164.524 168.346 167.852 178.688 175.327 190.772C175.992 191.796 177.58 191.028 177.17 189.901C168.62 166.503 165.548 141.108 179.576 120.167C182.239 116.071 185.567 112.026 189.356 108.852C189.304 108.903 190.021 108.34 190.021 108.288C192.376 106.343 192.786 102.81 190.943 100.352C188.997 97.7924 185.413 97.3316 182.853 99.226C183.672 98.5604 156.434 116.788 162.373 157.031Z" fill="#5F30B2"/>
<path d="M199.237 101.274C203.111 101.274 206.251 98.1335 206.251 94.2595C206.251 90.3856 203.111 87.2451 199.237 87.2451C195.363 87.2451 192.223 90.3856 192.223 94.2595C192.223 98.1335 195.363 101.274 199.237 101.274Z" fill="#5F30B2"/>
<path d="M335.788 195.789C335.788 193.178 333.637 191.027 331.026 191.027C328.415 191.027 326.265 193.178 326.265 195.789C326.265 198.4 328.415 200.551 331.026 200.551C333.637 200.551 335.788 198.4 335.788 195.789Z" fill="#5F30B2"/>
<path d="M289.144 238.183C267.23 237.363 273.784 224.154 255.864 224.154C237.944 224.154 244.497 237.363 222.584 238.183C200.67 239.002 237.637 246.528 255.864 246.528C274.091 246.528 311.057 238.951 289.144 238.183Z" fill="#E8EDEC"/>
<path d="M271.635 395.776C277.318 395.776 281.977 391.168 281.977 385.434V369.715C281.977 364.032 277.369 359.373 271.635 359.373H240.198C234.515 359.373 229.855 363.981 229.855 369.715V385.434C229.855 391.117 234.463 395.776 240.198 395.776H271.635Z" fill="#08234B"/>
<path d="M271.635 395.776C277.318 395.776 281.977 391.168 281.977 385.434V369.715C281.977 369.459 281.977 369.255 281.926 368.999V369.05C281.926 374.733 277.318 379.392 271.583 379.392H240.147C234.668 379.392 230.214 375.143 229.855 369.767V385.434C229.855 391.117 234.463 395.776 240.198 395.776H271.635Z" fill="#394F6F"/>
<path d="M266.616 384.102C268.613 384.102 270.252 382.464 270.252 380.467V374.733C270.252 372.736 268.613 371.098 266.616 371.098H245.164C243.167 371.098 241.528 372.736 241.528 374.733V380.467C241.528 382.464 243.167 384.102 245.164 384.102H266.616Z" fill="#E8EDEC"/>
<path d="M266.616 384.102C268.613 384.102 270.252 382.464 270.252 380.467V374.733C270.252 372.736 268.664 371.098 266.668 371.098V375.859C266.668 377.856 265.029 379.494 263.032 379.494H241.528V380.467C241.528 382.464 243.167 384.102 245.164 384.102H266.616Z" fill="#D0DBE2"/>
<path d="M153.669 355.123C159.557 359.424 167.391 361.882 176.658 361.677C172.869 340.838 171.691 308.736 177.17 285.696C182.648 262.656 174.303 286.72 170.053 288.461C159.915 315.136 173.893 333.005 167.954 344.166C165.138 349.338 159.864 353.126 153.669 355.123Z" fill="#394F6F"/>
<path d="M341.829 288.41C337.579 286.669 334.712 285.645 334.712 285.645C340.19 308.685 339.013 340.787 335.224 361.626C344.491 361.831 352.325 359.373 358.213 355.072C352.018 353.127 346.693 349.338 343.928 344.115C337.989 332.954 351.915 315.085 341.829 288.41Z" fill="#394F6F"/>
<path d="M351.147 333.824C351.147 333.824 356.267 338.586 367.173 339.456C366.763 334.49 363.947 330.803 363.947 330.803C363.947 330.803 355.96 333.824 351.147 333.824Z" fill="#394F6F"/>
</svg>
