<svg width="370" height="419" viewBox="0 0 370 419" fill="none" xmlns="http://www.w3.org/2000/svg">
<path d="M216.985 418.304C183.193 418.304 131.174 410.163 121.753 377.19C113.407 371.866 107.571 363.571 105.676 354.15C86.9882 350.976 72.089 338.33 62.873 322.099C58.7258 319.437 55.705 315.648 53.5546 312.166C38.6042 307.917 32.409 293.99 29.7978 278.784C25.8042 278.374 21.7082 277.811 18.7386 277.094C0.66498 272.64 0.101781 256.205 0.0505809 256.154C-0.768619 243.712 8.44738 233.165 21.5546 231.578C28.1594 230.81 40.9082 230.656 55.6538 230.605C56.0634 228.454 56.5754 226.202 57.241 224C62.617 206.643 74.5978 204.749 79.513 204.749C89.5482 204.749 97.9962 210.842 100.966 221.645C102.553 227.533 102.297 233.626 102.195 239.36C105.062 244.07 112.332 252.57 113.612 265.574C114.329 266.291 115.046 267.008 115.66 267.674C120.985 260.198 126.463 253.952 131.225 248.986C52.5818 191.386 62.9242 61.696 162.662 21.1968C176.998 7.9872 196.454 0 219.033 0C242.585 0 261.939 8.4992 268.902 12.9536C275.302 17.0496 279.295 22.7328 281.702 27.2384C315.494 45.2608 339.967 76.1344 349.03 112.282C352.563 115.661 355.635 119.859 358.143 124.774C370.585 144.435 369.356 178.586 355.43 197.325C349.491 207.053 342.527 211.968 336.588 214.374C355.891 224.614 369.203 244.992 369.203 268.493V336.538C369.203 370.33 341.708 397.773 307.967 397.773C302.028 397.773 293.068 397.773 291.532 397.773C272.486 416.154 233.881 418.304 216.985 418.304Z" fill="white"/>
<path d="M147.046 318.054L173.414 252.314L159.129 243.712C159.129 243.712 134.86 260.25 118.527 290.355C118.527 290.355 110.95 284.621 104.55 280.986L72.7546 308.941C72.4986 310.118 85.7594 340.48 114.687 340.48C143.615 340.48 147.046 318.054 147.046 318.054Z" fill="#E8EDEC"/>
<path d="M159.181 243.712C159.181 243.712 151.296 249.088 141.517 259.226C140.544 266.035 140.083 277.248 142.08 295.014C142.08 295.014 155.187 263.68 168.448 249.293L159.181 243.712Z" fill="#08234B"/>
<path d="M159.18 243.712C159.18 243.712 159.18 243.712 159.129 243.763C158.463 244.224 152.883 248.166 145.51 255.283C152.729 259.328 160.358 262.656 168.243 265.318L173.465 252.314L159.18 243.712Z" fill="#394F6F"/>
<path d="M146.432 320.563C141.619 324.045 134.656 326.707 124.723 326.707C101.53 326.707 88.4224 307.149 84.2752 298.854L72.8064 308.941C72.5504 310.118 85.8112 340.48 114.739 340.48C137.574 340.48 144.486 326.451 146.432 320.563Z" fill="#D0DBE2"/>
<path d="M308.07 383.283C333.875 383.283 354.815 362.342 354.815 336.538V268.544C354.815 242.739 333.875 221.798 308.07 221.798H291.942C266.137 221.798 245.196 242.739 245.196 268.544V336.589C245.196 362.394 266.137 383.334 291.942 383.334H308.07V383.283Z" fill="#D0DBE2"/>
<path d="M284.313 383.283C310.118 383.283 331.059 362.342 331.059 336.538V268.544C331.059 242.739 310.118 221.798 284.313 221.798H268.185C242.38 221.798 221.439 242.739 221.439 268.544V336.589C221.439 362.394 242.38 383.334 268.185 383.334H284.313V383.283Z" fill="#BEC9CE"/>
<path d="M351.283 288.768C351.283 283.545 347.648 279.296 343.193 279.296C338.739 279.296 335.104 283.545 335.104 288.768C335.104 293.99 338.739 298.24 343.193 298.24C347.699 298.291 351.283 294.041 351.283 288.768Z" fill="#08234B"/>
<path d="M340.48 293.632C338.636 293.632 336.947 292.915 335.564 291.686C336.588 295.526 339.66 298.291 343.244 298.291C347.699 298.291 351.334 294.042 351.334 288.819C351.334 285.747 350.105 283.034 348.16 281.293C348.416 282.214 348.518 283.187 348.518 284.16C348.518 289.382 344.934 293.632 340.48 293.632Z" fill="#394F6F"/>
<path d="M345.037 339.507C347.033 339.507 348.672 337.869 348.672 335.872V311.091C348.672 309.094 347.033 307.456 345.037 307.456H341.453C339.456 307.456 337.817 309.094 337.817 311.091V335.872C337.817 337.869 339.456 339.507 341.453 339.507H345.037Z" fill="#FFB060"/>
<path d="M342.374 336.435C344.371 336.435 346.009 334.797 346.009 332.8V308.019C346.009 307.865 346.009 307.712 345.958 307.609C345.651 307.507 345.344 307.507 345.037 307.507H341.453C339.456 307.507 337.817 309.145 337.817 311.142V335.923C337.817 336.077 337.817 336.23 337.869 336.333C338.176 336.435 338.483 336.435 338.79 336.435H342.374Z" fill="#FFD094"/>
<path d="M286.259 381.133C306.483 339.354 272.281 237.927 272.281 237.927L165.632 240.896C165.632 240.947 119.603 320.563 136.038 374.426C146.944 410.266 270.182 414.362 286.259 381.133Z" fill="#E8EDEC"/>
<path d="M279.142 260.966C275.353 247.04 272.281 237.875 272.281 237.875L195.635 240.026L164.249 243.2C162.559 246.323 159.385 252.365 155.647 260.454C174.899 269.056 196.198 273.152 218.316 273.152C240.793 273.152 261.273 269.005 279.142 260.966Z" fill="#BEC9CE"/>
<path d="M134.962 348.058C135.065 339.456 135.884 330.854 137.266 322.355C138.649 313.702 140.646 305.152 143.052 296.755C144.383 292.096 145.868 287.539 147.506 282.982C147.711 282.368 147.25 281.651 146.687 281.498C146.022 281.293 145.407 281.702 145.202 282.317C142.233 290.509 139.775 298.854 137.778 307.302C135.782 315.904 134.246 324.659 133.375 333.517C132.863 338.33 132.607 343.194 132.505 348.058C132.556 349.645 134.962 349.645 134.962 348.058Z" fill="#BEC9CE"/>
<path d="M227.687 403.558C255.13 402.074 279.655 394.752 286.259 381.133C287.949 377.6 289.28 373.658 290.253 369.357C278.323 363.776 255.539 350.874 255.539 350.874C254.413 351.846 263.117 383.898 227.687 403.558Z" fill="#D0DBE2"/>
<path d="M202.189 350.874C210.022 351.693 217.037 345.958 217.856 338.125L220.262 314.47C221.082 306.637 215.347 299.622 207.514 298.803L164.198 294.4C156.365 293.581 149.35 299.315 148.531 307.149L146.125 330.803C145.306 338.637 151.04 345.651 158.874 346.47L202.189 350.874Z" fill="#BEC9CE"/>
<path d="M197.888 343.706C203.776 344.32 209.05 340.019 209.664 334.08L212.122 310.067C212.736 304.179 208.435 298.906 202.496 298.291L159.027 293.837C153.139 293.222 147.866 297.523 147.251 303.462L144.794 327.475C144.179 333.363 148.48 338.637 154.419 339.251L197.888 343.706Z" fill="#D0DBE2"/>
<path d="M172.462 318.285C172.995 313.08 169.824 308.491 165.379 308.035C160.933 307.579 156.897 311.429 156.364 316.634C155.83 321.84 159.001 326.429 163.447 326.884C167.892 327.34 171.928 323.49 172.462 318.285Z" fill="#08234B"/>
<path d="M160.973 321.843C159.129 321.638 157.542 320.768 156.313 319.386C156.979 323.277 159.693 326.349 163.277 326.758C167.731 327.219 171.725 323.328 172.288 318.157C172.595 315.085 171.622 312.269 169.881 310.323C170.035 311.245 170.086 312.218 169.984 313.242C169.421 318.464 165.427 322.304 160.973 321.843Z" fill="#394F6F"/>
<path d="M200.039 317.645C202.036 317.849 203.776 316.416 203.981 314.419L204.084 313.395C204.288 311.398 202.855 309.657 200.858 309.453L183.808 307.712C181.812 307.507 180.071 308.941 179.866 310.937L179.764 311.961C179.559 313.958 180.992 315.699 182.989 315.904L200.039 317.645Z" fill="#A0CF30"/>
<path d="M198.553 332.442C200.55 332.646 202.291 331.213 202.496 329.216L202.598 328.192C202.803 326.195 201.369 324.454 199.373 324.25L182.323 322.509C180.326 322.304 178.585 323.738 178.381 325.734L178.278 326.758C178.073 328.755 179.507 330.496 181.504 330.701L198.553 332.442Z" fill="#FFD094"/>
<path d="M201.114 317.798C202.496 317.952 203.776 316.723 203.93 315.085L204.186 312.832C204.339 311.194 203.367 309.76 201.984 309.606L201.779 311.552C201.626 313.19 200.346 314.419 198.963 314.266L179.763 312.32L179.712 312.627C179.559 314.266 180.531 315.699 181.914 315.853L201.114 317.798Z" fill="#89A520"/>
<path d="M199.628 332.544C201.011 332.698 202.291 331.469 202.444 329.83L202.7 327.578C202.854 325.939 201.881 324.506 200.499 324.352L200.294 326.298C200.14 327.936 198.86 329.165 197.478 329.011L178.278 327.066L178.227 327.373C178.073 329.011 179.046 330.445 180.428 330.598L199.628 332.544Z" fill="#FFB060"/>
<path d="M141.055 368.794C156.467 370.278 170.649 363.264 175.001 348.57C175.513 346.88 174.694 345.088 173.107 344.371C168.294 342.17 161.382 341.197 156.364 341.504C155.084 341.606 153.907 342.323 153.241 343.45C149.196 350.259 138.239 350.976 132.556 346.982C132.812 339.046 133.836 330.547 133.836 330.547C111.155 336.64 116.787 366.438 141.055 368.794Z" fill="#CBE3FA"/>
<path d="M174.95 348.57C175.462 346.88 174.643 345.088 173.056 344.371C172.032 343.91 170.905 343.501 169.728 343.142C168.704 359.117 141.363 371.046 124.313 360.397C127.949 364.8 133.632 368.077 141.056 368.794C156.467 370.278 170.649 363.264 174.95 348.57Z" fill="#CBE3FA"/>
<path d="M170.854 357.018C167.321 350.259 160.767 345.344 153.548 342.938C153.395 343.091 153.292 343.296 153.19 343.45C152.319 344.883 151.193 346.061 149.811 346.983C157.235 348.877 164.607 353.895 167.321 361.011C168.601 359.783 169.779 358.451 170.854 357.018Z" fill="#CBE3FA"/>
<path d="M148.94 347.495C147.455 348.365 145.714 348.877 143.974 349.184C148.223 353.843 150.937 361.933 151.09 368.538C152.78 368.282 154.418 367.872 156.006 367.411C155.647 361.011 153.241 353.127 148.94 347.495Z" fill="#CBE3FA"/>
<path d="M140.492 368.742C143.052 362.906 144.076 355.226 143.206 349.286C141.516 349.491 139.827 349.44 138.188 349.184C139.161 354.099 138.342 362.035 135.475 367.718C137.062 368.179 138.751 368.538 140.492 368.742Z" fill="#CBE3FA"/>
<path d="M137.113 348.979C135.424 348.57 133.836 347.904 132.556 347.034C130.867 351.898 127.436 356.301 123.392 359.219C124.313 360.55 125.44 361.728 126.72 362.855C131.532 359.219 135.27 354.15 137.113 348.979Z" fill="#CBE3FA"/>
<path d="M133.017 338.074C128.819 340.839 124.467 342.887 119.807 344.269C119.5 345.959 119.398 347.699 119.603 349.44C124.159 348.211 128.511 346.419 132.607 344.064C132.71 341.965 132.863 339.917 133.017 338.074Z" fill="#CBE3FA"/>
<path d="M273.203 312.678L239.821 341.504C239.463 342.528 256.359 380.058 303.821 374.886C351.335 369.715 350.311 314.675 332.903 271.974C315.495 229.274 297.933 229.632 297.933 229.632L270.029 246.528C266.599 246.528 279.859 292.25 291.84 315.802C291.84 315.802 280.32 316.314 273.203 312.678Z" fill="#E8EDEC"/>
<path d="M312.73 238.336C309.453 235.008 305.152 231.629 300.646 230.195C298.854 229.632 297.933 229.683 297.882 229.683L270.029 246.528C265.574 248.064 258.816 259.174 272.64 263.68C287.898 257.843 301.363 249.344 312.73 238.336Z" fill="#BEC9CE"/>
<path d="M299.111 229.786L273.203 248.576C273.05 270.592 288.154 298.854 288.154 298.854C286.566 258.355 299.725 239.155 305.357 232.294C302.49 230.656 300.339 230.042 299.111 229.786Z" fill="#08234B"/>
<path d="M305.305 232.346C304.947 232.141 304.589 231.936 304.281 231.782C303.36 231.27 302.541 230.912 301.773 230.605C301.721 230.554 301.619 230.554 301.568 230.502C301.465 230.451 301.363 230.451 301.261 230.4C301.107 230.349 300.902 230.298 300.749 230.246C300.646 230.195 300.544 230.195 300.441 230.144C300.339 230.093 300.237 230.093 300.134 230.042C300.032 229.99 299.878 229.99 299.776 229.939C299.725 229.939 299.622 229.888 299.571 229.888C299.417 229.837 299.315 229.837 299.213 229.786C299.161 229.786 299.161 229.786 299.11 229.786L273.203 248.576C273.152 253.133 273.817 257.997 274.79 262.81C281.549 260.045 287.949 256.819 293.99 253.03C297.779 242.278 302.489 235.776 305.305 232.346Z" fill="#394F6F"/>
<path d="M303.821 374.938C325.274 372.582 336.794 360.09 341.453 343.142C324.659 370.586 270.234 370.688 247.962 334.49L239.821 341.555C239.463 342.579 256.307 380.058 303.821 374.938Z" fill="#D0DBE2"/>
<path d="M240.998 341.402V341.606C240.998 341.402 240.947 341.811 240.947 341.811C240.998 341.709 240.998 341.606 240.998 341.504C240.998 341.504 240.998 341.504 240.998 341.402C240.998 341.453 240.998 341.453 240.998 341.402Z" fill="#BEC9CE"/>
<path d="M241.306 342.323C241.306 342.272 241.306 342.272 241.254 342.272C241.203 342.067 241.408 342.579 241.306 342.323Z" fill="#BEC9CE"/>
<path d="M246.937 351.437L246.886 351.386C246.783 351.283 246.937 351.437 246.937 351.437Z" fill="#BEC9CE"/>
<path d="M242.893 350.003C244.685 352.614 246.681 355.072 248.832 357.376C251.494 360.192 254.464 362.803 257.587 365.056C261.222 367.718 265.164 369.869 269.312 371.661C274.073 373.658 279.142 375.04 284.262 375.808C290.406 376.73 296.652 376.832 302.848 376.218C309.145 375.603 315.289 374.17 320.973 371.354C325.785 368.947 330.137 365.568 333.568 361.421C336.998 357.274 339.558 352.461 341.35 347.392C341.811 346.112 342.221 344.832 342.579 343.501C342.989 342.016 340.685 341.35 340.275 342.835C338.893 347.853 336.896 352.666 333.926 356.966C331.11 361.114 327.424 364.698 323.123 367.36C318.259 370.432 312.729 372.275 307.097 373.248C301.004 374.272 294.707 374.477 288.563 373.914C283.392 373.453 278.272 372.378 273.357 370.637C269.209 369.152 265.164 367.206 261.376 364.749C258.048 362.598 255.283 360.397 252.416 357.581C251.187 356.403 250.009 355.123 248.883 353.843C248.371 353.229 247.859 352.666 247.347 352.051C247.245 351.898 247.142 351.795 247.04 351.642C246.988 351.539 246.937 351.488 246.835 351.386L246.886 351.437C246.886 351.437 246.733 351.232 246.835 351.334C246.937 351.437 246.784 351.283 246.784 351.283C246.579 350.976 246.374 350.72 246.118 350.413C244.736 348.518 243.404 346.522 242.329 344.474C241.971 343.808 241.612 343.091 241.305 342.374C241.305 342.323 241.254 342.272 241.254 342.221C241.356 342.477 241.152 341.965 241.203 342.17C241.203 342.17 241.203 342.221 241.254 342.221C241.203 342.118 241.152 342.016 241.101 341.862C241.049 341.709 240.998 341.555 240.947 341.402C240.947 341.504 240.947 341.606 240.896 341.709C240.896 341.709 240.947 341.248 240.947 341.504C240.947 341.402 240.947 341.35 240.947 341.299C240.896 341.197 240.947 341.248 240.947 341.299V341.35V341.402C240.998 340.173 239.001 339.712 238.592 341.094C238.438 341.555 238.592 342.016 238.797 342.426C239.053 343.091 239.308 343.706 239.616 344.371C240.588 346.419 241.715 348.211 242.893 350.003Z" fill="#BEC9CE"/>
<path d="M275.149 312.422C275.097 312.422 275.097 312.371 275.046 312.371C274.995 312.32 274.995 312.32 275.149 312.422Z" fill="#BEC9CE"/>
<path d="M272.333 311.859C271.923 312.269 271.821 313.139 272.333 313.549C273.408 314.419 274.739 314.88 276.019 315.238C277.863 315.802 279.757 316.16 281.651 316.416C286.362 317.082 291.123 317.235 295.834 316.518C298.24 316.16 300.595 315.546 302.695 314.368C304.077 313.651 302.848 311.552 301.466 312.269C299.827 313.139 297.984 313.651 296.039 314.01C293.939 314.368 291.738 314.522 289.587 314.522C285.491 314.522 281.447 314.112 277.504 313.088C276.685 312.883 275.917 312.627 275.149 312.32L275.047 312.269C275.098 312.269 275.098 312.32 275.149 312.32C274.995 312.218 274.995 312.269 275.047 312.269C274.995 312.269 274.944 312.218 274.893 312.218C274.739 312.166 274.637 312.064 274.483 312.013C274.381 311.962 274.227 311.859 274.125 311.808C274.023 311.757 273.664 311.45 274.023 311.757C273.511 311.45 272.845 311.347 272.333 311.859Z" fill="#BEC9CE"/>
<path d="M338.181 147.756C340.589 82.7561 287.809 28.0359 220.295 25.5353C152.78 23.0348 96.0975 73.7009 93.6901 138.701C91.2827 203.701 144.062 258.422 211.577 260.922C279.091 263.423 335.774 212.757 338.181 147.756Z" fill="#E8EDEC"/>
<path d="M201.625 260.25C280.319 268.442 335.615 221.85 338.431 147.763C340.991 79.1553 282.163 22.3233 210.073 25.4977C272.537 32.9217 319.846 85.3505 317.542 146.995C315.187 209.05 274.739 258.458 201.625 260.25Z" fill="#D0DBE2"/>
<path d="M270.694 37.8368C270.694 37.8368 268.134 29.7984 261.478 25.2928C252.978 19.6096 215.244 4.71039 183.039 24.0128C150.476 43.52 153.446 78.2848 153.446 78.2848L213.298 80.5376C227.89 36.9664 270.694 37.8368 270.694 37.8368Z" fill="#08234B"/>
<path d="M270.694 37.8367C270.694 37.8367 268.134 29.7983 261.478 25.2927C261.375 25.2415 261.273 25.1903 261.222 25.0879C243.251 25.9583 218.163 35.0719 204.287 75.3151C203.724 76.9535 203.212 78.5407 202.7 80.0767L213.35 80.4863C227.891 36.9663 270.694 37.8367 270.694 37.8367Z" fill="#394F6F"/>
<path d="M295.731 130.253C282.726 86.272 243.507 65.4336 181.452 67.3792C141.824 68.608 114.585 77.4656 101.222 117.76C92.8251 143.104 88.2683 234.547 194.508 238.541C285.9 241.92 305.254 162.509 295.731 130.253Z" fill="#2A0E59"/>
<path d="M206.335 243.456C187.443 240.333 189.9 226.56 172.441 225.997C156.825 225.485 163.839 234.803 160.153 234.803C141.004 234.854 166.246 250.061 180.326 252.16C204.543 255.744 225.228 246.579 206.335 243.456Z" fill="#E8EDEC"/>
<path d="M350.925 160.868C351.789 137.535 341.383 118.208 327.683 117.7C313.982 117.193 302.175 135.697 301.311 159.031C300.447 182.364 310.853 201.691 324.553 202.198C338.254 202.706 350.061 184.202 350.925 160.868Z" fill="#08234B"/>
<path d="M352.037 160.954C352.764 141.321 344.88 125.091 334.428 124.704C323.976 124.317 314.914 139.919 314.187 159.552C313.46 179.185 321.343 195.414 331.795 195.801C342.247 196.188 351.31 180.586 352.037 160.954Z" fill="#394F6F"/>
<path d="M131.571 101.932C131.84 97.9244 128.81 94.4578 124.802 94.1888C120.795 93.9198 117.328 96.9502 117.059 100.958C116.79 104.965 119.821 108.431 123.828 108.7C127.835 108.97 131.302 105.939 131.571 101.932Z" fill="#5F30B2"/>
<path d="M118.477 111.309C115.609 109.978 112.179 111.155 110.848 114.022C97.331 142.49 105.216 185.139 124.16 204.8C124.928 205.568 126.157 204.595 125.542 203.674C125.645 203.827 119.961 196.352 116.275 183.245C110.592 162.918 111.206 137.779 121.139 119.194C122.675 116.224 121.395 112.64 118.477 111.309Z" fill="#5F30B2"/>
<path d="M262.656 197.171C261.274 198.861 261.53 201.37 263.271 202.701C264.96 204.083 267.469 203.827 268.8 202.086C268.595 202.342 275.917 193.946 281.6 180.787C284.826 173.21 287.079 165.274 288.103 157.184C288.307 155.341 285.594 154.829 285.184 156.672C285.235 156.365 283.29 166.605 276.736 178.381C270.285 190.054 263.322 196.352 262.656 197.171Z" fill="#5F30B2"/>
<path d="M260.864 209.664C261.376 207.002 259.584 204.442 256.921 203.93C254.259 203.418 251.699 205.21 251.187 207.872C250.675 210.535 252.467 213.095 255.129 213.607C257.843 214.119 260.403 212.327 260.864 209.664Z" fill="#5F30B2"/>
<path d="M51.4046 265.472C51.3534 265.472 51.3534 265.421 51.4046 265.472C51.3534 265.421 51.3534 265.421 51.4046 265.472Z" fill="#08234B"/>
<path d="M51.6606 266.189C51.6606 266.138 51.6094 266.086 51.6094 266.035C51.6094 266.086 51.6094 266.138 51.6606 266.189Z" fill="#08234B"/>
<path d="M51.5073 265.881C51.5073 265.83 51.5073 265.83 51.4561 265.779C51.5073 265.779 51.5073 265.83 51.5073 265.881Z" fill="#08234B"/>
<path d="M79.923 219.238C68.8126 218.675 69.1198 244.429 68.4542 244.89C67.7886 245.35 33.6894 244.736 23.347 245.965C12.3902 247.296 10.8542 261.069 23.347 263.27C35.8398 265.472 51.4046 265.472 51.4046 265.472V265.523C51.4046 265.523 51.4046 265.574 51.4558 265.626C51.4558 265.677 51.507 265.728 51.507 265.779C51.507 265.83 51.5582 265.882 51.5582 265.933C51.6094 266.086 51.6606 266.24 51.6606 266.291V266.342C52.4286 268.544 54.9374 275.661 62.0542 296.141C62.0542 296.141 65.8942 307.814 71.3214 310.426C76.7486 313.037 86.2718 310.118 95.4366 302.643C103.782 295.834 109.261 289.741 108.288 282.982C107.725 279.296 102.144 274.534 99.2254 272.282C100.864 256.102 87.7054 248.474 87.7054 240.947C87.7566 232.397 89.4462 219.699 79.923 219.238Z" fill="#08234B"/>
<path d="M51.5586 265.882C51.5586 265.933 51.6098 265.984 51.6098 266.035C51.6098 266.086 51.661 266.138 51.661 266.189C51.6098 266.189 51.6098 266.035 51.5586 265.882Z" fill="#08234B"/>
<path d="M51.5068 265.882C51.5068 265.933 51.558 265.984 51.558 266.035C51.558 265.984 51.558 265.933 51.5068 265.882Z" fill="#08234B"/>
<path d="M51.4043 265.523C51.4043 265.574 51.4555 265.626 51.4555 265.677C51.4555 265.677 51.4043 265.574 51.4043 265.523Z" fill="#08234B"/>
<path d="M51.4043 265.523C51.4043 265.574 51.4555 265.677 51.4555 265.728V265.677C51.4555 265.626 51.4043 265.574 51.4043 265.523Z" fill="#08234B"/>
<path d="M88.7801 307.2C80.2809 297.062 79.9225 292.454 79.9225 292.454L64.9721 293.99L62.0537 296.09C62.0537 296.09 65.8937 307.763 71.3209 310.374C75.4169 312.371 81.9193 311.142 88.7801 307.2Z" fill="#394F6F"/>
<path d="M51.4046 265.472L54.0158 270.234C60.6206 265.626 63.7438 261.12 50.0734 261.222C31.0782 261.325 19.763 257.69 14.5918 255.232C14.8478 258.816 17.6126 262.298 23.347 263.322C35.8398 265.472 51.4046 265.472 51.4046 265.472Z" fill="#394F6F"/>
<path d="M80.5373 294.656C84.2237 291.533 85.1452 286.259 83.558 277.811C80.6908 262.809 73.6765 257.075 62.1053 257.126C54.7837 257.126 49.4588 258.458 48.6396 265.421C50.3292 265.472 51.3533 265.472 51.3533 265.472L67.1228 293.939C67.174 293.939 73.4717 295.834 80.5373 294.656Z" fill="#394F6F"/>
<path d="M62.5665 297.677C76.8001 297.011 82.0737 291.994 79.2065 276.992C76.3393 261.99 69.3249 256.256 57.7537 256.307C48.9985 256.307 43.0593 258.15 44.3905 269.414C45.6705 280.576 48.3329 298.291 62.5665 297.677Z" fill="#08234B"/>
<path d="M75.059 293.12C75.059 293.171 75.059 293.171 75.059 293.12C75.0078 293.171 75.0078 293.171 75.0078 293.171C75.0078 293.171 75.059 293.171 75.059 293.12Z" fill="#394F6F"/>
<path d="M72.4987 294.605C72.4987 294.656 72.4987 294.656 72.4987 294.605C72.4987 294.656 72.4475 294.656 72.4987 294.605C72.3963 294.656 72.3963 294.656 72.4987 294.605Z" fill="#394F6F"/>
<path d="M76.6977 291.533L76.6465 291.584C76.6465 291.584 76.6465 291.584 76.6977 291.533Z" fill="#394F6F"/>
<path d="M77.7725 289.587C77.8237 289.485 77.8237 289.536 77.7725 289.587C77.7725 289.638 77.7725 289.69 77.7725 289.587Z" fill="#394F6F"/>
<path d="M49.6637 258.611C49.8173 258.509 49.4589 258.662 49.6637 258.611V258.611Z" fill="#394F6F"/>
<path d="M51.507 294.554C52.9406 296.038 54.6814 297.216 56.627 297.933C58.7774 298.752 61.0814 298.906 63.3854 298.752C67.5326 298.496 72.0894 297.933 75.6734 295.629C78.6942 293.683 80.435 290.56 80.947 286.976C81.2542 284.723 81.203 282.47 80.947 280.218C80.5886 277.35 80.0766 274.534 79.2574 271.77C77.9774 267.366 75.9294 262.963 72.4478 259.891C69.2734 257.024 65.2286 255.59 61.0302 255.13C59.955 255.027 58.8798 254.976 57.7534 254.976C59.2894 254.976 59.2894 257.382 57.7534 257.382C59.9038 257.382 61.7982 257.536 63.8462 258.048C64.7678 258.253 65.6382 258.56 66.5086 258.918C67.0718 259.123 68.0446 259.686 68.7614 260.096C70.2974 261.069 71.6286 262.298 72.8062 263.782C73.267 264.346 73.8814 265.318 74.3422 266.138C74.8542 267.059 75.3662 268.083 75.7758 269.056C76.7486 271.462 77.4654 274.022 77.9774 276.582C78.4382 278.886 78.7966 281.242 78.7966 283.648C78.7966 285.542 78.6942 287.027 78.131 288.819C78.0798 289.024 77.9774 289.229 77.9262 289.434C77.9262 289.434 77.875 289.536 77.875 289.587C77.875 289.536 77.9262 289.485 77.875 289.587C77.8238 289.69 77.875 289.638 77.875 289.587C77.875 289.638 77.8238 289.741 77.8238 289.741C77.6702 290.099 77.4655 290.458 77.2607 290.816C77.1582 290.97 77.0558 291.123 76.9534 291.277C76.9022 291.328 76.7486 291.584 76.6974 291.584L76.7486 291.533C76.6463 291.584 76.6462 291.584 76.6462 291.584C76.4414 291.891 76.1854 292.147 75.9294 292.403C75.6734 292.659 75.4174 292.915 75.1102 293.12H75.1614C75.1102 293.171 75.1102 293.171 75.1102 293.171C75.1102 293.171 75.1614 293.171 75.1614 293.12C75.1102 293.171 75.0078 293.222 74.9566 293.274C74.803 293.376 74.5982 293.53 74.4446 293.632C74.1374 293.837 73.779 294.042 73.4206 294.195C73.2158 294.298 73.011 294.4 72.8062 294.502C72.7038 294.554 72.6526 294.554 72.5502 294.605C72.4478 294.656 72.4478 294.656 72.499 294.605C72.4478 294.656 72.3966 294.656 72.2942 294.707C70.5022 295.373 68.5054 295.834 66.7134 296.09C64.5118 296.397 62.1566 296.653 59.955 296.346C58.2654 296.141 56.5758 295.475 55.0398 294.451C54.3742 293.99 53.7086 293.427 53.0942 292.71C52.3774 291.942 51.9678 291.43 51.4558 290.611C50.3806 288.973 49.5614 287.181 48.8958 285.44C47.4622 281.498 46.643 277.35 46.0798 273.203C45.9774 272.282 45.8238 271.462 45.7214 270.438C45.5678 269.261 45.4654 268.134 45.4142 266.957C45.363 265.882 45.4142 264.806 45.619 263.834C45.7214 263.373 45.8238 262.912 45.9774 262.502C46.131 261.99 46.1822 261.939 46.4382 261.427C46.5406 261.274 46.5918 261.12 46.6942 260.966C46.7454 260.864 46.7966 260.813 46.8478 260.71C46.8478 260.71 46.899 260.608 46.9502 260.557C46.9502 260.557 46.9502 260.608 46.899 260.608C47.0014 260.506 46.9502 260.506 46.9502 260.557C47.2062 260.25 47.4622 259.994 47.7694 259.686C47.8206 259.635 47.8718 259.584 47.923 259.533C47.923 259.533 47.9742 259.533 47.9742 259.482C47.8206 259.584 48.1278 259.379 47.9742 259.482C47.9742 259.482 47.9742 259.482 48.0254 259.43L48.4862 259.123C48.8446 258.918 49.203 258.714 49.5614 258.56C49.6126 258.56 49.6126 258.56 49.6126 258.509C49.459 258.56 49.7662 258.458 49.6126 258.509H49.6638C49.7662 258.458 49.8686 258.406 49.971 258.406C50.1246 258.355 50.3294 258.304 50.483 258.202C50.9438 258.048 51.4046 257.946 51.8654 257.843C52.8894 257.638 53.5038 257.536 54.579 257.485C55.603 257.434 56.6782 257.382 57.7022 257.382C56.1662 257.382 56.1662 254.976 57.7022 254.976C53.7598 254.976 49.203 255.181 46.0798 257.946C42.5982 260.966 42.7518 266.035 43.2638 270.182C43.7758 274.534 44.4414 278.886 45.619 283.085C46.7966 287.283 48.4862 291.482 51.507 294.554Z" fill="#394F6F"/>
<path d="M57.7539 257.485C59.2899 257.485 59.2899 255.078 57.7539 255.078C56.1667 255.027 56.1667 257.485 57.7539 257.485Z" fill="#394F6F"/>
<path d="M48.0252 259.533C48.1276 259.431 47.8204 259.635 48.0252 259.533V259.533Z" fill="#394F6F"/>
<path d="M46.9502 260.608C46.9502 260.557 46.9502 260.557 46.9502 260.608C47.0014 260.506 47.0526 260.506 46.9502 260.608Z" fill="#394F6F"/>
<path d="M249.549 253.133C238.08 252.467 238.438 279.04 237.722 279.501C237.056 279.962 201.933 279.347 191.283 280.627C185.19 281.344 181.965 285.798 182.272 290.099C182.579 294.758 186.624 297.574 191.283 298.394C198.042 299.571 205.978 300.186 212.787 300.493C212.582 303.77 211.507 327.68 229.018 333.159C230.246 336.026 232.499 340.736 234.394 343.245C237.107 346.88 253.44 343.245 264.806 334.438C276.019 325.734 277.965 317.133 276.429 312.525C275.456 309.555 270.643 308.378 267.878 305.818C268.8 290.304 257.536 282.471 257.536 275.405C257.587 266.65 259.533 253.696 249.549 253.133Z" fill="#08234B"/>
<path d="M229.069 333.158C230.298 336.026 232.55 340.736 234.445 343.245C236.442 345.856 245.453 344.73 254.566 340.582C249.6 337.357 244.941 326.195 244.941 326.195C219.341 329.062 220.672 301.619 219.136 297.677C216.883 291.891 208.538 295.68 182.682 292.147C183.859 295.629 187.341 297.779 191.334 298.496C198.093 299.674 206.029 300.288 212.838 300.595C212.582 303.77 211.507 327.68 229.069 333.158Z" fill="#394F6F"/>
</svg>
