<svg width="26" height="25" viewBox="0 0 26 25" fill="none" xmlns="http://www.w3.org/2000/svg">
<g clip-path="url(#clip0_227_236)">
<path d="M23.6309 3.71094H3.02539C1.81138 3.71094 0.828125 4.70029 0.828125 5.9082V19.0918C0.828125 20.3069 1.8186 21.2891 3.02539 21.2891H23.6309C24.8347 21.2891 25.8281 20.311 25.8281 19.0918V5.9082C25.8281 4.70244 24.8488 3.71094 23.6309 3.71094ZM23.3231 5.17578C22.8742 5.62231 15.1486 13.3073 14.8818 13.5726C14.4668 13.9876 13.915 14.2162 13.3281 14.2162C12.7412 14.2162 12.1895 13.9876 11.773 13.5712C11.5937 13.3928 3.95327 5.79268 3.33311 5.17578H23.3231ZM2.29297 18.7937V6.20728L8.62295 12.5039L2.29297 18.7937ZM3.33403 19.8242L9.66152 13.537L10.7386 14.6084C11.4303 15.3001 12.35 15.681 13.3281 15.681C14.3063 15.681 15.2259 15.3001 15.9163 14.6098L16.9947 13.537L23.3222 19.8242H3.33403ZM24.3633 18.7937L18.0333 12.5039L24.3633 6.20728V18.7937Z" fill="#08234B"/>
</g>
<defs>
<clipPath id="clip0_227_236">
<rect width="25" height="25" fill="white" transform="translate(0.828125)"/>
</clipPath>
</defs>
</svg>
