<svg width="25" height="25" viewBox="0 0 25 25" fill="none" xmlns="http://www.w3.org/2000/svg">
<g clip-path="url(#clip0_227_256)">
<path d="M12.5 0C5.60767 0 0 5.60737 0 12.5C0 19.3926 5.60767 25 12.5 25C19.3926 25 25 19.3926 25 12.5C25 5.60737 19.3923 0 12.5 0ZM12.5 23.1752C6.61377 23.1752 1.8248 18.3862 1.8248 12.5C1.8248 6.61377 6.61377 1.8248 12.5 1.8248C18.3862 1.8248 23.1752 6.61372 23.1752 12.4997C23.1752 18.3862 18.3862 23.1752 12.5 23.1752Z" fill="#08234B"/>
<path d="M16.7571 12.5001H12.8033V7.02568C12.8033 6.52173 12.3949 6.11328 11.8909 6.11328C11.387 6.11328 10.9785 6.52173 10.9785 7.02568V13.4125C10.9785 13.9165 11.387 14.325 11.8909 14.325H16.7571C17.261 14.325 17.6695 13.9165 17.6695 13.4125C17.6695 12.9086 17.261 12.5001 16.7571 12.5001Z" fill="#08234B"/>
</g>
<defs>
<clipPath id="clip0_227_256">
<rect width="25" height="25" fill="white"/>
</clipPath>
</defs>
</svg>
