<svg width="25" height="25" viewBox="0 0 25 25" fill="none" xmlns="http://www.w3.org/2000/svg">
<g clip-path="url(#clip0_227_214)">
<path d="M19.7573 15.4868C19.2455 14.9539 18.6281 14.669 17.9738 14.669C17.3248 14.669 16.7022 14.9487 16.1693 15.4816L14.502 17.1436C14.3648 17.0698 14.2276 17.0012 14.0957 16.9326C13.9057 16.8376 13.7263 16.7479 13.5733 16.6529C12.0115 15.661 10.5921 14.3682 9.23081 12.6956C8.57126 11.8619 8.12804 11.1602 7.80618 10.4479C8.23885 10.0521 8.63986 9.64057 9.03031 9.24484C9.17805 9.0971 9.32579 8.94408 9.47353 8.79634C10.5816 7.68829 10.5816 6.25311 9.47353 5.14506L8.03307 3.7046C7.8695 3.54103 7.70065 3.37218 7.54236 3.20334C7.22578 2.8762 6.89336 2.53851 6.55039 2.22192C6.03858 1.71539 5.42652 1.44629 4.78279 1.44629C4.13907 1.44629 3.51645 1.71539 2.98881 2.22192C2.98353 2.2272 2.98353 2.2272 2.97826 2.23248L1.18427 4.04229C0.508891 4.71767 0.123713 5.54079 0.0392898 6.49582C-0.0873443 8.03654 0.366428 9.47173 0.714672 10.4109C1.56945 12.7167 2.84635 14.8537 4.75113 17.1436C7.06221 19.9032 9.84288 22.0824 13.0193 23.6178C14.2329 24.1929 15.8527 24.8736 17.6625 24.9897C17.7733 24.995 17.8894 25.0002 17.995 25.0002C19.2138 25.0002 20.2374 24.5623 21.0394 23.6917C21.0447 23.6811 21.0553 23.6759 21.0606 23.6653C21.3349 23.3329 21.6515 23.0321 21.9839 22.7103C22.2108 22.4939 22.443 22.267 22.6699 22.0296C23.1922 21.4861 23.4666 20.853 23.4666 20.204C23.4666 19.5497 23.1869 18.9218 22.654 18.3942L19.7573 15.4868ZM21.6462 21.0429C21.641 21.0429 21.641 21.0482 21.6462 21.0429C21.4405 21.2645 21.2294 21.465 21.0025 21.6866C20.6595 22.0138 20.3113 22.3567 19.9842 22.7419C19.4512 23.3118 18.8233 23.5809 18.0002 23.5809C17.9211 23.5809 17.8367 23.5809 17.7575 23.5756C16.1904 23.4753 14.7341 22.8633 13.6419 22.3409C10.6554 20.8952 8.03307 18.8426 5.85391 16.2414C4.05465 14.0728 2.85162 12.0677 2.05488 9.91495C1.56418 8.60112 1.38478 7.57749 1.46392 6.61191C1.51669 5.99456 1.75413 5.48275 2.19207 5.04481L3.99133 3.24555C4.24987 3.00283 4.52425 2.87092 4.79335 2.87092C5.12576 2.87092 5.39486 3.07143 5.5637 3.24027C5.56898 3.24555 5.57426 3.25083 5.57953 3.2561C5.90139 3.55686 6.20743 3.86817 6.52929 4.20058C6.69286 4.36943 6.8617 4.53827 7.03055 4.71239L8.47101 6.15286C9.03031 6.71216 9.03031 7.22925 8.47101 7.78855C8.31799 7.94156 8.17025 8.09458 8.01724 8.24232C7.57402 8.69609 7.15191 9.11821 6.69286 9.52977C6.6823 9.54032 6.67175 9.5456 6.66647 9.55615C6.2127 10.0099 6.29713 10.4531 6.3921 10.7539C6.39738 10.7697 6.40265 10.7856 6.40793 10.8014C6.78256 11.7089 7.3102 12.5637 8.11221 13.5821L8.11749 13.5873C9.57378 15.3813 11.1092 16.7796 12.803 17.8507C13.0193 17.9879 13.2409 18.0987 13.452 18.2042C13.6419 18.2992 13.8213 18.3889 13.9743 18.4839C13.9954 18.4944 14.0165 18.5102 14.0376 18.5208C14.217 18.6105 14.3859 18.6527 14.56 18.6527C14.9979 18.6527 15.2723 18.3783 15.362 18.2886L17.1666 16.4841C17.346 16.3047 17.6309 16.0884 17.9633 16.0884C18.2904 16.0884 18.5595 16.2941 18.7231 16.4735C18.7284 16.4788 18.7284 16.4788 18.7337 16.4841L21.641 19.3914C22.1844 19.9296 22.1844 20.4836 21.6462 21.0429Z" fill="#08234B"/>
<path d="M13.5102 5.94676C14.8926 6.17892 16.1484 6.83319 17.1509 7.83571C18.1534 8.83823 18.8024 10.094 19.0398 11.4764C19.0979 11.8247 19.3986 12.0674 19.7416 12.0674C19.7838 12.0674 19.8208 12.0621 19.863 12.0569C20.2534 11.9935 20.512 11.6242 20.4487 11.2337C20.1637 9.5611 19.3723 8.03622 18.164 6.82792C16.9557 5.61962 15.4308 4.82815 13.7581 4.54323C13.3677 4.47991 13.0036 4.73846 12.935 5.12363C12.8664 5.50881 13.1197 5.88344 13.5102 5.94676Z" fill="#08234B"/>
<path d="M24.9695 11.028C24.4999 8.27374 23.2019 5.76744 21.2075 3.77295C19.213 1.77846 16.7067 0.480461 13.9524 0.0108597C13.5672 -0.0577338 13.2031 0.206087 13.1345 0.591266C13.0712 0.981721 13.3298 1.34579 13.7202 1.41439C16.179 1.83123 18.4215 2.99731 20.2049 4.77547C21.9884 6.5589 23.1492 8.80138 23.566 11.2602C23.6241 11.6084 23.9248 11.8511 24.2678 11.8511C24.31 11.8511 24.3469 11.8459 24.3891 11.8406C24.7743 11.7826 25.0381 11.4132 24.9695 11.028Z" fill="#08234B"/>
</g>
<defs>
<clipPath id="clip0_227_214">
<rect width="25" height="25" fill="white"/>
</clipPath>
</defs>
</svg>
