<svg width="25" height="25" viewBox="0 0 25 25" fill="none" xmlns="http://www.w3.org/2000/svg">
<path d="M16.6736 16.5178C19.3339 12.3434 18.9995 12.8642 19.0762 12.7553C20.0447 11.3892 20.5566 9.78135 20.5566 8.10547C20.5566 3.66113 16.9501 0 12.5 0C8.06436 0 4.44336 3.65391 4.44336 8.10547C4.44336 9.78027 4.96602 11.4302 5.96631 12.8147L8.32627 16.5179C5.80308 16.9056 1.51367 18.0611 1.51367 20.6055C1.51367 21.533 2.11904 22.8547 5.00303 23.8847C7.0168 24.6039 9.67925 25 12.5 25C17.7747 25 23.4863 23.5121 23.4863 20.6055C23.4863 18.0607 19.202 16.9064 16.6736 16.5178ZM7.18989 12.009C7.18184 11.9964 7.17344 11.9841 7.16465 11.972C6.33227 10.8269 5.9082 9.46978 5.9082 8.10547C5.9082 4.44248 8.85771 1.46484 12.5 1.46484C16.1347 1.46484 19.0918 4.4438 19.0918 8.10547C19.0918 9.47197 18.6757 10.7831 17.8884 11.898C17.8178 11.9911 18.1859 11.4192 12.5 20.3413L7.18989 12.009ZM12.5 23.5352C6.73857 23.5352 2.97852 21.8417 2.97852 20.6055C2.97852 19.7746 4.91055 18.4084 9.1918 17.8759L11.8823 22.0978C12.0168 22.3088 12.2497 22.4365 12.5 22.4365C12.7502 22.4365 12.9832 22.3087 13.1176 22.0978L15.8081 17.8759C20.0894 18.4084 22.0215 19.7746 22.0215 20.6055C22.0215 21.8312 18.2953 23.5352 12.5 23.5352Z" fill="#08234B"/>
<path d="M12.5 4.44336C10.4807 4.44336 8.83789 6.08618 8.83789 8.10547C8.83789 10.1248 10.4807 11.7676 12.5 11.7676C14.5193 11.7676 16.1621 10.1248 16.1621 8.10547C16.1621 6.08618 14.5193 4.44336 12.5 4.44336ZM12.5 10.3027C11.2884 10.3027 10.3027 9.31704 10.3027 8.10547C10.3027 6.8939 11.2884 5.9082 12.5 5.9082C13.7116 5.9082 14.6973 6.8939 14.6973 8.10547C14.6973 9.31704 13.7116 10.3027 12.5 10.3027Z" fill="#08234B"/>
</svg>
