<svg width="120" height="86" viewBox="0 0 120 86" fill="none" xmlns="http://www.w3.org/2000/svg">
<path d="M42.3377 37.2083L53.0303 31.4058L66.0488 26.9597L77.7977 24.1378L90.2955 23.9023L96.0583 37.7962L88.8746 44.0326L80.3741 49.3938L64.5088 56.694L50.481 60.659L42.3377 37.2083Z" fill="#E0E3E6"/>
<path d="M86.4484 31.9762C87.9768 33.936 87.9345 37.158 85.9747 38.6863C84.015 40.2147 80.0044 40.7874 78.4761 38.8276C76.9477 36.8679 76.2882 33.5591 78.248 32.0307C80.2077 30.5024 84.92 30.0164 86.4484 31.9762Z" fill="#BDCBE0"/>
<path d="M72.5537 37.7391C74.0821 39.6989 73.9059 41.123 71.9462 42.6514C69.9864 44.1798 68.1679 44.3111 66.6396 42.3514C65.1112 40.3916 65.4964 40.0725 66.1511 37.6597C68.1108 36.1314 71.0253 35.7793 72.5537 37.7391Z" fill="#BDCBE0"/>
<path d="M9.92176 63.1238L15.2209 57.7229L18.99 56.0516L22.5857 55.7838L24.1702 60.2547L20.3143 62.6278L15.9301 63.5106L9.92176 63.1238Z" fill="#F74B4B"/>
<path d="M110.951 23.8222L110.866 23.6411L108.957 23.4729C102.82 22.9333 100.753 22.7741 98.2555 22.6549C95.6051 22.5322 93.0548 22.5744 90.4268 22.7822C90.0507 22.8121 89.3919 22.8152 88.9622 22.7875C77.0798 22.0587 59.2143 26.8107 44.2957 34.6605C43.5899 35.0313 42.8949 35.4031 42.7594 35.4866C42.6176 35.5673 42.4969 35.6346 42.4888 35.6273C42.4825 35.6245 42.2976 35.3617 42.0853 35.0416C39.7764 31.6146 37.4864 29.965 34.6243 29.6733C33.9855 29.606 32.5848 29.5867 31.8166 29.6319C28.4782 29.8313 25.5141 30.7581 21.5332 32.8538C20.5357 33.3786 20.4936 33.4053 20.5469 33.4891C20.5717 33.5265 21.0073 33.6511 21.5154 33.7739C24.7356 34.5332 26.555 35.0958 28.3158 35.874C30.8548 36.9999 32.6069 38.3816 34.0378 40.3983C34.1731 40.5863 34.2778 40.7495 34.2739 40.7666C34.2683 40.7792 33.7866 41.1473 33.2014 41.5865C29.189 44.6074 26.3823 47.3993 24.3196 50.437C23.8348 51.1507 23.6745 51.442 23.2902 52.2943C22.8514 53.2773 22.547 54.1876 22.4633 54.773C22.4149 55.1099 22.4605 55.0924 21.6414 55.0736C20.9647 55.0575 19.9333 55.1674 19.1768 55.3386C17.2487 55.7727 15.4299 56.7493 13.6452 58.3181C12.0719 59.7011 9.66908 62.2905 9.3741 62.9259C9.05206 63.6134 9.58678 63.846 12.0729 64.0998C15.0112 64.3988 17.2255 64.3137 19.1715 63.8309C19.8063 63.6701 21.3756 63.0661 21.886 62.7862C22.8491 62.2537 23.7622 61.6049 24.4136 60.9837L24.7401 60.6753L24.8505 60.7581C25.1748 60.9881 26.007 61.4767 26.4404 61.6908C28.8418 62.854 32.4406 63.4675 36.8396 63.4653C38.0845 63.461 40.2375 63.3525 41.6313 63.2179L42.7789 63.1103L42.804 63.2571C42.9085 63.937 42.908 65.1061 42.8046 66.0487C42.6414 67.4892 42.2717 68.7743 41.5787 70.3351C40.7939 72.0931 39.8212 73.7303 37.9409 76.4526C37.6462 76.8843 37.4065 77.2688 37.4131 77.3132C37.4299 77.4111 37.479 77.4026 38.571 77.1233C43.5016 75.8623 46.5112 74.3596 49.3929 71.7216C51.1004 70.1564 51.8815 68.906 52.3171 67.0164C52.6212 65.6835 52.644 63.6604 52.3674 61.8256L52.3085 61.4413L52.506 61.3966C53.4362 61.2003 56.217 60.4641 57.9136 59.9729C61.0864 59.044 63.294 58.2883 66.8935 56.903C70.493 55.5177 72.6423 54.5966 75.6146 53.1604C84.0256 49.0884 90.9322 44.4421 95.5834 39.7193C95.9904 39.307 96.4665 38.8837 96.9629 38.4996C98.2026 37.5424 99.6695 36.3047 100.473 35.5468C103.092 33.0722 104.818 31.2964 109.714 26.0517L111.183 24.4792L111.112 24.2404C111.067 24.1113 111 23.9232 110.951 23.8222ZM94.1632 34.1239C94.4178 34.9078 94.7557 36.1397 95.1424 37.7025C95.2196 38.012 95.2337 37.9805 94.4545 38.7866C92.8749 40.4121 90.5436 42.3843 88.1999 44.0795C79.71 50.2327 67.6187 55.8203 55.8291 59.0479C54.1756 59.5016 52.1532 60.0034 52.0918 59.98C52.0476 59.9605 51.1238 57.7643 49.9898 54.981L49.3718 53.4707L49.7749 53.1434C50.6505 52.4515 51.3801 51.5028 51.7999 50.5115C52.2479 49.4572 52.3742 48.5058 52.2009 47.4297C52.1438 47.0498 51.7485 46.0226 51.5362 45.7025C50.9433 44.7879 50.2118 44.1666 49.1726 43.6847C48.2045 43.238 47.1593 43.0401 46.0027 43.0835L45.3944 43.1088L44.9442 41.9254C44.305 40.251 43.1452 36.9924 43.1722 36.9402C43.2144 36.8457 46.4434 35.1646 48.2864 34.2779C51.1829 32.8761 53.103 32.0537 56.7846 30.6367C60.0191 29.3919 61.0488 29.0322 63.5609 28.2375C69.9204 26.2388 76.1448 24.9234 81.6746 24.4025C83.061 24.2759 85.6623 24.1619 86.9033 24.1748C87.962 24.19 89.4192 24.2606 89.765 24.3154L89.9551 24.3466L90.5209 25.3812C90.856 25.9933 91.3117 26.9189 91.6432 27.6576C91.9536 28.3418 92.2658 29.0305 92.3379 29.1906C92.585 29.7373 93.8548 33.1728 94.1632 34.1239ZM23.8001 60.2335C23.4521 60.5814 22.7254 61.1429 22.1852 61.4812C20.3318 62.6538 18.2162 63.254 15.7466 63.3017C14.4932 63.3249 12.022 63.1644 10.8677 62.9825L10.5391 62.9315L10.6223 62.8212C10.765 62.6202 12.1476 61.1227 12.8345 60.4304C14.8466 58.3775 16.1448 57.45 18.0107 56.7319C19.3092 56.2269 20.3737 56.026 21.6348 56.0364C22.3932 56.0471 22.3231 56.0011 22.3713 56.4939C22.3907 56.7213 22.4088 56.9178 22.406 56.9241C22.4077 56.9287 21.5288 57.4757 20.4613 58.1318C17.867 59.7199 18.0639 59.5919 18.1041 59.6965C18.1444 59.801 17.9107 59.8335 20.4846 59.3491C21.6537 59.134 22.7228 58.9313 22.861 58.9094L23.1066 58.8671L23.2743 59.126C23.3658 59.2683 23.5563 59.5185 23.701 59.6767C23.8458 59.835 23.9715 59.9849 23.9785 60.0031C23.9901 60.0195 23.9068 60.1298 23.8001 60.2335Z" fill="#08234B"/>
<path d="M87.813 32.3403C86.8134 30.4916 84.6379 29.3302 82.3689 29.4364C81.5908 29.4697 81.1175 29.5736 80.3008 29.8879C79.4842 30.2022 79.0634 30.4424 78.4637 30.9393C77.1864 31.9893 76.3612 33.5332 76.2508 35.0838C76.1338 36.6578 76.69 38.171 77.7836 39.2843C80.7454 42.2982 86.2007 41.2162 87.9598 37.2673C88.6939 35.6228 88.6421 33.8685 87.813 32.3403ZM87.1727 34.0792C87.3755 35.1231 87.1708 36.2925 86.6229 37.2235C86.3084 37.7672 85.6844 38.4457 85.1553 38.8267C84.7913 39.0921 84.6642 39.1566 83.9708 39.4235C83.2773 39.6904 83.1398 39.7277 82.6918 39.7749C81.6358 39.8891 80.464 39.6617 79.6272 39.1749C77.7915 38.1071 77.0358 36.1436 77.682 34.1207C77.9766 33.1985 78.6935 32.2442 79.5536 31.6209C79.9177 31.3556 80.0447 31.291 80.7382 31.0241C81.4316 30.7573 81.5691 30.72 82.0172 30.6728C84.2092 30.4345 86.2293 31.5461 86.9647 33.4026C87.0515 33.6144 87.1424 33.9186 87.1727 34.0792Z" fill="#08234B"/>
<path d="M73.4494 37.7903C72.7318 36.6471 71.5587 35.9401 70.1669 35.8078C67.6145 35.5586 65.2461 37.4616 65.0464 39.9233C64.9927 40.6275 65.0463 40.9983 65.3087 41.68C65.5711 42.3618 65.7798 42.6728 66.2918 43.1594C67.4073 44.2069 68.9781 44.5729 70.5638 44.161C72.1049 43.7557 73.3816 42.5547 73.8346 41.0914C73.9803 40.6126 74.0559 39.8426 73.9981 39.3795C73.9439 38.9255 73.6774 38.1514 73.4494 37.7903ZM72.7818 39.4719C72.9061 40.3529 72.5983 41.2541 71.9145 41.9817C71.1819 42.7594 70.1761 43.1673 69.1445 43.0999C68.6514 43.0706 68.3981 43.0115 67.95 42.8134C66.8084 42.324 66.1413 41.2031 66.2523 39.981C66.3616 38.8222 67.2625 37.6927 68.4396 37.2397C69.1421 36.9693 70.1089 36.9364 70.778 37.1642C71.8868 37.5411 72.624 38.395 72.7818 39.4719Z" fill="#08234B"/>
</svg>
