<svg width="64" height="64" viewBox="0 0 64 64" fill="none" xmlns="http://www.w3.org/2000/svg">
<g clip-path="url(#clip0_539_198)">
<g clip-path="url(#clip1_539_198)">
<rect x="0.499878" y="0.500107" width="63.0002" height="63.0002" rx="14.5" fill="#08234B" stroke="#08234B"/>
<path d="M44.3738 12.4486L51.6916 19.7663L46 29.5233L37.0561 39.2804L30.9579 44.5654L19.9813 33.5888L24.8598 27.0841L34.6168 18.1402L44.3738 12.4486Z" fill="white"/>
<path d="M29.7857 38.6778C29.649 39.908 29.0016 41.2084 28.1085 42.1756L25.0365 39.1036L21.9645 36.0316C22.9317 35.1385 24.2321 34.4911 25.4623 34.3544C26.7704 34.209 27.947 34.5904 28.7484 35.3917C29.5497 36.193 29.931 37.3697 29.7857 38.6778Z" fill="white" stroke="#08234B" stroke-width="0.5"/>
<rect x="42.7476" y="16.514" width="6.89925" height="6.89925" rx="3.44962" transform="rotate(45 42.7476 16.514)" fill="#08234B"/>
<path d="M35.221 25.9787C35.7172 25.2934 36.5755 24.9717 37.3999 25.162L37.644 25.2183C38.2792 25.3649 38.7752 25.8609 38.9218 26.4962C38.9651 26.6835 38.9763 26.8768 38.9551 27.0678L38.9327 27.2689C38.8384 28.1182 38.3733 28.8823 37.6623 29.3563L37.2168 29.6533C36.6716 30.0168 35.9812 30.0852 35.3753 29.8357L35.3557 29.8276C34.8828 29.6329 34.5073 29.2573 34.3125 28.7844C34.0594 28.1697 34.1427 27.4678 34.5326 26.9294L35.221 25.9787Z" fill="#08234B"/>
<path d="M56.46 7.46501L56.3663 7.3844L55.2308 7.78439C51.5799 9.07147 50.3556 9.51782 48.8948 10.0985C47.3453 10.717 45.8939 11.4031 44.439 12.2034C44.2308 12.318 43.8539 12.4908 43.6008 12.5866C36.61 15.258 27.544 22.5936 20.9326 30.9226C20.6197 31.3163 20.3132 31.7078 20.2562 31.7904C20.1948 31.873 20.1423 31.9426 20.1358 31.9405C20.1315 31.9405 19.9606 31.8394 19.7598 31.7128C17.5896 30.3671 15.8695 30.0253 14.1568 30.6028C13.7741 30.7304 12.9665 31.0832 12.5373 31.3083C10.6731 32.2882 9.20312 33.5839 7.4392 35.8069C6.99712 36.3638 6.97957 36.3898 7.0308 36.4236C7.0543 36.4384 7.33474 36.396 7.65634 36.3338C9.6897 35.9287 10.8715 35.7757 12.0731 35.7603C13.8066 35.7401 15.1523 36.0695 16.4708 36.8427C16.5947 36.9143 16.6951 36.9798 16.6971 36.9905C16.697 36.9991 16.5118 37.3331 16.2849 37.7343C14.7316 40.4908 13.8126 42.8042 13.381 45.0639C13.2794 45.5949 13.2595 45.8018 13.2499 46.3854C13.2412 47.0573 13.2917 47.653 13.3884 48.007C13.4439 48.2109 13.4657 48.1891 12.9916 48.3911C12.5997 48.5576 12.0357 48.8878 11.6444 49.1813C10.6465 49.9284 9.84532 50.9549 9.20999 52.3087C8.64993 53.5022 7.91252 55.5958 7.90044 56.0331C7.88573 56.5069 8.24968 56.5001 9.73742 55.9987C11.4955 55.4055 12.7436 54.7823 13.7397 54.003C14.0638 53.747 14.8141 52.9967 15.0375 52.7053C15.4579 52.153 15.821 51.5477 16.0408 51.026L16.1518 50.7662L16.2356 50.7845C16.4783 50.8309 17.076 50.8921 17.3773 50.9011C19.0411 50.9379 21.2555 50.3518 23.7764 49.2084C24.4889 48.8827 25.6961 48.2622 26.4618 47.8239L27.0929 47.4648L27.1436 47.5417C27.3715 47.9005 27.6601 48.5642 27.8338 49.1261C28.0961 49.9861 28.2018 50.8115 28.1902 51.8774C28.1748 53.079 28.0218 54.2608 27.6167 56.2942C27.5545 56.6158 27.5121 56.8962 27.5269 56.9197C27.5607 56.9709 27.5867 56.9534 28.1436 56.5113C30.6581 54.5154 32.0119 52.8811 33.0118 50.6355C33.6038 49.3038 33.7425 48.3913 33.5252 47.2056C33.3702 46.3701 32.8834 45.2158 32.2715 44.2462L32.1427 44.0433L32.2449 43.9667C32.7296 43.6138 34.1415 42.4739 34.9926 41.7546C36.5817 40.4036 37.6603 39.4015 39.3812 37.6807C41.1021 35.9598 42.1064 34.879 43.4552 33.2921C47.27 28.797 50.0807 24.3665 51.5797 20.4783C51.7111 20.1385 51.8794 19.7747 52.069 19.4277C52.543 18.5626 53.078 17.4792 53.351 16.8405C54.2412 14.7557 54.7917 13.2997 56.3018 9.05168L56.7552 7.77771L56.6556 7.66057C56.5982 7.59887 56.5132 7.50954 56.46 7.46501ZM49.3831 17.6709C49.7227 18.0498 50.2208 18.6613 50.8286 19.448C50.9493 19.6036 50.9496 19.5821 50.7021 20.2419C50.1984 21.5747 49.3495 23.2994 48.425 24.8701C45.0792 30.567 39.5293 36.8778 33.5693 41.7708C32.7337 42.4576 31.6984 43.2675 31.6575 43.2702C31.6273 43.2706 30.5551 42.2638 29.2174 40.9784L28.49 40.2816L28.6402 39.9911C28.9711 39.3711 29.1548 38.6432 29.1506 37.9715C29.1468 37.2567 28.9841 36.684 28.6189 36.1181C28.4923 35.9174 28.0119 35.4369 27.8111 35.3103C27.2453 34.9451 26.6725 34.7824 25.9577 34.7787C25.2925 34.7765 24.6445 34.9355 23.9923 35.2604L23.6499 35.4327L23.0994 34.8779C22.3193 34.0934 20.8493 32.5449 20.8519 32.5083C20.8528 32.4437 22.2882 30.6511 23.1254 29.6694C24.4393 28.1217 25.3366 27.1563 27.0968 25.3962C28.6431 23.8498 29.1444 23.3783 30.388 22.275C33.5392 19.4894 36.7819 17.1268 39.8227 15.3954C40.5861 14.9636 42.049 14.2235 42.7635 13.9086C43.3741 13.6424 44.2267 13.3041 44.4385 13.2454L44.5552 13.2138L45.1351 13.6542C45.4784 13.9146 45.9684 14.3217 46.3409 14.6549C46.6879 14.9626 47.037 15.2725 47.1179 15.3447C47.3946 15.5908 48.9713 17.2112 49.3831 17.6709ZM15.5039 50.7594C15.3903 51.0472 15.1125 51.5546 14.8865 51.8869C14.1139 53.0337 13.0496 53.9236 11.6459 54.5919C10.9332 54.9305 9.47709 55.481 8.77053 55.6774L8.56957 55.7338L8.59003 55.6496C8.62212 55.4984 9.04458 54.2895 9.26723 53.7182C9.91331 52.0305 10.4282 51.167 11.3203 50.2749C11.9398 49.6512 12.5003 49.2608 13.2257 48.9393C13.663 48.7485 13.6115 48.7405 13.7609 49.0077C13.8282 49.1317 13.8871 49.2386 13.887 49.2429C13.8892 49.2451 13.5205 49.7838 13.0708 50.4333C11.9762 52.0083 12.0575 51.8845 12.1063 51.9334C12.1552 51.9823 12.0293 52.0615 13.385 51.1182C14.0019 50.6926 14.5646 50.3 14.6384 50.2517L14.7687 50.1639L14.9289 50.2673C15.0164 50.3243 15.1875 50.4168 15.3095 50.4691C15.4316 50.5214 15.5407 50.5738 15.5492 50.5823C15.5599 50.5886 15.5394 50.6728 15.5039 50.7594Z" fill="white"/>
<path d="M45.3028 18.3062C44.273 17.5163 42.7391 17.422 41.4648 18.0713C41.027 18.2923 40.7814 18.4741 40.391 18.8645C40.0006 19.2549 39.8187 19.5006 39.5978 19.9383C39.1251 20.8659 39.0336 21.9565 39.3534 22.8653C39.6753 23.7891 40.368 24.5036 41.2699 24.8516C43.7123 25.7934 46.5718 23.7629 46.6043 21.0647C46.6188 19.9406 46.1556 18.9584 45.3028 18.3062ZM45.3654 19.4594C45.7396 19.9993 45.9112 20.7162 45.8273 21.3869C45.7813 21.7772 45.5913 22.3243 45.3822 22.678C45.2391 22.9231 45.1822 22.9927 44.8507 23.3243C44.5192 23.6558 44.4496 23.7127 44.2044 23.8558C43.6274 24.1947 42.8995 24.3699 42.2996 24.3109C40.9836 24.1814 40.0653 23.2631 39.9358 21.9471C39.8768 21.3471 40.0519 20.6193 40.3909 20.0422C40.534 19.7971 40.5909 19.7275 40.9224 19.396C41.2539 19.0644 41.3236 19.0076 41.5687 18.8645C42.7662 18.1601 44.1988 18.2666 45.079 19.1294C45.1811 19.2271 45.3084 19.3762 45.3654 19.4594Z" fill="#08234B"/>
<path d="M38.4165 25.13C37.7227 24.6674 36.8757 24.5707 36.0452 24.8569C34.5206 25.3782 33.6333 27.0733 34.1271 28.5224C34.2704 28.9361 34.3927 29.1326 34.7116 29.4514C35.0304 29.7703 35.2269 29.8926 35.6406 30.0359C36.5388 30.3408 37.5296 30.1408 38.3367 29.4952C39.1199 28.8651 39.5549 27.8519 39.453 26.9037C39.4182 26.5941 39.2712 26.1374 39.1237 25.8896C38.9804 25.6459 38.6364 25.2757 38.4165 25.13ZM38.4494 26.2578C38.7383 26.7256 38.7846 27.3171 38.5724 27.9076C38.3447 28.5392 37.869 29.0319 37.261 29.2615C36.9711 29.3728 36.8114 29.405 36.5056 29.409C35.7303 29.4276 35.0709 28.9645 34.8326 28.242C34.6089 27.5559 34.8462 26.6809 35.4089 26.1182C35.7448 25.7823 36.2909 25.5126 36.7306 25.4682C37.4593 25.3942 38.0928 25.6875 38.4494 26.2578Z" fill="#08234B"/>
<path d="M23.641 35.2158L19.778 31.3528" stroke="#08234B" stroke-width="0.5"/>
<path d="M32.585 44.1597L28.9252 40.5" stroke="#08234B" stroke-width="0.5"/>
</g>
</g>
<defs>
<clipPath id="clip0_539_198">
<rect width="64" height="64" fill="white"/>
</clipPath>
<clipPath id="clip1_539_198">
<rect width="64" height="64" fill="white"/>
</clipPath>
</defs>
</svg>
