<svg width="20" height="20" viewBox="0 0 20 20" fill="none" xmlns="http://www.w3.org/2000/svg">
<g clip-path="url(#clip0_252_178)">
<path d="M19.707 18.3183H19.3738V10.1366H19.707C19.8062 10.1366 19.8986 10.0865 19.9527 10.0033C20.0068 9.92014 20.015 9.81529 19.9748 9.72467L18.7223 6.9065C18.6752 6.80072 18.5703 6.73252 18.4545 6.73252H12.3133L10.293 4.71221V3.24775H12.1919C12.3537 3.24775 12.4849 3.11658 12.4849 2.95479V1.38916C12.4849 1.22736 12.3537 1.09619 12.1919 1.09619H10C9.83821 1.09619 9.70704 1.22736 9.70704 1.38916V4.71225L7.68673 6.73252H1.54548C1.4297 6.73252 1.32477 6.80072 1.27774 6.9065L0.0252429 9.72467C-0.0150305 9.81529 -0.00671023 9.92014 0.0473132 10.0033C0.101337 10.0865 0.193798 10.1366 0.292977 10.1366H0.626258V18.3183H0.292977C0.13118 18.3183 8.52455e-06 18.4495 8.52455e-06 18.6113C8.52455e-06 18.7731 0.13118 18.9043 0.292977 18.9043H19.707C19.8688 18.9043 20 18.7731 20 18.6113C20 18.4495 19.8688 18.3183 19.707 18.3183V18.3183ZM11.899 2.66182H10.293V1.68213H11.899V2.66182ZM1.73587 7.31846H7.10079L4.86856 9.55068H0.743798L1.73587 7.31846ZM1.2122 10.1366H4.98989C5.06759 10.1366 5.14212 10.1058 5.19704 10.0508L10 5.24787L14.8029 10.0508C14.8579 10.1058 14.9324 10.1366 15.0101 10.1366H17.202C17.3638 10.1366 17.495 10.0054 17.495 9.84365C17.495 9.68186 17.3638 9.55068 17.202 9.55068H15.1315L12.8992 7.31846H18.2641L19.2563 9.55068H18.4545C18.2927 9.55068 18.1616 9.68186 18.1616 9.84365C18.1616 10.0054 18.2927 10.1366 18.4545 10.1366H18.7878V18.3183H12.798V17.3588C12.798 17.197 12.6668 17.0658 12.505 17.0658H12.1718V14.5406C12.1718 14.3788 12.0406 14.2477 11.8788 14.2477H8.12126C7.95946 14.2477 7.82829 14.3788 7.82829 14.5406V17.0658H7.49501C7.33321 17.0658 7.20204 17.197 7.20204 17.3588V18.3183H1.2122V10.1366ZM11.5858 14.8336V17.0658H10.293V14.8336H11.5858ZM9.70704 17.0658H8.41419V14.8336H9.70704V17.0658ZM12.2121 17.6517V18.3183H7.78794V17.6517H12.2121Z" fill="#FF7D47"/>
<path d="M9.99988 12.6419C11.1974 12.6419 12.1716 11.6676 12.1716 10.4701C12.1716 9.27256 11.1974 8.29834 9.99988 8.29834C8.80234 8.29834 7.82812 9.2726 7.82812 10.4701C7.82812 11.6676 8.80238 12.6419 9.99988 12.6419V12.6419ZM9.99988 8.88428C10.8743 8.88428 11.5857 9.59568 11.5857 10.4701C11.5857 11.3445 10.8743 12.0559 9.99988 12.0559C9.12547 12.0559 8.41406 11.3445 8.41406 10.4701C8.41406 9.59564 9.12547 8.88428 9.99988 8.88428V8.88428Z" fill="#FF7D47"/>
<path d="M10 11.3892C10.1618 11.3892 10.293 11.258 10.293 11.0962V10.651L10.7573 10.4189C10.902 10.3465 10.9607 10.1705 10.8883 10.0258C10.8159 9.88108 10.64 9.82237 10.4952 9.89479L9.86898 10.2079C9.76973 10.2575 9.70703 10.359 9.70703 10.4699V11.0962C9.70703 11.258 9.8382 11.3892 10 11.3892Z" fill="#FF7D47"/>
<path d="M6.5557 14.2476H2.17188C2.01008 14.2476 1.87891 14.3787 1.87891 14.5405V16.4193C1.87891 16.5811 2.01008 16.7123 2.17188 16.7123H2.79824C2.96004 16.7123 3.09121 16.5811 3.09121 16.4193C3.09121 16.2575 2.96004 16.1263 2.79824 16.1263H2.46484V14.8335H4.07082V16.1263H4.0507C3.88891 16.1263 3.75773 16.2575 3.75773 16.4193C3.75773 16.5811 3.88891 16.7123 4.0507 16.7123H6.5557C6.7175 16.7123 6.84867 16.5811 6.84867 16.4193V14.5405C6.84867 14.3787 6.7175 14.2476 6.5557 14.2476ZM6.26273 16.1263H4.65676V14.8335H6.26273V16.1263Z" fill="#FF7D47"/>
<path d="M6.5557 11.1162H2.17188C2.01008 11.1162 1.87891 11.2474 1.87891 11.4092V13.288C1.87891 13.4498 2.01008 13.5809 2.17188 13.5809H6.5557C6.7175 13.5809 6.84867 13.4498 6.84867 13.288V11.4092C6.84867 11.2474 6.7175 11.1162 6.5557 11.1162ZM2.46484 11.7021H4.07082V12.995H2.46484V11.7021ZM6.26273 12.995H4.65676V11.7021H6.26273V12.995Z" fill="#FF7D47"/>
<path d="M13.4443 16.7123H17.8282C17.99 16.7123 18.1211 16.5811 18.1211 16.4193V14.5405C18.1211 14.3787 17.99 14.2476 17.8282 14.2476H13.4443C13.2825 14.2476 13.1514 14.3787 13.1514 14.5405V16.4193C13.1514 16.5811 13.2825 16.7123 13.4443 16.7123ZM17.5352 16.1263H15.9292V14.8335H17.5352V16.1263ZM13.7373 14.8335H15.3433V16.1263H13.7373V14.8335Z" fill="#FF7D47"/>
<path d="M13.4443 13.5809H17.8282C17.99 13.5809 18.1211 13.4498 18.1211 13.288V11.4092C18.1211 11.2474 17.99 11.1162 17.8282 11.1162H13.4443C13.2825 11.1162 13.1514 11.2474 13.1514 11.4092V13.288C13.1514 13.4498 13.2825 13.5809 13.4443 13.5809ZM17.5352 12.995H15.9292V11.7021H17.5352V12.995ZM13.7373 11.7022H15.3433V12.995H13.7373V11.7022Z" fill="#FF7D47"/>
</g>
<defs>
<clipPath id="clip0_252_178">
<rect width="20" height="20" fill="white"/>
</clipPath>
</defs>
</svg>
