<svg width="190" height="50" viewBox="0 0 190 50" fill="none" xmlns="http://www.w3.org/2000/svg">
<g clip-path="url(#clip0_220_6857)">
<circle cx="130.5" cy="12.5" r="10" stroke="#FF7D47" stroke-width="5"/>
<mask id="path-2-inside-1_220_6857" fill="white">
<path d="M155 50C155 55.8701 152.934 61.5531 149.165 66.0531C145.396 70.5532 140.163 73.5833 134.384 74.6126C128.605 75.642 122.648 74.6049 117.556 71.683C112.465 68.7611 108.564 64.1409 106.537 58.6317C104.511 53.1226 104.487 47.0759 106.471 41.5512C108.455 36.0264 112.319 31.3759 117.388 28.4145C122.456 25.4531 128.405 24.3697 134.192 25.354C139.979 26.3383 145.235 29.3276 149.039 33.7982L145.275 37.0019C142.223 33.4153 138.006 31.0171 133.363 30.2274C128.72 29.4377 123.948 30.307 119.882 32.6828C115.816 35.0586 112.715 38.7895 111.123 43.2218C109.532 47.6541 109.551 52.5051 111.177 56.9249C112.803 61.3447 115.932 65.0514 120.017 67.3955C124.101 69.7396 128.881 70.5716 133.517 69.7458C138.153 68.92 142.351 66.489 145.375 62.8788C148.399 59.2686 150.057 54.7094 150.057 50H155Z"/>
</mask>
<path d="M155 50C155 55.8701 152.934 61.5531 149.165 66.0531C145.396 70.5532 140.163 73.5833 134.384 74.6126C128.605 75.642 122.648 74.6049 117.556 71.683C112.465 68.7611 108.564 64.1409 106.537 58.6317C104.511 53.1226 104.487 47.0759 106.471 41.5512C108.455 36.0264 112.319 31.3759 117.388 28.4145C122.456 25.4531 128.405 24.3697 134.192 25.354C139.979 26.3383 145.235 29.3276 149.039 33.7982L145.275 37.0019C142.223 33.4153 138.006 31.0171 133.363 30.2274C128.72 29.4377 123.948 30.307 119.882 32.6828C115.816 35.0586 112.715 38.7895 111.123 43.2218C109.532 47.6541 109.551 52.5051 111.177 56.9249C112.803 61.3447 115.932 65.0514 120.017 67.3955C124.101 69.7396 128.881 70.5716 133.517 69.7458C138.153 68.92 142.351 66.489 145.375 62.8788C148.399 59.2686 150.057 54.7094 150.057 50H155Z" stroke="#FF7D47" stroke-width="10" mask="url(#path-2-inside-1_220_6857)"/>
</g>
<g clip-path="url(#clip1_220_6857)">
<circle cx="165.5" cy="12.5" r="10" stroke="#FF7D47" stroke-width="5"/>
<circle cx="165" cy="50" r="22.5" stroke="#FF7D47" stroke-width="5"/>
</g>
<g clip-path="url(#clip2_220_6857)">
<circle cx="95.5" cy="12.5" r="10" stroke="#FF7D47" stroke-width="5"/>
<mask id="path-6-inside-2_220_6857" fill="white">
<path d="M120 50C120 55.8701 117.934 61.5531 114.165 66.0531C110.396 70.5532 105.163 73.5833 99.3838 74.6126C93.6046 75.642 87.6475 74.6049 82.5562 71.683C77.4649 68.7611 73.5642 64.1409 71.5374 58.6317C69.5106 53.1226 69.4871 47.0759 71.4709 41.5512C73.4548 36.0264 77.3194 31.3759 82.3878 28.4145C87.4562 25.4531 93.405 24.3697 99.1921 25.354C104.979 26.3383 110.235 29.3276 114.039 33.7982L110.275 37.0019C107.223 33.4153 103.006 31.0171 98.3631 30.2274C93.7204 29.4377 88.9479 30.307 84.8817 32.6828C80.8155 35.0586 77.7151 38.7895 76.1235 43.2218C74.5319 47.6541 74.5508 52.5051 76.1768 56.9249C77.8028 61.3447 80.9323 65.0514 85.0168 67.3955C89.1014 69.7396 93.8805 70.5716 98.517 69.7458C103.153 68.92 107.351 66.489 110.375 62.8788C113.399 59.2686 115.057 54.7094 115.057 50H120Z"/>
</mask>
<path d="M120 50C120 55.8701 117.934 61.5531 114.165 66.0531C110.396 70.5532 105.163 73.5833 99.3838 74.6126C93.6046 75.642 87.6475 74.6049 82.5562 71.683C77.4649 68.7611 73.5642 64.1409 71.5374 58.6317C69.5106 53.1226 69.4871 47.0759 71.4709 41.5512C73.4548 36.0264 77.3194 31.3759 82.3878 28.4145C87.4562 25.4531 93.405 24.3697 99.1921 25.354C104.979 26.3383 110.235 29.3276 114.039 33.7982L110.275 37.0019C107.223 33.4153 103.006 31.0171 98.3631 30.2274C93.7204 29.4377 88.9479 30.307 84.8817 32.6828C80.8155 35.0586 77.7151 38.7895 76.1235 43.2218C74.5319 47.6541 74.5508 52.5051 76.1768 56.9249C77.8028 61.3447 80.9323 65.0514 85.0168 67.3955C89.1014 69.7396 93.8805 70.5716 98.517 69.7458C103.153 68.92 107.351 66.489 110.375 62.8788C113.399 59.2686 115.057 54.7094 115.057 50H120Z" stroke="#FF7D47" stroke-width="10" mask="url(#path-6-inside-2_220_6857)"/>
</g>
<g clip-path="url(#clip3_220_6857)">
<circle cx="60.5" cy="12.5" r="10" stroke="#FF7D47" stroke-width="5"/>
<mask id="path-8-inside-3_220_6857" fill="white">
<path d="M85 50C85 55.8701 82.9344 61.5531 79.165 66.0531C75.3956 70.5532 70.163 73.5833 64.3838 74.6126C58.6046 75.642 52.6475 74.6049 47.5562 71.683C42.4649 68.7611 38.5642 64.1409 36.5374 58.6317C34.5106 53.1226 34.4871 47.0759 36.4709 41.5512C38.4548 36.0264 42.3194 31.3759 47.3878 28.4145C52.4562 25.4531 58.405 24.3697 64.1921 25.354C69.9791 26.3383 75.2352 29.3276 79.0395 33.7982L75.2746 37.0019C72.2226 33.4153 68.0058 31.0171 63.3631 30.2274C58.7204 29.4377 53.9479 30.307 49.8817 32.6828C45.8155 35.0586 42.7151 38.7895 41.1235 43.2218C39.5319 47.6541 39.5508 52.5051 41.1768 56.9249C42.8028 61.3447 45.9323 65.0514 50.0168 67.3955C54.1014 69.7396 58.8805 70.5716 63.517 69.7458C68.1534 68.92 72.3514 66.489 75.3754 62.8788C78.3994 59.2686 80.0566 54.7094 80.0566 50H85Z"/>
</mask>
<path d="M85 50C85 55.8701 82.9344 61.5531 79.165 66.0531C75.3956 70.5532 70.163 73.5833 64.3838 74.6126C58.6046 75.642 52.6475 74.6049 47.5562 71.683C42.4649 68.7611 38.5642 64.1409 36.5374 58.6317C34.5106 53.1226 34.4871 47.0759 36.4709 41.5512C38.4548 36.0264 42.3194 31.3759 47.3878 28.4145C52.4562 25.4531 58.405 24.3697 64.1921 25.354C69.9791 26.3383 75.2352 29.3276 79.0395 33.7982L75.2746 37.0019C72.2226 33.4153 68.0058 31.0171 63.3631 30.2274C58.7204 29.4377 53.9479 30.307 49.8817 32.6828C45.8155 35.0586 42.7151 38.7895 41.1235 43.2218C39.5319 47.6541 39.5508 52.5051 41.1768 56.9249C42.8028 61.3447 45.9323 65.0514 50.0168 67.3955C54.1014 69.7396 58.8805 70.5716 63.517 69.7458C68.1534 68.92 72.3514 66.489 75.3754 62.8788C78.3994 59.2686 80.0566 54.7094 80.0566 50H85Z" stroke="#FF7D47" stroke-width="10" mask="url(#path-8-inside-3_220_6857)"/>
</g>
<g clip-path="url(#clip4_220_6857)">
<circle cx="25.5" cy="12.5" r="10" stroke="#FF7D47" stroke-width="5"/>
<mask id="path-10-inside-4_220_6857" fill="white">
<path d="M50 50C50 55.8701 47.9344 61.5531 44.165 66.0531C40.3956 70.5532 35.163 73.5833 29.3838 74.6126C23.6046 75.642 17.6475 74.6049 12.5562 71.683C7.46494 68.7611 3.56419 64.1409 1.53741 58.6317C-0.489368 53.1226 -0.512905 47.0759 1.47092 41.5512C3.45475 36.0264 7.31942 31.3759 12.3878 28.4145C17.4562 25.4531 23.405 24.3697 29.1921 25.354C34.9791 26.3383 40.2352 29.3276 44.0395 33.7982L40.2746 37.0019C37.2226 33.4153 33.0058 31.0171 28.3631 30.2274C23.7204 29.4377 18.9479 30.307 14.8817 32.6828C10.8155 35.0586 7.71505 38.7895 6.1235 43.2218C4.53195 47.6541 4.55083 52.5051 6.17684 56.9249C7.80285 61.3447 10.9323 65.0514 15.0168 67.3955C19.1014 69.7396 23.8805 70.5716 28.517 69.7458C33.1534 68.92 37.3514 66.489 40.3754 62.8788C43.3994 59.2686 45.0566 54.7094 45.0566 50H50Z"/>
</mask>
<path d="M50 50C50 55.8701 47.9344 61.5531 44.165 66.0531C40.3956 70.5532 35.163 73.5833 29.3838 74.6126C23.6046 75.642 17.6475 74.6049 12.5562 71.683C7.46494 68.7611 3.56419 64.1409 1.53741 58.6317C-0.489368 53.1226 -0.512905 47.0759 1.47092 41.5512C3.45475 36.0264 7.31942 31.3759 12.3878 28.4145C17.4562 25.4531 23.405 24.3697 29.1921 25.354C34.9791 26.3383 40.2352 29.3276 44.0395 33.7982L40.2746 37.0019C37.2226 33.4153 33.0058 31.0171 28.3631 30.2274C23.7204 29.4377 18.9479 30.307 14.8817 32.6828C10.8155 35.0586 7.71505 38.7895 6.1235 43.2218C4.53195 47.6541 4.55083 52.5051 6.17684 56.9249C7.80285 61.3447 10.9323 65.0514 15.0168 67.3955C19.1014 69.7396 23.8805 70.5716 28.517 69.7458C33.1534 68.92 37.3514 66.489 40.3754 62.8788C43.3994 59.2686 45.0566 54.7094 45.0566 50H50Z" stroke="#FF7D47" stroke-width="10" mask="url(#path-10-inside-4_220_6857)"/>
</g>
<defs>
<clipPath id="clip0_220_6857">
<rect width="47" height="50" fill="white" transform="translate(105)"/>
</clipPath>
<clipPath id="clip1_220_6857">
<rect width="50" height="50" fill="white" transform="translate(140)"/>
</clipPath>
<clipPath id="clip2_220_6857">
<rect width="47" height="50" fill="white" transform="translate(70)"/>
</clipPath>
<clipPath id="clip3_220_6857">
<rect width="47" height="50" fill="white" transform="translate(35)"/>
</clipPath>
<clipPath id="clip4_220_6857">
<rect width="47" height="50" fill="white"/>
</clipPath>
</defs>
</svg>
