<svg width="18" height="16" viewBox="0 0 18 16" fill="none" xmlns="http://www.w3.org/2000/svg">
<rect x="0.5" y="2" width="17" height="13.4" rx="1.5" stroke="#FF7D47"/>
<path d="M6.5 0.5H11.5C12.0523 0.5 12.5 0.947715 12.5 1.5V2.5C12.5 3.05228 12.0523 3.5 11.5 3.5H6.5C5.94772 3.5 5.5 3.05228 5.5 2.5V1.5C5.5 0.947715 5.94772 0.5 6.5 0.5Z" fill="white" stroke="#FF7D47"/>
<g clip-path="url(#clip0_1509_236)">
<path d="M7.65 12.8115C7.65 14.2751 6.46355 15.4615 5 15.4615C3.53645 15.4615 2.35 14.2751 2.35 12.8115C2.35 11.348 3.53645 10.1615 5 10.1615C6.46355 10.1615 7.65 11.348 7.65 12.8115Z" stroke="#FF7D47" stroke-width="0.7"/>
</g>
<path d="M6.65781 7.5C6.65781 8.41127 5.91908 9.15 5.00781 9.15C4.09654 9.15 3.35781 8.41127 3.35781 7.5C3.35781 6.58873 4.09654 5.85 5.00781 5.85C5.91908 5.85 6.65781 6.58873 6.65781 7.5Z" stroke="#FF7D47" stroke-width="0.7"/>
<path d="M9.5 7.5L15.5 7.5" stroke="#FF7D47" stroke-width="0.7" stroke-linecap="round"/>
<path d="M9.5 7.5L15.5 7.5" stroke="#FF7D47" stroke-width="0.7" stroke-linecap="round"/>
<path d="M9.5 9.5H15.5" stroke="#FF7D47" stroke-width="0.7" stroke-linecap="round"/>
<path d="M9.5 9.5H15.5" stroke="#FF7D47" stroke-width="0.7" stroke-linecap="round"/>
<path d="M9.5 11.5H15.5" stroke="#FF7D47" stroke-width="0.7" stroke-linecap="round"/>
<path d="M9.5 11.5H15.5" stroke="#FF7D47" stroke-width="0.7" stroke-linecap="round"/>
<defs>
<clipPath id="clip0_1509_236">
<rect width="6" height="3" fill="white" transform="translate(2 9.81152)"/>
</clipPath>
</defs>
</svg>
