<svg width="18" height="17" viewBox="0 0 18 17" fill="none" xmlns="http://www.w3.org/2000/svg">
<rect x="0.5" y="2.5" width="17" height="13.4" rx="1.5" stroke="#C4CAD4"/>
<path d="M6.5 1H11.5C12.0523 1 12.5 1.44772 12.5 2V3C12.5 3.55228 12.0523 4 11.5 4H6.5C5.94772 4 5.5 3.55228 5.5 3V2C5.5 1.44772 5.94772 1 6.5 1Z" fill="white" stroke="#C4CAD4"/>
<g clip-path="url(#clip0_1509_235)">
<path d="M7.65 13.3115C7.65 14.7751 6.46355 15.9615 5 15.9615C3.53645 15.9615 2.35 14.7751 2.35 13.3115C2.35 11.848 3.53645 10.6615 5 10.6615C6.46355 10.6615 7.65 11.848 7.65 13.3115Z" stroke="#C4CAD4" stroke-width="0.7"/>
</g>
<path d="M6.65781 8C6.65781 8.91127 5.91908 9.65 5.00781 9.65C4.09654 9.65 3.35781 8.91127 3.35781 8C3.35781 7.08873 4.09654 6.35 5.00781 6.35C5.91908 6.35 6.65781 7.08873 6.65781 8Z" stroke="#C4CAD4" stroke-width="0.7"/>
<path d="M9.5 8L15.5 8" stroke="#C4CAD4" stroke-width="0.7" stroke-linecap="round"/>
<path d="M9.5 8L15.5 8" stroke="#C4CAD4" stroke-width="0.7" stroke-linecap="round"/>
<path d="M9.5 10H15.5" stroke="#C4CAD4" stroke-width="0.7" stroke-linecap="round"/>
<path d="M9.5 10H15.5" stroke="#C4CAD4" stroke-width="0.7" stroke-linecap="round"/>
<path d="M9.5 12H15.5" stroke="#C4CAD4" stroke-width="0.7" stroke-linecap="round"/>
<path d="M9.5 12H15.5" stroke="#C4CAD4" stroke-width="0.7" stroke-linecap="round"/>
<defs>
<clipPath id="clip0_1509_235">
<rect width="6" height="3" fill="white" transform="translate(2 10.3115)"/>
</clipPath>
</defs>
</svg>
