<svg width="20" height="20" viewBox="0 0 20 20" fill="none" xmlns="http://www.w3.org/2000/svg">
<g clip-path="url(#clip0_252_415)">
<path d="M20 10.0391C20 12.0129 19.4141 13.9325 18.3057 15.5904C18.1551 15.8157 17.9076 15.9375 17.6555 15.9375C17.5063 15.9375 17.3553 15.8949 17.222 15.8057C16.8633 15.5659 16.767 15.0807 17.0067 14.722C17.9428 13.322 18.4375 11.7027 18.4375 10.0391C18.4375 9.32419 18.3481 8.6142 18.1717 7.92908C18.0641 7.51129 18.3157 7.08527 18.7335 6.97769C19.1516 6.87027 19.5773 7.12173 19.6849 7.53952C19.894 8.3519 20 9.19281 20 10.0391ZM14.3646 17.2615C13.0524 18.0563 11.5431 18.4766 10 18.4766C5.3476 18.4766 1.5625 14.6915 1.5625 10.0391C1.5625 5.38666 5.3476 1.60156 10 1.60156C11.7226 1.60156 13.3789 2.117 14.7902 3.09219C15.1451 3.3374 15.6317 3.24844 15.8771 2.89352C16.1223 2.5386 16.0335 2.052 15.6784 1.80664C14.0048 0.65033 12.0413 0.0390625 10 0.0390625C7.32895 0.0390625 4.81766 1.07925 2.92892 2.96799C1.04019 4.85672 0 7.36801 0 10.0391C0 12.7101 1.04019 15.2214 2.92892 17.1101C4.81766 18.9989 7.32895 20.0391 10 20.0391C11.8286 20.0391 13.6179 19.5407 15.1743 18.5979C15.5434 18.3743 15.6613 17.894 15.4378 17.5249C15.2141 17.1558 14.7337 17.038 14.3646 17.2615ZM10.0754 12.3044C9.95163 12.3093 9.83612 12.2653 9.7464 12.1799L5.65475 8.30032C5.34164 8.00339 4.84711 8.01651 4.55032 8.32962C4.25339 8.64273 4.26651 9.13727 4.57962 9.43405L8.6705 13.313C9.04831 13.6722 9.53705 13.8672 10.0549 13.8672C10.0827 13.8672 10.1105 13.8666 10.1382 13.8655C10.6868 13.8434 11.1906 13.606 11.5569 13.1969C11.5662 13.1866 11.575 13.1761 11.5837 13.1653L19.8276 2.91138C20.098 2.57507 20.0446 2.08328 19.7083 1.81305C19.3721 1.54266 18.8802 1.59607 18.6098 1.93237L10.3821 12.1663C10.3012 12.2507 10.1929 12.2997 10.0754 12.3044Z" fill="white"/>
</g>
<defs>
<clipPath id="clip0_252_415">
<rect width="20" height="20" fill="white"/>
</clipPath>
</defs>
</svg>
