<svg width="20" height="20" viewBox="0 0 20 20" fill="none" xmlns="http://www.w3.org/2000/svg">
<path fill-rule="evenodd" clip-rule="evenodd" d="M8.09961 9.95018C8.09961 11.0547 7.20418 11.9502 6.09961 11.9502C4.99504 11.9502 4.09961 11.0547 4.09961 9.95018C4.09961 8.84561 4.99504 7.9502 6.09961 7.9502C7.20418 7.9502 8.09961 8.84561 8.09961 9.95018ZM7.19961 9.95018C7.19961 10.5577 6.70713 11.0502 6.09961 11.0502C5.4921 11.0502 4.99961 10.5577 4.99961 9.95018C4.99961 9.34268 5.4921 8.8502 6.09961 8.8502C6.70713 8.8502 7.19961 9.34268 7.19961 9.95018Z" fill="#FF7D47"/>
<path d="M4.15 15.1498C4.15 14.0729 5.02304 13.1998 6.1 13.1998C7.17695 13.1998 8.05 14.0729 8.05 15.1498H8.94997C8.94997 13.5758 7.67401 12.2998 6.1 12.2998C4.52598 12.2998 3.25 13.5758 3.25 15.1498H4.15Z" fill="#FF7D47"/>
<path fill-rule="evenodd" clip-rule="evenodd" d="M16.2992 8.8499C16.2992 9.09839 16.0977 9.2999 15.8492 9.2999H10.8992C10.6507 9.2999 10.4492 9.09839 10.4492 8.8499C10.4492 8.60141 10.6507 8.3999 10.8992 8.3999H15.8492C16.0977 8.3999 16.2992 8.60141 16.2992 8.8499Z" fill="#FF7D47"/>
<path fill-rule="evenodd" clip-rule="evenodd" d="M16.2992 11.5501C16.2992 11.7986 16.0977 12.0001 15.8492 12.0001H10.8992C10.6507 12.0001 10.4492 11.7986 10.4492 11.5501C10.4492 11.3016 10.6507 11.1001 10.8992 11.1001H15.8492C16.0977 11.1001 16.2992 11.3016 16.2992 11.5501Z" fill="#FF7D47"/>
<path fill-rule="evenodd" clip-rule="evenodd" d="M16.2992 14.2498C16.2992 14.4983 16.0977 14.6998 15.8492 14.6998H10.8992C10.6507 14.6998 10.4492 14.4983 10.4492 14.2498C10.4492 14.0013 10.6507 13.7998 10.8992 13.7998H15.8492C16.0977 13.7998 16.2992 14.0013 16.2992 14.2498Z" fill="#FF7D47"/>
<path fill-rule="evenodd" clip-rule="evenodd" d="M7.3 3C6.55441 3 5.95 3.60441 5.95 4.35H3.25C2.00736 4.35 1 5.35736 1 6.6V15.15C1 16.3926 2.00736 17.4 3.25 17.4H16.75C17.9926 17.4 19 16.3926 19 15.15V6.6C19 5.35736 17.9926 4.35 16.75 4.35H14.05C14.05 3.60441 13.4456 3 12.7 3H7.3ZM14.05 5.25C14.05 5.99559 13.4456 6.6 12.7 6.6H7.3C6.55441 6.6 5.95 5.99559 5.95 5.25H3.25C2.50441 5.25 1.9 5.85441 1.9 6.6V15.15C1.9 15.8956 2.50441 16.5 3.25 16.5H16.75C17.4956 16.5 18.1 15.8956 18.1 15.15V6.6C18.1 5.85441 17.4956 5.25 16.75 5.25H14.05ZM6.85 4.35C6.85 4.10147 7.05147 3.9 7.3 3.9H12.7C12.9485 3.9 13.15 4.10147 13.15 4.35V5.25C13.15 5.49853 12.9485 5.7 12.7 5.7H7.3C7.05147 5.7 6.85 5.49853 6.85 5.25V4.35Z" fill="#FF7D47"/>
</svg>
