<svg width="86" height="50" viewBox="0 0 86 50" fill="none" xmlns="http://www.w3.org/2000/svg">
<g clip-path="url(#clip0_220_6771)">
<circle cx="25.5" cy="12.5" r="10" stroke="#FF7D47" stroke-width="5"/>
<mask id="path-2-inside-1_220_6771" fill="white">
<path d="M50 50C50 55.8701 47.9344 61.5531 44.165 66.0531C40.3956 70.5532 35.163 73.5833 29.3838 74.6126C23.6046 75.642 17.6475 74.6049 12.5562 71.683C7.46494 68.7611 3.56419 64.1409 1.53741 58.6317C-0.489368 53.1226 -0.512905 47.0759 1.47092 41.5512C3.45475 36.0264 7.31942 31.3759 12.3878 28.4145C17.4562 25.4531 23.405 24.3697 29.1921 25.354C34.9791 26.3383 40.2352 29.3276 44.0395 33.7982L40.2746 37.0019C37.2226 33.4153 33.0058 31.0171 28.3631 30.2274C23.7204 29.4377 18.9479 30.307 14.8817 32.6828C10.8155 35.0586 7.71505 38.7895 6.1235 43.2218C4.53195 47.6541 4.55083 52.5051 6.17684 56.9249C7.80285 61.3447 10.9323 65.0514 15.0168 67.3955C19.1014 69.7396 23.8805 70.5716 28.517 69.7458C33.1534 68.92 37.3514 66.489 40.3754 62.8788C43.3994 59.2686 45.0566 54.7094 45.0566 50H50Z"/>
</mask>
<path d="M50 50C50 55.8701 47.9344 61.5531 44.165 66.0531C40.3956 70.5532 35.163 73.5833 29.3838 74.6126C23.6046 75.642 17.6475 74.6049 12.5562 71.683C7.46494 68.7611 3.56419 64.1409 1.53741 58.6317C-0.489368 53.1226 -0.512905 47.0759 1.47092 41.5512C3.45475 36.0264 7.31942 31.3759 12.3878 28.4145C17.4562 25.4531 23.405 24.3697 29.1921 25.354C34.9791 26.3383 40.2352 29.3276 44.0395 33.7982L40.2746 37.0019C37.2226 33.4153 33.0058 31.0171 28.3631 30.2274C23.7204 29.4377 18.9479 30.307 14.8817 32.6828C10.8155 35.0586 7.71505 38.7895 6.1235 43.2218C4.53195 47.6541 4.55083 52.5051 6.17684 56.9249C7.80285 61.3447 10.9323 65.0514 15.0168 67.3955C19.1014 69.7396 23.8805 70.5716 28.517 69.7458C33.1534 68.92 37.3514 66.489 40.3754 62.8788C43.3994 59.2686 45.0566 54.7094 45.0566 50H50Z" stroke="#FF7D47" stroke-width="10" mask="url(#path-2-inside-1_220_6771)"/>
</g>
<g clip-path="url(#clip1_220_6771)">
<circle cx="61.5" cy="12.5" r="10" stroke="#FF7D47" stroke-width="5"/>
<circle cx="61" cy="50" r="22.5" stroke="#FF7D47" stroke-width="5"/>
</g>
<defs>
<clipPath id="clip0_220_6771">
<rect width="47" height="50" fill="white"/>
</clipPath>
<clipPath id="clip1_220_6771">
<rect width="50" height="50" fill="white" transform="translate(36)"/>
</clipPath>
</defs>
</svg>
