<svg width="20" height="20" viewBox="0 0 20 20" fill="none" xmlns="http://www.w3.org/2000/svg">
<g clip-path="url(#clip0_230_236)">
<path d="M19.6875 5.9375V0.3125H14.0625V3.125H12.8125V0.3125H7.1875V3.125H5.9375V0.3125H0.3125V5.9375H5.9375V3.75H7.1875V5.56156C6.08625 6.03406 5.3125 7.12875 5.3125 8.40125C5.3125 8.805 5.39812 9.20813 5.55281 9.58219C5.40312 9.78781 5.3125 10.0391 5.3125 10.3125C5.3125 11.0019 5.87313 11.5625 6.5625 11.5625H6.67188C6.85156 12.0684 7.24125 12.475 7.73719 12.6756L7.58062 13.1453C5.06531 13.4309 3.125 15.5841 3.125 18.1362V19.6875H13.125V15.6156C15.1862 15.4891 16.9453 14.1159 17.5597 12.1191L17.7853 11.3853L18.2238 10.7278C18.3638 10.5178 18.4375 10.2741 18.4375 10.0219C18.4375 9.55781 18.185 9.155 17.8125 8.93281V7.5C17.8125 6.98313 17.3919 6.5625 16.875 6.5625C16.3581 6.5625 15.9375 6.98313 15.9375 7.5V8.45594C15.4069 8.54344 15 9.00187 15 9.55656C15 9.67688 15.0194 9.79594 15.0578 9.91063L15.2937 10.6187C14.7491 12.1213 13.3278 13.125 11.7228 13.125H10.5378L10.3878 12.6756C10.8837 12.475 11.2734 12.0688 11.4531 11.5625H11.5625C12.2519 11.5625 12.8125 11.0019 12.8125 10.3125C12.8125 10.0391 12.7219 9.78781 12.5722 9.58187C12.7269 9.20844 12.8125 8.80562 12.8125 8.40125C12.8125 7.39469 12.3263 6.50187 11.5791 5.9375H12.8125V3.75H14.0625V5.9375H19.6875ZM5.3125 5.3125H0.9375V0.9375H5.3125V5.3125ZM5.9375 10.3125C5.9375 9.96781 6.21781 9.6875 6.5625 9.6875V10.9375C6.21781 10.9375 5.9375 10.6572 5.9375 10.3125ZM10.4422 13.75H10.4784L10.1844 15.0737L9.70969 14.8841L9.70719 14.8903L9.50437 14.6875L10.4422 13.75ZM9.45469 15.5216L9.16344 16.25H8.96156L8.67031 15.5216L9.0625 15.1294L9.45469 15.5216ZM9.00062 16.875H9.12406L9.61031 19.0625H8.51469L9.00062 16.875ZM8.41781 14.8903L8.41531 14.8841L7.94063 15.0737L7.65094 13.7712C7.66687 13.7694 7.6825 13.7672 7.69844 13.7656L8.62063 14.6875L8.41781 14.8903ZM3.75 18.1362C3.75 16.115 5.14062 14.3812 7.03562 13.8828L7.63094 16.5609L8.18937 16.0025L8.42375 16.5887L7.87437 19.0625H5.625V15.9375H5V19.0625H3.75V18.1362ZM16.875 7.1875C17.0475 7.1875 17.1875 7.3275 17.1875 7.5V8.63844C17.0391 8.51469 16.8506 8.4375 16.6428 8.4375H16.5625V7.5C16.5625 7.3275 16.7025 7.1875 16.875 7.1875ZM16.1191 9.0625H16.6428C16.7709 9.0625 16.875 9.16656 16.875 9.29469C16.875 9.39469 16.8113 9.48344 16.7159 9.51531L16.1509 9.70375L16.3488 10.2963L16.9137 10.1078C17.2103 10.0091 17.4228 9.75906 17.4819 9.46094C17.6781 9.5725 17.8125 9.78063 17.8125 10.0219C17.8125 10.15 17.775 10.2744 17.7038 10.3806L17.3722 10.8778L15.8719 10.3778L15.6503 9.7125C15.6334 9.66187 15.625 9.60938 15.625 9.55625C15.625 9.28406 15.8466 9.0625 16.1191 9.0625ZM15.8125 11.0169L17.1116 11.45L16.9622 11.9353C16.3984 13.7684 14.7306 15 12.8125 15H12.5V19.0625H10.2506L9.70094 16.5887L9.93531 16.0025L10.4938 16.5609L11.1188 13.75H11.7228C13.5256 13.75 15.1319 12.6638 15.8125 11.0169ZM9.955 13.3531L9.0625 14.2456L8.17 13.3531L8.35156 12.8081C8.38031 12.8094 8.40844 12.8125 8.4375 12.8125H9.6875C9.71656 12.8125 9.74469 12.8094 9.77344 12.8081L9.955 13.3531ZM10.9375 10.9375C10.9375 11.6269 10.3769 12.1875 9.6875 12.1875H8.4375C7.74813 12.1875 7.1875 11.6269 7.1875 10.9375V9.25156C7.1875 8.70906 7.43094 8.20156 7.84625 7.86281C8.66219 8.23937 9.56188 8.4375 10.46 8.4375C10.7231 8.4375 10.9375 8.65187 10.9375 8.915V10.9375ZM11.5625 10.9375V9.6875C11.9072 9.6875 12.1875 9.96781 12.1875 10.3125C12.1875 10.6572 11.9072 10.9375 11.5625 10.9375ZM12.1875 8.40125C12.1875 8.66156 12.1425 8.92094 12.0616 9.16813C11.9084 9.10094 11.74 9.0625 11.5625 9.0625V8.915C11.5625 8.30719 11.0678 7.8125 10.46 7.8125C9.59406 7.8125 8.72688 7.60781 7.9525 7.22031L7.79031 7.13906L7.63937 7.23969C7.01844 7.65344 6.63188 8.32563 6.57438 9.06219H6.5625C6.385 9.06219 6.21656 9.10063 6.06344 9.1675C5.9825 8.92031 5.9375 8.66094 5.9375 8.40125C5.9375 7.04281 7.04281 5.9375 8.40125 5.9375H9.72375C11.0822 5.9375 12.1875 7.04281 12.1875 8.40125ZM12.1875 5.3125H9.72375H8.40125H7.8125V0.9375H12.1875V5.3125ZM14.6875 0.9375H19.0625V5.3125H14.6875V0.9375Z" fill="#C4CAD4"/>
<path d="M15.3125 1.5625H18.4375V2.1875H15.3125V1.5625Z" fill="#C4CAD4"/>
<path d="M15.3125 2.8125H18.4375V3.4375H15.3125V2.8125Z" fill="#C4CAD4"/>
<path d="M15.3125 4.0625H18.4375V4.6875H15.3125V4.0625Z" fill="#C4CAD4"/>
<path d="M1.5625 1.5625H4.6875V2.1875H1.5625V1.5625Z" fill="#C4CAD4"/>
<path d="M1.5625 2.8125H4.6875V3.4375H1.5625V2.8125Z" fill="#C4CAD4"/>
<path d="M1.5625 4.0625H4.6875V4.6875H1.5625V4.0625Z" fill="#C4CAD4"/>
<path d="M8.4375 1.5625H11.5625V2.1875H8.4375V1.5625Z" fill="#C4CAD4"/>
<path d="M8.4375 2.8125H11.5625V3.4375H8.4375V2.8125Z" fill="#C4CAD4"/>
<path d="M8.4375 4.0625H11.5625V4.6875H8.4375V4.0625Z" fill="#C4CAD4"/>
</g>
<defs>
<clipPath id="clip0_230_236">
<rect width="20" height="20" fill="white"/>
</clipPath>
</defs>
</svg>
