<svg width="20" height="20" viewBox="0 0 20 20" fill="none" xmlns="http://www.w3.org/2000/svg">
<path d="M15.2335 12.1504C14.8644 11.7667 14.4193 11.5615 13.9475 11.5615C13.4795 11.5615 13.0306 11.7629 12.6463 12.1466L11.4441 13.3433C11.3452 13.2901 11.2462 13.2407 11.1511 13.1913C11.0142 13.1229 10.8848 13.0583 10.7745 12.99C9.64831 12.2757 8.62487 11.345 7.64328 10.1406C7.1677 9.54039 6.84812 9.03512 6.61604 8.52224C6.92801 8.23731 7.21716 7.94098 7.4987 7.65605C7.60523 7.54968 7.71176 7.4395 7.81829 7.33313C8.61726 6.53532 8.61726 5.50197 7.81829 4.70417L6.77963 3.66702C6.66169 3.54925 6.53994 3.42768 6.42581 3.30611C6.19753 3.07057 5.95784 2.82742 5.71054 2.59948C5.34149 2.23477 4.90016 2.04102 4.436 2.04102C3.97183 2.04102 3.52289 2.23477 3.14243 2.59948C3.13863 2.60328 3.13863 2.60328 3.13482 2.60708L1.84125 3.91016C1.35427 4.39644 1.07653 4.9891 1.01566 5.67673C0.924345 6.78606 1.25154 7.81941 1.50264 8.49565C2.11899 10.1558 3.03971 11.6945 4.41317 13.3433C6.07959 15.3302 8.08461 16.8992 10.375 18.0047C11.25 18.4188 12.4181 18.9089 13.723 18.9925C13.8029 18.9963 13.8866 19.0001 13.9627 19.0001C14.8416 19.0001 15.5797 18.6848 16.158 18.0579C16.1618 18.0503 16.1694 18.0465 16.1732 18.0389C16.371 17.7996 16.5993 17.583 16.839 17.3513C17.0026 17.1955 17.17 17.0322 17.3336 16.8612C17.7103 16.4699 17.9081 16.014 17.9081 15.5467C17.9081 15.0756 17.7065 14.6236 17.3222 14.2436L15.2335 12.1504ZM16.5955 16.1508C16.5917 16.1508 16.5917 16.1546 16.5955 16.1508C16.4471 16.3103 16.295 16.4547 16.1314 16.6143C15.8841 16.8498 15.633 17.0968 15.3971 17.3741C15.0128 17.7844 14.5601 17.9781 13.9665 17.9781C13.9095 17.9781 13.8486 17.9781 13.7915 17.9743C12.6616 17.9022 11.6115 17.4615 10.8239 17.0854C8.67052 16.0444 6.77963 14.5666 5.20833 12.6936C3.91096 11.1322 3.04351 9.68856 2.46902 8.13853C2.11519 7.19256 1.98583 6.45554 2.0429 5.76031C2.08095 5.31582 2.25215 4.94731 2.56793 4.63199L3.86531 3.3365C4.05173 3.16174 4.24957 3.06677 4.44361 3.06677C4.6833 3.06677 4.87733 3.21113 4.99908 3.3327C5.00288 3.3365 5.00669 3.3403 5.01049 3.3441C5.24257 3.56065 5.46324 3.78479 5.69532 4.02413C5.81326 4.1457 5.93501 4.26727 6.05676 4.39264L7.09542 5.42979C7.4987 5.83249 7.4987 6.2048 7.09542 6.60751C6.98508 6.71768 6.87855 6.82785 6.76822 6.93423C6.44863 7.26095 6.14426 7.56487 5.81326 7.8612C5.80565 7.8688 5.79805 7.8726 5.79424 7.8802C5.46704 8.20692 5.52792 8.52604 5.5964 8.74259C5.60021 8.75398 5.60401 8.76538 5.60782 8.77678C5.87794 9.43022 6.2584 10.0457 6.8367 10.7789L6.84051 10.7827C7.89058 12.0744 8.99772 13.0811 10.219 13.8523C10.375 13.9511 10.5348 14.0309 10.687 14.1069C10.8239 14.1753 10.9533 14.2399 11.0636 14.3082C11.0788 14.3158 11.0941 14.3272 11.1093 14.3348C11.2386 14.3994 11.3604 14.4298 11.4859 14.4298C11.8017 14.4298 11.9996 14.2323 12.0642 14.1677L13.3654 12.8684C13.4948 12.7392 13.7002 12.5835 13.9399 12.5835C14.1758 12.5835 14.3698 12.7316 14.4878 12.8608C14.4916 12.8646 14.4916 12.8646 14.4954 12.8684L16.5917 14.9617C16.9836 15.3492 16.9836 15.7481 16.5955 16.1508Z" fill="#FF7D47"/>
<path d="M10.7284 5.28158C11.7252 5.44874 12.6307 5.91983 13.3536 6.64165C14.0765 7.36347 14.5445 8.26766 14.7157 9.26301C14.7575 9.51375 14.9744 9.68851 15.2217 9.68851C15.2521 9.68851 15.2787 9.68471 15.3092 9.68091C15.5907 9.63532 15.7772 9.36939 15.7315 9.08826C15.526 7.88395 14.9554 6.78602 14.0841 5.91603C13.2128 5.04604 12.1133 4.47618 10.9073 4.27103C10.6257 4.22544 10.3632 4.41159 10.3137 4.68892C10.2643 4.96626 10.4469 5.23599 10.7284 5.28158Z" fill="#FF7D47"/>
<path d="M18.9918 8.94029C18.6532 6.95717 17.7172 5.15261 16.2791 3.71656C14.841 2.28051 13.0338 1.34594 11.0478 1.00782C10.77 0.958431 10.5075 1.14838 10.458 1.42572C10.4124 1.70685 10.5988 1.96899 10.8804 2.01837C12.6533 2.3185 14.2703 3.1581 15.5562 4.43838C16.8422 5.72247 17.6792 7.33708 17.9798 9.10745C18.0216 9.35819 18.2385 9.53295 18.4858 9.53295C18.5162 9.53295 18.5428 9.52915 18.5733 9.52535C18.851 9.48356 19.0412 9.21762 18.9918 8.94029Z" fill="#FF7D47"/>
</svg>
