<svg width="104" height="104" viewBox="0 0 104 104" fill="none" xmlns="http://www.w3.org/2000/svg">
<path d="M102.107 52C102.115 58.6629 100.789 65.26 98.2073 71.4025C96.7357 74.9111 94.8626 78.2374 92.6255 81.315C91.1751 83.3452 89.5667 85.2578 87.8154 87.035C80.7578 94.2484 71.6873 99.1639 61.7905 101.138C51.8937 103.113 41.6315 102.054 32.3461 98.1012L32.3298 98.0931C23.2936 94.2441 15.5896 87.8215 10.1775 79.6253C4.76542 71.4292 1.88448 61.8218 1.89358 52C1.89342 49.1686 2.12987 46.342 2.60045 43.55C3.93706 35.8738 7.0347 28.6118 11.6502 22.3343C16.2657 16.0567 22.2734 10.9344 29.2017 7.36936C36.2587 3.7598 44.0739 1.88261 52.0004 1.89311C57.2014 1.88854 62.3714 2.69446 67.3242 4.28186C71.056 5.47755 74.6319 7.11411 77.9761 9.15686C82.9523 12.1799 87.3672 16.0422 91.0248 20.5725C95.4903 26.0976 98.7232 32.5135 100.507 39.39V39.4062C101.453 43.0284 101.985 46.7464 102.091 50.4887C102.107 50.9925 102.107 51.4962 102.107 52Z" fill="#FF6F64"/>
<path d="M67.3243 4.28182C65.8293 6.5487 61.393 6.72745 58.4599 8.67745C49.7499 14.4868 38.3018 9.72557 36.6768 4.28182C46.6443 1.09681 57.3567 1.09681 67.3243 4.28182Z" fill="#FFD0A1"/>
<path d="M50.8225 30.9725C49.6931 32.5325 39.0412 33.5888 33.3862 37.505C27.2112 41.7788 27.9181 47.58 23.4656 49.4C21.0362 50.3994 14.5931 50.2044 14.3331 46.1988C14.0731 42.1931 12.4156 40.9419 10.2381 40.5925C8.06059 40.2431 4.67246 41.5269 2.60871 43.5663L2.60059 43.55C3.75129 36.8406 6.25677 30.436 9.96418 24.7268C13.6716 19.0176 18.5032 14.1236 24.1643 10.3431C20.8656 20.1419 30.4287 24.8869 35.4743 22.5388C40.52 20.1906 41.5112 24.2369 43.6887 24.8463C45.8662 25.4556 49.1325 23.4813 50.8225 23.9444C52.5287 24.4156 51.96 29.4044 50.8225 30.9725Z" fill="#F74B4B"/>
<path d="M96.826 29.5831C89.676 34.385 84.9553 35.0269 77.4478 38.7075C75.4653 39.6825 63.4647 42.5263 59.5972 40.9744C58.1185 40.3813 55.1285 39.0244 56.4691 35.425C57.3466 33.0444 62.6116 32.5081 65.0166 31.5169C67.9741 30.2981 68.9328 22.4169 78.2278 24.6025C83.956 25.9431 88.6928 22.2544 91.0247 20.5725C93.2767 23.3588 95.2217 26.3798 96.826 29.5831Z" fill="#F74B4B"/>
<path d="M102.107 52C102.115 58.6629 100.789 65.26 98.2073 71.4025C97.3773 71.3772 96.5631 71.1689 95.8229 70.7925C95.0827 70.4161 94.4348 69.8808 93.9254 69.225C91.951 66.6656 92.6254 61.3925 94.0148 58.2643C95.4042 55.1362 89.8385 46.1743 89.6842 43.1925C89.4242 38.1387 93.6654 38.1712 100.507 39.39V39.4062C101.453 43.0283 101.985 46.7464 102.091 50.4887C102.107 50.9925 102.107 51.4962 102.107 52Z" fill="#F74B4B"/>
<path d="M92.6255 81.315C91.1752 83.3452 89.5668 85.2578 87.8156 87.035C85.4024 86.97 81.608 87.7012 77.903 85.9868C74.198 84.2725 66.4631 84.3131 63.6762 87.1C60.8893 89.8868 59.2237 93.2343 54.3487 92.7956C49.4737 92.3568 46.6949 90.7968 42.2587 94.8837C37.8224 98.9706 37.278 99.905 32.3462 98.1012L32.3299 98.0931C25.5772 95.205 19.5404 90.8706 14.6451 85.3955C9.74988 79.9205 6.11541 73.4381 3.99805 66.4056C5.15992 63.7406 6.16742 62.3756 8.76742 62.5706C12.903 62.8712 12.3993 67.0068 15.0724 70.46C17.2418 73.2712 19.7037 75.7493 24.408 75.7493C28.2105 75.7493 32.2243 59.9543 37.3024 64.9675C45.7362 73.3118 50.8712 70.7931 53.8287 71.4025C56.7862 72.0118 62.8718 75.3106 65.1387 77.3093C67.4055 79.3081 67.3974 82.0137 73.2231 79.2268C79.0487 76.44 88.6281 72.1337 92.6255 81.315Z" fill="#F74B4B"/>
<path d="M70.2138 58.6771C64.9066 65.953 59.2955 58.2595 61.3259 54.0109C61.5766 53.555 61.9161 53.1538 62.3242 52.8311C62.7324 52.5083 63.201 52.2705 63.7024 52.1317C64.2039 51.9928 64.7281 51.9557 65.2441 52.0225C65.7601 52.0894 66.2575 52.2588 66.7071 52.5208C69.5606 54.1832 71.6024 56.7734 70.2138 58.6771Z" fill="#F74B4B"/>
<path d="M77.5253 48.2398C78.0721 45.37 83.0056 44.5835 83.7231 48.2398C84.4405 51.896 81.7983 52.5395 79.2868 51.6238C78.6144 51.3945 78.0562 50.9149 77.7281 50.2847C77.4001 49.6545 77.3274 48.9221 77.5253 48.2398Z" fill="#F74B4B"/>
<path d="M76.7554 64.4638C77.1803 62.231 81.0194 61.62 81.5776 64.4638C82.1357 67.3075 80.0801 67.8088 78.1261 67.0971C77.6032 66.9181 77.1692 66.5448 76.9141 66.0545C76.6589 65.5643 76.6021 64.9947 76.7554 64.4638Z" fill="#F74B4B"/>
</svg>
