<svg width="182" height="176" viewBox="0 0 182 176" fill="none" xmlns="http://www.w3.org/2000/svg">
<g clip-path="url(#clip0_218_6181)">
<path d="M120.644 154.255C120.265 154.082 119.817 154.18 119.545 154.495L116.685 157.806L113.327 158.54L112.327 153.96C112.216 153.454 111.717 153.134 111.211 153.244C110.705 153.355 110.385 153.854 110.495 154.36L111.695 159.856C111.806 160.361 112.305 160.682 112.811 160.572L117.086 159.638L120.639 161.261L121.139 163.551C121.249 164.057 121.749 164.377 122.255 164.267C122.76 164.156 123.081 163.656 122.97 163.151L122.47 160.861L125.228 157.668C125.421 157.445 125.497 157.143 125.434 156.855C125.371 156.567 125.176 156.325 124.908 156.202L120.644 154.255ZM121.204 159.458L118.717 158.322L120.504 156.252L122.992 157.388L121.204 159.458Z" fill="#394F6F"/>
<path d="M126.119 164.382L118.792 165.983C118.286 166.093 117.966 166.593 118.076 167.099L118.876 170.762C118.987 171.268 119.486 171.589 119.992 171.478L127.319 169.878C127.825 169.767 128.146 169.268 128.035 168.762L127.235 165.098C127.125 164.592 126.625 164.272 126.119 164.382ZM126.003 168.246L120.508 169.446L120.108 167.614L125.603 166.414L126.003 168.246Z" fill="#394F6F"/>
<path d="M115.391 150.412L115.191 149.496L120.686 148.296C121.192 148.186 121.512 147.686 121.402 147.18C121.292 146.674 120.792 146.354 120.286 146.464L114.791 147.665L114.591 146.749C114.48 146.243 113.98 145.922 113.475 146.033L106.147 147.633C105.642 147.744 105.321 148.243 105.431 148.749L106.232 152.413C106.342 152.918 106.842 153.239 107.348 153.129L114.675 151.528C115.181 151.418 115.501 150.918 115.391 150.412ZM113.359 149.896L107.863 151.097L107.463 149.265L112.959 148.065L113.359 149.896Z" fill="#394F6F"/>
<path d="M129.961 142.432L122.634 144.032C122.128 144.143 121.807 144.642 121.918 145.148L122.718 148.812C122.828 149.318 123.328 149.638 123.834 149.528L126.582 148.928L127.982 155.339L127.066 155.539C126.56 155.649 126.24 156.149 126.35 156.655C126.461 157.161 126.96 157.481 127.466 157.371L129.298 156.971C129.804 156.86 130.124 156.361 130.014 155.855L128.413 148.527L131.161 147.927C131.667 147.817 131.988 147.317 131.877 146.811L131.077 143.148C130.966 142.642 130.467 142.321 129.961 142.432ZM129.845 146.296L124.35 147.496L123.95 145.664L129.445 144.464L129.845 146.296Z" fill="#394F6F"/>
</g>
<g clip-path="url(#clip1_218_6181)">
<path d="M174.635 123.244L174.873 122.338C175.005 121.837 174.707 121.324 174.206 121.192C173.705 121.06 173.192 121.359 173.06 121.86L172.821 122.767L171.915 122.528L172.154 121.621C172.286 121.121 171.987 120.608 171.486 120.476C170.985 120.344 170.472 120.643 170.34 121.143L170.102 122.05L169.195 121.811L169.434 120.905C169.566 120.404 169.267 119.891 168.766 119.759C168.265 119.627 167.753 119.926 167.621 120.427L167.382 121.334L166.475 121.095L166.714 120.188C166.846 119.688 166.548 119.175 166.046 119.043C165.545 118.911 165.033 119.21 164.901 119.711L164.662 120.617L163.756 120.378L163.994 119.472C164.126 118.971 163.828 118.458 163.327 118.326C162.826 118.194 162.313 118.493 162.181 118.994L161.943 119.901L161.036 119.662L161.275 118.755C161.407 118.255 161.108 117.742 160.607 117.61C160.106 117.478 159.594 117.777 159.462 118.278L159.223 119.184L158.316 118.945L158.555 118.039C158.687 117.538 158.388 117.025 157.887 116.893C157.386 116.761 156.874 117.061 156.742 117.561L156.503 118.468L155.597 118.229L155.835 117.322C155.967 116.822 155.669 116.309 155.168 116.177C154.667 116.045 154.154 116.344 154.022 116.845L153.783 117.751L152.877 117.512L153.116 116.606C153.248 116.105 152.949 115.592 152.448 115.46C151.947 115.328 151.434 115.628 151.303 116.128L151.064 117.035C150.563 116.903 150.05 117.202 149.918 117.702L148.008 124.955C147.876 125.456 148.174 125.968 148.675 126.1L148.437 127.007C148.305 127.508 148.603 128.02 149.104 128.152C149.605 128.284 150.118 127.985 150.25 127.485L150.489 126.578L151.395 126.817L151.156 127.723C151.024 128.224 151.323 128.737 151.824 128.869C152.325 129.001 152.838 128.702 152.969 128.201L153.208 127.295L154.115 127.533L153.876 128.44C153.744 128.941 154.043 129.453 154.544 129.585C155.045 129.717 155.557 129.418 155.689 128.918L155.928 128.011L156.835 128.25L156.596 129.156C156.464 129.657 156.762 130.17 157.264 130.302C157.765 130.434 158.277 130.135 158.409 129.634L158.648 128.728L159.554 128.966L159.315 129.873C159.184 130.374 159.482 130.886 159.983 131.018C160.484 131.15 160.997 130.851 161.129 130.351L161.367 129.444L162.274 129.683L162.035 130.589C161.903 131.09 162.202 131.603 162.703 131.735C163.204 131.867 163.716 131.568 163.848 131.067L164.087 130.16L164.994 130.399L164.755 131.306C164.623 131.806 164.922 132.319 165.423 132.451C165.924 132.583 166.436 132.284 166.568 131.783L166.807 130.877L167.713 131.116L167.475 132.022C167.343 132.523 167.641 133.036 168.142 133.168C168.643 133.3 169.156 133.001 169.288 132.5L169.527 131.593L170.433 131.832L170.194 132.739C170.062 133.239 170.361 133.752 170.862 133.884C171.363 134.016 171.876 133.717 172.007 133.216L172.246 132.31C172.747 132.442 173.26 132.143 173.392 131.642L175.302 124.39C175.434 123.889 175.136 123.376 174.635 123.244ZM150.06 124.526L151.493 119.087L173.25 124.818L171.817 130.258L150.06 124.526Z" fill="#394F6F"/>
<path d="M160.276 107.828L158.126 115.987C157.995 116.487 158.293 117 158.794 117.132C159.295 117.264 159.808 116.965 159.94 116.464L161.85 109.212L166.914 110.546L168.526 113.311L167.192 118.375C167.06 118.876 167.359 119.388 167.86 119.52C168.361 119.652 168.873 119.353 169.005 118.853L170.438 113.413C170.502 113.173 170.467 112.917 170.341 112.702L168.338 109.266C168.213 109.051 168.008 108.895 167.767 108.832L161.421 107.16C160.92 107.028 160.408 107.327 160.276 107.828Z" fill="#394F6F"/>
<path d="M156.552 114.603C157.053 114.735 157.566 114.435 157.698 113.935L159.847 105.776L166.193 107.447C166.694 107.579 167.207 107.28 167.339 106.78C167.47 106.279 167.172 105.766 166.671 105.634L159.418 103.724C158.917 103.592 158.405 103.891 158.273 104.391L155.885 113.457C155.753 113.958 156.051 114.471 156.552 114.603Z" fill="#394F6F"/>
<path d="M166.573 113.365L162.947 112.409C162.446 112.277 161.933 112.576 161.801 113.077C161.669 113.578 161.968 114.09 162.469 114.222L166.095 115.178C166.596 115.31 167.109 115.011 167.241 114.51C167.373 114.009 167.074 113.497 166.573 113.365Z" fill="#394F6F"/>
<path d="M165.857 116.084L162.231 115.129C161.73 114.997 161.217 115.296 161.085 115.797C160.954 116.297 161.252 116.81 161.753 116.942L165.379 117.897C165.88 118.029 166.393 117.73 166.525 117.23C166.657 116.729 166.358 116.216 165.857 116.084Z" fill="#394F6F"/>
</g>
<path d="M174.241 62.5283L173.307 62.6113L172.393 52.3394C172.347 51.8233 171.892 51.4427 171.376 51.4886L169.152 51.6865L168.356 50.3951C168.25 50.2225 168.09 50.0888 167.901 50.0145L164.959 48.8567C165.242 48.2987 165.39 47.6744 165.333 47.0398C165.282 46.4661 165.095 45.9037 164.794 45.415L164.039 44.1906C164.03 44.1756 164.018 44.1631 164.008 44.1482C164.002 44.1385 163.995 44.1296 163.988 44.12C163.172 42.8335 161.952 41.8162 160.534 41.2578C160.26 41.1499 159.95 41.1775 159.699 41.3321C158.402 42.132 157.38 43.3488 156.805 44.7592C156.799 44.7696 156.794 44.7795 156.789 44.7901C156.783 44.8064 156.773 44.8211 156.766 44.8375L156.241 46.1747C156.029 46.7103 155.944 47.2968 155.995 47.8704C156.052 48.505 156.307 49.0933 156.684 49.5927L153.993 51.2518C153.82 51.3582 153.686 51.518 153.612 51.7066L153.057 53.1182L150.832 53.316C150.316 53.3619 149.936 53.8168 149.982 54.3329L150.895 64.6048L149.961 64.6879C149.445 64.7338 149.065 65.1886 149.111 65.7048C149.248 67.2496 150.617 68.3944 152.161 68.257L172.705 66.4297C174.25 66.2923 175.395 64.9238 175.257 63.379C175.212 62.8629 174.757 62.4824 174.241 62.5283ZM158.565 48.8431C158.166 48.5964 157.904 48.1703 157.863 47.7043C157.838 47.4197 157.88 47.1283 157.985 46.8625L158.416 45.7665C159.626 44.8007 161.218 44.6592 162.58 45.3962L163.198 46.3997C163.347 46.642 163.44 46.9215 163.466 47.2059C163.507 47.6719 163.324 48.1376 162.976 48.4508L160.917 50.3012L158.565 48.8431ZM155.242 52.6838L158.231 50.8419L160.528 52.2652C160.705 52.3754 160.907 52.4198 161.104 52.4023C161.301 52.3848 161.493 52.3053 161.648 52.1656L163.657 50.3595L166.924 51.6448L167.064 51.8722L161.104 52.4023L155.144 52.9324L155.242 52.6838ZM151.932 55.1006L170.609 53.4393L171.439 62.7775L152.763 64.4387L151.932 55.1006Z" fill="#394F6F"/>
<path d="M158.303 55.7509C157.905 55.4186 157.315 55.4711 156.982 55.8683L154.43 58.919C154.098 59.3161 154.15 59.9071 154.547 60.2395L157.598 62.7917C157.797 62.9578 158.044 63.0278 158.283 63.0065C158.522 62.9852 158.752 62.8728 158.918 62.6742C159.251 62.277 159.198 61.6861 158.801 61.3537L156.469 59.403L158.42 57.0713C158.752 56.6741 158.7 56.0832 158.303 55.7509Z" fill="#394F6F"/>
<path d="M165.774 55.0864C165.377 54.7541 164.786 54.8066 164.453 55.2038C164.121 55.601 164.173 56.1919 164.571 56.5243L166.902 58.475L164.952 60.8067C164.619 61.2039 164.672 61.7948 165.069 62.1272C165.268 62.2933 165.515 62.3632 165.754 62.342C165.993 62.3207 166.223 62.2082 166.39 62.0097L168.942 58.959C169.274 58.5618 169.222 57.9709 168.824 57.6385L165.774 55.0864Z" fill="#394F6F"/>
<path d="M162.587 55.1428C162.079 55.0226 161.579 55.3345 161.459 55.8378L160.09 61.6068C159.97 62.111 160.282 62.6164 160.785 62.7352C160.886 62.7593 160.987 62.766 161.085 62.7573C161.476 62.7225 161.818 62.4431 161.913 62.0402L163.282 56.2712C163.402 55.767 163.091 55.2616 162.587 55.1428Z" fill="#394F6F"/>
<g clip-path="url(#clip2_218_6181)">
<path d="M29.5895 71.5355L28.6572 71.6336L27.3812 59.5131C27.3269 58.9978 26.866 58.6247 26.3507 58.6789L5.83904 60.8382C5.32419 60.8924 4.95059 61.3534 5.00484 61.8687L6.28081 73.9893L5.34846 74.0874C4.83362 74.1416 4.46001 74.6026 4.51426 75.1179C4.67663 76.6603 6.06338 77.7829 7.60576 77.6205L28.1174 75.4612C29.6598 75.2988 30.7824 73.9121 30.62 72.3697C30.5658 71.8544 30.1048 71.4812 29.5895 71.5355ZM6.96769 62.6048L25.6146 60.6418L26.7925 71.8299L8.1455 73.793L6.96769 62.6048Z" fill="#394F6F"/>
<path d="M20.7424 64.0821L16.8167 62.61C16.5406 62.5066 16.2311 62.5392 15.9827 62.6978L12.4496 64.9551C12.1503 65.1468 11.9848 65.4901 12.022 65.8434L12.4146 69.5728C12.4518 69.926 12.6851 70.2274 13.0177 70.3525L16.9434 71.8246C17.0815 71.8763 17.2279 71.8941 17.3708 71.8791C17.5137 71.864 17.6532 71.8161 17.7775 71.7368L21.3106 69.4795C21.6098 69.2878 21.7753 68.9445 21.7381 68.5913L21.3455 64.8619C21.3083 64.5086 21.0749 64.2073 20.7424 64.0821ZM19.8127 68.2112L17.1629 69.9042L14.2186 68.8001L13.9474 66.2234L16.5972 64.5304L19.5414 65.6345L19.8127 68.2112Z" fill="#394F6F"/>
<path d="M11.1389 57.4523L13.936 57.1579C14.4508 57.1037 14.8244 56.6427 14.7702 56.1274L14.2794 51.4656C14.2252 50.9503 13.7638 50.5772 13.2489 50.6314L10.4519 50.9259C9.93704 50.9801 9.56343 51.4411 9.61768 51.9564L10.1084 56.6181C10.1627 57.1334 10.6241 57.5065 11.1389 57.4523ZM11.5805 52.6924L12.5129 52.5943L12.8073 55.3913L11.875 55.4895L11.5805 52.6924Z" fill="#394F6F"/>
<path d="M23.2591 56.1763L26.0561 55.8819C26.5714 55.8276 26.9445 55.3667 26.8903 54.8514L26.3995 50.1896C26.3453 49.6743 25.8843 49.3012 25.369 49.3554L22.572 49.6499C22.0567 49.7041 21.6836 50.1651 21.7378 50.6804L22.2286 55.3421C22.2828 55.8574 22.7437 56.2306 23.2591 56.1763ZM23.7006 51.4164L24.633 51.3183L24.9274 54.1153L23.9951 54.2135L23.7006 51.4164Z" fill="#394F6F"/>
<path d="M4.51371 57.207C4.56796 57.7223 5.02937 58.0954 5.54421 58.0412L7.40891 57.8449C7.92375 57.7907 8.29735 57.3297 8.2431 56.8144C8.18886 56.2991 7.72745 55.926 7.21261 55.9802L6.82 52.2508C6.76575 51.7355 6.30434 51.3624 5.7895 51.4166L4.85715 51.5148C4.34231 51.569 3.96871 52.03 4.02296 52.5453C4.0772 53.0606 4.53861 53.4337 5.05346 53.3795L5.34791 56.1765C4.83307 56.2307 4.45946 56.6917 4.51371 57.207Z" fill="#394F6F"/>
<path d="M16.6348 55.931C16.6891 56.4463 17.15 56.8194 17.6653 56.7652L19.53 56.5689C20.0453 56.5146 20.4184 56.0537 20.3642 55.5384C20.3099 55.0231 19.849 54.65 19.3337 54.7042L18.9411 50.9748C18.8868 50.4595 18.4259 50.0864 17.9106 50.1406L16.9782 50.2388C16.4629 50.293 16.0898 50.754 16.144 51.2693C16.1983 51.7846 16.6592 52.1577 17.1745 52.1035L17.469 54.9005C16.9537 54.9548 16.5806 55.4157 16.6348 55.931Z" fill="#394F6F"/>
</g>
<g clip-path="url(#clip3_218_6181)">
<path d="M67.1021 164.468C67.9637 161.493 66.2497 158.371 63.2757 157.503C60.3017 156.635 57.1772 158.345 56.3037 161.316C56.3029 161.319 56.3017 161.321 56.3008 161.324C56.3006 161.325 56.3003 161.326 56.3 161.327C55.431 164.304 57.1462 167.433 60.1238 168.302C63.1014 169.171 66.2304 167.456 67.0995 164.479C67.0997 164.478 67.0999 164.477 67.1001 164.476C67.1009 164.473 67.1012 164.471 67.1021 164.468ZM65.4261 162.538C64.4665 161.945 63.4474 161.478 62.3839 161.153C62.6556 160.594 62.9764 160.057 63.3424 159.543C64.5224 160.119 65.2998 161.264 65.4261 162.538ZM61.3346 159.176C61.0235 159.68 60.7506 160.201 60.5123 160.737C59.9329 160.65 59.3469 160.599 58.7548 160.591C59.3856 159.789 60.3197 159.277 61.3346 159.176ZM57.9836 162.48C58.6142 162.448 59.2395 162.467 59.8567 162.538C59.5589 163.61 59.404 164.72 59.3875 165.848C58.3816 165.056 57.835 163.785 57.9836 162.48ZM61.2772 166.619C61.2131 165.348 61.3486 164.094 61.6977 162.899C62.8929 163.247 64.0234 163.808 65.0599 164.545C64.3661 165.965 62.8473 166.798 61.2772 166.619Z" fill="#394F6F"/>
<path d="M60.4638 153.752C60.9612 153.898 61.4813 153.613 61.6264 153.115C61.7716 152.618 61.4865 152.098 60.9891 151.952C57.5158 150.939 53.8645 152.94 52.8508 156.414C52.7057 156.911 52.9907 157.431 53.4881 157.576C53.9855 157.721 54.5056 157.436 54.6508 156.939C55.3748 154.458 57.9828 153.028 60.4638 153.752Z" fill="#394F6F"/>
<path d="M59.6761 156.452C60.1735 156.598 60.6935 156.312 60.8387 155.815C60.9838 155.318 60.6988 154.798 60.2014 154.652C58.216 154.073 56.1304 155.216 55.5509 157.202C55.4058 157.699 55.6908 158.219 56.1882 158.364C56.6856 158.509 57.2057 158.224 57.3508 157.727C57.6404 156.735 58.6839 156.163 59.6761 156.452Z" fill="#394F6F"/>
<path d="M46.741 143.888L48.5409 144.413C48.3958 144.91 48.6808 145.43 49.1782 145.575L50.9781 146.101C51.4755 146.246 51.9956 145.961 52.1408 145.463L53.9407 145.989C54.4381 146.134 54.9581 145.849 55.1033 145.352L56.4166 140.852C56.5617 140.354 56.2767 139.834 55.7793 139.689L48.5796 137.588C48.0822 137.443 47.5622 137.728 47.417 138.225L46.1037 142.725C45.9586 143.222 46.2436 143.742 46.741 143.888ZM48.9543 139.65L54.354 141.226L53.566 143.926L48.1663 142.35L48.9543 139.65Z" fill="#394F6F"/>
<path d="M62.0399 148.353L70.1394 150.717C70.6369 150.862 71.1569 150.577 71.3021 150.079C71.4472 149.582 71.1622 149.062 70.6648 148.917L71.7154 145.317C71.8606 144.82 71.5755 144.3 71.0781 144.154L64.7784 142.316C64.281 142.171 63.761 142.456 63.6158 142.953L62.5652 146.553C62.0678 146.408 61.5477 146.693 61.4026 147.19C61.2574 147.688 61.5425 148.208 62.0399 148.353ZM65.1531 144.378L69.6528 145.692L68.8649 148.391L64.3651 147.078L65.1531 144.378Z" fill="#394F6F"/>
<path d="M49.8503 163.351L50.9009 159.751C51.0461 159.253 50.7611 158.733 50.2636 158.588L43.964 156.75C43.4666 156.604 42.9465 156.889 42.8014 157.387L41.7507 160.987C41.2533 160.841 40.7333 161.127 40.5881 161.624C40.4429 162.121 40.728 162.641 41.2254 162.787L49.325 165.151C49.8224 165.296 50.3424 165.011 50.4876 164.513C50.6328 164.016 50.3477 163.496 49.8503 163.351ZM43.5506 161.512L44.3386 158.812L48.8384 160.125L48.0504 162.825L43.5506 161.512Z" fill="#394F6F"/>
</g>
<g clip-path="url(#clip4_218_6181)">
<path d="M76.6398 26.099L75.7168 26.263L73.7492 15.1864C73.6586 14.6762 73.1719 14.3367 72.6622 14.4273L70.8161 14.7552C70.3064 14.8458 69.9664 15.3321 70.057 15.8422C70.1476 16.3524 70.6343 16.6919 71.144 16.6013L72.0671 16.4374L73.8707 26.5909L55.4097 29.8702L53.6061 19.7166L54.5291 19.5527C55.0388 19.4621 55.3788 18.9758 55.2882 18.4656C55.1976 17.9555 54.7109 17.616 54.2012 17.7066L52.3551 18.0345C51.8454 18.125 51.5054 18.6113 51.596 19.1215L53.5636 30.1981L52.6405 30.3621C52.1308 30.4526 51.7908 30.9389 51.8814 31.4491C52.1527 32.9761 53.6155 33.9976 55.1425 33.7263L75.4496 30.1191C76.9766 29.8479 77.9981 28.3851 77.7268 26.8581C77.6362 26.3479 77.1495 26.0085 76.6398 26.099Z" fill="#394F6F"/>
<path d="M55.1251 16.8421L57.5231 19.7153C57.6835 19.9063 57.9136 20.0262 58.1625 20.0481C58.411 20.0681 58.6592 19.9915 58.8494 19.8293L59.3254 19.4258C59.6397 19.5699 59.9649 19.6888 60.2994 19.7819L60.4113 20.4121C60.5019 20.9223 60.9886 21.2617 61.4983 21.1712L65.158 20.5211C65.6678 20.4305 66.0078 19.9442 65.9171 19.4341L65.8052 18.804C66.0872 18.6014 66.3516 18.3778 66.597 18.1342L67.1829 18.3491C67.4169 18.434 67.6755 18.4216 67.9031 18.318C68.1292 18.2118 68.3039 18.0198 68.3887 17.7853L69.6505 14.2621C69.8237 13.7766 69.574 13.2426 69.0902 13.0654L68.4993 12.8486C68.483 12.6692 68.4597 12.4938 68.4293 12.3226C68.3989 12.1514 68.3603 11.9787 68.3141 11.8047L68.7941 11.3977C69.1873 11.0647 69.2378 10.4774 68.908 10.0813L66.5101 7.20813C66.3497 7.01714 66.1196 6.89719 65.8707 6.87532C65.6231 6.85513 65.3748 6.93179 65.1838 7.09408L64.7078 7.49761C64.3935 7.35348 64.0682 7.23463 63.7338 7.1415L63.6218 6.51134C63.5312 6.00117 63.0445 5.66171 62.5348 5.75225L58.8751 6.40233C58.3654 6.49287 58.0254 6.97917 58.116 7.48934L58.2279 8.11942C57.9459 8.32205 57.6816 8.54563 57.4362 8.78919L56.8503 8.57428C56.6154 8.48764 56.3555 8.5004 56.1301 8.60547C55.9039 8.71162 55.7292 8.90358 55.6444 9.13811L54.3825 12.6615C54.2094 13.1469 54.4591 13.6809 54.9429 13.8581L55.5338 14.0749C55.5502 14.2542 55.5735 14.4296 55.6039 14.6008C55.6343 14.772 55.6729 14.9447 55.7191 15.1187L55.239 15.5257C54.8459 15.8587 54.7954 16.4461 55.1251 16.8421ZM57.6807 15.1031C57.5734 14.8163 57.4982 14.5442 57.45 14.2729C57.4018 14.0016 57.3787 13.7201 57.3806 13.414C57.3826 13.0193 57.1365 12.6651 56.7655 12.5293L56.4616 12.4177L57.0914 10.66L57.3824 10.7674C57.7592 10.9049 58.1806 10.7902 58.4325 10.4786C58.7917 10.0371 59.2264 9.66882 59.725 9.38402C60.069 9.18808 60.2525 8.79652 60.1832 8.40626L60.126 8.08448L61.9396 7.76233L61.9968 8.0841C62.0661 8.47446 62.3731 8.77881 62.7637 8.84426C63.3298 8.93994 63.8648 9.13588 64.3539 9.42654C64.6972 9.63151 65.1331 9.59407 65.4392 9.33602L65.6755 9.13505L66.872 10.5683L66.6252 10.7778C66.3237 11.0331 66.2147 11.4505 66.3524 11.8202C66.4596 12.1071 66.5349 12.3792 66.5831 12.6505C66.6313 12.9217 66.6543 13.2032 66.6524 13.5094C66.6505 13.904 66.8966 14.2582 67.2676 14.3941L67.5714 14.5056L66.9417 16.2633L66.6507 16.156C66.2759 16.0198 65.8531 16.134 65.6006 16.4448C65.2414 16.8861 64.8066 17.2543 64.3081 17.5391C63.9641 17.7351 63.7806 18.1266 63.85 18.5169L63.9072 18.8389L62.0936 19.1611L62.0364 18.8393C61.9671 18.449 61.6601 18.1446 61.2695 18.0792C60.7034 17.9835 60.1683 17.7875 59.6792 17.4969C59.3345 17.2912 58.8989 17.3286 58.5939 17.5874L58.3577 17.7884L57.1611 16.3551L57.408 16.1458C57.7094 15.8903 57.8184 15.473 57.6807 15.1031Z" fill="#394F6F"/>
<path d="M62.3468 22.2516C61.9222 21.9551 61.3381 22.0588 61.0415 22.4834L59.5233 24.6575C59.2268 25.0821 59.3306 25.6662 59.7552 25.9628L61.9292 27.4809C62.1416 27.6291 62.3937 27.6773 62.6299 27.6353C62.8661 27.5934 63.0862 27.4613 63.2345 27.249C63.531 26.8244 63.4272 26.2403 63.0026 25.9437L61.5972 24.9623L62.5787 23.5568C62.8752 23.1322 62.7715 22.5481 62.3468 22.2516Z" fill="#394F6F"/>
<path d="M65.6213 26.8251C65.8336 26.9733 66.0857 27.0216 66.322 26.9796C66.5582 26.9376 66.7783 26.8055 66.9265 26.5932L68.4447 24.4192C68.7412 23.9946 68.6374 23.4105 68.2128 23.1139L66.0388 21.5957C65.6142 21.2992 65.0301 21.403 64.7335 21.8276C64.4369 22.2522 64.5408 22.8363 64.9654 23.1329L66.3709 24.1144L65.3894 25.5199C65.0929 25.9445 65.1966 26.5286 65.6213 26.8251Z" fill="#394F6F"/>
<path d="M62.5088 16.2309C64.0358 15.9596 65.0573 14.4968 64.7861 12.9698C64.5148 11.4428 63.052 10.4213 61.525 10.6926C59.998 10.9638 58.9765 12.4266 59.2477 13.9536C59.519 15.4806 60.9818 16.5021 62.5088 16.2309ZM61.8529 12.5387C62.3618 12.4483 62.8495 12.7884 62.94 13.2977C63.0304 13.8071 62.6897 14.2944 62.1809 14.3848C61.672 14.4752 61.1843 14.135 61.0938 13.6257C61.0034 13.1163 61.3441 12.6291 61.8529 12.5387Z" fill="#394F6F"/>
</g>
<g clip-path="url(#clip5_218_6181)">
<path d="M35.5882 115.184C36.0976 115.092 36.4362 114.604 36.3441 114.094L34.8439 105.791C34.7518 105.281 34.2641 104.943 33.7547 105.035L29.9716 105.719C29.1633 103.694 27.0125 102.443 24.7848 102.845C22.5572 103.248 20.98 105.172 20.9316 107.352L19.5933 107.594C18.4432 105.585 16.1187 104.411 13.7141 104.846C10.6617 105.397 8.62733 108.329 9.17882 111.381C9.61329 113.786 11.5267 115.552 13.8108 115.927L14.0526 117.265C12.0273 118.074 10.7765 120.224 11.179 122.452C11.5816 124.68 13.5057 126.256 15.686 126.305L16.3695 130.088C16.4616 130.598 16.9493 130.936 17.4587 130.844L25.7618 129.344C26.2712 129.252 26.6098 128.765 26.5177 128.255C26.2419 126.728 27.2591 125.263 28.7853 124.987C30.3115 124.711 31.7773 125.728 32.053 127.255C32.1452 127.764 32.6328 128.102 33.1423 128.01L37.7551 127.177C38.2645 127.085 38.6031 126.598 38.511 126.088L37.6775 121.475C37.5854 120.965 37.0977 120.627 36.5883 120.719C35.0621 120.995 33.5963 119.978 33.3206 118.451C33.0448 116.925 34.062 115.459 35.5882 115.184ZM11.0239 111.048C10.6562 109.012 12.0127 107.058 14.0475 106.691C16.0823 106.323 18.0367 107.679 18.4045 109.714C18.7722 111.749 17.4157 113.704 15.3809 114.071C13.3461 114.439 11.3917 113.083 11.0239 111.048ZM35.9823 122.638L36.4992 125.499L33.6387 126.015C32.8303 123.99 30.6794 122.739 28.4519 123.142C26.2244 123.544 24.6471 125.468 24.5987 127.649L18.0479 128.832L17.3812 125.142C17.289 124.632 16.8014 124.294 16.2919 124.386C14.7657 124.662 13.2999 123.645 13.0242 122.118C12.7484 120.592 13.7656 119.126 15.2918 118.851C15.8012 118.759 16.1398 118.271 16.0477 117.761L15.7143 115.916C18.7667 115.365 20.8011 112.433 20.2496 109.381L22.0947 109.047C22.6041 108.955 22.9427 108.468 22.8506 107.958C22.5748 106.432 23.592 104.966 25.1182 104.69C26.6444 104.415 28.1102 105.432 28.386 106.958C28.4781 107.468 28.9658 107.806 29.4752 107.714L33.1655 107.047L34.349 113.598C32.3237 114.407 31.0729 116.557 31.4754 118.785C31.878 121.013 33.8021 122.589 35.9823 122.638Z" fill="#394F6F"/>
<path d="M15.97 112.059L15.8033 111.137L16.7258 110.97C17.2353 110.878 17.5738 110.391 17.4817 109.881C17.3896 109.371 16.9019 109.033 16.3925 109.125L15.4699 109.292L15.3032 108.369C15.2111 107.859 14.7234 107.521 14.214 107.613C13.7045 107.705 13.366 108.193 13.4581 108.702L13.6248 109.625L12.7022 109.792C12.1928 109.884 11.8542 110.371 11.9463 110.881C12.0385 111.391 12.5262 111.729 13.0356 111.637L13.9582 111.47L14.1248 112.393C14.217 112.903 14.7047 113.241 15.2141 113.149C15.7235 113.057 16.0621 112.569 15.97 112.059Z" fill="#394F6F"/>
</g>
<g clip-path="url(#clip6_218_6181)">
<path d="M131.983 2.41879L108.141 7.48731C107.634 7.59496 107.311 8.09289 107.419 8.59926L112.487 32.4415C112.595 32.9478 113.093 33.2712 113.599 33.1635L137.441 28.095C137.948 27.9873 138.271 27.4894 138.163 26.9831L133.095 3.14085C132.987 2.63448 132.49 2.31104 131.983 2.41879ZM109.448 9.12638L131.456 4.44775L132.43 9.03278L110.422 13.7114L109.448 9.12638ZM136.134 26.4559L114.126 31.1346L110.812 15.5454L132.82 10.8668L136.134 26.4559Z" fill="#394F6F"/>
<path d="M115.18 27.0766L119.765 26.1019C120.272 25.9942 120.595 25.4963 120.487 24.9899L118.538 15.8199C118.43 15.3135 117.932 14.9901 117.426 15.0978L112.841 16.0725C112.334 16.1802 112.011 16.6781 112.119 17.1845L114.068 26.3545C114.176 26.8609 114.674 27.1843 115.18 27.0766ZM114.148 17.7116L116.899 17.1268L118.458 24.4628L115.707 25.0476L114.148 17.7116Z" fill="#394F6F"/>
<path d="M122.516 25.5172L133.52 23.1778C134.027 23.0701 134.35 22.5723 134.242 22.0659L132.293 12.8958C132.185 12.3894 131.688 12.066 131.181 12.1737L120.177 14.5131C119.67 14.6207 119.347 15.1186 119.455 15.625L121.404 24.7951C121.512 25.3015 122.01 25.6248 122.516 25.5172ZM121.484 16.1521L130.654 14.2027L132.213 21.5388L123.043 23.4882L121.484 16.1521Z" fill="#394F6F"/>
<path d="M115.765 29.8277L120.35 28.853C120.856 28.7453 121.18 28.2474 121.072 27.741C120.964 27.2346 120.466 26.9113 119.96 27.0189L115.375 27.9937C114.869 28.1013 114.545 28.5992 114.653 29.1056C114.761 29.612 115.259 29.9353 115.765 29.8277Z" fill="#394F6F"/>
<path d="M123.101 28.2681L126.769 27.4883C127.276 27.3806 127.599 26.8827 127.491 26.3764C127.383 25.87 126.886 25.5466 126.379 25.6543L122.711 26.4341C122.205 26.5417 121.881 27.0397 121.989 27.546C122.097 28.0524 122.594 28.3757 123.101 28.2681Z" fill="#394F6F"/>
<path d="M133.716 24.0947L129.131 25.0695C128.624 25.1772 128.301 25.675 128.409 26.1814C128.516 26.6878 129.014 27.0112 129.521 26.9035L134.106 25.9288C134.613 25.821 134.936 25.3232 134.828 24.8168C134.72 24.3104 134.223 23.987 133.716 24.0947Z" fill="#394F6F"/>
</g>
<defs>
<clipPath id="clip0_218_6181">
<rect width="30" height="30" fill="white" transform="translate(103 146.401) rotate(-12.3205)"/>
</clipPath>
<clipPath id="clip1_218_6181">
<rect width="30" height="30" fill="white" transform="translate(152.643 100) rotate(14.7585)"/>
</clipPath>
<clipPath id="clip2_218_6181">
<rect width="30" height="30" fill="white" transform="translate(0 50.1409) rotate(-6.00958)"/>
</clipPath>
<clipPath id="clip3_218_6181">
<rect width="30" height="30" fill="white" transform="translate(46.4053 135) rotate(16.2703)"/>
</clipPath>
<clipPath id="clip4_218_6181">
<rect width="30" height="30" fill="white" transform="translate(48 4)"/>
</clipPath>
<clipPath id="clip5_218_6181">
<rect width="30" height="30" fill="white" transform="translate(6 104.334) rotate(-10.2415)"/>
</clipPath>
<clipPath id="clip6_218_6181">
<rect width="30" height="30" fill="white" transform="translate(105 6.23816) rotate(-12.0016)"/>
</clipPath>
</defs>
</svg>
