<svg width="182" height="176" viewBox="0 0 182 176" fill="none" xmlns="http://www.w3.org/2000/svg">
<g clip-path="url(#clip0_234_1547)">
<mask id="path-1-inside-1_234_1547" fill="white">
<path d="M120.646 154.255C120.267 154.082 119.819 154.18 119.547 154.495L116.687 157.806L113.329 158.54L112.329 153.96C112.218 153.454 111.719 153.134 111.213 153.244C110.707 153.355 110.386 153.854 110.497 154.36L111.697 159.856C111.808 160.361 112.307 160.682 112.813 160.572L117.087 159.638L120.64 161.261L121.141 163.551C121.251 164.057 121.751 164.377 122.257 164.267C122.762 164.156 123.083 163.656 122.972 163.151L122.472 160.861L125.23 157.668C125.423 157.445 125.499 157.143 125.436 156.855C125.373 156.567 125.178 156.325 124.91 156.202L120.646 154.255ZM121.206 159.458L118.719 158.322L120.506 156.252L122.994 157.388L121.206 159.458Z"/>
</mask>
<path d="M120.646 154.255C120.267 154.082 119.819 154.18 119.547 154.495L116.687 157.806L113.329 158.54L112.329 153.96C112.218 153.454 111.719 153.134 111.213 153.244C110.707 153.355 110.386 153.854 110.497 154.36L111.697 159.856C111.808 160.361 112.307 160.682 112.813 160.572L117.087 159.638L120.64 161.261L121.141 163.551C121.251 164.057 121.751 164.377 122.257 164.267C122.762 164.156 123.083 163.656 122.972 163.151L122.472 160.861L125.23 157.668C125.423 157.445 125.499 157.143 125.436 156.855C125.373 156.567 125.178 156.325 124.91 156.202L120.646 154.255ZM121.206 159.458L118.719 158.322L120.506 156.252L122.994 157.388L121.206 159.458Z" fill="#394F6F" stroke="white" stroke-width="0.6" mask="url(#path-1-inside-1_234_1547)"/>
<mask id="path-2-inside-2_234_1547" fill="white">
<path d="M126.12 164.382L118.793 165.983C118.287 166.093 117.967 166.593 118.077 167.099L118.877 170.762C118.988 171.268 119.487 171.589 119.993 171.478L127.32 169.878C127.826 169.767 128.147 169.268 128.036 168.762L127.236 165.098C127.126 164.592 126.626 164.272 126.12 164.382ZM126.004 168.246L120.509 169.446L120.109 167.614L125.604 166.414L126.004 168.246Z"/>
</mask>
<path d="M126.12 164.382L118.793 165.983C118.287 166.093 117.967 166.593 118.077 167.099L118.877 170.762C118.988 171.268 119.487 171.589 119.993 171.478L127.32 169.878C127.826 169.767 128.147 169.268 128.036 168.762L127.236 165.098C127.126 164.592 126.626 164.272 126.12 164.382ZM126.004 168.246L120.509 169.446L120.109 167.614L125.604 166.414L126.004 168.246Z" fill="#394F6F" stroke="white" stroke-width="0.6" mask="url(#path-2-inside-2_234_1547)"/>
<mask id="path-3-inside-3_234_1547" fill="white">
<path d="M115.392 150.412L115.192 149.496L120.687 148.296C121.193 148.186 121.513 147.686 121.403 147.18C121.293 146.674 120.793 146.354 120.287 146.464L114.792 147.665L114.592 146.749C114.481 146.243 113.981 145.922 113.476 146.033L106.148 147.633C105.643 147.744 105.322 148.243 105.432 148.749L106.233 152.413C106.343 152.918 106.843 153.239 107.349 153.129L114.676 151.528C115.182 151.418 115.502 150.918 115.392 150.412ZM113.36 149.896L107.864 151.097L107.464 149.265L112.96 148.065L113.36 149.896Z"/>
</mask>
<path d="M115.392 150.412L115.192 149.496L120.687 148.296C121.193 148.186 121.513 147.686 121.403 147.18C121.293 146.674 120.793 146.354 120.287 146.464L114.792 147.665L114.592 146.749C114.481 146.243 113.981 145.922 113.476 146.033L106.148 147.633C105.643 147.744 105.322 148.243 105.432 148.749L106.233 152.413C106.343 152.918 106.843 153.239 107.349 153.129L114.676 151.528C115.182 151.418 115.502 150.918 115.392 150.412ZM113.36 149.896L107.864 151.097L107.464 149.265L112.96 148.065L113.36 149.896Z" fill="#394F6F" stroke="white" stroke-width="0.6" mask="url(#path-3-inside-3_234_1547)"/>
<mask id="path-4-inside-4_234_1547" fill="white">
<path d="M129.962 142.432L122.635 144.032C122.129 144.143 121.808 144.642 121.919 145.148L122.719 148.812C122.829 149.318 123.329 149.638 123.835 149.528L126.583 148.928L127.983 155.339L127.067 155.539C126.561 155.649 126.241 156.149 126.351 156.655C126.462 157.161 126.961 157.481 127.467 157.371L129.299 156.971C129.805 156.86 130.125 156.361 130.015 155.855L128.414 148.527L131.162 147.927C131.668 147.817 131.989 147.317 131.878 146.811L131.078 143.148C130.967 142.642 130.468 142.321 129.962 142.432ZM129.846 146.296L124.351 147.496L123.951 145.664L129.446 144.464L129.846 146.296Z"/>
</mask>
<path d="M129.962 142.432L122.635 144.032C122.129 144.143 121.808 144.642 121.919 145.148L122.719 148.812C122.829 149.318 123.329 149.638 123.835 149.528L126.583 148.928L127.983 155.339L127.067 155.539C126.561 155.649 126.241 156.149 126.351 156.655C126.462 157.161 126.961 157.481 127.467 157.371L129.299 156.971C129.805 156.86 130.125 156.361 130.015 155.855L128.414 148.527L131.162 147.927C131.668 147.817 131.989 147.317 131.878 146.811L131.078 143.148C130.967 142.642 130.468 142.321 129.962 142.432ZM129.846 146.296L124.351 147.496L123.951 145.664L129.446 144.464L129.846 146.296Z" fill="#394F6F" stroke="white" stroke-width="0.6" mask="url(#path-4-inside-4_234_1547)"/>
</g>
<g clip-path="url(#clip1_234_1547)">
<mask id="path-5-inside-5_234_1547" fill="white">
<path d="M174.635 123.244L174.873 122.338C175.005 121.837 174.707 121.324 174.206 121.192C173.705 121.06 173.192 121.359 173.06 121.86L172.821 122.767L171.915 122.528L172.154 121.621C172.286 121.121 171.987 120.608 171.486 120.476C170.985 120.344 170.472 120.643 170.34 121.143L170.102 122.05L169.195 121.811L169.434 120.905C169.566 120.404 169.267 119.891 168.766 119.759C168.265 119.627 167.753 119.926 167.621 120.427L167.382 121.334L166.475 121.095L166.714 120.188C166.846 119.688 166.548 119.175 166.046 119.043C165.545 118.911 165.033 119.21 164.901 119.711L164.662 120.617L163.756 120.378L163.994 119.472C164.126 118.971 163.828 118.458 163.327 118.326C162.826 118.194 162.313 118.493 162.181 118.994L161.943 119.901L161.036 119.662L161.275 118.755C161.407 118.255 161.108 117.742 160.607 117.61C160.106 117.478 159.594 117.777 159.462 118.278L159.223 119.184L158.316 118.945L158.555 118.039C158.687 117.538 158.388 117.025 157.887 116.893C157.386 116.761 156.874 117.061 156.742 117.561L156.503 118.468L155.597 118.229L155.835 117.322C155.967 116.822 155.669 116.309 155.168 116.177C154.667 116.045 154.154 116.344 154.022 116.845L153.783 117.751L152.877 117.512L153.116 116.606C153.248 116.105 152.949 115.592 152.448 115.46C151.947 115.328 151.434 115.628 151.303 116.128L151.064 117.035C150.563 116.903 150.05 117.202 149.918 117.702L148.008 124.955C147.876 125.456 148.174 125.968 148.675 126.1L148.437 127.007C148.305 127.508 148.603 128.02 149.104 128.152C149.605 128.284 150.118 127.985 150.25 127.485L150.489 126.578L151.395 126.817L151.156 127.723C151.024 128.224 151.323 128.737 151.824 128.869C152.325 129.001 152.838 128.702 152.969 128.201L153.208 127.295L154.115 127.533L153.876 128.44C153.744 128.941 154.043 129.453 154.544 129.585C155.045 129.717 155.557 129.418 155.689 128.918L155.928 128.011L156.835 128.25L156.596 129.156C156.464 129.657 156.762 130.17 157.264 130.302C157.765 130.434 158.277 130.135 158.409 129.634L158.648 128.728L159.554 128.966L159.315 129.873C159.184 130.374 159.482 130.886 159.983 131.018C160.484 131.15 160.997 130.851 161.129 130.351L161.367 129.444L162.274 129.683L162.035 130.589C161.903 131.09 162.202 131.603 162.703 131.735C163.204 131.867 163.716 131.568 163.848 131.067L164.087 130.16L164.994 130.399L164.755 131.306C164.623 131.806 164.922 132.319 165.423 132.451C165.924 132.583 166.436 132.284 166.568 131.783L166.807 130.877L167.713 131.116L167.475 132.022C167.343 132.523 167.641 133.036 168.142 133.168C168.643 133.3 169.156 133.001 169.288 132.5L169.527 131.593L170.433 131.832L170.194 132.739C170.062 133.239 170.361 133.752 170.862 133.884C171.363 134.016 171.876 133.717 172.007 133.216L172.246 132.31C172.747 132.442 173.26 132.143 173.392 131.642L175.302 124.39C175.434 123.889 175.136 123.376 174.635 123.244ZM150.06 124.526L151.493 119.087L173.25 124.818L171.817 130.258L150.06 124.526Z"/>
</mask>
<path d="M174.635 123.244L174.873 122.338C175.005 121.837 174.707 121.324 174.206 121.192C173.705 121.06 173.192 121.359 173.06 121.86L172.821 122.767L171.915 122.528L172.154 121.621C172.286 121.121 171.987 120.608 171.486 120.476C170.985 120.344 170.472 120.643 170.34 121.143L170.102 122.05L169.195 121.811L169.434 120.905C169.566 120.404 169.267 119.891 168.766 119.759C168.265 119.627 167.753 119.926 167.621 120.427L167.382 121.334L166.475 121.095L166.714 120.188C166.846 119.688 166.548 119.175 166.046 119.043C165.545 118.911 165.033 119.21 164.901 119.711L164.662 120.617L163.756 120.378L163.994 119.472C164.126 118.971 163.828 118.458 163.327 118.326C162.826 118.194 162.313 118.493 162.181 118.994L161.943 119.901L161.036 119.662L161.275 118.755C161.407 118.255 161.108 117.742 160.607 117.61C160.106 117.478 159.594 117.777 159.462 118.278L159.223 119.184L158.316 118.945L158.555 118.039C158.687 117.538 158.388 117.025 157.887 116.893C157.386 116.761 156.874 117.061 156.742 117.561L156.503 118.468L155.597 118.229L155.835 117.322C155.967 116.822 155.669 116.309 155.168 116.177C154.667 116.045 154.154 116.344 154.022 116.845L153.783 117.751L152.877 117.512L153.116 116.606C153.248 116.105 152.949 115.592 152.448 115.46C151.947 115.328 151.434 115.628 151.303 116.128L151.064 117.035C150.563 116.903 150.05 117.202 149.918 117.702L148.008 124.955C147.876 125.456 148.174 125.968 148.675 126.1L148.437 127.007C148.305 127.508 148.603 128.02 149.104 128.152C149.605 128.284 150.118 127.985 150.25 127.485L150.489 126.578L151.395 126.817L151.156 127.723C151.024 128.224 151.323 128.737 151.824 128.869C152.325 129.001 152.838 128.702 152.969 128.201L153.208 127.295L154.115 127.533L153.876 128.44C153.744 128.941 154.043 129.453 154.544 129.585C155.045 129.717 155.557 129.418 155.689 128.918L155.928 128.011L156.835 128.25L156.596 129.156C156.464 129.657 156.762 130.17 157.264 130.302C157.765 130.434 158.277 130.135 158.409 129.634L158.648 128.728L159.554 128.966L159.315 129.873C159.184 130.374 159.482 130.886 159.983 131.018C160.484 131.15 160.997 130.851 161.129 130.351L161.367 129.444L162.274 129.683L162.035 130.589C161.903 131.09 162.202 131.603 162.703 131.735C163.204 131.867 163.716 131.568 163.848 131.067L164.087 130.16L164.994 130.399L164.755 131.306C164.623 131.806 164.922 132.319 165.423 132.451C165.924 132.583 166.436 132.284 166.568 131.783L166.807 130.877L167.713 131.116L167.475 132.022C167.343 132.523 167.641 133.036 168.142 133.168C168.643 133.3 169.156 133.001 169.288 132.5L169.527 131.593L170.433 131.832L170.194 132.739C170.062 133.239 170.361 133.752 170.862 133.884C171.363 134.016 171.876 133.717 172.007 133.216L172.246 132.31C172.747 132.442 173.26 132.143 173.392 131.642L175.302 124.39C175.434 123.889 175.136 123.376 174.635 123.244ZM150.06 124.526L151.493 119.087L173.25 124.818L171.817 130.258L150.06 124.526Z" fill="#394F6F" stroke="white" stroke-width="0.6" mask="url(#path-5-inside-5_234_1547)"/>
<mask id="path-6-inside-6_234_1547" fill="white">
<path d="M160.275 107.828L158.125 115.987C157.994 116.487 158.292 117 158.793 117.132C159.294 117.264 159.807 116.965 159.939 116.464L161.849 109.212L166.913 110.546L168.525 113.311L167.191 118.375C167.059 118.876 167.358 119.388 167.859 119.52C168.36 119.652 168.872 119.353 169.004 118.853L170.437 113.413C170.501 113.173 170.466 112.917 170.34 112.702L168.337 109.266C168.212 109.051 168.007 108.895 167.766 108.832L161.42 107.16C160.919 107.028 160.407 107.327 160.275 107.828V107.828Z"/>
</mask>
<path d="M160.275 107.828L158.125 115.987C157.994 116.487 158.292 117 158.793 117.132C159.294 117.264 159.807 116.965 159.939 116.464L161.849 109.212L166.913 110.546L168.525 113.311L167.191 118.375C167.059 118.876 167.358 119.388 167.859 119.52C168.36 119.652 168.872 119.353 169.004 118.853L170.437 113.413C170.501 113.173 170.466 112.917 170.34 112.702L168.337 109.266C168.212 109.051 168.007 108.895 167.766 108.832L161.42 107.16C160.919 107.028 160.407 107.327 160.275 107.828V107.828Z" fill="#394F6F" stroke="white" stroke-width="0.6" mask="url(#path-6-inside-6_234_1547)"/>
<mask id="path-7-inside-7_234_1547" fill="white">
<path d="M156.552 114.603C157.053 114.735 157.566 114.435 157.698 113.935L159.847 105.776L166.193 107.447C166.694 107.579 167.207 107.28 167.339 106.78C167.47 106.279 167.172 105.766 166.671 105.634L159.418 103.724C158.917 103.592 158.405 103.891 158.273 104.391L155.885 113.457C155.753 113.958 156.051 114.471 156.552 114.603Z"/>
</mask>
<path d="M156.552 114.603C157.053 114.735 157.566 114.435 157.698 113.935L159.847 105.776L166.193 107.447C166.694 107.579 167.207 107.28 167.339 106.78C167.47 106.279 167.172 105.766 166.671 105.634L159.418 103.724C158.917 103.592 158.405 103.891 158.273 104.391L155.885 113.457C155.753 113.958 156.051 114.471 156.552 114.603Z" fill="#394F6F" stroke="white" stroke-width="0.6" mask="url(#path-7-inside-7_234_1547)"/>
<mask id="path-8-inside-8_234_1547" fill="white">
<path d="M166.574 113.365L162.948 112.409C162.447 112.277 161.934 112.576 161.802 113.077C161.67 113.578 161.969 114.09 162.47 114.222L166.096 115.178C166.597 115.31 167.11 115.011 167.242 114.51C167.373 114.009 167.075 113.497 166.574 113.365Z"/>
</mask>
<path d="M166.574 113.365L162.948 112.409C162.447 112.277 161.934 112.576 161.802 113.077C161.67 113.578 161.969 114.09 162.47 114.222L166.096 115.178C166.597 115.31 167.11 115.011 167.242 114.51C167.373 114.009 167.075 113.497 166.574 113.365Z" fill="#394F6F" stroke="white" stroke-width="0.6" mask="url(#path-8-inside-8_234_1547)"/>
<mask id="path-9-inside-9_234_1547" fill="white">
<path d="M165.857 116.084L162.231 115.129C161.73 114.997 161.217 115.296 161.085 115.797C160.954 116.297 161.252 116.81 161.753 116.942L165.379 117.897C165.88 118.029 166.393 117.73 166.525 117.23C166.657 116.729 166.358 116.216 165.857 116.084Z"/>
</mask>
<path d="M165.857 116.084L162.231 115.129C161.73 114.997 161.217 115.296 161.085 115.797C160.954 116.297 161.252 116.81 161.753 116.942L165.379 117.897C165.88 118.029 166.393 117.73 166.525 117.23C166.657 116.729 166.358 116.216 165.857 116.084Z" fill="#394F6F" stroke="white" stroke-width="0.6" mask="url(#path-9-inside-9_234_1547)"/>
</g>
<mask id="path-10-inside-10_234_1547" fill="white">
<path d="M174.24 62.5283L173.306 62.6113L172.392 52.3394C172.346 51.8233 171.891 51.4427 171.375 51.4886L169.151 51.6865L168.355 50.3951C168.249 50.2225 168.089 50.0888 167.9 50.0145L164.958 48.8567C165.241 48.2987 165.389 47.6744 165.332 47.0398C165.281 46.4661 165.094 45.9037 164.793 45.415L164.039 44.1906C164.029 44.1756 164.017 44.1631 164.007 44.1482C164.001 44.1385 163.994 44.1296 163.987 44.12C163.171 42.8335 161.951 41.8162 160.533 41.2578C160.259 41.1499 159.949 41.1775 159.698 41.3321C158.401 42.132 157.379 43.3488 156.804 44.7592C156.798 44.7696 156.793 44.7795 156.788 44.7901C156.782 44.8064 156.772 44.8211 156.765 44.8375L156.24 46.1747C156.028 46.7103 155.943 47.2968 155.994 47.8704C156.051 48.505 156.306 49.0933 156.683 49.5927L153.992 51.2518C153.819 51.3582 153.685 51.518 153.611 51.7066L153.056 53.1182L150.831 53.316C150.315 53.3619 149.935 53.8168 149.981 54.3329L150.894 64.6048L149.96 64.6879C149.444 64.7338 149.064 65.1886 149.11 65.7048C149.247 67.2496 150.616 68.3944 152.16 68.257L172.704 66.4297C174.249 66.2923 175.394 64.9238 175.257 63.379C175.211 62.8629 174.756 62.4824 174.24 62.5283ZM158.564 48.8431C158.165 48.5964 157.903 48.1703 157.862 47.7043C157.837 47.4197 157.879 47.1283 157.984 46.8625L158.415 45.7665C159.625 44.8007 161.217 44.6592 162.579 45.3962L163.197 46.3997C163.347 46.642 163.439 46.9215 163.465 47.2059C163.506 47.6719 163.323 48.1376 162.975 48.4508L160.916 50.3012L158.564 48.8431ZM155.241 52.6838L158.23 50.8419L160.527 52.2652C160.704 52.3754 160.906 52.4198 161.103 52.4023C161.3 52.3848 161.492 52.3053 161.647 52.1656L163.656 50.3595L166.923 51.6448L167.063 51.8722L161.103 52.4023L155.143 52.9324L155.241 52.6838ZM151.931 55.1006L170.608 53.4393L171.438 62.7775L152.762 64.4387L151.931 55.1006Z"/>
</mask>
<path d="M174.24 62.5283L173.306 62.6113L172.392 52.3394C172.346 51.8233 171.891 51.4427 171.375 51.4886L169.151 51.6865L168.355 50.3951C168.249 50.2225 168.089 50.0888 167.9 50.0145L164.958 48.8567C165.241 48.2987 165.389 47.6744 165.332 47.0398C165.281 46.4661 165.094 45.9037 164.793 45.415L164.039 44.1906C164.029 44.1756 164.017 44.1631 164.007 44.1482C164.001 44.1385 163.994 44.1296 163.987 44.12C163.171 42.8335 161.951 41.8162 160.533 41.2578C160.259 41.1499 159.949 41.1775 159.698 41.3321C158.401 42.132 157.379 43.3488 156.804 44.7592C156.798 44.7696 156.793 44.7795 156.788 44.7901C156.782 44.8064 156.772 44.8211 156.765 44.8375L156.24 46.1747C156.028 46.7103 155.943 47.2968 155.994 47.8704C156.051 48.505 156.306 49.0933 156.683 49.5927L153.992 51.2518C153.819 51.3582 153.685 51.518 153.611 51.7066L153.056 53.1182L150.831 53.316C150.315 53.3619 149.935 53.8168 149.981 54.3329L150.894 64.6048L149.96 64.6879C149.444 64.7338 149.064 65.1886 149.11 65.7048C149.247 67.2496 150.616 68.3944 152.16 68.257L172.704 66.4297C174.249 66.2923 175.394 64.9238 175.257 63.379C175.211 62.8629 174.756 62.4824 174.24 62.5283ZM158.564 48.8431C158.165 48.5964 157.903 48.1703 157.862 47.7043C157.837 47.4197 157.879 47.1283 157.984 46.8625L158.415 45.7665C159.625 44.8007 161.217 44.6592 162.579 45.3962L163.197 46.3997C163.347 46.642 163.439 46.9215 163.465 47.2059C163.506 47.6719 163.323 48.1376 162.975 48.4508L160.916 50.3012L158.564 48.8431ZM155.241 52.6838L158.23 50.8419L160.527 52.2652C160.704 52.3754 160.906 52.4198 161.103 52.4023C161.3 52.3848 161.492 52.3053 161.647 52.1656L163.656 50.3595L166.923 51.6448L167.063 51.8722L161.103 52.4023L155.143 52.9324L155.241 52.6838ZM151.931 55.1006L170.608 53.4393L171.438 62.7775L152.762 64.4387L151.931 55.1006Z" fill="#394F6F" stroke="white" stroke-width="0.6" mask="url(#path-10-inside-10_234_1547)"/>
<mask id="path-11-inside-11_234_1547" fill="white">
<path d="M158.303 55.7509C157.905 55.4186 157.315 55.4711 156.982 55.8683L154.43 58.919C154.098 59.3161 154.15 59.9071 154.547 60.2395L157.598 62.7917C157.797 62.9578 158.044 63.0278 158.283 63.0065C158.522 62.9852 158.752 62.8728 158.918 62.6742C159.251 62.277 159.198 61.6861 158.801 61.3537L156.469 59.403L158.42 57.0713C158.752 56.6741 158.7 56.0832 158.303 55.7509V55.7509Z"/>
</mask>
<path d="M158.303 55.7509C157.905 55.4186 157.315 55.4711 156.982 55.8683L154.43 58.919C154.098 59.3161 154.15 59.9071 154.547 60.2395L157.598 62.7917C157.797 62.9578 158.044 63.0278 158.283 63.0065C158.522 62.9852 158.752 62.8728 158.918 62.6742C159.251 62.277 159.198 61.6861 158.801 61.3537L156.469 59.403L158.42 57.0713C158.752 56.6741 158.7 56.0832 158.303 55.7509V55.7509Z" fill="#394F6F" stroke="white" stroke-width="0.6" mask="url(#path-11-inside-11_234_1547)"/>
<mask id="path-12-inside-12_234_1547" fill="white">
<path d="M165.773 55.0864C165.376 54.7541 164.785 54.8066 164.452 55.2038C164.12 55.601 164.172 56.1919 164.57 56.5243L166.901 58.475L164.951 60.8067C164.618 61.2039 164.671 61.7948 165.068 62.1272C165.267 62.2933 165.514 62.3632 165.753 62.342C165.992 62.3207 166.222 62.2082 166.389 62.0097L168.941 58.959C169.273 58.5618 169.221 57.9709 168.823 57.6385L165.773 55.0864Z"/>
</mask>
<path d="M165.773 55.0864C165.376 54.7541 164.785 54.8066 164.452 55.2038C164.12 55.601 164.172 56.1919 164.57 56.5243L166.901 58.475L164.951 60.8067C164.618 61.2039 164.671 61.7948 165.068 62.1272C165.267 62.2933 165.514 62.3632 165.753 62.342C165.992 62.3207 166.222 62.2082 166.389 62.0097L168.941 58.959C169.273 58.5618 169.221 57.9709 168.823 57.6385L165.773 55.0864Z" fill="#394F6F" stroke="white" stroke-width="0.6" mask="url(#path-12-inside-12_234_1547)"/>
<mask id="path-13-inside-13_234_1547" fill="white">
<path d="M162.585 55.1428C162.077 55.0226 161.577 55.3345 161.457 55.8378L160.088 61.6068C159.968 62.111 160.28 62.6164 160.783 62.7352C160.884 62.7593 160.985 62.766 161.083 62.7573C161.474 62.7225 161.816 62.4431 161.911 62.0402L163.28 56.2712C163.4 55.767 163.089 55.2616 162.585 55.1428Z"/>
</mask>
<path d="M162.585 55.1428C162.077 55.0226 161.577 55.3345 161.457 55.8378L160.088 61.6068C159.968 62.111 160.28 62.6164 160.783 62.7352C160.884 62.7593 160.985 62.766 161.083 62.7573C161.474 62.7225 161.816 62.4431 161.911 62.0402L163.28 56.2712C163.4 55.767 163.089 55.2616 162.585 55.1428Z" fill="#394F6F" stroke="white" stroke-width="0.6" mask="url(#path-13-inside-13_234_1547)"/>
<g clip-path="url(#clip2_234_1547)">
<mask id="path-14-inside-14_234_1547" fill="white">
<path d="M29.5905 71.5355L28.6581 71.6336L27.3822 59.5131C27.3279 58.9978 26.867 58.6247 26.3517 58.6789L5.84001 60.8382C5.32517 60.8924 4.95157 61.3534 5.00582 61.8687L6.28178 73.9893L5.34944 74.0874C4.83459 74.1416 4.46099 74.6026 4.51524 75.1179C4.67761 76.6603 6.06435 77.7829 7.60674 77.6205L28.1184 75.4612C29.6608 75.2988 30.7834 73.9121 30.621 72.3697C30.5667 71.8544 30.1058 71.4812 29.5905 71.5355ZM6.96866 62.6048L25.6156 60.6418L26.7934 71.8299L8.14648 73.793L6.96866 62.6048Z"/>
</mask>
<path d="M29.5905 71.5355L28.6581 71.6336L27.3822 59.5131C27.3279 58.9978 26.867 58.6247 26.3517 58.6789L5.84001 60.8382C5.32517 60.8924 4.95157 61.3534 5.00582 61.8687L6.28178 73.9893L5.34944 74.0874C4.83459 74.1416 4.46099 74.6026 4.51524 75.1179C4.67761 76.6603 6.06435 77.7829 7.60674 77.6205L28.1184 75.4612C29.6608 75.2988 30.7834 73.9121 30.621 72.3697C30.5667 71.8544 30.1058 71.4812 29.5905 71.5355ZM6.96866 62.6048L25.6156 60.6418L26.7934 71.8299L8.14648 73.793L6.96866 62.6048Z" fill="#394F6F" stroke="white" stroke-width="0.6" mask="url(#path-14-inside-14_234_1547)"/>
<mask id="path-15-inside-15_234_1547" fill="white">
<path d="M20.7433 64.0821L16.8176 62.61C16.5416 62.5066 16.232 62.5392 15.9837 62.6978L12.4506 64.9551C12.1513 65.1468 11.9858 65.4901 12.023 65.8434L12.4156 69.5728C12.4528 69.926 12.6861 70.2274 13.0187 70.3525L16.9444 71.8246C17.0825 71.8763 17.2288 71.8941 17.3718 71.8791C17.5147 71.864 17.6542 71.8161 17.7784 71.7368L21.3115 69.4795C21.6107 69.2878 21.7762 68.9445 21.739 68.5913L21.3464 64.8619C21.3093 64.5086 21.0759 64.2073 20.7433 64.0821ZM19.8137 68.2112L17.1639 69.9042L14.2196 68.8001L13.9483 66.2234L16.5981 64.5304L19.5424 65.6345L19.8137 68.2112Z"/>
</mask>
<path d="M20.7433 64.0821L16.8176 62.61C16.5416 62.5066 16.232 62.5392 15.9837 62.6978L12.4506 64.9551C12.1513 65.1468 11.9858 65.4901 12.023 65.8434L12.4156 69.5728C12.4528 69.926 12.6861 70.2274 13.0187 70.3525L16.9444 71.8246C17.0825 71.8763 17.2288 71.8941 17.3718 71.8791C17.5147 71.864 17.6542 71.8161 17.7784 71.7368L21.3115 69.4795C21.6107 69.2878 21.7762 68.9445 21.739 68.5913L21.3464 64.8619C21.3093 64.5086 21.0759 64.2073 20.7433 64.0821ZM19.8137 68.2112L17.1639 69.9042L14.2196 68.8001L13.9483 66.2234L16.5981 64.5304L19.5424 65.6345L19.8137 68.2112Z" fill="#394F6F" stroke="white" stroke-width="0.6" mask="url(#path-15-inside-15_234_1547)"/>
<mask id="path-16-inside-16_234_1547" fill="white">
<path d="M11.1389 57.4523L13.936 57.1579C14.4508 57.1037 14.8244 56.6427 14.7702 56.1274L14.2794 51.4656C14.2252 50.9503 13.7638 50.5772 13.2489 50.6314L10.4519 50.9259C9.93704 50.9801 9.56343 51.4411 9.61768 51.9564L10.1084 56.6181C10.1627 57.1334 10.6241 57.5065 11.1389 57.4523ZM11.5805 52.6924L12.5129 52.5943L12.8073 55.3913L11.875 55.4895L11.5805 52.6924Z"/>
</mask>
<path d="M11.1389 57.4523L13.936 57.1579C14.4508 57.1037 14.8244 56.6427 14.7702 56.1274L14.2794 51.4656C14.2252 50.9503 13.7638 50.5772 13.2489 50.6314L10.4519 50.9259C9.93704 50.9801 9.56343 51.4411 9.61768 51.9564L10.1084 56.6181C10.1627 57.1334 10.6241 57.5065 11.1389 57.4523ZM11.5805 52.6924L12.5129 52.5943L12.8073 55.3913L11.875 55.4895L11.5805 52.6924Z" fill="#394F6F" stroke="white" stroke-width="0.6" mask="url(#path-16-inside-16_234_1547)"/>
<mask id="path-17-inside-17_234_1547" fill="white">
<path d="M23.26 56.1763L26.0571 55.8819C26.5724 55.8276 26.9455 55.3667 26.8913 54.8514L26.4005 50.1896C26.3463 49.6743 25.8853 49.3012 25.37 49.3554L22.573 49.6499C22.0577 49.7041 21.6845 50.1651 21.7388 50.6804L22.2295 55.3421C22.2838 55.8574 22.7447 56.2306 23.26 56.1763ZM23.7016 51.4164L24.634 51.3183L24.9284 54.1153L23.9961 54.2135L23.7016 51.4164Z"/>
</mask>
<path d="M23.26 56.1763L26.0571 55.8819C26.5724 55.8276 26.9455 55.3667 26.8913 54.8514L26.4005 50.1896C26.3463 49.6743 25.8853 49.3012 25.37 49.3554L22.573 49.6499C22.0577 49.7041 21.6845 50.1651 21.7388 50.6804L22.2295 55.3421C22.2838 55.8574 22.7447 56.2306 23.26 56.1763ZM23.7016 51.4164L24.634 51.3183L24.9284 54.1153L23.9961 54.2135L23.7016 51.4164Z" fill="#394F6F" stroke="white" stroke-width="0.6" mask="url(#path-17-inside-17_234_1547)"/>
<mask id="path-18-inside-18_234_1547" fill="white">
<path d="M4.51469 57.207C4.56894 57.7223 5.03035 58.0954 5.54519 58.0412L7.40988 57.8449C7.92473 57.7907 8.29833 57.3297 8.24408 56.8144C8.18983 56.2991 7.72842 55.926 7.21358 55.9802L6.82098 52.2508C6.76673 51.7355 6.30532 51.3624 5.79048 51.4166L4.85813 51.5148C4.34329 51.569 3.96968 52.03 4.02393 52.5453C4.07818 53.0606 4.53959 53.4337 5.05443 53.3795L5.34889 56.1765C4.83404 56.2307 4.46044 56.6917 4.51469 57.207Z"/>
</mask>
<path d="M4.51469 57.207C4.56894 57.7223 5.03035 58.0954 5.54519 58.0412L7.40988 57.8449C7.92473 57.7907 8.29833 57.3297 8.24408 56.8144C8.18983 56.2991 7.72842 55.926 7.21358 55.9802L6.82098 52.2508C6.76673 51.7355 6.30532 51.3624 5.79048 51.4166L4.85813 51.5148C4.34329 51.569 3.96968 52.03 4.02393 52.5453C4.07818 53.0606 4.53959 53.4337 5.05443 53.3795L5.34889 56.1765C4.83404 56.2307 4.46044 56.6917 4.51469 57.207Z" fill="#394F6F" stroke="white" stroke-width="0.6" mask="url(#path-18-inside-18_234_1547)"/>
<mask id="path-19-inside-19_234_1547" fill="white">
<path d="M16.6338 55.931C16.6881 56.4463 17.149 56.8194 17.6643 56.7652L19.529 56.5689C20.0443 56.5146 20.4175 56.0537 20.3632 55.5384C20.309 55.0231 19.848 54.65 19.3327 54.7042L18.9401 50.9748C18.8859 50.4595 18.4249 50.0864 17.9096 50.1406L16.9773 50.2388C16.462 50.293 16.0888 50.754 16.1431 51.2693C16.1973 51.7846 16.6583 52.1577 17.1736 52.1035L17.468 54.9005C16.9527 54.9548 16.5796 55.4157 16.6338 55.931Z"/>
</mask>
<path d="M16.6338 55.931C16.6881 56.4463 17.149 56.8194 17.6643 56.7652L19.529 56.5689C20.0443 56.5146 20.4175 56.0537 20.3632 55.5384C20.309 55.0231 19.848 54.65 19.3327 54.7042L18.9401 50.9748C18.8859 50.4595 18.4249 50.0864 17.9096 50.1406L16.9773 50.2388C16.462 50.293 16.0888 50.754 16.1431 51.2693C16.1973 51.7846 16.6583 52.1577 17.1736 52.1035L17.468 54.9005C16.9527 54.9548 16.5796 55.4157 16.6338 55.931Z" fill="#394F6F" stroke="white" stroke-width="0.6" mask="url(#path-19-inside-19_234_1547)"/>
</g>
<g clip-path="url(#clip3_234_1547)">
<mask id="path-20-inside-20_234_1547" fill="white">
<path d="M67.103 164.468C67.9647 161.493 66.2507 158.371 63.2767 157.503C60.3027 156.635 57.1782 158.345 56.3047 161.316C56.3039 161.319 56.3026 161.321 56.3018 161.324C56.3016 161.325 56.3012 161.326 56.301 161.327C55.432 164.304 57.1472 167.433 60.1248 168.302C63.1024 169.171 66.2314 167.456 67.1004 164.479C67.1007 164.478 67.1008 164.477 67.1011 164.476C67.1019 164.473 67.1022 164.471 67.103 164.468ZM65.4271 162.538C64.4675 161.945 63.4484 161.478 62.3849 161.153C62.6565 160.594 62.9773 160.057 63.3434 159.543C64.5234 160.119 65.3008 161.264 65.4271 162.538V162.538ZM61.3356 159.176C61.0245 159.68 60.7516 160.201 60.5133 160.737C59.9339 160.65 59.3478 160.599 58.7557 160.591C59.3865 159.789 60.3207 159.277 61.3356 159.176V159.176ZM57.9845 162.48C58.6151 162.448 59.2404 162.467 59.8577 162.538C59.5599 163.61 59.405 164.72 59.3885 165.848C58.3826 165.056 57.8359 163.785 57.9845 162.48V162.48ZM61.2782 166.619C61.2141 165.348 61.3495 164.094 61.6987 162.899C62.8938 163.247 64.0244 163.808 65.0609 164.545C64.367 165.965 62.8483 166.798 61.2782 166.619Z"/>
</mask>
<path d="M67.103 164.468C67.9647 161.493 66.2507 158.371 63.2767 157.503C60.3027 156.635 57.1782 158.345 56.3047 161.316C56.3039 161.319 56.3026 161.321 56.3018 161.324C56.3016 161.325 56.3012 161.326 56.301 161.327C55.432 164.304 57.1472 167.433 60.1248 168.302C63.1024 169.171 66.2314 167.456 67.1004 164.479C67.1007 164.478 67.1008 164.477 67.1011 164.476C67.1019 164.473 67.1022 164.471 67.103 164.468ZM65.4271 162.538C64.4675 161.945 63.4484 161.478 62.3849 161.153C62.6565 160.594 62.9773 160.057 63.3434 159.543C64.5234 160.119 65.3008 161.264 65.4271 162.538V162.538ZM61.3356 159.176C61.0245 159.68 60.7516 160.201 60.5133 160.737C59.9339 160.65 59.3478 160.599 58.7557 160.591C59.3865 159.789 60.3207 159.277 61.3356 159.176V159.176ZM57.9845 162.48C58.6151 162.448 59.2404 162.467 59.8577 162.538C59.5599 163.61 59.405 164.72 59.3885 165.848C58.3826 165.056 57.8359 163.785 57.9845 162.48V162.48ZM61.2782 166.619C61.2141 165.348 61.3495 164.094 61.6987 162.899C62.8938 163.247 64.0244 163.808 65.0609 164.545C64.367 165.965 62.8483 166.798 61.2782 166.619Z" fill="#394F6F" stroke="white" stroke-width="0.6" mask="url(#path-20-inside-20_234_1547)"/>
<mask id="path-21-inside-21_234_1547" fill="white">
<path d="M60.4638 153.752C60.9612 153.898 61.4813 153.613 61.6264 153.115C61.7716 152.618 61.4865 152.098 60.9891 151.952C57.5158 150.939 53.8645 152.94 52.8508 156.414C52.7057 156.911 52.9907 157.431 53.4881 157.576C53.9855 157.721 54.5056 157.436 54.6508 156.939C55.3748 154.458 57.9828 153.028 60.4638 153.752Z"/>
</mask>
<path d="M60.4638 153.752C60.9612 153.898 61.4813 153.613 61.6264 153.115C61.7716 152.618 61.4865 152.098 60.9891 151.952C57.5158 150.939 53.8645 152.94 52.8508 156.414C52.7057 156.911 52.9907 157.431 53.4881 157.576C53.9855 157.721 54.5056 157.436 54.6508 156.939C55.3748 154.458 57.9828 153.028 60.4638 153.752Z" fill="#394F6F" stroke="white" stroke-width="0.6" mask="url(#path-21-inside-21_234_1547)"/>
<mask id="path-22-inside-22_234_1547" fill="white">
<path d="M59.6761 156.452C60.1735 156.598 60.6935 156.312 60.8387 155.815C60.9838 155.318 60.6988 154.798 60.2014 154.652C58.216 154.073 56.1304 155.216 55.5509 157.202C55.4058 157.699 55.6908 158.219 56.1882 158.364C56.6856 158.509 57.2057 158.224 57.3508 157.727C57.6404 156.735 58.6839 156.163 59.6761 156.452Z"/>
</mask>
<path d="M59.6761 156.452C60.1735 156.598 60.6935 156.312 60.8387 155.815C60.9838 155.318 60.6988 154.798 60.2014 154.652C58.216 154.073 56.1304 155.216 55.5509 157.202C55.4058 157.699 55.6908 158.219 56.1882 158.364C56.6856 158.509 57.2057 158.224 57.3508 157.727C57.6404 156.735 58.6839 156.163 59.6761 156.452Z" fill="#394F6F" stroke="white" stroke-width="0.6" mask="url(#path-22-inside-22_234_1547)"/>
<mask id="path-23-inside-23_234_1547" fill="white">
<path d="M46.741 143.888L48.5409 144.413C48.3958 144.91 48.6808 145.43 49.1782 145.575L50.9781 146.101C51.4755 146.246 51.9956 145.961 52.1408 145.463L53.9407 145.989C54.4381 146.134 54.9581 145.849 55.1033 145.352L56.4166 140.852C56.5617 140.354 56.2767 139.834 55.7793 139.689L48.5796 137.588C48.0822 137.443 47.5622 137.728 47.417 138.225L46.1037 142.725C45.9586 143.222 46.2436 143.742 46.741 143.888ZM48.9543 139.65L54.354 141.226L53.566 143.926L48.1663 142.35L48.9543 139.65Z"/>
</mask>
<path d="M46.741 143.888L48.5409 144.413C48.3958 144.91 48.6808 145.43 49.1782 145.575L50.9781 146.101C51.4755 146.246 51.9956 145.961 52.1408 145.463L53.9407 145.989C54.4381 146.134 54.9581 145.849 55.1033 145.352L56.4166 140.852C56.5617 140.354 56.2767 139.834 55.7793 139.689L48.5796 137.588C48.0822 137.443 47.5622 137.728 47.417 138.225L46.1037 142.725C45.9586 143.222 46.2436 143.742 46.741 143.888ZM48.9543 139.65L54.354 141.226L53.566 143.926L48.1663 142.35L48.9543 139.65Z" fill="#394F6F" stroke="white" stroke-width="0.6" mask="url(#path-23-inside-23_234_1547)"/>
<mask id="path-24-inside-24_234_1547" fill="white">
<path d="M62.0399 148.353L70.1394 150.717C70.6369 150.862 71.1569 150.577 71.3021 150.079C71.4472 149.582 71.1622 149.062 70.6648 148.917L71.7154 145.317C71.8606 144.82 71.5755 144.3 71.0781 144.154L64.7784 142.316C64.281 142.171 63.761 142.456 63.6158 142.953L62.5652 146.553C62.0678 146.408 61.5477 146.693 61.4026 147.19C61.2574 147.688 61.5425 148.208 62.0399 148.353ZM65.1531 144.378L69.6528 145.692L68.8649 148.391L64.3651 147.078L65.1531 144.378Z"/>
</mask>
<path d="M62.0399 148.353L70.1394 150.717C70.6369 150.862 71.1569 150.577 71.3021 150.079C71.4472 149.582 71.1622 149.062 70.6648 148.917L71.7154 145.317C71.8606 144.82 71.5755 144.3 71.0781 144.154L64.7784 142.316C64.281 142.171 63.761 142.456 63.6158 142.953L62.5652 146.553C62.0678 146.408 61.5477 146.693 61.4026 147.19C61.2574 147.688 61.5425 148.208 62.0399 148.353ZM65.1531 144.378L69.6528 145.692L68.8649 148.391L64.3651 147.078L65.1531 144.378Z" fill="#394F6F" stroke="white" stroke-width="0.6" mask="url(#path-24-inside-24_234_1547)"/>
<mask id="path-25-inside-25_234_1547" fill="white">
<path d="M49.8503 163.351L50.9009 159.751C51.0461 159.253 50.7611 158.733 50.2636 158.588L43.964 156.75C43.4666 156.604 42.9465 156.889 42.8014 157.387L41.7507 160.987C41.2533 160.841 40.7333 161.127 40.5881 161.624C40.4429 162.121 40.728 162.641 41.2254 162.787L49.325 165.151C49.8224 165.296 50.3424 165.011 50.4876 164.513C50.6328 164.016 50.3477 163.496 49.8503 163.351ZM43.5506 161.512L44.3386 158.812L48.8384 160.125L48.0504 162.825L43.5506 161.512Z"/>
</mask>
<path d="M49.8503 163.351L50.9009 159.751C51.0461 159.253 50.7611 158.733 50.2636 158.588L43.964 156.75C43.4666 156.604 42.9465 156.889 42.8014 157.387L41.7507 160.987C41.2533 160.841 40.7333 161.127 40.5881 161.624C40.4429 162.121 40.728 162.641 41.2254 162.787L49.325 165.151C49.8224 165.296 50.3424 165.011 50.4876 164.513C50.6328 164.016 50.3477 163.496 49.8503 163.351ZM43.5506 161.512L44.3386 158.812L48.8384 160.125L48.0504 162.825L43.5506 161.512Z" fill="#394F6F" stroke="white" stroke-width="0.6" mask="url(#path-25-inside-25_234_1547)"/>
</g>
<g clip-path="url(#clip4_234_1547)">
<mask id="path-26-inside-26_234_1547" fill="white">
<path d="M76.6379 26.099L75.7148 26.263L73.7473 15.1864C73.6566 14.6762 73.17 14.3367 72.6602 14.4273L70.8141 14.7552C70.3044 14.8458 69.9644 15.3321 70.0551 15.8422C70.1457 16.3524 70.6324 16.6919 71.1421 16.6013L72.0651 16.4374L73.8687 26.5909L55.4077 29.8702L53.6041 19.7166L54.5272 19.5527C55.0369 19.4621 55.3769 18.9758 55.2863 18.4656C55.1956 17.9555 54.7089 17.616 54.1992 17.7066L52.3531 18.0345C51.8434 18.125 51.5034 18.6113 51.594 19.1215L53.5616 30.1981L52.6386 30.3621C52.1288 30.4526 51.7888 30.9389 51.8795 31.4491C52.1507 32.9761 53.6135 33.9976 55.1405 33.7263L75.4476 30.1191C76.9746 29.8479 77.9961 28.3851 77.7249 26.8581C77.6343 26.3479 77.1476 26.0085 76.6379 26.099Z"/>
</mask>
<path d="M76.6379 26.099L75.7148 26.263L73.7473 15.1864C73.6566 14.6762 73.17 14.3367 72.6602 14.4273L70.8141 14.7552C70.3044 14.8458 69.9644 15.3321 70.0551 15.8422C70.1457 16.3524 70.6324 16.6919 71.1421 16.6013L72.0651 16.4374L73.8687 26.5909L55.4077 29.8702L53.6041 19.7166L54.5272 19.5527C55.0369 19.4621 55.3769 18.9758 55.2863 18.4656C55.1956 17.9555 54.7089 17.616 54.1992 17.7066L52.3531 18.0345C51.8434 18.125 51.5034 18.6113 51.594 19.1215L53.5616 30.1981L52.6386 30.3621C52.1288 30.4526 51.7888 30.9389 51.8795 31.4491C52.1507 32.9761 53.6135 33.9976 55.1405 33.7263L75.4476 30.1191C76.9746 29.8479 77.9961 28.3851 77.7249 26.8581C77.6343 26.3479 77.1476 26.0085 76.6379 26.099Z" fill="#394F6F" stroke="white" stroke-width="0.6" mask="url(#path-26-inside-26_234_1547)"/>
<mask id="path-27-inside-27_234_1547" fill="white">
<path d="M55.1251 16.8421L57.5231 19.7153C57.6835 19.9063 57.9136 20.0262 58.1625 20.0481C58.411 20.0681 58.6592 19.9915 58.8494 19.8293L59.3254 19.4258C59.6397 19.5699 59.9649 19.6888 60.2994 19.7819L60.4113 20.4121C60.5019 20.9223 60.9886 21.2617 61.4983 21.1712L65.158 20.5211C65.6678 20.4305 66.0078 19.9442 65.9171 19.4341L65.8052 18.804C66.0872 18.6014 66.3516 18.3778 66.597 18.1342L67.1829 18.3491C67.4169 18.434 67.6755 18.4216 67.9031 18.318C68.1292 18.2118 68.3039 18.0198 68.3887 17.7853L69.6505 14.2621C69.8237 13.7766 69.574 13.2426 69.0902 13.0654L68.4993 12.8486C68.483 12.6692 68.4597 12.4938 68.4293 12.3226C68.3989 12.1514 68.3603 11.9787 68.3141 11.8047L68.7941 11.3977C69.1873 11.0647 69.2378 10.4774 68.908 10.0813L66.5101 7.20813C66.3497 7.01714 66.1196 6.89719 65.8707 6.87532C65.6231 6.85513 65.3748 6.93179 65.1838 7.09408L64.7078 7.49761C64.3935 7.35348 64.0682 7.23463 63.7338 7.1415L63.6218 6.51134C63.5312 6.00117 63.0445 5.66171 62.5348 5.75225L58.8751 6.40233C58.3654 6.49287 58.0254 6.97917 58.116 7.48934L58.2279 8.11942C57.9459 8.32205 57.6816 8.54563 57.4362 8.78919L56.8503 8.57428C56.6154 8.48764 56.3555 8.5004 56.1301 8.60547C55.9039 8.71162 55.7292 8.90358 55.6444 9.13811L54.3825 12.6615C54.2094 13.1469 54.4591 13.6809 54.9429 13.8581L55.5338 14.0749C55.5502 14.2542 55.5735 14.4296 55.6039 14.6008C55.6343 14.772 55.6729 14.9447 55.7191 15.1187L55.239 15.5257C54.8459 15.8587 54.7954 16.4461 55.1251 16.8421V16.8421ZM57.6807 15.1031C57.5734 14.8163 57.4982 14.5442 57.45 14.2729C57.4018 14.0016 57.3787 13.7201 57.3806 13.414C57.3826 13.0193 57.1365 12.6651 56.7655 12.5293L56.4616 12.4177L57.0914 10.66L57.3824 10.7674C57.7592 10.9049 58.1806 10.7902 58.4325 10.4786C58.7917 10.0371 59.2264 9.66882 59.725 9.38402C60.069 9.18808 60.2525 8.79652 60.1832 8.40626L60.126 8.08448L61.9396 7.76233L61.9968 8.0841C62.0661 8.47446 62.3731 8.77881 62.7637 8.84426C63.3298 8.93994 63.8648 9.13588 64.3539 9.42654C64.6972 9.63151 65.1331 9.59407 65.4392 9.33602L65.6755 9.13505L66.872 10.5683L66.6252 10.7778C66.3237 11.0331 66.2147 11.4505 66.3524 11.8202C66.4596 12.1071 66.5349 12.3792 66.5831 12.6505C66.6313 12.9217 66.6543 13.2032 66.6524 13.5094C66.6505 13.904 66.8966 14.2582 67.2676 14.3941L67.5714 14.5056L66.9417 16.2633L66.6507 16.156C66.2759 16.0198 65.8531 16.134 65.6006 16.4448C65.2414 16.8861 64.8066 17.2543 64.3081 17.5391C63.9641 17.7351 63.7806 18.1266 63.85 18.5169L63.9072 18.8389L62.0936 19.1611L62.0364 18.8393C61.9671 18.449 61.6601 18.1446 61.2695 18.0792C60.7034 17.9835 60.1683 17.7875 59.6792 17.4969C59.3345 17.2912 58.8989 17.3286 58.5939 17.5874L58.3577 17.7884L57.1611 16.3551L57.408 16.1458C57.7094 15.8903 57.8184 15.473 57.6807 15.1031V15.1031Z"/>
</mask>
<path d="M55.1251 16.8421L57.5231 19.7153C57.6835 19.9063 57.9136 20.0262 58.1625 20.0481C58.411 20.0681 58.6592 19.9915 58.8494 19.8293L59.3254 19.4258C59.6397 19.5699 59.9649 19.6888 60.2994 19.7819L60.4113 20.4121C60.5019 20.9223 60.9886 21.2617 61.4983 21.1712L65.158 20.5211C65.6678 20.4305 66.0078 19.9442 65.9171 19.4341L65.8052 18.804C66.0872 18.6014 66.3516 18.3778 66.597 18.1342L67.1829 18.3491C67.4169 18.434 67.6755 18.4216 67.9031 18.318C68.1292 18.2118 68.3039 18.0198 68.3887 17.7853L69.6505 14.2621C69.8237 13.7766 69.574 13.2426 69.0902 13.0654L68.4993 12.8486C68.483 12.6692 68.4597 12.4938 68.4293 12.3226C68.3989 12.1514 68.3603 11.9787 68.3141 11.8047L68.7941 11.3977C69.1873 11.0647 69.2378 10.4774 68.908 10.0813L66.5101 7.20813C66.3497 7.01714 66.1196 6.89719 65.8707 6.87532C65.6231 6.85513 65.3748 6.93179 65.1838 7.09408L64.7078 7.49761C64.3935 7.35348 64.0682 7.23463 63.7338 7.1415L63.6218 6.51134C63.5312 6.00117 63.0445 5.66171 62.5348 5.75225L58.8751 6.40233C58.3654 6.49287 58.0254 6.97917 58.116 7.48934L58.2279 8.11942C57.9459 8.32205 57.6816 8.54563 57.4362 8.78919L56.8503 8.57428C56.6154 8.48764 56.3555 8.5004 56.1301 8.60547C55.9039 8.71162 55.7292 8.90358 55.6444 9.13811L54.3825 12.6615C54.2094 13.1469 54.4591 13.6809 54.9429 13.8581L55.5338 14.0749C55.5502 14.2542 55.5735 14.4296 55.6039 14.6008C55.6343 14.772 55.6729 14.9447 55.7191 15.1187L55.239 15.5257C54.8459 15.8587 54.7954 16.4461 55.1251 16.8421V16.8421ZM57.6807 15.1031C57.5734 14.8163 57.4982 14.5442 57.45 14.2729C57.4018 14.0016 57.3787 13.7201 57.3806 13.414C57.3826 13.0193 57.1365 12.6651 56.7655 12.5293L56.4616 12.4177L57.0914 10.66L57.3824 10.7674C57.7592 10.9049 58.1806 10.7902 58.4325 10.4786C58.7917 10.0371 59.2264 9.66882 59.725 9.38402C60.069 9.18808 60.2525 8.79652 60.1832 8.40626L60.126 8.08448L61.9396 7.76233L61.9968 8.0841C62.0661 8.47446 62.3731 8.77881 62.7637 8.84426C63.3298 8.93994 63.8648 9.13588 64.3539 9.42654C64.6972 9.63151 65.1331 9.59407 65.4392 9.33602L65.6755 9.13505L66.872 10.5683L66.6252 10.7778C66.3237 11.0331 66.2147 11.4505 66.3524 11.8202C66.4596 12.1071 66.5349 12.3792 66.5831 12.6505C66.6313 12.9217 66.6543 13.2032 66.6524 13.5094C66.6505 13.904 66.8966 14.2582 67.2676 14.3941L67.5714 14.5056L66.9417 16.2633L66.6507 16.156C66.2759 16.0198 65.8531 16.134 65.6006 16.4448C65.2414 16.8861 64.8066 17.2543 64.3081 17.5391C63.9641 17.7351 63.7806 18.1266 63.85 18.5169L63.9072 18.8389L62.0936 19.1611L62.0364 18.8393C61.9671 18.449 61.6601 18.1446 61.2695 18.0792C60.7034 17.9835 60.1683 17.7875 59.6792 17.4969C59.3345 17.2912 58.8989 17.3286 58.5939 17.5874L58.3577 17.7884L57.1611 16.3551L57.408 16.1458C57.7094 15.8903 57.8184 15.473 57.6807 15.1031V15.1031Z" fill="#394F6F" stroke="white" stroke-width="0.6" mask="url(#path-27-inside-27_234_1547)"/>
<mask id="path-28-inside-28_234_1547" fill="white">
<path d="M62.3468 22.2516C61.9222 21.9551 61.3381 22.0588 61.0415 22.4834L59.5233 24.6575C59.2268 25.0821 59.3306 25.6662 59.7552 25.9628L61.9292 27.4809C62.1416 27.6291 62.3937 27.6773 62.6299 27.6353C62.8661 27.5934 63.0862 27.4613 63.2345 27.249C63.531 26.8244 63.4272 26.2403 63.0026 25.9437L61.5972 24.9623L62.5787 23.5568C62.8752 23.1322 62.7715 22.5481 62.3468 22.2516V22.2516Z"/>
</mask>
<path d="M62.3468 22.2516C61.9222 21.9551 61.3381 22.0588 61.0415 22.4834L59.5233 24.6575C59.2268 25.0821 59.3306 25.6662 59.7552 25.9628L61.9292 27.4809C62.1416 27.6291 62.3937 27.6773 62.6299 27.6353C62.8661 27.5934 63.0862 27.4613 63.2345 27.249C63.531 26.8244 63.4272 26.2403 63.0026 25.9437L61.5972 24.9623L62.5787 23.5568C62.8752 23.1322 62.7715 22.5481 62.3468 22.2516V22.2516Z" fill="#394F6F" stroke="white" stroke-width="0.6" mask="url(#path-28-inside-28_234_1547)"/>
<mask id="path-29-inside-29_234_1547" fill="white">
<path d="M65.6203 26.8251C65.8326 26.9733 66.0848 27.0216 66.321 26.9796C66.5572 26.9376 66.7773 26.8055 66.9255 26.5932L68.4437 24.4192C68.7402 23.9946 68.6365 23.4105 68.2119 23.1139L66.0378 21.5957C65.6132 21.2992 65.0291 21.403 64.7325 21.8276C64.4359 22.2522 64.5398 22.8363 64.9644 23.1329L66.3699 24.1144L65.3884 25.5199C65.0919 25.9445 65.1957 26.5286 65.6203 26.8251Z"/>
</mask>
<path d="M65.6203 26.8251C65.8326 26.9733 66.0848 27.0216 66.321 26.9796C66.5572 26.9376 66.7773 26.8055 66.9255 26.5932L68.4437 24.4192C68.7402 23.9946 68.6365 23.4105 68.2119 23.1139L66.0378 21.5957C65.6132 21.2992 65.0291 21.403 64.7325 21.8276C64.4359 22.2522 64.5398 22.8363 64.9644 23.1329L66.3699 24.1144L65.3884 25.5199C65.0919 25.9445 65.1957 26.5286 65.6203 26.8251Z" fill="#394F6F" stroke="white" stroke-width="0.6" mask="url(#path-29-inside-29_234_1547)"/>
<mask id="path-30-inside-30_234_1547" fill="white">
<path d="M62.5068 16.2309C64.0338 15.9596 65.0553 14.4968 64.7841 12.9698C64.5129 11.4428 63.0501 10.4213 61.5231 10.6926C59.9961 10.9638 58.9746 12.4266 59.2458 13.9536C59.517 15.4806 60.9798 16.5021 62.5068 16.2309ZM61.851 12.5387C62.3599 12.4483 62.8475 12.7884 62.938 13.2977C63.0285 13.8071 62.6878 14.2944 62.1789 14.3848C61.67 14.4752 61.1824 14.135 61.0919 13.6257C61.0014 13.1163 61.3421 12.6291 61.851 12.5387Z"/>
</mask>
<path d="M62.5068 16.2309C64.0338 15.9596 65.0553 14.4968 64.7841 12.9698C64.5129 11.4428 63.0501 10.4213 61.5231 10.6926C59.9961 10.9638 58.9746 12.4266 59.2458 13.9536C59.517 15.4806 60.9798 16.5021 62.5068 16.2309ZM61.851 12.5387C62.3599 12.4483 62.8475 12.7884 62.938 13.2977C63.0285 13.8071 62.6878 14.2944 62.1789 14.3848C61.67 14.4752 61.1824 14.135 61.0919 13.6257C61.0014 13.1163 61.3421 12.6291 61.851 12.5387Z" fill="#394F6F" stroke="white" stroke-width="0.6" mask="url(#path-30-inside-30_234_1547)"/>
</g>
<g clip-path="url(#clip5_234_1547)">
<mask id="path-31-inside-31_234_1547" fill="white">
<path d="M35.5872 115.184C36.0967 115.092 36.4352 114.604 36.3431 114.094L34.8429 105.791C34.7508 105.281 34.2631 104.943 33.7537 105.035L29.9706 105.719C29.1623 103.694 27.0115 102.443 24.7839 102.845C22.5562 103.248 20.979 105.172 20.9306 107.352L19.5923 107.594C18.4422 105.585 16.1178 104.411 13.7131 104.846C10.6607 105.397 8.62635 108.329 9.17785 111.381C9.61231 113.786 11.5257 115.552 13.8099 115.927L14.0517 117.265C12.0263 118.074 10.7755 120.224 11.1781 122.452C11.5806 124.68 13.5047 126.256 15.685 126.305L16.3685 130.088C16.4606 130.598 16.9483 130.936 17.4577 130.844L25.7608 129.344C26.2702 129.252 26.6088 128.765 26.5167 128.255C26.2409 126.728 27.2581 125.263 28.7843 124.987C30.3105 124.711 31.7763 125.728 32.0521 127.255C32.1442 127.764 32.6319 128.102 33.1413 128.01L37.7541 127.177C38.2636 127.085 38.6021 126.598 38.51 126.088L37.6766 121.475C37.5844 120.965 37.0968 120.627 36.5873 120.719C35.0611 120.995 33.5953 119.978 33.3196 118.451C33.0438 116.925 34.061 115.459 35.5872 115.184ZM11.023 111.048C10.6552 109.012 12.0117 107.058 14.0465 106.691C16.0813 106.323 18.0358 107.679 18.4035 109.714C18.7712 111.749 17.4148 113.704 15.38 114.071C13.3452 114.439 11.3907 113.083 11.023 111.048ZM35.9814 122.638L36.4982 125.499L33.6377 126.015C32.8293 123.99 30.6785 122.739 28.4509 123.142C26.2234 123.544 24.6461 125.468 24.5977 127.649L18.0469 128.832L17.3802 125.142C17.2881 124.632 16.8004 124.294 16.2909 124.386C14.7647 124.662 13.2989 123.645 13.0232 122.118C12.7474 120.592 13.7646 119.126 15.2908 118.851C15.8003 118.759 16.1388 118.271 16.0467 117.761L15.7133 115.916C18.7657 115.365 20.8001 112.433 20.2486 109.381L22.0937 109.047C22.6032 108.955 22.9417 108.468 22.8496 107.958C22.5739 106.432 23.591 104.966 25.1172 104.69C26.6434 104.415 28.1092 105.432 28.385 106.958C28.4771 107.468 28.9648 107.806 29.4742 107.714L33.1645 107.047L34.348 113.598C32.3227 114.407 31.0719 116.557 31.4745 118.785C31.877 121.013 33.8011 122.589 35.9814 122.638Z"/>
</mask>
<path d="M35.5872 115.184C36.0967 115.092 36.4352 114.604 36.3431 114.094L34.8429 105.791C34.7508 105.281 34.2631 104.943 33.7537 105.035L29.9706 105.719C29.1623 103.694 27.0115 102.443 24.7839 102.845C22.5562 103.248 20.979 105.172 20.9306 107.352L19.5923 107.594C18.4422 105.585 16.1178 104.411 13.7131 104.846C10.6607 105.397 8.62635 108.329 9.17785 111.381C9.61231 113.786 11.5257 115.552 13.8099 115.927L14.0517 117.265C12.0263 118.074 10.7755 120.224 11.1781 122.452C11.5806 124.68 13.5047 126.256 15.685 126.305L16.3685 130.088C16.4606 130.598 16.9483 130.936 17.4577 130.844L25.7608 129.344C26.2702 129.252 26.6088 128.765 26.5167 128.255C26.2409 126.728 27.2581 125.263 28.7843 124.987C30.3105 124.711 31.7763 125.728 32.0521 127.255C32.1442 127.764 32.6319 128.102 33.1413 128.01L37.7541 127.177C38.2636 127.085 38.6021 126.598 38.51 126.088L37.6766 121.475C37.5844 120.965 37.0968 120.627 36.5873 120.719C35.0611 120.995 33.5953 119.978 33.3196 118.451C33.0438 116.925 34.061 115.459 35.5872 115.184ZM11.023 111.048C10.6552 109.012 12.0117 107.058 14.0465 106.691C16.0813 106.323 18.0358 107.679 18.4035 109.714C18.7712 111.749 17.4148 113.704 15.38 114.071C13.3452 114.439 11.3907 113.083 11.023 111.048ZM35.9814 122.638L36.4982 125.499L33.6377 126.015C32.8293 123.99 30.6785 122.739 28.4509 123.142C26.2234 123.544 24.6461 125.468 24.5977 127.649L18.0469 128.832L17.3802 125.142C17.2881 124.632 16.8004 124.294 16.2909 124.386C14.7647 124.662 13.2989 123.645 13.0232 122.118C12.7474 120.592 13.7646 119.126 15.2908 118.851C15.8003 118.759 16.1388 118.271 16.0467 117.761L15.7133 115.916C18.7657 115.365 20.8001 112.433 20.2486 109.381L22.0937 109.047C22.6032 108.955 22.9417 108.468 22.8496 107.958C22.5739 106.432 23.591 104.966 25.1172 104.69C26.6434 104.415 28.1092 105.432 28.385 106.958C28.4771 107.468 28.9648 107.806 29.4742 107.714L33.1645 107.047L34.348 113.598C32.3227 114.407 31.0719 116.557 31.4745 118.785C31.877 121.013 33.8011 122.589 35.9814 122.638Z" fill="#394F6F" stroke="white" stroke-width="0.6" mask="url(#path-31-inside-31_234_1547)"/>
<mask id="path-32-inside-32_234_1547" fill="white">
<path d="M15.969 112.059L15.8023 111.137L16.7249 110.97C17.2343 110.878 17.5729 110.391 17.4807 109.881C17.3886 109.371 16.9009 109.033 16.3915 109.125L15.4689 109.292L15.3022 108.369C15.2101 107.859 14.7224 107.521 14.213 107.613C13.7036 107.705 13.365 108.193 13.4571 108.702L13.6238 109.625L12.7012 109.792C12.1918 109.884 11.8532 110.371 11.9454 110.881C12.0375 111.391 12.5252 111.729 13.0346 111.637L13.9572 111.47L14.1239 112.393C14.216 112.903 14.7037 113.241 15.2131 113.149C15.7226 113.057 16.0611 112.569 15.969 112.059Z"/>
</mask>
<path d="M15.969 112.059L15.8023 111.137L16.7249 110.97C17.2343 110.878 17.5729 110.391 17.4807 109.881C17.3886 109.371 16.9009 109.033 16.3915 109.125L15.4689 109.292L15.3022 108.369C15.2101 107.859 14.7224 107.521 14.213 107.613C13.7036 107.705 13.365 108.193 13.4571 108.702L13.6238 109.625L12.7012 109.792C12.1918 109.884 11.8532 110.371 11.9454 110.881C12.0375 111.391 12.5252 111.729 13.0346 111.637L13.9572 111.47L14.1239 112.393C14.216 112.903 14.7037 113.241 15.2131 113.149C15.7226 113.057 16.0611 112.569 15.969 112.059Z" fill="#394F6F" stroke="white" stroke-width="0.6" mask="url(#path-32-inside-32_234_1547)"/>
</g>
<g clip-path="url(#clip6_234_1547)">
<mask id="path-33-inside-33_234_1547" fill="white">
<path d="M131.984 2.41879L108.142 7.48731C107.635 7.59496 107.312 8.09289 107.42 8.59926L112.488 32.4415C112.596 32.9478 113.094 33.2712 113.6 33.1635L137.442 28.095C137.949 27.9873 138.272 27.4894 138.164 26.9831L133.096 3.14085C132.988 2.63448 132.491 2.31104 131.984 2.41879ZM109.449 9.12638L131.457 4.44775L132.431 9.03278L110.423 13.7114L109.449 9.12638ZM136.135 26.4559L114.127 31.1346L110.813 15.5454L132.821 10.8668L136.135 26.4559Z"/>
</mask>
<path d="M131.984 2.41879L108.142 7.48731C107.635 7.59496 107.312 8.09289 107.42 8.59926L112.488 32.4415C112.596 32.9478 113.094 33.2712 113.6 33.1635L137.442 28.095C137.949 27.9873 138.272 27.4894 138.164 26.9831L133.096 3.14085C132.988 2.63448 132.491 2.31104 131.984 2.41879ZM109.449 9.12638L131.457 4.44775L132.431 9.03278L110.423 13.7114L109.449 9.12638ZM136.135 26.4559L114.127 31.1346L110.813 15.5454L132.821 10.8668L136.135 26.4559Z" fill="#394F6F" stroke="white" stroke-width="0.6" mask="url(#path-33-inside-33_234_1547)"/>
<mask id="path-34-inside-34_234_1547" fill="white">
<path d="M115.182 27.0766L119.767 26.1019C120.274 25.9942 120.597 25.4963 120.489 24.9899L118.54 15.8199C118.432 15.3135 117.934 14.9901 117.428 15.0978L112.843 16.0725C112.336 16.1802 112.013 16.6781 112.121 17.1845L114.07 26.3545C114.178 26.8609 114.676 27.1843 115.182 27.0766ZM114.15 17.7116L116.901 17.1268L118.46 24.4628L115.709 25.0476L114.15 17.7116Z"/>
</mask>
<path d="M115.182 27.0766L119.767 26.1019C120.274 25.9942 120.597 25.4963 120.489 24.9899L118.54 15.8199C118.432 15.3135 117.934 14.9901 117.428 15.0978L112.843 16.0725C112.336 16.1802 112.013 16.6781 112.121 17.1845L114.07 26.3545C114.178 26.8609 114.676 27.1843 115.182 27.0766ZM114.15 17.7116L116.901 17.1268L118.46 24.4628L115.709 25.0476L114.15 17.7116Z" fill="#394F6F" stroke="white" stroke-width="0.6" mask="url(#path-34-inside-34_234_1547)"/>
<mask id="path-35-inside-35_234_1547" fill="white">
<path d="M122.518 25.5172L133.522 23.1778C134.029 23.0701 134.352 22.5723 134.244 22.0659L132.295 12.8958C132.187 12.3894 131.69 12.066 131.183 12.1737L120.179 14.5131C119.672 14.6207 119.349 15.1186 119.457 15.625L121.406 24.7951C121.514 25.3015 122.012 25.6248 122.518 25.5172ZM121.486 16.1521L130.656 14.2027L132.215 21.5388L123.045 23.4882L121.486 16.1521Z"/>
</mask>
<path d="M122.518 25.5172L133.522 23.1778C134.029 23.0701 134.352 22.5723 134.244 22.0659L132.295 12.8958C132.187 12.3894 131.69 12.066 131.183 12.1737L120.179 14.5131C119.672 14.6207 119.349 15.1186 119.457 15.625L121.406 24.7951C121.514 25.3015 122.012 25.6248 122.518 25.5172ZM121.486 16.1521L130.656 14.2027L132.215 21.5388L123.045 23.4882L121.486 16.1521Z" fill="#394F6F" stroke="white" stroke-width="0.6" mask="url(#path-35-inside-35_234_1547)"/>
<mask id="path-36-inside-36_234_1547" fill="white">
<path d="M115.766 29.8277L120.351 28.853C120.857 28.7453 121.181 28.2474 121.073 27.741C120.965 27.2346 120.467 26.9113 119.961 27.0189L115.376 27.9937C114.87 28.1013 114.546 28.5992 114.654 29.1056C114.762 29.612 115.26 29.9353 115.766 29.8277Z"/>
</mask>
<path d="M115.766 29.8277L120.351 28.853C120.857 28.7453 121.181 28.2474 121.073 27.741C120.965 27.2346 120.467 26.9113 119.961 27.0189L115.376 27.9937C114.87 28.1013 114.546 28.5992 114.654 29.1056C114.762 29.612 115.26 29.9353 115.766 29.8277Z" fill="#394F6F" stroke="white" stroke-width="0.6" mask="url(#path-36-inside-36_234_1547)"/>
<mask id="path-37-inside-37_234_1547" fill="white">
<path d="M123.102 28.2681L126.77 27.4883C127.277 27.3806 127.6 26.8827 127.492 26.3764C127.384 25.87 126.887 25.5466 126.38 25.6543L122.712 26.4341C122.206 26.5417 121.882 27.0397 121.99 27.546C122.098 28.0524 122.595 28.3757 123.102 28.2681Z"/>
</mask>
<path d="M123.102 28.2681L126.77 27.4883C127.277 27.3806 127.6 26.8827 127.492 26.3764C127.384 25.87 126.887 25.5466 126.38 25.6543L122.712 26.4341C122.206 26.5417 121.882 27.0397 121.99 27.546C122.098 28.0524 122.595 28.3757 123.102 28.2681Z" fill="#394F6F" stroke="white" stroke-width="0.6" mask="url(#path-37-inside-37_234_1547)"/>
<mask id="path-38-inside-38_234_1547" fill="white">
<path d="M133.717 24.0947L129.132 25.0695C128.625 25.1772 128.302 25.675 128.41 26.1814C128.517 26.6878 129.015 27.0112 129.522 26.9035L134.107 25.9288C134.614 25.821 134.936 25.3232 134.829 24.8168C134.721 24.3104 134.224 23.987 133.717 24.0947Z"/>
</mask>
<path d="M133.717 24.0947L129.132 25.0695C128.625 25.1772 128.302 25.675 128.41 26.1814C128.517 26.6878 129.015 27.0112 129.522 26.9035L134.107 25.9288C134.614 25.821 134.936 25.3232 134.829 24.8168C134.721 24.3104 134.224 23.987 133.717 24.0947Z" fill="#394F6F" stroke="white" stroke-width="0.6" mask="url(#path-38-inside-38_234_1547)"/>
</g>
<defs>
<clipPath id="clip0_234_1547">
<rect width="30" height="30" fill="white" transform="translate(103 146.401) rotate(-12.3205)"/>
</clipPath>
<clipPath id="clip1_234_1547">
<rect width="30" height="30" fill="white" transform="translate(152.643 100) rotate(14.7585)"/>
</clipPath>
<clipPath id="clip2_234_1547">
<rect width="30" height="30" fill="white" transform="translate(0 50.1409) rotate(-6.00958)"/>
</clipPath>
<clipPath id="clip3_234_1547">
<rect width="30" height="30" fill="white" transform="translate(46.4043 135) rotate(16.2703)"/>
</clipPath>
<clipPath id="clip4_234_1547">
<rect width="30" height="30" fill="white" transform="translate(48 4)"/>
</clipPath>
<clipPath id="clip5_234_1547">
<rect width="30" height="30" fill="white" transform="translate(6 104.334) rotate(-10.2415)"/>
</clipPath>
<clipPath id="clip6_234_1547">
<rect width="30" height="30" fill="white" transform="translate(105 6.23816) rotate(-12.0016)"/>
</clipPath>
</defs>
</svg>
