<svg width="20" height="20" viewBox="0 0 20 20" fill="none" xmlns="http://www.w3.org/2000/svg">
<g clip-path="url(#clip0_220_7358)">
<path d="M16.4336 13.9295C15.1093 16.0941 12.7229 17.5384 9.99938 17.5384C9.85129 17.5384 9.70441 17.534 9.55832 17.5255C5.84645 15.534 3.48066 11.8671 2.46094 10.0024V9.99994C2.46094 7.37822 3.79937 5.06877 5.83035 3.71826C6.87219 4.99271 8.93055 6.93756 11.6618 8.49975C12.7318 10.4172 14.2597 12.3786 16.4336 13.9295Z" fill="#FCB44D"/>
<path d="M16.4416 13.9341C15.1007 16.1321 12.6661 17.5784 9.88824 17.5377C9.77797 17.5361 9.66852 17.5321 9.55988 17.5257C9.04641 17.2504 8.55867 16.9426 8.09668 16.6122C8.27695 16.6255 8.45926 16.6319 8.64277 16.6319C8.90758 16.6319 9.16914 16.6183 9.42707 16.5913C9.89871 16.5426 10.083 15.9539 9.72406 15.6436C8.79891 14.8432 7.86691 13.9756 6.94621 13.0549C5.33613 11.4448 3.88141 9.79208 2.67578 8.21259C2.9293 7.17075 3.39934 6.21298 4.03555 5.39087C5.32125 7.21017 7.01785 9.19571 8.9116 11.0895C10.3808 12.5587 11.875 13.8854 13.318 15.007C14.0513 14.4263 14.6738 13.7128 15.1495 12.9024C15.5526 13.2617 15.9828 13.6073 16.4416 13.9341Z" fill="#FCA62F"/>
<path d="M10.38 17.5292C10.2541 17.5352 10.1269 17.5384 9.99938 17.5384C5.83602 17.5384 2.46094 14.1634 2.46094 9.99997C2.46094 9.72833 2.47543 9.45993 2.50359 9.19556C3.32613 10.8221 5.95149 15.3959 10.3793 17.5288C10.3796 17.5288 10.3796 17.5292 10.38 17.5292Z" fill="#915EB2"/>
<path d="M10.3798 17.5292C10.2168 17.5372 10.0522 17.54 9.88641 17.5376C8.09004 17.511 6.44578 16.8563 5.16406 15.7834C6.2043 16.3255 7.3866 16.6317 8.64094 16.6317C8.69766 16.6317 8.75402 16.6309 8.81035 16.6297C9.30531 16.9605 9.82805 17.2635 10.3789 17.5287C10.3794 17.5288 10.3794 17.5292 10.3798 17.5292Z" fill="#804EA0"/>
<path d="M11.2054 8.71619C8.35828 7.09244 6.52004 5.21197 5.51562 3.93955C6.50598 3.20553 7.68223 2.70857 8.96109 2.53271C9.22426 3.88439 9.84074 6.26268 11.2054 8.71619Z" fill="#FB6A3B"/>
<path d="M17.5376 10.0001C17.5376 11.6017 17.0378 13.087 16.1859 14.3079C11.0672 10.7767 9.43699 4.97714 8.96094 2.53288C9.30016 2.48581 9.64707 2.46167 9.99918 2.46167C10.4849 2.46167 10.9602 2.50753 11.4201 2.59526C11.9408 4.28257 13.4793 7.82425 17.5259 9.57999C17.5336 9.71917 17.5376 9.85921 17.5376 10.0001Z" fill="#FEE7C9"/>
<path d="M17.538 10.0338C17.5308 11.6293 17.0354 13.1022 16.1932 14.3126C16.1907 14.311 16.1887 14.3094 16.1863 14.3078C15.7276 13.9915 15.297 13.6567 14.8926 13.3078C15.705 12.1046 16.1799 10.6547 16.1799 9.09329C16.1799 9.02087 16.1787 8.94884 16.1767 8.8772C16.5924 9.13313 17.0411 9.36935 17.5264 9.57942C17.5348 9.72954 17.5389 9.88126 17.538 10.0338Z" fill="#FFD597"/>
<path d="M17.5375 9.93509C12.9701 8.14638 11.4228 4.1154 10.9785 2.52466C14.6586 3.00149 17.5057 6.1327 17.5375 9.93509Z" fill="#A176BD"/>
<path d="M16.1784 9.29217C16.1804 9.22619 16.1812 9.15979 16.1812 9.09338C16.1812 6.76982 15.1296 4.69178 13.4766 3.30908C15.8725 4.55615 17.5148 7.05275 17.5389 9.93525C17.0516 9.74447 16.5989 9.52799 16.1784 9.29217Z" fill="#915EB2"/>
<path d="M17.0274 12.7323C16.8589 13.167 16.6481 13.5894 16.3956 13.9927C17.5033 15.5236 18.0267 16.6307 17.7045 16.9529C17.0585 17.5989 13.2533 14.8418 9.20576 10.7943C5.15823 6.74672 2.40112 2.94157 3.04713 2.29555C3.36936 1.97332 4.47635 2.49672 6.00729 3.60438C6.41061 3.35184 6.83295 3.14118 7.26764 2.97262C3.96311 0.530472 1.23233 -0.599645 0.31635 0.316293C-1.0565 1.68914 2.16635 7.13739 7.51447 12.4855C12.8626 17.8336 18.3109 21.0565 19.6837 19.6836C20.5997 18.7677 19.4696 16.0369 17.0274 12.7323Z" fill="#FEE7C9"/>
<path d="M19.9638 19.1368C19.9171 19.3589 19.8246 19.5428 19.6837 19.6836C18.3107 21.0562 12.8628 17.8337 7.51429 12.4857C2.1662 7.13715 -1.05634 1.68926 0.316278 0.316211C0.457137 0.175352 0.641043 0.0828125 0.863153 0.0361328C0.454715 1.97938 3.54245 6.85906 8.34163 11.6583C13.1408 16.4575 18.0205 19.5452 19.9638 19.1368Z" fill="#FCC16D"/>
</g>
<defs>
<clipPath id="clip0_220_7358">
<rect width="20" height="20" fill="white"/>
</clipPath>
</defs>
</svg>
