<svg width="182" height="175" viewBox="0 0 182 175" fill="none" xmlns="http://www.w3.org/2000/svg">
<g clip-path="url(#clip0_1467_270)">
<path d="M174.358 59.2955L173.86 59.3398L172.311 41.9085C172.275 41.5123 172.084 41.1462 171.779 40.891C171.474 40.6357 171.08 40.512 170.684 40.5473L169.19 40.6801C168.793 40.7153 168.427 40.9065 168.172 41.2116C167.917 41.5167 167.793 41.9107 167.828 42.307L167.969 43.8928C167.805 43.8479 167.633 43.8319 167.463 43.8454L165.969 43.9782C165.799 43.9948 165.633 44.0412 165.479 44.1141L165.117 40.0382C165.082 39.6419 164.89 39.2759 164.585 39.0206C164.28 38.7653 163.886 38.6417 163.49 38.6769L158.509 39.1196C158.113 39.1549 157.747 39.3461 157.492 39.6512C157.237 39.9563 157.113 40.3503 157.148 40.7466L157.378 43.3284C157.213 43.2836 157.042 43.2676 156.871 43.281L154.879 43.4581C154.682 43.4756 154.49 43.5323 154.315 43.6247C154.218 43.3949 154.064 43.1931 153.869 43.0376C153.674 42.8821 153.442 42.7779 153.197 42.7343L151.718 42.4762C151.524 42.4421 151.325 42.4466 151.133 42.4895C150.94 42.5323 150.758 42.6126 150.597 42.7258C150.436 42.8391 150.298 42.9829 150.193 43.1493C150.087 43.3156 150.015 43.5011 149.981 43.6953L148.304 53.2814L147.829 56.0082L147.052 60.4409C146.982 60.8331 147.073 61.2367 147.303 61.5616C147.337 61.6082 147.375 61.6531 147.415 61.6952C147.029 61.7425 146.677 61.9376 146.432 62.2394C146.188 62.5412 146.07 62.9261 146.103 63.3132L146.192 64.3093C146.227 64.7056 146.418 65.0716 146.723 65.3269C147.028 65.5822 147.422 65.7058 147.818 65.6706L148.316 65.6263L148.449 67.1204C148.485 67.5167 148.676 67.8827 148.981 68.138C149.286 68.3933 149.68 68.5169 150.076 68.4817L152.068 68.3046C152.465 68.2694 152.831 68.0782 153.086 67.7731C153.341 67.468 153.465 67.0739 153.43 66.6777L153.297 65.1836L169.234 63.7668L169.367 65.2609C169.402 65.6572 169.593 66.0232 169.898 66.2785C170.203 66.5338 170.597 66.6575 170.994 66.6222L172.986 66.4451C173.382 66.4099 173.748 66.2187 174.003 65.9136C174.259 65.6085 174.382 65.2145 174.347 64.8182L174.214 63.3241L174.712 63.2798C175.109 63.2446 175.475 63.0534 175.73 62.7483C175.985 62.4432 176.109 62.0492 176.074 61.6529L175.985 60.6568C175.95 60.2606 175.759 59.8945 175.454 59.6392C175.148 59.3839 174.754 59.2603 174.358 59.2955ZM166.888 59.9596L166.578 56.4734L169.068 56.252L169.378 59.7383L166.888 59.9596ZM159.915 60.5795L159.738 58.5873L165.715 58.056L165.892 60.0482L159.915 60.5795ZM155.931 60.9336L155.798 59.4395L158.786 59.1739L158.919 60.668L155.931 60.9336ZM151.457 61.3314C151.467 61.2929 151.48 61.256 151.487 61.2162L153.784 48.0812L154.935 61.0222L151.457 61.3314ZM149.688 51.1871L150.107 48.7907L152.569 49.2213L151.364 56.1192L148.901 55.6885L149.688 51.1871ZM158.366 43.1482L164.342 42.6169L165.626 57.06L159.65 57.5912L158.366 43.1482ZM172.377 53.95L169.887 54.1713L169.267 47.1988L171.757 46.9775L172.377 53.95ZM168.935 54.7579L168.979 55.2559L166.489 55.4773L165.958 49.5009L168.448 49.2795L168.935 54.7579ZM158.698 58.1778L155.71 58.4435L154.691 46.9886L157.679 46.723L158.698 58.1778ZM170.02 55.6654L169.975 55.1674L172.466 54.946L172.864 59.4284L170.374 59.6497L170.02 55.6654ZM168.824 42.2185C168.813 42.0864 168.854 41.955 168.939 41.8533C169.024 41.7516 169.146 41.6879 169.278 41.6762L170.772 41.5433C170.904 41.5316 171.036 41.5728 171.137 41.6579C171.239 41.743 171.303 41.865 171.315 41.9971L171.669 45.9814L169.179 46.2028L168.824 42.2185ZM166.058 44.9743L167.552 44.8415C167.684 44.8297 167.815 44.8709 167.917 44.956C168.018 45.0411 168.082 45.1631 168.094 45.2952L168.36 48.2834L165.869 48.5048L165.604 45.5166C165.592 45.3845 165.633 45.2532 165.718 45.1515C165.803 45.0498 165.925 44.986 166.058 44.9743ZM158.598 40.1157L163.578 39.673C163.71 39.6612 163.842 39.7024 163.943 39.7875C164.045 39.8726 164.109 39.9947 164.121 40.1267L164.253 41.6208L158.277 42.1521L158.144 40.658C158.132 40.5259 158.174 40.3946 158.259 40.2929C158.344 40.1912 158.466 40.1275 158.598 40.1157ZM154.968 44.4542L156.96 44.2771C157.092 44.2654 157.223 44.3066 157.325 44.3917C157.427 44.4768 157.491 44.5988 157.502 44.7309L157.591 45.7269L154.603 45.9926L154.514 44.9965C154.502 44.8644 154.544 44.7331 154.629 44.6314C154.714 44.5297 154.836 44.4659 154.968 44.4542ZM150.968 43.8675C150.991 43.737 151.065 43.6209 151.173 43.5447C151.282 43.4685 151.416 43.4385 151.547 43.4612L153.025 43.7193C153.09 43.7306 153.152 43.7546 153.207 43.7898C153.263 43.825 153.311 43.8708 153.348 43.9245C153.386 43.9783 153.413 44.0389 153.427 44.103C153.441 44.1671 153.443 44.2334 153.432 44.2981L152.744 48.2384L150.281 47.8073L150.968 43.8675ZM148.04 60.6131L148.728 56.6732L151.192 57.1037L150.502 61.0438C150.491 61.1085 150.467 61.1704 150.432 61.2259C150.397 61.2813 150.351 61.3293 150.297 61.3671C150.243 61.4048 150.182 61.4316 150.118 61.4458C150.054 61.4601 149.988 61.4616 149.923 61.4502L148.444 61.1921C148.38 61.1808 148.318 61.1568 148.262 61.1216C148.207 61.0864 148.159 61.0406 148.121 60.9868C148.084 60.9331 148.057 60.8724 148.042 60.8083C148.028 60.7442 148.027 60.678 148.038 60.6133L148.04 60.6131ZM152.434 66.7662C152.445 66.8983 152.404 67.0297 152.319 67.1314C152.234 67.2331 152.112 67.2968 151.98 67.3085L149.988 67.4856C149.856 67.4974 149.724 67.4562 149.623 67.3711C149.521 67.286 149.457 67.164 149.445 67.0319L149.313 65.5378L152.301 65.2721L152.434 66.7662ZM173.351 64.9068C173.363 65.0388 173.322 65.1702 173.237 65.2719C173.151 65.3736 173.029 65.4373 172.897 65.4491L170.905 65.6262C170.773 65.6379 170.642 65.5967 170.54 65.5116C170.438 65.4265 170.375 65.3045 170.363 65.1724L170.23 63.6783L173.218 63.4126L173.351 64.9068ZM175.078 61.7414C175.089 61.8735 175.048 62.0049 174.963 62.1066C174.878 62.2083 174.756 62.272 174.624 62.2838L147.73 64.6745C147.598 64.6863 147.466 64.645 147.365 64.5599C147.263 64.4749 147.199 64.3528 147.188 64.2208L147.099 63.2247C147.087 63.0926 147.129 62.9612 147.214 62.8595C147.299 62.7578 147.421 62.6941 147.553 62.6824L174.447 60.2916C174.579 60.2799 174.71 60.3211 174.812 60.4062C174.914 60.4913 174.977 60.6133 174.989 60.7454L175.078 61.7414Z" fill="#394F6F"/>
<path d="M160.081 45.5055L163.069 45.2399C163.201 45.2281 163.323 45.1644 163.408 45.0627C163.493 44.961 163.534 44.8296 163.523 44.6976C163.511 44.5655 163.447 44.4435 163.346 44.3584C163.244 44.2733 163.112 44.2321 162.98 44.2438L159.992 44.5094C159.86 44.5212 159.738 44.5849 159.653 44.6866C159.568 44.7883 159.527 44.9197 159.538 45.0517C159.55 45.1838 159.614 45.3058 159.716 45.3909C159.817 45.476 159.949 45.5173 160.081 45.5055ZM160.258 47.4977L163.246 47.232C163.378 47.2203 163.5 47.1565 163.585 47.0548C163.67 46.9531 163.712 46.8218 163.7 46.6897C163.688 46.5576 163.624 46.4356 163.523 46.3505C163.421 46.2654 163.29 46.2242 163.157 46.2359L160.169 46.5016C160.037 46.5133 159.915 46.5771 159.83 46.6788C159.745 46.7805 159.704 46.9118 159.716 47.0439C159.727 47.176 159.791 47.298 159.893 47.3831C159.994 47.4682 160.126 47.5094 160.258 47.4977Z" fill="#394F6F"/>
</g>
<g clip-path="url(#clip1_1467_270)">
<path d="M133.001 160.931L133.538 160.813C133.926 160.727 134.264 160.491 134.478 160.156C134.693 159.822 134.766 159.416 134.684 159.028C134.599 158.639 134.363 158.3 134.028 158.085C133.693 157.871 133.287 157.798 132.898 157.883L126.458 159.289C126.334 159.091 126.166 158.925 125.967 158.804C125.768 158.683 125.544 158.61 125.311 158.59C125.795 157.587 125.93 156.45 125.694 155.362L124.701 150.813C125.244 150.066 125.543 149.17 125.556 148.247C125.569 147.323 125.296 146.419 124.775 145.657C125.523 144.815 125.947 143.735 125.97 142.609C125.969 142.543 125.955 142.479 125.928 142.418C125.902 142.358 125.864 142.304 125.817 142.258C124.59 141.073 122.728 141.003 121.727 141.066C120.516 141.128 119.337 141.475 118.286 142.079C118.224 142.117 118.165 142.157 118.107 142.2C117.301 142.007 116.461 142.007 115.655 142.201C114.842 142.361 114.077 142.71 113.425 143.22C113.355 143.209 113.285 143.193 113.215 143.185C112.006 143.074 110.788 143.25 109.661 143.7C108.725 144.058 107.063 144.898 106.442 146.488C106.418 146.549 106.406 146.614 106.407 146.68C106.409 146.745 106.423 146.81 106.449 146.87C106.939 147.885 107.775 148.691 108.806 149.144C108.65 150.054 108.779 150.99 109.176 151.824C109.573 152.658 110.218 153.348 111.023 153.8L112.017 158.349C112.257 159.437 112.853 160.413 113.711 161.124C113.508 161.238 113.334 161.398 113.204 161.592C113.074 161.785 112.99 162.006 112.96 162.237L110.428 162.79C109.69 162.951 108.993 163.263 108.381 163.706C107.769 164.148 107.255 164.712 106.87 165.362C106.485 166.012 106.239 166.734 106.145 167.484C106.052 168.233 106.114 168.994 106.328 169.718C106.747 171.066 107.66 172.205 108.884 172.907C110.108 173.609 111.552 173.822 112.926 173.504L135.245 168.629C135.633 168.543 135.971 168.306 136.185 167.972C136.4 167.638 136.473 167.232 136.391 166.844C136.306 166.455 136.07 166.116 135.735 165.901C135.4 165.686 134.994 165.613 134.605 165.698L134.068 165.816C133.14 164.367 132.762 162.634 133.001 160.931ZM133.707 159.241C133.735 159.373 133.709 159.511 133.633 159.622C133.599 159.677 133.554 159.724 133.501 159.761C133.448 159.797 133.388 159.823 133.325 159.836L126.975 161.223L126.761 160.246L133.111 158.859C133.241 158.831 133.377 158.856 133.488 158.927C133.6 158.999 133.678 159.112 133.707 159.241ZM126.104 161.925C126.133 162.055 126.108 162.19 126.037 162.302C125.965 162.413 125.852 162.492 125.722 162.52C125.593 162.549 125.457 162.524 125.346 162.453C125.234 162.381 125.156 162.268 125.127 162.139L124.701 160.185C124.672 160.055 124.697 159.92 124.768 159.808C124.84 159.696 124.953 159.618 125.082 159.589C125.212 159.561 125.347 159.586 125.459 159.657C125.571 159.729 125.649 159.842 125.678 159.971L126.104 161.925ZM118.182 163.144L117.968 162.167L121.876 161.313L122.09 162.29L118.182 163.144ZM115.908 162.105C115.879 161.975 115.904 161.84 115.975 161.728C116.047 161.617 116.16 161.538 116.29 161.51C116.419 161.482 116.555 161.506 116.666 161.577C116.778 161.649 116.856 161.762 116.885 161.892L117.312 163.846C117.34 163.975 117.315 164.111 117.244 164.222C117.172 164.334 117.059 164.412 116.93 164.441C116.8 164.469 116.665 164.445 116.553 164.373C116.441 164.301 116.363 164.188 116.335 164.059L115.908 162.105ZM115.95 153.479C117.461 155.624 118.261 155.45 118.535 155.39C118.81 155.33 119.61 155.155 120.089 152.575C120.447 152.656 120.813 152.692 121.18 152.682C121.653 153.607 121.986 154.597 122.168 155.62C122.45 156.894 122.44 158.215 122.138 159.485C121.928 159.714 121.795 160.002 121.756 160.31C121.725 160.317 121.696 160.329 121.665 160.336L117.755 161.19C117.724 161.197 117.693 161.198 117.662 161.204C117.498 160.941 117.256 160.734 116.97 160.614C116.166 159.586 115.605 158.389 115.329 157.113C115.069 156.107 114.959 155.069 115.003 154.031C115.34 153.887 115.659 153.702 115.95 153.479ZM116.686 152.778C117.108 152.273 117.416 151.682 117.587 151.046C118.007 151.553 118.533 151.962 119.128 152.245C118.857 153.775 118.469 154.381 118.322 154.413C118.176 154.445 117.57 154.057 116.686 152.778ZM122.747 160.611C122.718 160.482 122.743 160.346 122.814 160.235C122.886 160.123 122.999 160.045 123.128 160.016C123.258 159.988 123.393 160.012 123.505 160.084C123.617 160.155 123.695 160.268 123.724 160.398L124.15 162.352C124.179 162.482 124.154 162.617 124.083 162.729C124.011 162.84 123.898 162.919 123.769 162.947C123.639 162.975 123.503 162.951 123.392 162.88C123.28 162.808 123.202 162.695 123.173 162.565L122.747 160.611ZM124.717 155.575C124.852 156.196 124.835 156.841 124.67 157.455C124.505 158.069 124.196 158.635 123.768 159.105C123.603 159.043 123.429 159.01 123.254 159.008C123.44 157.811 123.403 156.59 123.145 155.406C122.955 154.413 122.648 153.445 122.23 152.524C122.828 152.363 123.386 152.08 123.869 151.691L124.717 155.575ZM121.803 151.605C121.127 151.753 120.422 151.697 119.778 151.444C119.133 151.191 118.578 150.753 118.183 150.184C117.788 149.616 117.57 148.943 117.557 148.251C117.544 147.559 117.737 146.879 118.11 146.296C118.484 145.713 119.022 145.255 119.657 144.978C120.291 144.701 120.994 144.619 121.675 144.741C122.356 144.863 122.986 145.185 123.485 145.665C123.983 146.145 124.328 146.763 124.476 147.439C124.673 148.346 124.502 149.294 124.001 150.075C123.5 150.856 122.71 151.406 121.803 151.605ZM121.791 142.063C122.428 142.022 123.961 142.022 124.959 142.832C124.897 143.589 124.603 144.309 124.119 144.894C123.65 144.456 123.092 144.124 122.484 143.92C121.876 143.715 121.231 143.644 120.593 143.711C119.954 143.777 119.338 143.98 118.785 144.306C118.232 144.631 117.755 145.071 117.387 145.597C117.411 145.352 117.449 145.109 117.501 144.868C117.575 144.475 117.729 144.101 117.952 143.769C118.175 143.437 118.464 143.153 118.8 142.936C119.714 142.413 120.739 142.114 121.791 142.063ZM115.868 143.178C116.313 143.08 116.769 143.044 117.223 143.071C116.886 143.545 116.648 144.082 116.524 144.651C116.46 144.946 116.414 145.245 116.386 145.546C116.235 145.285 116.068 145.033 115.887 144.791C115.537 144.326 115.097 143.936 114.592 143.646C114.994 143.431 115.423 143.274 115.868 143.178ZM107.461 146.651C108.033 145.503 109.425 144.861 110.018 144.634C110.997 144.24 112.054 144.085 113.104 144.179C113.5 144.237 113.88 144.374 114.222 144.583C114.563 144.792 114.858 145.068 115.09 145.395C115.237 145.59 115.372 145.795 115.496 146.006C114.942 145.682 114.325 145.481 113.687 145.416C113.049 145.351 112.404 145.423 111.796 145.629C111.188 145.834 110.632 146.168 110.164 146.607C109.696 147.046 109.328 147.581 109.084 148.174C108.402 147.842 107.837 147.311 107.461 146.651ZM109.821 150.64C109.674 149.963 109.73 149.258 109.983 148.614C110.236 147.97 110.674 147.415 111.242 147.02C111.81 146.624 112.483 146.406 113.175 146.393C113.867 146.381 114.548 146.573 115.13 146.947C115.713 147.321 116.172 147.859 116.449 148.493C116.725 149.128 116.808 149.83 116.686 150.511C116.563 151.193 116.242 151.823 115.761 152.321C115.281 152.82 114.664 153.165 113.987 153.312C113.081 153.509 112.133 153.338 111.352 152.837C110.571 152.336 110.02 151.546 109.821 150.64ZM112.146 154.252C112.746 154.404 113.372 154.429 113.983 154.326C113.986 155.337 114.111 156.345 114.352 157.327C114.611 158.51 115.087 159.635 115.755 160.645C115.596 160.72 115.452 160.823 115.329 160.948C114.744 160.699 114.226 160.314 113.82 159.825C113.414 159.335 113.131 158.756 112.994 158.135L112.146 154.252ZM114.336 161.937C114.465 161.908 114.601 161.933 114.712 162.004C114.824 162.076 114.903 162.189 114.931 162.318L115.358 164.272C115.386 164.402 115.362 164.537 115.29 164.649C115.218 164.761 115.105 164.839 114.976 164.867C114.846 164.896 114.711 164.871 114.599 164.8C114.487 164.728 114.409 164.615 114.381 164.486L113.954 162.532C113.926 162.402 113.95 162.267 114.021 162.155C114.093 162.043 114.206 161.965 114.336 161.937ZM135.414 167.057C135.442 167.189 135.416 167.327 135.34 167.438C135.306 167.492 135.261 167.54 135.208 167.576C135.155 167.613 135.095 167.639 135.032 167.652L112.713 172.527C111.585 172.792 110.4 172.62 109.393 172.047C108.387 171.474 107.634 170.542 107.287 169.437C107.112 168.844 107.061 168.222 107.137 167.608C107.214 166.995 107.415 166.404 107.73 165.872C108.045 165.34 108.466 164.878 108.966 164.516C109.467 164.154 110.037 163.899 110.641 163.767L113.084 163.234L113.297 164.211L110.855 164.744C109.964 164.94 109.185 165.475 108.682 166.236C108.179 166.997 107.993 167.924 108.162 168.82C108.251 169.27 108.43 169.698 108.688 170.077C108.946 170.456 109.278 170.78 109.664 171.028C110.073 171.298 110.532 171.483 111.014 171.574C111.496 171.664 111.991 171.658 112.47 171.556L134.818 166.675C134.948 166.647 135.083 166.671 135.195 166.743C135.307 166.814 135.385 166.927 135.414 167.057ZM112.257 170.579C111.908 170.653 111.547 170.657 111.197 170.591C110.846 170.525 110.512 170.389 110.214 170.193C109.94 170.017 109.704 169.789 109.52 169.521C109.337 169.252 109.209 168.95 109.144 168.631C109.024 167.991 109.158 167.329 109.517 166.786C109.876 166.243 110.432 165.861 111.068 165.721L113.6 165.168C113.729 165.378 113.907 165.553 114.12 165.677C114.333 165.801 114.573 165.871 114.819 165.879C115.066 165.887 115.31 165.834 115.531 165.724C115.751 165.614 115.941 165.451 116.083 165.25C116.296 165.374 116.536 165.443 116.783 165.451C117.029 165.458 117.273 165.405 117.493 165.295C117.714 165.185 117.903 165.022 118.045 164.82C118.187 164.619 118.276 164.385 118.305 164.14L122.393 163.248C122.521 163.458 122.7 163.633 122.913 163.757C123.126 163.881 123.366 163.95 123.612 163.958C123.858 163.967 124.103 163.913 124.323 163.804C124.544 163.694 124.734 163.531 124.876 163.33C125.089 163.454 125.329 163.522 125.575 163.53C125.822 163.538 126.066 163.484 126.286 163.374C126.507 163.264 126.696 163.101 126.838 162.9C126.98 162.698 127.069 162.465 127.098 162.22L131.954 161.159C131.808 162.858 132.18 164.561 133.021 166.044L112.257 170.579Z" fill="#394F6F"/>
<path d="M130.057 163.621L118.333 166.181C118.204 166.209 118.091 166.288 118.019 166.4C117.947 166.511 117.923 166.647 117.951 166.776C117.98 166.906 118.058 167.019 118.17 167.091C118.282 167.162 118.417 167.186 118.547 167.158L130.27 164.598C130.4 164.569 130.513 164.491 130.584 164.379C130.656 164.268 130.68 164.132 130.652 164.003C130.624 163.873 130.545 163.76 130.434 163.688C130.322 163.617 130.186 163.592 130.057 163.621ZM116.379 166.608L111.494 167.675C111.365 167.703 111.252 167.782 111.18 167.893C111.109 168.005 111.084 168.14 111.113 168.27C111.141 168.4 111.22 168.513 111.331 168.584C111.443 168.656 111.578 168.68 111.708 168.652L116.593 167.585C116.722 167.557 116.835 167.478 116.907 167.366C116.978 167.255 117.003 167.119 116.974 166.99C116.946 166.86 116.868 166.747 116.756 166.676C116.644 166.604 116.509 166.58 116.379 166.608ZM114.049 151.252C114.241 151.209 114.424 151.13 114.585 151.017C114.747 150.905 114.885 150.762 114.992 150.596C115.098 150.43 115.171 150.245 115.205 150.051C115.24 149.857 115.236 149.658 115.194 149.466C115.152 149.274 115.073 149.091 114.96 148.93C114.848 148.768 114.705 148.63 114.539 148.524C114.373 148.417 114.188 148.344 113.994 148.31C113.8 148.275 113.601 148.279 113.409 148.321C113.02 148.405 112.681 148.641 112.466 148.976C112.252 149.311 112.179 149.717 112.264 150.106C112.348 150.495 112.584 150.834 112.919 151.049C113.254 151.263 113.66 151.336 114.049 151.252ZM113.622 149.298C113.752 149.269 113.887 149.294 113.999 149.365C114.111 149.437 114.189 149.55 114.217 149.679C114.246 149.809 114.221 149.944 114.15 150.056C114.078 150.168 113.965 150.246 113.836 150.275C113.706 150.303 113.571 150.279 113.459 150.207C113.347 150.135 113.269 150.022 113.24 149.893C113.212 149.763 113.237 149.628 113.308 149.516C113.38 149.404 113.493 149.326 113.622 149.298ZM120.248 146.827C120.055 146.869 119.873 146.949 119.711 147.061C119.55 147.174 119.412 147.317 119.305 147.483C119.199 147.648 119.126 147.833 119.091 148.027C119.057 148.221 119.06 148.42 119.102 148.613C119.144 148.805 119.224 148.987 119.336 149.149C119.449 149.311 119.592 149.449 119.758 149.555C119.924 149.661 120.109 149.734 120.303 149.769C120.497 149.804 120.695 149.8 120.888 149.758C121.276 149.673 121.616 149.437 121.83 149.102C122.045 148.768 122.118 148.361 122.033 147.972C121.948 147.584 121.713 147.245 121.378 147.03C121.043 146.815 120.636 146.742 120.248 146.827ZM120.674 148.781C120.545 148.809 120.409 148.785 120.298 148.713C120.186 148.642 120.108 148.529 120.079 148.399C120.051 148.27 120.075 148.134 120.147 148.022C120.219 147.911 120.332 147.832 120.461 147.804C120.591 147.776 120.726 147.8 120.838 147.872C120.949 147.943 121.028 148.056 121.056 148.186C121.085 148.315 121.06 148.451 120.989 148.562C120.917 148.674 120.804 148.753 120.674 148.781Z" fill="#394F6F"/>
</g>
<g clip-path="url(#clip2_1467_270)">
<path d="M28.0902 44.5693C28.0893 44.5659 28.0883 44.5626 28.0875 44.5592C28.0832 44.5423 28.0777 44.5257 28.071 44.5096C28.0677 44.501 28.0641 44.4926 28.0603 44.4842C28.0571 44.4777 28.0536 44.4711 28.0502 44.4646C28.0476 44.4598 28.0454 44.455 28.0426 44.45C28.0412 44.4478 28.0396 44.4459 28.0385 44.4437C28.0346 44.4375 28.0306 44.4313 28.0265 44.4252C28.0216 44.4181 28.0167 44.4111 28.0116 44.4043C28.0078 44.3993 28.0038 44.3944 27.9997 44.3896C27.9934 44.3821 27.9869 44.3748 27.9801 44.3677C27.9781 44.3654 27.9764 44.3631 27.9743 44.361C27.9726 44.3593 27.9706 44.3577 27.9687 44.356C27.9611 44.3486 27.9531 44.3415 27.9449 44.3346L27.934 44.3256C27.925 44.3187 27.9158 44.312 27.9064 44.3057C27.9032 44.3035 27.8999 44.3011 27.8964 44.299C27.8854 44.2921 27.8741 44.2857 27.8625 44.2798C27.8605 44.2788 27.8586 44.2777 27.8566 44.2767C27.8427 44.2698 27.8285 44.2637 27.8139 44.2584C27.8132 44.258 27.8127 44.2581 27.8121 44.2577C27.7985 44.2529 27.7847 44.2487 27.7707 44.2453C27.7666 44.244 27.7624 44.2434 27.7584 44.2424C27.7477 44.2401 27.7369 44.2381 27.726 44.2364C27.7211 44.2358 27.7162 44.2353 27.7116 44.2346C27.701 44.2334 27.6904 44.2326 27.6798 44.2323C27.6749 44.2321 27.6703 44.2319 27.6655 44.2319C27.6545 44.2319 27.6434 44.2322 27.6324 44.2329C27.6299 44.2332 27.6274 44.233 27.6246 44.2332C27.554 44.2395 25.8695 44.3922 23.5841 45.1702C21.4736 45.8886 18.4368 47.3006 15.9541 49.947C15.5319 50.3968 15.1471 50.8804 14.8037 51.3928C14.7706 51.4424 14.7479 51.4981 14.737 51.5567C14.7261 51.6152 14.7273 51.6754 14.7403 51.7335L15.1801 53.689L14.5138 53.0814C14.4618 53.034 14.3992 52.9998 14.3312 52.9816C14.2633 52.9634 14.192 52.9617 14.1233 52.9768C14.0545 52.9919 13.9904 53.0233 13.9364 53.0684C13.8823 53.1134 13.8399 53.1708 13.8127 53.2357C12.2179 57.0278 13.1141 60.7246 13.3564 61.5702C13.14 62.0139 12.9334 62.4623 12.7367 62.915L5.71563 63.6542C5.12791 63.7161 4.70002 64.2447 4.7619 64.8324L4.83003 65.4796C4.89191 66.0673 5.42049 66.4952 6.00822 66.4333L6.95123 66.334L7.06384 67.4036L4.06244 67.7196C3.31784 67.798 2.7511 68.4459 2.77281 69.1967L2.87703 72.2964C2.881 72.4128 2.93103 72.523 3.01615 72.6026C3.10127 72.6821 3.2145 72.7247 3.33096 72.7208C3.57465 72.712 3.76372 72.5093 3.75569 72.2669L3.65116 69.1693C3.64298 68.8772 3.864 68.6245 4.15443 68.5939L18.4153 67.0925C18.706 67.0619 18.9748 67.2631 19.0271 67.5482L20.1211 73.6963C20.1355 73.7725 20.1337 73.8508 20.116 73.9262C20.0983 74.0017 20.0651 74.0726 20.0184 74.1345C19.9722 74.1968 19.9135 74.2487 19.8461 74.287C19.7786 74.3253 19.704 74.3491 19.6268 74.3568L4.48236 75.9512C4.40531 75.9598 4.32733 75.9521 4.25344 75.9286C4.17954 75.9052 4.11136 75.8666 4.05326 75.8153C3.93416 75.7109 3.86598 75.5664 3.86127 75.4058L3.82485 74.3229C3.82088 74.2064 3.77081 74.0962 3.68564 74.0166C3.60048 73.9371 3.48719 73.8945 3.37069 73.8985C3.1284 73.9072 2.93823 74.1099 2.94628 74.3526L2.98268 75.4331C2.98863 75.6315 3.03539 75.8266 3.12003 76.0062C3.20467 76.1857 3.32538 76.346 3.47464 76.4768C3.62421 76.6073 3.79904 76.7056 3.98825 76.7655C4.17745 76.8255 4.37697 76.8458 4.57438 76.8253L19.7191 75.2309C19.9164 75.2098 20.1073 75.1484 20.2799 75.0503C20.4525 74.9523 20.603 74.8198 20.7221 74.6611C20.9618 74.3408 21.058 73.9314 20.9861 73.5401L19.8922 67.3921C19.7571 66.6555 19.068 66.1398 18.3235 66.2182L15.322 66.5342L15.2094 65.4646L16.1525 65.3653C16.7402 65.3034 17.1681 64.7749 17.1062 64.1871L17.0381 63.5399C16.9762 62.9522 16.4476 62.5243 15.8599 62.5862L13.7452 62.8088C13.8731 62.5263 14.005 62.2457 14.1409 61.9669C15.8271 61.4106 17.403 60.6668 18.8273 59.7534C18.8892 59.7137 18.9402 59.6591 18.9756 59.5946C19.011 59.53 19.0295 59.4576 19.0296 59.384C19.0297 59.3104 19.0113 59.238 18.9761 59.1733C18.9409 59.1087 18.89 59.054 18.8281 59.0141L18.7108 58.9388L20.141 58.7551C20.2199 58.7449 20.2946 58.7136 20.3572 58.6644C22.6178 56.8821 24.463 54.605 25.8411 51.8959C25.873 51.8333 25.8894 51.7639 25.8889 51.6936C25.8884 51.6234 25.8711 51.5542 25.8384 51.4921C25.8057 51.4299 25.7585 51.3764 25.7008 51.3362C25.6432 51.2961 25.5768 51.2703 25.5071 51.2611L24.4493 51.1216L26.3005 50.5513C26.3622 50.5323 26.4189 50.5 26.4668 50.4565C26.5146 50.4131 26.5522 50.3597 26.5771 50.3001C27.8584 47.2166 28.0911 44.8121 28.1005 44.7113C28.1006 44.7096 28.1004 44.7083 28.1007 44.7067C28.1016 44.6948 28.1019 44.683 28.1021 44.6713C28.102 44.6678 28.1023 44.6646 28.1022 44.6611C28.1015 44.6302 28.0974 44.5993 28.0902 44.5692L28.0902 44.5693ZM14.448 66.6262L7.93785 67.3116L7.82525 66.242L14.3354 65.5566L14.448 66.6262ZM15.9519 63.4603C16.0028 63.455 16.0537 63.4701 16.0935 63.5023C16.1332 63.5345 16.1586 63.5811 16.164 63.632L16.2322 64.2791C16.2374 64.33 16.2223 64.3809 16.1902 64.4207C16.158 64.4604 16.1113 64.4858 16.0605 64.4912L5.9162 65.5592C5.86532 65.5645 5.81443 65.5494 5.77467 65.5172C5.73491 65.485 5.70954 65.4384 5.70411 65.3875L5.63597 64.7403C5.63069 64.6894 5.64579 64.6386 5.67798 64.5988C5.71016 64.559 5.75679 64.5337 5.80765 64.5282L15.9519 63.4603ZM25.8433 49.7726L22.2673 50.8738C22.1714 50.9032 22.0885 50.9646 22.0323 51.0477C21.9761 51.1308 21.95 51.2306 21.9584 51.3305C21.9667 51.4305 22.0091 51.5246 22.0783 51.5972C22.1475 51.6698 22.2395 51.7165 22.3389 51.7296L24.7666 52.0498C23.5025 54.3656 21.8705 56.3304 19.9077 57.8989L17.4048 58.2202C17.3154 58.2317 17.2318 58.2703 17.1651 58.331C17.0985 58.3916 17.052 58.4713 17.0322 58.5592C17.0123 58.647 17.0199 58.7389 17.054 58.8223C17.088 58.9058 17.1469 58.9767 17.2226 59.0255L17.7653 59.3751C16.8093 59.9388 15.7873 60.4259 14.713 60.832C15.097 60.0906 15.4974 59.3577 15.9138 58.634C15.9426 58.584 15.9613 58.5288 15.9688 58.4716C15.9763 58.4143 15.9724 58.3562 15.9574 58.3004C15.9424 58.2447 15.9166 58.1924 15.8814 58.1467C15.8462 58.1009 15.8023 58.0625 15.7523 58.0337C15.6513 57.9756 15.5314 57.9599 15.4189 57.9902C15.3063 58.0205 15.2105 58.0942 15.1523 58.1952C14.7463 58.9004 14.3555 59.6143 13.98 60.3363C13.7395 58.9895 13.5388 56.6153 14.3967 54.1641L15.619 55.2786C15.688 55.3417 15.7753 55.381 15.8683 55.391C15.9612 55.401 16.0549 55.381 16.1357 55.3341C16.2166 55.2871 16.2803 55.2156 16.3177 55.1299C16.3552 55.0442 16.3643 54.9488 16.3438 54.8576L15.6398 51.7269C15.9293 51.3114 16.2487 50.9175 16.5953 50.5483C18.9466 48.0417 21.8344 46.6971 23.8427 46.0107C24.4832 45.7918 25.1341 45.6044 25.793 45.4491C25.259 45.8641 24.6142 46.398 23.8855 47.0644C21.965 48.8205 19.0759 51.8699 16.218 56.4232C16.1873 56.472 16.1665 56.5265 16.1569 56.5834C16.1472 56.6403 16.1489 56.6986 16.1618 56.7548C16.1746 56.8111 16.1985 56.8643 16.2319 56.9113C16.2653 56.9584 16.3077 56.9984 16.3566 57.0291C16.4397 57.0814 16.5381 57.1042 16.6358 57.0938C16.7654 57.0801 16.8877 57.0095 16.9624 56.8905C19.7585 52.4355 22.579 49.4537 24.4527 47.7368C25.5587 46.7234 26.4728 46.02 27.0791 45.5877C26.9073 46.5126 26.55 48.0271 25.8433 49.7726Z" fill="#394F6F"/>
<path d="M16.1304 73.4679C16.5289 73.4259 16.819 73.0674 16.777 72.6691L16.4213 69.2902C16.3793 68.8916 16.021 68.6016 15.6225 68.6436L7.20901 69.5294C6.81044 69.5713 6.52046 69.9296 6.56241 70.3282L6.91814 73.707C6.96008 74.1054 7.31839 74.3956 7.71691 74.3536L16.1304 73.4679ZM7.45243 70.3875L15.5631 69.5336L15.887 72.6098L7.77629 73.4637L7.45243 70.3875Z" fill="#394F6F"/>
</g>
<g clip-path="url(#clip3_1467_270)">
<path d="M19.2802 103.908L30.7804 103.859C30.846 103.859 30.911 103.846 30.9716 103.82C31.0321 103.795 31.0871 103.758 31.1333 103.711C31.1796 103.665 31.2161 103.609 31.241 103.549C31.2659 103.488 31.2785 103.423 31.2782 103.357C31.278 103.291 31.2647 103.226 31.2393 103.166C31.2139 103.105 31.1769 103.05 31.1302 103.004C31.0836 102.958 31.0283 102.921 30.9675 102.896C30.9067 102.872 30.8417 102.859 30.776 102.859L19.2768 102.91C19.1442 102.91 19.0172 102.963 18.9237 103.058C18.8303 103.152 18.7781 103.279 18.7786 103.412C18.7791 103.544 18.8323 103.671 18.9265 103.765C19.0206 103.858 19.148 103.911 19.2807 103.91L19.2802 103.908ZM21.2864 105.399C21.156 105.403 21.0324 105.458 20.9418 105.552C20.8512 105.645 20.8008 105.771 20.8013 105.901C20.8019 106.031 20.8534 106.157 20.9448 106.249C21.0362 106.342 21.1603 106.396 21.2906 106.399L28.7905 106.368C28.8571 106.369 28.9233 106.357 28.9851 106.332C29.0469 106.307 29.1032 106.271 29.1506 106.224C29.1981 106.177 29.2357 106.121 29.2613 106.06C29.2868 105.998 29.2999 105.932 29.2996 105.866C29.2994 105.799 29.2858 105.733 29.2598 105.672C29.2337 105.611 29.1957 105.555 29.1479 105.509C29.1002 105.463 29.0436 105.426 28.9816 105.402C28.9196 105.378 28.8533 105.366 28.7868 105.368L21.2864 105.399ZM19.8256 114.903L30.3261 114.859C30.5911 114.858 30.8447 114.752 31.0313 114.563C31.2178 114.375 31.322 114.121 31.321 113.856L31.3002 108.855C31.299 108.59 31.1926 108.336 31.0043 108.15C30.816 107.963 30.5614 107.859 30.2963 107.86L19.7972 107.905C19.5321 107.907 19.2783 108.013 19.0916 108.201C18.905 108.39 18.8007 108.644 18.8018 108.909L18.8224 113.909C18.8238 114.174 18.9303 114.427 19.1184 114.613C19.3065 114.8 19.5608 114.904 19.8256 114.903ZM19.801 108.906L30.3014 108.861L30.3231 113.861L19.8222 113.905L19.801 108.906Z" fill="#394F6F"/>
<path d="M14.5855 128.122C14.9587 129.107 15.7053 129.905 16.6632 130.343C17.6212 130.781 18.7132 130.823 19.7022 130.461L34.716 124.923C34.9379 124.841 35.1371 124.707 35.297 124.533C35.4569 124.359 35.5731 124.149 35.6359 123.92C36.2992 123.592 36.8575 123.084 37.2479 122.455C37.6384 121.826 37.8453 121.1 37.8456 120.36C37.8438 120.35 37.8512 120.34 37.8509 120.33L37.7844 104.329C37.7823 103.794 37.6728 103.264 37.4622 102.772C37.2516 102.279 36.9443 101.834 36.5585 101.463C36.1727 101.091 35.7163 100.801 35.2162 100.61C34.7162 100.418 34.1827 100.329 33.6475 100.347L17.7669 100.414C17.5709 100.413 17.3769 100.452 17.1962 100.528C17.0154 100.604 16.8517 100.715 16.7145 100.855C16.5733 100.993 16.4615 101.159 16.3858 101.342C16.31 101.525 16.272 101.721 16.2738 101.919L16.2913 106.142L11.5155 107.902C10.5854 108.227 9.80558 108.88 9.32146 109.739C8.83734 110.597 8.68199 111.602 8.88439 112.567C8.92301 112.741 8.97326 112.912 9.03546 113.08L14.5665 128.09C14.5712 128.102 14.5804 128.111 14.5855 128.122ZM19.3603 129.521C18.9597 129.668 18.5325 129.728 18.107 129.697C17.6816 129.666 17.2675 129.545 16.8925 129.341C16.515 129.139 16.1858 128.857 15.9272 128.516C15.6686 128.174 15.4869 127.781 15.3944 127.363C15.2627 126.723 15.3412 126.058 15.6183 125.466C15.8954 124.875 16.3561 124.389 16.9319 124.08C17.1967 124.296 17.5276 124.413 17.869 124.413L18.7666 124.41L17.6341 124.829C17.3559 124.93 17.1039 125.093 16.8961 125.304C16.6884 125.515 16.5301 125.77 16.4328 126.049C16.3354 126.329 16.3014 126.627 16.3332 126.921C16.365 127.216 16.4618 127.5 16.6166 127.752C16.833 128.097 17.149 128.369 17.523 128.531C17.897 128.694 18.3114 128.739 18.7114 128.661C18.8345 128.638 18.9555 128.605 19.0727 128.562L30.4636 124.363L33.3837 124.349L19.3603 129.521ZM27.5424 124.373L18.7298 127.623C18.5076 127.711 18.2623 127.72 18.0341 127.649C17.806 127.579 17.6086 127.433 17.4744 127.235C17.3957 127.109 17.3461 126.967 17.3294 126.819C17.3127 126.671 17.3292 126.521 17.3778 126.38C17.4263 126.24 17.5056 126.112 17.61 126.005C17.7143 125.899 17.841 125.818 17.9809 125.767L21.6834 124.397L27.5424 124.373ZM36.1133 122.316C35.8331 122.638 35.4874 122.897 35.0994 123.074C34.7113 123.252 34.2898 123.345 33.8631 123.346L17.8632 123.414C17.7975 123.414 17.7325 123.402 17.6717 123.377C17.6109 123.352 17.5556 123.315 17.5089 123.269C17.4623 123.223 17.4252 123.168 17.3997 123.107C17.3743 123.047 17.3611 122.982 17.3607 122.916C17.3604 122.851 17.373 122.785 17.3979 122.725C17.4227 122.664 17.4593 122.609 17.5055 122.562C17.5517 122.515 17.6066 122.478 17.6672 122.453C17.7277 122.427 17.7927 122.414 17.8583 122.414L33.8003 122.347C34.2709 122.352 34.7288 122.194 35.0961 121.9C35.4634 121.606 35.7173 121.193 35.8145 120.733C35.872 120.442 35.8641 120.142 35.7914 119.855C35.7188 119.568 35.5832 119.3 35.3945 119.072C35.2058 118.843 34.9687 118.66 34.7003 118.534C34.432 118.408 34.139 118.344 33.8427 118.345L17.8417 118.412C17.7113 118.409 17.5872 118.356 17.4958 118.263C17.4044 118.17 17.3529 118.045 17.3524 117.914C17.3518 117.784 17.4022 117.658 17.4928 117.565C17.5834 117.471 17.7071 117.416 17.8374 117.412L33.715 117.346C34.4589 117.327 35.1843 117.579 35.7563 118.055C36.3283 118.531 36.7079 119.199 36.8246 119.934C36.8846 120.359 36.8519 120.792 36.7287 121.203C36.6055 121.614 36.3949 121.994 36.1112 122.316L36.1133 122.316ZM33.8494 119.347C33.9977 119.347 34.1442 119.38 34.2783 119.443C34.4124 119.507 34.5307 119.599 34.6246 119.714C34.7186 119.829 34.7858 119.963 34.8214 120.107C34.8571 120.251 34.8602 120.401 34.8307 120.546C34.7742 120.777 34.641 120.982 34.4528 121.128C34.2647 121.273 34.0327 121.35 33.795 121.347L18.3541 121.412L18.3484 119.411L33.8494 119.347ZM17.2726 101.916C17.2723 101.849 17.2857 101.783 17.3118 101.722C17.3379 101.661 17.3763 101.605 17.4246 101.559C17.4693 101.513 17.5231 101.476 17.5826 101.451C17.6422 101.426 17.7062 101.413 17.7708 101.414L32.772 101.351L32.7823 103.959C32.7811 104.025 32.7932 104.091 32.8179 104.153C32.8426 104.215 32.8794 104.271 32.9261 104.319C32.9728 104.366 33.0286 104.404 33.0901 104.429C33.1515 104.455 33.2175 104.468 33.2841 104.468C33.3507 104.468 33.4165 104.454 33.4778 104.428C33.5391 104.402 33.5946 104.364 33.6409 104.316C33.6873 104.268 33.7237 104.212 33.7479 104.15C33.7722 104.088 33.7837 104.022 33.782 103.955L33.7701 101.358C34.4923 101.366 35.1883 101.629 35.7345 102.102C36.2808 102.574 36.6419 103.225 36.7539 103.938C36.7713 104.07 36.7806 104.202 36.7817 104.334L36.8396 117.719C36.4575 117.299 35.9937 116.961 35.4767 116.726C34.9596 116.491 34.4 116.364 33.8322 116.352L33.7914 106.991C33.793 106.924 33.7812 106.858 33.7567 106.796C33.7321 106.733 33.6953 106.677 33.6485 106.629C33.6017 106.581 33.5458 106.543 33.484 106.518C33.4223 106.492 33.3561 106.479 33.2892 106.479C33.2223 106.479 33.1562 106.493 33.0947 106.519C33.0332 106.546 32.9777 106.584 32.9313 106.632C32.8849 106.681 32.8487 106.738 32.8247 106.8C32.8008 106.862 32.7896 106.929 32.7919 106.996L32.8325 116.351L17.8333 116.414C17.6628 116.416 17.4939 116.448 17.3339 116.507L17.2726 101.916ZM9.85938 112.35C9.70919 111.622 9.82937 110.863 10.1975 110.217C10.5656 109.571 11.1564 109.081 11.8595 108.838L16.2938 107.203L16.3405 117.921C16.3431 118.23 16.4411 118.531 16.6211 118.782C16.801 119.033 17.0542 119.223 17.346 119.325L17.3553 121.508C17.0626 121.61 16.8092 121.801 16.6309 122.054C16.4525 122.308 16.3582 122.611 16.3611 122.92C16.3619 123.023 16.3729 123.127 16.3946 123.227C15.581 123.693 14.9492 124.421 14.6021 125.291L9.97481 112.739C9.92824 112.612 9.89004 112.482 9.86045 112.35L9.85938 112.35Z" fill="#394F6F"/>
</g>
<g clip-path="url(#clip4_1467_270)">
<path d="M61.0483 169.233L43.218 164.03C42.5201 163.826 42.1181 163.092 42.3218 162.395L42.4449 161.973L42.023 161.85C41.3252 161.646 40.9232 160.913 41.1268 160.215L44.8204 147.559C44.8531 147.447 44.9288 147.353 45.031 147.297C45.1332 147.241 45.2535 147.228 45.3654 147.26C45.4773 147.293 45.5716 147.369 45.6276 147.471C45.6836 147.573 45.6968 147.693 45.6641 147.805L41.9705 160.461C41.9026 160.694 42.0367 160.938 42.2693 161.006L60.0996 166.21C60.3323 166.278 60.5767 166.144 60.6446 165.911L63.4134 156.424L63.1788 151.833C63.1688 151.64 63.1914 151.446 63.2457 151.261L64.1663 148.106C64.2661 147.764 64.5603 147.532 64.9159 147.514C65.2715 147.495 65.588 147.697 65.7222 148.027L65.8048 148.23L67.8183 141.331C67.8862 141.098 67.7522 140.854 67.5196 140.786L49.6892 135.582C49.4567 135.514 49.2122 135.648 49.1443 135.881L46.1566 146.118C46.1239 146.23 46.0482 146.324 45.946 146.38C45.8438 146.436 45.7235 146.449 45.6116 146.417C45.4997 146.384 45.4054 146.308 45.3494 146.206C45.2934 146.104 45.2802 145.984 45.3129 145.872L48.3006 135.635C48.5042 134.937 49.2376 134.535 49.9355 134.738L67.7658 139.942C68.4637 140.146 68.8657 140.879 68.662 141.577L68.5389 141.999L68.9608 142.122C69.6586 142.326 70.0607 143.059 69.857 143.757L68.1031 149.767C68.0704 149.879 67.9947 149.973 67.8925 150.029C67.7903 150.085 67.67 150.098 67.5581 150.065C67.4462 150.033 67.3519 149.957 67.2959 149.855C67.2399 149.753 67.2267 149.632 67.2594 149.52L69.0133 143.511C69.0812 143.278 68.9472 143.034 68.7145 142.966L68.2927 142.843L66.3378 149.541L66.9595 151.071C67.0324 151.25 67.0747 151.44 67.0844 151.633L67.8289 166.202C67.867 166.947 67.0561 167.552 65.9429 167.609C64.8296 167.666 63.9614 167.147 63.9233 166.402L63.8227 164.433L62.6833 168.337C62.4796 169.035 61.7462 169.437 61.0483 169.233ZM43.2886 162.219L43.1655 162.641C43.0976 162.873 43.2316 163.118 43.4642 163.186L61.2946 168.39C61.5272 168.458 61.7717 168.324 61.8395 168.091L63.6862 161.763L63.5498 159.094L61.4883 166.157C61.2846 166.855 60.5513 167.257 59.8534 167.053L43.2886 162.219ZM64.0793 152.233L64.8011 166.357C64.8074 166.482 65.1997 166.767 65.8981 166.731C66.5965 166.696 66.9577 166.372 66.9513 166.247L66.2295 152.123L64.0793 152.233ZM64.3777 150.519L64.1352 151.35L66.0838 151.25L65.7579 150.449L64.3777 150.519ZM64.9665 148.502L64.6384 149.626L65.4075 149.587L64.9665 148.502ZM58.3072 162.94L45.5391 159.214C45.4272 159.181 45.3329 159.105 45.2769 159.003C45.2209 158.901 45.2077 158.78 45.2404 158.669C45.273 158.557 45.3488 158.462 45.451 158.406C45.5532 158.35 45.6735 158.337 45.7853 158.37L58.5535 162.096C58.6653 162.129 58.7597 162.205 58.8157 162.307C58.8717 162.409 58.8848 162.529 58.8522 162.641C58.8195 162.753 58.7438 162.847 58.6416 162.903C58.5394 162.959 58.4191 162.973 58.3072 162.94ZM59.0459 160.409L46.2778 156.682C46.1659 156.65 46.0716 156.574 46.0156 156.472C45.9596 156.37 45.9464 156.249 45.9791 156.137C46.0117 156.026 46.0875 155.931 46.1897 155.875C46.2919 155.819 46.4122 155.806 46.5241 155.839L59.2922 159.565C59.4041 159.598 59.4984 159.674 59.5544 159.776C59.6104 159.878 59.6236 159.998 59.5909 160.11C59.5583 160.222 59.4825 160.316 59.3803 160.372C59.2781 160.428 59.1578 160.441 59.0459 160.409ZM59.7847 157.878L47.0165 154.151C46.9047 154.119 46.8103 154.043 46.7543 153.941C46.6983 153.838 46.6852 153.718 46.7178 153.606C46.7505 153.494 46.8262 153.4 46.9284 153.344C47.0306 153.288 47.1509 153.275 47.2628 153.308L60.0309 157.034C60.1428 157.067 60.2371 157.142 60.2931 157.245C60.3491 157.347 60.3623 157.467 60.3296 157.579C60.297 157.691 60.2212 157.785 60.119 157.841C60.0168 157.897 59.8965 157.91 59.7847 157.878ZM59.3984 155.018L47.7553 151.62C47.6434 151.588 47.549 151.512 47.493 151.41C47.437 151.307 47.4239 151.187 47.4565 151.075C47.4892 150.963 47.5649 150.869 47.6671 150.813C47.7693 150.757 47.8896 150.744 48.0015 150.776L59.6447 154.175C59.7565 154.207 59.8509 154.283 59.9069 154.385C59.9629 154.487 59.976 154.608 59.9434 154.72C59.9107 154.831 59.835 154.926 59.7328 154.982C59.6306 155.038 59.5103 155.051 59.3984 155.018ZM61.2621 152.815L48.494 149.089C48.3821 149.056 48.2878 148.981 48.2317 148.878C48.1757 148.776 48.1626 148.656 48.1952 148.544C48.2279 148.432 48.3036 148.338 48.4058 148.282C48.5081 148.226 48.6283 148.213 48.7402 148.245L61.5083 151.972C61.6202 152.004 61.7145 152.08 61.7706 152.182C61.8266 152.285 61.8397 152.405 61.8071 152.517C61.7744 152.629 61.6986 152.723 61.5964 152.779C61.4942 152.835 61.374 152.848 61.2621 152.815ZM62.0008 150.284L49.2327 146.558C49.1208 146.525 49.0265 146.449 48.9704 146.347C48.9144 146.245 48.9013 146.125 48.9339 146.013C48.9666 145.901 49.0424 145.807 49.1446 145.751C49.2468 145.695 49.367 145.682 49.4789 145.714L62.247 149.441C62.3589 149.473 62.4532 149.549 62.5093 149.651C62.5653 149.753 62.5784 149.874 62.5458 149.986C62.5131 150.097 62.4374 150.192 62.3352 150.248C62.2329 150.304 62.1127 150.317 62.0008 150.284ZM49.9714 144.027C49.8595 143.994 49.765 143.919 49.7088 143.817C49.6526 143.714 49.6393 143.594 49.6718 143.482C49.7042 143.37 49.7798 143.276 49.8819 143.22C49.984 143.164 50.1043 143.15 50.2162 143.183L58.6053 145.601C58.8402 145.668 58.973 145.911 58.9058 146.144C58.8386 146.378 58.595 146.512 58.3618 146.445L49.9728 144.027L49.9714 144.027ZM61.7475 142.886L53.4258 140.457C53.3139 140.424 53.2195 140.349 53.1635 140.246C53.1075 140.144 53.0944 140.024 53.127 139.912C53.1597 139.8 53.2354 139.706 53.3376 139.65C53.4398 139.594 53.5601 139.581 53.672 139.613L61.9938 142.042C62.1056 142.075 62.2 142.151 62.256 142.253C62.312 142.355 62.3252 142.475 62.2925 142.587C62.2598 142.699 62.1841 142.793 62.0819 142.849C61.9797 142.905 61.8594 142.918 61.7475 142.886Z" fill="#394F6F"/>
</g>
<g clip-path="url(#clip5_1467_270)">
<path d="M161.861 122.769C161.891 122.656 161.874 122.536 161.816 122.435C161.757 122.334 161.66 122.261 161.547 122.231L154.041 120.253C155.194 119.762 156.117 118.763 156.46 117.461L158.809 108.545C158.871 108.31 158.73 108.069 158.495 108.007C158.26 107.945 158.019 108.086 157.957 108.321L155.721 116.81L148.88 115.008C148.767 114.978 148.647 114.995 148.546 115.054C148.445 115.112 148.371 115.209 148.342 115.322C147.752 117.56 149.093 119.861 151.331 120.45L161.323 123.083C161.436 123.113 161.556 123.096 161.657 123.037C161.758 122.979 161.831 122.882 161.861 122.769ZM151.556 119.599C149.931 119.171 148.905 117.602 149.109 115.979L155.467 117.654C154.845 119.167 153.18 120.027 151.556 119.599Z" fill="#394F6F"/>
<path d="M177.594 105.574L163.969 101.984C161.731 101.394 159.43 102.735 158.841 104.974L158.462 106.41C158.4 106.645 158.541 106.886 158.776 106.948C159.011 107.01 159.252 106.87 159.314 106.635L159.692 105.198C160.158 103.429 161.976 102.37 163.745 102.836C165.514 103.302 166.573 105.12 166.107 106.888C166.078 107.001 166.094 107.121 166.153 107.222C166.212 107.323 166.308 107.396 166.421 107.426L175.987 109.946L175.528 111.69C175.299 111.713 175.072 111.74 174.845 111.773C173.109 112.022 170.709 112.673 168.363 114.314C168.353 114.311 168.344 114.308 168.334 114.305L165.759 113.627C165.524 113.565 165.283 113.705 165.221 113.94C165.159 114.175 165.299 114.416 165.534 114.478L167.474 114.989C167.245 115.176 167.022 115.37 166.805 115.57C163.159 118.943 162.84 122.16 162.873 123.386C162.874 123.414 162.877 123.44 162.883 123.467C162.695 123.767 162.515 124.073 162.346 124.384L160.616 123.928C160.503 123.899 160.383 123.915 160.282 123.974C160.181 124.033 160.108 124.129 160.078 124.242L159.712 125.633L159.683 125.625C159.448 125.563 159.207 125.704 159.145 125.939C159.084 126.174 159.224 126.415 159.459 126.477L159.487 126.484L159.424 126.726L157.033 127.42C156.887 127.463 156.769 127.583 156.731 127.731L156.013 130.456C155.983 130.569 155.999 130.689 156.058 130.79C156.117 130.891 156.213 130.964 156.326 130.994L164.501 133.148C164.614 133.178 164.734 133.161 164.835 133.102C164.936 133.044 165.009 132.947 165.039 132.834L165.757 130.109C165.796 129.961 165.753 129.799 165.647 129.69L163.909 127.907L163.972 127.666L164.001 127.673C164.236 127.735 164.477 127.595 164.539 127.36C164.601 127.125 164.46 126.884 164.225 126.822L164.197 126.814L164.563 125.423C164.593 125.311 164.577 125.19 164.518 125.09C164.459 124.989 164.363 124.915 164.25 124.885L163.282 124.631C163.482 124.278 163.718 123.894 163.999 123.481C164.058 123.454 164.111 123.414 164.152 123.363C165.422 121.829 169.143 120.071 171.335 119.263C172.27 118.918 173.11 118.492 173.857 118.029L172.868 121.783C172.402 123.552 170.584 124.612 168.816 124.146L165.636 123.308C165.401 123.246 165.16 123.387 165.099 123.622C165.037 123.857 165.177 124.098 165.412 124.16L168.591 124.997C170.83 125.587 173.13 124.246 173.72 122.008L174.969 117.267C175.967 116.513 176.751 115.722 177.328 115.052C178.332 113.885 178.896 112.884 179.092 112.51C179.23 112.381 179.282 112.174 179.205 111.988C179.118 111.776 178.892 111.662 178.675 111.708C178.341 111.663 177.546 111.581 176.455 111.625L176.838 110.171L180.046 111.016C180.159 111.046 180.279 111.029 180.38 110.97C180.481 110.912 180.554 110.815 180.584 110.702C181.174 108.464 179.833 106.163 177.594 105.574ZM163.104 128.344L163.906 129.166L161.668 128.577C161.433 128.515 161.192 128.655 161.13 128.89C161.068 129.125 161.208 129.366 161.443 129.428L164.793 130.311L164.3 132.184L156.976 130.255L157.47 128.381L159.315 128.867C159.55 128.929 159.791 128.789 159.853 128.554C159.915 128.319 159.775 128.078 159.539 128.016L158.806 127.822L159.909 127.502C159.982 127.481 160.048 127.441 160.101 127.386C160.154 127.332 160.193 127.265 160.212 127.191L160.339 126.709L163.121 127.442L162.994 127.924C162.974 127.998 162.974 128.075 162.994 128.148C163.013 128.222 163.051 128.289 163.104 128.344ZM163.345 126.59L160.563 125.857L160.818 124.892L163.599 125.625L163.345 126.59ZM174.937 112.649C175.564 112.558 176.196 112.507 176.83 112.497C173.885 113.834 171.288 115.341 169.073 116.999L168.689 115.163C170.941 113.534 173.267 112.893 174.937 112.649ZM171.243 118.356C171.24 118.355 171.236 118.354 171.233 118.354L169.092 118.181C169.522 117.843 169.962 117.516 170.409 117.201L172.798 117.628C172.297 117.905 171.777 118.148 171.243 118.356ZM167.403 116.217C167.57 116.062 167.741 115.912 167.915 115.766L168.251 117.37C168.266 117.44 168.297 117.505 168.343 117.56C167.95 117.871 167.566 118.192 167.189 118.523C166.737 118.92 166.298 119.333 165.874 119.759L166.154 117.526C166.155 117.523 166.155 117.52 166.155 117.516C166.516 117.09 166.929 116.656 167.403 116.217ZM165.083 118.989L164.849 120.852C164.506 121.24 164.178 121.64 163.865 122.052C164.017 121.227 164.358 120.168 165.083 118.989ZM166.378 120.6C166.891 120.076 167.466 119.535 168.11 118.984L169.415 119.09C168.465 119.504 167.383 120.025 166.378 120.6ZM173.923 116.935L171.452 116.493C173.187 115.358 175.244 114.225 177.679 113.146C177.36 113.618 177.013 114.07 176.641 114.501C176.005 115.236 175.103 116.126 173.923 116.935ZM167.049 106.681C167.228 105.521 166.907 104.376 166.23 103.49L177.37 106.425C178.994 106.853 180.021 108.422 179.817 110.045L167.049 106.681Z" fill="#394F6F"/>
<path d="M161.735 108.62L166.276 109.817C166.512 109.879 166.752 109.738 166.814 109.503C166.876 109.268 166.736 109.027 166.501 108.965L161.959 107.768C161.724 107.706 161.483 107.847 161.421 108.082C161.359 108.317 161.499 108.558 161.735 108.62ZM172.635 111.492C172.87 111.554 173.111 111.413 173.173 111.178C173.235 110.943 173.094 110.702 172.859 110.64L168.317 109.444C168.082 109.382 167.841 109.522 167.779 109.757C167.717 109.992 167.858 110.233 168.093 110.295L172.635 111.492ZM161.136 110.891L168.857 112.925C169.092 112.987 169.333 112.847 169.395 112.611C169.457 112.376 169.317 112.135 169.082 112.073L161.361 110.039C161.125 109.977 160.885 110.118 160.823 110.353C160.761 110.588 160.901 110.829 161.136 110.891ZM160.538 113.162L163.717 113.999C163.952 114.061 164.193 113.921 164.255 113.686C164.317 113.451 164.177 113.21 163.942 113.148L160.762 112.31C160.527 112.248 160.286 112.389 160.224 112.624C160.162 112.859 160.303 113.1 160.538 113.162ZM159.94 115.433L162.665 116.15C162.9 116.212 163.141 116.072 163.203 115.837C163.265 115.602 163.124 115.361 162.889 115.299L160.164 114.581C159.929 114.519 159.688 114.659 159.626 114.895C159.564 115.13 159.705 115.371 159.94 115.433Z" fill="#394F6F"/>
</g>
<g clip-path="url(#clip6_1467_270)">
<path d="M134.029 4.28925L132.11 5.11847L131.047 4.42893C130.978 4.38416 130.899 4.35701 130.818 4.34987C130.736 4.34273 130.654 4.35582 130.578 4.38799L121.87 8.04853C121.46 8.22177 121.121 8.52701 120.905 8.91567C120.549 8.6481 120.113 8.50756 119.668 8.51653L116.743 8.57794L116.727 8.50312C116.679 8.27976 116.556 8.07955 116.379 7.93557C116.201 7.79159 115.98 7.71245 115.751 7.71123L113.195 7.70623C112.935 7.70567 112.686 7.80615 112.5 7.98635C112.313 8.16655 112.204 8.41229 112.196 8.67145L110.223 8.71463C110.141 8.71636 110.061 8.73799 109.99 8.77763C109.919 8.81727 109.859 8.87372 109.814 8.94207L109.123 10.0044L107.028 10.0281C106.88 10.0305 106.735 10.0655 106.602 10.1306C106.47 10.1956 106.353 10.2892 106.261 10.4046C106.169 10.52 106.103 10.6543 106.069 10.7979C106.035 10.9416 106.032 11.0911 106.063 11.2357L109.697 28.3337C109.745 28.5593 109.869 28.7615 110.049 28.906C110.228 29.0504 110.453 29.1283 110.683 29.1265L122.732 29.0114C123.171 29.5622 124.172 29.7654 125.286 29.5287C126.4 29.292 127.232 28.6989 127.411 27.9826L138.457 23.2234C138.67 23.1322 138.845 22.9699 138.951 22.7644C139.058 22.5589 139.089 22.3228 139.041 22.0964L135.407 4.99834C135.375 4.85374 135.312 4.71791 135.222 4.60056C135.132 4.48321 135.017 4.38724 134.885 4.31949C134.754 4.25175 134.609 4.21391 134.461 4.20868C134.313 4.20346 134.165 4.23097 134.029 4.28925ZM109.995 10.4989L112.924 24.2771L112.154 25.4632L109.225 11.685L109.995 10.4989ZM113.731 24.8703L122.912 24.6772C123.144 24.6722 123.371 24.7481 123.553 24.892C123.736 25.0358 123.862 25.2387 123.911 25.4657L124.046 26.1015L112.844 26.2366L113.731 24.8703ZM124.943 25.5121L124.889 25.2578C124.842 25.0304 124.875 24.7935 124.983 24.5879C125.091 24.3822 125.268 24.2207 125.482 24.131L133.947 20.5732L135.311 21.459L125.025 25.8941L124.943 25.5121ZM135.629 20.4733L134.443 19.7031L131.515 5.92487L132.701 6.6951L135.629 20.4733ZM122.259 8.96967L130.411 5.54296L133.422 19.709L125.095 23.2093C124.888 23.2963 124.697 23.4182 124.53 23.5695L121.667 10.0965C121.619 9.86908 121.652 9.63221 121.761 9.42658C121.869 9.22095 122.045 9.0594 122.259 8.96967ZM117.521 15.844C117.716 15.8027 117.886 15.6857 117.994 15.5189C118.102 15.3521 118.14 15.1491 118.099 14.9545L116.955 9.57468L119.689 9.51644C119.921 9.51137 120.148 9.58723 120.33 9.73101C120.513 9.87478 120.639 10.0775 120.689 10.3044L123.552 23.7774C123.339 23.7068 123.115 23.6731 122.891 23.6778L113.859 23.8672L110.848 9.70119L112.375 9.66809L113.635 15.5966C113.661 15.7217 113.719 15.8379 113.803 15.9343C113.888 16.0306 113.995 16.1038 114.115 16.1469C114.236 16.1901 114.365 16.2017 114.491 16.1808C114.617 16.1599 114.736 16.107 114.836 16.0273L115.985 15.1089L116.955 15.7394C117.038 15.7933 117.13 15.8303 117.228 15.8482C117.325 15.8662 117.424 15.8647 117.521 15.844ZM113.192 8.70603L115.749 8.71103L116.995 14.5716L116.379 14.1718C116.247 14.0861 116.092 14.044 115.934 14.0517C115.777 14.0593 115.626 14.1163 115.503 14.2145L114.528 14.9916L113.192 8.70603ZM127.017 27.0649C126.873 27.1302 126.746 27.2277 126.646 27.35C126.546 27.4723 126.475 27.616 126.439 27.77C126.392 27.9507 125.945 28.3663 125.078 28.5505C124.211 28.7347 123.634 28.537 123.517 28.3896C123.422 28.2638 123.299 28.1617 123.157 28.091C123.016 28.0203 122.861 27.983 122.703 27.9819L110.675 28.1258L107.041 11.0283L108.469 11.0121L108.272 11.3145C108.201 11.4258 108.176 11.561 108.204 11.6904L111.427 26.8517C111.45 26.9645 111.513 27.0655 111.602 27.1377C111.692 27.2098 111.804 27.2488 111.92 27.2478L124.468 27.0956C124.666 27.0938 124.862 27.0521 125.044 26.9732L136.569 22.0085C136.675 21.9624 136.761 21.8813 136.814 21.7788C136.867 21.6763 136.882 21.5587 136.858 21.446L133.636 6.28471C133.608 6.15502 133.53 6.0416 133.419 5.9694L133.116 5.77299L134.429 5.20625L138.063 22.3043L127.017 27.0649Z" fill="#394F6F"/>
<path d="M123.895 10.9572C123.926 10.9506 123.957 10.9411 123.986 10.9287L129.147 8.75817C129.269 8.7067 129.366 8.60877 129.416 8.48592C129.466 8.36307 129.466 8.22538 129.414 8.10312C129.363 7.98086 129.265 7.88406 129.142 7.83401C129.019 7.78396 128.881 7.78476 128.759 7.83623L123.597 10.0068C123.482 10.0547 123.389 10.144 123.336 10.257C123.284 10.3701 123.275 10.4988 123.312 10.6179C123.35 10.737 123.43 10.8378 123.538 10.9006C123.646 10.9634 123.773 10.9836 123.895 10.9572ZM124.302 12.8695C124.332 12.8629 124.363 12.8533 124.392 12.841L129.554 10.6705C129.676 10.619 129.773 10.521 129.823 10.3982C129.873 10.2754 129.872 10.1377 129.821 10.0154C129.769 9.89314 129.671 9.79634 129.548 9.74629C129.425 9.69624 129.288 9.69703 129.165 9.74851L124.004 11.9191C123.889 11.967 123.796 12.0562 123.743 12.1693C123.69 12.2824 123.681 12.4111 123.719 12.5302C123.756 12.6492 123.837 12.7501 123.944 12.8129C124.052 12.8756 124.18 12.8958 124.302 12.8695ZM124.717 14.8258C124.748 14.8192 124.779 14.8096 124.808 14.7973L129.969 12.6267C130.03 12.6013 130.085 12.5641 130.131 12.5174C130.177 12.4707 130.214 12.4153 130.239 12.3545C130.263 12.2937 130.276 12.2286 130.276 12.1629C130.275 12.0972 130.262 12.0322 130.236 11.9717C130.211 11.9112 130.174 11.8562 130.127 11.8101C130.08 11.7639 130.025 11.7274 129.964 11.7026C129.903 11.6778 129.838 11.6652 129.772 11.6656C129.707 11.666 129.642 11.6793 129.581 11.7048L124.42 13.8754C124.305 13.9233 124.211 14.0125 124.159 14.1256C124.106 14.2387 124.097 14.3674 124.135 14.4865C124.172 14.6055 124.252 14.7064 124.36 14.7692C124.468 14.8319 124.595 14.8521 124.717 14.8258ZM125.133 16.7821C125.164 16.7755 125.195 16.7659 125.224 16.7536L130.385 14.583C130.508 14.5316 130.604 14.4336 130.654 14.3108C130.704 14.1879 130.704 14.0502 130.652 13.928C130.601 13.8057 130.503 13.7089 130.38 13.6589C130.257 13.6088 130.119 13.6096 129.997 13.6611L124.836 15.8317C124.72 15.8796 124.627 15.9688 124.574 16.0819C124.522 16.195 124.513 16.3237 124.55 16.4428C124.588 16.5618 124.668 16.6627 124.776 16.7254C124.884 16.7882 125.011 16.8084 125.133 16.7821ZM125.549 18.7384C125.58 18.7318 125.611 18.7222 125.64 18.7099L130.801 16.5393C130.923 16.4879 131.02 16.3899 131.07 16.2671C131.12 16.1442 131.119 16.0065 131.068 15.8843C131.016 15.762 130.919 15.6652 130.796 15.6152C130.673 15.5651 130.535 15.5659 130.413 15.6174L125.251 17.788C125.136 17.8359 125.043 17.9251 124.99 18.0382C124.938 18.1513 124.929 18.28 124.966 18.3991C125.004 18.5181 125.084 18.619 125.192 18.6817C125.3 18.7445 125.427 18.7647 125.549 18.7384ZM125.965 20.6947C125.996 20.6881 126.026 20.6785 126.055 20.6662L128.87 19.48C128.993 19.4286 129.089 19.3306 129.139 19.2078C129.189 19.0849 129.189 18.9472 129.137 18.825C129.086 18.7027 128.988 18.6059 128.865 18.5559C128.742 18.5058 128.604 18.5066 128.482 18.5581L125.667 19.7447C125.553 19.7931 125.46 19.8824 125.408 19.9952C125.356 20.108 125.347 20.2362 125.385 20.3548C125.422 20.4735 125.502 20.574 125.609 20.6368C125.716 20.6997 125.843 20.7203 125.965 20.6947ZM114.041 17.4596C114.043 17.5922 114.099 17.7182 114.194 17.8101C114.29 17.9019 114.418 17.952 114.551 17.9493L120.149 17.8329C120.214 17.8315 120.279 17.8172 120.339 17.7908C120.399 17.7644 120.454 17.7264 120.499 17.679C120.545 17.6316 120.58 17.5757 120.604 17.5145C120.628 17.4534 120.64 17.3881 120.638 17.3224C120.637 17.2567 120.623 17.192 120.596 17.1319C120.57 17.0717 120.532 17.0174 120.484 16.9719C120.437 16.9264 120.381 16.8908 120.32 16.8669C120.259 16.843 120.194 16.8315 120.128 16.8328L114.53 16.9493C114.397 16.9522 114.271 17.0075 114.18 17.1032C114.088 17.1989 114.038 17.3271 114.041 17.4596ZM120.544 18.789L114.946 18.9055C114.813 18.9082 114.687 18.9635 114.595 19.0592C114.504 19.1548 114.453 19.2831 114.456 19.4157C114.459 19.5484 114.514 19.6745 114.61 19.7663C114.706 19.8582 114.834 19.9083 114.966 19.9056L120.565 19.7891C120.697 19.7864 120.823 19.731 120.915 19.6353C121.007 19.5396 121.057 19.4113 121.054 19.2787C121.051 19.1461 120.996 19.02 120.9 18.9282C120.805 18.8364 120.677 18.7863 120.544 18.789ZM120.96 20.7453L115.362 20.8618C115.296 20.8631 115.231 20.8774 115.171 20.9037C115.111 20.9301 115.057 20.9681 115.011 21.0155C114.966 21.0628 114.93 21.1187 114.906 21.1799C114.882 21.2411 114.871 21.3064 114.872 21.372C114.873 21.4377 114.888 21.5025 114.914 21.5626C114.94 21.6228 114.978 21.6772 115.026 21.7226C115.073 21.7681 115.129 21.8038 115.19 21.8277C115.251 21.8516 115.317 21.8632 115.382 21.8619L120.98 21.7454C121.046 21.7441 121.111 21.7298 121.171 21.7034C121.231 21.677 121.285 21.639 121.331 21.5916C121.376 21.5442 121.412 21.4883 121.436 21.4271C121.46 21.3659 121.471 21.3007 121.47 21.235C121.469 21.1693 121.454 21.1046 121.428 21.0444C121.402 20.9843 121.364 20.93 121.316 20.8845C121.269 20.839 121.213 20.8034 121.152 20.7795C121.09 20.7556 121.026 20.744 120.96 20.7453Z" fill="#394F6F"/>
</g>
<g clip-path="url(#clip7_1467_270)">
<path d="M74.271 3.34642L70.2859 3.00241C69.8483 2.96261 69.41 3.06966 69.04 3.30668C68.67 3.54369 68.3896 3.89717 68.2428 4.31132L53.9613 6.84754C53.8088 6.57859 53.5771 6.3633 53.2976 6.23112C53.0182 6.09895 52.7047 6.05634 52.4001 6.10913L49.4463 6.63368C49.0546 6.70324 48.7066 6.92556 48.4788 7.25171C48.251 7.57787 48.1621 7.98116 48.2317 8.37285L48.5814 10.342L48.0891 10.4295C47.6974 10.499 47.3494 10.7213 47.1216 11.0475C46.8938 11.3737 46.8049 11.7769 46.8745 12.1686C46.944 12.5603 47.1664 12.9084 47.4925 13.1361C47.8187 13.3639 48.222 13.4528 48.6137 13.3833L49.106 13.2958L49.7179 16.7419L49.2256 16.8293C48.8339 16.8989 48.4859 17.1212 48.2581 17.4474C48.0303 17.7735 47.9415 18.1768 48.011 18.5685C48.0806 18.9602 48.3029 19.3082 48.629 19.536C48.9552 19.7638 49.3585 19.8527 49.7502 19.7831L50.2425 19.6957L50.9419 23.6341L50.4496 23.7215C50.0579 23.7911 49.7099 24.0134 49.4821 24.3395C49.2543 24.6657 49.1654 25.069 49.235 25.4607C49.3045 25.8524 49.5268 26.2004 49.853 26.4282C50.1792 26.656 50.5824 26.7448 50.9741 26.6753L51.4664 26.5879L52.0784 30.0339L51.5861 30.1214C51.1944 30.1909 50.8464 30.4132 50.6186 30.7394C50.3908 31.0656 50.3019 31.4688 50.3715 31.8605C50.4411 32.2522 50.6634 32.6003 50.9895 32.828C51.3157 33.0558 51.719 33.1447 52.1107 33.0752L52.603 32.9877L52.9527 34.9569C53.0222 35.3486 53.2445 35.6966 53.5707 35.9244C53.8969 36.1522 54.3002 36.2411 54.6918 36.1715L57.6456 35.647C57.9498 35.5917 58.2294 35.4437 58.4463 35.2234C58.6631 35.0031 58.8066 34.7212 58.8571 34.4162L68.865 32.6389L69.0856 33.0233C69.1459 33.128 69.2307 33.2165 69.3326 33.2814C69.4345 33.3463 69.5506 33.3856 69.6709 33.396C69.7913 33.4064 69.9124 33.3876 70.024 33.3411C70.1355 33.2946 70.2341 33.2219 70.3115 33.1291L71.0429 32.2521L75.1935 31.5151C75.8459 31.3984 76.4255 31.0277 76.805 30.4843C77.1845 29.9409 77.333 29.2692 77.2179 28.6164L75.1184 16.7944L75.791 8.9977L76.0919 5.51037C76.1373 4.98196 75.971 4.45713 75.6295 4.05133C75.288 3.64552 74.7994 3.39196 74.271 3.34642ZM69.1178 4.90903C69.1406 4.64487 69.2674 4.40058 69.4703 4.22989C69.6732 4.0592 69.9356 3.97609 70.1998 3.99882L74.1853 4.34225C74.3161 4.35348 74.4435 4.39039 74.5602 4.45088C74.6768 4.51136 74.7803 4.59423 74.8649 4.69475C74.9495 4.79527 75.0135 4.91147 75.0531 5.03671C75.0928 5.16196 75.1074 5.29379 75.0961 5.42467L74.8381 8.41586L71.847 8.15839L68.8559 7.90092L69.1178 4.90903ZM74.7516 9.4098L74.6231 10.9053L70.1399 10.5187L68.6443 10.3898L68.7733 8.89416L71.7619 9.15207L74.7516 9.4098ZM71.6229 29.996L68.3388 29.7189L67.5584 28.364L72.6201 28.7997L71.6229 29.996ZM73.1637 27.8434L72.1679 27.7577L72.9822 18.291C72.9936 18.1589 72.9521 18.0276 72.8667 17.9261C72.7813 17.8246 72.6592 17.7612 72.527 17.7497C72.3949 17.7383 72.2636 17.7799 72.1621 17.8652C72.0606 17.9506 71.9972 18.0728 71.9858 18.2049L71.1695 27.672L69.1763 27.5003L69.5204 23.5127C69.5309 23.445 69.5275 23.3759 69.5102 23.3096C69.4929 23.2433 69.4622 23.1813 69.4199 23.1273C69.3776 23.0734 69.3248 23.0287 69.2645 22.9961C69.2043 22.9635 69.138 22.9436 69.0697 22.9376C69.0015 22.9317 68.9327 22.9398 68.8677 22.9616C68.8028 22.9833 68.7429 23.0181 68.692 23.064C68.6411 23.1098 68.6001 23.1656 68.5716 23.2279C68.5431 23.2902 68.5277 23.3577 68.5264 23.4262L68.1829 27.4142L67.1866 27.3286L68.559 11.385L69.5554 11.4711L68.7388 20.9362C68.7281 21.068 68.77 21.1986 68.8554 21.2996C68.9408 21.4005 69.0627 21.4635 69.1944 21.4748C69.3261 21.4862 69.4569 21.4449 69.5583 21.36C69.6596 21.2751 69.7232 21.1535 69.7351 21.0218L70.5517 11.5567L72.5431 11.7292L72.1991 15.7142C72.192 15.8439 72.2357 15.9713 72.3209 16.0693C72.406 16.1674 72.526 16.2284 72.6555 16.2396C72.7849 16.2507 72.9135 16.2111 73.0142 16.129C73.1149 16.0469 73.1797 15.9289 73.1949 15.7999L73.5394 11.8148L74.5353 11.901L73.1637 27.8434ZM61.6112 6.50466L63.7997 18.8116L63.7968 18.8121L62.2506 17.9695C61.8397 17.7428 61.3277 17.8338 61.0199 18.188L59.8584 19.5115L57.6728 7.20406L61.6112 6.50466ZM47.8591 11.9938C47.8359 11.8632 47.8655 11.7288 47.9414 11.6201C48.0174 11.5114 48.1334 11.4373 48.264 11.4141L50.7254 10.9769C50.856 10.9537 50.9904 10.9834 51.0992 11.0593C51.2079 11.1352 51.282 11.2512 51.3052 11.3818C51.3283 11.5124 51.2987 11.6468 51.2228 11.7555C51.1469 11.8642 51.0309 11.9383 50.9003 11.9615L48.4388 12.3987C48.3082 12.4218 48.1738 12.3922 48.0651 12.3163C47.9564 12.2404 47.8823 12.1244 47.8591 11.9938ZM48.9956 18.3937C48.9724 18.2631 49.0021 18.1287 49.078 18.0199C49.1539 17.9112 49.2699 17.8371 49.4005 17.8139L51.862 17.3768C51.9925 17.3536 52.127 17.3832 52.2357 17.4592C52.3444 17.5351 52.4185 17.6511 52.4417 17.7817C52.4649 17.9122 52.4353 18.0467 52.3593 18.1554C52.2834 18.2641 52.1674 18.3382 52.0368 18.3614L49.5753 18.7985C49.4448 18.8217 49.3103 18.7921 49.2016 18.7162C49.0929 18.6402 49.0188 18.5242 48.9956 18.3937ZM50.2196 25.2858C50.1964 25.1553 50.226 25.0208 50.3019 24.9121C50.3779 24.8034 50.4939 24.7293 50.6244 24.7061L53.0859 24.269C53.2165 24.2458 53.3509 24.2754 53.4596 24.3513C53.5684 24.4273 53.6425 24.5433 53.6657 24.6738C53.6888 24.8044 53.6592 24.9388 53.5833 25.0476C53.5074 25.1563 53.3913 25.2304 53.2608 25.2536L50.7993 25.6907C50.6687 25.7139 50.5343 25.6842 50.4256 25.6083C50.3169 25.5324 50.2428 25.4164 50.2196 25.2858ZM51.3561 31.6857C51.3329 31.5551 51.3625 31.4207 51.4385 31.312C51.5144 31.2033 51.6304 31.1292 51.761 31.106L54.2225 30.6688C54.353 30.6457 54.4875 30.6753 54.5962 30.7512C54.7049 30.8271 54.779 30.9431 54.8022 31.0737C54.8254 31.2043 54.7957 31.3387 54.7198 31.4474C54.6439 31.5561 54.5279 31.6302 54.3973 31.6534L51.9358 32.0906C51.8053 32.1137 51.6708 32.0841 51.5621 32.0082C51.4534 31.9323 51.3793 31.8163 51.3561 31.6857ZM57.4708 34.6624L54.517 35.1869C54.3864 35.2101 54.252 35.1805 54.1433 35.1046C54.0346 35.0286 53.9605 34.9126 53.9373 34.7821L53.5876 32.8129L54.5722 32.638C54.9639 32.5685 55.3119 32.3462 55.5397 32.02C55.7675 31.6938 55.8563 31.2906 55.7868 30.8989C55.7172 30.5072 55.4949 30.1591 55.1688 29.9314C54.8426 29.7036 54.4393 29.6147 54.0476 29.6842L53.063 29.8591L52.451 26.413L53.4356 26.2382C53.8273 26.1686 54.1753 25.9463 54.4031 25.6201C54.6309 25.294 54.7198 24.8907 54.6502 24.499C54.5807 24.1073 54.3584 23.7593 54.0322 23.5315C53.7061 23.3037 53.3028 23.2148 52.9111 23.2844L51.9265 23.4592L51.2271 19.5208L52.2117 19.346C52.6034 19.2764 52.9514 19.0541 53.1792 18.728C53.407 18.4018 53.4958 17.9985 53.4263 17.6068C53.3567 17.2151 53.1344 16.8671 52.8083 16.6393C52.4821 16.4115 52.0788 16.3226 51.6871 16.3922L50.7025 16.5671L50.0905 13.121L51.0751 12.9461C51.4668 12.8766 51.8149 12.6543 52.0426 12.3281C52.2704 12.0019 52.3593 11.5987 52.2898 11.207C52.2202 10.8153 51.9979 10.4672 51.6717 10.2395C51.3456 10.0117 50.9423 9.92278 50.5506 9.99234L49.566 10.1672L49.2163 8.198C49.1931 8.06744 49.2227 7.93301 49.2987 7.82429C49.3746 7.71557 49.4906 7.64147 49.6212 7.61828L52.5749 7.09373C52.7055 7.07054 52.8399 7.10017 52.9487 7.1761C53.0574 7.25203 53.1315 7.36803 53.1547 7.4986L57.8757 34.0827C57.8988 34.2132 57.8692 34.3477 57.7933 34.4564C57.7174 34.5651 57.6013 34.6392 57.4708 34.6624ZM58.7728 33.4155L54.2267 7.81604L56.6882 7.37892L58.8738 19.6864C58.9067 19.8719 58.9913 20.0444 59.118 20.1839C59.2446 20.3234 59.4081 20.4244 59.5896 20.475C59.7711 20.5257 59.9632 20.5241 60.1438 20.4703C60.3244 20.4166 60.4861 20.3129 60.6103 20.1712L61.7718 18.8477L63.318 19.6903C63.4834 19.7806 63.671 19.8222 63.859 19.8105C64.0471 19.7988 64.228 19.7342 64.381 19.6241C64.5339 19.5141 64.6526 19.363 64.7235 19.1884C64.7943 19.0138 64.8144 18.8228 64.7814 18.6372L62.5957 6.32981L68.0755 5.35667L67.8225 8.30991L66.159 27.5842C66.1409 27.7885 66.1859 27.9933 66.289 28.1705L68.3342 31.7175L58.7728 33.4155ZM69.7735 32.213L68.9447 30.7743L70.8398 30.9339L69.7735 32.213ZM76.2333 28.7913C76.3028 29.183 76.2139 29.5863 75.9861 29.9124C75.7584 30.2386 75.4103 30.4609 75.0186 30.5305L72.0363 31.0601L73.9029 28.8228C74.034 28.6659 74.1134 28.4726 74.1305 28.2689L74.7864 20.6438L76.2333 28.7913Z" fill="#394F6F"/>
<path d="M70.4383 7.03067C70.5037 7.03633 70.5696 7.02904 70.6323 7.00923C70.6949 6.98942 70.753 6.95747 70.8032 6.91521C70.8535 6.87294 70.8949 6.82119 70.9252 6.7629C70.9554 6.70462 70.9739 6.64094 70.9796 6.57551L71.0231 6.07722L71.5208 6.12036C71.653 6.13178 71.7842 6.09024 71.8857 6.00489C71.9872 5.91953 72.0507 5.79734 72.0621 5.66521C72.0735 5.53308 72.032 5.40183 71.9466 5.30032C71.8612 5.19882 71.7391 5.13538 71.6069 5.12396L71.1078 5.08157C70.977 5.07025 70.8452 5.08482 70.72 5.12444C70.5947 5.16406 70.4785 5.22796 70.378 5.31249C70.2775 5.39702 70.1946 5.50053 70.1341 5.6171C70.0736 5.73367 70.0366 5.86102 70.0253 5.99188L69.9868 6.48978C69.9754 6.62128 70.0165 6.75194 70.1011 6.85327C70.1857 6.95459 70.3069 7.01836 70.4383 7.03067Z" fill="#394F6F"/>
</g>
<defs>
<clipPath id="clip0_1467_270">
<rect width="30" height="30" fill="white" transform="translate(144 39.6565) rotate(-5.08)"/>
</clipPath>
<clipPath id="clip1_1467_270">
<rect width="30" height="30" fill="white" transform="translate(101 145.401) rotate(-12.32)"/>
</clipPath>
<clipPath id="clip2_1467_270">
<rect width="30" height="30" fill="white" transform="translate(0 47.1411) rotate(-6.01)"/>
</clipPath>
<clipPath id="clip3_1467_270">
<rect width="30" height="30" fill="white" transform="translate(7 102.333) rotate(-10.24)"/>
</clipPath>
<clipPath id="clip4_1467_270">
<rect width="30" height="30" fill="white" transform="translate(47.4043 134) rotate(16.27)"/>
</clipPath>
<clipPath id="clip5_1467_270">
<rect width="30" height="30" fill="white" transform="translate(152.643 99) rotate(14.76)"/>
</clipPath>
<clipPath id="clip6_1467_270">
<rect width="30" height="30" fill="white" transform="translate(105 6.2373) rotate(-12)"/>
</clipPath>
<clipPath id="clip7_1467_270">
<rect width="30" height="30" fill="white" transform="translate(46 7.24561) rotate(-10.07)"/>
</clipPath>
</defs>
</svg>
