<svg width="100" height="100" viewBox="0 0 100 100" fill="none" xmlns="http://www.w3.org/2000/svg">
<g clip-path="url(#clip0_1467_357)">
<path d="M50 100C77.6142 100 100 77.6142 100 50C100 22.3858 77.6142 0 50 0C22.3858 0 0 22.3858 0 50C0 77.6142 22.3858 100 50 100Z" fill="url(#paint0_linear_1467_357)"/>
<path d="M66.6739 51.063C66.6739 48.2416 64.3866 45.9543 61.5655 45.9543C58.7443 45.9543 56.457 48.2416 56.457 51.063C56.457 53.8843 58.7443 56.1714 61.5655 56.1714C64.3866 56.1714 66.6739 53.8843 66.6739 51.063Z" fill="url(#paint1_linear_1467_357)"/>
<path d="M50 0C48.6804 0 47.3706 0.0529412 46.0765 0.152941C46.0773 0.157059 46.0759 0.149804 46.0767 0.153922C47.7084 0.241176 48.1078 2.47451 46.6275 3.11765C46.051 3.36863 45.4569 3.58431 44.849 3.76275C42.9059 4.33333 41.1177 5.27843 39.5726 6.52549C38.0255 7.77255 36.7216 9.32157 35.7529 11.098L35.2373 12.0451C33.298 15.6 30.0255 18.2373 26.1412 19.3804L25.5784 19.5451C21.6941 20.6882 18.4216 23.3255 16.4843 26.8804L13.6843 32.0118C13.1627 32.9686 14.3588 33.9333 15.1843 33.2235C16.4471 32.1373 17.8176 31.1902 19.2726 30.398C20.7275 29.6059 22.2667 28.9686 23.8647 28.498L33.5627 25.6471C36.5765 24.7608 39.1157 22.7137 40.6196 19.9549C41.3726 18.5765 42.3824 17.3765 43.5824 16.4078C44.7804 15.4412 46.1686 14.7078 47.6765 14.2647L57.1765 11.4706C60.1765 10.5431 62.0255 8.94118 63.1177 7.59804C64.1471 6.32941 65.949 5.98824 67.3588 6.81177C67.3804 6.82549 67.4039 6.83725 67.4255 6.85098C69.3118 7.95686 69.6608 10.5353 68.1137 12.0824L62.5802 17.6159C61.2012 18.9949 59.1026 19.2839 57.3584 18.4112C56.2318 17.8475 54.9457 17.5553 53.5859 17.6206C49.6612 17.809 46.4873 21.0375 46.3606 24.9645C46.3365 25.7127 46.4206 26.4378 46.5984 27.1249C47.3245 29.931 45.441 32.7455 42.5945 33.2914C41.5049 33.5004 40.3902 33.6071 39.2643 33.6059C34.5288 33.6004 30.0061 35.5784 26.6576 38.9269L22.6716 42.9129C19.3627 46.2216 14.8753 48.0804 10.1961 48.0804H0.0411765C0.0156863 48.7176 0 49.3569 0 50C0 53.7039 0.405882 57.3098 1.17059 60.7843H6C10.9465 60.7843 15.6906 58.8194 19.1882 55.3216L19.5373 54.9725C23.0351 51.4747 27.779 49.5098 32.7255 49.5098H43.8429C48.7896 49.5098 53.5335 47.5449 57.0312 44.0471L60.6567 40.4216C65.588 35.098 74.5704 34.5373 74.9567 34.4804C83.8547 33.1824 91.9998 40.1765 92.1469 49.1667C92.1508 49.4451 92.1528 49.7216 92.1528 50V50.0878C92.1459 54.0686 89.603 57.5859 85.8608 58.9435C84.6973 59.3657 83.5263 59.9906 82.4182 60.8153C78.8182 63.4949 77.0443 67.418 77.9004 70.2912C78.2163 71.3514 77.7755 72.4929 76.7888 72.9931C76.7214 73.0275 76.6555 73.058 76.592 73.0843C73.89 74.2039 71.4037 75.851 69.2959 77.9588L66.9782 80.2765C62.7398 84.5149 56.9845 86.8396 50.9904 86.8629C45.0594 86.8861 39.3751 89.2522 35.178 93.449L31.9761 96.651C36.4075 98.3627 41.1408 99.4647 46.0761 99.8471H46.08C47.3741 99.9471 48.68 100 49.9996 100C77.6133 100 99.9996 77.6137 99.9996 50C99.9996 22.3863 77.6137 0 50 0V0ZM81.1647 30.3235C78.3431 30.3235 76.0549 28.0373 76.0549 25.2157C76.0549 22.3941 78.3431 20.1078 81.1647 20.1078C83.9863 20.1078 86.2726 22.3941 86.2726 25.2157C86.2726 28.0373 83.9863 30.3235 81.1647 30.3235Z" fill="url(#paint2_linear_1467_357)"/>
<path d="M40.438 73.0408C43.3008 70.1781 47.1837 68.5696 51.2323 68.5696H51.8206C55.8692 68.5696 59.7522 66.9612 62.6149 64.0985L66.7474 59.9659C67.5178 59.1955 66.6437 57.9316 65.651 58.3806C62.6155 59.754 59.322 60.4642 55.9902 60.4642H45.881C42.7396 60.4642 39.7271 61.712 37.5057 63.9334C35.2843 66.1547 32.2718 67.4026 29.1304 67.4026H19.2284C16.087 67.4026 13.0745 68.6504 10.8531 70.8718L6.70312 75.0218C8.99528 78.9793 11.8155 82.5918 15.0655 85.7667L18.0861 82.7461C20.9488 79.8832 24.8318 78.2749 28.8806 78.2749C32.9292 78.2749 36.8121 76.6667 39.6749 73.8038L40.438 73.0408Z" fill="url(#paint3_linear_1467_357)"/>
</g>
<defs>
<linearGradient id="paint0_linear_1467_357" x1="-1.61961" y1="50" x2="99.6347" y2="50" gradientUnits="userSpaceOnUse">
<stop stop-color="#D3B0FF"/>
<stop offset="0.445" stop-color="#BF8CFF"/>
<stop offset="0.5378" stop-color="#B881FF"/>
<stop offset="0.7008" stop-color="#A560FC"/>
<stop offset="0.9133" stop-color="#9745FF"/>
<stop offset="0.9984" stop-color="#872BFB"/>
</linearGradient>
<linearGradient id="paint1_linear_1467_357" x1="-35.2933" y1="51.063" x2="80.5931" y2="51.063" gradientUnits="userSpaceOnUse">
<stop stop-color="#D3B0FF"/>
<stop offset="0.5841" stop-color="#9B73CE"/>
<stop offset="0.9984" stop-color="#872BFB"/>
</linearGradient>
<linearGradient id="paint2_linear_1467_357" x1="-35.2941" y1="50" x2="80.5924" y2="50" gradientUnits="userSpaceOnUse">
<stop stop-color="#D3B0FF"/>
<stop offset="0.5841" stop-color="#9B73CE"/>
<stop offset="0.9984" stop-color="#872BFB"/>
</linearGradient>
<linearGradient id="paint3_linear_1467_357" x1="-35.2945" y1="72.0267" x2="80.592" y2="72.0267" gradientUnits="userSpaceOnUse">
<stop stop-color="#D3B0FF"/>
<stop offset="0.5841" stop-color="#9B73CE"/>
<stop offset="0.9984" stop-color="#872BFB"/>
</linearGradient>
<clipPath id="clip0_1467_357">
<rect width="100" height="100" fill="white"/>
</clipPath>
</defs>
</svg>
