<svg width="198" height="45" viewBox="0 0 198 45" fill="none" xmlns="http://www.w3.org/2000/svg">
<g clip-path="url(#clip0_239_5461)">
<path d="M98.258 33.311H97.952L96.26 37.622L94.649 33.311H94.343L96.107 37.946L95.423 39.647H95.729L98.258 33.311ZM102.048 38V33.311H101.778V35.786H100.698C99.6987 35.786 98.8887 34.967 98.8887 33.95V33.311H98.6187V33.95C98.6187 35.093 99.5547 36.02 100.707 36.02H101.778V38H102.048ZM107.773 35.633C107.773 34.274 106.648 33.176 105.289 33.176C103.921 33.176 102.814 34.283 102.814 35.651C102.814 37.019 103.921 38.135 105.289 38.135C106.279 38.135 107.134 37.55 107.53 36.713H107.233C106.855 37.397 106.126 37.865 105.289 37.865C104.083 37.865 103.102 36.866 103.102 35.633H107.773ZM105.289 33.446C106.423 33.446 107.359 34.292 107.485 35.399H103.102C103.228 34.292 104.155 33.446 105.289 33.446ZM112.494 31.529H110.127C109.245 31.529 108.534 32.33 108.534 33.311V35.624C108.534 37.01 109.686 38.135 111.036 38.135C112.404 38.135 113.52 37.01 113.52 35.633C113.52 34.274 112.404 33.176 111.036 33.176C110.001 33.176 109.002 33.833 108.822 34.634V33.311C108.822 32.474 109.398 31.799 110.127 31.799H112.494V31.529ZM113.232 35.633C113.232 36.866 112.251 37.865 111.027 37.865C109.812 37.865 108.822 36.866 108.822 35.633C108.822 34.418 109.812 33.446 111.027 33.446C112.242 33.446 113.232 34.418 113.232 35.633ZM114.285 38H114.555V35.651H117.723V38H117.993V33.311H117.723V35.417H114.555V33.311H114.285V38ZM122.571 38V33.311H122.319V38H122.571ZM118.98 38H120.591C121.329 38 121.923 37.406 121.923 36.668C121.923 35.93 121.329 35.327 120.591 35.327H119.25V33.311H118.98V38ZM119.25 35.561H120.537C121.14 35.561 121.635 36.056 121.635 36.668C121.635 37.271 121.14 37.766 120.537 37.766H119.25V35.561ZM127.368 38V33.311H126.972L123.831 37.73V33.311H123.561V38H123.957L127.098 33.581V38H127.368ZM125.478 32.429C124.983 32.429 124.578 32.114 124.38 31.664H124.11C124.299 32.249 124.848 32.681 125.478 32.681C126.108 32.681 126.666 32.249 126.855 31.664H126.585C126.387 32.114 125.973 32.429 125.478 32.429ZM130.975 38H134.998V39.224H135.268V37.766H134.683V33.311H134.413V37.766H131.245V33.311H130.975V38ZM140.677 35.633C140.677 34.274 139.552 33.176 138.193 33.176C136.825 33.176 135.718 34.283 135.718 35.651C135.718 37.019 136.825 38.135 138.193 38.135C139.183 38.135 140.038 37.55 140.434 36.713H140.137C139.759 37.397 139.03 37.865 138.193 37.865C136.987 37.865 136.006 36.866 136.006 35.633H140.677ZM138.193 33.446C139.327 33.446 140.263 34.292 140.389 35.399H136.006C136.132 34.292 137.059 33.446 138.193 33.446ZM141.438 38H141.708V35.651H144.876V38H145.146V33.311H144.876V35.417H141.708V33.311H141.438V38ZM147.213 38H147.483V33.545H148.923V33.311H145.773V33.545H147.213V38ZM149.554 39.647H149.824V36.695C150.256 37.622 151.057 38.135 152.002 38.135C153.379 38.135 154.522 37.01 154.522 35.633C154.522 34.274 153.379 33.176 152.002 33.176C151.129 33.176 150.247 33.662 149.824 34.625V33.311H149.554V39.647ZM154.234 35.633C154.234 36.866 153.253 37.865 152.029 37.865C150.814 37.865 149.824 36.866 149.824 35.633C149.824 34.418 150.814 33.446 152.029 33.446C153.244 33.446 154.234 34.418 154.234 35.633Z" fill="#08234B"/>
<path d="M52.32 25H53.068V19.082L54.388 17.3L59.756 25H60.724L54.828 16.728L60.592 9.182H59.624L53.068 17.894V9.182H52.32V25ZM73.0481 25H73.7961V18.268H77.4921C79.8461 18.268 81.7601 16.222 81.7601 13.714C81.7601 11.206 79.8461 9.182 77.4921 9.182H73.0481V25ZM73.7961 9.842H77.2721C79.3181 9.842 80.9461 11.536 80.9461 13.714C80.9461 15.892 79.3181 17.608 77.2721 17.608H73.7961V9.842ZM93.8259 25V24.34H86.5879V17.344H93.5839V16.684H86.5879V9.842H93.8259V9.182H85.8399V25H93.8259ZM98.0035 9.842H102.404C104.186 9.842 105.616 11.294 105.616 13.076C105.616 14.858 104.186 16.288 102.404 16.288H98.7515V16.948H102.8C104.846 16.948 106.496 18.598 106.496 20.644C106.496 22.69 104.846 24.34 102.8 24.34H98.7515H98.0035V25H102.888C105.33 25 107.31 23.064 107.31 20.644C107.31 18.598 105.792 16.772 103.922 16.552C105.308 16.2 106.364 14.616 106.364 12.79C106.364 10.788 104.648 9.182 102.536 9.182H98.0035V9.842ZM121.373 9.182H120.493L116.423 19.456L111.033 9.182H110.197L115.983 20.226L113.959 25H114.905L121.373 9.182ZM134.845 25L128.949 9.182H128.069L122.173 25H123.097L128.509 9.996L133.921 25H134.845ZM138.704 25H143.148C145.568 25 147.548 22.998 147.548 20.49C147.548 17.982 145.568 15.98 143.148 15.98H139.452V9.182H138.704V25ZM139.452 16.64H143.148C145.106 16.64 146.734 18.356 146.734 20.49C146.734 22.624 145.106 24.34 143.148 24.34H139.452V16.64ZM158.599 9.842V9.182H150.635V9.842H154.221V25H155.013V9.842H158.599ZM160.566 25L162.854 19.346H170.092L172.358 25H173.238L166.814 9.16H166.11L159.686 25H160.566ZM163.096 18.686L166.462 10.018L169.85 18.686H163.096ZM182.292 9.842V9.182H174.328V9.842H177.914V25H178.706V9.842H182.292ZM196.319 9.182H195.439L191.369 19.456L185.979 9.182H185.143L190.929 20.226L188.905 25H189.851L196.319 9.182Z" fill="#08234B"/>
<path d="M52.32 25H51.92V25.4H52.32V25ZM53.068 25V25.4H53.468V25H53.068ZM53.068 19.082L52.7466 18.8439L52.668 18.95V19.082H53.068ZM54.388 17.3L54.7161 17.0712L54.3978 16.6147L54.0666 17.0619L54.388 17.3ZM59.756 25L59.4279 25.2288L59.5473 25.4H59.756V25ZM60.724 25V25.4H61.5003L61.0497 24.7678L60.724 25ZM54.828 16.728L54.5101 16.4852L54.3309 16.7198L54.5023 16.9602L54.828 16.728ZM60.592 9.182L60.9099 9.42481L61.4009 8.782H60.592V9.182ZM59.624 9.182V8.782H59.4244L59.3044 8.94148L59.624 9.182ZM53.068 17.894H52.668V19.0908L53.3876 18.1345L53.068 17.894ZM53.068 9.182H53.468V8.782H53.068V9.182ZM52.32 9.182V8.782H51.92V9.182H52.32ZM52.32 25.4H53.068V24.6H52.32V25.4ZM53.468 25V19.082H52.668V25H53.468ZM53.3894 19.3201L54.7094 17.5381L54.0666 17.0619L52.7466 18.8439L53.3894 19.3201ZM54.0599 17.5288L59.4279 25.2288L60.0841 24.7712L54.7161 17.0712L54.0599 17.5288ZM59.756 25.4H60.724V24.6H59.756V25.4ZM61.0497 24.7678L55.1537 16.4958L54.5023 16.9602L60.3983 25.2322L61.0497 24.7678ZM55.1459 16.9708L60.9099 9.42481L60.2741 8.93919L54.5101 16.4852L55.1459 16.9708ZM60.592 8.782H59.624V9.582H60.592V8.782ZM59.3044 8.94148L52.7484 17.6535L53.3876 18.1345L59.9436 9.42252L59.3044 8.94148ZM53.468 17.894V9.182H52.668V17.894H53.468ZM53.068 8.782H52.32V9.582H53.068V8.782ZM51.92 9.182V25H52.72V9.182H51.92ZM73.0481 25H72.6481V25.4H73.0481V25ZM73.7961 25V25.4H74.1961V25H73.7961ZM73.7961 18.268V17.868H73.3961V18.268H73.7961ZM73.0481 9.182V8.782H72.6481V9.182H73.0481ZM73.7961 9.842V9.442H73.3961V9.842H73.7961ZM73.7961 17.608H73.3961V18.008H73.7961V17.608ZM73.0481 25.4H73.7961V24.6H73.0481V25.4ZM74.1961 25V18.268H73.3961V25H74.1961ZM73.7961 18.668H77.4921V17.868H73.7961V18.668ZM77.4921 18.668C80.0913 18.668 82.1601 16.4179 82.1601 13.714H81.3601C81.3601 16.0261 79.601 17.868 77.4921 17.868V18.668ZM82.1601 13.714C82.1601 11.0075 80.0888 8.782 77.4921 8.782V9.582C79.6034 9.582 81.3601 11.4045 81.3601 13.714H82.1601ZM77.4921 8.782H73.0481V9.582H77.4921V8.782ZM72.6481 9.182V25H73.4481V9.182H72.6481ZM73.7961 10.242H77.2721V9.442H73.7961V10.242ZM77.2721 10.242C79.0791 10.242 80.5461 11.7384 80.5461 13.714H81.3461C81.3461 11.3336 79.5571 9.442 77.2721 9.442V10.242ZM80.5461 13.714C80.5461 15.6927 79.0762 17.208 77.2721 17.208V18.008C79.56 18.008 81.3461 16.0913 81.3461 13.714H80.5461ZM77.2721 17.208H73.7961V18.008H77.2721V17.208ZM74.1961 17.608V9.842H73.3961V17.608H74.1961ZM93.8259 25V25.4H94.2259V25H93.8259ZM93.8259 24.34H94.2259V23.94H93.8259V24.34ZM86.5879 24.34H86.1879V24.74H86.5879V24.34ZM86.5879 17.344V16.944H86.1879V17.344H86.5879ZM93.5839 17.344V17.744H93.9839V17.344H93.5839ZM93.5839 16.684H93.9839V16.284H93.5839V16.684ZM86.5879 16.684H86.1879V17.084H86.5879V16.684ZM86.5879 9.842V9.442H86.1879V9.842H86.5879ZM93.8259 9.842V10.242H94.2259V9.842H93.8259ZM93.8259 9.182H94.2259V8.782H93.8259V9.182ZM85.8399 9.182V8.782H85.4399V9.182H85.8399ZM85.8399 25H85.4399V25.4H85.8399V25ZM94.2259 25V24.34H93.4259V25H94.2259ZM93.8259 23.94H86.5879V24.74H93.8259V23.94ZM86.9879 24.34V17.344H86.1879V24.34H86.9879ZM86.5879 17.744H93.5839V16.944H86.5879V17.744ZM93.9839 17.344V16.684H93.1839V17.344H93.9839ZM93.5839 16.284H86.5879V17.084H93.5839V16.284ZM86.9879 16.684V9.842H86.1879V16.684H86.9879ZM86.5879 10.242H93.8259V9.442H86.5879V10.242ZM94.2259 9.842V9.182H93.4259V9.842H94.2259ZM93.8259 8.782H85.8399V9.582H93.8259V8.782ZM85.4399 9.182V25H86.2399V9.182H85.4399ZM85.8399 25.4H93.8259V24.6H85.8399V25.4ZM98.0035 9.842H97.6035V10.242H98.0035V9.842ZM98.7515 16.288V15.888H98.3515V16.288H98.7515ZM98.7515 16.948H98.3515V17.348H98.7515V16.948ZM98.0035 24.34V23.94H97.6035V24.34H98.0035ZM98.0035 25H97.6035V25.4H98.0035V25ZM103.922 16.552L103.823 16.1643L103.875 16.9493L103.922 16.552ZM98.0035 9.182V8.782H97.6035V9.182H98.0035ZM98.0035 10.242H102.404V9.442H98.0035V10.242ZM102.404 10.242C103.961 10.242 105.216 11.5113 105.216 13.076H106.016C106.016 11.0767 104.41 9.442 102.404 9.442V10.242ZM105.216 13.076C105.216 14.6371 103.965 15.888 102.404 15.888V16.688C104.406 16.688 106.016 15.0789 106.016 13.076H105.216ZM102.404 15.888H98.7515V16.688H102.404V15.888ZM98.3515 16.288V16.948H99.1515V16.288H98.3515ZM98.7515 17.348H102.8V16.548H98.7515V17.348ZM102.8 17.348C104.625 17.348 106.096 18.8189 106.096 20.644H106.896C106.896 18.3771 105.066 16.548 102.8 16.548V17.348ZM106.096 20.644C106.096 22.4691 104.625 23.94 102.8 23.94V24.74C105.066 24.74 106.896 22.9109 106.896 20.644H106.096ZM102.8 23.94H98.7515V24.74H102.8V23.94ZM98.7515 23.94H98.0035V24.74H98.7515V23.94ZM97.6035 24.34V25H98.4035V24.34H97.6035ZM98.0035 25.4H102.888V24.6H98.0035V25.4ZM102.888 25.4C105.544 25.4 107.71 23.2914 107.71 20.644H106.91C106.91 22.8366 105.115 24.6 102.888 24.6V25.4ZM107.71 20.644C107.71 18.4204 106.064 16.4013 103.968 16.1547L103.875 16.9493C105.519 17.1427 106.91 18.7756 106.91 20.644H107.71ZM104.02 16.9397C105.634 16.5298 106.764 14.741 106.764 12.79H105.964C105.964 14.491 104.981 15.8702 103.823 16.1643L104.02 16.9397ZM106.764 12.79C106.764 10.5443 104.845 8.782 102.536 8.782V9.582C104.45 9.582 105.964 11.0317 105.964 12.79H106.764ZM102.536 8.782H98.0035V9.582H102.536V8.782ZM97.6035 9.182V9.842H98.4035V9.182H97.6035ZM121.373 9.182L121.743 9.33339L121.969 8.782H121.373V9.182ZM120.493 9.182V8.782H120.221L120.121 9.03468L120.493 9.182ZM116.423 19.456L116.069 19.6418L116.474 20.4138L116.795 19.6033L116.423 19.456ZM111.033 9.182L111.387 8.99617L111.275 8.782H111.033V9.182ZM110.197 9.182V8.782H109.536L109.843 9.36763L110.197 9.182ZM115.983 20.226L116.351 20.3821L116.425 20.208L116.338 20.0404L115.983 20.226ZM113.959 25L113.591 24.8439L113.355 25.4H113.959V25ZM114.905 25V25.4H115.174L115.275 25.1514L114.905 25ZM121.373 8.782H120.493V9.582H121.373V8.782ZM120.121 9.03468L116.051 19.3087L116.795 19.6033L120.865 9.32932L120.121 9.03468ZM116.777 19.2702L111.387 8.99617L110.679 9.36783L116.069 19.6418L116.777 19.2702ZM111.033 8.782H110.197V9.582H111.033V8.782ZM109.843 9.36763L115.629 20.4116L116.338 20.0404L110.552 8.99637L109.843 9.36763ZM115.615 20.0699L113.591 24.8439L114.327 25.1561L116.351 20.3821L115.615 20.0699ZM113.959 25.4H114.905V24.6H113.959V25.4ZM115.275 25.1514L121.743 9.33339L121.003 9.03061L114.535 24.8486L115.275 25.1514ZM134.845 25V25.4H135.421L135.219 24.8603L134.845 25ZM128.949 9.182L129.323 9.04229L129.226 8.782H128.949V9.182ZM128.069 9.182V8.782H127.791L127.694 9.04229L128.069 9.182ZM122.173 25L121.798 24.8603L121.597 25.4H122.173V25ZM123.097 25V25.4H123.378L123.473 25.1357L123.097 25ZM128.509 9.996L128.885 9.86028L128.509 8.81712L128.132 9.86028L128.509 9.996ZM133.921 25L133.544 25.1357L133.64 25.4H133.921V25ZM135.219 24.8603L129.323 9.04229L128.574 9.32171L134.47 25.1397L135.219 24.8603ZM128.949 8.782H128.069V9.582H128.949V8.782ZM127.694 9.04229L121.798 24.8603L122.547 25.1397L128.443 9.32171L127.694 9.04229ZM122.173 25.4H123.097V24.6H122.173V25.4ZM123.473 25.1357L128.885 10.1317L128.132 9.86028L122.72 24.8643L123.473 25.1357ZM128.132 10.1317L133.544 25.1357L134.297 24.8643L128.885 9.86028L128.132 10.1317ZM133.921 25.4H134.845V24.6H133.921V25.4ZM138.704 25H138.304V25.4H138.704V25ZM139.452 15.98H139.052V16.38H139.452V15.98ZM139.452 9.182H139.852V8.782H139.452V9.182ZM138.704 9.182V8.782H138.304V9.182H138.704ZM139.452 16.64V16.24H139.052V16.64H139.452ZM139.452 24.34H139.052V24.74H139.452V24.34ZM138.704 25.4H143.148V24.6H138.704V25.4ZM143.148 25.4C145.797 25.4 147.948 23.2112 147.948 20.49H147.148C147.148 22.7848 145.34 24.6 143.148 24.6V25.4ZM147.948 20.49C147.948 17.7688 145.797 15.58 143.148 15.58V16.38C145.34 16.38 147.148 18.1952 147.148 20.49H147.948ZM143.148 15.58H139.452V16.38H143.148V15.58ZM139.852 15.98V9.182H139.052V15.98H139.852ZM139.452 8.782H138.704V9.582H139.452V8.782ZM138.304 9.182V25H139.104V9.182H138.304ZM139.452 17.04H143.148V16.24H139.452V17.04ZM143.148 17.04C144.861 17.04 146.334 18.5519 146.334 20.49H147.134C147.134 18.1601 145.352 16.24 143.148 16.24V17.04ZM146.334 20.49C146.334 22.4281 144.861 23.94 143.148 23.94V24.74C145.352 24.74 147.134 22.8199 147.134 20.49H146.334ZM143.148 23.94H139.452V24.74H143.148V23.94ZM139.852 24.34V16.64H139.052V24.34H139.852ZM158.599 9.842V10.242H158.999V9.842H158.599ZM158.599 9.182H158.999V8.782H158.599V9.182ZM150.635 9.182V8.782H150.235V9.182H150.635ZM150.635 9.842H150.235V10.242H150.635V9.842ZM154.221 9.842H154.621V9.442H154.221V9.842ZM154.221 25H153.821V25.4H154.221V25ZM155.013 25V25.4H155.413V25H155.013ZM155.013 9.842V9.442H154.613V9.842H155.013ZM158.999 9.842V9.182H158.199V9.842H158.999ZM158.599 8.782H150.635V9.582H158.599V8.782ZM150.235 9.182V9.842H151.035V9.182H150.235ZM150.635 10.242H154.221V9.442H150.635V10.242ZM153.821 9.842V25H154.621V9.842H153.821ZM154.221 25.4H155.013V24.6H154.221V25.4ZM155.413 25V9.842H154.613V25H155.413ZM155.013 10.242H158.599V9.442H155.013V10.242ZM160.566 25V25.4H160.836L160.937 25.15L160.566 25ZM162.854 19.346V18.946H162.584L162.483 19.196L162.854 19.346ZM170.092 19.346L170.463 19.1972L170.363 18.946H170.092V19.346ZM172.358 25L171.987 25.1488L172.087 25.4H172.358V25ZM173.238 25V25.4H173.832L173.609 24.8497L173.238 25ZM166.814 9.16L167.185 9.00967L167.083 8.76H166.814V9.16ZM166.11 9.16V8.76H165.841L165.739 9.00967L166.11 9.16ZM159.686 25L159.315 24.8497L159.092 25.4H159.686V25ZM163.096 18.686L162.723 18.5412L162.512 19.086H163.096V18.686ZM166.462 10.018L166.835 9.87238L166.461 8.91612L166.089 9.8732L166.462 10.018ZM169.85 18.686V19.086H170.436L170.223 18.5404L169.85 18.686ZM160.937 25.15L163.225 19.496L162.483 19.196L160.195 24.85L160.937 25.15ZM162.854 19.746H170.092V18.946H162.854V19.746ZM169.721 19.4948L171.987 25.1488L172.729 24.8512L170.463 19.1972L169.721 19.4948ZM172.358 25.4H173.238V24.6H172.358V25.4ZM173.609 24.8497L167.185 9.00967L166.443 9.31033L172.867 25.1503L173.609 24.8497ZM166.814 8.76H166.11V9.56H166.814V8.76ZM165.739 9.00967L159.315 24.8497L160.057 25.1503L166.481 9.31033L165.739 9.00967ZM159.686 25.4H160.566V24.6H159.686V25.4ZM163.469 18.8308L166.835 10.1628L166.089 9.8732L162.723 18.5412L163.469 18.8308ZM166.089 10.1636L169.477 18.8316L170.223 18.5404L166.835 9.87238L166.089 10.1636ZM169.85 18.286H163.096V19.086H169.85V18.286ZM182.292 9.842V10.242H182.692V9.842H182.292ZM182.292 9.182H182.692V8.782H182.292V9.182ZM174.328 9.182V8.782H173.928V9.182H174.328ZM174.328 9.842H173.928V10.242H174.328V9.842ZM177.914 9.842H178.314V9.442H177.914V9.842ZM177.914 25H177.514V25.4H177.914V25ZM178.706 25V25.4H179.106V25H178.706ZM178.706 9.842V9.442H178.306V9.842H178.706ZM182.692 9.842V9.182H181.892V9.842H182.692ZM182.292 8.782H174.328V9.582H182.292V8.782ZM173.928 9.182V9.842H174.728V9.182H173.928ZM174.328 10.242H177.914V9.442H174.328V10.242ZM177.514 9.842V25H178.314V9.842H177.514ZM177.914 25.4H178.706V24.6H177.914V25.4ZM179.106 25V9.842H178.306V25H179.106ZM178.706 10.242H182.292V9.442H178.706V10.242ZM196.319 9.182L196.69 9.33339L196.915 8.782H196.319V9.182ZM195.439 9.182V8.782H195.167L195.067 9.03468L195.439 9.182ZM191.369 19.456L191.015 19.6418L191.42 20.4138L191.741 19.6033L191.369 19.456ZM185.979 9.182L186.333 8.99617L186.221 8.782H185.979V9.182ZM185.143 9.182V8.782H184.482L184.789 9.36763L185.143 9.182ZM190.929 20.226L191.298 20.3821L191.371 20.208L191.284 20.0404L190.929 20.226ZM188.905 25L188.537 24.8439L188.301 25.4H188.905V25ZM189.851 25V25.4H190.12L190.222 25.1514L189.851 25ZM196.319 8.782H195.439V9.582H196.319V8.782ZM195.067 9.03468L190.997 19.3087L191.741 19.6033L195.811 9.32932L195.067 9.03468ZM191.723 19.2702L186.333 8.99617L185.625 9.36783L191.015 19.6418L191.723 19.2702ZM185.979 8.782H185.143V9.582H185.979V8.782ZM184.789 9.36763L190.575 20.4116L191.284 20.0404L185.498 8.99637L184.789 9.36763ZM190.561 20.0699L188.537 24.8439L189.274 25.1561L191.298 20.3821L190.561 20.0699ZM188.905 25.4H189.851V24.6H188.905V25.4ZM190.222 25.1514L196.69 9.33339L195.949 9.03061L189.481 24.8486L190.222 25.1514Z" fill="#08234B"/>
<g clip-path="url(#clip1_239_5461)">
<path d="M45.5 22.5315C45.5 34.6998 35.6496 44.563 23.5 44.563C11.3504 44.563 1.5 34.6998 1.5 22.5315C1.5 10.3632 11.3504 0.5 23.5 0.5C35.6496 0.5 45.5 10.3632 45.5 22.5315Z" stroke="#08234B"/>
<path d="M8.92911 33.3143C8.92911 34.2507 8.65798 33.7382 7.85209 33.7382C7.15739 33.0445 6.45165 32.4248 6 31.5C6 30.5636 5.55227 31.0022 6.35816 31.0022C7.16405 31.0022 8.92911 32.3779 8.92911 33.3143Z" fill="#FFB454"/>
<path d="M18.4484 39.5568C18.4484 40.4932 17.0308 39.788 16.2249 39.788C15.419 39.788 14.2793 39.2601 14.2793 38.3237C14.2793 37.3873 15.0716 37.2448 15.8775 37.2448C16.6833 37.2448 18.4484 38.6204 18.4484 39.5568Z" fill="#FFB454"/>
<path d="M20.985 38.7091C20.985 39.6455 20.019 40.5973 19.2131 40.5973C18.4072 40.5973 16.6074 39.1831 16.6074 38.2467C16.6074 37.3103 18.1293 37.0136 18.9352 37.0136C19.7411 37.0136 20.985 37.7727 20.985 38.7091Z" fill="#FFB454"/>
<path d="M23.4868 39.0944C23.4868 40.0308 22.2429 41.0211 21.437 41.0211C20.6311 41.0211 18.2754 40.0308 18.2754 39.0944C18.2754 38.158 20.1447 37.3989 20.9506 37.3989C21.7565 37.3989 23.4868 38.158 23.4868 39.0944Z" fill="#FFB454"/>
<path d="M24.686 40.2328C24.686 41.1692 24.0837 41.1753 23.2778 41.1753C22.4719 41.1753 20.1162 41.6493 20.1162 40.7129C20.1162 39.7765 22.055 38.9018 22.8609 38.9018C23.6668 38.9018 24.686 39.2964 24.686 40.2328Z" fill="#FFB454"/>
<path d="M11.5354 35.241C11.5354 36.1774 11.1252 36.1273 10.3193 36.1273C9.51346 36.1273 8.26953 34.2508 8.26953 33.3144C8.26953 32.378 8.54073 33.0061 9.34662 33.0061C10.1525 33.0061 11.5354 34.3046 11.5354 35.241Z" fill="#FFB454"/>
<path d="M13.6986 37.2448C13.6986 38.1812 13.3836 37.8614 12.5777 37.8614C11.7718 37.8614 10.6668 36.6784 10.6668 35.742C10.6668 34.8056 10.7039 35.0099 11.5098 35.0099C12.3157 35.0099 13.6986 36.3084 13.6986 37.2448Z" fill="#FFB454"/>
<path d="M16.3994 37.6687C16.3994 38.6051 15.8156 39.3642 15.0097 39.3642C14.2038 39.3642 12.0913 37.4106 12.0913 36.4742C12.0913 35.5378 13.231 35.5879 14.0369 35.5879C14.8428 35.5879 16.3994 36.7323 16.3994 37.6687Z" fill="#FFB454"/>
<path d="M8.77763 34.3121C8.77763 35.2476 8.52052 34.7356 7.7563 34.7356C7.09752 34.0426 6.76806 33.7731 6.33976 32.8492C6.33976 31.9137 5.5754 32.0022 6.33962 32.0022C7.10383 32.0022 8.77763 33.3766 8.77763 34.3121Z" fill="#FF7D47"/>
<path d="M17.8051 40.5487C17.8051 41.4842 16.4608 40.7797 15.6965 40.7797C14.9323 40.7797 13.8516 40.2523 13.8516 39.3168C13.8516 38.3813 14.6029 38.2389 15.3671 38.2389C16.1313 38.2389 17.8051 39.6132 17.8051 40.5487Z" fill="#FF7D47"/>
<path d="M20.2098 39.7018C20.2098 40.6373 19.2938 41.5881 18.5296 41.5881C17.7653 41.5881 16.0586 40.1753 16.0586 39.2398C16.0586 38.3043 17.5018 38.0079 18.266 38.0079C19.0302 38.0079 20.2098 38.7663 20.2098 39.7018Z" fill="#FF7D47"/>
<path d="M22.5825 40.0867C22.5825 41.0223 21.4029 42.0116 20.6387 42.0116C19.8745 42.0116 17.6406 41.0223 17.6406 40.0867C17.6406 39.1512 19.4133 38.3929 20.1775 38.3929C20.9417 38.3929 22.5825 39.1512 22.5825 40.0867Z" fill="#FF7D47"/>
<path d="M24.3391 41.8829C24.3391 42.8184 23.149 42.1656 22.3848 42.1656C21.6206 42.1656 19.3867 42.6391 19.3867 41.7036C19.3867 40.7681 21.6783 39.6699 22.4425 39.6699C23.2067 39.6699 24.3391 40.9474 24.3391 41.8829Z" fill="#FF7D47"/>
<path d="M11.2484 36.237C11.2484 37.1725 10.8594 37.1224 10.0952 37.1224C9.33097 37.1224 8.15137 35.2477 8.15137 34.3122C8.15137 33.3767 8.40855 34.0042 9.17276 34.0042C9.93698 34.0042 11.2484 35.3015 11.2484 36.237Z" fill="#FF7D47"/>
<path d="M13.2997 38.2389C13.2997 39.1744 13.001 38.8549 12.2368 38.8549C11.4725 38.8549 10.4247 37.673 10.4247 36.7375C10.4247 35.802 10.4599 36.006 11.2241 36.006C11.9883 36.006 13.2997 37.3033 13.2997 38.2389Z" fill="#FF7D47"/>
<path d="M15.8608 38.6624C15.8608 39.5979 15.3072 40.3563 14.543 40.3563C13.7788 40.3563 11.7755 38.4045 11.7755 37.4689C11.7755 36.5334 12.8563 36.5835 13.6205 36.5835C14.3847 36.5835 15.8608 37.7269 15.8608 38.6624Z" fill="#FF7D47"/>
<path d="M38.7574 33.3143C38.7574 34.2507 39.0286 33.7382 39.8345 33.7382C40.5292 33.0446 40.8766 32.7748 41.3282 31.85C41.3282 30.9136 42.1343 31.0022 41.3284 31.0022C40.5225 31.0022 38.7574 32.3779 38.7574 33.3143Z" fill="#FFB454"/>
<path d="M29.2381 39.5569C29.2381 40.4933 30.6557 39.7881 31.4616 39.7881C32.2675 39.7881 33.4072 39.2602 33.4072 38.3238C33.4072 37.3874 32.615 37.2448 31.8091 37.2448C31.0032 37.2448 29.2381 38.6205 29.2381 39.5569Z" fill="#FFB454"/>
<path d="M26.7015 38.7091C26.7015 39.6455 27.6675 40.5973 28.4734 40.5973C29.2793 40.5973 31.0791 39.1831 31.0791 38.2467C31.0791 37.3103 29.5572 37.0136 28.7513 37.0136C27.9455 37.0136 26.7015 37.7727 26.7015 38.7091Z" fill="#FFB454"/>
<path d="M24.1997 39.0944C24.1997 40.0308 25.4437 41.0211 26.2496 41.0211C27.0554 41.0211 29.4111 40.0308 29.4111 39.0944C29.4111 38.158 27.5418 37.3989 26.7359 37.3989C25.9301 37.3989 24.1997 38.158 24.1997 39.0944Z" fill="#FFB454"/>
<path d="M23.0005 40.2329C23.0005 41.1693 23.6028 41.1753 24.4087 41.1753C25.2146 41.1753 27.5703 41.6493 27.5703 40.7129C27.5703 39.7765 25.6315 38.9018 24.8256 38.9018C24.0198 38.9018 23.0005 39.2965 23.0005 40.2329Z" fill="#FFB454"/>
<path d="M36.1511 35.241C36.1511 36.1774 36.5613 36.1273 37.3672 36.1273C38.1731 36.1273 39.417 34.2508 39.417 33.3144C39.417 32.378 39.1458 33.0061 38.3399 33.0061C37.534 33.0061 36.1511 34.3046 36.1511 35.241Z" fill="#FFB454"/>
<path d="M33.9879 37.2448C33.9879 38.1812 34.3029 37.8614 35.1088 37.8614C35.9147 37.8614 37.0197 36.6784 37.0197 35.742C37.0197 34.8056 36.9826 35.0099 36.1767 35.0099C35.3708 35.0099 33.9879 36.3084 33.9879 37.2448Z" fill="#FFB454"/>
<path d="M31.2871 37.6687C31.2871 38.6051 31.871 39.3642 32.6769 39.3642C33.4827 39.3642 35.5952 37.4106 35.5952 36.4742C35.5952 35.5378 34.4555 35.5879 33.6496 35.5879C32.8438 35.5879 31.2871 36.7323 31.2871 37.6687Z" fill="#FFB454"/>
<path d="M38.9089 34.3121C38.9089 35.2476 39.236 34 40.0003 34C40.659 33.3071 40.5719 33.924 41.0002 33C41.0002 32.0645 42.1111 32.0023 41.3469 32.0023C40.5826 32.0023 38.9089 33.3766 38.9089 34.3121Z" fill="#FF7D47"/>
<path d="M29.8814 40.5487C29.8814 41.4842 31.2258 40.7797 31.99 40.7797C32.7542 40.7797 33.835 40.2523 33.835 39.3168C33.835 38.3813 33.0837 38.2389 32.3194 38.2389C31.5552 38.2389 29.8814 39.6132 29.8814 40.5487Z" fill="#FF7D47"/>
<path d="M27.4767 39.7018C27.4767 40.6373 28.3928 41.5881 29.157 41.5881C29.9212 41.5881 31.6279 40.1753 31.6279 39.2398C31.6279 38.3043 30.1848 38.0079 29.4205 38.0079C28.6563 38.0079 27.4767 38.7663 27.4767 39.7018Z" fill="#FF7D47"/>
<path d="M25.104 40.0867C25.104 41.0223 26.2836 42.0116 27.0478 42.0116C27.812 42.0116 30.0459 41.0223 30.0459 40.0867C30.0459 39.1512 28.2733 38.3929 27.509 38.3929C26.7448 38.3929 25.104 39.1512 25.104 40.0867Z" fill="#FF7D47"/>
<path d="M23.3474 41.8829C23.3474 42.8184 24.5375 42.1656 25.3017 42.1656C26.0659 42.1656 28.2998 42.6391 28.2998 41.7036C28.2998 40.7681 26.0082 39.6699 25.244 39.6699C24.4798 39.6699 23.3474 40.9474 23.3474 41.8829Z" fill="#FF7D47"/>
<path d="M36.4382 36.237C36.4382 37.1725 36.8271 37.1225 37.5913 37.1225C38.3556 37.1225 39.5352 35.2477 39.5352 34.3122C39.5352 33.3767 39.278 34.0042 38.5138 34.0042C37.7495 34.0042 36.4382 35.3015 36.4382 36.237Z" fill="#FF7D47"/>
<path d="M34.3868 38.2389C34.3868 39.1744 34.6856 38.8549 35.4498 38.8549C36.214 38.8549 37.2618 37.673 37.2618 36.7375C37.2618 35.802 37.2267 36.0061 36.4624 36.0061C35.6982 36.0061 34.3868 37.3034 34.3868 38.2389Z" fill="#FF7D47"/>
<path d="M31.8257 38.6624C31.8257 39.5979 32.3793 40.3563 33.1435 40.3563C33.9078 40.3563 35.911 38.4045 35.911 37.469C35.911 36.5335 34.8303 36.5835 34.066 36.5835C33.3018 36.5835 31.8257 37.7269 31.8257 38.6624Z" fill="#FF7D47"/>
<path d="M23 36.5H24.5L25 37.5V39L24.5 40.5L24 42H23.5L23 40.5L22.5 39V37.5L23 36.5Z" fill="white"/>
<path d="M43.5 22.4993C43.5 33.5445 34.5457 42.4985 23.5 42.4985C12.4543 42.4985 3.5 33.5445 3.5 22.4993C3.5 11.454 12.4543 2.5 23.5 2.5C34.5457 2.5 43.5 11.454 43.5 22.4993Z" stroke="#08234B"/>
<path d="M23.6311 3.00203L23.5592 3.00731L23.2558 3.62689C22.2808 5.61941 21.9599 6.29356 21.5969 7.11732C21.2129 7.99213 20.8972 8.85462 20.6271 9.76463C20.5886 9.89488 20.5044 10.1167 20.4395 10.2575C18.6578 14.1563 17.9441 20.7745 18.6526 26.8031C18.6859 27.0883 18.721 27.3699 18.7315 27.4262C18.7403 27.4843 18.7473 27.5336 18.7438 27.5354C18.742 27.5371 18.6298 27.5653 18.4947 27.5952C17.0445 27.9279 16.194 28.4841 15.7258 29.4082C15.6206 29.6141 15.4329 30.0824 15.3488 30.3464C14.984 31.494 14.9121 32.61 15.1015 34.2188C15.1488 34.6218 15.1524 34.6394 15.1874 34.6324C15.2032 34.6289 15.3014 34.4986 15.4084 34.3437C16.08 33.3598 16.5044 32.8212 16.9937 32.3301C17.7004 31.6225 18.3913 31.2124 19.2541 30.9924C19.3347 30.9712 19.4031 30.9572 19.4084 30.9607C19.4119 30.9642 19.4733 31.1737 19.5452 31.4271C20.0414 33.1662 20.6166 34.4705 21.3707 35.5565C21.5478 35.8117 21.625 35.9033 21.8617 36.1426C22.1353 36.4172 22.4018 36.6372 22.5877 36.7411C22.6947 36.8009 22.6947 36.7833 22.5824 37.0562C22.4895 37.2815 22.393 37.6423 22.3527 37.9187C22.2492 38.6227 22.3422 39.3602 22.6385 40.1629C22.8998 40.8705 23.4592 42.0128 23.6346 42.1941C23.824 42.3913 23.9713 42.2417 24.3781 41.439C24.8586 40.4903 25.1164 39.7352 25.2058 39.0188C25.2339 38.7847 25.2339 38.1792 25.2058 37.9715C25.1515 37.5789 25.0515 37.1882 24.927 36.889L24.8656 36.7393L24.9077 36.7129C25.027 36.6337 25.2988 36.4172 25.4268 36.2993C26.1282 35.6427 26.7999 34.5127 27.368 33.0342C27.5276 32.6152 27.7696 31.8777 27.9046 31.3919L28.0169 30.9924L28.0695 31.0029C28.3115 31.0557 28.7043 31.2071 29.0077 31.3638C29.4706 31.6049 29.8547 31.8953 30.2896 32.3301C30.7788 32.8212 31.2032 33.3598 31.8748 34.3437C31.9818 34.4986 32.08 34.6289 32.0958 34.6324C32.1309 34.6394 32.1344 34.6218 32.1817 34.2188C32.3957 32.3987 32.2799 31.193 31.7661 29.8835C31.461 29.1072 31.1418 28.683 30.5631 28.2923C30.1545 28.0177 29.4776 27.7484 28.8253 27.604L28.6885 27.5741L28.699 27.5019C28.7534 27.164 28.8656 26.1343 28.92 25.5006C29.0182 24.3143 29.0498 23.4746 29.0498 22.0859C29.0498 20.6971 29.0182 19.8557 28.92 18.6711C28.6394 15.318 27.9713 12.3961 26.9858 10.2223C26.8998 10.0322 26.8192 9.81744 26.7543 9.60093C26.5929 9.06056 26.3667 8.40753 26.2159 8.03966C25.7232 6.83922 25.3496 6.02954 24.2203 3.7061L23.8819 3.00907L23.7924 3.00203C23.7433 3.00027 23.6714 2.99851 23.6311 3.00203ZM24.9217 9.97585C25.2181 9.99169 25.6758 10.0375 26.251 10.1096C26.365 10.1237 26.3562 10.1149 26.5263 10.481C26.8683 11.2221 27.2295 12.2606 27.4961 13.2674C28.4658 16.9162 28.7797 21.7021 28.3395 26.0815C28.2782 26.6958 28.1852 27.4403 28.1694 27.4579C28.1572 27.4702 27.2997 27.4967 26.2177 27.5178L25.6302 27.5301L25.5723 27.3523C25.4531 26.9686 25.2286 26.6007 24.9498 26.3314C24.6534 26.0445 24.3501 25.879 23.966 25.7981C23.831 25.7682 23.4347 25.7682 23.2997 25.7981C22.9156 25.879 22.6122 26.0445 22.3159 26.3314C22.0406 26.599 21.8389 26.9246 21.7039 27.3189L21.6337 27.5266L21.1778 27.5248C20.5324 27.5231 19.2874 27.4914 19.2734 27.4755C19.247 27.4491 19.0997 26.1466 19.0401 25.4126C18.9437 24.2579 18.9156 23.5063 18.9156 22.0859C18.9156 20.8379 18.9279 20.4454 18.9858 19.4984C19.1366 17.1028 19.4996 14.841 20.0397 12.9153C20.1765 12.4331 20.4746 11.5442 20.6394 11.1288C20.7815 10.775 20.9937 10.2944 21.0568 10.1853L21.0919 10.1255L21.5127 10.0691C21.7617 10.0357 22.1317 10.0023 22.4228 9.98641C22.6929 9.97057 22.9647 9.95473 23.0278 9.95121C23.2435 9.93889 24.5623 9.95649 24.9217 9.97585ZM24.5956 36.9981C24.6675 37.16 24.7622 37.4769 24.806 37.7022C24.9603 38.4766 24.8884 39.2652 24.5851 40.1013C24.4307 40.5255 24.0572 41.3352 23.8468 41.6995L23.7872 41.8034L23.7609 41.7611C23.7118 41.6872 23.3873 41.0289 23.2435 40.7085C22.8139 39.7668 22.6701 39.2106 22.6701 38.4907C22.6684 37.9891 22.7385 37.6053 22.9051 37.1829C23.0068 36.9294 22.9823 36.947 23.1541 36.9946C23.233 37.0174 23.3014 37.0368 23.3032 37.0386C23.3049 37.0386 23.3751 37.4047 23.4575 37.8482C23.6556 38.9255 23.6381 38.8427 23.6784 38.8427C23.7188 38.8427 23.6995 38.9255 23.8696 37.9979C23.9485 37.5772 24.0186 37.1917 24.0292 37.1424L24.0467 37.0544L24.1554 37.0315C24.215 37.0192 24.3238 36.9875 24.3957 36.9594C24.4676 36.9312 24.5342 36.9083 24.5412 36.9083C24.5482 36.9066 24.5745 36.9488 24.5956 36.9981Z" fill="#08234B"/>
<path d="M23.5008 11.8786C22.7502 11.9754 22.0786 12.5563 21.8208 13.3325C21.7314 13.5983 21.7051 13.7708 21.7051 14.0859C21.7051 14.401 21.7314 14.5735 21.8208 14.8392C22.0085 15.4043 22.4206 15.8813 22.9273 16.1189C23.4412 16.3618 24.0216 16.3706 24.5372 16.1471C25.933 15.5416 26.275 13.5684 25.1755 12.4665C24.7178 12.0071 24.1216 11.7977 23.5008 11.8786ZM24.0023 12.3187C24.3793 12.3856 24.7458 12.6056 24.9878 12.9101C25.1299 13.0861 25.2772 13.3836 25.3368 13.6106C25.3789 13.7673 25.3842 13.8183 25.3842 14.0859C25.3842 14.3534 25.3789 14.4045 25.3368 14.5611C25.2386 14.9308 25.0106 15.2951 24.7388 15.5134C24.1426 15.9922 23.385 15.9922 22.7888 15.5134C22.517 15.2951 22.289 14.9308 22.1908 14.5611C22.1487 14.4045 22.1435 14.3534 22.1435 14.0859C22.1435 13.8183 22.1487 13.7673 22.1908 13.6106C22.3942 12.8432 23.0291 12.3081 23.748 12.3011C23.8305 12.2993 23.9444 12.3081 24.0023 12.3187Z" fill="#08234B"/>
<path d="M23.4752 17.4108C22.9982 17.5041 22.6089 17.8069 22.3844 18.2575C21.9706 19.083 22.3038 20.125 23.1052 20.5105C23.3349 20.6196 23.4664 20.6495 23.7295 20.6495C23.9925 20.6495 24.124 20.6196 24.3538 20.5105C24.85 20.2711 25.1762 19.7906 25.2428 19.2044C25.306 18.6341 25.0675 18.0498 24.6343 17.7083C24.4923 17.5974 24.2433 17.4724 24.0802 17.4319C23.9206 17.3914 23.626 17.3809 23.4752 17.4108ZM23.9539 17.8526C24.2661 17.9248 24.5291 18.1448 24.6852 18.4687C24.8518 18.8154 24.8588 19.2062 24.7027 19.5441C24.6291 19.7061 24.5765 19.7835 24.452 19.9085C24.1398 20.2289 23.6769 20.3081 23.2805 20.1127C22.9053 19.9261 22.6422 19.4773 22.6422 19.0231C22.6422 18.7521 22.7562 18.4229 22.9193 18.2275C23.1894 17.9037 23.5716 17.7664 23.9539 17.8526Z" fill="#08234B"/>
</g>
</g>
<defs>
<clipPath id="clip0_239_5461">
<rect width="198" height="45" fill="white"/>
</clipPath>
<clipPath id="clip1_239_5461">
<rect width="46" height="45" fill="white"/>
</clipPath>
</defs>
</svg>
