<svg width="238" height="56" viewBox="0 0 238 56" fill="none" xmlns="http://www.w3.org/2000/svg">
<g clip-path="url(#clip0_274_381)">
<path d="M116.511 39.748H116.103L113.847 45.496L111.699 39.748H111.291L113.643 45.928L112.731 48.196H113.139L116.511 39.748ZM121.564 46V39.748H121.204V43.048H119.764C118.432 43.048 117.352 41.956 117.352 40.6V39.748H116.992V40.6C116.992 42.124 118.24 43.36 119.776 43.36H121.204V46H121.564ZM129.198 42.844C129.198 41.032 127.698 39.568 125.886 39.568C124.062 39.568 122.586 41.044 122.586 42.868C122.586 44.692 124.062 46.18 125.886 46.18C127.206 46.18 128.346 45.4 128.874 44.284H128.478C127.974 45.196 127.002 45.82 125.886 45.82C124.278 45.82 122.97 44.488 122.97 42.844H129.198ZM125.886 39.928C127.398 39.928 128.646 41.056 128.814 42.532H122.97C123.138 41.056 124.374 39.928 125.886 39.928ZM135.493 37.372H132.337C131.161 37.372 130.213 38.44 130.213 39.748V42.832C130.213 44.68 131.749 46.18 133.549 46.18C135.373 46.18 136.861 44.68 136.861 42.844C136.861 41.032 135.373 39.568 133.549 39.568C132.169 39.568 130.837 40.444 130.597 41.512V39.748C130.597 38.632 131.365 37.732 132.337 37.732H135.493V37.372ZM136.477 42.844C136.477 44.488 135.169 45.82 133.537 45.82C131.917 45.82 130.597 44.488 130.597 42.844C130.597 41.224 131.917 39.928 133.537 39.928C135.157 39.928 136.477 41.224 136.477 42.844ZM137.88 46H138.24V42.868H142.464V46H142.824V39.748H142.464V42.556H138.24V39.748H137.88V46ZM148.928 46V39.748H148.592V46H148.928ZM144.14 46H146.288C147.272 46 148.064 45.208 148.064 44.224C148.064 43.24 147.272 42.436 146.288 42.436H144.5V39.748H144.14V46ZM144.5 42.748H146.216C147.02 42.748 147.68 43.408 147.68 44.224C147.68 45.028 147.02 45.688 146.216 45.688H144.5V42.748ZM155.324 46V39.748H154.796L150.608 45.64V39.748H150.248V46H150.776L154.964 40.108V46H155.324ZM152.804 38.572C152.144 38.572 151.604 38.152 151.34 37.552H150.98C151.232 38.332 151.964 38.908 152.804 38.908C153.644 38.908 154.388 38.332 154.64 37.552H154.28C154.016 38.152 153.464 38.572 152.804 38.572ZM160.133 46H165.497V47.632H165.857V45.688H165.077V39.748H164.717V45.688H160.493V39.748H160.133V46ZM173.069 42.844C173.069 41.032 171.569 39.568 169.757 39.568C167.933 39.568 166.457 41.044 166.457 42.868C166.457 44.692 167.933 46.18 169.757 46.18C171.077 46.18 172.217 45.4 172.745 44.284H172.349C171.845 45.196 170.873 45.82 169.757 45.82C168.149 45.82 166.841 44.488 166.841 42.844H173.069ZM169.757 39.928C171.269 39.928 172.517 41.056 172.685 42.532H166.841C167.009 41.056 168.245 39.928 169.757 39.928ZM174.084 46H174.444V42.868H178.668V46H179.028V39.748H178.668V42.556H174.444V39.748H174.084V46ZM181.785 46H182.145V40.06H184.065V39.748H179.865V40.06H181.785V46ZM184.906 48.196H185.266V44.26C185.842 45.496 186.91 46.18 188.17 46.18C190.006 46.18 191.53 44.68 191.53 42.844C191.53 41.032 190.006 39.568 188.17 39.568C187.006 39.568 185.83 40.216 185.266 41.5V39.748H184.906V48.196ZM191.146 42.844C191.146 44.488 189.838 45.82 188.206 45.82C186.586 45.82 185.266 44.488 185.266 42.844C185.266 41.224 186.586 39.928 188.206 39.928C189.826 39.928 191.146 41.224 191.146 42.844Z" fill="#08234B"/>
<path d="M116.511 39.748L116.603 39.7851L116.658 39.648H116.511V39.748ZM116.103 39.748V39.648H116.034L116.01 39.7115L116.103 39.748ZM113.847 45.496L113.753 45.531L113.844 45.7755L113.94 45.5325L113.847 45.496ZM111.699 39.748L111.792 39.713L111.768 39.648H111.699V39.748ZM111.291 39.748V39.648H111.146L111.197 39.7836L111.291 39.748ZM113.643 45.928L113.735 45.9653L113.75 45.929L113.736 45.8924L113.643 45.928ZM112.731 48.196L112.638 48.1587L112.583 48.296H112.731V48.196ZM113.139 48.196V48.296H113.206L113.231 48.2331L113.139 48.196ZM116.511 39.648H116.103V39.848H116.511V39.648ZM116.01 39.7115L113.754 45.4595L113.94 45.5325L116.196 39.7845L116.01 39.7115ZM113.94 45.461L111.792 39.713L111.605 39.783L113.753 45.531L113.94 45.461ZM111.699 39.648H111.291V39.848H111.699V39.648ZM111.197 39.7836L113.549 45.9636L113.736 45.8924L111.384 39.7124L111.197 39.7836ZM113.55 45.8907L112.638 48.1587L112.823 48.2333L113.735 45.9653L113.55 45.8907ZM112.731 48.296H113.139V48.096H112.731V48.296ZM113.231 48.2331L116.603 39.7851L116.418 39.7109L113.046 48.1589L113.231 48.2331ZM121.564 46V46.1H121.664V46H121.564ZM121.564 39.748H121.664V39.648H121.564V39.748ZM121.204 39.748V39.648H121.104V39.748H121.204ZM121.204 43.048V43.148H121.304V43.048H121.204ZM117.352 39.748H117.452V39.648H117.352V39.748ZM116.992 39.748V39.648H116.892V39.748H116.992ZM121.204 43.36H121.304V43.26H121.204V43.36ZM121.204 46H121.104V46.1H121.204V46ZM121.664 46V39.748H121.464V46H121.664ZM121.564 39.648H121.204V39.848H121.564V39.648ZM121.104 39.748V43.048H121.304V39.748H121.104ZM121.204 42.948H119.764V43.148H121.204V42.948ZM119.764 42.948C118.488 42.948 117.452 41.9021 117.452 40.6H117.252C117.252 42.0099 118.375 43.148 119.764 43.148V42.948ZM117.452 40.6V39.748H117.252V40.6H117.452ZM117.352 39.648H116.992V39.848H117.352V39.648ZM116.892 39.748V40.6H117.092V39.748H116.892ZM116.892 40.6C116.892 42.1801 118.185 43.46 119.776 43.46V43.26C118.294 43.26 117.092 42.0679 117.092 40.6H116.892ZM119.776 43.46H121.204V43.26H119.776V43.46ZM121.104 43.36V46H121.304V43.36H121.104ZM121.204 46.1H121.564V45.9H121.204V46.1ZM129.198 42.844V42.944H129.298V42.844H129.198ZM128.874 44.284L128.964 44.3268L129.032 44.184H128.874V44.284ZM128.478 44.284V44.184H128.419L128.39 44.2356L128.478 44.284ZM122.97 42.844V42.744H122.87V42.844H122.97ZM128.814 42.532V42.632H128.926L128.913 42.5207L128.814 42.532ZM122.97 42.532L122.87 42.5207L122.858 42.632H122.97V42.532ZM129.298 42.844C129.298 40.9754 127.751 39.468 125.886 39.468V39.668C127.644 39.668 129.098 41.0886 129.098 42.844H129.298ZM125.886 39.468C124.006 39.468 122.486 40.9888 122.486 42.868H122.686C122.686 41.0992 124.117 39.668 125.886 39.668V39.468ZM122.486 42.868C122.486 44.7468 124.006 46.28 125.886 46.28V46.08C124.117 46.08 122.686 44.6372 122.686 42.868H122.486ZM125.886 46.28C127.246 46.28 128.42 45.4762 128.964 44.3268L128.783 44.2412C128.271 45.3238 127.165 46.08 125.886 46.08V46.28ZM128.874 44.184H128.478V44.384H128.874V44.184ZM128.39 44.2356C127.903 45.1174 126.963 45.72 125.886 45.72V45.92C127.04 45.92 128.044 45.2746 128.565 44.3324L128.39 44.2356ZM125.886 45.72C124.335 45.72 123.07 44.4346 123.07 42.844H122.87C122.87 44.5414 124.221 45.92 125.886 45.92V45.72ZM122.97 42.944H129.198V42.744H122.97V42.944ZM125.886 40.028C127.347 40.028 128.552 41.1177 128.714 42.5433L128.913 42.5207C128.739 40.9943 127.449 39.828 125.886 39.828V40.028ZM128.814 42.432H122.97V42.632H128.814V42.432ZM123.069 42.5433C123.231 41.1172 124.425 40.028 125.886 40.028V39.828C124.322 39.828 123.044 40.9948 122.87 42.5207L123.069 42.5433ZM135.493 37.372H135.593V37.272H135.493V37.372ZM130.597 41.512H130.497L130.694 41.5339L130.597 41.512ZM135.493 37.732V37.832H135.593V37.732H135.493ZM135.493 37.272H132.337V37.472H135.493V37.272ZM132.337 37.272C131.095 37.272 130.113 38.3958 130.113 39.748H130.313C130.313 38.4842 131.226 37.472 132.337 37.472V37.272ZM130.113 39.748V42.832H130.313V39.748H130.113ZM130.113 42.832C130.113 44.7357 131.694 46.28 133.549 46.28V46.08C131.803 46.08 130.313 44.6243 130.313 42.832H130.113ZM133.549 46.28C135.429 46.28 136.961 44.7345 136.961 42.844H136.761C136.761 44.6255 135.317 46.08 133.549 46.08V46.28ZM136.961 42.844C136.961 40.9756 135.427 39.468 133.549 39.468V39.668C135.319 39.668 136.761 41.0884 136.761 42.844H136.961ZM133.549 39.468C132.838 39.468 132.141 39.6932 131.59 40.056C131.04 40.4181 130.626 40.9236 130.499 41.4901L130.694 41.5339C130.807 41.0324 131.179 40.5659 131.7 40.223C132.22 39.8808 132.879 39.668 133.549 39.668V39.468ZM130.697 41.512V39.748H130.497V41.512H130.697ZM130.697 39.748C130.697 38.6726 131.433 37.832 132.337 37.832V37.632C131.296 37.632 130.497 38.5914 130.497 39.748H130.697ZM132.337 37.832H135.493V37.632H132.337V37.832ZM135.593 37.732V37.372H135.393V37.732H135.593ZM136.377 42.844C136.377 44.4341 135.112 45.72 133.537 45.72V45.92C135.225 45.92 136.577 44.5419 136.577 42.844H136.377ZM133.537 45.72C131.973 45.72 130.697 44.4338 130.697 42.844H130.497C130.497 44.5422 131.86 45.92 133.537 45.92V45.72ZM130.697 42.844C130.697 41.2803 131.971 40.028 133.537 40.028V39.828C131.862 39.828 130.497 41.1677 130.497 42.844H130.697ZM133.537 40.028C135.102 40.028 136.377 41.2803 136.377 42.844H136.577C136.577 41.1677 135.211 39.828 133.537 39.828V40.028ZM137.88 46H137.78V46.1H137.88V46ZM138.24 46V46.1H138.34V46H138.24ZM138.24 42.868V42.768H138.14V42.868H138.24ZM142.464 42.868H142.564V42.768H142.464V42.868ZM142.464 46H142.364V46.1H142.464V46ZM142.824 46V46.1H142.924V46H142.824ZM142.824 39.748H142.924V39.648H142.824V39.748ZM142.464 39.748V39.648H142.364V39.748H142.464ZM142.464 42.556V42.656H142.564V42.556H142.464ZM138.24 42.556H138.14V42.656H138.24V42.556ZM138.24 39.748H138.34V39.648H138.24V39.748ZM137.88 39.748V39.648H137.78V39.748H137.88ZM137.88 46.1H138.24V45.9H137.88V46.1ZM138.34 46V42.868H138.14V46H138.34ZM138.24 42.968H142.464V42.768H138.24V42.968ZM142.364 42.868V46H142.564V42.868H142.364ZM142.464 46.1H142.824V45.9H142.464V46.1ZM142.924 46V39.748H142.724V46H142.924ZM142.824 39.648H142.464V39.848H142.824V39.648ZM142.364 39.748V42.556H142.564V39.748H142.364ZM142.464 42.456H138.24V42.656H142.464V42.456ZM138.34 42.556V39.748H138.14V42.556H138.34ZM138.24 39.648H137.88V39.848H138.24V39.648ZM137.78 39.748V46H137.98V39.748H137.78ZM148.928 46V46.1H149.028V46H148.928ZM148.928 39.748H149.028V39.648H148.928V39.748ZM148.592 39.748V39.648H148.492V39.748H148.592ZM148.592 46H148.492V46.1H148.592V46ZM144.14 46H144.04V46.1H144.14V46ZM144.5 42.436H144.4V42.536H144.5V42.436ZM144.5 39.748H144.6V39.648H144.5V39.748ZM144.14 39.748V39.648H144.04V39.748H144.14ZM144.5 42.748V42.648H144.4V42.748H144.5ZM144.5 45.688H144.4V45.788H144.5V45.688ZM149.028 46V39.748H148.828V46H149.028ZM148.928 39.648H148.592V39.848H148.928V39.648ZM148.492 39.748V46H148.692V39.748H148.492ZM148.592 46.1H148.928V45.9H148.592V46.1ZM144.14 46.1H146.288V45.9H144.14V46.1ZM146.288 46.1C147.327 46.1 148.164 45.2632 148.164 44.224H147.964C147.964 45.1528 147.217 45.9 146.288 45.9V46.1ZM148.164 44.224C148.164 43.1857 147.328 42.336 146.288 42.336V42.536C147.216 42.536 147.964 43.2943 147.964 44.224H148.164ZM146.288 42.336H144.5V42.536H146.288V42.336ZM144.6 42.436V39.748H144.4V42.436H144.6ZM144.5 39.648H144.14V39.848H144.5V39.648ZM144.04 39.748V46H144.24V39.748H144.04ZM144.5 42.848H146.216V42.648H144.5V42.848ZM146.216 42.848C146.964 42.848 147.58 43.4627 147.58 44.224H147.78C147.78 43.3533 147.076 42.648 146.216 42.648V42.848ZM147.58 44.224C147.58 44.9728 146.965 45.588 146.216 45.588V45.788C147.075 45.788 147.78 45.0832 147.78 44.224H147.58ZM146.216 45.588H144.5V45.788H146.216V45.588ZM144.6 45.688V42.748H144.4V45.688H144.6ZM155.324 46V46.1H155.424V46H155.324ZM155.324 39.748H155.424V39.648H155.324V39.748ZM154.796 39.748V39.648H154.745L154.715 39.6901L154.796 39.748ZM150.608 45.64H150.508V45.9533L150.69 45.6979L150.608 45.64ZM150.608 39.748H150.708V39.648H150.608V39.748ZM150.248 39.748V39.648H150.148V39.748H150.248ZM150.248 46H150.148V46.1H150.248V46ZM150.776 46V46.1H150.828L150.858 46.0579L150.776 46ZM154.964 40.108H155.064V39.7947L154.883 40.0501L154.964 40.108ZM154.964 46H154.864V46.1H154.964V46ZM151.34 37.552L151.432 37.5117L151.406 37.452H151.34V37.552ZM150.98 37.552V37.452H150.843L150.885 37.5827L150.98 37.552ZM154.64 37.552L154.736 37.5827L154.778 37.452H154.64V37.552ZM154.28 37.552V37.452H154.215L154.189 37.5117L154.28 37.552ZM155.424 46V39.748H155.224V46H155.424ZM155.324 39.648H154.796V39.848H155.324V39.648ZM154.715 39.6901L150.527 45.5821L150.69 45.6979L154.878 39.8059L154.715 39.6901ZM150.708 45.64V39.748H150.508V45.64H150.708ZM150.608 39.648H150.248V39.848H150.608V39.648ZM150.148 39.748V46H150.348V39.748H150.148ZM150.248 46.1H150.776V45.9H150.248V46.1ZM150.858 46.0579L155.046 40.1659L154.883 40.0501L150.695 45.9421L150.858 46.0579ZM154.864 40.108V46H155.064V40.108H154.864ZM154.964 46.1H155.324V45.9H154.964V46.1ZM152.804 38.472C152.191 38.472 151.683 38.0822 151.432 37.5117L151.249 37.5923C151.526 38.2218 152.098 38.672 152.804 38.672V38.472ZM151.34 37.452H150.98V37.652H151.34V37.452ZM150.885 37.5827C151.15 38.4012 151.918 39.008 152.804 39.008V38.808C152.011 38.808 151.315 38.2628 151.076 37.5213L150.885 37.5827ZM152.804 39.008C153.69 39.008 154.471 38.4019 154.736 37.5827L154.545 37.5213C154.306 38.2621 153.599 38.808 152.804 38.808V39.008ZM154.64 37.452H154.28V37.652H154.64V37.452ZM154.189 37.5117C153.938 38.0813 153.419 38.472 152.804 38.472V38.672C153.51 38.672 154.095 38.2227 154.372 37.5923L154.189 37.5117ZM160.133 46H160.033V46.1H160.133V46ZM165.497 46H165.597V45.9H165.497V46ZM165.497 47.632H165.397V47.732H165.497V47.632ZM165.857 47.632V47.732H165.957V47.632H165.857ZM165.857 45.688H165.957V45.588H165.857V45.688ZM165.077 45.688H164.977V45.788H165.077V45.688ZM165.077 39.748H165.177V39.648H165.077V39.748ZM164.717 39.748V39.648H164.617V39.748H164.717ZM164.717 45.688V45.788H164.817V45.688H164.717ZM160.493 45.688H160.393V45.788H160.493V45.688ZM160.493 39.748H160.593V39.648H160.493V39.748ZM160.133 39.748V39.648H160.033V39.748H160.133ZM160.133 46.1H165.497V45.9H160.133V46.1ZM165.397 46V47.632H165.597V46H165.397ZM165.497 47.732H165.857V47.532H165.497V47.732ZM165.957 47.632V45.688H165.757V47.632H165.957ZM165.857 45.588H165.077V45.788H165.857V45.588ZM165.177 45.688V39.748H164.977V45.688H165.177ZM165.077 39.648H164.717V39.848H165.077V39.648ZM164.617 39.748V45.688H164.817V39.748H164.617ZM164.717 45.588H160.493V45.788H164.717V45.588ZM160.593 45.688V39.748H160.393V45.688H160.593ZM160.493 39.648H160.133V39.848H160.493V39.648ZM160.033 39.748V46H160.233V39.748H160.033ZM173.069 42.844V42.944H173.169V42.844H173.069ZM172.745 44.284L172.835 44.3268L172.903 44.184H172.745V44.284ZM172.349 44.284V44.184H172.29L172.261 44.2356L172.349 44.284ZM166.841 42.844V42.744H166.741V42.844H166.841ZM172.685 42.532V42.632H172.797L172.784 42.5207L172.685 42.532ZM166.841 42.532L166.742 42.5207L166.729 42.632H166.841V42.532ZM173.169 42.844C173.169 40.9754 171.623 39.468 169.757 39.468V39.668C171.515 39.668 172.969 41.0886 172.969 42.844H173.169ZM169.757 39.468C167.878 39.468 166.357 40.9888 166.357 42.868H166.557C166.557 41.0992 167.988 39.668 169.757 39.668V39.468ZM166.357 42.868C166.357 44.7468 167.877 46.28 169.757 46.28V46.08C167.989 46.08 166.557 44.6372 166.557 42.868H166.357ZM169.757 46.28C171.117 46.28 172.291 45.4762 172.835 44.3268L172.654 44.2412C172.142 45.3238 171.037 46.08 169.757 46.08V46.28ZM172.745 44.184H172.349V44.384H172.745V44.184ZM172.261 44.2356C171.774 45.1174 170.835 45.72 169.757 45.72V45.92C170.911 45.92 171.916 45.2746 172.436 44.3324L172.261 44.2356ZM169.757 45.72C168.206 45.72 166.941 44.4346 166.941 42.844H166.741C166.741 44.5414 168.092 45.92 169.757 45.92V45.72ZM166.841 42.944H173.069V42.744H166.841V42.944ZM169.757 40.028C171.218 40.028 172.423 41.1177 172.586 42.5433L172.784 42.5207C172.61 40.9943 171.32 39.828 169.757 39.828V40.028ZM172.685 42.432H166.841V42.632H172.685V42.432ZM166.94 42.5433C167.103 41.1172 168.296 40.028 169.757 40.028V39.828C168.193 39.828 166.915 40.9948 166.742 42.5207L166.94 42.5433ZM174.084 46H173.984V46.1H174.084V46ZM174.444 46V46.1H174.544V46H174.444ZM174.444 42.868V42.768H174.344V42.868H174.444ZM178.668 42.868H178.768V42.768H178.668V42.868ZM178.668 46H178.568V46.1H178.668V46ZM179.028 46V46.1H179.128V46H179.028ZM179.028 39.748H179.128V39.648H179.028V39.748ZM178.668 39.748V39.648H178.568V39.748H178.668ZM178.668 42.556V42.656H178.768V42.556H178.668ZM174.444 42.556H174.344V42.656H174.444V42.556ZM174.444 39.748H174.544V39.648H174.444V39.748ZM174.084 39.748V39.648H173.984V39.748H174.084ZM174.084 46.1H174.444V45.9H174.084V46.1ZM174.544 46V42.868H174.344V46H174.544ZM174.444 42.968H178.668V42.768H174.444V42.968ZM178.568 42.868V46H178.768V42.868H178.568ZM178.668 46.1H179.028V45.9H178.668V46.1ZM179.128 46V39.748H178.928V46H179.128ZM179.028 39.648H178.668V39.848H179.028V39.648ZM178.568 39.748V42.556H178.768V39.748H178.568ZM178.668 42.456H174.444V42.656H178.668V42.456ZM174.544 42.556V39.748H174.344V42.556H174.544ZM174.444 39.648H174.084V39.848H174.444V39.648ZM173.984 39.748V46H174.184V39.748H173.984ZM181.785 46H181.685V46.1H181.785V46ZM182.145 46V46.1H182.245V46H182.145ZM182.145 40.06V39.96H182.045V40.06H182.145ZM184.065 40.06V40.16H184.165V40.06H184.065ZM184.065 39.748H184.165V39.648H184.065V39.748ZM179.865 39.748V39.648H179.765V39.748H179.865ZM179.865 40.06H179.765V40.16H179.865V40.06ZM181.785 40.06H181.885V39.96H181.785V40.06ZM181.785 46.1H182.145V45.9H181.785V46.1ZM182.245 46V40.06H182.045V46H182.245ZM182.145 40.16H184.065V39.96H182.145V40.16ZM184.165 40.06V39.748H183.965V40.06H184.165ZM184.065 39.648H179.865V39.848H184.065V39.648ZM179.765 39.748V40.06H179.965V39.748H179.765ZM179.865 40.16H181.785V39.96H179.865V40.16ZM181.685 40.06V46H181.885V40.06H181.685ZM184.906 48.196H184.806V48.296H184.906V48.196ZM185.266 48.196V48.296H185.366V48.196H185.266ZM185.266 44.26L185.357 44.2178L185.166 44.26H185.266ZM185.266 41.5H185.166L185.357 41.5402L185.266 41.5ZM185.266 39.748H185.366V39.648H185.266V39.748ZM184.906 39.748V39.648H184.806V39.748H184.906ZM184.906 48.296H185.266V48.096H184.906V48.296ZM185.366 48.196V44.26H185.166V48.196H185.366ZM185.175 44.3022C185.767 45.5716 186.869 46.28 188.17 46.28V46.08C186.951 46.08 185.917 45.4204 185.357 44.2178L185.175 44.3022ZM188.17 46.28C190.06 46.28 191.63 44.7362 191.63 42.844H191.43C191.43 44.6238 189.952 46.08 188.17 46.08V46.28ZM191.63 42.844C191.63 40.974 190.058 39.468 188.17 39.468V39.668C189.954 39.668 191.43 41.09 191.43 42.844H191.63ZM188.17 39.468C186.969 39.468 185.755 40.1374 185.174 41.4598L185.357 41.5402C185.905 40.2946 187.043 39.668 188.17 39.668V39.468ZM185.366 41.5V39.748H185.166V41.5H185.366ZM185.266 39.648H184.906V39.848H185.266V39.648ZM184.806 39.748V48.196H185.006V39.748H184.806ZM191.046 42.844C191.046 44.4341 189.781 45.72 188.206 45.72V45.92C189.894 45.92 191.246 44.5419 191.246 42.844H191.046ZM188.206 45.72C186.642 45.72 185.366 44.4338 185.366 42.844H185.166C185.166 44.5422 186.53 45.92 188.206 45.92V45.72ZM185.366 42.844C185.366 41.2803 186.64 40.028 188.206 40.028V39.828C186.532 39.828 185.166 41.1677 185.166 42.844H185.366ZM188.206 40.028C189.772 40.028 191.046 41.2803 191.046 42.844H191.246C191.246 41.1677 189.88 39.828 188.206 39.828V40.028Z" fill="#08234B"/>
<path d="M66.9934 30H67.8774V23.006L69.4374 20.9L75.7814 30H76.9254L69.9574 20.224L76.7694 11.306H75.6254L67.8774 21.602V11.306H66.9934V30ZM91.4903 30H92.3743V22.044H96.7423C99.5243 22.044 101.786 19.626 101.786 16.662C101.786 13.698 99.5243 11.306 96.7423 11.306H91.4903V30ZM92.3743 12.086H96.4823C98.9003 12.086 100.824 14.088 100.824 16.662C100.824 19.236 98.9003 21.264 96.4823 21.264H92.3743V12.086ZM116.046 30V29.22H107.492V20.952H115.76V20.172H107.492V12.086H116.046V11.306H106.608V30H116.046ZM120.983 12.086H126.183C128.289 12.086 129.979 13.802 129.979 15.908C129.979 18.014 128.289 19.704 126.183 19.704H121.867V20.484H126.651C129.069 20.484 131.019 22.434 131.019 24.852C131.019 27.27 129.069 29.22 126.651 29.22H121.867H120.983V30H126.755C129.641 30 131.981 27.712 131.981 24.852C131.981 22.434 130.187 20.276 127.977 20.016C129.615 19.6 130.863 17.728 130.863 15.57C130.863 13.204 128.835 11.306 126.339 11.306H120.983V12.086ZM148.602 11.306H147.562L142.752 23.448L136.382 11.306H135.394L142.232 24.358L139.84 30H140.958L148.602 11.306ZM164.522 30L157.554 11.306H156.514L149.546 30H150.638L157.034 12.268L163.43 30H164.522ZM169.084 30H174.336C177.196 30 179.536 27.634 179.536 24.67C179.536 21.706 177.196 19.34 174.336 19.34H169.968V11.306H169.084V30ZM169.968 20.12H174.336C176.65 20.12 178.574 22.148 178.574 24.67C178.574 27.192 176.65 29.22 174.336 29.22H169.968V20.12ZM192.596 12.086V11.306H183.184V12.086H187.422V30H188.358V12.086H192.596ZM194.92 30L197.624 23.318H206.178L208.856 30H209.896L202.304 11.28H201.472L193.88 30H194.92ZM197.91 22.538L201.888 12.294L205.892 22.538H197.91ZM220.597 12.086V11.306H211.185V12.086H215.423V30H216.359V12.086H220.597ZM237.174 11.306H236.134L231.324 23.448L224.954 11.306H223.966L230.804 24.358L228.412 30H229.53L237.174 11.306Z" fill="#08234B"/>
<path d="M66.9934 30H66.5934V30.4H66.9934V30ZM67.8774 30V30.4H68.2774V30H67.8774ZM67.8774 23.006L67.556 22.7679L67.4774 22.874V23.006H67.8774ZM69.4374 20.9L69.7655 20.6712L69.4472 20.2147L69.116 20.6619L69.4374 20.9ZM75.7814 30L75.4533 30.2288L75.5726 30.4H75.7814V30ZM76.9254 30V30.4H77.7017L77.2511 29.7678L76.9254 30ZM69.9574 20.224L69.6395 19.9812L69.4603 20.2158L69.6317 20.4562L69.9574 20.224ZM76.7694 11.306L77.0873 11.5488L77.5783 10.906H76.7694V11.306ZM75.6254 11.306V10.906H75.4258L75.3058 11.0655L75.6254 11.306ZM67.8774 21.602H67.4774V22.7988L68.197 21.8425L67.8774 21.602ZM67.8774 11.306H68.2774V10.906H67.8774V11.306ZM66.9934 11.306V10.906H66.5934V11.306H66.9934ZM66.9934 30.4H67.8774V29.6H66.9934V30.4ZM68.2774 30V23.006H67.4774V30H68.2774ZM68.1988 23.2441L69.7588 21.1381L69.116 20.6619L67.556 22.7679L68.1988 23.2441ZM69.1093 21.1288L75.4533 30.2288L76.1095 29.7712L69.7655 20.6712L69.1093 21.1288ZM75.7814 30.4H76.9254V29.6H75.7814V30.4ZM77.2511 29.7678L70.2831 19.9918L69.6317 20.4562L76.5997 30.2322L77.2511 29.7678ZM70.2753 20.4668L77.0873 11.5488L76.4515 11.0632L69.6395 19.9812L70.2753 20.4668ZM76.7694 10.906H75.6254V11.706H76.7694V10.906ZM75.3058 11.0655L67.5578 21.3615L68.197 21.8425L75.945 11.5465L75.3058 11.0655ZM68.2774 21.602V11.306H67.4774V21.602H68.2774ZM67.8774 10.906H66.9934V11.706H67.8774V10.906ZM66.5934 11.306V30H67.3934V11.306H66.5934ZM91.4903 30H91.0903V30.4H91.4903V30ZM92.3743 30V30.4H92.7743V30H92.3743ZM92.3743 22.044V21.644H91.9743V22.044H92.3743ZM91.4903 11.306V10.906H91.0903V11.306H91.4903ZM92.3743 12.086V11.686H91.9743V12.086H92.3743ZM92.3743 21.264H91.9743V21.664H92.3743V21.264ZM91.4903 30.4H92.3743V29.6H91.4903V30.4ZM92.7743 30V22.044H91.9743V30H92.7743ZM92.3743 22.444H96.7423V21.644H92.3743V22.444ZM96.7423 22.444C99.7694 22.444 102.186 19.8219 102.186 16.662H101.386C101.386 19.4301 99.2791 21.644 96.7423 21.644V22.444ZM102.186 16.662C102.186 13.4995 99.767 10.906 96.7423 10.906V11.706C99.2815 11.706 101.386 13.8965 101.386 16.662H102.186ZM96.7423 10.906H91.4903V11.706H96.7423V10.906ZM91.0903 11.306V30H91.8903V11.306H91.0903ZM92.3743 12.486H96.4823V11.686H92.3743V12.486ZM96.4823 12.486C98.6613 12.486 100.424 14.2904 100.424 16.662H101.224C101.224 13.8856 99.1393 11.686 96.4823 11.686V12.486ZM100.424 16.662C100.424 19.0367 98.6584 20.864 96.4823 20.864V21.664C99.1422 21.664 101.224 19.4353 101.224 16.662H100.424ZM96.4823 20.864H92.3743V21.664H96.4823V20.864ZM92.7743 21.264V12.086H91.9743V21.264H92.7743ZM116.046 30V30.4H116.446V30H116.046ZM116.046 29.22H116.446V28.82H116.046V29.22ZM107.492 29.22H107.092V29.62H107.492V29.22ZM107.492 20.952V20.552H107.092V20.952H107.492ZM115.76 20.952V21.352H116.16V20.952H115.76ZM115.76 20.172H116.16V19.772H115.76V20.172ZM107.492 20.172H107.092V20.572H107.492V20.172ZM107.492 12.086V11.686H107.092V12.086H107.492ZM116.046 12.086V12.486H116.446V12.086H116.046ZM116.046 11.306H116.446V10.906H116.046V11.306ZM106.608 11.306V10.906H106.208V11.306H106.608ZM106.608 30H106.208V30.4H106.608V30ZM116.446 30V29.22H115.646V30H116.446ZM116.046 28.82H107.492V29.62H116.046V28.82ZM107.892 29.22V20.952H107.092V29.22H107.892ZM107.492 21.352H115.76V20.552H107.492V21.352ZM116.16 20.952V20.172H115.36V20.952H116.16ZM115.76 19.772H107.492V20.572H115.76V19.772ZM107.892 20.172V12.086H107.092V20.172H107.892ZM107.492 12.486H116.046V11.686H107.492V12.486ZM116.446 12.086V11.306H115.646V12.086H116.446ZM116.046 10.906H106.608V11.706H116.046V10.906ZM106.208 11.306V30H107.008V11.306H106.208ZM106.608 30.4H116.046V29.6H106.608V30.4ZM120.983 12.086H120.583V12.486H120.983V12.086ZM121.867 19.704V19.304H121.467V19.704H121.867ZM121.867 20.484H121.467V20.884H121.867V20.484ZM120.983 29.22V28.82H120.583V29.22H120.983ZM120.983 30H120.583V30.4H120.983V30ZM127.977 20.016L127.879 19.6283L127.93 20.4133L127.977 20.016ZM120.983 11.306V10.906H120.583V11.306H120.983ZM120.983 12.486H126.183V11.686H120.983V12.486ZM126.183 12.486C128.065 12.486 129.579 14.0193 129.579 15.908H130.379C130.379 13.5847 128.513 11.686 126.183 11.686V12.486ZM129.579 15.908C129.579 17.7931 128.068 19.304 126.183 19.304V20.104C128.51 20.104 130.379 18.2349 130.379 15.908H129.579ZM126.183 19.304H121.867V20.104H126.183V19.304ZM121.467 19.704V20.484H122.267V19.704H121.467ZM121.867 20.884H126.651V20.084H121.867V20.884ZM126.651 20.884C128.848 20.884 130.619 22.6549 130.619 24.852H131.419C131.419 22.2131 129.29 20.084 126.651 20.084V20.884ZM130.619 24.852C130.619 27.0491 128.848 28.82 126.651 28.82V29.62C129.29 29.62 131.419 27.4909 131.419 24.852H130.619ZM126.651 28.82H121.867V29.62H126.651V28.82ZM121.867 28.82H120.983V29.62H121.867V28.82ZM120.583 29.22V30H121.383V29.22H120.583ZM120.983 30.4H126.755V29.6H120.983V30.4ZM126.755 30.4C129.855 30.4 132.381 27.9394 132.381 24.852H131.581C131.581 27.4846 129.427 29.6 126.755 29.6V30.4ZM132.381 24.852C132.381 22.2564 130.459 19.9053 128.024 19.6187L127.93 20.4133C129.915 20.6467 131.581 22.6116 131.581 24.852H132.381ZM128.075 20.4037C129.941 19.9298 131.263 17.853 131.263 15.57H130.463C130.463 17.603 129.289 19.2702 127.879 19.6283L128.075 20.4037ZM131.263 15.57C131.263 12.9603 129.032 10.906 126.339 10.906V11.706C128.638 11.706 130.463 13.4477 130.463 15.57H131.263ZM126.339 10.906H120.983V11.706H126.339V10.906ZM120.583 11.306V12.086H121.383V11.306H120.583ZM148.602 11.306L148.972 11.4574L149.197 10.906H148.602V11.306ZM147.562 11.306V10.906H147.29L147.19 11.1587L147.562 11.306ZM142.752 23.448L142.397 23.6338L142.803 24.4058L143.124 23.5953L142.752 23.448ZM136.382 11.306L136.736 11.1202L136.624 10.906H136.382V11.306ZM135.394 11.306V10.906H134.733L135.039 11.4916L135.394 11.306ZM142.232 24.358L142.6 24.5141L142.674 24.34L142.586 24.1724L142.232 24.358ZM139.84 30L139.471 29.8439L139.236 30.4H139.84V30ZM140.958 30V30.4H141.226L141.328 30.1514L140.958 30ZM148.602 10.906H147.562V11.706H148.602V10.906ZM147.19 11.1587L142.38 23.3007L143.124 23.5953L147.934 11.4533L147.19 11.1587ZM143.106 23.2622L136.736 11.1202L136.027 11.4918L142.397 23.6338L143.106 23.2622ZM136.382 10.906H135.394V11.706H136.382V10.906ZM135.039 11.4916L141.877 24.5436L142.586 24.1724L135.748 11.1204L135.039 11.4916ZM141.863 24.2019L139.471 29.8439L140.208 30.1561L142.6 24.5141L141.863 24.2019ZM139.84 30.4H140.958V29.6H139.84V30.4ZM141.328 30.1514L148.972 11.4574L148.231 11.1546L140.587 29.8486L141.328 30.1514ZM164.522 30V30.4H165.098L164.897 29.8603L164.522 30ZM157.554 11.306L157.929 11.1663L157.832 10.906H157.554V11.306ZM156.514 11.306V10.906H156.237L156.14 11.1663L156.514 11.306ZM149.546 30L149.172 29.8603L148.97 30.4H149.546V30ZM150.638 30V30.4H150.919L151.015 30.1357L150.638 30ZM157.034 12.268L157.411 12.1323L157.034 11.0891L156.658 12.1323L157.034 12.268ZM163.43 30L163.054 30.1357L163.149 30.4H163.43V30ZM164.897 29.8603L157.929 11.1663L157.18 11.4457L164.148 30.1397L164.897 29.8603ZM157.554 10.906H156.514V11.706H157.554V10.906ZM156.14 11.1663L149.172 29.8603L149.921 30.1397L156.889 11.4457L156.14 11.1663ZM149.546 30.4H150.638V29.6H149.546V30.4ZM151.015 30.1357L157.411 12.4037L156.658 12.1323L150.262 29.8643L151.015 30.1357ZM156.658 12.4037L163.054 30.1357L163.807 29.8643L157.411 12.1323L156.658 12.4037ZM163.43 30.4H164.522V29.6H163.43V30.4ZM169.084 30H168.684V30.4H169.084V30ZM169.968 19.34H169.568V19.74H169.968V19.34ZM169.968 11.306H170.368V10.906H169.968V11.306ZM169.084 11.306V10.906H168.684V11.306H169.084ZM169.968 20.12V19.72H169.568V20.12H169.968ZM169.968 29.22H169.568V29.62H169.968V29.22ZM169.084 30.4H174.336V29.6H169.084V30.4ZM174.336 30.4C177.425 30.4 179.936 27.8472 179.936 24.67H179.136C179.136 27.4208 176.967 29.6 174.336 29.6V30.4ZM179.936 24.67C179.936 21.4928 177.425 18.94 174.336 18.94V19.74C176.967 19.74 179.136 21.9192 179.136 24.67H179.936ZM174.336 18.94H169.968V19.74H174.336V18.94ZM170.368 19.34V11.306H169.568V19.34H170.368ZM169.968 10.906H169.084V11.706H169.968V10.906ZM168.684 11.306V30H169.484V11.306H168.684ZM169.968 20.52H174.336V19.72H169.968V20.52ZM174.336 20.52C176.405 20.52 178.174 22.3439 178.174 24.67H178.974C178.974 21.9521 176.895 19.72 174.336 19.72V20.52ZM178.174 24.67C178.174 26.9961 176.405 28.82 174.336 28.82V29.62C176.895 29.62 178.974 27.3879 178.974 24.67H178.174ZM174.336 28.82H169.968V29.62H174.336V28.82ZM170.368 29.22V20.12H169.568V29.22H170.368ZM192.596 12.086V12.486H192.996V12.086H192.596ZM192.596 11.306H192.996V10.906H192.596V11.306ZM183.184 11.306V10.906H182.784V11.306H183.184ZM183.184 12.086H182.784V12.486H183.184V12.086ZM187.422 12.086H187.822V11.686H187.422V12.086ZM187.422 30H187.022V30.4H187.422V30ZM188.358 30V30.4H188.758V30H188.358ZM188.358 12.086V11.686H187.958V12.086H188.358ZM192.996 12.086V11.306H192.196V12.086H192.996ZM192.596 10.906H183.184V11.706H192.596V10.906ZM182.784 11.306V12.086H183.584V11.306H182.784ZM183.184 12.486H187.422V11.686H183.184V12.486ZM187.022 12.086V30H187.822V12.086H187.022ZM187.422 30.4H188.358V29.6H187.422V30.4ZM188.758 30V12.086H187.958V30H188.758ZM188.358 12.486H192.596V11.686H188.358V12.486ZM194.92 30V30.4H195.19L195.291 30.15L194.92 30ZM197.624 23.318V22.918H197.355L197.254 23.168L197.624 23.318ZM206.178 23.318L206.55 23.1692L206.449 22.918H206.178V23.318ZM208.856 30L208.485 30.1488L208.586 30.4H208.856V30ZM209.896 30V30.4H210.49L210.267 29.8497L209.896 30ZM202.304 11.28L202.675 11.1297L202.574 10.88H202.304V11.28ZM201.472 11.28V10.88H201.203L201.102 11.1297L201.472 11.28ZM193.88 30L193.51 29.8497L193.287 30.4H193.88V30ZM197.91 22.538L197.538 22.3932L197.326 22.938H197.91V22.538ZM201.888 12.294L202.261 12.1484L201.887 11.1921L201.516 12.1492L201.888 12.294ZM205.892 22.538V22.938H206.478L206.265 22.3924L205.892 22.538ZM195.291 30.15L197.995 23.468L197.254 23.168L194.55 29.85L195.291 30.15ZM197.624 23.718H206.178V22.918H197.624V23.718ZM205.807 23.4668L208.485 30.1488L209.228 29.8512L206.55 23.1692L205.807 23.4668ZM208.856 30.4H209.896V29.6H208.856V30.4ZM210.267 29.8497L202.675 11.1297L201.934 11.4303L209.526 30.1503L210.267 29.8497ZM202.304 10.88H201.472V11.68H202.304V10.88ZM201.102 11.1297L193.51 29.8497L194.251 30.1503L201.843 11.4303L201.102 11.1297ZM193.88 30.4H194.92V29.6H193.88V30.4ZM198.283 22.6828L202.261 12.4388L201.516 12.1492L197.538 22.3932L198.283 22.6828ZM201.516 12.4396L205.52 22.6836L206.265 22.3924L202.261 12.1484L201.516 12.4396ZM205.892 22.138H197.91V22.938H205.892V22.138ZM220.597 12.086V12.486H220.997V12.086H220.597ZM220.597 11.306H220.997V10.906H220.597V11.306ZM211.185 11.306V10.906H210.785V11.306H211.185ZM211.185 12.086H210.785V12.486H211.185V12.086ZM215.423 12.086H215.823V11.686H215.423V12.086ZM215.423 30H215.023V30.4H215.423V30ZM216.359 30V30.4H216.759V30H216.359ZM216.359 12.086V11.686H215.959V12.086H216.359ZM220.997 12.086V11.306H220.197V12.086H220.997ZM220.597 10.906H211.185V11.706H220.597V10.906ZM210.785 11.306V12.086H211.585V11.306H210.785ZM211.185 12.486H215.423V11.686H211.185V12.486ZM215.023 12.086V30H215.823V12.086H215.023ZM215.423 30.4H216.359V29.6H215.423V30.4ZM216.759 30V12.086H215.959V30H216.759ZM216.359 12.486H220.597V11.686H216.359V12.486ZM237.174 11.306L237.545 11.4574L237.77 10.906H237.174V11.306ZM236.134 11.306V10.906H235.863L235.762 11.1587L236.134 11.306ZM231.324 23.448L230.97 23.6338L231.375 24.4058L231.696 23.5953L231.324 23.448ZM224.954 11.306L225.309 11.1202L225.196 10.906H224.954V11.306ZM223.966 11.306V10.906H223.305L223.612 11.4916L223.966 11.306ZM230.804 24.358L231.173 24.5141L231.246 24.34L231.159 24.1724L230.804 24.358ZM228.412 30L228.044 29.8439L227.808 30.4H228.412V30ZM229.53 30V30.4H229.799L229.901 30.1514L229.53 30ZM237.174 10.906H236.134V11.706H237.174V10.906ZM235.762 11.1587L230.952 23.3007L231.696 23.5953L236.506 11.4533L235.762 11.1587ZM231.679 23.2622L225.309 11.1202L224.6 11.4918L230.97 23.6338L231.679 23.2622ZM224.954 10.906H223.966V11.706H224.954V10.906ZM223.612 11.4916L230.45 24.5436L231.159 24.1724L224.321 11.1204L223.612 11.4916ZM230.436 24.2019L228.044 29.8439L228.781 30.1561L231.173 24.5141L230.436 24.2019ZM228.412 30.4H229.53V29.6H228.412V30.4ZM229.901 30.1514L237.545 11.4574L236.804 11.1546L229.16 29.8486L229.901 30.1514Z" fill="#08234B"/>
<g clip-path="url(#clip1_274_381)">
<path d="M11.7426 43.7534C11.7426 44.5989 11.4714 44.1361 10.6655 44.1361C9.97084 43.5099 9.62341 43.2664 9.17176 42.4314C9.17176 41.5859 8.36572 41.666 9.17161 41.666C9.9775 41.666 11.7426 42.908 11.7426 43.7534Z" fill="#FFB454"/>
<path d="M21.2619 49.3897C21.2619 50.2351 19.8443 49.5984 19.0384 49.5984C18.2325 49.5984 17.0928 49.1218 17.0928 48.2763C17.0928 47.4309 17.885 47.3022 18.6909 47.3022C19.4968 47.3022 21.2619 48.5442 21.2619 49.3897Z" fill="#FFB454"/>
<path d="M23.7985 48.6243C23.7985 49.4697 22.8325 50.329 22.0266 50.329C21.2207 50.329 19.4209 49.0522 19.4209 48.2068C19.4209 47.3613 20.9428 47.0934 21.7487 47.0934C22.5545 47.0934 23.7985 47.7788 23.7985 48.6243Z" fill="#FFB454"/>
<path d="M26.3003 48.9722C26.3003 49.8176 25.0563 50.7117 24.2504 50.7117C23.4446 50.7117 21.0889 49.8176 21.0889 48.9722C21.0889 48.1267 22.9582 47.4413 23.7641 47.4413C24.5699 47.4413 26.3003 48.1267 26.3003 48.9722Z" fill="#FFB454"/>
<path d="M27.4995 50C27.4995 50.8454 26.8972 50.8509 26.0913 50.8509C25.2854 50.8509 22.9297 51.2789 22.9297 50.4334C22.9297 49.588 24.8685 48.7982 25.6744 48.7982C26.4802 48.7982 27.4995 49.1546 27.4995 50Z" fill="#FFB454"/>
<path d="M14.3489 45.493C14.3489 46.3385 13.9387 46.2932 13.1328 46.2932C12.3269 46.2932 11.083 44.5989 11.083 43.7535C11.083 42.908 11.3542 43.4752 12.1601 43.4752C12.966 43.4752 14.3489 44.6476 14.3489 45.493Z" fill="#FFB454"/>
<path d="M16.5121 47.3022C16.5121 48.1476 16.1971 47.8589 15.3912 47.8589C14.5853 47.8589 13.4803 46.7908 13.4803 45.9453C13.4803 45.0999 13.5174 45.2843 14.3233 45.2843C15.1292 45.2843 16.5121 46.4567 16.5121 47.3022Z" fill="#FFB454"/>
<path d="M19.2129 47.6849C19.2129 48.5303 18.629 49.2157 17.8231 49.2157C17.0173 49.2157 14.9048 47.4518 14.9048 46.6064C14.9048 45.7609 16.0445 45.8062 16.8504 45.8062C17.6562 45.8062 19.2129 46.8395 19.2129 47.6849Z" fill="#FFB454"/>
<path d="M12.0902 44.658C12.0902 45.5035 11.8191 45.0408 11.0132 45.0408C10.3185 44.4145 9.97107 44.171 9.51942 43.336C9.51942 42.4905 8.71338 42.5706 9.51927 42.5706C10.3252 42.5706 12.0902 43.8126 12.0902 44.658Z" fill="#FF7D47"/>
<path d="M21.6095 50.2943C21.6095 51.1397 20.1919 50.503 19.386 50.503C18.5801 50.503 17.4404 50.0264 17.4404 49.1809C17.4404 48.3355 18.2327 48.2068 19.0386 48.2068C19.8445 48.2068 21.6095 49.4488 21.6095 50.2943Z" fill="#FF7D47"/>
<path d="M24.1461 49.5289C24.1461 50.3743 23.1801 51.2336 22.3743 51.2336C21.5684 51.2336 19.7686 49.9568 19.7686 49.1114C19.7686 48.2659 21.2904 47.998 22.0963 47.998C22.9022 47.998 24.1461 48.6834 24.1461 49.5289Z" fill="#FF7D47"/>
<path d="M26.6479 49.8768C26.6479 50.7222 25.404 51.6163 24.5981 51.6163C23.7922 51.6163 21.4365 50.7222 21.4365 49.8768C21.4365 49.0313 23.3058 48.3459 24.1117 48.3459C24.9176 48.3459 26.6479 49.0313 26.6479 49.8768Z" fill="#FF7D47"/>
<path d="M28.4998 51.5C28.4998 52.3454 27.2448 51.7555 26.4389 51.7555C25.633 51.7555 23.2773 52.1834 23.2773 51.338C23.2773 50.4925 25.6939 49.5 26.4998 49.5C27.3056 49.5 28.4998 50.6546 28.4998 51.5Z" fill="#FF7D47"/>
<path d="M14.6965 46.3976C14.6965 47.2431 14.2864 47.1978 13.4805 47.1978C12.6746 47.1978 11.4307 45.5035 11.4307 44.6581C11.4307 43.8126 11.7019 44.3798 12.5078 44.3798C13.3136 44.3798 14.6965 45.5522 14.6965 46.3976Z" fill="#FF7D47"/>
<path d="M16.8597 48.2068C16.8597 49.0522 16.5447 48.7635 15.7388 48.7635C14.9329 48.7635 13.828 47.6954 13.828 46.8499C13.828 46.0045 13.865 46.1889 14.6709 46.1889C15.4768 46.1889 16.8597 47.3613 16.8597 48.2068Z" fill="#FF7D47"/>
<path d="M19.5605 48.5895C19.5605 49.4349 18.9767 50.1203 18.1708 50.1203C17.3649 50.1203 15.2524 48.3564 15.2524 47.511C15.2524 46.6655 16.3921 46.7108 17.198 46.7108C18.0039 46.7108 19.5605 47.7441 19.5605 48.5895Z" fill="#FF7D47"/>
<path d="M43.9143 44.173C43.9143 45.0184 44.0463 44.6928 44.8522 44.6928C45.5469 44.0666 47.0064 43.4403 47.458 42.6053C47.458 41.7599 47.2912 42.0855 46.4853 42.0855C45.6794 42.0855 43.9143 43.3275 43.9143 44.173Z" fill="#FFB454"/>
<path d="M34.3953 49.8092C34.3953 50.6546 35.813 50.0179 36.6189 50.0179C37.4248 50.0179 38.5645 49.5413 38.5645 48.6958C38.5645 47.8504 37.7722 47.7217 36.9663 47.7217C36.1604 47.7217 34.3953 48.9637 34.3953 49.8092Z" fill="#FFB454"/>
<path d="M31.8588 49.0438C31.8588 49.8892 32.8247 50.7485 33.6306 50.7485C34.4365 50.7485 36.2363 49.4717 36.2363 48.6263C36.2363 47.7808 34.7145 47.5129 33.9086 47.5129C33.1027 47.5129 31.8588 48.1983 31.8588 49.0438Z" fill="#FFB454"/>
<path d="M29.357 49.3917C29.357 50.2371 30.6009 51.1312 31.4068 51.1312C32.2127 51.1312 34.5684 50.2371 34.5684 49.3917C34.5684 48.5462 32.6991 47.8608 31.8932 47.8608C31.0873 47.8608 29.357 48.5462 29.357 49.3917Z" fill="#FFB454"/>
<path d="M28.5237 50.9552C28.5237 51.8007 28.7601 51.2704 29.566 51.2704C30.3718 51.2704 32.7275 51.6983 32.7275 50.8529C32.7275 50.0075 30.8582 49.3221 30.0524 49.3221C29.2465 49.3221 28.7321 50.329 28.5237 50.9552Z" fill="#FFB454"/>
<path d="M41.3083 45.9126C41.3083 46.758 41.7185 46.7128 42.5244 46.7128C43.3303 46.7128 44.5742 45.0185 44.5742 44.173C44.5742 43.3276 44.303 43.8947 43.4971 43.8947C42.6912 43.8947 41.3083 45.0671 41.3083 45.9126Z" fill="#FFB454"/>
<path d="M39.1452 47.7217C39.1452 48.5672 39.4602 48.2784 40.2661 48.2784C41.0719 48.2784 42.1769 47.2103 42.1769 46.3649C42.1769 45.5194 42.1398 45.7039 41.334 45.7039C40.5281 45.7039 39.1452 46.8763 39.1452 47.7217Z" fill="#FFB454"/>
<path d="M36.4444 48.1045C36.4444 48.9499 37.0282 49.6353 37.8341 49.6353C38.64 49.6353 40.7525 47.8714 40.7525 47.0259C40.7525 46.1805 39.6128 46.2257 38.8069 46.2257C38.001 46.2257 36.4444 47.259 36.4444 48.1045Z" fill="#FFB454"/>
<path d="M43.6374 45.008C43.6374 45.8535 43.7694 45.5279 44.5753 45.5279C45.27 44.9016 45.9998 44.4145 46.4515 43.5795C46.4515 42.7341 47.0142 42.9205 46.2083 42.9205C45.4025 42.9205 43.6374 44.1626 43.6374 45.008Z" fill="#FF7D47"/>
<path d="M34.118 50.6442C34.118 51.4896 35.5356 50.8529 36.3415 50.8529C37.1474 50.8529 38.2871 50.3763 38.2871 49.5309C38.2871 48.6854 37.4948 48.5567 36.6889 48.5567C35.8831 48.5567 34.118 49.7987 34.118 50.6442Z" fill="#FF7D47"/>
<path d="M31.5814 49.8788C31.5814 50.7242 32.5474 51.5835 33.3533 51.5835C34.1592 51.5835 35.959 50.3067 35.959 49.4613C35.959 48.6158 34.4371 48.348 33.6312 48.348C32.8253 48.348 31.5814 49.0333 31.5814 49.8788Z" fill="#FF7D47"/>
<path d="M29.0796 50.2267C29.0796 51.0721 30.3235 51.9662 31.1294 51.9662C31.9353 51.9662 34.291 51.0721 34.291 50.2267C34.291 49.3812 32.4217 48.6959 31.6158 48.6959C30.8099 48.6959 29.0796 49.3812 29.0796 50.2267Z" fill="#FF7D47"/>
<path d="M28.2463 51.7903C28.2463 52.6357 28.4827 52.1054 29.2886 52.1054C30.0945 52.1054 32.4502 52.5334 32.4502 51.6879C32.4502 50.8425 30.3064 50 29.5005 50C28.6946 50 28.2463 50.9448 28.2463 51.7903Z" fill="#FF7D47"/>
<path d="M41.031 46.7476C41.031 47.593 41.4412 47.5478 42.2471 47.5478C43.0529 47.5478 44.2969 45.8535 44.2969 45.0081C44.2969 44.1626 44.0257 44.7297 43.2198 44.7297C42.4139 44.7297 41.031 45.9021 41.031 46.7476Z" fill="#FF7D47"/>
<path d="M38.8678 48.5567C38.8678 49.4022 39.1828 49.1134 39.9887 49.1134C40.7946 49.1134 41.8996 48.0454 41.8996 47.1999C41.8996 46.3545 41.8625 46.5389 41.0566 46.5389C40.2507 46.5389 38.8678 47.7113 38.8678 48.5567Z" fill="#FF7D47"/>
<path d="M36.167 48.9395C36.167 49.7849 36.7508 50.4703 37.5567 50.4703C38.3626 50.4703 40.4751 48.7064 40.4751 47.8609C40.4751 47.0155 39.3354 47.0607 38.5295 47.0607C37.7236 47.0607 36.167 48.094 36.167 48.9395Z" fill="#FF7D47"/>
<path d="M54.9769 28.167C54.9769 43.1255 42.8679 55.25 27.9328 55.25C12.9977 55.25 0.888672 43.1255 0.888672 28.167C0.888672 13.2085 12.9977 1.08398 27.9328 1.08398C42.8679 1.08398 54.9769 13.2085 54.9769 28.167Z" stroke="#08234B" stroke-width="1.5"/>
<path d="M51.7117 28.2495C51.7117 41.2279 41.1902 51.749 28.2113 51.749C15.2324 51.749 4.71094 41.2279 4.71094 28.2495C4.71094 15.2711 15.2324 4.75 28.2113 4.75C41.1902 4.75 51.7117 15.2711 51.7117 28.2495Z" stroke="#08234B" stroke-width="1.5"/>
<path d="M28.1783 5.0024L28.0935 5.00862L27.7357 5.73927C26.586 8.08897 26.2075 8.88397 25.7794 9.8554C25.3266 10.887 24.9543 11.9041 24.6359 12.9773C24.5904 13.1309 24.4911 13.3924 24.4146 13.5585C22.3135 18.1561 21.4719 25.9608 22.3073 33.0701C22.3466 33.4063 22.388 33.7385 22.4004 33.8049C22.4107 33.8734 22.419 33.9315 22.4149 33.9336C22.4128 33.9356 22.2804 33.9689 22.1212 34.0041C20.411 34.3965 19.408 35.0524 18.8559 36.1421C18.7318 36.385 18.5105 36.9371 18.4113 37.2485C17.9811 38.6018 17.8964 39.9178 18.1197 41.815C18.1755 42.2904 18.1797 42.3111 18.221 42.3028C18.2396 42.2987 18.3554 42.1451 18.4816 41.9624C19.2736 40.8021 19.7741 40.1669 20.351 39.5878C21.1844 38.7534 21.9992 38.2697 23.0166 38.0103C23.1118 37.9853 23.1924 37.9687 23.1986 37.9729C23.2028 37.977 23.2751 38.2241 23.3599 38.523C23.9452 40.5738 24.6235 42.1119 25.5127 43.3926C25.7215 43.6935 25.8125 43.8015 26.0917 44.0838C26.4143 44.4076 26.7286 44.667 26.9478 44.7895C27.074 44.8601 27.074 44.8393 26.9416 45.1611C26.832 45.4268 26.7183 45.8523 26.6707 46.1782C26.5487 47.0084 26.6583 47.8782 27.0078 48.8247C27.3159 49.6591 27.9756 51.0062 28.1824 51.22C28.4058 51.4525 28.5795 51.2761 29.0592 50.3296C29.6259 49.2108 29.9299 48.3203 30.0353 47.4755C30.0684 47.1994 30.0684 46.4854 30.0353 46.2404C29.9712 45.7775 29.8533 45.3167 29.7065 44.9639L29.6341 44.7874L29.6838 44.7563C29.8244 44.6629 30.1449 44.4076 30.2959 44.2685C31.1231 43.4943 31.9151 42.1617 32.5851 40.4181C32.7733 39.9241 33.0587 39.0543 33.2179 38.4814L33.3503 38.0103L33.4123 38.0227C33.6977 38.085 34.1609 38.2635 34.5187 38.4482C35.0646 38.7326 35.5175 39.0751 36.0304 39.5878C36.6073 40.1669 37.1078 40.8021 37.8998 41.9624C38.026 42.1451 38.1418 42.2987 38.1604 42.3028C38.2017 42.3111 38.2059 42.2904 38.2617 41.815C38.514 39.6687 38.3775 38.2469 37.7716 36.7026C37.4118 35.7872 37.0354 35.2869 36.353 34.8261C35.8711 34.5023 35.0729 34.1847 34.3036 34.0145L34.1423 33.9792L34.1547 33.8941C34.2188 33.4956 34.3512 32.2813 34.4153 31.5341C34.5311 30.135 34.5683 29.1449 34.5683 27.5072C34.5683 25.8695 34.5311 24.8773 34.4153 23.4803C34.0844 19.5261 33.2965 16.0804 32.1343 13.5169C32.033 13.2928 31.9379 13.0395 31.8613 12.7842C31.6711 12.147 31.4043 11.3769 31.2265 10.9431C30.6454 9.52743 30.2049 8.57261 28.8731 5.83268L28.474 5.0107L28.3685 5.0024C28.3106 5.00032 28.2259 4.99824 28.1783 5.0024ZM29.7003 13.2263C30.0498 13.245 30.5895 13.299 31.2678 13.3841C31.4023 13.4007 31.3919 13.3903 31.5925 13.8221C31.9958 14.6959 32.4218 15.9206 32.7361 17.1079C33.8797 21.4108 34.2498 27.0547 33.7308 32.219C33.6584 32.9435 33.5488 33.8215 33.5302 33.8422C33.5157 33.8568 32.5045 33.8879 31.2285 33.9128L30.5358 33.9273L30.4675 33.7177C30.3269 33.2652 30.0622 32.8314 29.7334 32.5138C29.3839 32.1755 29.0262 31.9803 28.5733 31.8849C28.414 31.8496 27.9467 31.8496 27.7874 31.8849C27.3346 31.9803 26.9768 32.1755 26.6273 32.5138C26.3026 32.8293 26.0648 33.2133 25.9056 33.6783L25.8229 33.9232L25.2852 33.9211C24.5242 33.919 23.0559 33.8817 23.0394 33.863C23.0084 33.8319 22.8347 32.2958 22.7644 31.4303C22.6506 30.0686 22.6175 29.1823 22.6175 27.5072C22.6175 26.0355 22.632 25.5726 22.7002 24.4559C22.8781 21.6309 23.3062 18.9636 23.9431 16.6928C24.1044 16.124 24.4559 15.0758 24.6503 14.5859C24.8178 14.1687 25.0681 13.602 25.1425 13.4733L25.1839 13.4028L25.6802 13.3364C25.9738 13.2969 26.4102 13.2575 26.7535 13.2388C27.0719 13.2201 27.3925 13.2014 27.4669 13.1973C27.7213 13.1828 29.2764 13.2035 29.7003 13.2263ZM29.3157 45.0926C29.4005 45.2835 29.5121 45.6572 29.5638 45.9228C29.7458 46.8362 29.661 47.7661 29.3033 48.752C29.1213 49.2523 28.6808 50.2071 28.4327 50.6368L28.3623 50.7592L28.3313 50.7094C28.2734 50.6222 27.8908 49.8459 27.7213 49.4681C27.2146 48.3576 27.045 47.7017 27.045 46.8528C27.043 46.2612 27.1257 45.8087 27.3222 45.3105C27.4421 45.0116 27.4131 45.0324 27.6158 45.0884C27.7089 45.1154 27.7895 45.1382 27.7916 45.1403C27.7936 45.1403 27.8764 45.5721 27.9736 46.0951C28.2072 47.3655 28.1866 47.2679 28.2341 47.2679C28.2817 47.2679 28.2589 47.3655 28.4595 46.2716C28.5526 45.7755 28.6353 45.3209 28.6477 45.2628L28.6684 45.159L28.7966 45.132C28.8669 45.1175 28.9951 45.0801 29.0799 45.0469C29.1647 45.0137 29.2433 44.9867 29.2516 44.9867C29.2598 44.9846 29.2909 45.0344 29.3157 45.0926Z" fill="#08234B"/>
<path d="M28.0248 15.4702C27.1397 15.5843 26.3477 16.2693 26.0437 17.1847C25.9382 17.4981 25.9072 17.7016 25.9072 18.0731C25.9072 18.4447 25.9382 18.6481 26.0437 18.9615C26.265 19.6278 26.751 20.1903 27.3486 20.4706C27.9545 20.757 28.639 20.7674 29.247 20.5038C30.8931 19.7897 31.2963 17.4629 29.9997 16.1635C29.46 15.6217 28.7569 15.3747 28.0248 15.4702ZM28.6163 15.9891C29.0609 16.068 29.4931 16.3274 29.7785 16.6865C29.946 16.8941 30.1197 17.2449 30.19 17.5127C30.2396 17.6974 30.2458 17.7576 30.2458 18.0731C30.2458 18.3886 30.2396 18.4488 30.19 18.6336C30.0742 19.0695 29.8053 19.4991 29.4848 19.7565C28.7817 20.3211 27.8883 20.3211 27.1852 19.7565C26.8647 19.4991 26.5959 19.0695 26.4801 18.6336C26.4304 18.4488 26.4242 18.3886 26.4242 18.0731C26.4242 17.7576 26.4304 17.6974 26.4801 17.5127C26.7199 16.6077 27.4685 15.9767 28.3164 15.9683C28.4136 15.9663 28.548 15.9767 28.6163 15.9891Z" fill="#08234B"/>
<path d="M27.9937 21.9941C27.4312 22.1041 26.9721 22.4611 26.7074 22.9925C26.2194 23.966 26.6123 25.1948 27.5574 25.6494C27.8283 25.7781 27.9834 25.8134 28.2936 25.8134C28.6038 25.8134 28.7589 25.7781 29.0298 25.6494C29.615 25.3671 29.9996 24.8004 30.0782 24.1092C30.1527 23.4367 29.8714 22.7476 29.3606 22.3449C29.1931 22.2141 28.8995 22.0667 28.7072 22.019C28.519 21.9713 28.1716 21.9588 27.9937 21.9941ZM28.5583 22.5151C28.9264 22.6002 29.2366 22.8597 29.4206 23.2416C29.6171 23.6505 29.6253 24.1113 29.4413 24.5098C29.3544 24.7008 29.2924 24.7921 29.1456 24.9395C28.7775 25.3173 28.2315 25.4107 27.7642 25.1803C27.3216 24.9603 27.0114 24.431 27.0114 23.8954C27.0114 23.5758 27.1459 23.1876 27.3382 22.9572C27.6566 22.5753 28.1075 22.4134 28.5583 22.5151Z" fill="#08234B"/>
</g>
</g>
<defs>
<clipPath id="clip0_274_381">
<rect width="238" height="56" fill="white"/>
</clipPath>
<clipPath id="clip1_274_381">
<rect width="55.5882" height="70" fill="white" transform="translate(0 -14)"/>
</clipPath>
</defs>
</svg>
