<svg width="239" height="70" viewBox="0 0 239 70" fill="none" xmlns="http://www.w3.org/2000/svg">
<mask id="path-1-outside-1_212_3987" maskUnits="userSpaceOnUse" x="111" y="51" width="81" height="12" fill="black">
<rect fill="white" x="111" y="51" width="81" height="12"/>
<path d="M116.511 53.748H116.103L113.847 59.496L111.699 53.748H111.291L113.643 59.928L112.731 62.196H113.139L116.511 53.748ZM121.564 60V53.748H121.204V57.048H119.764C118.432 57.048 117.352 55.956 117.352 54.6V53.748H116.992V54.6C116.992 56.124 118.24 57.36 119.776 57.36H121.204V60H121.564ZM129.198 56.844C129.198 55.032 127.698 53.568 125.886 53.568C124.062 53.568 122.586 55.044 122.586 56.868C122.586 58.692 124.062 60.18 125.886 60.18C127.206 60.18 128.346 59.4 128.874 58.284H128.478C127.974 59.196 127.002 59.82 125.886 59.82C124.278 59.82 122.97 58.488 122.97 56.844H129.198ZM125.886 53.928C127.398 53.928 128.646 55.056 128.814 56.532H122.97C123.138 55.056 124.374 53.928 125.886 53.928ZM135.493 51.372H132.337C131.161 51.372 130.213 52.44 130.213 53.748V56.832C130.213 58.68 131.749 60.18 133.549 60.18C135.373 60.18 136.861 58.68 136.861 56.844C136.861 55.032 135.373 53.568 133.549 53.568C132.169 53.568 130.837 54.444 130.597 55.512V53.748C130.597 52.632 131.365 51.732 132.337 51.732H135.493V51.372ZM136.477 56.844C136.477 58.488 135.169 59.82 133.537 59.82C131.917 59.82 130.597 58.488 130.597 56.844C130.597 55.224 131.917 53.928 133.537 53.928C135.157 53.928 136.477 55.224 136.477 56.844ZM137.88 60H138.24V56.868H142.464V60H142.824V53.748H142.464V56.556H138.24V53.748H137.88V60ZM148.928 60V53.748H148.592V60H148.928ZM144.14 60H146.288C147.272 60 148.064 59.208 148.064 58.224C148.064 57.24 147.272 56.436 146.288 56.436H144.5V53.748H144.14V60ZM144.5 56.748H146.216C147.02 56.748 147.68 57.408 147.68 58.224C147.68 59.028 147.02 59.688 146.216 59.688H144.5V56.748ZM155.324 60V53.748H154.796L150.608 59.64V53.748H150.248V60H150.776L154.964 54.108V60H155.324ZM152.804 52.572C152.144 52.572 151.604 52.152 151.34 51.552H150.98C151.232 52.332 151.964 52.908 152.804 52.908C153.644 52.908 154.388 52.332 154.64 51.552H154.28C154.016 52.152 153.464 52.572 152.804 52.572ZM160.133 60H165.497V61.632H165.857V59.688H165.077V53.748H164.717V59.688H160.493V53.748H160.133V60ZM173.069 56.844C173.069 55.032 171.569 53.568 169.757 53.568C167.933 53.568 166.457 55.044 166.457 56.868C166.457 58.692 167.933 60.18 169.757 60.18C171.077 60.18 172.217 59.4 172.745 58.284H172.349C171.845 59.196 170.873 59.82 169.757 59.82C168.149 59.82 166.841 58.488 166.841 56.844H173.069ZM169.757 53.928C171.269 53.928 172.517 55.056 172.685 56.532H166.841C167.009 55.056 168.245 53.928 169.757 53.928ZM174.084 60H174.444V56.868H178.668V60H179.028V53.748H178.668V56.556H174.444V53.748H174.084V60ZM181.785 60H182.145V54.06H184.065V53.748H179.865V54.06H181.785V60ZM184.906 62.196H185.266V58.26C185.842 59.496 186.91 60.18 188.17 60.18C190.006 60.18 191.53 58.68 191.53 56.844C191.53 55.032 190.006 53.568 188.17 53.568C187.006 53.568 185.83 54.216 185.266 55.5V53.748H184.906V62.196ZM191.146 56.844C191.146 58.488 189.838 59.82 188.206 59.82C186.586 59.82 185.266 58.488 185.266 56.844C185.266 55.224 186.586 53.928 188.206 53.928C189.826 53.928 191.146 55.224 191.146 56.844Z"/>
</mask>
<path d="M116.511 53.748H116.103L113.847 59.496L111.699 53.748H111.291L113.643 59.928L112.731 62.196H113.139L116.511 53.748ZM121.564 60V53.748H121.204V57.048H119.764C118.432 57.048 117.352 55.956 117.352 54.6V53.748H116.992V54.6C116.992 56.124 118.24 57.36 119.776 57.36H121.204V60H121.564ZM129.198 56.844C129.198 55.032 127.698 53.568 125.886 53.568C124.062 53.568 122.586 55.044 122.586 56.868C122.586 58.692 124.062 60.18 125.886 60.18C127.206 60.18 128.346 59.4 128.874 58.284H128.478C127.974 59.196 127.002 59.82 125.886 59.82C124.278 59.82 122.97 58.488 122.97 56.844H129.198ZM125.886 53.928C127.398 53.928 128.646 55.056 128.814 56.532H122.97C123.138 55.056 124.374 53.928 125.886 53.928ZM135.493 51.372H132.337C131.161 51.372 130.213 52.44 130.213 53.748V56.832C130.213 58.68 131.749 60.18 133.549 60.18C135.373 60.18 136.861 58.68 136.861 56.844C136.861 55.032 135.373 53.568 133.549 53.568C132.169 53.568 130.837 54.444 130.597 55.512V53.748C130.597 52.632 131.365 51.732 132.337 51.732H135.493V51.372ZM136.477 56.844C136.477 58.488 135.169 59.82 133.537 59.82C131.917 59.82 130.597 58.488 130.597 56.844C130.597 55.224 131.917 53.928 133.537 53.928C135.157 53.928 136.477 55.224 136.477 56.844ZM137.88 60H138.24V56.868H142.464V60H142.824V53.748H142.464V56.556H138.24V53.748H137.88V60ZM148.928 60V53.748H148.592V60H148.928ZM144.14 60H146.288C147.272 60 148.064 59.208 148.064 58.224C148.064 57.24 147.272 56.436 146.288 56.436H144.5V53.748H144.14V60ZM144.5 56.748H146.216C147.02 56.748 147.68 57.408 147.68 58.224C147.68 59.028 147.02 59.688 146.216 59.688H144.5V56.748ZM155.324 60V53.748H154.796L150.608 59.64V53.748H150.248V60H150.776L154.964 54.108V60H155.324ZM152.804 52.572C152.144 52.572 151.604 52.152 151.34 51.552H150.98C151.232 52.332 151.964 52.908 152.804 52.908C153.644 52.908 154.388 52.332 154.64 51.552H154.28C154.016 52.152 153.464 52.572 152.804 52.572ZM160.133 60H165.497V61.632H165.857V59.688H165.077V53.748H164.717V59.688H160.493V53.748H160.133V60ZM173.069 56.844C173.069 55.032 171.569 53.568 169.757 53.568C167.933 53.568 166.457 55.044 166.457 56.868C166.457 58.692 167.933 60.18 169.757 60.18C171.077 60.18 172.217 59.4 172.745 58.284H172.349C171.845 59.196 170.873 59.82 169.757 59.82C168.149 59.82 166.841 58.488 166.841 56.844H173.069ZM169.757 53.928C171.269 53.928 172.517 55.056 172.685 56.532H166.841C167.009 55.056 168.245 53.928 169.757 53.928ZM174.084 60H174.444V56.868H178.668V60H179.028V53.748H178.668V56.556H174.444V53.748H174.084V60ZM181.785 60H182.145V54.06H184.065V53.748H179.865V54.06H181.785V60ZM184.906 62.196H185.266V58.26C185.842 59.496 186.91 60.18 188.17 60.18C190.006 60.18 191.53 58.68 191.53 56.844C191.53 55.032 190.006 53.568 188.17 53.568C187.006 53.568 185.83 54.216 185.266 55.5V53.748H184.906V62.196ZM191.146 56.844C191.146 58.488 189.838 59.82 188.206 59.82C186.586 59.82 185.266 58.488 185.266 56.844C185.266 55.224 186.586 53.928 188.206 53.928C189.826 53.928 191.146 55.224 191.146 56.844Z" fill="#08234B"/>
<path d="M116.511 53.748L116.603 53.7851L116.658 53.648H116.511V53.748ZM116.103 53.748V53.648H116.034L116.01 53.7115L116.103 53.748ZM113.847 59.496L113.753 59.531L113.844 59.7755L113.94 59.5325L113.847 59.496ZM111.699 53.748L111.792 53.713L111.768 53.648H111.699V53.748ZM111.291 53.748V53.648H111.146L111.197 53.7836L111.291 53.748ZM113.643 59.928L113.735 59.9653L113.75 59.929L113.736 59.8924L113.643 59.928ZM112.731 62.196L112.638 62.1587L112.583 62.296H112.731V62.196ZM113.139 62.196V62.296H113.206L113.231 62.2331L113.139 62.196ZM116.511 53.648H116.103V53.848H116.511V53.648ZM116.01 53.7115L113.754 59.4595L113.94 59.5325L116.196 53.7845L116.01 53.7115ZM113.94 59.461L111.792 53.713L111.605 53.783L113.753 59.531L113.94 59.461ZM111.699 53.648H111.291V53.848H111.699V53.648ZM111.197 53.7836L113.549 59.9636L113.736 59.8924L111.384 53.7124L111.197 53.7836ZM113.55 59.8907L112.638 62.1587L112.823 62.2333L113.735 59.9653L113.55 59.8907ZM112.731 62.296H113.139V62.096H112.731V62.296ZM113.231 62.2331L116.603 53.7851L116.418 53.7109L113.046 62.1589L113.231 62.2331ZM121.564 60V60.1H121.664V60H121.564ZM121.564 53.748H121.664V53.648H121.564V53.748ZM121.204 53.748V53.648H121.104V53.748H121.204ZM121.204 57.048V57.148H121.304V57.048H121.204ZM117.352 53.748H117.452V53.648H117.352V53.748ZM116.992 53.748V53.648H116.892V53.748H116.992ZM121.204 57.36H121.304V57.26H121.204V57.36ZM121.204 60H121.104V60.1H121.204V60ZM121.664 60V53.748H121.464V60H121.664ZM121.564 53.648H121.204V53.848H121.564V53.648ZM121.104 53.748V57.048H121.304V53.748H121.104ZM121.204 56.948H119.764V57.148H121.204V56.948ZM119.764 56.948C118.488 56.948 117.452 55.9021 117.452 54.6H117.252C117.252 56.0099 118.375 57.148 119.764 57.148V56.948ZM117.452 54.6V53.748H117.252V54.6H117.452ZM117.352 53.648H116.992V53.848H117.352V53.648ZM116.892 53.748V54.6H117.092V53.748H116.892ZM116.892 54.6C116.892 56.1801 118.185 57.46 119.776 57.46V57.26C118.294 57.26 117.092 56.0679 117.092 54.6H116.892ZM119.776 57.46H121.204V57.26H119.776V57.46ZM121.104 57.36V60H121.304V57.36H121.104ZM121.204 60.1H121.564V59.9H121.204V60.1ZM129.198 56.844V56.944H129.298V56.844H129.198ZM128.874 58.284L128.964 58.3268L129.032 58.184H128.874V58.284ZM128.478 58.284V58.184H128.419L128.39 58.2356L128.478 58.284ZM122.97 56.844V56.744H122.87V56.844H122.97ZM128.814 56.532V56.632H128.926L128.913 56.5207L128.814 56.532ZM122.97 56.532L122.87 56.5207L122.858 56.632H122.97V56.532ZM129.298 56.844C129.298 54.9754 127.751 53.468 125.886 53.468V53.668C127.644 53.668 129.098 55.0886 129.098 56.844H129.298ZM125.886 53.468C124.006 53.468 122.486 54.9888 122.486 56.868H122.686C122.686 55.0992 124.117 53.668 125.886 53.668V53.468ZM122.486 56.868C122.486 58.7468 124.006 60.28 125.886 60.28V60.08C124.117 60.08 122.686 58.6372 122.686 56.868H122.486ZM125.886 60.28C127.246 60.28 128.42 59.4762 128.964 58.3268L128.783 58.2412C128.271 59.3238 127.165 60.08 125.886 60.08V60.28ZM128.874 58.184H128.478V58.384H128.874V58.184ZM128.39 58.2356C127.903 59.1174 126.963 59.72 125.886 59.72V59.92C127.04 59.92 128.044 59.2746 128.565 58.3324L128.39 58.2356ZM125.886 59.72C124.335 59.72 123.07 58.4346 123.07 56.844H122.87C122.87 58.5414 124.221 59.92 125.886 59.92V59.72ZM122.97 56.944H129.198V56.744H122.97V56.944ZM125.886 54.028C127.347 54.028 128.552 55.1177 128.714 56.5433L128.913 56.5207C128.739 54.9943 127.449 53.828 125.886 53.828V54.028ZM128.814 56.432H122.97V56.632H128.814V56.432ZM123.069 56.5433C123.231 55.1172 124.425 54.028 125.886 54.028V53.828C124.322 53.828 123.044 54.9948 122.87 56.5207L123.069 56.5433ZM135.493 51.372H135.593V51.272H135.493V51.372ZM130.597 55.512H130.497L130.694 55.5339L130.597 55.512ZM135.493 51.732V51.832H135.593V51.732H135.493ZM135.493 51.272H132.337V51.472H135.493V51.272ZM132.337 51.272C131.095 51.272 130.113 52.3958 130.113 53.748H130.313C130.313 52.4842 131.226 51.472 132.337 51.472V51.272ZM130.113 53.748V56.832H130.313V53.748H130.113ZM130.113 56.832C130.113 58.7357 131.694 60.28 133.549 60.28V60.08C131.803 60.08 130.313 58.6243 130.313 56.832H130.113ZM133.549 60.28C135.429 60.28 136.961 58.7345 136.961 56.844H136.761C136.761 58.6255 135.317 60.08 133.549 60.08V60.28ZM136.961 56.844C136.961 54.9756 135.427 53.468 133.549 53.468V53.668C135.319 53.668 136.761 55.0884 136.761 56.844H136.961ZM133.549 53.468C132.838 53.468 132.141 53.6932 131.59 54.056C131.04 54.4181 130.626 54.9236 130.499 55.4901L130.694 55.5339C130.807 55.0324 131.179 54.5659 131.7 54.223C132.22 53.8808 132.879 53.668 133.549 53.668V53.468ZM130.697 55.512V53.748H130.497V55.512H130.697ZM130.697 53.748C130.697 52.6726 131.433 51.832 132.337 51.832V51.632C131.296 51.632 130.497 52.5914 130.497 53.748H130.697ZM132.337 51.832H135.493V51.632H132.337V51.832ZM135.593 51.732V51.372H135.393V51.732H135.593ZM136.377 56.844C136.377 58.4341 135.112 59.72 133.537 59.72V59.92C135.225 59.92 136.577 58.5419 136.577 56.844H136.377ZM133.537 59.72C131.973 59.72 130.697 58.4338 130.697 56.844H130.497C130.497 58.5422 131.86 59.92 133.537 59.92V59.72ZM130.697 56.844C130.697 55.2803 131.971 54.028 133.537 54.028V53.828C131.862 53.828 130.497 55.1677 130.497 56.844H130.697ZM133.537 54.028C135.102 54.028 136.377 55.2803 136.377 56.844H136.577C136.577 55.1677 135.211 53.828 133.537 53.828V54.028ZM137.88 60H137.78V60.1H137.88V60ZM138.24 60V60.1H138.34V60H138.24ZM138.24 56.868V56.768H138.14V56.868H138.24ZM142.464 56.868H142.564V56.768H142.464V56.868ZM142.464 60H142.364V60.1H142.464V60ZM142.824 60V60.1H142.924V60H142.824ZM142.824 53.748H142.924V53.648H142.824V53.748ZM142.464 53.748V53.648H142.364V53.748H142.464ZM142.464 56.556V56.656H142.564V56.556H142.464ZM138.24 56.556H138.14V56.656H138.24V56.556ZM138.24 53.748H138.34V53.648H138.24V53.748ZM137.88 53.748V53.648H137.78V53.748H137.88ZM137.88 60.1H138.24V59.9H137.88V60.1ZM138.34 60V56.868H138.14V60H138.34ZM138.24 56.968H142.464V56.768H138.24V56.968ZM142.364 56.868V60H142.564V56.868H142.364ZM142.464 60.1H142.824V59.9H142.464V60.1ZM142.924 60V53.748H142.724V60H142.924ZM142.824 53.648H142.464V53.848H142.824V53.648ZM142.364 53.748V56.556H142.564V53.748H142.364ZM142.464 56.456H138.24V56.656H142.464V56.456ZM138.34 56.556V53.748H138.14V56.556H138.34ZM138.24 53.648H137.88V53.848H138.24V53.648ZM137.78 53.748V60H137.98V53.748H137.78ZM148.928 60V60.1H149.028V60H148.928ZM148.928 53.748H149.028V53.648H148.928V53.748ZM148.592 53.748V53.648H148.492V53.748H148.592ZM148.592 60H148.492V60.1H148.592V60ZM144.14 60H144.04V60.1H144.14V60ZM144.5 56.436H144.4V56.536H144.5V56.436ZM144.5 53.748H144.6V53.648H144.5V53.748ZM144.14 53.748V53.648H144.04V53.748H144.14ZM144.5 56.748V56.648H144.4V56.748H144.5ZM144.5 59.688H144.4V59.788H144.5V59.688ZM149.028 60V53.748H148.828V60H149.028ZM148.928 53.648H148.592V53.848H148.928V53.648ZM148.492 53.748V60H148.692V53.748H148.492ZM148.592 60.1H148.928V59.9H148.592V60.1ZM144.14 60.1H146.288V59.9H144.14V60.1ZM146.288 60.1C147.327 60.1 148.164 59.2632 148.164 58.224H147.964C147.964 59.1528 147.217 59.9 146.288 59.9V60.1ZM148.164 58.224C148.164 57.1857 147.328 56.336 146.288 56.336V56.536C147.216 56.536 147.964 57.2943 147.964 58.224H148.164ZM146.288 56.336H144.5V56.536H146.288V56.336ZM144.6 56.436V53.748H144.4V56.436H144.6ZM144.5 53.648H144.14V53.848H144.5V53.648ZM144.04 53.748V60H144.24V53.748H144.04ZM144.5 56.848H146.216V56.648H144.5V56.848ZM146.216 56.848C146.964 56.848 147.58 57.4627 147.58 58.224H147.78C147.78 57.3533 147.076 56.648 146.216 56.648V56.848ZM147.58 58.224C147.58 58.9728 146.965 59.588 146.216 59.588V59.788C147.075 59.788 147.78 59.0832 147.78 58.224H147.58ZM146.216 59.588H144.5V59.788H146.216V59.588ZM144.6 59.688V56.748H144.4V59.688H144.6ZM155.324 60V60.1H155.424V60H155.324ZM155.324 53.748H155.424V53.648H155.324V53.748ZM154.796 53.748V53.648H154.745L154.715 53.6901L154.796 53.748ZM150.608 59.64H150.508V59.9533L150.69 59.6979L150.608 59.64ZM150.608 53.748H150.708V53.648H150.608V53.748ZM150.248 53.748V53.648H150.148V53.748H150.248ZM150.248 60H150.148V60.1H150.248V60ZM150.776 60V60.1H150.828L150.858 60.0579L150.776 60ZM154.964 54.108H155.064V53.7947L154.883 54.0501L154.964 54.108ZM154.964 60H154.864V60.1H154.964V60ZM151.34 51.552L151.432 51.5117L151.406 51.452H151.34V51.552ZM150.98 51.552V51.452H150.843L150.885 51.5827L150.98 51.552ZM154.64 51.552L154.736 51.5827L154.778 51.452H154.64V51.552ZM154.28 51.552V51.452H154.215L154.189 51.5117L154.28 51.552ZM155.424 60V53.748H155.224V60H155.424ZM155.324 53.648H154.796V53.848H155.324V53.648ZM154.715 53.6901L150.527 59.5821L150.69 59.6979L154.878 53.8059L154.715 53.6901ZM150.708 59.64V53.748H150.508V59.64H150.708ZM150.608 53.648H150.248V53.848H150.608V53.648ZM150.148 53.748V60H150.348V53.748H150.148ZM150.248 60.1H150.776V59.9H150.248V60.1ZM150.858 60.0579L155.046 54.1659L154.883 54.0501L150.695 59.9421L150.858 60.0579ZM154.864 54.108V60H155.064V54.108H154.864ZM154.964 60.1H155.324V59.9H154.964V60.1ZM152.804 52.472C152.191 52.472 151.683 52.0822 151.432 51.5117L151.249 51.5923C151.526 52.2218 152.098 52.672 152.804 52.672V52.472ZM151.34 51.452H150.98V51.652H151.34V51.452ZM150.885 51.5827C151.15 52.4012 151.918 53.008 152.804 53.008V52.808C152.011 52.808 151.315 52.2628 151.076 51.5213L150.885 51.5827ZM152.804 53.008C153.69 53.008 154.471 52.4019 154.736 51.5827L154.545 51.5213C154.306 52.2621 153.599 52.808 152.804 52.808V53.008ZM154.64 51.452H154.28V51.652H154.64V51.452ZM154.189 51.5117C153.938 52.0813 153.419 52.472 152.804 52.472V52.672C153.51 52.672 154.095 52.2227 154.372 51.5923L154.189 51.5117ZM160.133 60H160.033V60.1H160.133V60ZM165.497 60H165.597V59.9H165.497V60ZM165.497 61.632H165.397V61.732H165.497V61.632ZM165.857 61.632V61.732H165.957V61.632H165.857ZM165.857 59.688H165.957V59.588H165.857V59.688ZM165.077 59.688H164.977V59.788H165.077V59.688ZM165.077 53.748H165.177V53.648H165.077V53.748ZM164.717 53.748V53.648H164.617V53.748H164.717ZM164.717 59.688V59.788H164.817V59.688H164.717ZM160.493 59.688H160.393V59.788H160.493V59.688ZM160.493 53.748H160.593V53.648H160.493V53.748ZM160.133 53.748V53.648H160.033V53.748H160.133ZM160.133 60.1H165.497V59.9H160.133V60.1ZM165.397 60V61.632H165.597V60H165.397ZM165.497 61.732H165.857V61.532H165.497V61.732ZM165.957 61.632V59.688H165.757V61.632H165.957ZM165.857 59.588H165.077V59.788H165.857V59.588ZM165.177 59.688V53.748H164.977V59.688H165.177ZM165.077 53.648H164.717V53.848H165.077V53.648ZM164.617 53.748V59.688H164.817V53.748H164.617ZM164.717 59.588H160.493V59.788H164.717V59.588ZM160.593 59.688V53.748H160.393V59.688H160.593ZM160.493 53.648H160.133V53.848H160.493V53.648ZM160.033 53.748V60H160.233V53.748H160.033ZM173.069 56.844V56.944H173.169V56.844H173.069ZM172.745 58.284L172.835 58.3268L172.903 58.184H172.745V58.284ZM172.349 58.284V58.184H172.29L172.261 58.2356L172.349 58.284ZM166.841 56.844V56.744H166.741V56.844H166.841ZM172.685 56.532V56.632H172.797L172.784 56.5207L172.685 56.532ZM166.841 56.532L166.742 56.5207L166.729 56.632H166.841V56.532ZM173.169 56.844C173.169 54.9754 171.623 53.468 169.757 53.468V53.668C171.515 53.668 172.969 55.0886 172.969 56.844H173.169ZM169.757 53.468C167.878 53.468 166.357 54.9888 166.357 56.868H166.557C166.557 55.0992 167.988 53.668 169.757 53.668V53.468ZM166.357 56.868C166.357 58.7468 167.877 60.28 169.757 60.28V60.08C167.989 60.08 166.557 58.6372 166.557 56.868H166.357ZM169.757 60.28C171.117 60.28 172.291 59.4762 172.835 58.3268L172.654 58.2412C172.142 59.3238 171.037 60.08 169.757 60.08V60.28ZM172.745 58.184H172.349V58.384H172.745V58.184ZM172.261 58.2356C171.774 59.1174 170.835 59.72 169.757 59.72V59.92C170.911 59.92 171.916 59.2746 172.436 58.3324L172.261 58.2356ZM169.757 59.72C168.206 59.72 166.941 58.4346 166.941 56.844H166.741C166.741 58.5414 168.092 59.92 169.757 59.92V59.72ZM166.841 56.944H173.069V56.744H166.841V56.944ZM169.757 54.028C171.218 54.028 172.423 55.1177 172.586 56.5433L172.784 56.5207C172.61 54.9943 171.32 53.828 169.757 53.828V54.028ZM172.685 56.432H166.841V56.632H172.685V56.432ZM166.94 56.5433C167.103 55.1172 168.296 54.028 169.757 54.028V53.828C168.193 53.828 166.915 54.9948 166.742 56.5207L166.94 56.5433ZM174.084 60H173.984V60.1H174.084V60ZM174.444 60V60.1H174.544V60H174.444ZM174.444 56.868V56.768H174.344V56.868H174.444ZM178.668 56.868H178.768V56.768H178.668V56.868ZM178.668 60H178.568V60.1H178.668V60ZM179.028 60V60.1H179.128V60H179.028ZM179.028 53.748H179.128V53.648H179.028V53.748ZM178.668 53.748V53.648H178.568V53.748H178.668ZM178.668 56.556V56.656H178.768V56.556H178.668ZM174.444 56.556H174.344V56.656H174.444V56.556ZM174.444 53.748H174.544V53.648H174.444V53.748ZM174.084 53.748V53.648H173.984V53.748H174.084ZM174.084 60.1H174.444V59.9H174.084V60.1ZM174.544 60V56.868H174.344V60H174.544ZM174.444 56.968H178.668V56.768H174.444V56.968ZM178.568 56.868V60H178.768V56.868H178.568ZM178.668 60.1H179.028V59.9H178.668V60.1ZM179.128 60V53.748H178.928V60H179.128ZM179.028 53.648H178.668V53.848H179.028V53.648ZM178.568 53.748V56.556H178.768V53.748H178.568ZM178.668 56.456H174.444V56.656H178.668V56.456ZM174.544 56.556V53.748H174.344V56.556H174.544ZM174.444 53.648H174.084V53.848H174.444V53.648ZM173.984 53.748V60H174.184V53.748H173.984ZM181.785 60H181.685V60.1H181.785V60ZM182.145 60V60.1H182.245V60H182.145ZM182.145 54.06V53.96H182.045V54.06H182.145ZM184.065 54.06V54.16H184.165V54.06H184.065ZM184.065 53.748H184.165V53.648H184.065V53.748ZM179.865 53.748V53.648H179.765V53.748H179.865ZM179.865 54.06H179.765V54.16H179.865V54.06ZM181.785 54.06H181.885V53.96H181.785V54.06ZM181.785 60.1H182.145V59.9H181.785V60.1ZM182.245 60V54.06H182.045V60H182.245ZM182.145 54.16H184.065V53.96H182.145V54.16ZM184.165 54.06V53.748H183.965V54.06H184.165ZM184.065 53.648H179.865V53.848H184.065V53.648ZM179.765 53.748V54.06H179.965V53.748H179.765ZM179.865 54.16H181.785V53.96H179.865V54.16ZM181.685 54.06V60H181.885V54.06H181.685ZM184.906 62.196H184.806V62.296H184.906V62.196ZM185.266 62.196V62.296H185.366V62.196H185.266ZM185.266 58.26L185.357 58.2178L185.166 58.26H185.266ZM185.266 55.5H185.166L185.357 55.5402L185.266 55.5ZM185.266 53.748H185.366V53.648H185.266V53.748ZM184.906 53.748V53.648H184.806V53.748H184.906ZM184.906 62.296H185.266V62.096H184.906V62.296ZM185.366 62.196V58.26H185.166V62.196H185.366ZM185.175 58.3022C185.767 59.5716 186.869 60.28 188.17 60.28V60.08C186.951 60.08 185.917 59.4204 185.357 58.2178L185.175 58.3022ZM188.17 60.28C190.06 60.28 191.63 58.7362 191.63 56.844H191.43C191.43 58.6238 189.952 60.08 188.17 60.08V60.28ZM191.63 56.844C191.63 54.974 190.058 53.468 188.17 53.468V53.668C189.954 53.668 191.43 55.09 191.43 56.844H191.63ZM188.17 53.468C186.969 53.468 185.755 54.1374 185.174 55.4598L185.357 55.5402C185.905 54.2946 187.043 53.668 188.17 53.668V53.468ZM185.366 55.5V53.748H185.166V55.5H185.366ZM185.266 53.648H184.906V53.848H185.266V53.648ZM184.806 53.748V62.196H185.006V53.748H184.806ZM191.046 56.844C191.046 58.4341 189.781 59.72 188.206 59.72V59.92C189.894 59.92 191.246 58.5419 191.246 56.844H191.046ZM188.206 59.72C186.642 59.72 185.366 58.4338 185.366 56.844H185.166C185.166 58.5422 186.53 59.92 188.206 59.92V59.72ZM185.366 56.844C185.366 55.2803 186.64 54.028 188.206 54.028V53.828C186.532 53.828 185.166 55.1677 185.166 56.844H185.366ZM188.206 54.028C189.772 54.028 191.046 55.2803 191.046 56.844H191.246C191.246 55.1677 189.88 53.828 188.206 53.828V54.028Z" fill="#08234B" mask="url(#path-1-outside-1_212_3987)"/>
<mask id="path-3-outside-2_212_3987" maskUnits="userSpaceOnUse" x="67" y="24" width="172" height="21" fill="black">
<rect fill="white" x="67" y="24" width="172" height="21"/>
<path d="M67.4934 44H68.3774V37.006L69.9374 34.9L76.2814 44H77.4254L70.4574 34.224L77.2694 25.306H76.1254L68.3774 35.602V25.306H67.4934V44ZM91.9903 44H92.8743V36.044H97.2423C100.024 36.044 102.286 33.626 102.286 30.662C102.286 27.698 100.024 25.306 97.2423 25.306H91.9903V44ZM92.8743 26.086H96.9823C99.4003 26.086 101.324 28.088 101.324 30.662C101.324 33.236 99.4003 35.264 96.9823 35.264H92.8743V26.086ZM116.546 44V43.22H107.992V34.952H116.26V34.172H107.992V26.086H116.546V25.306H107.108V44H116.546ZM121.483 26.086H126.683C128.789 26.086 130.479 27.802 130.479 29.908C130.479 32.014 128.789 33.704 126.683 33.704H122.367V34.484H127.151C129.569 34.484 131.519 36.434 131.519 38.852C131.519 41.27 129.569 43.22 127.151 43.22H122.367H121.483V44H127.255C130.141 44 132.481 41.712 132.481 38.852C132.481 36.434 130.687 34.276 128.477 34.016C130.115 33.6 131.363 31.728 131.363 29.57C131.363 27.204 129.335 25.306 126.839 25.306H121.483V26.086ZM149.102 25.306H148.062L143.252 37.448L136.882 25.306H135.894L142.732 38.358L140.34 44H141.458L149.102 25.306ZM165.022 44L158.054 25.306H157.014L150.046 44H151.138L157.534 26.268L163.93 44H165.022ZM169.584 44H174.836C177.696 44 180.036 41.634 180.036 38.67C180.036 35.706 177.696 33.34 174.836 33.34H170.468V25.306H169.584V44ZM170.468 34.12H174.836C177.15 34.12 179.074 36.148 179.074 38.67C179.074 41.192 177.15 43.22 174.836 43.22H170.468V34.12ZM193.096 26.086V25.306H183.684V26.086H187.922V44H188.858V26.086H193.096ZM195.42 44L198.124 37.318H206.678L209.356 44H210.396L202.804 25.28H201.972L194.38 44H195.42ZM198.41 36.538L202.388 26.294L206.392 36.538H198.41ZM221.097 26.086V25.306H211.685V26.086H215.923V44H216.859V26.086H221.097ZM237.674 25.306H236.634L231.824 37.448L225.454 25.306H224.466L231.304 38.358L228.912 44H230.03L237.674 25.306Z"/>
</mask>
<path d="M67.4934 44H68.3774V37.006L69.9374 34.9L76.2814 44H77.4254L70.4574 34.224L77.2694 25.306H76.1254L68.3774 35.602V25.306H67.4934V44ZM91.9903 44H92.8743V36.044H97.2423C100.024 36.044 102.286 33.626 102.286 30.662C102.286 27.698 100.024 25.306 97.2423 25.306H91.9903V44ZM92.8743 26.086H96.9823C99.4003 26.086 101.324 28.088 101.324 30.662C101.324 33.236 99.4003 35.264 96.9823 35.264H92.8743V26.086ZM116.546 44V43.22H107.992V34.952H116.26V34.172H107.992V26.086H116.546V25.306H107.108V44H116.546ZM121.483 26.086H126.683C128.789 26.086 130.479 27.802 130.479 29.908C130.479 32.014 128.789 33.704 126.683 33.704H122.367V34.484H127.151C129.569 34.484 131.519 36.434 131.519 38.852C131.519 41.27 129.569 43.22 127.151 43.22H122.367H121.483V44H127.255C130.141 44 132.481 41.712 132.481 38.852C132.481 36.434 130.687 34.276 128.477 34.016C130.115 33.6 131.363 31.728 131.363 29.57C131.363 27.204 129.335 25.306 126.839 25.306H121.483V26.086ZM149.102 25.306H148.062L143.252 37.448L136.882 25.306H135.894L142.732 38.358L140.34 44H141.458L149.102 25.306ZM165.022 44L158.054 25.306H157.014L150.046 44H151.138L157.534 26.268L163.93 44H165.022ZM169.584 44H174.836C177.696 44 180.036 41.634 180.036 38.67C180.036 35.706 177.696 33.34 174.836 33.34H170.468V25.306H169.584V44ZM170.468 34.12H174.836C177.15 34.12 179.074 36.148 179.074 38.67C179.074 41.192 177.15 43.22 174.836 43.22H170.468V34.12ZM193.096 26.086V25.306H183.684V26.086H187.922V44H188.858V26.086H193.096ZM195.42 44L198.124 37.318H206.678L209.356 44H210.396L202.804 25.28H201.972L194.38 44H195.42ZM198.41 36.538L202.388 26.294L206.392 36.538H198.41ZM221.097 26.086V25.306H211.685V26.086H215.923V44H216.859V26.086H221.097ZM237.674 25.306H236.634L231.824 37.448L225.454 25.306H224.466L231.304 38.358L228.912 44H230.03L237.674 25.306Z" fill="#08234B"/>
<path d="M67.4934 44H67.0934V44.4H67.4934V44ZM68.3774 44V44.4H68.7774V44H68.3774ZM68.3774 37.006L68.056 36.7679L67.9774 36.874V37.006H68.3774ZM69.9374 34.9L70.2655 34.6712L69.9472 34.2147L69.616 34.6619L69.9374 34.9ZM76.2814 44L75.9533 44.2288L76.0726 44.4H76.2814V44ZM77.4254 44V44.4H78.2017L77.7511 43.7678L77.4254 44ZM70.4574 34.224L70.1395 33.9812L69.9603 34.2158L70.1317 34.4562L70.4574 34.224ZM77.2694 25.306L77.5873 25.5488L78.0783 24.906H77.2694V25.306ZM76.1254 25.306V24.906H75.9258L75.8058 25.0655L76.1254 25.306ZM68.3774 35.602H67.9774V36.7988L68.697 35.8425L68.3774 35.602ZM68.3774 25.306H68.7774V24.906H68.3774V25.306ZM67.4934 25.306V24.906H67.0934V25.306H67.4934ZM67.4934 44.4H68.3774V43.6H67.4934V44.4ZM68.7774 44V37.006H67.9774V44H68.7774ZM68.6988 37.2441L70.2588 35.1381L69.616 34.6619L68.056 36.7679L68.6988 37.2441ZM69.6093 35.1288L75.9533 44.2288L76.6095 43.7712L70.2655 34.6712L69.6093 35.1288ZM76.2814 44.4H77.4254V43.6H76.2814V44.4ZM77.7511 43.7678L70.7831 33.9918L70.1317 34.4562L77.0997 44.2322L77.7511 43.7678ZM70.7753 34.4668L77.5873 25.5488L76.9515 25.0632L70.1395 33.9812L70.7753 34.4668ZM77.2694 24.906H76.1254V25.706H77.2694V24.906ZM75.8058 25.0655L68.0578 35.3615L68.697 35.8425L76.445 25.5465L75.8058 25.0655ZM68.7774 35.602V25.306H67.9774V35.602H68.7774ZM68.3774 24.906H67.4934V25.706H68.3774V24.906ZM67.0934 25.306V44H67.8934V25.306H67.0934ZM91.9903 44H91.5903V44.4H91.9903V44ZM92.8743 44V44.4H93.2743V44H92.8743ZM92.8743 36.044V35.644H92.4743V36.044H92.8743ZM91.9903 25.306V24.906H91.5903V25.306H91.9903ZM92.8743 26.086V25.686H92.4743V26.086H92.8743ZM92.8743 35.264H92.4743V35.664H92.8743V35.264ZM91.9903 44.4H92.8743V43.6H91.9903V44.4ZM93.2743 44V36.044H92.4743V44H93.2743ZM92.8743 36.444H97.2423V35.644H92.8743V36.444ZM97.2423 36.444C100.269 36.444 102.686 33.8219 102.686 30.662H101.886C101.886 33.4301 99.7791 35.644 97.2423 35.644V36.444ZM102.686 30.662C102.686 27.4995 100.267 24.906 97.2423 24.906V25.706C99.7815 25.706 101.886 27.8965 101.886 30.662H102.686ZM97.2423 24.906H91.9903V25.706H97.2423V24.906ZM91.5903 25.306V44H92.3903V25.306H91.5903ZM92.8743 26.486H96.9823V25.686H92.8743V26.486ZM96.9823 26.486C99.1613 26.486 100.924 28.2904 100.924 30.662H101.724C101.724 27.8856 99.6393 25.686 96.9823 25.686V26.486ZM100.924 30.662C100.924 33.0367 99.1584 34.864 96.9823 34.864V35.664C99.6422 35.664 101.724 33.4353 101.724 30.662H100.924ZM96.9823 34.864H92.8743V35.664H96.9823V34.864ZM93.2743 35.264V26.086H92.4743V35.264H93.2743ZM116.546 44V44.4H116.946V44H116.546ZM116.546 43.22H116.946V42.82H116.546V43.22ZM107.992 43.22H107.592V43.62H107.992V43.22ZM107.992 34.952V34.552H107.592V34.952H107.992ZM116.26 34.952V35.352H116.66V34.952H116.26ZM116.26 34.172H116.66V33.772H116.26V34.172ZM107.992 34.172H107.592V34.572H107.992V34.172ZM107.992 26.086V25.686H107.592V26.086H107.992ZM116.546 26.086V26.486H116.946V26.086H116.546ZM116.546 25.306H116.946V24.906H116.546V25.306ZM107.108 25.306V24.906H106.708V25.306H107.108ZM107.108 44H106.708V44.4H107.108V44ZM116.946 44V43.22H116.146V44H116.946ZM116.546 42.82H107.992V43.62H116.546V42.82ZM108.392 43.22V34.952H107.592V43.22H108.392ZM107.992 35.352H116.26V34.552H107.992V35.352ZM116.66 34.952V34.172H115.86V34.952H116.66ZM116.26 33.772H107.992V34.572H116.26V33.772ZM108.392 34.172V26.086H107.592V34.172H108.392ZM107.992 26.486H116.546V25.686H107.992V26.486ZM116.946 26.086V25.306H116.146V26.086H116.946ZM116.546 24.906H107.108V25.706H116.546V24.906ZM106.708 25.306V44H107.508V25.306H106.708ZM107.108 44.4H116.546V43.6H107.108V44.4ZM121.483 26.086H121.083V26.486H121.483V26.086ZM122.367 33.704V33.304H121.967V33.704H122.367ZM122.367 34.484H121.967V34.884H122.367V34.484ZM121.483 43.22V42.82H121.083V43.22H121.483ZM121.483 44H121.083V44.4H121.483V44ZM128.477 34.016L128.379 33.6283L128.43 34.4133L128.477 34.016ZM121.483 25.306V24.906H121.083V25.306H121.483ZM121.483 26.486H126.683V25.686H121.483V26.486ZM126.683 26.486C128.565 26.486 130.079 28.0193 130.079 29.908H130.879C130.879 27.5847 129.013 25.686 126.683 25.686V26.486ZM130.079 29.908C130.079 31.7931 128.568 33.304 126.683 33.304V34.104C129.01 34.104 130.879 32.2349 130.879 29.908H130.079ZM126.683 33.304H122.367V34.104H126.683V33.304ZM121.967 33.704V34.484H122.767V33.704H121.967ZM122.367 34.884H127.151V34.084H122.367V34.884ZM127.151 34.884C129.348 34.884 131.119 36.6549 131.119 38.852H131.919C131.919 36.2131 129.79 34.084 127.151 34.084V34.884ZM131.119 38.852C131.119 41.0491 129.348 42.82 127.151 42.82V43.62C129.79 43.62 131.919 41.4909 131.919 38.852H131.119ZM127.151 42.82H122.367V43.62H127.151V42.82ZM122.367 42.82H121.483V43.62H122.367V42.82ZM121.083 43.22V44H121.883V43.22H121.083ZM121.483 44.4H127.255V43.6H121.483V44.4ZM127.255 44.4C130.355 44.4 132.881 41.9394 132.881 38.852H132.081C132.081 41.4846 129.927 43.6 127.255 43.6V44.4ZM132.881 38.852C132.881 36.2564 130.959 33.9053 128.524 33.6187L128.43 34.4133C130.415 34.6467 132.081 36.6116 132.081 38.852H132.881ZM128.575 34.4037C130.441 33.9298 131.763 31.853 131.763 29.57H130.963C130.963 31.603 129.789 33.2702 128.379 33.6283L128.575 34.4037ZM131.763 29.57C131.763 26.9603 129.532 24.906 126.839 24.906V25.706C129.138 25.706 130.963 27.4477 130.963 29.57H131.763ZM126.839 24.906H121.483V25.706H126.839V24.906ZM121.083 25.306V26.086H121.883V25.306H121.083ZM149.102 25.306L149.472 25.4574L149.697 24.906H149.102V25.306ZM148.062 25.306V24.906H147.79L147.69 25.1587L148.062 25.306ZM143.252 37.448L142.897 37.6338L143.303 38.4058L143.624 37.5953L143.252 37.448ZM136.882 25.306L137.236 25.1202L137.124 24.906H136.882V25.306ZM135.894 25.306V24.906H135.233L135.539 25.4916L135.894 25.306ZM142.732 38.358L143.1 38.5141L143.174 38.34L143.086 38.1724L142.732 38.358ZM140.34 44L139.971 43.8439L139.736 44.4H140.34V44ZM141.458 44V44.4H141.726L141.828 44.1514L141.458 44ZM149.102 24.906H148.062V25.706H149.102V24.906ZM147.69 25.1587L142.88 37.3007L143.624 37.5953L148.434 25.4533L147.69 25.1587ZM143.606 37.2622L137.236 25.1202L136.527 25.4918L142.897 37.6338L143.606 37.2622ZM136.882 24.906H135.894V25.706H136.882V24.906ZM135.539 25.4916L142.377 38.5436L143.086 38.1724L136.248 25.1204L135.539 25.4916ZM142.363 38.2019L139.971 43.8439L140.708 44.1561L143.1 38.5141L142.363 38.2019ZM140.34 44.4H141.458V43.6H140.34V44.4ZM141.828 44.1514L149.472 25.4574L148.731 25.1546L141.087 43.8486L141.828 44.1514ZM165.022 44V44.4H165.598L165.397 43.8603L165.022 44ZM158.054 25.306L158.429 25.1663L158.332 24.906H158.054V25.306ZM157.014 25.306V24.906H156.737L156.64 25.1663L157.014 25.306ZM150.046 44L149.672 43.8603L149.47 44.4H150.046V44ZM151.138 44V44.4H151.419L151.515 44.1357L151.138 44ZM157.534 26.268L157.911 26.1323L157.534 25.0891L157.158 26.1323L157.534 26.268ZM163.93 44L163.554 44.1357L163.649 44.4H163.93V44ZM165.397 43.8603L158.429 25.1663L157.68 25.4457L164.648 44.1397L165.397 43.8603ZM158.054 24.906H157.014V25.706H158.054V24.906ZM156.64 25.1663L149.672 43.8603L150.421 44.1397L157.389 25.4457L156.64 25.1663ZM150.046 44.4H151.138V43.6H150.046V44.4ZM151.515 44.1357L157.911 26.4037L157.158 26.1323L150.762 43.8643L151.515 44.1357ZM157.158 26.4037L163.554 44.1357L164.307 43.8643L157.911 26.1323L157.158 26.4037ZM163.93 44.4H165.022V43.6H163.93V44.4ZM169.584 44H169.184V44.4H169.584V44ZM170.468 33.34H170.068V33.74H170.468V33.34ZM170.468 25.306H170.868V24.906H170.468V25.306ZM169.584 25.306V24.906H169.184V25.306H169.584ZM170.468 34.12V33.72H170.068V34.12H170.468ZM170.468 43.22H170.068V43.62H170.468V43.22ZM169.584 44.4H174.836V43.6H169.584V44.4ZM174.836 44.4C177.925 44.4 180.436 41.8472 180.436 38.67H179.636C179.636 41.4208 177.467 43.6 174.836 43.6V44.4ZM180.436 38.67C180.436 35.4928 177.925 32.94 174.836 32.94V33.74C177.467 33.74 179.636 35.9192 179.636 38.67H180.436ZM174.836 32.94H170.468V33.74H174.836V32.94ZM170.868 33.34V25.306H170.068V33.34H170.868ZM170.468 24.906H169.584V25.706H170.468V24.906ZM169.184 25.306V44H169.984V25.306H169.184ZM170.468 34.52H174.836V33.72H170.468V34.52ZM174.836 34.52C176.905 34.52 178.674 36.3439 178.674 38.67H179.474C179.474 35.9521 177.395 33.72 174.836 33.72V34.52ZM178.674 38.67C178.674 40.9961 176.905 42.82 174.836 42.82V43.62C177.395 43.62 179.474 41.3879 179.474 38.67H178.674ZM174.836 42.82H170.468V43.62H174.836V42.82ZM170.868 43.22V34.12H170.068V43.22H170.868ZM193.096 26.086V26.486H193.496V26.086H193.096ZM193.096 25.306H193.496V24.906H193.096V25.306ZM183.684 25.306V24.906H183.284V25.306H183.684ZM183.684 26.086H183.284V26.486H183.684V26.086ZM187.922 26.086H188.322V25.686H187.922V26.086ZM187.922 44H187.522V44.4H187.922V44ZM188.858 44V44.4H189.258V44H188.858ZM188.858 26.086V25.686H188.458V26.086H188.858ZM193.496 26.086V25.306H192.696V26.086H193.496ZM193.096 24.906H183.684V25.706H193.096V24.906ZM183.284 25.306V26.086H184.084V25.306H183.284ZM183.684 26.486H187.922V25.686H183.684V26.486ZM187.522 26.086V44H188.322V26.086H187.522ZM187.922 44.4H188.858V43.6H187.922V44.4ZM189.258 44V26.086H188.458V44H189.258ZM188.858 26.486H193.096V25.686H188.858V26.486ZM195.421 44V44.4H195.69L195.791 44.15L195.421 44ZM198.124 37.318V36.918H197.855L197.754 37.168L198.124 37.318ZM206.678 37.318L207.05 37.1692L206.949 36.918H206.678V37.318ZM209.357 44L208.985 44.1488L209.086 44.4H209.357V44ZM210.396 44V44.4H210.99L210.767 43.8497L210.396 44ZM202.805 25.28L203.175 25.1297L203.074 24.88H202.805V25.28ZM201.973 25.28V24.88H201.703L201.602 25.1297L201.973 25.28ZM194.38 44L194.01 43.8497L193.787 44.4H194.38V44ZM198.41 36.538L198.038 36.3932L197.826 36.938H198.41V36.538ZM202.389 26.294L202.761 26.1484L202.387 25.1921L202.016 26.1492L202.389 26.294ZM206.393 36.538V36.938H206.978L206.765 36.3924L206.393 36.538ZM195.791 44.15L198.495 37.468L197.754 37.168L195.05 43.85L195.791 44.15ZM198.124 37.718H206.678V36.918H198.124V37.718ZM206.307 37.4668L208.985 44.1488L209.728 43.8512L207.05 37.1692L206.307 37.4668ZM209.357 44.4H210.396V43.6H209.357V44.4ZM210.767 43.8497L203.175 25.1297L202.434 25.4303L210.026 44.1503L210.767 43.8497ZM202.805 24.88H201.973V25.68H202.805V24.88ZM201.602 25.1297L194.01 43.8497L194.751 44.1503L202.343 25.4303L201.602 25.1297ZM194.38 44.4H195.421V43.6H194.38V44.4ZM198.783 36.6828L202.761 26.4388L202.016 26.1492L198.038 36.3932L198.783 36.6828ZM202.016 26.4396L206.02 36.6836L206.765 36.3924L202.761 26.1484L202.016 26.4396ZM206.393 36.138H198.41V36.938H206.393V36.138ZM221.097 26.086V26.486H221.497V26.086H221.097ZM221.097 25.306H221.497V24.906H221.097V25.306ZM211.685 25.306V24.906H211.285V25.306H211.685ZM211.685 26.086H211.285V26.486H211.685V26.086ZM215.923 26.086H216.323V25.686H215.923V26.086ZM215.923 44H215.523V44.4H215.923V44ZM216.859 44V44.4H217.259V44H216.859ZM216.859 26.086V25.686H216.459V26.086H216.859ZM221.497 26.086V25.306H220.697V26.086H221.497ZM221.097 24.906H211.685V25.706H221.097V24.906ZM211.285 25.306V26.086H212.085V25.306H211.285ZM211.685 26.486H215.923V25.686H211.685V26.486ZM215.523 26.086V44H216.323V26.086H215.523ZM215.923 44.4H216.859V43.6H215.923V44.4ZM217.259 44V26.086H216.459V44H217.259ZM216.859 26.486H221.097V25.686H216.859V26.486ZM237.674 25.306L238.045 25.4574L238.27 24.906H237.674V25.306ZM236.634 25.306V24.906H236.363L236.262 25.1587L236.634 25.306ZM231.824 37.448L231.47 37.6338L231.875 38.4058L232.196 37.5953L231.824 37.448ZM225.454 25.306L225.809 25.1202L225.696 24.906H225.454V25.306ZM224.466 25.306V24.906H223.805L224.112 25.4916L224.466 25.306ZM231.304 38.358L231.673 38.5141L231.746 38.34L231.659 38.1724L231.304 38.358ZM228.912 44L228.544 43.8439L228.308 44.4H228.912V44ZM230.03 44V44.4H230.299L230.401 44.1514L230.03 44ZM237.674 24.906H236.634V25.706H237.674V24.906ZM236.262 25.1587L231.452 37.3007L232.196 37.5953L237.006 25.4533L236.262 25.1587ZM232.179 37.2622L225.809 25.1202L225.1 25.4918L231.47 37.6338L232.179 37.2622ZM225.454 24.906H224.466V25.706H225.454V24.906ZM224.112 25.4916L230.95 38.5436L231.659 38.1724L224.821 25.1204L224.112 25.4916ZM230.936 38.2019L228.544 43.8439L229.281 44.1561L231.673 38.5141L230.936 38.2019ZM228.912 44.4H230.03V43.6H228.912V44.4ZM230.401 44.1514L238.045 25.4574L237.304 25.1546L229.66 43.8486L230.401 44.1514Z" fill="#08234B" mask="url(#path-3-outside-2_212_3987)"/>
<g clip-path="url(#clip0_212_3987)">
<path d="M11.7435 57.7535C11.7435 58.5989 11.4724 58.1362 10.6665 58.1362C9.97182 57.5099 9.62439 57.2664 9.17274 56.4314C9.17274 55.586 8.3667 55.666 9.17259 55.666C9.97848 55.666 11.7435 56.908 11.7435 57.7535Z" fill="#FFB454"/>
<path d="M21.2629 63.3897C21.2629 64.2351 19.8452 63.5984 19.0393 63.5984C18.2334 63.5984 17.0938 63.1218 17.0938 62.2764C17.0938 61.4309 17.886 61.3022 18.6919 61.3022C19.4978 61.3022 21.2629 62.5442 21.2629 63.3897Z" fill="#FFB454"/>
<path d="M23.7994 62.6243C23.7994 63.4697 22.8335 64.329 22.0276 64.329C21.2217 64.329 19.4219 63.0522 19.4219 62.2068C19.4219 61.3613 20.9437 61.0934 21.7496 61.0934C22.5555 61.0934 23.7994 61.7788 23.7994 62.6243Z" fill="#FFB454"/>
<path d="M26.3012 62.9722C26.3012 63.8176 25.0573 64.7117 24.2514 64.7117C23.4455 64.7117 21.0898 63.8176 21.0898 62.9722C21.0898 62.1267 22.9591 61.4413 23.765 61.4413C24.5709 61.4413 26.3012 62.1267 26.3012 62.9722Z" fill="#FFB454"/>
<path d="M27.3787 64.5726C27.3787 65.418 26.8991 64.8509 26.0932 64.8509C25.2873 64.8509 22.9316 65.2789 22.9316 64.4334C22.9316 63.588 24.8704 62.7982 25.6763 62.7982C26.4822 62.7982 27.3787 63.7271 27.3787 64.5726Z" fill="#FFB454"/>
<path d="M14.3499 59.493C14.3499 60.3385 13.9397 60.2932 13.1338 60.2932C12.3279 60.2932 11.084 58.599 11.084 57.7535C11.084 56.9081 11.3552 57.4752 12.1611 57.4752C12.967 57.4752 14.3499 58.6476 14.3499 59.493Z" fill="#FFB454"/>
<path d="M16.513 61.3022C16.513 62.1476 16.198 61.8589 15.3921 61.8589C14.5863 61.8589 13.4813 60.7908 13.4813 59.9454C13.4813 59.0999 13.5184 59.2843 14.3242 59.2843C15.1301 59.2843 16.513 60.4567 16.513 61.3022Z" fill="#FFB454"/>
<path d="M19.2138 61.6849C19.2138 62.5304 18.63 63.2157 17.8241 63.2157C17.0182 63.2157 14.9057 61.4518 14.9057 60.6064C14.9057 59.761 16.0454 59.8062 16.8513 59.8062C17.6572 59.8062 19.2138 60.8395 19.2138 61.6849Z" fill="#FFB454"/>
<path d="M12.0912 58.658C12.0912 59.5035 11.8201 59.0408 11.0142 59.0408C10.3195 58.4145 9.97205 58.171 9.52039 57.336C9.52039 56.4905 8.71436 56.5706 9.52024 56.5706C10.3261 56.5706 12.0912 57.8126 12.0912 58.658Z" fill="#FF7D47"/>
<path d="M21.6105 64.2943C21.6105 65.1397 20.1929 64.503 19.387 64.503C18.5811 64.503 17.4414 64.0264 17.4414 63.1809C17.4414 62.3355 18.2337 62.2068 19.0396 62.2068C19.8455 62.2068 21.6105 63.4488 21.6105 64.2943Z" fill="#FF7D47"/>
<path d="M24.1471 63.5288C24.1471 64.3743 23.1811 65.2336 22.3752 65.2336C21.5693 65.2336 19.7695 63.9568 19.7695 63.1113C19.7695 62.2659 21.2914 61.998 22.0973 61.998C22.9032 61.998 24.1471 62.6834 24.1471 63.5288Z" fill="#FF7D47"/>
<path d="M26.6489 63.8767C26.6489 64.7222 25.405 65.6163 24.5991 65.6163C23.7932 65.6163 21.4375 64.7222 21.4375 63.8767C21.4375 63.0313 23.3068 62.3459 24.1127 62.3459C24.9186 62.3459 26.6489 63.0313 26.6489 63.8767Z" fill="#FF7D47"/>
<path d="M27.7264 65.4771C27.7264 66.3226 27.2468 65.7555 26.4409 65.7555C25.635 65.7555 23.2793 66.1834 23.2793 65.338C23.2793 64.4925 25.2181 63.7028 26.024 63.7028C26.8299 63.7028 27.7264 64.6317 27.7264 65.4771Z" fill="#FF7D47"/>
<path d="M14.6975 60.3976C14.6975 61.2431 14.2873 61.1978 13.4815 61.1978C12.6756 61.1978 11.4316 59.5035 11.4316 58.6581C11.4316 57.8126 11.7028 58.3798 12.5087 58.3798C13.3146 58.3798 14.6975 59.5522 14.6975 60.3976Z" fill="#FF7D47"/>
<path d="M16.8607 62.2068C16.8607 63.0522 16.5457 62.7635 15.7398 62.7635C14.9339 62.7635 13.829 61.6954 13.829 60.8499C13.829 60.0045 13.866 60.1889 14.6719 60.1889C15.4778 60.1889 16.8607 61.3613 16.8607 62.2068Z" fill="#FF7D47"/>
<path d="M19.5615 62.5895C19.5615 63.4349 18.9777 64.1203 18.1718 64.1203C17.3659 64.1203 15.2534 62.3564 15.2534 61.511C15.2534 60.6655 16.3931 60.7108 17.199 60.7108C18.0049 60.7108 19.5615 61.7441 19.5615 62.5895Z" fill="#FF7D47"/>
<path d="M43.9153 58.173C43.9153 59.0185 44.0473 58.6929 44.8532 58.6929C45.5479 58.0666 47.0073 57.4403 47.459 56.6054C47.459 55.7599 47.2921 56.0855 46.4862 56.0855C45.6804 56.0855 43.9153 57.3276 43.9153 58.173Z" fill="#FFB454"/>
<path d="M34.3953 63.8092C34.3953 64.6546 35.813 64.0179 36.6189 64.0179C37.4248 64.0179 38.5645 63.5413 38.5645 62.6959C38.5645 61.8504 37.7722 61.7217 36.9663 61.7217C36.1604 61.7217 34.3953 62.9637 34.3953 63.8092Z" fill="#FFB454"/>
<path d="M31.8588 63.0438C31.8588 63.8892 32.8247 64.7486 33.6306 64.7486C34.4365 64.7486 36.2363 63.4717 36.2363 62.6263C36.2363 61.7808 34.7145 61.513 33.9086 61.513C33.1027 61.513 31.8588 62.1983 31.8588 63.0438Z" fill="#FFB454"/>
<path d="M29.357 63.3917C29.357 64.2371 30.6009 65.1312 31.4068 65.1312C32.2127 65.1312 34.5684 64.2371 34.5684 63.3917C34.5684 62.5462 32.6991 61.8609 31.8932 61.8609C31.0873 61.8609 29.357 62.5462 29.357 63.3917Z" fill="#FFB454"/>
<path d="M28.5227 64.9553C28.5227 65.8007 28.7591 65.2704 29.565 65.2704C30.3709 65.2704 32.7266 65.6984 32.7266 64.8529C32.7266 64.0075 30.8573 63.3221 30.0514 63.3221C29.2455 63.3221 28.7312 64.329 28.5227 64.9553Z" fill="#FFB454"/>
<path d="M41.3083 59.9126C41.3083 60.758 41.7185 60.7128 42.5244 60.7128C43.3303 60.7128 44.5742 59.0185 44.5742 58.173C44.5742 57.3276 44.303 57.8947 43.4971 57.8947C42.6912 57.8947 41.3083 59.0671 41.3083 59.9126Z" fill="#FFB454"/>
<path d="M39.1452 61.7217C39.1452 62.5672 39.4602 62.2784 40.2661 62.2784C41.0719 62.2784 42.1769 61.2103 42.1769 60.3649C42.1769 59.5194 42.1398 59.7039 41.334 59.7039C40.5281 59.7039 39.1452 60.8763 39.1452 61.7217Z" fill="#FFB454"/>
<path d="M36.4444 62.1045C36.4444 62.9499 37.0282 63.6353 37.8341 63.6353C38.64 63.6353 40.7525 61.8714 40.7525 61.0259C40.7525 60.1805 39.6128 60.2257 38.8069 60.2257C38.001 60.2257 36.4444 61.259 36.4444 62.1045Z" fill="#FFB454"/>
<path d="M43.6374 59.008C43.6374 59.8535 43.7694 59.5279 44.5753 59.5279C45.27 58.9016 45.9998 58.4145 46.4515 57.5795C46.4515 56.7341 47.0142 56.9205 46.2083 56.9205C45.4025 56.9205 43.6374 58.1626 43.6374 59.008Z" fill="#FF7D47"/>
<path d="M34.118 64.6442C34.118 65.4897 35.5356 64.853 36.3415 64.853C37.1474 64.853 38.2871 64.3763 38.2871 63.5309C38.2871 62.6854 37.4948 62.5567 36.6889 62.5567C35.8831 62.5567 34.118 63.7988 34.118 64.6442Z" fill="#FF7D47"/>
<path d="M31.5814 63.8788C31.5814 64.7242 32.5474 65.5835 33.3533 65.5835C34.1592 65.5835 35.959 64.3067 35.959 63.4613C35.959 62.6158 34.4371 62.348 33.6312 62.348C32.8253 62.348 31.5814 63.0333 31.5814 63.8788Z" fill="#FF7D47"/>
<path d="M29.0796 64.2267C29.0796 65.0722 30.3235 65.9663 31.1294 65.9663C31.9353 65.9663 34.291 65.0722 34.291 64.2267C34.291 63.3813 32.4217 62.6959 31.6158 62.6959C30.8099 62.6959 29.0796 63.3813 29.0796 64.2267Z" fill="#FF7D47"/>
<path d="M28.2454 65.7903C28.2454 66.6357 28.4817 66.1054 29.2876 66.1054C30.0935 66.1054 32.4492 66.5334 32.4492 65.6879C32.4492 64.8425 30.5799 64.1571 29.774 64.1571C28.9681 64.1571 28.2454 64.9448 28.2454 65.7903Z" fill="#FF7D47"/>
<path d="M41.031 60.7476C41.031 61.593 41.4412 61.5478 42.2471 61.5478C43.0529 61.5478 44.2969 59.8535 44.2969 59.008C44.2969 58.1626 44.0257 58.7297 43.2198 58.7297C42.4139 58.7297 41.031 59.9021 41.031 60.7476Z" fill="#FF7D47"/>
<path d="M38.8678 62.5567C38.8678 63.4022 39.1828 63.1134 39.9887 63.1134C40.7946 63.1134 41.8996 62.0453 41.8996 61.1999C41.8996 60.3544 41.8625 60.5389 41.0566 60.5389C40.2507 60.5389 38.8678 61.7113 38.8678 62.5567Z" fill="#FF7D47"/>
<path d="M36.167 62.9394C36.167 63.7849 36.7508 64.4703 37.5567 64.4703C38.3626 64.4703 40.4751 62.7064 40.4751 61.8609C40.4751 61.0155 39.3354 61.0607 38.5295 61.0607C37.7236 61.0607 36.167 62.094 36.167 62.9394Z" fill="#FF7D47"/>
<path d="M54.9769 42.167C54.9769 57.1255 42.8679 69.25 27.9328 69.25C12.9977 69.25 0.888672 57.1255 0.888672 42.167C0.888672 27.2085 12.9977 15.084 27.9328 15.084C42.8679 15.084 54.9769 27.2085 54.9769 42.167Z" stroke="#08234B" stroke-width="1.5"/>
<path d="M51.7117 42.2495C51.7117 55.2279 41.1902 65.749 28.2113 65.749C15.2324 65.749 4.71094 55.2279 4.71094 42.2495C4.71094 29.2711 15.2324 18.75 28.2113 18.75C41.1902 18.75 51.7117 29.2711 51.7117 42.2495Z" stroke="#08234B" stroke-width="1.5"/>
</g>
<defs>
<clipPath id="clip0_212_3987">
<rect width="55.5882" height="70" fill="white"/>
</clipPath>
</defs>
</svg>
