<svg width="198" height="45" viewBox="0 0 198 45" fill="none" xmlns="http://www.w3.org/2000/svg">
<mask id="path-1-outside-1_1513_2" maskUnits="userSpaceOnUse" x="88" y="31" width="73" height="11" fill="black">
<rect fill="white" x="88" y="31" width="73" height="11"/>
<path d="M92.9422 33.79L90.1322 40.83H89.7922L90.5522 38.94L88.5922 33.79H88.9322L90.7222 38.58L92.6022 33.79H92.9422ZM97.553 39H97.253V36.8H96.063C94.783 36.8 93.743 35.77 93.743 34.5V33.79H94.043V34.5C94.043 35.63 94.943 36.54 96.053 36.54H97.253V33.79H97.553V39ZM104.315 36.37H99.1247C99.1247 37.74 100.215 38.85 101.555 38.85C102.485 38.85 103.295 38.33 103.715 37.57H104.045C103.605 38.5 102.655 39.15 101.555 39.15C100.035 39.15 98.8047 37.91 98.8047 36.39C98.8047 34.87 100.035 33.64 101.555 33.64C103.065 33.64 104.315 34.86 104.315 36.37ZM101.555 33.94C100.295 33.94 99.2647 34.88 99.1247 36.11H103.995C103.855 34.88 102.815 33.94 101.555 33.94ZM109.961 31.81V32.11H107.331C106.521 32.11 105.881 32.86 105.881 33.79V35.26C106.081 34.37 107.191 33.64 108.341 33.64C109.861 33.64 111.101 34.86 111.101 36.37C111.101 37.9 109.861 39.15 108.341 39.15C106.841 39.15 105.561 37.9 105.561 36.36V33.79C105.561 32.7 106.351 31.81 107.331 31.81H109.961ZM110.781 36.37C110.781 35.02 109.681 33.94 108.331 33.94C106.981 33.94 105.881 35.02 105.881 36.37C105.881 37.74 106.981 38.85 108.331 38.85C109.691 38.85 110.781 37.74 110.781 36.37ZM112.35 39V33.79H112.65V36.13H116.17V33.79H116.47V39H116.17V36.39H112.65V39H112.35ZM121.957 39H121.677V33.79H121.957V39ZM117.967 39V33.79H118.267V36.03H119.757C120.577 36.03 121.237 36.7 121.237 37.52C121.237 38.34 120.577 39 119.757 39H117.967ZM118.267 36.29V38.74H119.697C120.367 38.74 120.917 38.19 120.917 37.52C120.917 36.84 120.367 36.29 119.697 36.29H118.267ZM127.687 39H127.387V34.09L123.897 39H123.457V33.79H123.757V38.7L127.247 33.79H127.687V39ZM125.587 32.81C126.137 32.81 126.597 32.46 126.817 31.96H127.117C126.907 32.61 126.287 33.09 125.587 33.09C124.887 33.09 124.277 32.61 124.067 31.96H124.367C124.587 32.46 125.037 32.81 125.587 32.81ZM132.494 39V33.79H132.794V38.74H136.314V33.79H136.614V38.74H137.264V40.36H136.964V39H132.494ZM143.674 36.37H138.484C138.484 37.74 139.574 38.85 140.914 38.85C141.844 38.85 142.654 38.33 143.074 37.57H143.404C142.964 38.5 142.014 39.15 140.914 39.15C139.394 39.15 138.164 37.91 138.164 36.39C138.164 34.87 139.394 33.64 140.914 33.64C142.424 33.64 143.674 34.86 143.674 36.37ZM140.914 33.94C139.654 33.94 138.624 34.88 138.484 36.11H143.354C143.214 34.88 142.174 33.94 140.914 33.94ZM144.92 39V33.79H145.22V36.13H148.74V33.79H149.04V39H148.74V36.39H145.22V39H144.92ZM151.737 39V34.05H150.137V33.79H153.637V34.05H152.037V39H151.737ZM154.738 40.83V33.79H155.038V35.25C155.508 34.18 156.488 33.64 157.458 33.64C158.988 33.64 160.258 34.86 160.258 36.37C160.258 37.9 158.988 39.15 157.458 39.15C156.408 39.15 155.518 38.58 155.038 37.55V40.83H154.738ZM159.938 36.37C159.938 35.02 158.838 33.94 157.488 33.94C156.138 33.94 155.038 35.02 155.038 36.37C155.038 37.74 156.138 38.85 157.488 38.85C158.848 38.85 159.938 37.74 159.938 36.37Z"/>
</mask>
<path d="M92.9422 33.79L90.1322 40.83H89.7922L90.5522 38.94L88.5922 33.79H88.9322L90.7222 38.58L92.6022 33.79H92.9422ZM97.553 39H97.253V36.8H96.063C94.783 36.8 93.743 35.77 93.743 34.5V33.79H94.043V34.5C94.043 35.63 94.943 36.54 96.053 36.54H97.253V33.79H97.553V39ZM104.315 36.37H99.1247C99.1247 37.74 100.215 38.85 101.555 38.85C102.485 38.85 103.295 38.33 103.715 37.57H104.045C103.605 38.5 102.655 39.15 101.555 39.15C100.035 39.15 98.8047 37.91 98.8047 36.39C98.8047 34.87 100.035 33.64 101.555 33.64C103.065 33.64 104.315 34.86 104.315 36.37ZM101.555 33.94C100.295 33.94 99.2647 34.88 99.1247 36.11H103.995C103.855 34.88 102.815 33.94 101.555 33.94ZM109.961 31.81V32.11H107.331C106.521 32.11 105.881 32.86 105.881 33.79V35.26C106.081 34.37 107.191 33.64 108.341 33.64C109.861 33.64 111.101 34.86 111.101 36.37C111.101 37.9 109.861 39.15 108.341 39.15C106.841 39.15 105.561 37.9 105.561 36.36V33.79C105.561 32.7 106.351 31.81 107.331 31.81H109.961ZM110.781 36.37C110.781 35.02 109.681 33.94 108.331 33.94C106.981 33.94 105.881 35.02 105.881 36.37C105.881 37.74 106.981 38.85 108.331 38.85C109.691 38.85 110.781 37.74 110.781 36.37ZM112.35 39V33.79H112.65V36.13H116.17V33.79H116.47V39H116.17V36.39H112.65V39H112.35ZM121.957 39H121.677V33.79H121.957V39ZM117.967 39V33.79H118.267V36.03H119.757C120.577 36.03 121.237 36.7 121.237 37.52C121.237 38.34 120.577 39 119.757 39H117.967ZM118.267 36.29V38.74H119.697C120.367 38.74 120.917 38.19 120.917 37.52C120.917 36.84 120.367 36.29 119.697 36.29H118.267ZM127.687 39H127.387V34.09L123.897 39H123.457V33.79H123.757V38.7L127.247 33.79H127.687V39ZM125.587 32.81C126.137 32.81 126.597 32.46 126.817 31.96H127.117C126.907 32.61 126.287 33.09 125.587 33.09C124.887 33.09 124.277 32.61 124.067 31.96H124.367C124.587 32.46 125.037 32.81 125.587 32.81ZM132.494 39V33.79H132.794V38.74H136.314V33.79H136.614V38.74H137.264V40.36H136.964V39H132.494ZM143.674 36.37H138.484C138.484 37.74 139.574 38.85 140.914 38.85C141.844 38.85 142.654 38.33 143.074 37.57H143.404C142.964 38.5 142.014 39.15 140.914 39.15C139.394 39.15 138.164 37.91 138.164 36.39C138.164 34.87 139.394 33.64 140.914 33.64C142.424 33.64 143.674 34.86 143.674 36.37ZM140.914 33.94C139.654 33.94 138.624 34.88 138.484 36.11H143.354C143.214 34.88 142.174 33.94 140.914 33.94ZM144.92 39V33.79H145.22V36.13H148.74V33.79H149.04V39H148.74V36.39H145.22V39H144.92ZM151.737 39V34.05H150.137V33.79H153.637V34.05H152.037V39H151.737ZM154.738 40.83V33.79H155.038V35.25C155.508 34.18 156.488 33.64 157.458 33.64C158.988 33.64 160.258 34.86 160.258 36.37C160.258 37.9 158.988 39.15 157.458 39.15C156.408 39.15 155.518 38.58 155.038 37.55V40.83H154.738ZM159.938 36.37C159.938 35.02 158.838 33.94 157.488 33.94C156.138 33.94 155.038 35.02 155.038 36.37C155.038 37.74 156.138 38.85 157.488 38.85C158.848 38.85 159.938 37.74 159.938 36.37Z" fill="#08234B"/>
<path d="M92.9422 33.79L93.1279 33.8641L93.2374 33.59H92.9422V33.79ZM90.1322 40.83V41.03H90.2677L90.3179 40.9041L90.1322 40.83ZM89.7922 40.83L89.6066 40.7554L89.4962 41.03H89.7922V40.83ZM90.5522 38.94L90.7377 39.0146L90.7669 38.942L90.7391 38.8689L90.5522 38.94ZM88.5922 33.79V33.59H88.3021L88.4053 33.8611L88.5922 33.79ZM88.9322 33.79L89.1195 33.72L89.071 33.59H88.9322V33.79ZM90.7222 38.58L90.5348 38.65L90.7176 39.1391L90.9084 38.6531L90.7222 38.58ZM92.6022 33.79V33.59H92.4658L92.416 33.7169L92.6022 33.79ZM92.7564 33.7159L89.9464 40.7559L90.3179 40.9041L93.1279 33.8641L92.7564 33.7159ZM90.1322 40.63H89.7922V41.03H90.1322V40.63ZM89.9777 40.9046L90.7377 39.0146L90.3666 38.8654L89.6066 40.7554L89.9777 40.9046ZM90.7391 38.8689L88.7791 33.7189L88.4053 33.8611L90.3653 39.0111L90.7391 38.8689ZM88.5922 33.99H88.9322V33.59H88.5922V33.99ZM88.7448 33.86L90.5348 38.65L90.9095 38.51L89.1195 33.72L88.7448 33.86ZM90.9084 38.6531L92.7884 33.8631L92.416 33.7169L90.536 38.5069L90.9084 38.6531ZM92.6022 33.99H92.9422V33.59H92.6022V33.99ZM97.553 39V39.2H97.753V39H97.553ZM97.253 39H97.053V39.2H97.253V39ZM97.253 36.8H97.453V36.6H97.253V36.8ZM93.743 33.79V33.59H93.543V33.79H93.743ZM94.043 33.79H94.243V33.59H94.043V33.79ZM97.253 36.54V36.74H97.453V36.54H97.253ZM97.253 33.79V33.59H97.053V33.79H97.253ZM97.553 33.79H97.753V33.59H97.553V33.79ZM97.553 38.8H97.253V39.2H97.553V38.8ZM97.453 39V36.8H97.053V39H97.453ZM97.253 36.6H96.063V37H97.253V36.6ZM96.063 36.6C94.8917 36.6 93.943 35.6579 93.943 34.5H93.543C93.543 35.8821 94.6742 37 96.063 37V36.6ZM93.943 34.5V33.79H93.543V34.5H93.943ZM93.743 33.99H94.043V33.59H93.743V33.99ZM93.843 33.79V34.5H94.243V33.79H93.843ZM93.843 34.5C93.843 35.7379 94.8299 36.74 96.053 36.74V36.34C95.056 36.34 94.243 35.5221 94.243 34.5H93.843ZM96.053 36.74H97.253V36.34H96.053V36.74ZM97.453 36.54V33.79H97.053V36.54H97.453ZM97.253 33.99H97.553V33.59H97.253V33.99ZM97.353 33.79V39H97.753V33.79H97.353ZM104.315 36.37V36.57H104.515V36.37H104.315ZM99.1247 36.37V36.17H98.9247V36.37H99.1247ZM103.715 37.57V37.37H103.597L103.54 37.4733L103.715 37.57ZM104.045 37.57L104.225 37.6555L104.361 37.37H104.045V37.57ZM99.1247 36.11L98.926 36.0874L98.9006 36.31H99.1247V36.11ZM103.995 36.11V36.31H104.219L104.193 36.0874L103.995 36.11ZM104.315 36.17H99.1247V36.57H104.315V36.17ZM98.9247 36.37C98.9247 37.8467 100.101 39.05 101.555 39.05V38.65C100.329 38.65 99.3247 37.6333 99.3247 36.37H98.9247ZM101.555 39.05C102.561 39.05 103.436 38.4872 103.89 37.6667L103.54 37.4733C103.153 38.1728 102.408 38.65 101.555 38.65V39.05ZM103.715 37.77H104.045V37.37H103.715V37.77ZM103.864 37.4845C103.456 38.3477 102.574 38.95 101.555 38.95V39.35C102.735 39.35 103.754 38.6523 104.225 37.6555L103.864 37.4845ZM101.555 38.95C100.146 38.95 99.0047 37.8005 99.0047 36.39H98.6047C98.6047 38.0195 99.9233 39.35 101.555 39.35V38.95ZM99.0047 36.39C99.0047 34.9805 100.145 33.84 101.555 33.84V33.44C99.9242 33.44 98.6047 34.7595 98.6047 36.39H99.0047ZM101.555 33.84C102.957 33.84 104.115 34.9733 104.115 36.37H104.515C104.515 34.7467 103.172 33.44 101.555 33.44V33.84ZM101.555 33.74C100.192 33.74 99.0773 34.7576 98.926 36.0874L99.3234 36.1326C99.452 35.0024 100.398 34.14 101.555 34.14V33.74ZM99.1247 36.31H103.995V35.91H99.1247V36.31ZM104.193 36.0874C104.042 34.7565 102.917 33.74 101.555 33.74V34.14C102.713 34.14 103.667 35.0035 103.796 36.1326L104.193 36.0874ZM109.961 31.81H110.161V31.61H109.961V31.81ZM109.961 32.11V32.31H110.161V32.11H109.961ZM105.881 35.26H105.681L106.076 35.3039L105.881 35.26ZM109.761 31.81V32.11H110.161V31.81H109.761ZM109.961 31.91H107.331V32.31H109.961V31.91ZM107.331 31.91C106.383 31.91 105.681 32.7789 105.681 33.79H106.081C106.081 32.9411 106.658 32.31 107.331 32.31V31.91ZM105.681 33.79V35.26H106.081V33.79H105.681ZM106.076 35.3039C106.161 34.9237 106.447 34.5578 106.864 34.2833C107.279 34.0101 107.806 33.84 108.341 33.84V33.44C107.725 33.44 107.122 33.6349 106.644 33.9492C106.169 34.2622 105.8 34.7063 105.685 35.2161L106.076 35.3039ZM108.341 33.84C109.752 33.84 110.901 34.9728 110.901 36.37H111.301C111.301 34.7472 109.969 33.44 108.341 33.44V33.84ZM110.901 36.37C110.901 37.791 109.749 38.95 108.341 38.95V39.35C109.972 39.35 111.301 38.009 111.301 36.37H110.901ZM108.341 38.95C106.95 38.95 105.761 37.7886 105.761 36.36H105.361C105.361 38.0114 106.731 39.35 108.341 39.35V38.95ZM105.761 36.36V33.79H105.361V36.36H105.761ZM105.761 33.79C105.761 32.7883 106.482 32.01 107.331 32.01V31.61C106.219 31.61 105.361 32.6117 105.361 33.79H105.761ZM107.331 32.01H109.961V31.61H107.331V32.01ZM110.981 36.37C110.981 34.9074 109.789 33.74 108.331 33.74V34.14C109.572 34.14 110.581 35.1326 110.581 36.37H110.981ZM108.331 33.74C106.872 33.74 105.681 34.9074 105.681 36.37H106.081C106.081 35.1326 107.089 34.14 108.331 34.14V33.74ZM105.681 36.37C105.681 37.8483 106.868 39.05 108.331 39.05V38.65C107.093 38.65 106.081 37.6317 106.081 36.37H105.681ZM108.331 39.05C109.804 39.05 110.981 37.8478 110.981 36.37H110.581C110.581 37.6322 109.577 38.65 108.331 38.65V39.05ZM112.35 39H112.15V39.2H112.35V39ZM112.35 33.79V33.59H112.15V33.79H112.35ZM112.65 33.79H112.85V33.59H112.65V33.79ZM112.65 36.13H112.45V36.33H112.65V36.13ZM116.17 36.13V36.33H116.37V36.13H116.17ZM116.17 33.79V33.59H115.97V33.79H116.17ZM116.47 33.79H116.67V33.59H116.47V33.79ZM116.47 39V39.2H116.67V39H116.47ZM116.17 39H115.97V39.2H116.17V39ZM116.17 36.39H116.37V36.19H116.17V36.39ZM112.65 36.39V36.19H112.45V36.39H112.65ZM112.65 39V39.2H112.85V39H112.65ZM112.55 39V33.79H112.15V39H112.55ZM112.35 33.99H112.65V33.59H112.35V33.99ZM112.45 33.79V36.13H112.85V33.79H112.45ZM112.65 36.33H116.17V35.93H112.65V36.33ZM116.37 36.13V33.79H115.97V36.13H116.37ZM116.17 33.99H116.47V33.59H116.17V33.99ZM116.27 33.79V39H116.67V33.79H116.27ZM116.47 38.8H116.17V39.2H116.47V38.8ZM116.37 39V36.39H115.97V39H116.37ZM116.17 36.19H112.65V36.59H116.17V36.19ZM112.45 36.39V39H112.85V36.39H112.45ZM112.65 38.8H112.35V39.2H112.65V38.8ZM121.957 39V39.2H122.157V39H121.957ZM121.677 39H121.477V39.2H121.677V39ZM121.677 33.79V33.59H121.477V33.79H121.677ZM121.957 33.79H122.157V33.59H121.957V33.79ZM117.967 39H117.767V39.2H117.967V39ZM117.967 33.79V33.59H117.767V33.79H117.967ZM118.267 33.79H118.467V33.59H118.267V33.79ZM118.267 36.03H118.067V36.23H118.267V36.03ZM118.267 36.29V36.09H118.067V36.29H118.267ZM118.267 38.74H118.067V38.94H118.267V38.74ZM121.957 38.8H121.677V39.2H121.957V38.8ZM121.877 39V33.79H121.477V39H121.877ZM121.677 33.99H121.957V33.59H121.677V33.99ZM121.757 33.79V39H122.157V33.79H121.757ZM118.167 39V33.79H117.767V39H118.167ZM117.967 33.99H118.267V33.59H117.967V33.99ZM118.067 33.79V36.03H118.467V33.79H118.067ZM118.267 36.23H119.757V35.83H118.267V36.23ZM119.757 36.23C120.465 36.23 121.037 36.8087 121.037 37.52H121.437C121.437 36.5913 120.689 35.83 119.757 35.83V36.23ZM121.037 37.52C121.037 38.2295 120.466 38.8 119.757 38.8V39.2C120.687 39.2 121.437 38.4505 121.437 37.52H121.037ZM119.757 38.8H117.967V39.2H119.757V38.8ZM118.067 36.29V38.74H118.467V36.29H118.067ZM118.267 38.94H119.697V38.54H118.267V38.94ZM119.697 38.94C120.477 38.94 121.117 38.3005 121.117 37.52H120.717C120.717 38.0795 120.256 38.54 119.697 38.54V38.94ZM121.117 37.52C121.117 36.7306 120.478 36.09 119.697 36.09V36.49C120.255 36.49 120.717 36.9494 120.717 37.52H121.117ZM119.697 36.09H118.267V36.49H119.697V36.09ZM127.687 39V39.2H127.887V39H127.687ZM127.387 39H127.187V39.2H127.387V39ZM127.387 34.09H127.587V33.4634L127.224 33.9741L127.387 34.09ZM123.897 39V39.2H124L124.06 39.1159L123.897 39ZM123.457 39H123.257V39.2H123.457V39ZM123.457 33.79V33.59H123.257V33.79H123.457ZM123.757 33.79H123.957V33.59H123.757V33.79ZM123.757 38.7H123.557V39.3266L123.92 38.8159L123.757 38.7ZM127.247 33.79V33.59H127.144L127.084 33.6741L127.247 33.79ZM127.687 33.79H127.887V33.59H127.687V33.79ZM126.817 31.96V31.76H126.687L126.634 31.8795L126.817 31.96ZM127.117 31.96L127.307 32.0215L127.392 31.76H127.117V31.96ZM124.067 31.96V31.76H123.792L123.877 32.0215L124.067 31.96ZM124.367 31.96L124.55 31.8795L124.498 31.76H124.367V31.96ZM127.687 38.8H127.387V39.2H127.687V38.8ZM127.587 39V34.09H127.187V39H127.587ZM127.224 33.9741L123.734 38.8841L124.06 39.1159L127.55 34.2059L127.224 33.9741ZM123.897 38.8H123.457V39.2H123.897V38.8ZM123.657 39V33.79H123.257V39H123.657ZM123.457 33.99H123.757V33.59H123.457V33.99ZM123.557 33.79V38.7H123.957V33.79H123.557ZM123.92 38.8159L127.41 33.9059L127.084 33.6741L123.594 38.5841L123.92 38.8159ZM127.247 33.99H127.687V33.59H127.247V33.99ZM127.487 33.79V39H127.887V33.79H127.487ZM125.587 33.01C126.228 33.01 126.753 32.6013 127 32.0405L126.634 31.8795C126.441 32.3187 126.046 32.61 125.587 32.61V33.01ZM126.817 32.16H127.117V31.76H126.817V32.16ZM126.927 31.8985C126.742 32.4703 126.196 32.89 125.587 32.89V33.29C126.378 33.29 127.072 32.7497 127.307 32.0215L126.927 31.8985ZM125.587 32.89C124.98 32.89 124.443 32.4717 124.257 31.8985L123.877 32.0215C124.112 32.7483 124.794 33.29 125.587 33.29V32.89ZM124.067 32.16H124.367V31.76H124.067V32.16ZM124.184 32.0405C124.43 32.5996 124.944 33.01 125.587 33.01V32.61C125.13 32.61 124.744 32.3204 124.55 31.8795L124.184 32.0405ZM132.494 39H132.294V39.2H132.494V39ZM132.494 33.79V33.59H132.294V33.79H132.494ZM132.794 33.79H132.994V33.59H132.794V33.79ZM132.794 38.74H132.594V38.94H132.794V38.74ZM136.314 38.74V38.94H136.514V38.74H136.314ZM136.314 33.79V33.59H136.114V33.79H136.314ZM136.614 33.79H136.814V33.59H136.614V33.79ZM136.614 38.74H136.414V38.94H136.614V38.74ZM137.264 38.74H137.464V38.54H137.264V38.74ZM137.264 40.36V40.56H137.464V40.36H137.264ZM136.964 40.36H136.764V40.56H136.964V40.36ZM136.964 39H137.164V38.8H136.964V39ZM132.694 39V33.79H132.294V39H132.694ZM132.494 33.99H132.794V33.59H132.494V33.99ZM132.594 33.79V38.74H132.994V33.79H132.594ZM132.794 38.94H136.314V38.54H132.794V38.94ZM136.514 38.74V33.79H136.114V38.74H136.514ZM136.314 33.99H136.614V33.59H136.314V33.99ZM136.414 33.79V38.74H136.814V33.79H136.414ZM136.614 38.94H137.264V38.54H136.614V38.94ZM137.064 38.74V40.36H137.464V38.74H137.064ZM137.264 40.16H136.964V40.56H137.264V40.16ZM137.164 40.36V39H136.764V40.36H137.164ZM136.964 38.8H132.494V39.2H136.964V38.8ZM143.674 36.37V36.57H143.874V36.37H143.674ZM138.484 36.37V36.17H138.284V36.37H138.484ZM143.074 37.57V37.37H142.956L142.899 37.4733L143.074 37.57ZM143.404 37.57L143.585 37.6555L143.72 37.37H143.404V37.57ZM138.484 36.11L138.285 36.0874L138.26 36.31H138.484V36.11ZM143.354 36.11V36.31H143.578L143.553 36.0874L143.354 36.11ZM143.674 36.17H138.484V36.57H143.674V36.17ZM138.284 36.37C138.284 37.8467 139.46 39.05 140.914 39.05V38.65C139.688 38.65 138.684 37.6333 138.684 36.37H138.284ZM140.914 39.05C141.921 39.05 142.796 38.4872 143.249 37.6667L142.899 37.4733C142.512 38.1728 141.768 38.65 140.914 38.65V39.05ZM143.074 37.77H143.404V37.37H143.074V37.77ZM143.223 37.4845C142.815 38.3477 141.933 38.95 140.914 38.95V39.35C142.095 39.35 143.113 38.6523 143.585 37.6555L143.223 37.4845ZM140.914 38.95C139.505 38.95 138.364 37.8005 138.364 36.39H137.964C137.964 38.0195 139.283 39.35 140.914 39.35V38.95ZM138.364 36.39C138.364 34.9805 139.505 33.84 140.914 33.84V33.44C139.284 33.44 137.964 34.7595 137.964 36.39H138.364ZM140.914 33.84C142.316 33.84 143.474 34.9733 143.474 36.37H143.874C143.874 34.7467 142.532 33.44 140.914 33.44V33.84ZM140.914 33.74C139.551 33.74 138.437 34.7576 138.285 36.0874L138.683 36.1326C138.811 35.0024 139.757 34.14 140.914 34.14V33.74ZM138.484 36.31H143.354V35.91H138.484V36.31ZM143.553 36.0874C143.401 34.7565 142.276 33.74 140.914 33.74V34.14C142.072 34.14 143.027 35.0035 143.155 36.1326L143.553 36.0874ZM144.92 39H144.72V39.2H144.92V39ZM144.92 33.79V33.59H144.72V33.79H144.92ZM145.22 33.79H145.42V33.59H145.22V33.79ZM145.22 36.13H145.02V36.33H145.22V36.13ZM148.74 36.13V36.33H148.94V36.13H148.74ZM148.74 33.79V33.59H148.54V33.79H148.74ZM149.04 33.79H149.24V33.59H149.04V33.79ZM149.04 39V39.2H149.24V39H149.04ZM148.74 39H148.54V39.2H148.74V39ZM148.74 36.39H148.94V36.19H148.74V36.39ZM145.22 36.39V36.19H145.02V36.39H145.22ZM145.22 39V39.2H145.42V39H145.22ZM145.12 39V33.79H144.72V39H145.12ZM144.92 33.99H145.22V33.59H144.92V33.99ZM145.02 33.79V36.13H145.42V33.79H145.02ZM145.22 36.33H148.74V35.93H145.22V36.33ZM148.94 36.13V33.79H148.54V36.13H148.94ZM148.74 33.99H149.04V33.59H148.74V33.99ZM148.84 33.79V39H149.24V33.79H148.84ZM149.04 38.8H148.74V39.2H149.04V38.8ZM148.94 39V36.39H148.54V39H148.94ZM148.74 36.19H145.22V36.59H148.74V36.19ZM145.02 36.39V39H145.42V36.39H145.02ZM145.22 38.8H144.92V39.2H145.22V38.8ZM151.737 39H151.537V39.2H151.737V39ZM151.737 34.05H151.937V33.85H151.737V34.05ZM150.137 34.05H149.937V34.25H150.137V34.05ZM150.137 33.79V33.59H149.937V33.79H150.137ZM153.637 33.79H153.837V33.59H153.637V33.79ZM153.637 34.05V34.25H153.837V34.05H153.637ZM152.037 34.05V33.85H151.837V34.05H152.037ZM152.037 39V39.2H152.237V39H152.037ZM151.937 39V34.05H151.537V39H151.937ZM151.737 33.85H150.137V34.25H151.737V33.85ZM150.337 34.05V33.79H149.937V34.05H150.337ZM150.137 33.99H153.637V33.59H150.137V33.99ZM153.437 33.79V34.05H153.837V33.79H153.437ZM153.637 33.85H152.037V34.25H153.637V33.85ZM151.837 34.05V39H152.237V34.05H151.837ZM152.037 38.8H151.737V39.2H152.037V38.8ZM154.738 40.83H154.538V41.03H154.738V40.83ZM154.738 33.79V33.59H154.538V33.79H154.738ZM155.038 33.79H155.238V33.59H155.038V33.79ZM155.038 35.25H154.838L155.221 35.3304L155.038 35.25ZM155.038 37.55L155.22 37.4655L154.838 37.55H155.038ZM155.038 40.83V41.03H155.238V40.83H155.038ZM154.938 40.83V33.79H154.538V40.83H154.938ZM154.738 33.99H155.038V33.59H154.738V33.99ZM154.838 33.79V35.25H155.238V33.79H154.838ZM155.221 35.3304C155.658 34.3373 156.563 33.84 157.458 33.84V33.44C156.414 33.44 155.359 34.0227 154.855 35.1696L155.221 35.3304ZM157.458 33.84C158.884 33.84 160.058 34.9761 160.058 36.37H160.458C160.458 34.7439 159.093 33.44 157.458 33.44V33.84ZM160.058 36.37C160.058 37.7877 158.88 38.95 157.458 38.95V39.35C159.097 39.35 160.458 38.0123 160.458 36.37H160.058ZM157.458 38.95C156.49 38.95 155.668 38.4288 155.22 37.4655L154.857 37.6345C155.368 38.7312 156.326 39.35 157.458 39.35V38.95ZM154.838 37.55V40.83H155.238V37.55H154.838ZM155.038 40.63H154.738V41.03H155.038V40.63ZM160.138 36.37C160.138 34.9074 158.947 33.74 157.488 33.74V34.14C158.73 34.14 159.738 35.1326 159.738 36.37H160.138ZM157.488 33.74C156.03 33.74 154.838 34.9074 154.838 36.37H155.238C155.238 35.1326 156.247 34.14 157.488 34.14V33.74ZM154.838 36.37C154.838 37.8483 156.026 39.05 157.488 39.05V38.65C156.251 38.65 155.238 37.6317 155.238 36.37H154.838ZM157.488 39.05C158.961 39.05 160.138 37.8478 160.138 36.37H159.738C159.738 37.6322 158.735 38.65 157.488 38.65V39.05Z" fill="#08234B" mask="url(#path-1-outside-1_1513_2)"/>
<mask id="path-3-outside-2_1513_2" maskUnits="userSpaceOnUse" x="51" y="7" width="146" height="18" fill="black">
<rect fill="white" x="51" y="7" width="146" height="18"/>
<path d="M52.32 24H53.068V18.082L54.388 16.3L59.756 24H60.724L54.828 15.728L60.592 8.182H59.624L53.068 16.894V8.182H52.32V24ZM73.0481 24H73.7961V17.268H77.4921C79.8461 17.268 81.7601 15.222 81.7601 12.714C81.7601 10.206 79.8461 8.182 77.4921 8.182H73.0481V24ZM73.7961 8.842H77.2721C79.3181 8.842 80.9461 10.536 80.9461 12.714C80.9461 14.892 79.3181 16.608 77.2721 16.608H73.7961V8.842ZM93.8259 24V23.34H86.5879V16.344H93.5839V15.684H86.5879V8.842H93.8259V8.182H85.8399V24H93.8259ZM98.0035 8.842H102.404C104.186 8.842 105.616 10.294 105.616 12.076C105.616 13.858 104.186 15.288 102.404 15.288H98.7515V15.948H102.8C104.846 15.948 106.496 17.598 106.496 19.644C106.496 21.69 104.846 23.34 102.8 23.34H98.7515H98.0035V24H102.888C105.33 24 107.31 22.064 107.31 19.644C107.31 17.598 105.792 15.772 103.922 15.552C105.308 15.2 106.364 13.616 106.364 11.79C106.364 9.788 104.648 8.182 102.536 8.182H98.0035V8.842ZM121.373 8.182H120.493L116.423 18.456L111.033 8.182H110.197L115.983 19.226L113.959 24H114.905L121.373 8.182ZM134.845 24L128.949 8.182H128.069L122.173 24H123.097L128.509 8.996L133.921 24H134.845ZM138.704 24H143.148C145.568 24 147.548 21.998 147.548 19.49C147.548 16.982 145.568 14.98 143.148 14.98H139.452V8.182H138.704V24ZM139.452 15.64H143.148C145.106 15.64 146.734 17.356 146.734 19.49C146.734 21.624 145.106 23.34 143.148 23.34H139.452V15.64ZM158.599 8.842V8.182H150.635V8.842H154.221V24H155.013V8.842H158.599ZM160.566 24L162.854 18.346H170.092L172.358 24H173.238L166.814 8.16H166.11L159.686 24H160.566ZM163.096 17.686L166.462 9.018L169.85 17.686H163.096ZM182.292 8.842V8.182H174.328V8.842H177.914V24H178.706V8.842H182.292ZM196.319 8.182H195.439L191.369 18.456L185.979 8.182H185.143L190.929 19.226L188.905 24H189.851L196.319 8.182Z"/>
</mask>
<path d="M52.32 24H53.068V18.082L54.388 16.3L59.756 24H60.724L54.828 15.728L60.592 8.182H59.624L53.068 16.894V8.182H52.32V24ZM73.0481 24H73.7961V17.268H77.4921C79.8461 17.268 81.7601 15.222 81.7601 12.714C81.7601 10.206 79.8461 8.182 77.4921 8.182H73.0481V24ZM73.7961 8.842H77.2721C79.3181 8.842 80.9461 10.536 80.9461 12.714C80.9461 14.892 79.3181 16.608 77.2721 16.608H73.7961V8.842ZM93.8259 24V23.34H86.5879V16.344H93.5839V15.684H86.5879V8.842H93.8259V8.182H85.8399V24H93.8259ZM98.0035 8.842H102.404C104.186 8.842 105.616 10.294 105.616 12.076C105.616 13.858 104.186 15.288 102.404 15.288H98.7515V15.948H102.8C104.846 15.948 106.496 17.598 106.496 19.644C106.496 21.69 104.846 23.34 102.8 23.34H98.7515H98.0035V24H102.888C105.33 24 107.31 22.064 107.31 19.644C107.31 17.598 105.792 15.772 103.922 15.552C105.308 15.2 106.364 13.616 106.364 11.79C106.364 9.788 104.648 8.182 102.536 8.182H98.0035V8.842ZM121.373 8.182H120.493L116.423 18.456L111.033 8.182H110.197L115.983 19.226L113.959 24H114.905L121.373 8.182ZM134.845 24L128.949 8.182H128.069L122.173 24H123.097L128.509 8.996L133.921 24H134.845ZM138.704 24H143.148C145.568 24 147.548 21.998 147.548 19.49C147.548 16.982 145.568 14.98 143.148 14.98H139.452V8.182H138.704V24ZM139.452 15.64H143.148C145.106 15.64 146.734 17.356 146.734 19.49C146.734 21.624 145.106 23.34 143.148 23.34H139.452V15.64ZM158.599 8.842V8.182H150.635V8.842H154.221V24H155.013V8.842H158.599ZM160.566 24L162.854 18.346H170.092L172.358 24H173.238L166.814 8.16H166.11L159.686 24H160.566ZM163.096 17.686L166.462 9.018L169.85 17.686H163.096ZM182.292 8.842V8.182H174.328V8.842H177.914V24H178.706V8.842H182.292ZM196.319 8.182H195.439L191.369 18.456L185.979 8.182H185.143L190.929 19.226L188.905 24H189.851L196.319 8.182Z" fill="#08234B"/>
<path d="M52.32 24H51.92V24.4H52.32V24ZM53.068 24V24.4H53.468V24H53.068ZM53.068 18.082L52.7466 17.8439L52.668 17.95V18.082H53.068ZM54.388 16.3L54.7161 16.0712L54.3978 15.6147L54.0666 16.0619L54.388 16.3ZM59.756 24L59.4279 24.2288L59.5473 24.4H59.756V24ZM60.724 24V24.4H61.5003L61.0497 23.7678L60.724 24ZM54.828 15.728L54.5101 15.4852L54.3309 15.7198L54.5023 15.9602L54.828 15.728ZM60.592 8.182L60.9099 8.42481L61.4009 7.782H60.592V8.182ZM59.624 8.182V7.782H59.4244L59.3044 7.94148L59.624 8.182ZM53.068 16.894H52.668V18.0908L53.3876 17.1345L53.068 16.894ZM53.068 8.182H53.468V7.782H53.068V8.182ZM52.32 8.182V7.782H51.92V8.182H52.32ZM52.32 24.4H53.068V23.6H52.32V24.4ZM53.468 24V18.082H52.668V24H53.468ZM53.3894 18.3201L54.7094 16.5381L54.0666 16.0619L52.7466 17.8439L53.3894 18.3201ZM54.0599 16.5288L59.4279 24.2288L60.0841 23.7712L54.7161 16.0712L54.0599 16.5288ZM59.756 24.4H60.724V23.6H59.756V24.4ZM61.0497 23.7678L55.1537 15.4958L54.5023 15.9602L60.3983 24.2322L61.0497 23.7678ZM55.1459 15.9708L60.9099 8.42481L60.2741 7.93919L54.5101 15.4852L55.1459 15.9708ZM60.592 7.782H59.624V8.582H60.592V7.782ZM59.3044 7.94148L52.7484 16.6535L53.3876 17.1345L59.9436 8.42252L59.3044 7.94148ZM53.468 16.894V8.182H52.668V16.894H53.468ZM53.068 7.782H52.32V8.582H53.068V7.782ZM51.92 8.182V24H52.72V8.182H51.92ZM73.0481 24H72.6481V24.4H73.0481V24ZM73.7961 24V24.4H74.1961V24H73.7961ZM73.7961 17.268V16.868H73.3961V17.268H73.7961ZM73.0481 8.182V7.782H72.6481V8.182H73.0481ZM73.7961 8.842V8.442H73.3961V8.842H73.7961ZM73.7961 16.608H73.3961V17.008H73.7961V16.608ZM73.0481 24.4H73.7961V23.6H73.0481V24.4ZM74.1961 24V17.268H73.3961V24H74.1961ZM73.7961 17.668H77.4921V16.868H73.7961V17.668ZM77.4921 17.668C80.0913 17.668 82.1601 15.4179 82.1601 12.714H81.3601C81.3601 15.0261 79.601 16.868 77.4921 16.868V17.668ZM82.1601 12.714C82.1601 10.0075 80.0888 7.782 77.4921 7.782V8.582C79.6034 8.582 81.3601 10.4045 81.3601 12.714H82.1601ZM77.4921 7.782H73.0481V8.582H77.4921V7.782ZM72.6481 8.182V24H73.4481V8.182H72.6481ZM73.7961 9.242H77.2721V8.442H73.7961V9.242ZM77.2721 9.242C79.0791 9.242 80.5461 10.7384 80.5461 12.714H81.3461C81.3461 10.3336 79.5571 8.442 77.2721 8.442V9.242ZM80.5461 12.714C80.5461 14.6927 79.0762 16.208 77.2721 16.208V17.008C79.56 17.008 81.3461 15.0913 81.3461 12.714H80.5461ZM77.2721 16.208H73.7961V17.008H77.2721V16.208ZM74.1961 16.608V8.842H73.3961V16.608H74.1961ZM93.8259 24V24.4H94.2259V24H93.8259ZM93.8259 23.34H94.2259V22.94H93.8259V23.34ZM86.5879 23.34H86.1879V23.74H86.5879V23.34ZM86.5879 16.344V15.944H86.1879V16.344H86.5879ZM93.5839 16.344V16.744H93.9839V16.344H93.5839ZM93.5839 15.684H93.9839V15.284H93.5839V15.684ZM86.5879 15.684H86.1879V16.084H86.5879V15.684ZM86.5879 8.842V8.442H86.1879V8.842H86.5879ZM93.8259 8.842V9.242H94.2259V8.842H93.8259ZM93.8259 8.182H94.2259V7.782H93.8259V8.182ZM85.8399 8.182V7.782H85.4399V8.182H85.8399ZM85.8399 24H85.4399V24.4H85.8399V24ZM94.2259 24V23.34H93.4259V24H94.2259ZM93.8259 22.94H86.5879V23.74H93.8259V22.94ZM86.9879 23.34V16.344H86.1879V23.34H86.9879ZM86.5879 16.744H93.5839V15.944H86.5879V16.744ZM93.9839 16.344V15.684H93.1839V16.344H93.9839ZM93.5839 15.284H86.5879V16.084H93.5839V15.284ZM86.9879 15.684V8.842H86.1879V15.684H86.9879ZM86.5879 9.242H93.8259V8.442H86.5879V9.242ZM94.2259 8.842V8.182H93.4259V8.842H94.2259ZM93.8259 7.782H85.8399V8.582H93.8259V7.782ZM85.4399 8.182V24H86.2399V8.182H85.4399ZM85.8399 24.4H93.8259V23.6H85.8399V24.4ZM98.0035 8.842H97.6035V9.242H98.0035V8.842ZM98.7515 15.288V14.888H98.3515V15.288H98.7515ZM98.7515 15.948H98.3515V16.348H98.7515V15.948ZM98.0035 23.34V22.94H97.6035V23.34H98.0035ZM98.0035 24H97.6035V24.4H98.0035V24ZM103.922 15.552L103.823 15.1643L103.875 15.9493L103.922 15.552ZM98.0035 8.182V7.782H97.6035V8.182H98.0035ZM98.0035 9.242H102.404V8.442H98.0035V9.242ZM102.404 9.242C103.961 9.242 105.216 10.5113 105.216 12.076H106.016C106.016 10.0767 104.41 8.442 102.404 8.442V9.242ZM105.216 12.076C105.216 13.6371 103.965 14.888 102.404 14.888V15.688C104.406 15.688 106.016 14.0789 106.016 12.076H105.216ZM102.404 14.888H98.7515V15.688H102.404V14.888ZM98.3515 15.288V15.948H99.1515V15.288H98.3515ZM98.7515 16.348H102.8V15.548H98.7515V16.348ZM102.8 16.348C104.625 16.348 106.096 17.8189 106.096 19.644H106.896C106.896 17.3771 105.066 15.548 102.8 15.548V16.348ZM106.096 19.644C106.096 21.4691 104.625 22.94 102.8 22.94V23.74C105.066 23.74 106.896 21.9109 106.896 19.644H106.096ZM102.8 22.94H98.7515V23.74H102.8V22.94ZM98.7515 22.94H98.0035V23.74H98.7515V22.94ZM97.6035 23.34V24H98.4035V23.34H97.6035ZM98.0035 24.4H102.888V23.6H98.0035V24.4ZM102.888 24.4C105.544 24.4 107.71 22.2914 107.71 19.644H106.91C106.91 21.8366 105.115 23.6 102.888 23.6V24.4ZM107.71 19.644C107.71 17.4204 106.064 15.4013 103.968 15.1547L103.875 15.9493C105.519 16.1427 106.91 17.7756 106.91 19.644H107.71ZM104.02 15.9397C105.634 15.5298 106.764 13.741 106.764 11.79H105.964C105.964 13.491 104.981 14.8702 103.823 15.1643L104.02 15.9397ZM106.764 11.79C106.764 9.54431 104.845 7.782 102.536 7.782V8.582C104.45 8.582 105.964 10.0317 105.964 11.79H106.764ZM102.536 7.782H98.0035V8.582H102.536V7.782ZM97.6035 8.182V8.842H98.4035V8.182H97.6035ZM121.373 8.182L121.743 8.33339L121.969 7.782H121.373V8.182ZM120.493 8.182V7.782H120.221L120.121 8.03468L120.493 8.182ZM116.423 18.456L116.069 18.6418L116.474 19.4138L116.795 18.6033L116.423 18.456ZM111.033 8.182L111.387 7.99617L111.275 7.782H111.033V8.182ZM110.197 8.182V7.782H109.536L109.843 8.36763L110.197 8.182ZM115.983 19.226L116.351 19.3821L116.425 19.208L116.338 19.0404L115.983 19.226ZM113.959 24L113.591 23.8439L113.355 24.4H113.959V24ZM114.905 24V24.4H115.174L115.275 24.1514L114.905 24ZM121.373 7.782H120.493V8.582H121.373V7.782ZM120.121 8.03468L116.051 18.3087L116.795 18.6033L120.865 8.32932L120.121 8.03468ZM116.777 18.2702L111.387 7.99617L110.679 8.36783L116.069 18.6418L116.777 18.2702ZM111.033 7.782H110.197V8.582H111.033V7.782ZM109.843 8.36763L115.629 19.4116L116.338 19.0404L110.552 7.99637L109.843 8.36763ZM115.615 19.0699L113.591 23.8439L114.327 24.1561L116.351 19.3821L115.615 19.0699ZM113.959 24.4H114.905V23.6H113.959V24.4ZM115.275 24.1514L121.743 8.33339L121.003 8.03061L114.535 23.8486L115.275 24.1514ZM134.845 24V24.4H135.421L135.219 23.8603L134.845 24ZM128.949 8.182L129.323 8.04229L129.226 7.782H128.949V8.182ZM128.069 8.182V7.782H127.791L127.694 8.04229L128.069 8.182ZM122.173 24L121.798 23.8603L121.597 24.4H122.173V24ZM123.097 24V24.4H123.378L123.473 24.1357L123.097 24ZM128.509 8.996L128.885 8.86028L128.509 7.81712L128.132 8.86028L128.509 8.996ZM133.921 24L133.544 24.1357L133.64 24.4H133.921V24ZM135.219 23.8603L129.323 8.04229L128.574 8.32171L134.47 24.1397L135.219 23.8603ZM128.949 7.782H128.069V8.582H128.949V7.782ZM127.694 8.04229L121.798 23.8603L122.547 24.1397L128.443 8.32171L127.694 8.04229ZM122.173 24.4H123.097V23.6H122.173V24.4ZM123.473 24.1357L128.885 9.13172L128.132 8.86028L122.72 23.8643L123.473 24.1357ZM128.132 9.13172L133.544 24.1357L134.297 23.8643L128.885 8.86028L128.132 9.13172ZM133.921 24.4H134.845V23.6H133.921V24.4ZM138.704 24H138.304V24.4H138.704V24ZM139.452 14.98H139.052V15.38H139.452V14.98ZM139.452 8.182H139.852V7.782H139.452V8.182ZM138.704 8.182V7.782H138.304V8.182H138.704ZM139.452 15.64V15.24H139.052V15.64H139.452ZM139.452 23.34H139.052V23.74H139.452V23.34ZM138.704 24.4H143.148V23.6H138.704V24.4ZM143.148 24.4C145.797 24.4 147.948 22.2112 147.948 19.49H147.148C147.148 21.7848 145.34 23.6 143.148 23.6V24.4ZM147.948 19.49C147.948 16.7688 145.797 14.58 143.148 14.58V15.38C145.34 15.38 147.148 17.1952 147.148 19.49H147.948ZM143.148 14.58H139.452V15.38H143.148V14.58ZM139.852 14.98V8.182H139.052V14.98H139.852ZM139.452 7.782H138.704V8.582H139.452V7.782ZM138.304 8.182V24H139.104V8.182H138.304ZM139.452 16.04H143.148V15.24H139.452V16.04ZM143.148 16.04C144.861 16.04 146.334 17.5519 146.334 19.49H147.134C147.134 17.1601 145.352 15.24 143.148 15.24V16.04ZM146.334 19.49C146.334 21.4281 144.861 22.94 143.148 22.94V23.74C145.352 23.74 147.134 21.8199 147.134 19.49H146.334ZM143.148 22.94H139.452V23.74H143.148V22.94ZM139.852 23.34V15.64H139.052V23.34H139.852ZM158.599 8.842V9.242H158.999V8.842H158.599ZM158.599 8.182H158.999V7.782H158.599V8.182ZM150.635 8.182V7.782H150.235V8.182H150.635ZM150.635 8.842H150.235V9.242H150.635V8.842ZM154.221 8.842H154.621V8.442H154.221V8.842ZM154.221 24H153.821V24.4H154.221V24ZM155.013 24V24.4H155.413V24H155.013ZM155.013 8.842V8.442H154.613V8.842H155.013ZM158.999 8.842V8.182H158.199V8.842H158.999ZM158.599 7.782H150.635V8.582H158.599V7.782ZM150.235 8.182V8.842H151.035V8.182H150.235ZM150.635 9.242H154.221V8.442H150.635V9.242ZM153.821 8.842V24H154.621V8.842H153.821ZM154.221 24.4H155.013V23.6H154.221V24.4ZM155.413 24V8.842H154.613V24H155.413ZM155.013 9.242H158.599V8.442H155.013V9.242ZM160.566 24V24.4H160.836L160.937 24.15L160.566 24ZM162.854 18.346V17.946H162.584L162.483 18.196L162.854 18.346ZM170.092 18.346L170.463 18.1972L170.363 17.946H170.092V18.346ZM172.358 24L171.987 24.1488L172.087 24.4H172.358V24ZM173.238 24V24.4H173.832L173.609 23.8497L173.238 24ZM166.814 8.16L167.185 8.00967L167.083 7.76H166.814V8.16ZM166.11 8.16V7.76H165.841L165.739 8.00967L166.11 8.16ZM159.686 24L159.315 23.8497L159.092 24.4H159.686V24ZM163.096 17.686L162.723 17.5412L162.512 18.086H163.096V17.686ZM166.462 9.018L166.835 8.87238L166.461 7.91612L166.089 8.8732L166.462 9.018ZM169.85 17.686V18.086H170.436L170.223 17.5404L169.85 17.686ZM160.937 24.15L163.225 18.496L162.483 18.196L160.195 23.85L160.937 24.15ZM162.854 18.746H170.092V17.946H162.854V18.746ZM169.721 18.4948L171.987 24.1488L172.729 23.8512L170.463 18.1972L169.721 18.4948ZM172.358 24.4H173.238V23.6H172.358V24.4ZM173.609 23.8497L167.185 8.00967L166.443 8.31033L172.867 24.1503L173.609 23.8497ZM166.814 7.76H166.11V8.56H166.814V7.76ZM165.739 8.00967L159.315 23.8497L160.057 24.1503L166.481 8.31033L165.739 8.00967ZM159.686 24.4H160.566V23.6H159.686V24.4ZM163.469 17.8308L166.835 9.16279L166.089 8.8732L162.723 17.5412L163.469 17.8308ZM166.089 9.16362L169.477 17.8316L170.223 17.5404L166.835 8.87238L166.089 9.16362ZM169.85 17.286H163.096V18.086H169.85V17.286ZM182.292 8.842V9.242H182.692V8.842H182.292ZM182.292 8.182H182.692V7.782H182.292V8.182ZM174.328 8.182V7.782H173.928V8.182H174.328ZM174.328 8.842H173.928V9.242H174.328V8.842ZM177.914 8.842H178.314V8.442H177.914V8.842ZM177.914 24H177.514V24.4H177.914V24ZM178.706 24V24.4H179.106V24H178.706ZM178.706 8.842V8.442H178.306V8.842H178.706ZM182.692 8.842V8.182H181.892V8.842H182.692ZM182.292 7.782H174.328V8.582H182.292V7.782ZM173.928 8.182V8.842H174.728V8.182H173.928ZM174.328 9.242H177.914V8.442H174.328V9.242ZM177.514 8.842V24H178.314V8.842H177.514ZM177.914 24.4H178.706V23.6H177.914V24.4ZM179.106 24V8.842H178.306V24H179.106ZM178.706 9.242H182.292V8.442H178.706V9.242ZM196.319 8.182L196.69 8.33339L196.915 7.782H196.319V8.182ZM195.439 8.182V7.782H195.167L195.067 8.03468L195.439 8.182ZM191.369 18.456L191.015 18.6418L191.42 19.4138L191.741 18.6033L191.369 18.456ZM185.979 8.182L186.333 7.99617L186.221 7.782H185.979V8.182ZM185.143 8.182V7.782H184.482L184.789 8.36763L185.143 8.182ZM190.929 19.226L191.298 19.3821L191.371 19.208L191.284 19.0404L190.929 19.226ZM188.905 24L188.537 23.8439L188.301 24.4H188.905V24ZM189.851 24V24.4H190.12L190.222 24.1514L189.851 24ZM196.319 7.782H195.439V8.582H196.319V7.782ZM195.067 8.03468L190.997 18.3087L191.741 18.6033L195.811 8.32932L195.067 8.03468ZM191.723 18.2702L186.333 7.99617L185.625 8.36783L191.015 18.6418L191.723 18.2702ZM185.979 7.782H185.143V8.582H185.979V7.782ZM184.789 8.36763L190.575 19.4116L191.284 19.0404L185.498 7.99637L184.789 8.36763ZM190.561 19.0699L188.537 23.8439L189.274 24.1561L191.298 19.3821L190.561 19.0699ZM188.905 24.4H189.851V23.6H188.905V24.4ZM190.222 24.1514L196.69 8.33339L195.949 8.03061L189.481 23.8486L190.222 24.1514Z" fill="#08234B" mask="url(#path-3-outside-2_1513_2)"/>
<g clip-path="url(#clip0_1513_2)">
<path d="M45.5 22.5315C45.5 34.6998 35.6496 44.563 23.5 44.563C11.3504 44.563 1.5 34.6998 1.5 22.5315C1.5 10.3632 11.3504 0.5 23.5 0.5C35.6496 0.5 45.5 10.3632 45.5 22.5315Z" stroke="#08234B"/>
<path d="M8.92911 33.3143C8.92911 34.2507 8.65798 33.7382 7.85209 33.7382C7.15739 33.0445 6.45165 32.4248 6 31.5C6 30.5636 5.55227 31.0022 6.35816 31.0022C7.16405 31.0022 8.92911 32.3779 8.92911 33.3143Z" fill="#FFB454"/>
<path d="M18.4484 39.5568C18.4484 40.4932 17.0308 39.788 16.2249 39.788C15.419 39.788 14.2793 39.2601 14.2793 38.3237C14.2793 37.3873 15.0716 37.2448 15.8775 37.2448C16.6833 37.2448 18.4484 38.6204 18.4484 39.5568Z" fill="#FFB454"/>
<path d="M20.985 38.7091C20.985 39.6455 20.019 40.5973 19.2131 40.5973C18.4072 40.5973 16.6074 39.1831 16.6074 38.2467C16.6074 37.3103 18.1293 37.0136 18.9352 37.0136C19.7411 37.0136 20.985 37.7727 20.985 38.7091Z" fill="#FFB454"/>
<path d="M23.4868 39.0944C23.4868 40.0308 22.2429 41.0211 21.437 41.0211C20.6311 41.0211 18.2754 40.0308 18.2754 39.0944C18.2754 38.158 20.1447 37.3989 20.9506 37.3989C21.7565 37.3989 23.4868 38.158 23.4868 39.0944Z" fill="#FFB454"/>
<path d="M24.686 40.2328C24.686 41.1692 24.0837 41.1753 23.2778 41.1753C22.4719 41.1753 20.1162 41.6493 20.1162 40.7129C20.1162 39.7765 22.055 38.9018 22.8609 38.9018C23.6668 38.9018 24.686 39.2964 24.686 40.2328Z" fill="#FFB454"/>
<path d="M11.5354 35.241C11.5354 36.1774 11.1252 36.1273 10.3193 36.1273C9.51346 36.1273 8.26953 34.2508 8.26953 33.3144C8.26953 32.378 8.54073 33.0061 9.34662 33.0061C10.1525 33.0061 11.5354 34.3046 11.5354 35.241Z" fill="#FFB454"/>
<path d="M13.6986 37.2448C13.6986 38.1812 13.3836 37.8614 12.5777 37.8614C11.7718 37.8614 10.6668 36.6784 10.6668 35.742C10.6668 34.8056 10.7039 35.0099 11.5098 35.0099C12.3157 35.0099 13.6986 36.3084 13.6986 37.2448Z" fill="#FFB454"/>
<path d="M16.3994 37.6687C16.3994 38.6051 15.8156 39.3642 15.0097 39.3642C14.2038 39.3642 12.0913 37.4106 12.0913 36.4742C12.0913 35.5378 13.231 35.5879 14.0369 35.5879C14.8428 35.5879 16.3994 36.7323 16.3994 37.6687Z" fill="#FFB454"/>
<path d="M8.77763 34.3121C8.77763 35.2476 8.52052 34.7356 7.7563 34.7356C7.09752 34.0426 6.76806 33.7731 6.33976 32.8492C6.33976 31.9137 5.5754 32.0022 6.33962 32.0022C7.10383 32.0022 8.77763 33.3766 8.77763 34.3121Z" fill="#FF7D47"/>
<path d="M17.8051 40.5487C17.8051 41.4842 16.4608 40.7797 15.6965 40.7797C14.9323 40.7797 13.8516 40.2523 13.8516 39.3168C13.8516 38.3813 14.6029 38.2389 15.3671 38.2389C16.1313 38.2389 17.8051 39.6132 17.8051 40.5487Z" fill="#FF7D47"/>
<path d="M20.2098 39.7018C20.2098 40.6373 19.2938 41.5881 18.5296 41.5881C17.7653 41.5881 16.0586 40.1753 16.0586 39.2398C16.0586 38.3043 17.5018 38.0079 18.266 38.0079C19.0302 38.0079 20.2098 38.7663 20.2098 39.7018Z" fill="#FF7D47"/>
<path d="M22.5825 40.0867C22.5825 41.0223 21.4029 42.0116 20.6387 42.0116C19.8745 42.0116 17.6406 41.0223 17.6406 40.0867C17.6406 39.1512 19.4133 38.3929 20.1775 38.3929C20.9417 38.3929 22.5825 39.1512 22.5825 40.0867Z" fill="#FF7D47"/>
<path d="M24.3391 41.8829C24.3391 42.8184 23.149 42.1656 22.3848 42.1656C21.6206 42.1656 19.3867 42.6391 19.3867 41.7036C19.3867 40.7681 21.6783 39.6699 22.4425 39.6699C23.2067 39.6699 24.3391 40.9474 24.3391 41.8829Z" fill="#FF7D47"/>
<path d="M11.2484 36.237C11.2484 37.1725 10.8594 37.1224 10.0952 37.1224C9.33097 37.1224 8.15137 35.2477 8.15137 34.3122C8.15137 33.3767 8.40855 34.0042 9.17276 34.0042C9.93698 34.0042 11.2484 35.3015 11.2484 36.237Z" fill="#FF7D47"/>
<path d="M13.2997 38.2389C13.2997 39.1744 13.001 38.8549 12.2368 38.8549C11.4725 38.8549 10.4247 37.673 10.4247 36.7375C10.4247 35.802 10.4599 36.006 11.2241 36.006C11.9883 36.006 13.2997 37.3033 13.2997 38.2389Z" fill="#FF7D47"/>
<path d="M15.8608 38.6624C15.8608 39.5979 15.3072 40.3563 14.543 40.3563C13.7788 40.3563 11.7755 38.4045 11.7755 37.4689C11.7755 36.5334 12.8563 36.5835 13.6205 36.5835C14.3847 36.5835 15.8608 37.7269 15.8608 38.6624Z" fill="#FF7D47"/>
<path d="M38.7574 33.3143C38.7574 34.2507 39.0286 33.7382 39.8345 33.7382C40.5292 33.0446 40.8766 32.7748 41.3282 31.85C41.3282 30.9136 42.1343 31.0022 41.3284 31.0022C40.5225 31.0022 38.7574 32.3779 38.7574 33.3143Z" fill="#FFB454"/>
<path d="M29.2381 39.5569C29.2381 40.4933 30.6557 39.7881 31.4616 39.7881C32.2675 39.7881 33.4072 39.2602 33.4072 38.3238C33.4072 37.3874 32.615 37.2448 31.8091 37.2448C31.0032 37.2448 29.2381 38.6205 29.2381 39.5569Z" fill="#FFB454"/>
<path d="M26.7015 38.7091C26.7015 39.6455 27.6675 40.5973 28.4734 40.5973C29.2793 40.5973 31.0791 39.1831 31.0791 38.2467C31.0791 37.3103 29.5572 37.0136 28.7513 37.0136C27.9455 37.0136 26.7015 37.7727 26.7015 38.7091Z" fill="#FFB454"/>
<path d="M24.1997 39.0944C24.1997 40.0308 25.4437 41.0211 26.2496 41.0211C27.0554 41.0211 29.4111 40.0308 29.4111 39.0944C29.4111 38.158 27.5418 37.3989 26.7359 37.3989C25.9301 37.3989 24.1997 38.158 24.1997 39.0944Z" fill="#FFB454"/>
<path d="M23.0005 40.2329C23.0005 41.1693 23.6028 41.1753 24.4087 41.1753C25.2146 41.1753 27.5703 41.6493 27.5703 40.7129C27.5703 39.7765 25.6315 38.9018 24.8256 38.9018C24.0198 38.9018 23.0005 39.2965 23.0005 40.2329Z" fill="#FFB454"/>
<path d="M36.1511 35.241C36.1511 36.1774 36.5613 36.1273 37.3672 36.1273C38.1731 36.1273 39.417 34.2508 39.417 33.3144C39.417 32.378 39.1458 33.0061 38.3399 33.0061C37.534 33.0061 36.1511 34.3046 36.1511 35.241Z" fill="#FFB454"/>
<path d="M33.9879 37.2448C33.9879 38.1812 34.3029 37.8614 35.1088 37.8614C35.9147 37.8614 37.0197 36.6784 37.0197 35.742C37.0197 34.8056 36.9826 35.0099 36.1767 35.0099C35.3708 35.0099 33.9879 36.3084 33.9879 37.2448Z" fill="#FFB454"/>
<path d="M31.2871 37.6687C31.2871 38.6051 31.871 39.3642 32.6769 39.3642C33.4827 39.3642 35.5952 37.4106 35.5952 36.4742C35.5952 35.5378 34.4555 35.5879 33.6496 35.5879C32.8438 35.5879 31.2871 36.7323 31.2871 37.6687Z" fill="#FFB454"/>
<path d="M38.9089 34.3121C38.9089 35.2476 39.236 34 40.0003 34C40.659 33.3071 40.5719 33.924 41.0002 33C41.0002 32.0645 42.1111 32.0023 41.3469 32.0023C40.5826 32.0023 38.9089 33.3766 38.9089 34.3121Z" fill="#FF7D47"/>
<path d="M29.8814 40.5487C29.8814 41.4842 31.2258 40.7797 31.99 40.7797C32.7542 40.7797 33.835 40.2523 33.835 39.3168C33.835 38.3813 33.0837 38.2389 32.3194 38.2389C31.5552 38.2389 29.8814 39.6132 29.8814 40.5487Z" fill="#FF7D47"/>
<path d="M27.4767 39.7018C27.4767 40.6373 28.3928 41.5881 29.157 41.5881C29.9212 41.5881 31.6279 40.1753 31.6279 39.2398C31.6279 38.3043 30.1848 38.0079 29.4205 38.0079C28.6563 38.0079 27.4767 38.7663 27.4767 39.7018Z" fill="#FF7D47"/>
<path d="M25.104 40.0867C25.104 41.0223 26.2836 42.0116 27.0478 42.0116C27.812 42.0116 30.0459 41.0223 30.0459 40.0867C30.0459 39.1512 28.2733 38.3929 27.509 38.3929C26.7448 38.3929 25.104 39.1512 25.104 40.0867Z" fill="#FF7D47"/>
<path d="M23.3474 41.8829C23.3474 42.8184 24.5375 42.1656 25.3017 42.1656C26.0659 42.1656 28.2998 42.6391 28.2998 41.7036C28.2998 40.7681 26.0082 39.6699 25.244 39.6699C24.4798 39.6699 23.3474 40.9474 23.3474 41.8829Z" fill="#FF7D47"/>
<path d="M36.4382 36.237C36.4382 37.1725 36.8271 37.1225 37.5913 37.1225C38.3556 37.1225 39.5352 35.2477 39.5352 34.3122C39.5352 33.3767 39.278 34.0042 38.5138 34.0042C37.7495 34.0042 36.4382 35.3015 36.4382 36.237Z" fill="#FF7D47"/>
<path d="M34.3868 38.2389C34.3868 39.1744 34.6856 38.8549 35.4498 38.8549C36.214 38.8549 37.2618 37.673 37.2618 36.7375C37.2618 35.802 37.2267 36.0061 36.4624 36.0061C35.6982 36.0061 34.3868 37.3034 34.3868 38.2389Z" fill="#FF7D47"/>
<path d="M31.8257 38.6624C31.8257 39.5979 32.3793 40.3563 33.1435 40.3563C33.9078 40.3563 35.911 38.4045 35.911 37.469C35.911 36.5335 34.8303 36.5835 34.066 36.5835C33.3018 36.5835 31.8257 37.7269 31.8257 38.6624Z" fill="#FF7D47"/>
<path d="M23 36.5H24.5L25 37.5V39L24.5 40.5L24 42H23.5L23 40.5L22.5 39V37.5L23 36.5Z" fill="white"/>
<path d="M43.5 22.4993C43.5 33.5445 34.5457 42.4985 23.5 42.4985C12.4543 42.4985 3.5 33.5445 3.5 22.4993C3.5 11.454 12.4543 2.5 23.5 2.5C34.5457 2.5 43.5 11.454 43.5 22.4993Z" stroke="#08234B"/>
<path d="M23.6311 3.00203L23.5592 3.00731L23.2558 3.62689C22.2808 5.61941 21.9599 6.29356 21.5969 7.11732C21.2129 7.99213 20.8972 8.85462 20.6271 9.76463C20.5886 9.89488 20.5044 10.1167 20.4395 10.2575C18.6578 14.1563 17.9441 20.7745 18.6526 26.8031C18.6859 27.0883 18.721 27.3699 18.7315 27.4262C18.7403 27.4843 18.7473 27.5336 18.7438 27.5354C18.742 27.5371 18.6298 27.5653 18.4947 27.5952C17.0445 27.9279 16.194 28.4841 15.7258 29.4082C15.6206 29.6141 15.4329 30.0824 15.3488 30.3464C14.984 31.494 14.9121 32.61 15.1015 34.2188C15.1488 34.6218 15.1524 34.6394 15.1874 34.6324C15.2032 34.6289 15.3014 34.4986 15.4084 34.3437C16.08 33.3598 16.5044 32.8212 16.9937 32.3301C17.7004 31.6225 18.3913 31.2124 19.2541 30.9924C19.3347 30.9712 19.4031 30.9572 19.4084 30.9607C19.4119 30.9642 19.4733 31.1737 19.5452 31.4271C20.0414 33.1662 20.6166 34.4705 21.3707 35.5565C21.5478 35.8117 21.625 35.9033 21.8617 36.1426C22.1353 36.4172 22.4018 36.6372 22.5877 36.7411C22.6947 36.8009 22.6947 36.7833 22.5824 37.0562C22.4895 37.2815 22.393 37.6423 22.3527 37.9187C22.2492 38.6227 22.3422 39.3602 22.6385 40.1629C22.8998 40.8705 23.4592 42.0128 23.6346 42.1941C23.824 42.3913 23.9713 42.2417 24.3781 41.439C24.8586 40.4903 25.1164 39.7352 25.2058 39.0188C25.2339 38.7847 25.2339 38.1792 25.2058 37.9715C25.1515 37.5789 25.0515 37.1882 24.927 36.889L24.8656 36.7393L24.9077 36.7129C25.027 36.6337 25.2988 36.4172 25.4268 36.2993C26.1282 35.6427 26.7999 34.5127 27.368 33.0342C27.5276 32.6152 27.7696 31.8777 27.9046 31.3919L28.0169 30.9924L28.0695 31.0029C28.3115 31.0557 28.7043 31.2071 29.0077 31.3638C29.4706 31.6049 29.8547 31.8953 30.2896 32.3301C30.7788 32.8212 31.2032 33.3598 31.8748 34.3437C31.9818 34.4986 32.08 34.6289 32.0958 34.6324C32.1309 34.6394 32.1344 34.6218 32.1817 34.2188C32.3957 32.3987 32.2799 31.193 31.7661 29.8835C31.461 29.1072 31.1418 28.683 30.5631 28.2923C30.1545 28.0177 29.4776 27.7484 28.8253 27.604L28.6885 27.5741L28.699 27.5019C28.7534 27.164 28.8656 26.1343 28.92 25.5006C29.0182 24.3143 29.0498 23.4746 29.0498 22.0859C29.0498 20.6971 29.0182 19.8557 28.92 18.6711C28.6394 15.318 27.9713 12.3961 26.9858 10.2223C26.8998 10.0322 26.8192 9.81744 26.7543 9.60093C26.5929 9.06056 26.3667 8.40753 26.2159 8.03966C25.7232 6.83922 25.3496 6.02954 24.2203 3.7061L23.8819 3.00907L23.7924 3.00203C23.7433 3.00027 23.6714 2.99851 23.6311 3.00203ZM24.9217 9.97585C25.2181 9.99169 25.6758 10.0375 26.251 10.1096C26.365 10.1237 26.3562 10.1149 26.5263 10.481C26.8683 11.2221 27.2295 12.2606 27.4961 13.2674C28.4658 16.9162 28.7797 21.7021 28.3395 26.0815C28.2782 26.6958 28.1852 27.4403 28.1694 27.4579C28.1572 27.4702 27.2997 27.4967 26.2177 27.5178L25.6302 27.5301L25.5723 27.3523C25.4531 26.9686 25.2286 26.6007 24.9498 26.3314C24.6534 26.0445 24.3501 25.879 23.966 25.7981C23.831 25.7682 23.4347 25.7682 23.2997 25.7981C22.9156 25.879 22.6122 26.0445 22.3159 26.3314C22.0406 26.599 21.8389 26.9246 21.7039 27.3189L21.6337 27.5266L21.1778 27.5248C20.5324 27.5231 19.2874 27.4914 19.2734 27.4755C19.247 27.4491 19.0997 26.1466 19.0401 25.4126C18.9437 24.2579 18.9156 23.5063 18.9156 22.0859C18.9156 20.8379 18.9279 20.4454 18.9858 19.4984C19.1366 17.1028 19.4996 14.841 20.0397 12.9153C20.1765 12.4331 20.4746 11.5442 20.6394 11.1288C20.7815 10.775 20.9937 10.2944 21.0568 10.1853L21.0919 10.1255L21.5127 10.0691C21.7617 10.0357 22.1317 10.0023 22.4228 9.98641C22.6929 9.97057 22.9647 9.95473 23.0278 9.95121C23.2435 9.93889 24.5623 9.95649 24.9217 9.97585ZM24.5956 36.9981C24.6675 37.16 24.7622 37.4769 24.806 37.7022C24.9603 38.4766 24.8884 39.2652 24.5851 40.1013C24.4307 40.5255 24.0572 41.3352 23.8468 41.6995L23.7872 41.8034L23.7609 41.7611C23.7118 41.6872 23.3873 41.0289 23.2435 40.7085C22.8139 39.7668 22.6701 39.2106 22.6701 38.4907C22.6684 37.9891 22.7385 37.6053 22.9051 37.1829C23.0068 36.9294 22.9823 36.947 23.1541 36.9946C23.233 37.0174 23.3014 37.0368 23.3032 37.0386C23.3049 37.0386 23.3751 37.4047 23.4575 37.8482C23.6556 38.9255 23.6381 38.8427 23.6784 38.8427C23.7188 38.8427 23.6995 38.9255 23.8696 37.9979C23.9485 37.5772 24.0186 37.1917 24.0292 37.1424L24.0467 37.0544L24.1554 37.0315C24.215 37.0192 24.3238 36.9875 24.3957 36.9594C24.4676 36.9312 24.5342 36.9083 24.5412 36.9083C24.5482 36.9066 24.5745 36.9488 24.5956 36.9981Z" fill="#08234B"/>
<path d="M23.5008 11.8786C22.7502 11.9754 22.0786 12.5563 21.8208 13.3325C21.7314 13.5983 21.7051 13.7708 21.7051 14.0859C21.7051 14.401 21.7314 14.5735 21.8208 14.8392C22.0085 15.4043 22.4206 15.8813 22.9273 16.1189C23.4412 16.3618 24.0216 16.3706 24.5372 16.1471C25.933 15.5416 26.275 13.5684 25.1755 12.4665C24.7178 12.0071 24.1216 11.7977 23.5008 11.8786ZM24.0023 12.3187C24.3793 12.3856 24.7458 12.6056 24.9878 12.9101C25.1299 13.0861 25.2772 13.3836 25.3368 13.6106C25.3789 13.7673 25.3842 13.8183 25.3842 14.0859C25.3842 14.3534 25.3789 14.4045 25.3368 14.5611C25.2386 14.9308 25.0106 15.2951 24.7388 15.5134C24.1426 15.9922 23.385 15.9922 22.7888 15.5134C22.517 15.2951 22.289 14.9308 22.1908 14.5611C22.1487 14.4045 22.1435 14.3534 22.1435 14.0859C22.1435 13.8183 22.1487 13.7673 22.1908 13.6106C22.3942 12.8432 23.0291 12.3081 23.748 12.3011C23.8305 12.2993 23.9444 12.3081 24.0023 12.3187Z" fill="#08234B"/>
<path d="M23.4752 17.4108C22.9982 17.5041 22.6089 17.8069 22.3844 18.2575C21.9706 19.083 22.3038 20.125 23.1052 20.5105C23.3349 20.6196 23.4664 20.6495 23.7295 20.6495C23.9925 20.6495 24.124 20.6196 24.3538 20.5105C24.85 20.2711 25.1762 19.7906 25.2428 19.2044C25.306 18.6341 25.0675 18.0498 24.6343 17.7083C24.4923 17.5974 24.2433 17.4724 24.0802 17.4319C23.9206 17.3914 23.626 17.3809 23.4752 17.4108ZM23.9539 17.8526C24.2661 17.9248 24.5291 18.1448 24.6852 18.4687C24.8518 18.8154 24.8588 19.2062 24.7027 19.5441C24.6291 19.7061 24.5765 19.7835 24.452 19.9085C24.1398 20.2289 23.6769 20.3081 23.2805 20.1127C22.9053 19.9261 22.6422 19.4773 22.6422 19.0231C22.6422 18.7521 22.7562 18.4229 22.9193 18.2275C23.1894 17.9037 23.5716 17.7664 23.9539 17.8526Z" fill="#08234B"/>
</g>
<defs>
<clipPath id="clip0_1513_2">
<rect width="46" height="45" fill="white"/>
</clipPath>
</defs>
</svg>
