<svg width="182" height="177" viewBox="0 0 182 177" fill="none" xmlns="http://www.w3.org/2000/svg">
<g clip-path="url(#clip0_218_6016)">
<path d="M28.4309 71.4675C29.0981 70.3235 28.6767 68.8306 27.4917 68.1396L26.1466 67.3552C26.1464 67.355 26.146 67.3549 26.1458 67.3548C26.1455 67.3546 26.1452 67.3544 26.145 67.3542C25.7257 67.1097 25.1875 67.2514 24.943 67.6707L21.9913 72.7324C21.7468 73.1517 21.8885 73.6898 22.3078 73.9343C22.7271 74.1789 23.2653 74.0372 23.5098 73.6179L24.1498 72.5204L24.6247 74.9402C24.6754 75.1982 24.8341 75.4075 25.0447 75.5304C25.2229 75.6343 25.4382 75.6763 25.6564 75.6334C26.1328 75.5399 26.4431 75.078 26.3496 74.6017L25.9579 72.6056C26.9272 72.7598 27.9227 72.339 28.4309 71.4675ZM26.6062 69.6581C26.948 69.8574 27.0883 70.2805 26.9124 70.582C26.7366 70.8835 26.2994 70.9698 25.9575 70.7704C25.8174 70.6887 25.5975 70.5616 25.3758 70.4337C25.5 70.2181 25.8918 69.5434 26.0226 69.3177L26.6062 69.658L26.6062 69.6581Z" fill="#394F6F"/>
<path d="M35.4588 64.2172C35.8565 63.9951 36.2019 63.6677 36.4475 63.2466C37.1799 61.9906 36.754 60.373 35.4981 59.6406C35.0768 59.3949 34.615 59.2802 34.1594 59.2827C32.7483 56.1851 30.3124 53.6512 27.2474 52.1102C23.9813 50.4677 20.2336 50.0764 16.6946 51.0082C12.8199 52.0284 9.57448 54.4964 7.5561 57.9576C5.53773 61.4188 4.98801 65.4588 6.00827 69.3334C7.02844 73.2081 9.49648 76.4534 12.9577 78.4718C16.4188 80.4902 20.4589 81.0399 24.3335 80.0197C27.8724 79.0879 30.9415 76.9017 32.9752 73.8637C34.8838 71.0128 35.7561 67.6081 35.4588 64.2172ZM34.9291 62.3611C34.6849 62.7797 34.1457 62.9217 33.7271 62.6776C33.3084 62.4334 33.1664 61.8942 33.4106 61.4756C33.6547 61.0569 34.1939 60.9149 34.6126 61.1591C35.0312 61.4032 35.1732 61.9424 34.9291 62.3611ZM23.8859 78.3199C16.8247 80.1791 9.56741 75.9471 7.70812 68.8858C6.80747 65.4653 7.29276 61.8987 9.07459 58.8431C10.8565 55.7875 13.7215 53.6087 17.1422 52.7081C23.3297 51.0789 29.8123 54.1475 32.4991 59.8788C32.2621 60.0724 32.0551 60.3106 31.8921 60.5901C31.6873 60.9413 31.5732 61.3208 31.5424 61.7013L22.6937 64.0312C22.4794 63.7152 22.1933 63.4411 21.842 63.2363C20.5861 62.5039 18.9684 62.9298 18.2361 64.1857C17.5037 65.4417 17.9296 67.0593 19.1855 67.7917C20.4415 68.5241 22.0591 68.0982 22.7915 66.8422C22.9963 66.491 23.1104 66.1115 23.1412 65.731L31.9899 63.4011C32.2042 63.7171 32.4903 63.9912 32.8415 64.196C33.121 64.359 33.4184 64.4643 33.7201 64.5162C34.2043 70.8275 30.0734 76.6906 23.8859 78.3199ZM21.273 65.9567C21.0289 66.3754 20.4897 66.5174 20.071 66.2732C19.6524 66.0291 19.5104 65.4899 19.7545 65.0712C19.9987 64.6526 20.5379 64.5106 20.9565 64.7547C21.3752 64.9989 21.5172 65.5381 21.273 65.9567Z" fill="#394F6F"/>
</g>
<g clip-path="url(#clip1_218_6016)">
<path d="M15.0016 124.464C16.4138 124.959 18.6348 124.663 21.6027 123.586C22.864 123.128 23.9856 122.629 24.7018 122.293C25.0518 123.003 25.6172 124.092 26.3174 125.237C27.9647 127.93 29.5162 129.547 30.9284 130.041C34.3132 131.227 38.0311 129.437 39.2163 126.053C40.4015 122.668 38.6121 118.95 35.2273 117.765C33.8151 117.27 31.5941 117.566 28.6262 118.643C27.3649 119.101 26.2433 119.6 25.5271 119.936C25.1771 119.226 24.6117 118.137 23.9116 116.992C22.2642 114.299 20.7128 112.682 19.3006 112.188C15.9158 111.002 12.1979 112.792 11.0126 116.177C9.8274 119.561 11.6168 123.279 15.0016 124.464ZM29.243 120.289C32.6106 119.069 34.0739 119.223 34.6464 119.424C37.1163 120.289 38.4222 123.002 37.5573 125.472C36.6924 127.942 33.9792 129.247 31.5093 128.382C30.9368 128.182 29.697 127.39 27.8263 124.335C27.1638 123.253 26.6192 122.204 26.2834 121.524C26.97 121.202 28.0503 120.721 29.243 120.289ZM18.7196 113.847C19.2922 114.047 20.5319 114.839 22.4026 117.894C23.0651 118.976 23.6098 120.025 23.9456 120.705C23.2589 121.027 22.1786 121.508 20.986 121.94C17.6183 123.16 16.1551 123.006 15.5825 122.805C13.1126 121.941 11.8068 119.227 12.6717 116.757C13.5366 114.287 16.2497 112.982 18.7196 113.847Z" fill="#394F6F"/>
</g>
<g clip-path="url(#clip2_218_6016)">
<path d="M56.3915 144.336C56.7827 144.623 57.3328 144.539 57.6202 144.148L58.1732 143.395L60.4109 144.014L60.4954 144.941C60.5296 145.315 60.7941 145.614 61.1364 145.708C61.2357 145.736 61.3418 145.746 61.4505 145.736C61.9339 145.692 62.29 145.264 62.2459 144.781L61.685 138.632C61.6842 138.623 61.6833 138.614 61.6823 138.606C61.6327 138.197 61.3444 137.862 60.9476 137.752C60.9473 137.752 60.9469 137.752 60.9466 137.752C60.5493 137.643 60.1296 137.783 59.8776 138.109C59.8732 138.114 59.8688 138.12 59.8646 138.126L56.2037 143.107C55.9164 143.498 56.0003 144.048 56.3915 144.336ZM60.2402 142.143L59.2871 141.88L60.1136 140.755L60.2402 142.143Z" fill="#394F6F"/>
<path d="M66.2195 147.114L66.2232 147.115C66.2383 147.119 67.7385 147.527 68.1482 147.64C69.4534 148.001 70.8091 147.233 71.1702 145.928C71.3636 145.229 71.2329 144.516 70.8696 143.949C71.1345 143.685 71.337 143.352 71.4435 142.967C71.771 141.783 71.0744 140.554 69.8908 140.226L68.2504 139.773C67.7826 139.643 67.2984 139.917 67.169 140.385L65.6067 146.033C65.5443 146.258 65.5744 146.499 65.69 146.702C65.8051 146.904 65.9956 147.052 66.2195 147.114ZM68.6169 145.946C68.4131 145.89 67.9553 145.765 67.5363 145.651L67.9093 144.302C67.9803 144.322 68.9893 144.6 68.9893 144.6C69.3604 144.703 69.5787 145.088 69.4761 145.459C69.3734 145.83 68.988 146.049 68.6169 145.946ZM69.4222 141.921C69.6716 141.99 69.8184 142.249 69.7494 142.498C69.6804 142.747 69.4213 142.894 69.1719 142.825C69.0534 142.793 68.3782 142.607 68.3782 142.607L68.6289 141.701L69.4222 141.921Z" fill="#394F6F"/>
<path d="M67.4427 149.398C65.8159 148.948 64.1704 148.918 62.6221 149.243C61.4607 148.169 60.034 147.348 58.4071 146.898C52.9578 145.391 47.2979 148.598 45.7904 154.047C44.2828 159.496 47.4897 165.156 52.939 166.664C54.5659 167.114 56.2114 167.143 57.7597 166.819C58.9211 167.893 60.3478 168.713 61.9746 169.163C67.424 170.671 73.0838 167.464 74.5914 162.015C76.0989 156.565 72.892 150.905 67.4427 149.398ZM53.4077 164.969C48.8926 163.72 46.2354 159.031 47.4846 154.516C48.7337 150 53.4233 147.343 57.9384 148.592C58.9323 148.867 59.8361 149.309 60.6281 149.879C57.8857 151.072 55.6837 153.446 54.826 156.547C53.9683 159.647 54.6372 162.815 56.3763 165.248C55.404 165.33 54.4017 165.244 53.4077 164.969ZM63.651 153.868L59.362 152.682C60.1695 152.03 61.0915 151.528 62.0793 151.205C62.7604 151.99 63.2936 152.894 63.651 153.868ZM58.3025 164.857C57.6214 164.072 57.0881 163.168 56.7308 162.193L61.0198 163.38C60.2123 164.032 59.2903 164.533 58.3025 164.857ZM62.4205 161.943L56.2674 160.241C56.1784 159.467 56.195 158.672 56.3294 157.874L63.5836 159.881C63.2892 160.634 62.8947 161.325 62.4205 161.943ZM56.7981 156.18C57.0926 155.427 57.4871 154.736 57.9613 154.118L64.1143 155.82C64.2034 156.594 64.1867 157.39 64.0523 158.187L56.7981 156.18ZM62.4433 167.469C61.4494 167.194 60.5457 166.752 59.7537 166.182C62.496 164.989 64.6981 162.615 65.5558 159.515C66.4135 156.415 65.7446 153.247 64.0055 150.813C64.9778 150.732 65.9801 150.817 66.974 151.092C71.4892 152.341 74.1463 157.031 72.8972 161.546C71.6481 166.061 66.9585 168.718 62.4433 167.469Z" fill="#394F6F"/>
</g>
<path d="M156.289 64.4835L166.159 66.723C166.505 66.8017 166.865 66.6638 167.071 66.3736C167.276 66.0834 167.286 65.6981 167.097 65.3974L159.467 53.2881C159.277 52.9873 158.925 52.8305 158.575 52.8904C158.224 52.9504 157.945 53.2155 157.866 53.5621L155.626 63.4318C155.519 63.9052 155.816 64.3761 156.289 64.4835ZM159.111 56.0204L164.479 64.5393L157.535 62.9637L159.111 56.0204Z" fill="#394F6F"/>
<path d="M178.39 73.4273L157.098 39.6356C156.908 39.3349 156.556 39.178 156.206 39.2379C155.855 39.2979 155.576 39.563 155.497 39.9097L149.247 67.4517C149.14 67.9251 149.437 68.3959 149.91 68.5033L177.452 74.753C177.799 74.8317 178.158 74.6938 178.364 74.4036C178.569 74.1134 178.579 73.7281 178.39 73.4273ZM151.156 66.9836L151.545 65.2694L152.402 65.4638C152.875 65.5713 153.346 65.2746 153.454 64.8012C153.561 64.3279 153.264 63.857 152.791 63.7496L151.934 63.5551L152.453 61.2695L153.31 61.464C153.783 61.5714 154.254 61.2747 154.361 60.8013C154.469 60.328 154.172 59.8571 153.699 59.7497L152.842 59.5552L153.231 57.841L154.088 58.0355C154.561 58.1429 155.032 57.8462 155.139 57.3729C155.247 56.8995 154.95 56.4287 154.477 56.3213L153.62 56.1268L154.009 54.4125L154.866 54.607C155.339 54.7144 155.81 54.4178 155.917 53.9444C156.025 53.4711 155.728 53.0002 155.255 52.8928L154.397 52.6983L154.786 50.9841L155.644 51.1786C156.117 51.286 156.588 50.9893 156.695 50.5159C156.803 50.0426 156.506 49.5718 156.033 49.4643L155.175 49.2698L155.564 47.5556L156.422 47.7501C156.895 47.8575 157.366 47.5608 157.473 47.0875C157.581 46.6141 157.284 46.1433 156.811 46.0359L155.953 45.8414L156.742 42.3679L175.772 72.5692L151.156 66.9836Z" fill="#394F6F"/>
<path d="M70.9591 13.4388L57.4038 9.69584C57.0829 9.60723 56.7395 9.70753 56.5168 9.95495C56.294 10.2024 56.2301 10.5544 56.3518 10.8642L60.3932 21.1589L51.6419 27.9212C51.3785 28.1248 51.2527 28.4597 51.317 28.7863C51.3812 29.113 51.6245 29.3753 51.9454 29.4639L65.5006 33.2068C65.9685 33.336 66.4526 33.0614 66.5818 32.5935L67.5175 29.2047C67.6467 28.7369 67.3721 28.2528 66.9042 28.1236C66.4364 27.9944 65.9523 28.269 65.8231 28.7369L65.1213 31.2785L54.1077 28.2374L61.9896 22.1468C62.2987 21.908 62.4131 21.4937 62.2704 21.1302L58.6304 11.8581L69.644 14.8992L68.9422 17.4408C68.813 17.9087 69.0876 18.3928 69.5555 18.522C70.0234 18.6512 70.5074 18.3766 70.6366 17.9087L71.5723 14.5199C71.7015 14.052 71.427 13.568 70.9591 13.4388Z" fill="#394F6F"/>
<g clip-path="url(#clip3_218_6016)">
<path d="M136.785 20.5066L133.847 18.9712C133.417 18.7463 132.886 18.9128 132.661 19.3429C132.436 19.7731 132.603 20.3041 133.033 20.529L134.09 21.0815L123.479 24.4076L122.651 21.7676C124.556 20.8128 125.921 18.7441 126.536 15.8387C127.198 12.7121 126.919 8.93828 125.752 5.21234C125.606 4.74917 125.113 4.49137 124.65 4.63655C124.187 4.78173 123.929 5.27494 124.074 5.73811C125.153 9.18068 125.417 12.6385 124.816 15.4746C124.347 17.6912 123.402 19.2805 122.115 20.0561L118.05 7.08699L119.107 7.63951C119.322 7.75191 119.562 7.76654 119.777 7.69926C119.991 7.63198 120.18 7.48279 120.293 7.26771C120.517 6.83757 120.351 6.30652 119.921 6.08166L116.983 4.54622C116.553 4.3214 116.022 4.48785 115.797 4.91799L114.262 7.85546C114.037 8.2856 114.203 8.81665 114.634 9.04151C115.064 9.26634 115.595 9.09988 115.82 8.66975L116.372 7.61275L120.437 20.5818C118.938 20.6798 117.254 19.9144 115.604 18.3623C113.492 16.3764 111.735 13.3868 110.656 9.94422C110.51 9.48105 110.017 9.22325 109.554 9.36843C109.091 9.51361 108.833 10.0068 108.978 10.47C110.146 14.196 112.071 17.4536 114.4 19.6429C116.563 21.6773 118.865 22.5969 120.974 22.2934L121.801 24.9334L111.19 28.2595L111.743 27.2025C111.967 26.7723 111.801 26.2413 111.371 26.0164C110.941 25.7916 110.41 25.958 110.185 26.3882L108.649 29.3256C108.424 29.7558 108.591 30.2868 109.021 30.5117L111.959 32.0471C112.174 32.1596 112.414 32.1742 112.629 32.1069C112.843 32.0396 113.032 31.8904 113.145 31.6754C113.37 31.2452 113.203 30.7142 112.773 30.4893L111.716 29.9368L122.327 26.6107L123.55 30.5126L122.493 29.9601C122.063 29.7353 121.532 29.9017 121.307 30.3318C121.082 30.762 121.249 31.293 121.679 31.5179L124.616 33.0533C124.831 33.1658 125.072 33.1804 125.286 33.1131C125.501 33.0458 125.69 32.8966 125.802 32.6816L127.338 29.7441C127.563 29.314 127.396 28.7829 126.966 28.558C126.536 28.3332 126.005 28.4997 125.78 28.9298L125.228 29.9868L124.004 26.085L134.616 22.7588L134.063 23.8159C133.838 24.246 134.005 24.7771 134.435 25.0019C134.65 25.1143 134.89 25.129 135.105 25.0617C135.32 24.9944 135.509 24.8452 135.621 24.6301L137.156 21.6926C137.381 21.2625 137.215 20.7314 136.785 20.5066Z" fill="#394F6F"/>
</g>
<g clip-path="url(#clip4_218_6016)">
<path d="M170.991 111.888C171.477 111.888 171.87 111.494 171.87 111.009C171.87 110.524 171.477 110.13 170.991 110.13C170.506 110.13 170.112 110.524 170.112 111.009C170.112 111.494 170.506 111.888 170.991 111.888Z" fill="#394F6F"/>
<path d="M179 105.637C179 104.932 178.726 104.27 178.228 103.772C177.73 103.274 177.068 103 176.363 103C175.659 103 174.997 103.274 174.499 103.772L171.612 106.659C171.409 106.63 171.202 106.614 170.991 106.614C169.754 106.614 168.635 107.129 167.835 107.955L158.672 113.461C158.572 110.712 159.569 107.93 161.663 105.836C162.006 105.493 162.006 104.936 161.663 104.593C161.32 104.25 160.763 104.25 160.42 104.593C157.726 107.287 156.582 110.953 156.987 114.473L153.217 116.739C152.211 117.343 151.501 118.303 151.217 119.442C151.005 120.291 151.049 121.164 151.336 121.97L149.426 123.118C149.01 123.368 148.876 123.908 149.126 124.324C149.29 124.598 149.581 124.75 149.88 124.75C150.034 124.75 150.19 124.71 150.332 124.624L158.785 119.545C159.246 120.267 159.79 120.95 160.42 121.58C161.05 122.21 161.733 122.754 162.455 123.215L157.376 131.668C157.126 132.084 157.26 132.624 157.676 132.874C157.818 132.96 157.974 133 158.128 133C158.426 133 158.717 132.848 158.882 132.574L160.03 130.663C160.506 130.831 160.998 130.913 161.487 130.913C162.98 130.913 164.438 130.153 165.262 128.783L167.527 125.013C167.987 125.066 168.45 125.093 168.913 125.093C171.989 125.093 175.065 123.922 177.407 121.58C177.75 121.237 177.75 120.681 177.407 120.337C177.064 119.994 176.507 119.994 176.164 120.337C174.07 122.431 171.288 123.428 168.539 123.328L174.045 114.165C174.871 113.365 175.386 112.247 175.386 111.009C175.386 110.798 175.37 110.591 175.341 110.388L178.228 107.501C178.726 107.003 179 106.341 179 105.637ZM170.991 108.372C172.445 108.372 173.628 109.555 173.628 111.009C173.628 112.463 172.445 113.646 170.991 113.646C169.537 113.646 168.354 112.463 168.354 111.009C168.354 109.555 169.537 108.372 170.991 108.372ZM166.605 110.745C166.6 110.832 166.597 110.92 166.597 111.009C166.597 111.576 166.706 112.119 166.903 112.617L159.471 117.083C159.235 116.524 159.051 115.948 158.919 115.363L166.605 110.745ZM152.897 121.032C152.681 119.969 153.14 118.835 154.123 118.245L157.345 116.309C157.504 116.883 157.706 117.446 157.951 117.996L152.897 121.032ZM161.663 120.337C161.136 119.811 160.68 119.241 160.293 118.639L167.862 114.091C167.878 114.107 167.893 114.122 167.909 114.138L163.361 121.707C162.759 121.32 162.189 120.863 161.663 120.337ZM163.755 127.877C163.392 128.481 162.816 128.907 162.133 129.078C161.744 129.175 161.348 129.182 160.967 129.104L164.004 124.049C164.554 124.294 165.117 124.496 165.691 124.655L163.755 127.877ZM166.637 123.081C166.052 122.949 165.476 122.765 164.917 122.529L169.383 115.097C169.881 115.294 170.424 115.403 170.991 115.403C171.08 115.403 171.168 115.4 171.255 115.395L166.637 123.081ZM176.985 106.258L174.656 108.587C174.329 108.094 173.906 107.671 173.413 107.344L175.742 105.015C175.908 104.849 176.129 104.758 176.363 104.758C176.598 104.758 176.819 104.849 176.985 105.015C177.151 105.181 177.242 105.402 177.242 105.637C177.242 105.872 177.151 106.092 176.985 106.258Z" fill="#394F6F"/>
</g>
<g clip-path="url(#clip5_218_6016)">
<path d="M115.641 150.978C116.101 150.824 116.35 150.326 116.196 149.865L115.454 147.642C115.3 147.182 114.802 146.934 114.341 147.087C113.881 147.241 113.633 147.739 113.786 148.199L114.529 150.422C114.683 150.883 115.181 151.131 115.641 150.978Z" fill="#394F6F"/>
<path d="M127.088 160.248L124.757 160.004C124.274 159.954 123.841 160.304 123.791 160.787C123.74 161.269 124.091 161.702 124.574 161.752L126.905 161.996C127.034 162.01 127.159 161.995 127.274 161.956C127.591 161.85 127.833 161.567 127.87 161.213C127.921 160.731 127.57 160.298 127.088 160.248Z" fill="#394F6F"/>
<path d="M113.78 163.671L112.063 165.267C111.708 165.597 111.688 166.154 112.018 166.509C112.261 166.77 112.624 166.85 112.941 166.744C113.056 166.706 113.166 166.642 113.26 166.554L114.977 164.958C115.332 164.628 115.352 164.072 115.022 163.716C114.691 163.361 114.135 163.341 113.78 163.671Z" fill="#394F6F"/>
<path d="M127.68 145.185L113.597 143.712C113.344 143.686 113.093 143.77 112.907 143.943L102.537 153.585C102.285 153.819 102.193 154.18 102.302 154.507L107.538 170.179C107.647 170.506 107.937 170.739 108.28 170.775L122.362 172.247C122.362 172.248 122.363 172.247 122.363 172.248C122.488 172.261 122.615 172.247 122.733 172.207C122.85 172.168 122.959 172.104 123.053 172.017L133.423 162.375C133.675 162.14 133.767 161.78 133.658 161.453L128.422 145.781C128.313 145.454 128.023 145.221 127.68 145.185ZM113.811 145.502L125.574 146.732L117.62 154.128L117.31 153.2C117.156 152.74 116.658 152.491 116.198 152.645C115.737 152.799 115.489 153.297 115.642 153.757L115.953 154.685L105.15 153.555L113.811 145.502ZM110.386 169.227L110.686 168.948C111.042 168.618 111.062 168.062 110.731 167.706C110.401 167.351 109.845 167.33 109.489 167.661L108.772 168.327L104.402 155.245L116.564 156.517L117.728 160L116.355 161.277C115.999 161.608 115.979 162.164 116.31 162.519C116.552 162.78 116.916 162.86 117.232 162.754C117.348 162.716 117.457 162.653 117.552 162.564L118.34 161.832L121.188 170.357L110.386 169.227ZM120.007 161.275L121.077 161.387C121.206 161.4 121.332 161.385 121.447 161.346C121.764 161.241 122.006 160.958 122.043 160.604C122.094 160.121 121.743 159.689 121.26 159.638L119.395 159.443L118.232 155.96L127.187 147.633L131.558 160.715L130.584 160.614C130.102 160.563 129.669 160.914 129.619 161.396C129.568 161.879 129.919 162.311 130.402 162.362L130.81 162.404L122.855 169.8L120.007 161.275Z" fill="#394F6F"/>
</g>
<defs>
<clipPath id="clip0_218_6016">
<rect width="30" height="30" fill="white" transform="translate(15.1123 45) rotate(30.2485)"/>
</clipPath>
<clipPath id="clip1_218_6016">
<rect width="30" height="30" fill="white" transform="translate(15.915 102) rotate(19.2985)"/>
</clipPath>
<clipPath id="clip2_218_6016">
<rect width="30" height="30" fill="white" transform="translate(50.999 135) rotate(15.464)"/>
</clipPath>
<clipPath id="clip3_218_6016">
<rect width="30" height="30" fill="white" transform="translate(102 8.97302) rotate(-17.4036)"/>
</clipPath>
<clipPath id="clip4_218_6016">
<rect width="30" height="30" fill="white" transform="translate(149 103)"/>
</clipPath>
<clipPath id="clip5_218_6016">
<rect width="30" height="30" fill="white" transform="translate(99 148.506) rotate(-18.473)"/>
</clipPath>
</defs>
</svg>
