<svg width="178" height="173" viewBox="0 0 178 173" fill="none" xmlns="http://www.w3.org/2000/svg">
<g clip-path="url(#clip0_218_6070)">
<path d="M167.183 39.6937L144.087 44.8829C142.385 45.2654 141.311 46.9615 141.694 48.6636L146.189 68.6726C146.572 70.3747 148.268 71.4485 149.97 71.0661L173.066 65.8769C174.768 65.4944 175.842 63.7982 175.46 62.0961L170.964 42.0872C170.581 40.3851 168.885 39.3112 167.183 39.6937ZM174.316 62.353C174.557 63.4247 173.881 64.4927 172.809 64.7335L149.713 69.9227C148.641 70.1635 147.573 69.4874 147.333 68.4157L142.837 48.4067C142.596 47.3351 143.272 46.2671 144.344 46.0263L167.44 40.837C168.512 40.5962 169.58 41.2724 169.821 42.344L174.316 62.353Z" fill="#394F6F"/>
<path d="M166.885 42.6433L145.618 47.4215C144.673 47.634 144.076 48.5762 144.289 49.5219L146.793 60.6698C147.006 61.6155 147.948 62.212 148.894 61.9995L163.186 58.7883C163.502 58.7174 163.7 58.404 163.629 58.0882C163.558 57.7724 163.245 57.574 162.929 57.645L160.658 58.1553L164.567 51.9802C164.74 51.707 164.659 51.345 164.385 51.1718C164.112 50.9986 163.75 51.08 163.577 51.3535L159.041 58.5186L148.637 60.8561C148.322 60.927 148.008 60.7282 147.937 60.4129L145.432 49.265C145.361 48.9497 145.56 48.6358 145.875 48.5649L167.142 43.7867C167.457 43.7158 167.771 43.9146 167.842 44.2299L170.347 55.3778C170.418 55.6931 170.219 56.0071 169.904 56.0779L167.712 56.5703C167.396 56.6412 167.198 56.9547 167.269 57.2704C167.34 57.5862 167.653 57.7846 167.969 57.7137L170.16 57.2213C171.106 57.0088 171.703 56.0666 171.49 55.1209L168.985 43.973C168.773 43.0273 167.831 42.4308 166.885 42.6433Z" fill="#394F6F"/>
<path d="M165.54 57.0583C165.39 57.0921 165.257 57.1863 165.174 57.3166C165.091 57.4468 165.063 57.6082 165.097 57.7585C165.131 57.9087 165.225 58.0427 165.355 58.125C165.486 58.2074 165.647 58.2355 165.797 58.2017C165.948 58.1679 166.081 58.0736 166.164 57.9434C166.246 57.8133 166.274 57.6518 166.241 57.5016C166.207 57.3513 166.112 57.2174 165.982 57.135C165.852 57.0526 165.691 57.0246 165.54 57.0583Z" fill="#394F6F"/>
<path d="M156.259 61.846C155.061 62.1151 154.306 63.3087 154.575 64.5065C154.844 65.7044 156.038 66.46 157.236 66.1908C158.433 65.9217 159.189 64.7282 158.92 63.5303C158.651 62.3325 157.457 61.5769 156.259 61.846ZM156.979 65.0474C156.411 65.1749 155.846 64.8171 155.718 64.2496C155.591 63.6822 155.949 63.1169 156.516 62.9894C157.084 62.8619 157.649 63.2198 157.776 63.7872C157.904 64.3547 157.546 64.92 156.979 65.0474Z" fill="#394F6F"/>
<path d="M163.437 60.2332C162.239 60.5024 161.484 61.6959 161.753 62.8937C162.022 64.0916 163.215 64.8472 164.413 64.578C165.611 64.3089 166.367 63.1154 166.098 61.9175C165.828 60.7197 164.635 59.9641 163.437 60.2332ZM164.156 63.4347C163.589 63.5621 163.024 63.2043 162.896 62.6368C162.769 62.0694 163.127 61.5041 163.694 61.3766C164.261 61.2491 164.827 61.607 164.954 62.1744C165.082 62.7419 164.724 63.3072 164.156 63.4347Z" fill="#394F6F"/>
<path d="M148.694 53.3953C148.52 53.6688 148.602 54.0308 148.875 54.2039C149.012 54.2905 149.171 54.3135 149.317 54.2806C149.463 54.2477 149.597 54.1591 149.684 54.0223C149.685 54.0209 149.687 54.0177 149.688 54.0155C149.859 53.7424 149.776 53.3841 149.503 53.2115C149.23 53.0384 148.867 53.1221 148.694 53.3953Z" fill="#394F6F"/>
<path d="M166.49 50.4219C166.637 50.389 166.77 50.3001 166.857 50.1636C167.03 49.8901 166.949 49.5281 166.675 49.3549C164.078 47.7106 160.973 47.0359 157.932 47.4545C154.928 47.8684 152.15 49.3202 150.111 51.5423C149.892 51.7808 149.908 52.1514 150.146 52.3702C150.384 52.589 150.755 52.5732 150.974 52.3348C154.853 48.1079 161.193 47.2711 166.049 50.3452C166.185 50.4315 166.344 50.4547 166.49 50.4219Z" fill="#394F6F"/>
<path d="M157.583 50.924C157.34 50.9787 157.158 51.1817 157.13 51.4297L156.686 55.3478C156.649 55.6694 156.881 55.9594 157.202 55.9961C157.524 56.0324 157.814 55.8013 157.85 55.4798L157.879 55.2306L159.159 54.943L159.291 55.1561C159.426 55.3739 159.681 55.4725 159.917 55.4193C159.98 55.4053 160.04 55.3808 160.098 55.3455C160.373 55.1748 160.458 54.8137 160.287 54.5386L158.21 51.187C158.078 50.9749 157.827 50.8693 157.583 50.924ZM158.018 53.998L158.104 53.2404L158.505 53.8884L158.018 53.998Z" fill="#394F6F"/>
</g>
<g clip-path="url(#clip1_218_6070)">
<path d="M60.327 141.591C60.633 141.359 60.8754 141.037 61.0082 140.647C61.3624 139.607 60.8048 138.473 59.7648 138.119C58.7251 137.765 57.5909 138.323 57.2367 139.362C57.1039 139.752 57.0993 140.155 57.2002 140.525C55.2426 140.572 53.4279 141.821 52.7606 143.78L49.6297 152.971C49.3098 153.91 49.8137 154.934 50.7527 155.254L53.043 156.034L52.6359 157.229C52.5315 157.536 52.6954 157.869 53.0016 157.973L53.2416 158.055C53.3391 158.088 53.3914 158.194 53.3582 158.292C53.3251 158.389 53.2188 158.441 53.1213 158.408L52.5805 158.224C52.2743 158.119 51.9413 158.283 51.8369 158.589C51.7638 158.804 51.8229 159.032 51.9698 159.185L51.8794 159.45L49.5499 158.656C49.2438 158.552 48.9107 158.716 48.8063 159.022L46.8414 164.79C46.737 165.097 46.9009 165.43 47.2071 165.534L52.9753 167.499C53.2817 167.603 53.6145 167.44 53.7189 167.133L55.6838 161.365C55.7882 161.059 55.6245 160.726 55.3181 160.621L52.9887 159.828L53.0712 159.585C53.6766 159.635 54.2629 159.27 54.4675 158.669C54.6721 158.069 54.4304 157.422 53.9208 157.091L54.1522 156.412L56.4425 157.192C57.3817 157.512 58.4059 157.008 58.7258 156.069L61.8567 146.878C62.5239 144.92 61.8493 142.822 60.327 141.591ZM51.7156 160.632L49.0492 161.943L49.7267 159.955L51.7156 160.632ZM50.3662 165.372L53.6271 163.768L52.7985 166.201L50.3662 165.372ZM54.1616 162.199L48.7973 164.838L48.1396 164.614L48.5148 163.512L53.2844 161.167L54.3856 161.542L54.1616 162.199ZM58.346 139.74C58.4918 139.312 58.9589 139.082 59.387 139.228C59.8151 139.374 60.0448 139.841 59.8989 140.269C59.7531 140.697 59.286 140.927 58.8579 140.781C58.4298 140.635 58.2001 140.168 58.346 139.74ZM56.8203 156.083L51.1305 154.145C50.8031 154.033 50.6274 153.676 50.739 153.349L53.8699 144.158C54.5158 142.262 56.5839 141.244 58.4801 141.89C60.2577 142.496 61.2627 144.351 60.8493 146.143L59.7801 145.779C59.4737 145.675 59.1409 145.838 59.0365 146.145C58.9321 146.451 59.0958 146.784 59.4022 146.888L60.4892 147.259L60.1113 148.368L59.0243 147.998C58.718 147.893 58.3851 148.057 58.2807 148.363C58.1764 148.67 58.3401 149.003 58.6464 149.107L59.7334 149.477L59.3555 150.587L58.2686 150.216C57.9622 150.112 57.6293 150.276 57.525 150.582C57.4206 150.888 57.5843 151.221 57.8907 151.326L58.9777 151.696L58.5998 152.805L57.5128 152.435C57.2065 152.33 56.8736 152.494 56.7692 152.801C56.6649 153.107 56.8286 153.44 57.1349 153.544L58.2219 153.914L57.6165 155.692C57.505 156.019 57.1477 156.195 56.8203 156.083Z" fill="#394F6F"/>
<path d="M58.2343 142.611C57.9282 142.507 57.5951 142.671 57.4907 142.977L53.9639 153.33C53.8595 153.637 54.0234 153.97 54.3296 154.074C54.6359 154.178 54.9688 154.015 55.0731 153.708L58.6 143.355C58.7044 143.049 58.5407 142.716 58.2343 142.611Z" fill="#394F6F"/>
<path d="M64.7052 162.99C64.6651 162.784 64.5176 162.615 64.3189 162.547L63.9877 162.434L64.238 161.699C64.3424 161.393 64.1787 161.06 63.8723 160.956C63.5662 160.852 63.2331 161.015 63.1287 161.322L62.6894 162.611C62.5941 162.891 62.7227 163.193 62.9794 163.323L60.9931 165.042L60.4695 162.468C60.7518 162.522 61.0381 162.361 61.1334 162.081L63.2794 155.781L64.8357 156.312L64.6152 156.959C64.5109 157.265 64.6746 157.598 64.9809 157.702C65.287 157.807 65.6201 157.643 65.7245 157.337L66.1339 156.135C66.2382 155.828 66.0743 155.495 65.7682 155.391L63.1027 154.483C62.7963 154.379 62.4634 154.543 62.3591 154.849L60.2131 161.149L59.8818 161.036C59.6831 160.968 59.4634 161.012 59.3059 161.15C59.1482 161.289 59.0768 161.501 59.1187 161.707L60.0446 166.258C60.0861 166.462 60.2329 166.628 60.4298 166.695C60.627 166.763 60.8448 166.72 61.0022 166.584L64.5134 163.545C64.6721 163.408 64.7453 163.196 64.7052 162.99Z" fill="#394F6F"/>
<path d="M64.6259 158.742C64.4799 158.693 64.3168 158.703 64.1784 158.771C64.0402 158.839 63.9321 158.962 63.8824 159.108C63.8327 159.254 63.8431 159.417 63.9113 159.555C63.9793 159.694 64.102 159.802 64.2481 159.852C64.3939 159.901 64.5573 159.891 64.6954 159.822C64.8339 159.755 64.942 159.632 64.9916 159.486C65.0414 159.34 65.0307 159.177 64.9625 159.038C64.8948 158.9 64.7717 158.792 64.6259 158.742Z" fill="#394F6F"/>
<path d="M48.5172 147.879L48.1859 147.767L50.3319 141.467C50.4363 141.16 50.2726 140.828 49.9662 140.723L47.3009 139.815C46.9946 139.711 46.6617 139.875 46.5573 140.181L44.4113 146.481L44.0801 146.368C43.8814 146.3 43.6616 146.344 43.5042 146.483C43.3464 146.621 43.2751 146.834 43.317 147.039L44.2428 151.59C44.2843 151.794 44.4311 151.961 44.6281 152.028C44.8252 152.095 45.0431 152.052 45.2004 151.916L48.7117 148.877C48.8705 148.74 48.9435 148.528 48.9035 148.322C48.8633 148.116 48.7158 147.947 48.5172 147.879ZM45.1913 150.374L44.6677 147.8C44.9501 147.854 45.2363 147.693 45.3317 147.413L47.4777 141.114L49.0339 141.644L46.8879 147.943C46.7925 148.223 46.921 148.526 47.1777 148.655L45.1913 150.374Z" fill="#394F6F"/>
</g>
<g clip-path="url(#clip2_218_6070)">
<path d="M109.729 149.238C109.884 149.238 110.035 149.176 110.144 149.067C110.253 148.958 110.315 148.807 110.315 148.652C110.315 148.498 110.253 148.347 110.144 148.238C110.035 148.129 109.884 148.067 109.729 148.067C109.575 148.067 109.424 148.129 109.315 148.238C109.206 148.347 109.144 148.498 109.144 148.652C109.144 148.807 109.206 148.958 109.315 149.067C109.424 149.176 109.575 149.238 109.729 149.238Z" fill="#394F6F"/>
<path d="M121.049 165.304C120.895 165.304 120.744 165.366 120.635 165.475C120.526 165.585 120.463 165.735 120.463 165.89C120.463 166.044 120.526 166.195 120.635 166.304C120.744 166.413 120.895 166.475 121.049 166.475C121.203 166.475 121.354 166.413 121.463 166.304C121.572 166.195 121.635 166.044 121.635 165.89C121.635 165.735 121.572 165.584 121.463 165.475C121.354 165.366 121.203 165.304 121.049 165.304Z" fill="#394F6F"/>
<path d="M123.217 148.994C125.045 147.827 127.169 147.201 129.39 147.201H129.414C129.738 147.201 130 146.939 130 146.615C130 146.291 129.738 146.029 129.414 146.029H129.39C127.89 146.029 126.423 146.291 125.022 146.807L129.828 142.001C130.057 141.772 130.057 141.401 129.828 141.172C129.599 140.943 129.228 140.943 128.999 141.172L124.193 145.978C124.709 144.577 124.971 143.11 124.971 141.61V141.586C124.971 141.262 124.708 141 124.385 141C124.061 141 123.799 141.262 123.799 141.586V141.61C123.799 143.831 123.173 145.955 122.006 147.783C122.166 146 121.557 144.171 120.208 142.822C119.033 141.647 117.471 141 115.809 141C114.148 141 112.585 141.647 111.41 142.822L101.822 152.41C100.647 153.585 100 155.148 100 156.809C100 158.471 100.647 160.033 101.822 161.208C103.029 162.416 104.624 163.031 106.226 163.031C106.412 163.031 106.598 163.022 106.784 163.005C104.956 164.173 102.831 164.799 100.61 164.799H100.586C100.262 164.799 100 165.061 100 165.385C100 165.708 100.262 165.971 100.586 165.971H100.61C102.11 165.971 103.577 165.709 104.978 165.193L100.172 169.999C99.9432 170.228 99.9432 170.599 100.172 170.828C100.287 170.942 100.436 171 100.586 171C100.736 171 100.886 170.942 101.001 170.828L105.807 166.022C105.291 167.423 105.029 168.89 105.029 170.39V170.414C105.029 170.738 105.292 171 105.615 171C105.939 171 106.201 170.738 106.201 170.414V170.39C106.201 168.169 106.827 166.043 107.996 164.215C107.835 165.999 108.444 167.83 109.792 169.178C111.004 170.391 112.597 170.997 114.191 170.997C115.784 170.997 117.377 170.391 118.59 169.178L120.024 167.743C120.253 167.515 120.253 167.144 120.024 166.915C119.795 166.686 119.424 166.686 119.195 166.915L117.761 168.349C115.792 170.318 112.589 170.318 110.62 168.349C109.43 167.159 108.949 165.505 109.21 163.942C109.379 164.96 109.859 165.925 110.622 166.687C111.575 167.641 112.842 168.166 114.191 168.166C115.539 168.166 116.806 167.641 117.759 166.687L125.687 158.76C127.655 156.792 127.655 153.59 125.687 151.622C124.925 150.859 123.957 150.378 122.935 150.21C124.5 149.947 126.156 150.427 127.349 151.62C129.318 153.589 129.318 156.792 127.349 158.761L122.159 163.951C121.93 164.18 121.93 164.551 122.159 164.78C122.274 164.894 122.424 164.951 122.573 164.951C122.723 164.951 122.873 164.894 122.988 164.78L128.178 159.59C130.603 157.164 130.603 153.217 128.178 150.792C126.829 149.443 125 148.834 123.217 148.994ZM116.307 154.693C115.345 153.732 115.345 152.167 116.307 151.205C116.773 150.739 117.392 150.483 118.051 150.483C118.71 150.483 119.329 150.739 119.795 151.205C120.261 151.671 120.517 152.29 120.517 152.949C120.517 153.608 120.261 154.227 119.795 154.693C119.329 155.159 118.71 155.416 118.051 155.416C117.392 155.416 116.773 155.159 116.307 154.693ZM118.051 149.311C117.079 149.311 116.165 149.689 115.478 150.377C114.201 151.654 114.074 153.653 115.098 155.074L114.074 156.097C113.459 155.653 112.723 155.412 111.949 155.412C110.977 155.412 110.064 155.791 109.376 156.478C108.689 157.165 108.311 158.079 108.311 159.051C108.311 159.232 108.324 159.412 108.35 159.588C107.99 159.455 107.663 159.245 107.385 158.967C106.874 158.456 106.593 157.778 106.593 157.057C106.593 156.335 106.874 155.657 107.385 155.146L114.146 148.385C114.657 147.874 115.335 147.593 116.057 147.593C116.778 147.593 117.457 147.874 117.967 148.385C118.244 148.662 118.454 148.99 118.588 149.35C118.412 149.324 118.232 149.311 118.051 149.311ZM110.205 160.795C109.739 160.329 109.483 159.71 109.483 159.051C109.483 158.392 109.739 157.773 110.205 157.307C110.671 156.841 111.29 156.584 111.949 156.584C112.608 156.584 113.227 156.841 113.693 157.307C114.159 157.772 114.416 158.392 114.416 159.051C114.416 159.709 114.159 160.329 113.693 160.795C113.228 161.261 112.608 161.517 111.949 161.517C111.29 161.517 110.671 161.261 110.205 160.795ZM111.949 162.689C112.921 162.689 113.835 162.311 114.522 161.623C115.799 160.346 115.926 158.347 114.902 156.926L115.926 155.902C116.558 156.358 117.304 156.586 118.051 156.586C118.982 156.586 119.914 156.231 120.624 155.522C121.311 154.835 121.689 153.921 121.689 152.949C121.689 152.768 121.676 152.588 121.65 152.412C122.01 152.546 122.338 152.756 122.616 153.033C123.126 153.544 123.407 154.222 123.407 154.943C123.407 155.665 123.126 156.343 122.616 156.854L115.854 163.615C115.343 164.126 114.665 164.407 113.943 164.407C113.222 164.407 112.543 164.126 112.033 163.615C111.754 163.337 111.545 163.01 111.412 162.65C111.588 162.676 111.768 162.689 111.949 162.689ZM102.651 160.38C100.682 158.411 100.682 155.208 102.651 153.239L112.239 143.651C113.193 142.697 114.461 142.172 115.809 142.172C117.158 142.172 118.426 142.697 119.38 143.651C120.572 144.843 121.053 146.499 120.79 148.063C120.622 147.042 120.141 146.076 119.378 145.313C118.425 144.359 117.157 143.834 115.809 143.834C114.461 143.834 113.194 144.359 112.24 145.313L110.806 146.747C110.577 146.976 110.577 147.347 110.806 147.576C111.035 147.805 111.406 147.805 111.635 147.576L113.069 146.141C113.801 145.409 114.774 145.006 115.809 145.006C116.845 145.006 117.818 145.409 118.55 146.141C119.304 146.896 119.699 147.908 119.685 148.936C119.493 148.421 119.192 147.952 118.795 147.556C117.285 146.046 114.828 146.046 113.318 147.556L106.556 154.318C105.046 155.828 105.046 158.285 106.556 159.795C106.955 160.194 107.423 160.494 107.937 160.685C106.909 160.7 105.896 160.305 105.141 159.55C104.409 158.818 104.006 157.845 104.006 156.809C104.006 155.774 104.409 154.801 105.141 154.069L108.734 150.476C108.963 150.248 108.963 149.876 108.734 149.648C108.505 149.419 108.134 149.419 107.905 149.648L104.313 153.24C103.359 154.194 102.834 155.461 102.834 156.809C102.834 158.157 103.359 159.425 104.313 160.378C105.076 161.142 106.042 161.621 107.061 161.789C105.497 162.052 103.842 161.571 102.651 160.38ZM125.994 155.191C125.994 156.226 125.591 157.199 124.859 157.931L116.931 165.859C116.199 166.591 115.226 166.994 114.191 166.994C113.155 166.994 112.182 166.591 111.45 165.859C110.695 165.104 110.3 164.091 110.315 163.063C110.506 163.577 110.806 164.045 111.205 164.444C111.96 165.199 112.952 165.577 113.943 165.577C114.935 165.577 115.927 165.199 116.682 164.444L123.444 157.682C124.954 156.172 124.954 153.715 123.444 152.205C123.048 151.808 122.579 151.508 122.064 151.315C123.092 151.302 124.105 151.697 124.859 152.451C125.591 153.182 125.994 154.155 125.994 155.191Z" fill="#394F6F"/>
<path d="M112.535 159.873V159.637H112.771C113.094 159.637 113.357 159.374 113.357 159.051C113.357 158.727 113.094 158.465 112.771 158.465H112.535V158.229C112.535 157.905 112.272 157.643 111.949 157.643C111.625 157.643 111.363 157.905 111.363 158.229V158.465H111.127C110.804 158.465 110.541 158.727 110.541 159.051C110.541 159.374 110.804 159.637 111.127 159.637H111.363V159.873C111.363 160.196 111.625 160.459 111.949 160.459C112.272 160.459 112.535 160.196 112.535 159.873Z" fill="#394F6F"/>
<path d="M119.458 152.949C119.458 152.626 119.196 152.363 118.872 152.363H117.229C116.905 152.363 116.643 152.626 116.643 152.949C116.643 153.273 116.905 153.535 117.229 153.535H118.872C119.196 153.535 119.458 153.273 119.458 152.949Z" fill="#394F6F"/>
</g>
<g clip-path="url(#clip3_218_6070)">
<path d="M31.0134 63.8396L29.3876 64.06L28.4588 57.2086C28.4153 56.8881 28.1201 56.6632 27.7994 56.7067L20.3674 57.7142C20.0467 57.7577 19.8221 58.0531 19.8655 58.3736L20.7944 65.225L19.1686 65.4454C18.8479 65.4889 18.6233 65.7842 18.6667 66.1047L18.9742 68.3726L18.5996 68.8671L17.9932 68.4032C17.8695 68.3084 17.7131 68.2671 17.5588 68.288C17.5586 68.288 17.5586 68.288 17.5584 68.288C17.4041 68.3089 17.2646 68.3902 17.1705 68.5143L16.706 69.1259L16.0922 68.6596C15.9686 68.5657 15.8129 68.5247 15.6591 68.5455C15.6584 68.5456 15.658 68.5457 15.6573 68.5458C15.5031 68.5671 15.3636 68.6489 15.2698 68.7734L15.2481 68.8022L14.9507 66.6085C14.9073 66.288 14.6121 66.0631 14.2914 66.1066L12.6656 66.327L11.7368 59.4756C11.6933 59.1551 11.3981 58.9302 11.0774 58.9737L3.6454 59.9813C3.3247 60.0248 3.10005 60.3202 3.14349 60.6406L4.07235 67.492L2.4466 67.7124C2.12589 67.7559 1.90124 68.0513 1.94469 68.3718L2.88929 75.3393C2.93277 75.66 3.22793 75.8847 3.54863 75.8412L4.60646 75.6978C4.98273 76.5667 5.90336 77.1185 6.88679 76.9851C7.87023 76.8518 8.61073 76.0749 8.74229 75.1371L10.1997 74.9395C10.5762 75.8084 11.4969 76.3601 12.4803 76.2268C13.4637 76.0935 14.2042 75.3166 14.3358 74.3787L15.3934 74.2354C15.7141 74.1919 15.9388 73.8967 15.8953 73.576L15.4718 70.4522L15.8516 69.9482L16.4641 70.4133C16.5875 70.5072 16.7434 70.5482 16.8972 70.5274L16.8979 70.5273C17.0518 70.5062 17.1912 70.4249 17.285 70.3011L17.7481 69.6911L18.355 70.1556C18.479 70.2503 18.6354 70.2917 18.7899 70.2708C18.9443 70.2498 19.0841 70.1681 19.1781 70.044L19.1973 70.0187L19.6113 73.0722C19.6548 73.3929 19.95 73.6176 20.2707 73.5741L21.3285 73.4307C21.7048 74.2997 22.6254 74.8514 23.6088 74.7181C24.5923 74.5848 25.3328 73.8078 25.4643 72.87L26.9218 72.6724C27.2983 73.5414 28.2189 74.0931 29.2023 73.9598C30.1858 73.8264 30.9263 73.0495 31.0578 72.1117L32.1154 71.9683C32.4361 71.9248 32.6608 71.6297 32.6173 71.309L31.6727 64.3415C31.6293 64.021 31.3341 63.7961 31.0134 63.8396ZM11.5044 66.4844L7.91287 66.9714L11.0175 62.893L11.5044 66.4844ZM7.4034 60.6544L4.79288 64.0838L4.38346 61.0638L7.4034 60.6544ZM5.01553 65.7261L9.04571 60.4318L10.6542 60.2137L10.7948 61.2506L6.27034 67.194L5.2336 67.3346L5.01553 65.7261ZM6.72936 75.8239C6.18525 75.8976 5.68228 75.515 5.60848 74.9706C5.53471 74.4265 5.91761 73.9235 6.46172 73.8497C7.00606 73.776 7.50884 74.1589 7.58261 74.703C7.6564 75.2473 7.2737 75.7501 6.72936 75.8239ZM12.3229 75.0656C11.7785 75.1393 11.2758 74.7566 11.202 74.2123C11.1282 73.6682 11.5109 73.1652 12.0552 73.0914C12.5993 73.0177 13.1024 73.4006 13.1761 73.9447C13.2499 74.489 12.867 74.9918 12.3229 75.0656ZM14.6553 73.1528L14.1781 73.2175C13.8019 72.3488 12.8812 71.7968 11.8978 71.9302C10.9144 72.0635 10.1739 72.8406 10.0423 73.7782L8.58485 73.9758C8.20839 73.1071 7.28773 72.5552 6.30429 72.6885C5.32086 72.8218 4.58061 73.5989 4.44903 74.5365L3.97183 74.6012L3.49952 71.1175L7.32689 70.5986C7.6476 70.5551 7.87228 70.2599 7.8288 69.9392C7.78535 69.6188 7.49016 69.3938 7.16946 69.4373L3.34209 69.9562L3.18466 68.795L13.8682 67.3466L14.6553 73.1528ZM28.2264 64.2174L24.6349 64.7043L27.7395 60.6259L28.2264 64.2174ZM24.1254 58.3874L21.5149 61.8167L21.1055 58.7968L24.1254 58.3874ZM21.7376 63.459L25.7677 58.1647L27.3762 57.9466L27.5168 58.9836L22.9924 64.927L21.9556 65.0675L21.7376 63.459ZM23.4514 73.5568C22.9073 73.6306 22.4043 73.2479 22.3305 72.7036C22.2567 72.1595 22.6396 71.6565 23.1838 71.5827C23.7281 71.5089 24.2309 71.8918 24.3046 72.436C24.3784 72.9803 23.9957 73.483 23.4514 73.5568ZM29.0449 72.7985C28.5006 72.8723 27.9978 72.4896 27.924 71.9453C27.8503 71.4012 28.2329 70.8982 28.7773 70.8244C29.3214 70.7506 29.8244 71.1335 29.8981 71.6776C29.9719 72.222 29.589 72.7247 29.0449 72.7985ZM31.3774 70.8858L30.9002 70.9505C30.5237 70.0818 29.6033 69.5298 28.6198 69.6631C27.6364 69.7965 26.8959 70.5736 26.7643 71.5112L25.3069 71.7088C24.9304 70.8401 24.0098 70.2881 23.0263 70.4215C22.0429 70.5548 21.3024 71.3319 21.1708 72.2695L20.6939 72.3342L20.2216 68.8504L24.0682 68.3289C24.3889 68.2854 24.6136 67.9903 24.5701 67.6696C24.5267 67.3491 24.2315 67.1242 23.9108 67.1677L20.0641 67.6892L19.9067 66.5279L30.5902 65.0795L31.3774 70.8858Z" fill="#394F6F"/>
<path d="M4.02964 55.8374L9.74337 55.0628L9.60655 55.2428C9.41046 55.5001 9.4603 55.8678 9.71786 56.0638C9.84664 56.1618 10.0029 56.1984 10.1514 56.1783C10.3 56.1581 10.4409 56.0813 10.5389 55.9525L11.5327 54.647C11.7285 54.3894 11.6787 54.0218 11.4214 53.8259L10.1159 52.8321C9.85833 52.6363 9.49091 52.6861 9.29482 52.9434C9.09876 53.201 9.1486 53.5686 9.40616 53.7647L9.58593 53.9015L3.87221 54.6761C3.55151 54.7196 3.32682 55.0148 3.3703 55.3355C3.41378 55.6562 3.70894 55.8809 4.02964 55.8374Z" fill="#394F6F"/>
<path d="M20.0821 54.6587C20.2109 54.7568 20.3672 54.7933 20.5157 54.7732C20.6643 54.753 20.8051 54.676 20.9032 54.5474C21.0992 54.2899 21.0494 53.9222 20.7918 53.7262L20.6121 53.5893L26.3258 52.8147C26.6465 52.7712 26.8712 52.476 26.8277 52.1553C26.7842 51.8346 26.489 51.61 26.1683 51.6534L20.4546 52.4281L20.5914 52.2481C20.7875 51.9907 20.7377 51.6231 20.4801 51.427C20.2226 51.231 19.8551 51.2808 19.6591 51.5383L18.6653 52.8439C18.4694 53.1012 18.5192 53.4688 18.7766 53.6649L20.0821 54.6587Z" fill="#394F6F"/>
<path d="M9.3609 69.1402C9.20758 69.1609 9.06676 69.2433 8.97347 69.3661C8.87947 69.4888 8.8383 69.6469 8.85899 69.7995C8.87971 69.9524 8.96147 70.0937 9.08475 70.187C9.20667 70.2804 9.36501 70.3222 9.51833 70.3014C9.67097 70.2807 9.81227 70.1985 9.90557 70.0757C9.99889 69.9531 10.041 69.7949 10.0202 69.6421C9.99955 69.4894 9.91711 69.3482 9.79429 69.2549C9.67166 69.1613 9.51354 69.1195 9.3609 69.1402Z" fill="#394F6F"/>
<path d="M26.0836 66.8731C25.93 66.8939 25.7894 66.9762 25.6961 67.0991C25.6021 67.2217 25.561 67.3798 25.5816 67.5324C25.6024 67.6853 25.6841 67.8266 25.8074 67.9199C25.93 68.0132 26.0881 68.055 26.241 68.0343C26.3936 68.0136 26.5345 67.9315 26.6282 67.8086C26.7215 67.686 26.7636 67.5278 26.7429 67.375C26.7222 67.2223 26.6398 67.0811 26.5169 66.9878C26.3943 66.8942 26.2362 66.8524 26.0836 66.8731Z" fill="#394F6F"/>
</g>
<g clip-path="url(#clip4_218_6070)">
<path d="M15.7771 125.677C15.6246 125.699 15.4842 125.783 15.3922 125.906C15.2999 126.03 15.2597 126.189 15.2819 126.341C15.3042 126.494 15.3881 126.634 15.5119 126.726C15.6354 126.818 15.794 126.859 15.9464 126.836C16.099 126.814 16.2394 126.73 16.3315 126.607C16.4236 126.483 16.4638 126.324 16.4415 126.172C16.4192 126.02 16.3356 125.879 16.2118 125.787C16.0882 125.695 15.9297 125.655 15.7771 125.677Z" fill="#394F6F"/>
<path d="M39.2172 122.336L28.9225 118.132L25.8094 114.191L37.7917 115.725C37.846 115.732 37.8995 115.731 37.9512 115.724C38.2048 115.687 38.4131 115.485 38.4473 115.218C38.4883 114.897 38.2616 114.604 37.9405 114.562L24.7711 112.877L19.2176 105.847C19.088 105.683 18.8802 105.6 18.6732 105.63C18.4662 105.66 18.2907 105.799 18.2134 105.993L15.0146 114.035L8.53127 112.01C8.22249 111.913 7.89374 112.085 7.79726 112.394C7.70079 112.703 7.87301 113.032 8.18178 113.128L14.58 115.127L9.92587 126.827C9.84856 127.022 9.88084 127.243 10.0105 127.407C10.1402 127.571 10.3477 127.654 10.555 127.624L13.6858 127.167C14.0058 127.12 14.2277 126.822 14.181 126.502C14.1342 126.182 13.8365 125.96 13.5165 126.007L11.3899 126.318L15.7055 115.469L28.2144 119.126L31.5681 123.371L17.9034 125.366C17.5832 125.413 17.3616 125.711 17.4083 126.031C17.4551 126.351 17.7525 126.573 18.0728 126.526L32.7414 124.384C32.9486 124.354 33.1239 124.215 33.2012 124.021C33.2787 123.826 33.2464 123.605 33.1165 123.441L30.3987 120L38.774 123.421C38.8746 123.462 38.9796 123.473 39.0797 123.459C39.2781 123.43 39.4566 123.299 39.5381 123.1C39.6604 122.801 39.5166 122.459 39.2172 122.336ZM26.9602 117.538L18.1017 114.948L24.2094 114.056L26.9602 117.538ZM18.9272 107.37L23.3706 112.995L16.2777 114.03L18.9272 107.37Z" fill="#394F6F"/>
</g>
<g clip-path="url(#clip5_218_6070)">
<path d="M177.707 126.621L160.672 116.787C162.944 116.366 164.671 114.371 164.671 111.979C164.671 109.283 162.477 107.089 159.781 107.089C157.084 107.089 154.891 109.283 154.891 111.979C154.891 112.551 154.99 113.1 155.171 113.61L148.879 109.978C148.698 109.873 148.474 109.873 148.293 109.978C148.112 110.082 148 110.276 148 110.485V127.129C148 127.453 148.262 127.715 148.586 127.715H177.414C177.679 127.715 177.911 127.537 177.98 127.28C178.049 127.024 177.937 126.754 177.707 126.621ZM159.781 108.261C161.831 108.261 163.499 109.929 163.499 111.979C163.499 114.03 161.831 115.698 159.781 115.698C157.73 115.698 156.063 114.03 156.063 111.979C156.063 109.929 157.73 108.261 159.781 108.261ZM149.172 126.543V111.5L175.227 126.543H149.172Z" fill="#394F6F"/>
<path d="M157.297 103.591L169.113 110.413L168.938 110.716C168.833 110.897 168.833 111.12 168.938 111.301C169.043 111.483 169.236 111.594 169.445 111.594H174.074C174.282 111.594 174.475 111.484 174.58 111.304C174.685 111.124 174.687 110.902 174.585 110.721L172.3 106.662C172.196 106.478 172.003 106.364 171.792 106.363C171.579 106.362 171.387 106.474 171.282 106.656L171.107 106.959L165.942 103.977C165.662 103.815 165.304 103.912 165.142 104.192C164.98 104.472 165.076 104.83 165.356 104.992L171.028 108.267C171.163 108.345 171.323 108.366 171.473 108.325C171.594 108.293 171.701 108.222 171.779 108.125L173.072 110.423H170.454C170.503 110.304 170.513 110.172 170.479 110.046C170.439 109.896 170.341 109.768 170.206 109.691L158.39 102.869L159.212 101.445L161.75 102.91C162.03 103.072 162.388 102.976 162.55 102.696C162.712 102.415 162.616 102.057 162.336 101.895L159.291 100.137C159.011 99.9755 158.652 100.071 158.49 100.352L157.082 102.79C157.005 102.925 156.984 103.085 157.024 103.235C157.064 103.385 157.162 103.513 157.297 103.591Z" fill="#394F6F"/>
<path d="M163.989 104.113C164.143 104.113 164.294 104.05 164.404 103.941C164.512 103.832 164.575 103.681 164.575 103.527C164.575 103.372 164.512 103.222 164.404 103.113C164.294 103.003 164.143 102.941 163.989 102.941C163.835 102.941 163.684 103.003 163.575 103.113C163.466 103.222 163.403 103.372 163.403 103.527C163.403 103.681 163.466 103.832 163.575 103.941C163.684 104.05 163.835 104.113 163.989 104.113Z" fill="#394F6F"/>
<path d="M152.111 116.5L156.322 118.932C156.415 118.985 156.516 119.01 156.615 119.01C156.817 119.01 157.014 118.905 157.123 118.717C157.285 118.437 157.189 118.078 156.908 117.917L152.697 115.485C152.417 115.324 152.059 115.42 151.897 115.7C151.735 115.98 151.831 116.339 152.111 116.5Z" fill="#394F6F"/>
<path d="M158.816 120.28C158.969 120.28 159.122 120.22 159.237 120.101C159.462 119.868 159.455 119.497 159.222 119.272L159.218 119.268C158.986 119.044 158.617 119.052 158.392 119.285C158.167 119.518 158.176 119.891 158.409 120.116C158.522 120.225 158.669 120.28 158.816 120.28Z" fill="#394F6F"/>
</g>
<g clip-path="url(#clip6_218_6070)">
<path d="M57.9977 15.6258C56.6543 15.8179 55.7178 17.0669 55.9099 18.4103C56.102 19.7537 57.351 20.6902 58.6944 20.4981C60.0378 20.306 60.9743 19.0569 60.7822 17.7135C60.5901 16.3702 59.3408 15.4337 57.9977 15.6258ZM58.5285 19.338C57.8248 19.4386 57.1706 18.9481 57.07 18.2444C56.9693 17.5406 57.4598 16.8865 58.1636 16.7858C58.8671 16.6852 59.5215 17.1757 59.6221 17.8794C59.7228 18.5832 59.232 19.2374 58.5285 19.338Z" fill="#394F6F"/>
<path d="M70.1794 12.3053C69.8691 12.2134 69.543 12.3903 69.4509 12.7005L69.4394 12.7394C69.3452 13.0491 69.5198 13.3764 69.8295 13.4704C69.9143 13.4962 70.0002 13.5017 70.0824 13.49C70.3008 13.4587 70.4923 13.3051 70.5605 13.0801L70.5746 13.0335C70.6666 12.7232 70.4896 12.3971 70.1794 12.3053Z" fill="#394F6F"/>
<path d="M69.8224 17.4423C69.5222 17.1444 69.201 16.8496 68.8618 16.5586C69.1354 16.1387 69.3854 15.7205 69.6096 15.3058C69.7635 15.0212 69.6574 14.6655 69.3728 14.5117C69.0881 14.3578 68.7324 14.4639 68.5787 14.7485C68.3876 15.1021 68.1757 15.4586 67.946 15.817C66.8442 14.9734 65.5896 14.173 64.224 13.4413C63.8364 11.9456 63.3557 10.5357 62.8012 9.26936C63.1578 9.1467 63.5094 9.03793 63.855 8.94388C66.4275 8.244 68.3838 8.45464 69.2221 9.52227C69.4878 9.86091 69.6464 10.2877 69.6934 10.7908C69.7235 11.1132 70.0089 11.3498 70.3311 11.3199C70.6535 11.29 70.8904 11.0044 70.8603 10.6822C70.792 9.95094 70.5511 9.31719 70.1437 8.79857C68.9838 7.32123 66.6411 6.97139 63.5474 7.81309C63.1386 7.92449 62.722 8.05551 62.2998 8.20398C62.0528 7.71561 61.7943 7.25455 61.5255 6.82502C61.8689 6.37799 62.0395 5.79892 61.9537 5.19827C61.7844 4.01486 60.684 3.1898 59.5006 3.35903C59.1567 3.40821 58.8432 3.5365 58.5754 3.72208C57.7886 3.27391 56.9983 3.10208 56.2225 3.21302C54.3632 3.4789 52.8889 5.3327 52.0709 8.43274C51.963 8.84193 51.8682 9.26772 51.7856 9.70704C51.3394 9.68299 50.9032 9.67392 50.4801 9.68172C47.2744 9.74059 45.1239 10.7332 44.4246 12.4764C43.7252 14.2196 44.5934 16.4233 46.8693 18.6816C47.17 18.9801 47.4918 19.2754 47.8315 19.5669C47.5323 20.0245 47.2625 20.4785 47.0252 20.9259C47.0164 20.9246 47.0081 20.923 46.9994 20.9222C46.4245 20.8529 45.8569 21.0118 45.4015 21.3694C44.946 21.727 44.6572 22.2407 44.5879 22.8154C44.5187 23.3904 44.6775 23.958 45.0351 24.4134C45.2463 24.6822 45.512 24.8925 45.8122 25.0343C45.8177 25.9392 46.0642 26.7092 46.5479 27.3254C47.4919 28.5277 49.2192 28.9833 51.4972 28.6576C52.0181 28.5831 52.5683 28.4676 53.1443 28.3108C53.5526 28.1997 53.9686 28.0688 54.3904 27.9206C54.5926 28.3192 54.8029 28.7014 55.0212 29.0639C56.6752 31.8105 58.61 33.1768 60.4692 32.9109C62.3285 32.645 63.8028 30.7912 64.6208 27.6912C64.7289 27.2813 64.8237 26.855 64.9063 26.415C65.4526 26.4456 65.9809 26.4521 66.4874 26.434C66.7028 26.9551 67.1191 27.3924 67.6822 27.6185C68.0404 27.7622 68.4211 27.8071 68.7932 27.7539C68.9794 27.7273 69.1637 27.676 69.3413 27.6C69.8738 27.3724 70.286 26.9511 70.5016 26.4137C70.6289 26.0963 70.6781 25.7612 70.6509 25.4303C71.4317 24.973 71.9753 24.3746 72.2671 23.6475C72.9665 21.9043 72.0981 19.7007 69.8224 17.4423ZM67.2832 16.7842C66.6776 17.6148 65.9778 18.4483 65.1985 19.2684C65.1416 18.5586 65.0617 17.8398 64.9583 17.1164C64.8551 16.395 64.7292 15.6824 64.5836 14.9829C65.5618 15.552 66.4683 16.1562 67.2832 16.7842ZM61.7472 22.394C60.9178 23.0451 60.0733 23.647 59.226 24.1926C58.2542 23.906 57.2714 23.5656 56.2949 23.1737C55.315 22.7806 54.3704 22.3495 53.4732 21.888C53.2376 20.9066 53.0429 19.8866 52.8935 18.8416C52.7442 17.7978 52.6454 16.7655 52.5962 15.7589C53.3304 15.0606 54.1167 14.3799 54.9445 13.7299C55.7747 13.078 56.6205 12.4755 57.4689 11.9292C58.4363 12.2158 59.4169 12.5572 60.3968 12.9503C61.3752 13.3428 62.3189 13.7734 63.2151 14.2344C63.4526 15.2194 63.6492 16.2407 63.7982 17.2823C63.9477 18.3275 64.0465 19.3612 64.0956 20.3692C63.364 21.0629 62.5783 21.7415 61.7472 22.394ZM64.1311 21.9273C64.1275 23.0568 64.0575 24.142 63.9215 25.1598C62.9032 25.0497 61.8312 24.8601 60.7322 24.5962C61.3169 24.1931 61.8979 23.7657 62.4709 23.3157C63.0457 22.8642 63.5999 22.4005 64.1311 21.9273ZM57.8934 25.0035C56.9115 25.5662 55.935 26.0491 54.9841 26.4408C54.5676 25.5011 54.1961 24.4779 53.8755 23.3936C54.5185 23.6991 55.1806 23.9892 55.8585 24.2613C56.5348 24.5326 57.215 24.7801 57.8934 25.0035ZM52.1058 21.1397C51.1294 20.5716 50.2244 19.9685 49.4111 19.3417C50.0156 18.5149 50.7156 17.6814 51.4936 16.8615C51.5504 17.5695 51.6303 18.2861 51.7334 19.0075C51.8368 19.7305 51.9613 20.4427 52.1058 21.1397ZM52.5605 14.1994C52.564 13.0678 52.634 11.9806 52.7705 10.9611C53.7924 11.0705 54.8641 11.2601 55.9634 11.5248C55.3773 11.9287 54.7951 12.3571 54.2207 12.8082C53.6474 13.2583 53.0932 13.7237 52.5605 14.1994ZM62.8115 12.7282C62.17 12.4234 61.5094 12.1341 60.8332 11.8627C60.1552 11.5906 59.4763 11.3427 58.8006 11.1191C59.7807 10.5577 60.7554 10.0754 61.7048 9.68442C62.1185 10.6213 62.4905 11.6444 62.8115 12.7282ZM60.7936 5.36416C60.8713 5.90772 60.4923 6.41347 59.9485 6.49123C59.4047 6.56899 58.8992 6.18973 58.8215 5.64617C58.7437 5.10239 59.1227 4.59686 59.6665 4.5191C60.2103 4.44134 60.7158 4.82037 60.7936 5.36416ZM53.2041 8.73173C53.884 6.15385 55.0447 4.56523 56.3883 4.37309C56.8449 4.3078 57.3246 4.39944 57.8182 4.64515C57.6639 5.00038 57.6026 5.40105 57.6613 5.81184C57.8306 6.99525 58.931 7.8203 60.1144 7.65107C60.2782 7.62765 60.4348 7.58584 60.5832 7.52901C60.7962 7.87426 61.0023 8.24016 61.2008 8.62587C59.9208 9.15758 58.602 9.84304 57.2872 10.6586C55.796 10.2441 54.3375 9.95576 52.9595 9.80415C53.0313 9.43503 53.1129 9.07725 53.2041 8.73173ZM47.6946 17.8499C45.8023 15.9718 45.0067 14.1726 45.5121 12.9128C46.0175 11.653 47.8362 10.9026 50.5017 10.8534C50.8589 10.8469 51.226 10.8527 51.6015 10.8705C51.4218 12.2464 51.3559 13.7333 51.405 15.2818C50.3034 16.3654 49.3229 17.4864 48.5034 18.5999C48.219 18.3522 47.949 18.102 47.6946 17.8499ZM45.7513 22.9554C45.7831 22.6915 45.9158 22.4554 46.1252 22.2911C46.2646 22.1817 46.4268 22.1127 46.5976 22.0883C46.6833 22.076 46.7712 22.075 46.8594 22.0855C47.1234 22.1174 47.3595 22.2501 47.5238 22.4594C47.688 22.6685 47.7611 22.9293 47.7293 23.1935C47.6975 23.4577 47.5648 23.6935 47.3555 23.858C47.1461 24.0223 46.8853 24.0952 46.6214 24.0633C46.3572 24.0318 46.1211 23.8988 45.9568 23.6897C45.7926 23.4804 45.7194 23.2196 45.7513 22.9554ZM52.8364 27.1801C50.264 27.88 48.3078 27.6691 47.4696 26.6017C47.1849 26.2389 47.0245 25.7779 46.9902 25.2277C47.0104 25.2255 47.0308 25.224 47.051 25.2211C47.4228 25.1679 47.7759 25.0178 48.0792 24.7797C48.5346 24.4221 48.8237 23.9084 48.8927 23.3335C48.9619 22.7587 48.8031 22.1912 48.4455 21.7357C48.3442 21.6066 48.23 21.4914 48.1057 21.3903C48.2979 21.0336 48.5119 20.6721 48.7464 20.3075C49.8468 21.1501 51.0998 21.9497 52.4637 22.6804C52.8501 24.1791 53.3297 25.5863 53.8873 26.8555C53.5319 26.9777 53.1812 27.0862 52.8364 27.1801ZM63.4876 27.3922C62.8075 29.9701 61.647 31.5587 60.3034 31.7508C58.9598 31.943 57.4005 30.7433 56.0251 28.4593C55.8408 28.1532 55.6622 27.8326 55.4898 27.4984C56.7714 26.9663 58.0919 26.2799 59.4083 25.4627C60.8976 25.8752 62.3585 26.1639 63.7327 26.3169C63.6606 26.687 63.5789 27.0457 63.4876 27.3922ZM69.414 25.9773C69.2094 26.487 68.6283 26.7352 68.1186 26.5309C67.6089 26.3263 67.3605 25.7452 67.5651 25.2355C67.7023 24.8933 68.0091 24.6689 68.3501 24.6201C68.5173 24.5962 68.6927 24.6146 68.8604 24.6817C69.1074 24.781 69.301 24.9702 69.4055 25.2149C69.5101 25.4595 69.513 25.7303 69.414 25.9773ZM71.1796 23.2111C71.0079 23.6389 70.6889 24.0082 70.2299 24.3129C69.9937 23.9941 69.6741 23.7457 69.2968 23.5944C68.1874 23.1491 66.9225 23.6895 66.4774 24.7989C66.4159 24.9524 66.3738 25.109 66.3488 25.2658C65.9434 25.2778 65.5233 25.2734 65.0903 25.2523C65.2695 23.8782 65.3356 22.3937 65.2865 20.8477C66.3922 19.7631 67.3709 18.6442 68.191 17.5265C68.4743 17.7731 68.7435 18.0225 68.9968 18.2741C70.8894 20.1521 71.6847 21.9514 71.1796 23.2111Z" fill="#394F6F"/>
</g>
<g clip-path="url(#clip7_218_6070)">
<path d="M116.544 3.28511C116.693 3.32338 116.855 3.30017 116.988 3.22171C117.12 3.14325 117.219 3.01235 117.257 2.86314C117.295 2.71393 117.272 2.5518 117.194 2.41915C117.115 2.28654 116.984 2.18826 116.835 2.14999C116.685 2.11154 116.523 2.1347 116.391 2.21333C116.258 2.29162 116.16 2.42275 116.122 2.57196C116.084 2.72116 116.106 2.88312 116.185 3.01589C116.264 3.1485 116.394 3.24666 116.544 3.28511Z" fill="#394F6F"/>
<path d="M136.946 7.30873L119.408 2.80993C119.095 2.72951 118.775 2.91841 118.695 3.2319C118.614 3.54539 118.803 3.86464 119.117 3.94505L136.087 8.29826L130.38 30.5467L103.591 23.6747L109.298 1.42631L113.971 2.625C114.284 2.70541 114.604 2.51652 114.684 2.20303C114.764 1.88954 114.576 1.57029 114.262 1.48987L109.022 0.145592C108.708 0.0651753 108.389 0.254072 108.309 0.567561L102.31 23.9511C102.23 24.2646 102.419 24.5838 102.732 24.6642L130.656 31.8274C130.97 31.9078 131.289 31.7189 131.369 31.4054L137.368 8.02188C137.448 7.70839 137.259 7.38915 136.946 7.30873Z" fill="#394F6F"/>
<path d="M109.996 3.42022L105.162 22.2633C105.082 22.5767 105.271 22.896 105.584 22.9764L128.968 28.9748C129.281 29.0552 129.601 28.8663 129.681 28.5528L134.515 9.70981C134.595 9.39632 134.406 9.07707 134.093 8.99665L110.709 2.99825C110.396 2.91784 110.076 3.10673 109.996 3.42022ZM115.524 24.3164L115.873 22.9542L126.317 25.6331L125.967 26.9952L115.524 24.3164ZM110.986 4.27897L133.234 9.98618L128.691 27.6941L127.102 27.2864L127.471 25.8509C127.621 25.2656 127.266 24.6669 126.681 24.5168L116.091 21.8003C115.506 21.6501 114.907 22.0041 114.757 22.5896L114.389 24.0252L106.443 21.9869L110.986 4.27897Z" fill="#394F6F"/>
<path d="M114.907 15.3262L116.582 15.7557C116.895 15.8361 117.214 15.6473 117.295 15.3338C117.375 15.0203 117.186 14.701 116.873 14.6206L115.198 14.1911C114.885 14.1107 114.566 14.2996 114.485 14.6131C114.405 14.9266 114.594 15.2458 114.907 15.3262Z" fill="#394F6F"/>
<path d="M115.999 18.026C116.312 18.1064 116.631 17.9175 116.712 17.604C116.792 17.2905 116.603 16.9712 116.29 16.8909L114.615 16.4614C114.302 16.381 113.983 16.5699 113.902 16.8834C113.822 17.1968 114.011 17.5161 114.324 17.5965L115.999 18.026Z" fill="#394F6F"/>
<path d="M118.443 18.5834C118.757 18.6639 119.076 18.4747 119.157 18.1615L119.655 16.2176C119.75 15.8498 120.126 15.6275 120.493 15.7218C120.861 15.8161 121.083 16.1919 120.989 16.5597L120.49 18.5036C120.41 18.8169 120.599 19.1364 120.912 19.2168C121.226 19.2972 121.545 19.1081 121.626 18.7948L122.124 16.8509C122.219 16.4831 122.595 16.2608 122.962 16.3551C123.33 16.4494 123.552 16.8252 123.458 17.193L122.959 19.1369C122.879 19.4502 123.068 19.7697 123.381 19.8501C123.695 19.9305 124.014 19.7414 124.094 19.4281L124.593 17.4842C124.848 16.4906 124.247 15.4749 123.253 15.22C122.776 15.0975 122.294 15.173 121.893 15.3942C121.648 15.0074 121.262 14.7091 120.784 14.5866C119.791 14.3317 118.775 14.9327 118.52 15.9264L118.022 17.8703C117.941 18.1836 118.13 18.5031 118.443 18.5834Z" fill="#394F6F"/>
<path d="M126.52 20.6552L127.619 20.9372C127.933 21.0177 128.252 20.8285 128.332 20.5153L129.085 17.5815C129.232 17.0084 128.885 16.4227 128.312 16.2757L127.292 16.014C126.979 15.9336 126.659 16.1225 126.579 16.436C126.498 16.7492 126.687 17.0687 127.001 17.1491L127.925 17.3863L127.788 17.923L127.255 17.7865C126.465 17.5836 125.656 18.062 125.453 18.8528C125.25 19.6436 125.729 20.4522 126.52 20.6552ZM126.964 18.9217L127.496 19.0581L127.343 19.6565L126.811 19.52C126.646 19.4777 126.546 19.3089 126.588 19.144C126.631 18.979 126.799 18.8793 126.964 18.9217Z" fill="#394F6F"/>
<path d="M114.285 10.9926L111.74 10.3399C111.427 10.2595 111.108 10.4484 111.027 10.7619L109.746 15.7564C109.666 16.0699 109.855 16.3892 110.168 16.4696C110.481 16.5499 110.801 16.3611 110.881 16.0476L111.376 14.1179L112.502 14.4067C112.815 14.4871 113.135 14.2982 113.215 13.9847C113.295 13.6712 113.106 13.3519 112.793 13.2715L111.667 12.9828L112.017 11.6206L113.994 12.1278C114.307 12.2082 114.626 12.0193 114.707 11.7058C114.787 11.3923 114.598 11.0731 114.285 10.9926Z" fill="#394F6F"/>
</g>
<defs>
<clipPath id="clip0_218_6070">
<rect width="30" height="30" fill="white" transform="translate(141 45.5765) rotate(-12.663)"/>
</clipPath>
<clipPath id="clip1_218_6070">
<rect width="30" height="30" fill="white" transform="translate(47.6738 134) rotate(18.8115)"/>
</clipPath>
<clipPath id="clip2_218_6070">
<rect width="30" height="30" fill="white" transform="translate(100 141)"/>
</clipPath>
<clipPath id="clip3_218_6070">
<rect width="30" height="30" fill="white" transform="translate(0 54.0303) rotate(-7.72064)"/>
</clipPath>
<clipPath id="clip4_218_6070">
<rect width="30" height="30" fill="white" transform="translate(7 107.335) rotate(-8.30766)"/>
</clipPath>
<clipPath id="clip5_218_6070">
<rect width="30" height="30" fill="white" transform="translate(148 100)"/>
</clipPath>
<clipPath id="clip6_218_6070">
<rect width="30" height="30" fill="white" transform="translate(42 5.24683) rotate(-8.13812)"/>
</clipPath>
<clipPath id="clip7_218_6070">
<rect width="30" height="30" fill="white" transform="translate(108.454) rotate(14.3874)"/>
</clipPath>
</defs>
</svg>
