<svg width="100" height="100" viewBox="0 0 100 100" fill="none" xmlns="http://www.w3.org/2000/svg">
<g clip-path="url(#clip0_218_6129)">
<path d="M50 100C77.6142 100 100 77.6142 100 50C100 22.3858 77.6142 0 50 0C22.3858 0 0 22.3858 0 50C0 77.6142 22.3858 100 50 100Z" fill="url(#paint0_linear_218_6129)"/>
<path d="M55.3169 23.899C57.5656 21.6504 60.5405 20.27 63.7103 20.0149C72.4167 19.3139 80.2922 17.9614 86.7791 16.132C77.6422 6.21471 64.5479 0 50.0003 0C39.5652 0 29.8777 3.19765 21.8622 8.66588C16.8881 12.0592 16.2346 19.1451 20.4922 23.4029C22.6112 25.522 26.0469 25.522 28.166 23.4029C30.2752 21.2937 33.6911 21.2825 35.8142 23.3776C36.0065 23.5675 36.203 23.7614 36.4026 23.9584C41.652 29.1414 50.1007 29.1153 55.3169 23.899Z" fill="url(#paint1_linear_218_6129)"/>
<path d="M50 36.42C50 38.9034 52.0492 40.8926 54.5318 40.8308C67.9861 40.4959 80.5406 38.6732 90.2761 35.6139C92.4929 34.9173 94.8175 34.0712 97.0535 33.0571C96.0496 30.2694 94.8069 27.5961 93.3467 25.0634C91.7759 25.7669 89.8904 26.4861 87.631 27.1961C78.651 30.0179 66.9426 31.7 54.2945 32.0108C51.9047 32.0698 50 34.0294 50 36.42Z" fill="url(#paint2_linear_218_6129)"/>
<path d="M50 0C48.6794 0 47.3712 0.0521569 46.0765 0.152549C51.5571 0.578039 56.7898 1.88706 61.6322 3.93745C78.3084 10.9986 73.6427 35.8202 55.542 36.3886C53.7194 36.4459 51.8706 36.4751 49.9998 36.4751C31.1745 36.4751 14.5588 33.5071 4.62353 28.9796C1.65824 35.3706 0 42.4912 0 50V50.0898C0.00901961 55.1776 1.93451 60.0759 5.33275 63.8624L6.63549 65.3137C8.79255 67.7171 12.2276 68.3961 15.2035 67.1414C17.7229 66.0792 20.6184 66.4624 22.7739 68.1396C26.8751 71.3308 32.1975 72.4929 37.1908 71.0545L42.1026 69.6394C45.0127 68.801 48.1343 69.6292 50.2829 71.7637C51.8365 73.3073 53.9378 74.1739 56.1286 74.1739H59.898C63.7545 74.1739 67.4241 72.6059 70.1645 69.8923C72.2445 67.8326 74.9022 66.4533 77.7847 65.9367C78.738 65.7659 79.6649 65.5927 80.3541 65.4494C84.9167 64.5004 88.5369 69.2737 86.3539 73.391C86.3259 73.4439 86.2976 73.4969 86.2694 73.5496C85.5267 74.9378 84.2306 75.9475 82.7014 76.322C76.6547 77.8026 69.702 78.8406 62.2539 79.3831C59.1998 79.6057 56.1292 79.3367 53.1547 78.6086C50.2837 77.9061 47.3235 77.6382 44.3731 77.8143L33.5045 78.4627C31.4135 78.5875 29.3337 78.0771 27.538 76.9984C26.8006 76.5553 25.9847 76.0651 25.1824 75.5831C22.4104 73.9176 19.0206 73.6386 16.0135 74.8284C14.8557 75.2865 13.5755 75.3329 12.3875 74.9598L12.3688 74.9539C9.33275 73.9998 6.97 73.0288 5.14196 72.1022C7.40941 76.6953 10.359 80.891 13.8625 84.5539C24.0706 87.2037 36.7088 88.6451 50 88.6451C50.0925 88.6451 50.1851 88.6451 50.2776 88.6449C56.7529 88.6357 57.6018 98.0078 51.2327 99.1767C49.5422 99.4869 47.822 99.712 46.0765 99.8475C47.3712 99.9478 48.6794 100 50 100C77.6143 100 100 77.6143 100 50C100 22.3857 77.6143 0 50 0V0Z" fill="url(#paint3_linear_218_6129)"/>
<path d="M90.5758 79.2184C80.5068 82.6623 66.0568 84.8215 50.0005 84.8215C33.945 84.8215 19.4958 82.6627 9.42676 79.219C10.7826 81.0994 12.2644 82.8829 13.863 84.5543C24.0711 87.2037 36.7093 88.645 50.0005 88.645C50.0928 88.645 50.1852 88.645 50.2775 88.6449C56.7252 88.635 57.6383 97.9925 51.2981 99.1647C49.5868 99.4811 47.8448 99.7101 46.077 99.8474C47.3717 99.9478 48.6799 100 50.0005 100C66.7062 100 81.496 91.8052 90.5758 79.2184Z" fill="url(#paint4_linear_218_6129)"/>
<path d="M99.9998 50C99.9998 52.4432 99.8213 54.8432 99.4821 57.1922C97.8939 57.8157 96.2998 58.3706 94.7527 58.8589C82.7292 62.6373 66.8351 64.7177 49.9998 64.7177C46.537 64.7177 43.1154 64.6294 39.7605 64.4549C37.4743 64.3373 35.686 62.4412 35.686 60.153C35.686 57.953 34.0292 56.104 31.8429 55.8706C23.6252 54.9981 16.0743 53.5294 9.72329 51.5334C6.53113 50.5294 3.11544 49.2177 0.0625 47.5392C0.223284 44.253 0.697794 41.0491 1.4625 37.9608C2.43897 38.7492 5.45525 40.2424 7.4823 41.2069C8.77348 41.8212 9.89368 42.7418 10.7486 43.8881L11.0925 44.3492C13.3011 47.3104 17.1249 48.5757 20.6637 47.5163C22.9792 46.8232 25.4821 47.1814 27.5101 48.4961L28.388 49.0651C30.4952 50.4312 33.2311 50.3379 35.2401 48.831C36.3841 47.9732 37.796 47.5563 39.2231 47.6467C42.727 47.8687 46.3339 47.9824 49.9998 47.9824C64.2782 47.9824 77.6429 46.2549 87.6311 43.1157C93.3409 41.3216 96.6723 39.4667 98.537 37.9608C99.2998 41.0491 99.7802 44.251 99.939 47.5373C99.9782 48.353 99.9998 49.1745 99.9998 50Z" fill="url(#paint5_linear_218_6129)"/>
<path d="M74.1199 50.2165C66.7588 51.3863 58.5425 52.0059 49.9999 52.0059C49.2397 52.0059 48.4821 52.001 47.7276 51.9914C45.2729 51.96 43.2686 53.9441 43.2686 56.399V56.4043C43.2686 58.8204 45.2127 60.7829 47.6286 60.8141C48.4162 60.8243 49.2068 60.8294 49.9999 60.8294C58.9774 60.8294 67.658 60.1708 75.4927 58.9274C77.6364 58.5872 79.2156 56.7416 79.2156 54.5708C79.2156 51.8616 76.7958 49.7912 74.1199 50.2165Z" fill="url(#paint6_linear_218_6129)"/>
<path d="M89.0884 46.6608C88.6209 46.8198 88.1356 46.9788 87.6315 47.1373C87.2956 47.2425 86.9558 47.3465 86.6123 47.4488C84.7433 48.0055 83.4609 49.7237 83.4609 51.6739V51.679C83.4609 54.6269 86.3002 56.7475 89.1254 55.9069C89.5135 55.7914 89.8972 55.6741 90.2766 55.5549C90.8241 55.3833 91.3778 55.2024 91.9349 55.0122C93.7133 54.4047 94.9021 52.7239 94.9021 50.8447V50.84C94.9021 47.8259 91.9417 45.6896 89.0884 46.6608Z" fill="url(#paint7_linear_218_6129)"/>
<path d="M87.6316 27.1962C81.8512 29.0127 74.939 30.3558 67.3747 31.166C64.588 34.185 60.5869 36.2303 55.5398 36.389C53.7186 36.4462 51.8712 36.4754 50.002 36.4754C50.0321 38.9329 52.0684 40.8923 54.5323 40.8309C67.9867 40.496 80.5412 38.6733 90.2767 35.6141C92.4935 34.9174 94.818 34.0713 97.0541 33.0572C96.0502 30.2696 94.8074 27.5962 93.3472 25.0635C91.7763 25.7668 89.8908 26.4862 87.6316 27.1962Z" fill="url(#paint8_linear_218_6129)"/>
<path d="M46.0811 0.152941C51.5589 0.578627 56.7891 1.88706 61.6293 3.93627C68.6371 6.90294 71.8752 13.0061 71.9328 19.128C77.3983 18.3816 82.405 17.3655 86.7791 16.132C77.6422 6.21471 64.5479 0 50.0003 0C48.6813 0 47.3744 0.0527451 46.0811 0.152941Z" fill="url(#paint9_linear_218_6129)"/>
</g>
<defs>
<linearGradient id="paint0_linear_218_6129" x1="-1.61961" y1="50" x2="99.6347" y2="50" gradientUnits="userSpaceOnUse">
<stop stop-color="#60B7FF"/>
<stop offset="0.5857" stop-color="#0182FC"/>
<stop offset="1" stop-color="#2740B0"/>
</linearGradient>
<linearGradient id="paint1_linear_218_6129" x1="-19.4115" y1="13.9143" x2="94.7666" y2="13.9143" gradientUnits="userSpaceOnUse">
<stop stop-color="#60B7FF"/>
<stop offset="0.5857" stop-color="#0182FC"/>
<stop offset="1" stop-color="#2740B0"/>
</linearGradient>
<linearGradient id="paint2_linear_218_6129" x1="30.7843" y1="32.9479" x2="88.2382" y2="32.9479" gradientUnits="userSpaceOnUse">
<stop stop-color="#60B7FF"/>
<stop offset="0.5857" stop-color="#0182FC"/>
<stop offset="1" stop-color="#2740B0"/>
</linearGradient>
<linearGradient id="paint3_linear_218_6129" x1="-21.929" y1="50" x2="91.8982" y2="50" gradientUnits="userSpaceOnUse">
<stop stop-color="#60B7FF"/>
<stop offset="0.5857" stop-color="#0182FC"/>
<stop offset="1" stop-color="#2740B0"/>
</linearGradient>
<linearGradient id="paint4_linear_218_6129" x1="-46.078" y1="89.6092" x2="82.8177" y2="89.6092" gradientUnits="userSpaceOnUse">
<stop stop-color="#60B7FF"/>
<stop offset="0.5857" stop-color="#0182FC"/>
<stop offset="1" stop-color="#2740B0"/>
</linearGradient>
<linearGradient id="paint5_linear_218_6129" x1="-21.3734" y1="51.3392" x2="117.132" y2="51.3392" gradientUnits="userSpaceOnUse">
<stop stop-color="#60B7FF"/>
<stop offset="0.5857" stop-color="#0182FC"/>
<stop offset="1" stop-color="#2740B0"/>
</linearGradient>
<linearGradient id="paint6_linear_218_6129" x1="-20.523" y1="55.4951" x2="89.4211" y2="55.4951" gradientUnits="userSpaceOnUse">
<stop stop-color="#60B7FF"/>
<stop offset="0.5857" stop-color="#0182FC"/>
<stop offset="1" stop-color="#2740B0"/>
</linearGradient>
<linearGradient id="paint7_linear_218_6129" x1="-20.5228" y1="51.258" x2="89.4213" y2="51.258" gradientUnits="userSpaceOnUse">
<stop stop-color="#60B7FF"/>
<stop offset="0.5857" stop-color="#0182FC"/>
<stop offset="1" stop-color="#2740B0"/>
</linearGradient>
<linearGradient id="paint8_linear_218_6129" x1="-67.2545" y1="32.9478" x2="90.279" y2="32.9478" gradientUnits="userSpaceOnUse">
<stop stop-color="#60B7FF"/>
<stop offset="0.5857" stop-color="#0182FC"/>
<stop offset="1" stop-color="#2740B0"/>
</linearGradient>
<linearGradient id="paint9_linear_218_6129" x1="-1.1762" y1="9.56392" x2="83.9228" y2="9.56392" gradientUnits="userSpaceOnUse">
<stop stop-color="#60B7FF"/>
<stop offset="0.5857" stop-color="#0182FC"/>
<stop offset="1" stop-color="#2740B0"/>
</linearGradient>
<clipPath id="clip0_218_6129">
<rect width="100" height="100" fill="white"/>
</clipPath>
</defs>
</svg>
