<svg width="30" height="67" viewBox="0 0 30 67" fill="none" xmlns="http://www.w3.org/2000/svg">
<path d="M8.61668 14.4036L10.5 11.5H19L20.4987 14.4036L22.2705 22.4751L23.5 31L22.5 43L14.5 45L7.26172 42.5L6 31L7.26172 22.4751L8.61668 14.4036Z" fill="white"/>
<path d="M14.5738 0.00343902L14.4524 0.0123577L13.9401 1.05854C12.2938 4.42296 11.752 5.56127 11.139 6.95222C10.4906 8.42935 9.95757 9.88568 9.50157 11.4223C9.43643 11.6422 9.2943 12.0167 9.18474 12.2544C6.17634 18.8377 4.97121 30.0128 6.16746 40.1922C6.22372 40.6737 6.28294 41.1492 6.30071 41.2443C6.31551 41.3424 6.32736 41.4256 6.32143 41.4286C6.31847 41.4316 6.12897 41.4791 5.90097 41.5297C3.4522 42.0914 2.01611 43.0306 1.22551 44.5909C1.04785 44.9387 0.731022 45.7292 0.588893 46.1751C-0.027 48.1129 -0.148402 49.9972 0.171389 52.7137C0.251336 53.3943 0.257258 53.424 0.316479 53.4121C0.343128 53.4062 0.508945 53.1862 0.689568 52.9247C1.82364 51.2633 2.54021 50.3538 3.36633 49.5246C4.55963 48.3298 5.72627 47.6373 7.18309 47.2658C7.3193 47.2301 7.43478 47.2064 7.44366 47.2123C7.44958 47.2183 7.55322 47.5719 7.67462 47.9999C8.51259 50.9364 9.48381 53.1387 10.757 54.9725C11.0561 55.4034 11.1864 55.558 11.5861 55.9622C12.0481 56.4258 12.4981 56.7973 12.812 56.9727C12.9926 57.0738 12.9926 57.044 12.8031 57.5047C12.6462 57.8851 12.4833 58.4944 12.4152 58.961C12.2405 60.1499 12.3975 61.3952 12.8979 62.7505C13.3391 63.9453 14.2836 65.8741 14.5797 66.1803C14.8995 66.5132 15.1482 66.2605 15.8352 64.9052C16.6465 63.3033 17.0818 62.0282 17.2328 60.8186C17.2802 60.4233 17.2802 59.4009 17.2328 59.0502C17.141 58.3874 16.9722 57.7276 16.762 57.2224L16.6584 56.9697L16.7294 56.9251C16.9308 56.7914 17.3897 56.4258 17.6059 56.2267C18.7903 55.1181 19.9244 53.21 20.8837 50.7135C21.1532 50.0061 21.5618 48.7608 21.7898 47.9405L21.9793 47.2658L22.0682 47.2836C22.4768 47.3728 23.14 47.6284 23.6523 47.8929C24.434 48.3001 25.0825 48.7905 25.8168 49.5246C26.6429 50.3538 27.3595 51.2633 28.4936 52.9247C28.6742 53.1862 28.84 53.4062 28.8667 53.4121C28.9259 53.424 28.9318 53.3943 29.0118 52.7137C29.373 49.6405 29.1776 47.6046 28.31 45.3934C27.7948 44.0827 27.2559 43.3664 26.2787 42.7066C25.5888 42.243 24.4459 41.7882 23.3444 41.5445L23.1134 41.494L23.1312 41.3721C23.223 40.8015 23.4125 39.0628 23.5043 37.9929C23.6701 35.9897 23.7234 34.572 23.7234 32.227C23.7234 29.882 23.6701 28.4613 23.5043 26.4611C23.0305 20.7992 21.9023 15.8656 20.2382 12.195C20.0932 11.874 19.9569 11.5114 19.8474 11.1459C19.575 10.2334 19.193 9.13077 18.9384 8.5096C18.1063 6.48262 17.4756 5.11546 15.5687 1.19228L14.9972 0.0153306L14.8462 0.00343902C14.7633 0.000466914 14.6419 -0.00250519 14.5738 0.00343902ZM16.7531 11.7789C17.2535 11.8057 18.0264 11.8829 18.9976 12.0048C19.19 12.0286 19.1752 12.0137 19.4625 12.6319C20.0399 13.8832 20.6498 15.6367 21.0999 17.3367C22.7373 23.4979 23.2674 31.5791 22.5242 38.9737C22.4205 40.0109 22.2636 41.2681 22.2369 41.2978C22.2162 41.3186 20.7683 41.3632 18.9413 41.3989L17.9494 41.4197L17.8517 41.1195C17.6503 40.4716 17.2713 39.8504 16.8005 39.3957C16.3001 38.9112 15.7878 38.6319 15.1394 38.4951C14.9114 38.4446 14.2422 38.4446 14.0142 38.4951C13.3657 38.6319 12.8535 38.9112 12.353 39.3957C11.8882 39.8474 11.5476 40.3973 11.3196 41.063L11.2012 41.4137L10.4313 41.4108C9.34168 41.4078 7.23935 41.3543 7.21566 41.3276C7.17125 41.283 6.92252 39.0836 6.82185 37.8443C6.65899 35.8946 6.61162 34.6255 6.61162 32.227C6.61162 30.1198 6.63234 29.457 6.73006 27.858C6.9847 23.813 7.59764 19.9938 8.50963 16.7423C8.74059 15.928 9.24396 14.4271 9.5223 13.7256C9.76214 13.1282 10.1204 12.3169 10.227 12.1326L10.2862 12.0315L10.9969 11.9364C11.4174 11.88 12.0421 11.8235 12.5337 11.7967C12.9897 11.77 13.4486 11.7432 13.5552 11.7373C13.9194 11.7165 16.1461 11.7462 16.7531 11.7789ZM16.2024 57.4066C16.3238 57.6801 16.4837 58.215 16.5577 58.5955C16.8183 59.9032 16.6969 61.2347 16.1846 62.6464C15.924 63.3627 15.2933 64.7299 14.938 65.3451L14.8373 65.5205L14.7929 65.4491C14.71 65.3243 14.1622 64.2127 13.9194 63.6718C13.194 62.0817 12.9512 61.1426 12.9512 59.927C12.9482 59.0799 13.0666 58.432 13.3479 57.7187C13.5197 57.2907 13.4782 57.3204 13.7684 57.4007C13.9017 57.4393 14.0171 57.472 14.0201 57.475C14.0231 57.475 14.1415 58.0932 14.2807 58.8422C14.6153 60.6611 14.5857 60.5214 14.6538 60.5214C14.7219 60.5214 14.6893 60.6611 14.9765 59.0948C15.1098 58.3845 15.2282 57.7336 15.246 57.6503L15.2756 57.5017L15.4592 57.4631C15.5598 57.4423 15.7434 57.3888 15.8648 57.3412C15.9862 57.2937 16.0987 57.2551 16.1106 57.2551C16.1224 57.2521 16.1668 57.3234 16.2024 57.4066Z" fill="#08234B"/>
<path d="M14.3544 14.9918C13.087 15.1552 11.953 16.136 11.5177 17.4467C11.3667 17.8955 11.3223 18.1868 11.3223 18.7188C11.3223 19.2508 11.3667 19.5421 11.5177 19.9908C11.8345 20.9449 12.5304 21.7503 13.3861 22.1516C14.2537 22.5617 15.2338 22.5766 16.1043 22.1991C18.4613 21.1767 19.0387 17.845 17.1821 15.9845C16.4093 15.2087 15.4026 14.8551 14.3544 14.9918ZM15.2012 15.7348C15.8378 15.8477 16.4567 16.2193 16.8653 16.7334C17.1051 17.0306 17.3539 17.5329 17.4545 17.9163C17.5256 18.1808 17.5345 18.267 17.5345 18.7188C17.5345 19.1705 17.5256 19.2567 17.4545 19.5213C17.2887 20.1454 16.9038 20.7606 16.4448 21.1292C15.4381 21.9376 14.1589 21.9376 13.1522 21.1292C12.6932 20.7606 12.3083 20.1454 12.1425 19.5213C12.0714 19.2567 12.0625 19.1705 12.0625 18.7188C12.0625 18.267 12.0714 18.1808 12.1425 17.9163C12.4859 16.6205 13.5578 15.717 14.7719 15.7051C14.911 15.7021 15.1035 15.717 15.2012 15.7348Z" fill="#08234B"/>
<path d="M14.3109 24.333C13.5055 24.4905 12.8482 25.0018 12.4692 25.7626C11.7704 27.1565 12.333 28.916 13.6862 29.5669C14.0741 29.7512 14.2961 29.8017 14.7403 29.8017C15.1844 29.8017 15.4065 29.7512 15.7944 29.5669C16.6324 29.1627 17.1831 28.3513 17.2957 27.3616C17.4023 26.3986 16.9996 25.4119 16.2682 24.8353C16.0283 24.6481 15.6079 24.4371 15.3325 24.3687C15.063 24.3003 14.5656 24.2825 14.3109 24.333ZM15.1193 25.079C15.6464 25.2009 16.0905 25.5724 16.3541 26.1193C16.6353 26.7048 16.6472 27.3646 16.3837 27.9352C16.2593 28.2086 16.1705 28.3394 15.9602 28.5504C15.4332 29.0914 14.6515 29.2251 13.9823 28.8952C13.3486 28.5802 12.9045 27.8223 12.9045 27.0555C12.9045 26.5978 13.0969 26.042 13.3723 25.7121C13.8283 25.1652 14.4738 24.9334 15.1193 25.079Z" fill="#08234B"/>
</svg>
