<svg width="100" height="100" viewBox="0 0 100 100" fill="none" xmlns="http://www.w3.org/2000/svg">
<g clip-path="url(#clip0_218_6159)">
<path d="M98.3952 37.3905L95.4146 35.7548L91.2167 26.7653L91.2799 21.7813C82.2652 8.68069 67.1058 0 50.0005 0C32.8952 0 17.7982 8.58698 8.78325 21.6876L8.78426 25.6664L4.8743 35.3605L1.60354 37.3921C0.556975 41.4204 0.000976562 45.6436 0.000976562 49.9995C0.000976562 50.5614 0.00986285 51.1214 0.0282413 51.6788L2.31343 56.275L5.18471 67.6406L3.999 69.6273C7.17322 77.058 12.0926 83.5602 18.2457 88.6243L26.3474 91.8586L46.3195 96.6311L71.8268 93.6693L81.7425 88.6294C87.8977 83.5652 92.8227 77.0601 95.9981 69.6279L95.6687 68.6528L98.2162 55.3664L99.9707 51.679C99.9893 51.1204 100 50.5626 100 49.9995C100 45.6438 99.442 41.4186 98.3952 37.3905Z" fill="#FEDBBD"/>
<path d="M26.7017 50.0005C26.7017 27.0104 42.2189 7.64763 63.3503 1.80651C59.1001 0.631701 54.6236 0.00117854 49.9995 0.000976576C32.8934 0.000572654 17.4571 8.85798 8.55951 22.0157L8.78329 25.6676L4.87332 35.3617L1.60357 37.392C0.557009 41.4204 0 45.6448 0 50.0005C0 50.5629 0.00989609 51.1208 0.0282745 51.6788L2.31245 56.276L5.18373 67.6416L3.99923 69.6273C11.6281 87.4859 29.352 100 49.9997 100C54.6238 100 59.1003 99.3697 63.3505 98.1946C42.2187 92.3533 26.7017 72.9905 26.7017 50.0005Z" fill="#FECA9C"/>
<path d="M49.9997 24.1662C60.0075 24.1662 68.1204 21.0951 68.1204 17.3068C68.1204 13.5184 60.0075 10.4474 49.9997 10.4474C39.9918 10.4474 31.8789 13.5184 31.8789 17.3068C31.8789 21.0951 39.9918 24.1662 49.9997 24.1662Z" fill="#E8AD8C"/>
<path d="M31.8789 17.3068C31.8789 18.8795 33.2773 20.3281 35.6287 21.4852C38.4901 17.372 41.9499 13.7097 45.8879 10.6245C37.859 11.3287 31.8789 14.0532 31.8789 17.3068Z" fill="#E19974"/>
<path d="M81.7499 88.6235C73.1141 95.7305 62.0569 100 49.9998 100C37.9427 100 26.8819 95.7311 18.2461 88.6241C18.2461 88.6241 38.0861 93.0546 49.9998 93.0546C61.9135 93.0546 81.7499 88.6235 81.7499 88.6235Z" fill="#E8AD8C"/>
<path d="M99.9708 51.6764C99.7627 58.0301 98.3666 64.0903 95.9976 69.6301C93.3277 71.5871 89.9676 73.3553 86.0577 74.8801C83.5029 75.8758 81.152 77.3642 79.2496 79.3394C76.2888 82.4153 71.7649 84.5924 66.5502 85.065C61.4325 85.5275 56.6744 84.2531 53.2228 81.8478C52.7502 81.5186 52.2332 81.26 51.69 81.0864C51.1467 80.9127 50.5772 80.8198 49.9995 80.8198C30.3043 80.8198 13.1217 76.314 3.99908 69.6271C1.63007 64.0873 0.23634 58.0325 0.0283203 51.6788H0.0303399C6.45674 59.3493 22.656 65.0931 42.3674 66.2846C46.0472 66.5068 49.632 65.2062 52.4069 62.7806C55.3414 60.2157 59.4473 58.4344 64.1025 58.0123C68.2023 57.6407 72.0719 58.3859 75.2225 59.933C78.7487 61.6658 82.8384 61.8577 86.4878 60.4035C92.4962 58.0083 99.9708 51.6764 99.9708 51.6764Z" fill="#FDB97E"/>
<path d="M98.3959 37.3921C99.0109 40.3284 72.8398 50.6612 50 51.6788C26.6291 52.7201 0.552045 40.162 1.60406 37.3921C3.08241 31.6988 5.53826 26.4014 8.78377 21.6876C7.63563 24.5456 28.6436 37.7468 50 36.8771C71.3798 36.0067 92.4508 24.9479 91.2162 21.6876C94.4617 26.4014 96.9176 31.6988 98.3959 37.3921Z" fill="#FDB97E"/>
<path d="M65.6296 79.4978C71.2684 79.2381 75.6786 75.5302 75.4799 71.2159C75.2813 66.9016 70.549 63.6147 64.9102 63.8744C59.2714 64.134 54.8612 67.8419 55.0599 72.1562C55.2585 76.4705 59.9908 79.7574 65.6296 79.4978Z" fill="#FEDBBD"/>
<path d="M28.8934 64.6803C15.4565 62.2301 4.91739 57.5119 0.0303399 51.6788H0.0283203C0.23634 58.0325 1.63007 64.0873 3.99908 69.6271C11.01 74.7662 22.7825 78.6164 36.7957 80.1238C33.3216 75.5296 30.6226 70.3174 28.8934 64.6803Z" fill="#FEA95C"/>
<path d="M63.3551 98.1961C63.3551 98.1961 55.0012 95.2657 51.2569 93.0481C50.8386 93.0522 50.4195 93.0548 49.9988 93.0548C38.0852 93.0548 18.2451 88.6244 18.2451 88.6244C26.881 95.7314 37.9418 100 49.9988 100C54.6225 100 59.1047 99.3709 63.3551 98.1961Z" fill="#E19974"/>
<path d="M29.3517 33.8935C17.4384 29.3967 8.7836 21.6876 8.7836 21.6876C5.49527 26.4032 2.38709 33.3159 1.21551 38.9955C1.05617 39.3109 12.4823 45.3615 26.7117 49.0232C26.948 43.7694 27.6159 38.6029 29.3517 33.8935Z" fill="#FEA95C"/>
</g>
<defs>
<clipPath id="clip0_218_6159">
<rect width="100" height="100" fill="white"/>
</clipPath>
</defs>
</svg>
