<svg width="179" height="179" viewBox="0 0 179 179" fill="none" xmlns="http://www.w3.org/2000/svg">
<path d="M112.375 149.933L118.154 148.319C120.494 147.666 122.905 149.048 123.558 151.389C124.212 153.729 122.858 156.132 120.518 156.785L115.721 158.125L115.963 158.991L121.28 157.507C123.967 156.757 126.739 158.319 127.489 161.006C128.24 163.693 126.678 166.465 123.99 167.216L118.674 168.7L117.691 168.974L117.933 169.841L124.348 168.05C127.555 167.155 129.446 163.886 128.559 160.707C127.808 158.02 125.145 156.179 122.608 156.575C124.299 155.605 125.105 153.137 124.436 150.739C123.702 148.109 120.859 146.629 118.085 147.404L112.133 149.066L112.375 149.933Z" fill="#394F6F"/>
<path d="M112.375 149.933L111.412 150.202L111.68 151.165L112.644 150.896L112.375 149.933ZM115.721 158.125L115.452 157.161L114.489 157.43L114.758 158.394L115.721 158.125ZM115.963 158.991L115 159.26L115.269 160.224L116.232 159.955L115.963 158.991ZM117.691 168.974L117.422 168.011L116.459 168.28L116.728 169.243L117.691 168.974ZM117.933 169.841L116.97 170.11L117.239 171.073L118.202 170.804L117.933 169.841ZM122.608 156.575L122.11 155.708L122.763 157.563L122.608 156.575ZM112.133 149.066L111.864 148.103L110.901 148.372L111.169 149.335L112.133 149.066ZM112.644 150.896L118.423 149.282L117.885 147.356L112.106 148.97L112.644 150.896ZM118.423 149.282C120.223 148.78 122.088 149.841 122.595 151.658L124.521 151.12C123.722 148.256 120.766 146.552 117.885 147.356L118.423 149.282ZM122.595 151.658C123.1 153.466 122.057 155.317 120.249 155.822L120.786 157.748C123.659 156.946 125.323 153.992 124.521 151.12L122.595 151.658ZM120.249 155.822L115.452 157.161L115.99 159.088L120.786 157.748L120.249 155.822ZM114.758 158.394L115 159.26L116.926 158.722L116.684 157.856L114.758 158.394ZM116.232 159.955L121.549 158.47L121.011 156.544L115.694 158.028L116.232 159.955ZM121.549 158.47C123.704 157.868 125.924 159.12 126.526 161.275L128.453 160.737C127.554 157.518 124.23 155.645 121.011 156.544L121.549 158.47ZM126.526 161.275C127.128 163.43 125.877 165.651 123.722 166.252L124.259 168.179C127.479 167.28 129.351 163.956 128.453 160.737L126.526 161.275ZM123.722 166.252L118.405 167.737L118.943 169.663L124.259 168.179L123.722 166.252ZM118.405 167.737L117.422 168.011L117.96 169.938L118.943 169.663L118.405 167.737ZM116.728 169.243L116.97 170.11L118.897 169.572L118.655 168.705L116.728 169.243ZM118.202 170.804L124.617 169.013L124.079 167.087L117.665 168.878L118.202 170.804ZM124.617 169.013C128.34 167.974 130.562 164.164 129.522 160.438L127.595 160.976C128.33 163.607 126.77 166.336 124.079 167.087L124.617 169.013ZM129.522 160.438C128.652 157.324 125.551 155.103 122.454 155.587L122.763 157.563C124.738 157.254 126.964 158.717 127.595 160.976L129.522 160.438ZM123.106 157.443C125.307 156.179 126.153 153.169 125.399 150.47L123.473 151.008C124.058 153.105 123.292 155.03 122.11 155.708L123.106 157.443ZM125.399 150.47C124.501 147.254 121.065 145.533 117.816 146.441L118.354 148.367C120.652 147.725 122.902 148.965 123.473 151.008L125.399 150.47ZM117.816 146.441L111.864 148.103L112.402 150.029L118.354 148.367L117.816 146.441ZM111.169 149.335L111.412 150.202L113.338 149.664L113.096 148.797L111.169 149.335Z" fill="#394F6F"/>
<path d="M24.1976 107.88C29.8976 107.88 34.1276 112.53 34.1276 118.23C34.1276 123.93 29.8976 128.55 24.1976 128.55C18.4976 128.55 13.8776 123.93 13.8776 118.23C13.8776 112.53 18.4976 107.88 24.1976 107.88ZM24.1976 129.45C30.4976 129.45 35.2376 124.41 35.2376 118.23C35.2376 112.05 30.4976 106.98 24.1976 106.98C17.8976 106.98 12.7676 112.05 12.7676 118.23C12.7676 124.41 17.8976 129.45 24.1976 129.45Z" fill="#394F6F"/>
<path d="M24.1976 108.88C29.2918 108.88 33.1276 113.027 33.1276 118.23H35.1276C35.1276 112.033 30.5034 106.88 24.1976 106.88V108.88ZM33.1276 118.23C33.1276 123.429 29.2954 127.55 24.1976 127.55V129.55C30.4997 129.55 35.1276 124.431 35.1276 118.23H33.1276ZM24.1976 127.55C19.0499 127.55 14.8776 123.378 14.8776 118.23H12.8776C12.8776 124.482 17.9453 129.55 24.1976 129.55V127.55ZM14.8776 118.23C14.8776 113.079 19.0536 108.88 24.1976 108.88V106.88C17.9415 106.88 12.8776 111.981 12.8776 118.23H14.8776ZM24.1976 130.45C31.0779 130.45 36.2376 124.934 36.2376 118.23H34.2376C34.2376 123.886 29.9173 128.45 24.1976 128.45V130.45ZM36.2376 118.23C36.2376 111.53 31.0813 105.98 24.1976 105.98V107.98C29.9138 107.98 34.2376 112.57 34.2376 118.23H36.2376ZM24.1976 105.98C17.3591 105.98 11.7676 111.484 11.7676 118.23H13.7676C13.7676 112.616 18.436 107.98 24.1976 107.98V105.98ZM11.7676 118.23C11.7676 124.979 17.3626 130.45 24.1976 130.45V128.45C18.4325 128.45 13.7676 123.841 13.7676 118.23H11.7676Z" fill="#394F6F"/>
<path d="M73.2139 30.6478L67.8676 9.75088L54.2657 13.2308L59.612 34.1278L60.6002 33.8749L55.4769 13.8499L67.1025 10.8756L72.2257 30.9006L73.2139 30.6478Z" fill="#394F6F"/>
<path d="M73.2139 30.6478L73.4618 31.6166L74.4306 31.3687L74.1827 30.3999L73.2139 30.6478ZM67.8676 9.75088L68.8364 9.50302L68.5885 8.53422L67.6197 8.78208L67.8676 9.75088ZM54.2657 13.2308L54.0178 12.262L53.049 12.5099L53.2969 13.4787L54.2657 13.2308ZM59.612 34.1278L58.6432 34.3756L58.8911 35.3444L59.8599 35.0965L59.612 34.1278ZM60.6002 33.8749L60.848 34.8437L61.8168 34.5959L61.569 33.6271L60.6002 33.8749ZM55.4769 13.8499L55.2291 12.8811L54.2603 13.129L54.5081 14.0978L55.4769 13.8499ZM67.1025 10.8756L68.0713 10.6278L67.8234 9.65896L66.8546 9.90681L67.1025 10.8756ZM72.2257 30.9006L71.2569 31.1485L71.5048 32.1173L72.4736 31.8694L72.2257 30.9006ZM74.1827 30.3999L68.8364 9.50302L66.8988 9.99874L72.2451 30.8957L74.1827 30.3999ZM67.6197 8.78208L54.0178 12.262L54.5135 14.1996L68.1154 10.7197L67.6197 8.78208ZM53.2969 13.4787L58.6432 34.3756L60.5808 33.8799L55.2345 12.983L53.2969 13.4787ZM59.8599 35.0965L60.848 34.8437L60.3523 32.9061L59.3641 33.159L59.8599 35.0965ZM61.569 33.6271L56.4457 13.6021L54.5081 14.0978L59.6314 34.1228L61.569 33.6271ZM55.7248 14.8187L67.3503 11.8444L66.8546 9.90681L55.2291 12.8811L55.7248 14.8187ZM66.1337 11.1235L71.2569 31.1485L73.1945 30.6528L68.0713 10.6278L66.1337 11.1235ZM72.4736 31.8694L73.4618 31.6166L72.966 29.679L71.9779 29.9318L72.4736 31.8694Z" fill="#394F6F"/>
<path d="M127.899 8.69565L131.801 29.1111L116.607 26.1457L127.899 8.69565ZM114.752 25.7837L114.58 26.667L133.483 30.3565L133.656 29.4732L132.831 29.3122L128.635 7.43316L127.693 7.24926L115.577 25.9446L114.752 25.7837Z" fill="#394F6F"/>
<path d="M127.899 8.69565L128.882 8.50795L128.414 6.06L127.06 8.15238L127.899 8.69565ZM131.801 29.1111L131.609 30.0926L133.061 30.3759L132.783 28.9234L131.801 29.1111ZM116.607 26.1457L115.768 25.6024L114.964 26.8439L116.416 27.1272L116.607 26.1457ZM114.752 25.7837L114.944 24.8022L113.962 24.6106L113.771 25.5921L114.752 25.7837ZM114.58 26.667L113.599 26.4754L113.407 27.4569L114.388 27.6485L114.58 26.667ZM133.483 30.3565L133.292 31.338L134.273 31.5295L134.465 30.5481L133.483 30.3565ZM133.656 29.4732L134.637 29.6647L134.829 28.6832L133.847 28.4917L133.656 29.4732ZM132.831 29.3122L131.849 29.5006L131.976 30.1643L132.64 30.2937L132.831 29.3122ZM128.635 7.43316L129.617 7.24479L129.49 6.58113L128.826 6.45168L128.635 7.43316ZM127.693 7.24926L127.884 6.26778L127.221 6.13833L126.853 6.70542L127.693 7.24926ZM115.577 25.9446L115.385 26.926L116.049 27.0555L116.416 26.4884L115.577 25.9446ZM126.917 8.88336L130.818 29.2988L132.783 28.9234L128.882 8.50795L126.917 8.88336ZM131.992 28.1296L116.799 25.1642L116.416 27.1272L131.609 30.0926L131.992 28.1296ZM117.447 26.689L128.739 9.23893L127.06 8.15238L115.768 25.6024L117.447 26.689ZM113.771 25.5921L113.599 26.4754L115.561 26.8585L115.734 25.9752L113.771 25.5921ZM114.388 27.6485L133.292 31.338L133.675 29.375L114.772 25.6855L114.388 27.6485ZM134.465 30.5481L134.637 29.6647L132.674 29.2816L132.502 30.1649L134.465 30.5481ZM133.847 28.4917L133.023 28.3308L132.64 30.2937L133.464 30.4546L133.847 28.4917ZM133.813 29.1239L129.617 7.24479L127.653 7.62153L131.849 29.5006L133.813 29.1239ZM128.826 6.45168L127.884 6.26778L127.501 8.23074L128.443 8.41464L128.826 6.45168ZM126.853 6.70542L114.738 25.4007L116.416 26.4884L128.532 7.7931L126.853 6.70542ZM115.768 24.9631L114.944 24.8022L114.561 26.7651L115.385 26.926L115.768 24.9631Z" fill="#394F6F"/>
<path d="M50.0701 166.765L51.0634 166.997L53.1508 158.058L58.0587 159.204C61.1847 159.934 64.3607 157.81 65.1383 154.48C65.916 151.149 64.0019 147.868 60.876 147.138L54.9747 145.76L50.0701 166.765ZM55.7634 146.869L60.3792 147.946C63.0961 148.581 64.7327 151.335 64.0574 154.227C63.3821 157.12 60.6882 158.893 57.9712 158.259L53.3554 157.181L55.7634 146.869Z" fill="#394F6F"/>
<path d="M50.0701 166.765L49.0963 166.538L48.8689 167.512L49.8427 167.739L50.0701 166.765ZM51.0634 166.997L50.836 167.971L51.8098 168.198L52.0372 167.225L51.0634 166.997ZM53.1508 158.058L53.3781 157.084L52.4043 156.857L52.177 157.83L53.1508 158.058ZM54.9747 145.76L55.2021 144.787L54.2283 144.559L54.0009 145.533L54.9747 145.76ZM55.7634 146.869L55.9908 145.895L55.017 145.668L54.7896 146.641L55.7634 146.869ZM53.3554 157.181L52.3816 156.954L52.1542 157.928L53.128 158.155L53.3554 157.181ZM49.8427 167.739L50.836 167.971L51.2908 166.023L50.2975 165.792L49.8427 167.739ZM52.0372 167.225L54.1246 158.285L52.177 157.83L50.0896 166.77L52.0372 167.225ZM52.9234 159.032L57.8314 160.178L58.2861 158.23L53.3781 157.084L52.9234 159.032ZM57.8314 160.178C61.5541 161.047 65.2232 158.514 66.1121 154.707L64.1645 154.252C63.4982 157.106 60.8152 158.82 58.2861 158.23L57.8314 160.178ZM66.1121 154.707C67.0026 150.894 64.8202 147.032 61.1034 146.164L60.6486 148.112C63.1836 148.704 64.8294 151.405 64.1645 154.252L66.1121 154.707ZM61.1034 146.164L55.2021 144.787L54.7474 146.734L60.6486 148.112L61.1034 146.164ZM54.0009 145.533L49.0963 166.538L51.0439 166.993L55.9485 145.988L54.0009 145.533ZM55.536 147.842L60.1518 148.92L60.6066 146.973L55.9908 145.895L55.536 147.842ZM60.1518 148.92C62.2869 149.419 63.6439 151.6 63.0836 154L65.0312 154.455C65.8216 151.07 63.9054 147.743 60.6066 146.973L60.1518 148.92ZM63.0836 154C62.5216 156.407 60.3266 157.782 58.1986 157.285L57.7439 159.233C61.0497 160.005 64.2426 157.832 65.0312 154.455L63.0836 154ZM58.1986 157.285L53.5828 156.207L53.128 158.155L57.7439 159.233L58.1986 157.285ZM54.3292 157.409L56.7372 147.096L54.7896 146.641L52.3816 156.954L54.3292 157.409Z" fill="#394F6F"/>
<path d="M162.397 71.3609L168.471 70.0683C172.109 69.294 174.48 65.8757 173.743 62.4133C173.012 58.9802 169.455 56.8233 165.817 57.5976L160.741 58.6779L159.092 50.9314L169.186 48.7833L168.999 47.903L157.907 50.2634L162.397 71.3609ZM160.928 59.5582L166.239 58.4279C169.144 57.8097 172.033 59.71 172.657 62.6443C173.288 65.608 171.423 68.5199 168.518 69.1381L163.207 70.2683L160.928 59.5582Z" fill="#394F6F"/>
<path d="M162.397 71.3609L161.419 71.5691L161.627 72.5472L162.605 72.339L162.397 71.3609ZM160.741 58.6779L159.763 58.886L159.971 59.8641L160.949 59.656L160.741 58.6779ZM159.092 50.9314L158.884 49.9533L157.906 50.1614L158.114 51.1395L159.092 50.9314ZM169.186 48.7833L169.394 49.7614L170.372 49.5532L170.164 48.5751L169.186 48.7833ZM168.999 47.903L169.977 47.6948L169.769 46.7167L168.791 46.9249L168.999 47.903ZM157.907 50.2634L157.699 49.2853L156.721 49.4934L156.929 50.4715L157.907 50.2634ZM160.928 59.5582L160.72 58.5801L159.742 58.7882L159.95 59.7663L160.928 59.5582ZM163.207 70.2683L162.229 70.4765L162.437 71.4546L163.415 71.2464L163.207 70.2683ZM162.605 72.339L168.679 71.0464L168.263 69.0902L162.189 70.3828L162.605 72.339ZM168.679 71.0464C172.805 70.1685 175.584 66.2594 174.721 62.2051L172.765 62.6214C173.376 65.4921 171.414 68.4196 168.263 69.0902L168.679 71.0464ZM174.721 62.2051C173.864 58.1773 169.731 55.7422 165.609 56.6195L166.025 58.5757C169.18 57.9044 172.161 59.783 172.765 62.6214L174.721 62.2051ZM165.609 56.6195L160.532 57.6998L160.949 59.656L166.025 58.5757L165.609 56.6195ZM161.719 58.4697L160.07 50.7232L158.114 51.1395L159.763 58.886L161.719 58.4697ZM159.3 51.9095L169.394 49.7614L168.978 47.8052L158.884 49.9533L159.3 51.9095ZM170.164 48.5751L169.977 47.6948L168.021 48.1111L168.208 48.9914L170.164 48.5751ZM168.791 46.9249L157.699 49.2853L158.115 51.2415L169.207 48.8811L168.791 46.9249ZM156.929 50.4715L161.419 71.5691L163.375 71.1528L158.885 50.0552L156.929 50.4715ZM161.136 60.5363L166.447 59.406L166.031 57.4498L160.72 58.5801L161.136 60.5363ZM166.447 59.406C168.801 58.905 171.167 60.4478 171.679 62.8525L173.635 62.4362C172.898 58.9723 169.486 56.7144 166.031 57.4498L166.447 59.406ZM171.679 62.8525C172.198 65.29 170.661 67.6597 168.31 68.16L168.726 70.1162C172.185 69.3801 174.378 65.9259 173.635 62.4362L171.679 62.8525ZM168.31 68.16L162.999 69.2902L163.415 71.2464L168.726 70.1162L168.31 68.16ZM164.185 70.0602L161.906 59.35L159.95 59.7663L162.229 70.4765L164.185 70.0602Z" fill="#394F6F"/>
<path d="M171.355 113.304L171.609 112.44L161.192 109.371L160.937 110.235L165.628 111.617L159.787 131.444L160.823 131.749L166.664 111.922L171.355 113.304Z" fill="#394F6F"/>
<path d="M171.355 113.304L171.072 114.263L172.031 114.546L172.314 113.586L171.355 113.304ZM171.609 112.44L172.568 112.723L172.851 111.764L171.892 111.481L171.609 112.44ZM161.192 109.371L161.474 108.412L160.515 108.13L160.233 109.089L161.192 109.371ZM160.937 110.235L159.978 109.952L159.696 110.911L160.655 111.194L160.937 110.235ZM165.628 111.617L166.587 111.899L166.87 110.94L165.911 110.657L165.628 111.617ZM159.787 131.444L158.828 131.162L158.545 132.121L159.504 132.403L159.787 131.444ZM160.823 131.749L160.54 132.709L161.499 132.991L161.782 132.032L160.823 131.749ZM166.664 111.922L166.947 110.963L165.987 110.68L165.705 111.639L166.664 111.922ZM172.314 113.586L172.568 112.723L170.65 112.158L170.396 113.021L172.314 113.586ZM171.892 111.481L161.474 108.412L160.909 110.331L171.327 113.4L171.892 111.481ZM160.233 109.089L159.978 109.952L161.897 110.517L162.151 109.654L160.233 109.089ZM160.655 111.194L165.346 112.576L165.911 110.657L161.22 109.276L160.655 111.194ZM164.669 111.334L158.828 131.162L160.746 131.727L166.587 111.899L164.669 111.334ZM159.504 132.403L160.54 132.709L161.105 130.79L160.069 130.485L159.504 132.403ZM161.782 132.032L167.623 112.204L165.705 111.639L159.864 131.467L161.782 132.032ZM166.382 112.881L171.072 114.263L171.637 112.345L166.947 110.963L166.382 112.881Z" fill="#394F6F"/>
<path d="M11.245 75.5913L11.4842 67.2774L20.7362 63.8396L26.3181 69.9906L27.443 69.5727L11.7082 52.3763L10.8083 52.7107L10.1201 76.0092L11.245 75.5913ZM11.4801 66.3188L11.6658 53.6402L20.1134 63.1109L11.4801 66.3188Z" fill="#394F6F"/>
<path d="M11.245 75.5913L11.5933 76.5287L12.2252 76.2939L12.2446 75.62L11.245 75.5913ZM11.4842 67.2774L11.1359 66.34L10.504 66.5748L10.4846 67.2486L11.4842 67.2774ZM20.7362 63.8396L21.4767 63.1676L21.0221 62.6666L20.3879 62.9023L20.7362 63.8396ZM26.3181 69.9906L25.5776 70.6626L26.0322 71.1636L26.6664 70.928L26.3181 69.9906ZM27.443 69.5727L27.7913 70.51L29.183 69.9929L28.1807 68.8976L27.443 69.5727ZM11.7082 52.3763L12.446 51.7012L11.9913 51.2043L11.3599 51.4389L11.7082 52.3763ZM10.8083 52.7107L10.46 51.7733L9.82865 52.0079L9.80877 52.6811L10.8083 52.7107ZM10.1201 76.0092L9.12056 75.9797L9.07672 77.4637L10.4684 76.9466L10.1201 76.0092ZM11.4801 66.3188L10.4802 66.3041L10.4588 67.7651L11.8284 67.2562L11.4801 66.3188ZM11.6658 53.6402L12.4121 52.9746L10.7035 51.0591L10.6659 53.6256L11.6658 53.6402ZM20.1134 63.1109L20.4617 64.0483L21.8345 63.5382L20.8597 62.4453L20.1134 63.1109ZM12.2446 75.62L12.4838 67.3061L10.4846 67.2486L10.2454 75.5625L12.2446 75.62ZM11.8325 68.2147L21.0845 64.777L20.3879 62.9023L11.1359 66.34L11.8325 68.2147ZM19.9957 64.5117L25.5776 70.6626L27.0586 69.3186L21.4767 63.1676L19.9957 64.5117ZM26.6664 70.928L27.7913 70.51L27.0947 68.6353L25.9698 69.0532L26.6664 70.928ZM28.1807 68.8976L12.446 51.7012L10.9705 53.0513L26.7052 70.2477L28.1807 68.8976ZM11.3599 51.4389L10.46 51.7733L11.1566 53.648L12.0565 53.3137L11.3599 51.4389ZM9.80877 52.6811L9.12056 75.9797L11.1197 76.0388L11.8079 52.7402L9.80877 52.6811ZM10.4684 76.9466L11.5933 76.5287L10.8967 74.6539L9.77182 75.0719L10.4684 76.9466ZM12.48 66.3334L12.6657 53.6549L10.6659 53.6256L10.4802 66.3041L12.48 66.3334ZM10.9195 54.3059L19.3671 63.7766L20.8597 62.4453L12.4121 52.9746L10.9195 54.3059ZM19.7651 62.1736L11.1318 65.3814L11.8284 67.2562L20.4617 64.0483L19.7651 62.1736Z" fill="#394F6F"/>
</svg>
