<svg width="100" height="100" viewBox="0 0 100 100" fill="none" xmlns="http://www.w3.org/2000/svg">
<path d="M64.9336 69.999L30.0117 35.0771L35.067 30.0218L69.9889 64.9437L64.9336 69.999Z" fill="#C9E0FD"/>
<path d="M10.3444 8.20996L10.3354 8.64121L8.68149 10.2951L7.54165 9.67539L0.844775 16.3723C-0.281592 17.4986 -0.281592 19.3246 0.844775 20.451L7.00825 26.6145L8.23989 26.233L9.59146 27.5846L9.14243 28.7486L16.0459 35.6521L17.1053 35.0984L18.6971 36.6902L18.1801 37.7863L24.3436 43.9498C25.47 45.0762 27.2959 45.0762 28.4223 43.9498L35.1192 37.2529L34.8008 36.3434L36.5895 34.5547C36.5815 33.8272 36.3014 33.1021 35.7463 32.5471L12.2475 9.04824C11.719 8.51973 11.0364 8.24258 10.3444 8.20996Z" fill="#9BC4F9"/>
<path d="M26.6154 7.00776L20.4518 0.844287C19.3254 -0.28208 17.4994 -0.28208 16.373 0.844287L9.67617 7.54116L10.3447 8.20972L10.3357 8.64097L9.63477 9.34194C10.1924 9.44312 10.726 9.70776 11.157 10.1388L34.6559 33.6376C35.2109 34.1927 35.4912 34.9177 35.499 35.6453L36.3158 34.8285L37.2535 35.1187L43.9504 28.4218C45.0768 27.2955 45.0768 25.4695 43.9504 24.3431L37.7869 18.1796L36.7131 18.6388L35.3022 17.2279L35.6527 16.0455L28.7492 9.14194L27.5719 9.49761L26.1609 8.08667L26.6154 7.00776Z" fill="#7FB2F9"/>
<path d="M35.652 16.0455L26.9158 24.7816L20.0123 17.8781L28.7484 9.14199L26.6145 7.00781L17.8781 15.7441L9.6752 7.54121L7.54121 9.67539L15.7441 17.8781L7.00781 26.6145L9.14199 28.7484L17.8781 20.0123L24.7816 26.9158L16.0455 35.652L18.1797 37.7861L26.9158 29.05L35.1187 37.2529L37.2529 35.1187L29.05 26.9158L37.7861 18.1797L35.652 16.0455Z" fill="#EAF2FF"/>
<path d="M32.1033 59.6309L40.1617 67.6893L36.2805 77.86C35.9602 78.6994 34.8809 78.9301 34.2455 78.2945L21.676 65.725C21.0486 65.0977 21.2641 64.0336 22.0861 63.6996L32.1033 59.6309Z" fill="#C9E0FD"/>
<path d="M49.4059 36.283C49.1153 35.3566 47.9411 35.0748 47.2545 35.7613L28.9211 54.0947C27.3127 55.7031 27.3127 58.3105 28.9211 59.9189L40.0809 71.0787C41.6893 72.6871 44.2967 72.6871 45.9051 71.0787L64.2385 52.7453C64.9251 52.0588 64.6432 50.8845 63.7168 50.5939C60.4588 49.5716 57.3924 47.7714 54.8104 45.1894C52.2284 42.6074 50.428 39.541 49.4059 36.283Z" fill="#EAF2FF"/>
<path d="M74.448 39.0435L60.9559 25.5513C59.9916 24.5871 58.4283 24.5871 57.4641 25.5513L47.2539 35.7615C48.09 39.8027 50.0729 43.6539 53.2092 46.7902C56.3455 49.9265 60.1967 51.9095 64.2377 52.7455L74.4479 42.5353C75.4123 41.571 75.4123 40.0078 74.448 39.0435Z" fill="#C9E0FD"/>
<path d="M53.2845 46.6781C54.9731 48.3668 54.9731 51.1045 53.2845 52.7932L46.7995 59.2781C45.1108 60.9668 42.3731 60.9668 40.6845 59.2781C38.9958 57.5895 38.9958 54.8518 40.6845 53.1631L47.1694 46.6781C48.8581 44.9895 51.5958 44.9895 53.2845 46.6781Z" fill="#E2916B"/>
<path d="M79.9183 21.2182C79.0945 21.0958 78.3265 21.6645 78.2041 22.4893L76.3447 35.0091C76.2222 35.8335 76.7912 36.6011 77.6158 36.7233C78.1074 36.7964 78.5789 36.6235 78.9053 36.297C79.126 36.0763 79.2806 35.785 79.3301 35.4524L81.1894 22.9327C81.3117 22.1081 80.7428 21.3405 79.9183 21.2182Z" fill="#C9E0FD"/>
<path d="M65.3833 23.5972L77.1185 21.8544C77.4513 21.805 77.7421 21.6505 77.963 21.4296C78.2894 21.1033 78.4624 20.6318 78.3894 20.1402C78.2671 19.3158 77.4995 18.7468 76.6751 18.8691L64.94 20.6118C64.1157 20.7341 63.5466 21.5017 63.6689 22.3261C63.7913 23.1505 64.5591 23.7197 65.3833 23.5972Z" fill="#C9E0FD"/>
<path d="M80.1172 24.3755C82.5982 24.3755 84.6094 22.3643 84.6094 19.8833C84.6094 17.4023 82.5982 15.3911 80.1172 15.3911C77.6362 15.3911 75.625 17.4023 75.625 19.8833C75.625 22.3643 77.6362 24.3755 80.1172 24.3755Z" fill="#BCD6F9"/>
<path d="M59.0211 14.5579C58.4205 13.9573 57.4007 14.196 57.1226 14.9987C54.4638 22.6768 56.1988 31.5384 62.3302 37.6698C68.4617 43.8012 77.3232 45.536 85.0013 42.8772C85.8041 42.5993 86.0429 41.5796 85.4422 40.9788L59.0211 14.5579Z" fill="#9BC4F9"/>
<path d="M65.5495 63.4155L65.5405 63.8468L63.8866 65.5007L62.7467 64.881L56.0499 71.5778C54.9235 72.7042 54.9235 74.5302 56.0499 75.6565L62.2133 81.82L63.445 81.4386L64.7965 82.7901L64.3475 83.9542L71.251 90.8577L72.3104 90.304L73.9022 91.8958L73.3852 92.9919L79.5487 99.1554C80.675 100.282 82.501 100.282 83.6274 99.1554L90.3243 92.4585L90.0059 91.5489L91.7946 89.7603C91.7866 89.0327 91.5065 88.3077 90.9514 87.7526L67.4528 64.2538C66.9243 63.7253 66.2417 63.4481 65.5495 63.4155Z" fill="#9BC4F9"/>
<path d="M81.8203 62.2133L75.6568 56.0499C74.5305 54.9235 72.7045 54.9235 71.5781 56.0499L64.8813 62.7467L65.5498 63.4153L65.5408 63.8465L64.8398 64.5475C65.3975 64.6487 65.9311 64.9133 66.3621 65.3444L89.8609 88.8432C90.416 89.3983 90.6963 90.1233 90.7041 90.8508L91.5209 90.034L92.4586 90.3243L99.1555 83.6274C100.282 82.501 100.282 80.675 99.1555 79.5487L92.992 73.3852L91.9182 73.8444L90.5072 72.4334L90.8578 71.251L83.9543 64.3475L82.777 64.7032L81.366 63.2922L81.8203 62.2133Z" fill="#7FB2F9"/>
<path d="M90.857 71.2511L82.1209 79.9872L75.2174 73.0837L83.9535 64.3476L81.8193 62.2134L73.0832 70.9495L64.8803 62.7466L62.7461 64.8808L70.949 73.0837L62.2129 81.8198L64.3471 83.954L73.0832 75.2179L79.9867 82.1214L71.2506 90.8575L73.3846 92.9917L82.1209 84.2554L90.3238 92.4583L92.4578 90.3243L84.2549 82.1214L92.9912 73.3851L90.857 71.2511Z" fill="#EAF2FF"/>
</svg>
