<svg width="104" height="104" viewBox="0 0 104 104" fill="none" xmlns="http://www.w3.org/2000/svg">
<path d="M102.106 52C102.114 58.6629 100.788 65.26 98.2063 71.4025C96.7347 74.9111 94.8616 78.2375 92.6245 81.315C91.1741 83.3452 89.5658 85.2578 87.8145 87.035C80.7568 94.2484 71.6863 99.1639 61.7895 101.138C51.8928 103.113 41.6305 102.054 32.3451 98.1012L32.3288 98.0931C23.2926 94.2441 15.5886 87.8215 10.1765 79.6253C4.76444 71.4292 1.8835 61.8218 1.8926 52C1.89244 49.1686 2.12889 46.342 2.59947 43.55C3.93609 35.8738 7.03373 28.6118 11.6492 22.3343C16.2647 16.0567 22.2724 10.9344 29.2007 7.36936C36.2578 3.7598 44.0729 1.88261 51.9995 1.89311C57.2005 1.88854 62.3704 2.69446 67.3232 4.28186C71.0551 5.47755 74.6309 7.11411 77.9751 9.15686C82.9513 12.1799 87.3662 16.0422 91.0238 20.5725C95.4893 26.0976 98.7222 32.5135 100.506 39.39V39.4062C101.452 43.0284 101.984 46.7464 102.09 50.4887C102.106 50.9925 102.106 51.4962 102.106 52V52Z" fill="#6FB66A"/>
<path d="M67.3233 4.28182C65.8283 6.5487 61.392 6.72745 58.4589 8.67745C49.7489 14.4868 38.3008 9.72557 36.6758 4.28182C46.6434 1.09681 57.3557 1.09681 67.3233 4.28182V4.28182Z" fill="#1A6F0C"/>
<path d="M50.8215 30.9724C49.6921 32.5324 39.0402 33.5886 33.3852 37.5049C27.2102 41.7786 27.9171 47.5799 23.4646 49.3999C21.0352 50.3993 14.5921 50.2043 14.3321 46.1986C14.0721 42.193 12.4146 40.9418 10.2371 40.5924C8.05961 40.243 4.67148 41.5268 2.60773 43.5661L2.59961 43.5499C3.75031 36.8405 6.25579 30.4359 9.9632 24.7267C13.6706 19.0175 18.5022 14.1234 24.1634 10.343C20.8646 20.1418 30.4277 24.8868 35.4734 22.5386C40.519 20.1905 41.5102 24.2368 43.6877 24.8461C45.8652 25.4555 49.1315 23.4811 50.8215 23.9443C52.5277 24.4155 51.959 29.4043 50.8215 30.9724V30.9724Z" fill="#42A839"/>
<path d="M96.825 29.5831C89.675 34.385 84.9544 35.0269 77.4469 38.7075C75.4644 39.6825 63.4637 42.5263 59.5962 40.9744C58.1175 40.3813 55.1275 39.0244 56.4681 35.425C57.3456 33.0444 62.6106 32.5081 65.0156 31.5169C67.9731 30.2981 68.9319 22.4169 78.2269 24.6025C83.955 25.9431 88.6919 22.2544 91.0237 20.5725C93.2757 23.3588 95.2207 26.3798 96.825 29.5831V29.5831Z" fill="#42A839"/>
<path d="M102.106 51.9998C102.114 58.6628 100.788 65.2599 98.2063 71.4023C97.3763 71.3771 96.5621 71.1688 95.8219 70.7924C95.0817 70.4159 94.4338 69.8807 93.9244 69.2248C91.9501 66.6655 92.6244 61.3923 94.0138 58.2642C95.4032 55.1361 89.8376 46.1742 89.6832 43.1923C89.4232 38.1386 93.6644 38.1711 100.506 39.3898V39.4061C101.452 43.0282 101.984 46.7463 102.09 50.4886C102.106 50.9923 102.106 51.4961 102.106 51.9998V51.9998Z" fill="#42A839"/>
<path d="M92.6255 81.315C91.1752 83.3452 89.5668 85.2578 87.8155 87.035C85.4024 86.97 81.608 87.7012 77.903 85.9868C74.198 84.2725 66.4631 84.3131 63.6762 87.1C60.8893 89.8868 59.2237 93.2343 54.3487 92.7956C49.4737 92.3568 46.6949 90.7968 42.2587 94.8837C37.8224 98.9706 37.278 99.905 32.3462 98.1012L32.3299 98.0931C25.5772 95.205 19.5404 90.8706 14.6451 85.3956C9.74988 79.9205 6.11541 73.4381 3.99805 66.4056C5.15992 63.7406 6.16742 62.3756 8.76742 62.5706C12.903 62.8712 12.3993 67.0068 15.0724 70.46C17.2418 73.2712 19.7037 75.7493 24.408 75.7493C28.2105 75.7493 32.2243 59.9543 37.3024 64.9675C45.7362 73.3118 50.8712 70.7931 53.8287 71.4025C56.7862 72.0118 62.8718 75.3106 65.1387 77.3093C67.4055 79.3081 67.3974 82.0137 73.2231 79.2268C79.0487 76.44 88.628 72.1337 92.6255 81.315V81.315Z" fill="#42A839"/>
<path d="M70.2119 58.6771C64.9046 65.953 59.2935 58.2595 61.3239 54.0109C61.5747 53.555 61.9141 53.1538 62.3223 52.8311C62.7304 52.5083 63.199 52.2705 63.7005 52.1317C64.2019 51.9928 64.7261 51.9557 65.2421 52.0225C65.7582 52.0894 66.2556 52.2588 66.7051 52.5208C69.5586 54.1832 71.6005 56.7734 70.2119 58.6771V58.6771Z" fill="#42A839"/>
<path d="M77.5234 48.2398C78.0702 45.37 83.0037 44.5835 83.7211 48.2398C84.4386 51.896 81.7963 52.5395 79.2849 51.6238C78.6124 51.3945 78.0542 50.9149 77.7262 50.2847C77.3981 49.6545 77.3255 48.9221 77.5234 48.2398V48.2398Z" fill="#42A839"/>
<path d="M76.7544 64.4638C77.1793 62.231 81.0184 61.62 81.5766 64.4638C82.1348 67.3075 80.0791 67.8088 78.1251 67.0971C77.6022 66.9181 77.1682 66.5448 76.9131 66.0545C76.6579 65.5643 76.6011 64.9947 76.7544 64.4638V64.4638Z" fill="#42A839"/>
</svg>
