<svg width="183" height="176" viewBox="0 0 183 176" fill="none" xmlns="http://www.w3.org/2000/svg">
<g clip-path="url(#clip0_1466_181)">
<path d="M66.4047 15.2355C66.6437 15.1931 66.803 14.965 66.7606 14.726C66.7181 14.4871 66.49 14.3277 66.251 14.3702C66.0121 14.4126 65.8528 14.6407 65.8952 14.8797C65.9376 15.1187 66.1658 15.278 66.4047 15.2355Z" fill="#394F6F" stroke="#394F6F" stroke-width="8"/>
<path d="M68.1371 14.9282C68.3761 14.8857 68.5354 14.6576 68.493 14.4187C68.4505 14.1797 68.2224 14.0204 67.9835 14.0628C67.7445 14.1052 67.5852 14.3334 67.6276 14.5723C67.6701 14.8113 67.8982 14.9706 68.1371 14.9282Z" fill="#394F6F" stroke="#394F6F" stroke-width="8"/>
<path d="M64.6743 15.5428C64.9132 15.5004 65.0725 15.2722 65.0301 15.0333C64.9877 14.7943 64.7595 14.635 64.5206 14.6774C64.2816 14.7199 64.1223 14.948 64.1647 15.187C64.2072 15.4259 64.4353 15.5852 64.6743 15.5428Z" fill="#394F6F" stroke="#394F6F" stroke-width="8"/>
<mask id="path-4-inside-1_1466_181" fill="white">
<path d="M57.3022 19.4905C53.7022 20.1298 51.2935 23.5786 51.9328 27.1786C52.5721 30.7785 56.021 33.1872 59.621 32.5479C63.221 31.9086 65.6296 28.4597 64.9903 24.8597C64.351 21.2598 60.9021 18.8512 57.3022 19.4905ZM55.4452 21.1215C55.0587 21.9184 54.8295 22.9554 54.7912 24.1286L52.9256 24.4599C53.3169 23.0789 54.2169 21.88 55.4452 21.1215ZM52.7982 27.0249C52.6996 26.4697 52.685 25.9186 52.7445 25.3847L54.7981 25.02C54.8226 25.5419 54.8825 26.0836 54.9808 26.6373C55.0792 27.191 55.2094 27.7201 55.3662 28.2186L53.3125 28.5833C53.0728 28.1025 52.8968 27.5802 52.7982 27.0249ZM53.801 29.3893L55.6666 29.058C56.1065 30.1463 56.6787 31.0409 57.3159 31.656C55.9016 31.3668 54.6439 30.551 53.801 29.3893ZM59.0192 31.6722C58.1827 31.5002 57.2297 30.5054 56.5484 28.9013L58.4666 28.5607L59.0192 31.6722ZM58.3129 27.6954L56.237 28.064C56.0797 27.5777 55.9468 27.0497 55.8463 26.4837C55.7458 25.9177 55.6887 25.3761 55.669 24.8654L57.7449 24.4967L58.3129 27.6954ZM57.5912 23.6313L55.673 23.972C55.7603 22.2314 56.3126 20.9693 57.0386 20.5197L57.5912 23.6313ZM57.904 20.3661C58.7404 20.5381 59.6935 21.5329 60.3747 23.137L58.4566 23.4776L57.904 20.3661ZM58.6102 24.343L60.6862 23.9743C60.8435 24.4606 60.9764 24.9887 61.0769 25.5547C61.1775 26.1207 61.2345 26.6622 61.2542 27.173L59.1783 27.5416L58.6102 24.343ZM59.8845 31.5186L59.332 28.4071L61.2501 28.0664C61.1628 29.8069 60.6106 31.0691 59.8845 31.5186ZM61.4779 30.9169C61.8644 30.1199 62.0936 29.083 62.1319 27.9098L63.9975 27.5785C63.6062 28.9594 62.7062 30.1583 61.4779 30.9169ZM64.1249 25.0134C64.2235 25.5686 64.2381 26.1197 64.1786 26.6536L62.125 27.0183C62.1005 26.4964 62.0406 25.9547 61.9423 25.401C61.8439 24.8474 61.7137 24.3182 61.5569 23.8197L63.6106 23.455C63.8503 23.9359 64.0263 24.4582 64.1249 25.0134ZM61.2565 22.9804C60.8166 21.8921 60.2444 20.9975 59.6072 20.3824C61.0215 20.6717 62.2792 21.4874 63.1221 22.6491L61.2565 22.9804Z"/>
</mask>
<path d="M57.3022 19.4905C53.7022 20.1298 51.2935 23.5786 51.9328 27.1786C52.5721 30.7785 56.021 33.1872 59.621 32.5479C63.221 31.9086 65.6296 28.4597 64.9903 24.8597C64.351 21.2598 60.9021 18.8512 57.3022 19.4905ZM55.4452 21.1215C55.0587 21.9184 54.8295 22.9554 54.7912 24.1286L52.9256 24.4599C53.3169 23.0789 54.2169 21.88 55.4452 21.1215ZM52.7982 27.0249C52.6996 26.4697 52.685 25.9186 52.7445 25.3847L54.7981 25.02C54.8226 25.5419 54.8825 26.0836 54.9808 26.6373C55.0792 27.191 55.2094 27.7201 55.3662 28.2186L53.3125 28.5833C53.0728 28.1025 52.8968 27.5802 52.7982 27.0249ZM53.801 29.3893L55.6666 29.058C56.1065 30.1463 56.6787 31.0409 57.3159 31.656C55.9016 31.3668 54.6439 30.551 53.801 29.3893ZM59.0192 31.6722C58.1827 31.5002 57.2297 30.5054 56.5484 28.9013L58.4666 28.5607L59.0192 31.6722ZM58.3129 27.6954L56.237 28.064C56.0797 27.5777 55.9468 27.0497 55.8463 26.4837C55.7458 25.9177 55.6887 25.3761 55.669 24.8654L57.7449 24.4967L58.3129 27.6954ZM57.5912 23.6313L55.673 23.972C55.7603 22.2314 56.3126 20.9693 57.0386 20.5197L57.5912 23.6313ZM57.904 20.3661C58.7404 20.5381 59.6935 21.5329 60.3747 23.137L58.4566 23.4776L57.904 20.3661ZM58.6102 24.343L60.6862 23.9743C60.8435 24.4606 60.9764 24.9887 61.0769 25.5547C61.1775 26.1207 61.2345 26.6622 61.2542 27.173L59.1783 27.5416L58.6102 24.343ZM59.8845 31.5186L59.332 28.4071L61.2501 28.0664C61.1628 29.8069 60.6106 31.0691 59.8845 31.5186ZM61.4779 30.9169C61.8644 30.1199 62.0936 29.083 62.1319 27.9098L63.9975 27.5785C63.6062 28.9594 62.7062 30.1583 61.4779 30.9169ZM64.1249 25.0134C64.2235 25.5686 64.2381 26.1197 64.1786 26.6536L62.125 27.0183C62.1005 26.4964 62.0406 25.9547 61.9423 25.401C61.8439 24.8474 61.7137 24.3182 61.5569 23.8197L63.6106 23.455C63.8503 23.9359 64.0263 24.4582 64.1249 25.0134ZM61.2565 22.9804C60.8166 21.8921 60.2444 20.9975 59.6072 20.3824C61.0215 20.6717 62.2792 21.4874 63.1221 22.6491L61.2565 22.9804Z" fill="#394F6F"/>
<path d="M55.4452 21.1215L62.6434 24.6122L74.6454 -0.137362L51.2418 14.3147L55.4452 21.1215ZM54.7912 24.1286L56.19 32.0054L62.5752 30.8714L62.7869 24.3897L54.7912 24.1286ZM52.9256 24.4599L45.2287 22.2788L41.7455 34.5705L54.3244 32.3367L52.9256 24.4599ZM52.7445 25.3847L51.3457 17.5079L45.456 18.5539L44.7937 24.4989L52.7445 25.3847ZM54.7981 25.02L62.7893 24.645L62.3626 15.5515L53.3993 17.1432L54.7981 25.02ZM55.3662 28.2186L56.765 36.0954L65.7282 34.5036L62.9979 25.8192L55.3662 28.2186ZM53.3125 28.5833L46.1529 32.1525L48.8217 37.506L54.7113 36.4601L53.3125 28.5833ZM53.801 29.3893L52.4022 21.5125L39.823 23.7464L47.3258 34.0873L53.801 29.3893ZM55.6666 29.058L63.0835 26.0597L60.6529 20.0473L54.2677 21.1812L55.6666 29.058ZM57.3159 31.656L55.713 39.4938L82.6633 45.0054L62.8722 25.9003L57.3159 31.656ZM59.0192 31.6722L57.4074 39.5082L68.9578 41.8839L66.8959 30.2734L59.0192 31.6722ZM56.5484 28.9013L55.1496 21.0246L45.2575 22.7813L49.185 32.0286L56.5484 28.9013ZM58.4666 28.5607L66.3433 27.1619L64.9445 19.2851L57.0678 20.6839L58.4666 28.5607ZM58.3129 27.6954L59.7117 35.5721L67.5885 34.1733L66.1897 26.2966L58.3129 27.6954ZM56.237 28.064L48.6253 30.5261L50.7711 37.1599L57.6358 35.9408L56.237 28.064ZM55.669 24.8654L54.2702 16.9886L47.4062 18.2076L47.6749 25.1738L55.669 24.8654ZM57.7449 24.4967L65.6216 23.0979L64.2228 15.2212L56.3461 16.62L57.7449 24.4967ZM57.5912 23.6313L58.99 31.5081L66.8668 30.1093L65.468 22.2325L57.5912 23.6313ZM55.673 23.972L47.6831 23.5712L47.1798 33.6054L57.0718 31.8487L55.673 23.972ZM57.0386 20.5197L64.9154 19.1209L62.8535 7.51046L52.8274 13.7179L57.0386 20.5197ZM57.904 20.3661L59.5157 12.5301L47.9654 10.1544L50.0272 21.7649L57.904 20.3661ZM60.3747 23.137L61.7735 31.0138L71.6656 29.2571L67.7381 20.0097L60.3747 23.137ZM58.4566 23.4776L50.5798 24.8764L51.9786 32.7532L59.8554 31.3544L58.4566 23.4776ZM58.6102 24.343L57.2114 16.4662L49.3347 17.8651L50.7335 25.7418L58.6102 24.343ZM60.6862 23.9743L68.2979 21.5123L66.1522 14.8785L59.2874 16.0976L60.6862 23.9743ZM61.2542 27.173L62.653 35.0497L69.517 33.8308L69.2483 26.8646L61.2542 27.173ZM59.1783 27.5416L51.3015 28.9404L52.7003 36.8172L60.5771 35.4184L59.1783 27.5416ZM59.8845 31.5186L52.0078 32.9174L54.0696 44.5279L64.0957 38.3205L59.8845 31.5186ZM59.332 28.4071L57.9332 20.5303L50.0564 21.9291L51.4552 29.8059L59.332 28.4071ZM61.2501 28.0664L69.2401 28.4672L69.7435 18.4329L59.8513 20.1897L61.2501 28.0664ZM61.4779 30.9169L54.2797 27.4262L42.2769 52.1775L65.6815 37.7235L61.4779 30.9169ZM62.1319 27.9098L60.7331 20.0331L54.3479 21.167L54.1362 27.6486L62.1319 27.9098ZM63.9975 27.5785L71.6944 29.7598L75.1779 17.4679L62.5987 19.7018L63.9975 27.5785ZM64.1786 26.6536L65.5774 34.5304L71.4671 33.4845L72.1294 27.5394L64.1786 26.6536ZM62.125 27.0183L54.1338 27.3933L54.5605 36.4869L63.5238 34.8951L62.125 27.0183ZM61.5569 23.8197L60.1581 15.943L51.1948 17.5347L53.9252 26.2191L61.5569 23.8197ZM63.6106 23.455L70.7703 19.886L68.1016 14.5323L62.2117 15.5783L63.6106 23.455ZM61.2565 22.9804L53.8396 25.9787L56.2702 31.9911L62.6554 30.8572L61.2565 22.9804ZM59.6072 20.3824L61.2101 12.5446L34.2578 7.0326L54.0512 26.1383L59.6072 20.3824ZM63.1221 22.6491L64.5209 30.5259L77.1001 28.292L69.5973 17.9511L63.1221 22.6491ZM55.9034 11.6137C47.9532 13.0256 42.6442 20.6272 44.0561 28.5774L59.8096 25.7798C59.9429 26.5301 59.4512 27.234 58.701 27.3672L55.9034 11.6137ZM44.0561 28.5774C45.4679 36.5275 53.0696 41.8365 61.0198 40.4246L58.2222 24.6711C58.9725 24.5379 59.6764 25.0295 59.8096 25.7798L44.0561 28.5774ZM61.0198 40.4246C68.97 39.0128 74.2789 31.4111 72.8671 23.4609L57.1135 26.2585C56.9803 25.5083 57.472 24.8044 58.2222 24.6711L61.0198 40.4246ZM72.8671 23.4609C71.4552 15.5106 63.8534 10.2019 55.9034 11.6137L58.701 27.3672C57.9508 27.5005 57.2468 27.0089 57.1135 26.2585L72.8671 23.4609ZM48.2469 17.6308C47.2507 19.6851 46.8601 21.8874 46.7954 23.8675L62.7869 24.3897C62.7918 24.2395 62.807 24.1744 62.8034 24.1909C62.8011 24.2013 62.7917 24.242 62.7691 24.3093C62.7467 24.3761 62.7077 24.4797 62.6434 24.6122L48.2469 17.6308ZM53.3924 16.2519L51.5268 16.5832L54.3244 32.3367L56.19 32.0054L53.3924 16.2519ZM60.6225 26.641C60.4718 27.173 60.1322 27.6296 59.6485 27.9283L51.2418 14.3147C48.3016 16.1304 46.1621 18.9849 45.2287 22.2788L60.6225 26.641ZM60.675 25.6261C60.7126 25.838 60.7191 26.0566 60.6953 26.2705L44.7937 24.4989C44.6509 25.7807 44.6866 27.1014 44.9215 28.4237L60.675 25.6261ZM54.1433 33.2614L56.1969 32.8967L53.3993 17.1432L51.3457 17.5079L54.1433 33.2614ZM46.8069 25.395C46.8478 26.2665 46.9467 27.1501 47.1041 28.0361L62.8576 25.2385C62.8183 25.0172 62.7974 24.8174 62.7893 24.645L46.8069 25.395ZM47.1041 28.0361C47.2614 28.9221 47.4728 29.7858 47.7345 30.618L62.9979 25.8192C62.9461 25.6545 62.8969 25.4598 62.8576 25.2385L47.1041 28.0361ZM53.9674 20.3419L51.9137 20.7065L54.7113 36.4601L56.765 36.0954L53.9674 20.3419ZM60.4722 25.0141C60.5682 25.2067 60.6373 25.4142 60.675 25.6261L44.9215 28.4237C45.1563 29.7461 45.5775 30.9983 46.1529 32.1525L60.4722 25.0141ZM55.1998 37.266L57.0654 36.9347L54.2677 21.1812L52.4022 21.5125L55.1998 37.266ZM48.2497 32.0563C48.9921 33.8928 50.1171 35.826 51.7597 37.4118L62.8722 25.9003C62.9781 26.0026 63.0505 26.0865 63.0945 26.1415C63.139 26.1969 63.1617 26.2318 63.1674 26.2408C63.1765 26.255 63.1398 26.1991 63.0835 26.0597L48.2497 32.0563ZM58.9189 23.8183C59.4756 23.9321 59.9515 24.2437 60.2762 24.6912L47.3258 34.0873C49.3362 36.8583 52.3276 38.8015 55.713 39.4938L58.9189 23.8183ZM60.6309 23.8363C61.6058 24.0368 62.3191 24.4117 62.7591 24.6998C63.2053 24.9921 63.4908 25.2727 63.6448 25.4421C63.9408 25.7677 63.9779 25.9296 63.9118 25.774L49.185 32.0286C49.8002 33.477 50.6544 34.9385 51.8064 36.2055C52.8625 37.3671 54.7142 38.9543 57.4074 39.5082L60.6309 23.8363ZM57.9472 36.7781L59.8654 36.4374L57.0678 20.6839L55.1496 21.0246L57.9472 36.7781ZM50.5898 29.9595L51.1424 33.0711L66.8959 30.2734L66.3433 27.1619L50.5898 29.9595ZM56.9141 19.8186L54.8382 20.1873L57.6358 35.9408L59.7117 35.5721L56.9141 19.8186ZM63.8487 25.6019C63.8067 25.4721 63.7612 25.2998 63.723 25.0848L47.9695 27.8825C48.1324 28.7996 48.3527 29.6833 48.6253 30.5261L63.8487 25.6019ZM63.723 25.0848C63.6848 24.8694 63.6683 24.6921 63.663 24.557L47.6749 25.1738C47.7091 26.0601 47.8068 26.966 47.9695 27.8825L63.723 25.0848ZM57.0678 32.7422L59.1437 32.3735L56.3461 16.62L54.2702 16.9886L57.0678 32.7422ZM49.8681 25.8955L50.4362 29.0942L66.1897 26.2966L65.6216 23.0979L49.8681 25.8955ZM56.1924 15.7546L54.2742 16.0952L57.0718 31.8487L58.99 31.5081L56.1924 15.7546ZM63.663 24.3727C63.6715 24.2038 63.6924 24.3687 63.5266 24.7763C63.4403 24.9883 63.2689 25.3501 62.9506 25.7781C62.6367 26.2001 62.0961 26.7977 61.2498 27.3216L52.8274 13.7179C50.4896 15.1653 49.2976 17.2929 48.706 18.7472C48.0607 20.3334 47.7619 21.9995 47.6831 23.5712L63.663 24.3727ZM49.1619 21.9186L49.7144 25.0301L65.468 22.2325L64.9154 19.1209L49.1619 21.9186ZM56.2923 28.202C55.3173 28.0015 54.6041 27.6266 54.1641 27.3385C53.7178 27.0462 53.4323 26.7656 53.2783 26.5962C52.9823 26.2706 52.9452 26.1087 53.0113 26.2643L67.7381 20.0097C67.123 18.5613 66.2688 17.0999 65.1168 15.8328C64.0606 14.6712 62.2089 13.0841 59.5157 12.5301L56.2923 28.202ZM58.9759 15.2602L57.0578 15.6009L59.8554 31.3544L61.7735 31.0138L58.9759 15.2602ZM66.3333 22.0788L65.7807 18.9673L50.0272 21.7649L50.5798 24.8764L66.3333 22.0788ZM60.0091 32.2198L62.085 31.8511L59.2874 16.0976L57.2114 16.4662L60.0091 32.2198ZM53.0745 26.4364C53.1165 26.5662 53.162 26.7386 53.2002 26.9535L68.9537 24.1559C68.7908 23.2388 68.5705 22.3551 68.2979 21.5123L53.0745 26.4364ZM53.2002 26.9535C53.2385 27.169 53.255 27.3462 53.2602 27.4814L69.2483 26.8646C69.2141 25.9782 69.1165 25.0724 68.9537 24.1559L53.2002 26.9535ZM59.8554 19.2962L57.7795 19.6649L60.5771 35.4184L62.653 35.0497L59.8554 19.2962ZM67.055 26.1428L66.487 22.9442L50.7335 25.7418L51.3015 28.9404L67.055 26.1428ZM67.7613 30.1198L67.2087 27.0082L51.4552 29.8059L52.0078 32.9174L67.7613 30.1198ZM60.7308 36.2838L62.6489 35.9432L59.8513 20.1897L57.9332 20.5303L60.7308 36.2838ZM53.2602 27.6656C53.2517 27.8345 53.2308 27.6697 53.3966 27.2621C53.4828 27.0501 53.6542 26.6883 53.9725 26.2603C54.2864 25.8383 54.827 25.2407 55.6733 24.7167L64.0957 38.3205C66.4337 36.8731 67.6256 34.7453 68.2172 33.2911C68.8624 31.705 69.1612 30.0388 69.2401 28.4672L53.2602 27.6656ZM68.6762 34.4076C69.6724 32.3533 70.063 30.151 70.1277 28.171L54.1362 27.6486C54.1313 27.7988 54.1161 27.8639 54.1197 27.8475C54.122 27.8371 54.1314 27.7964 54.154 27.7291C54.1764 27.6622 54.2154 27.5586 54.2797 27.4262L68.6762 34.4076ZM63.5308 35.7866L65.3963 35.4553L62.5987 19.7018L60.7331 20.0331L63.5308 35.7866ZM56.3006 25.3973C56.4514 24.8652 56.7911 24.4087 57.2744 24.1102L65.6815 37.7235C68.6214 35.9079 70.7609 33.0537 71.6944 29.7598L56.3006 25.3973ZM56.2481 26.4122C56.2105 26.2003 56.204 25.9817 56.2278 25.7679L72.1294 27.5394C72.2722 26.2576 72.2365 24.937 72.0016 23.6146L56.2481 26.4122ZM62.7798 18.7769L60.7262 19.1416L63.5238 34.8951L65.5774 34.5304L62.7798 18.7769ZM70.1162 26.6433C70.0753 25.7719 69.9764 24.8882 69.819 24.0022L54.0655 26.7998C54.1048 27.0212 54.1257 27.2209 54.1338 27.3933L70.1162 26.6433ZM69.819 24.0022C69.6617 23.1162 69.4503 22.2526 69.1886 21.4203L53.9252 26.2191C53.977 26.3838 54.0262 26.5785 54.0655 26.7998L69.819 24.0022ZM62.9557 31.6965L65.0094 31.3318L62.2117 15.5783L60.1581 15.943L62.9557 31.6965ZM56.4508 27.024C56.3549 26.8317 56.2858 26.6243 56.2481 26.4122L72.0016 23.6146C71.7668 22.2922 71.3456 21.0401 70.7703 19.886L56.4508 27.024ZM68.6734 19.9821C67.931 18.1456 66.806 16.2122 65.1632 14.6265L54.0512 26.1383C53.9451 26.036 53.8728 25.9521 53.8286 25.897C53.7842 25.8416 53.7614 25.8066 53.7557 25.7976C53.7466 25.7834 53.7833 25.8393 53.8396 25.9787L68.6734 19.9821ZM58.0043 28.2202C57.4477 28.1064 56.9717 27.7948 56.6469 27.3471L69.5973 17.9511C67.5867 15.1799 64.5953 13.2369 61.2101 12.5446L58.0043 28.2202ZM61.7233 14.7723L59.8577 15.1036L62.6554 30.8572L64.5209 30.5259L61.7233 14.7723Z" fill="#394F6F" mask="url(#path-4-inside-1_1466_181)"/>
<path d="M57.0521 14.7073L57.0522 14.7073L57.0521 14.7073Z" fill="#394F6F" stroke="#394F6F" stroke-width="8"/>
<mask id="path-7-inside-2_1466_181" fill="white">
<path d="M56.6875 16.029C51.1788 17.0072 47.4931 22.2847 48.4714 27.7932C48.9084 30.2541 50.2199 32.4416 52.1758 33.9835C51.9123 35.0486 51.2423 35.9796 50.3081 36.5658C50.1565 36.661 50.0777 36.8386 50.109 37.0149C50.1403 37.1912 50.2755 37.3308 50.4506 37.368C51.0961 37.5048 51.7551 37.5154 52.4089 37.3992C53.5798 37.1913 54.6305 36.59 55.3997 35.694C56.9548 36.1868 58.62 36.2962 60.2357 36.0093C65.7442 35.0311 69.43 29.7536 68.4517 24.245C67.4735 18.7364 62.196 15.0507 56.6875 16.029ZM60.082 35.1439C58.5121 35.4227 56.8914 35.292 55.3953 34.7659C55.3221 34.7402 55.2456 34.7348 55.1728 34.7478C55.0663 34.7667 54.9676 34.8248 54.8991 34.9153C54.2513 35.7713 53.3124 36.3461 52.2553 36.5339C52.0606 36.5684 51.8655 36.5895 51.6705 36.597C52.4042 35.8642 52.9077 34.9175 53.0959 33.8823C53.1258 33.718 53.0599 33.551 52.926 33.4513C51.0257 32.0364 49.751 29.9725 49.3368 27.6396C48.4432 22.6081 51.8097 17.7878 56.8411 16.8943C61.8726 16.0008 66.6929 19.3672 67.5864 24.3987C68.4799 29.4301 65.1134 34.2504 60.082 35.1439Z"/>
</mask>
<path d="M56.6875 16.029C51.1788 17.0072 47.4931 22.2847 48.4714 27.7932C48.9084 30.2541 50.2199 32.4416 52.1758 33.9835C51.9123 35.0486 51.2423 35.9796 50.3081 36.5658C50.1565 36.661 50.0777 36.8386 50.109 37.0149C50.1403 37.1912 50.2755 37.3308 50.4506 37.368C51.0961 37.5048 51.7551 37.5154 52.4089 37.3992C53.5798 37.1913 54.6305 36.59 55.3997 35.694C56.9548 36.1868 58.62 36.2962 60.2357 36.0093C65.7442 35.0311 69.43 29.7536 68.4517 24.245C67.4735 18.7364 62.196 15.0507 56.6875 16.029ZM60.082 35.1439C58.5121 35.4227 56.8914 35.292 55.3953 34.7659C55.3221 34.7402 55.2456 34.7348 55.1728 34.7478C55.0663 34.7667 54.9676 34.8248 54.8991 34.9153C54.2513 35.7713 53.3124 36.3461 52.2553 36.5339C52.0606 36.5684 51.8655 36.5895 51.6705 36.597C52.4042 35.8642 52.9077 34.9175 53.0959 33.8823C53.1258 33.718 53.0599 33.551 52.926 33.4513C51.0257 32.0364 49.751 29.9725 49.3368 27.6396C48.4432 22.6081 51.8097 17.7878 56.8411 16.8943C61.8726 16.0008 66.6929 19.3672 67.5864 24.3987C68.4799 29.4301 65.1134 34.2504 60.082 35.1439Z" fill="#394F6F"/>
<path d="M52.1758 33.9835L59.9418 35.9042L61.1806 30.8953L57.1285 27.7009L52.1758 33.9835ZM50.3081 36.5658L46.0558 29.7895L46.0518 29.792L50.3081 36.5658ZM50.4506 37.368L48.7902 45.1938L48.7915 45.1941L50.4506 37.368ZM55.3997 35.694L57.8165 28.0678L52.7748 26.47L49.3298 30.4829L55.3997 35.694ZM55.3953 34.7659L52.7407 42.3126L52.7414 42.3129L55.3953 34.7659ZM54.8991 34.9153L61.2783 39.7429L61.2794 39.7416L54.8991 34.9153ZM51.6705 36.597L46.017 30.9368L31.5557 45.381L51.9797 44.591L51.6705 36.597ZM53.0959 33.8823L60.9668 35.3137L60.9671 35.3125L53.0959 33.8823ZM52.926 33.4513L48.1485 39.8681L48.1489 39.8684L52.926 33.4513ZM55.2887 8.15221C45.4298 9.90301 38.8438 19.3332 40.5946 29.192L56.3481 26.3944C56.1424 25.2361 56.9278 24.1115 58.0863 23.9057L55.2887 8.15221ZM40.5946 29.192C41.3746 33.584 43.7266 37.5097 47.223 40.2661L57.1285 27.7009C56.7132 27.3735 56.4422 26.9241 56.3481 26.3944L40.5946 29.192ZM44.4098 32.0628C44.6417 31.1248 45.2254 30.3106 46.0558 29.7895L54.5604 43.3421C57.2591 41.6486 59.1829 38.9724 59.9418 35.9042L44.4098 32.0628ZM46.0518 29.792C43.1452 31.6184 41.6308 35.0266 42.2323 38.4137L57.9858 35.6161C58.5247 38.6506 57.1678 41.7037 54.5644 43.3396L46.0518 29.792ZM42.2323 38.4137C42.8337 41.8001 45.4291 44.4807 48.7902 45.1938L52.111 29.5422C55.1219 30.181 57.447 32.5822 57.9858 35.6161L42.2323 38.4137ZM48.7915 45.1941C50.4502 45.5457 52.1474 45.5709 53.8077 45.276L51.0101 29.5225C51.3627 29.4599 51.7421 29.464 52.1097 29.5419L48.7915 45.1941ZM53.8077 45.276C56.7972 44.7451 59.498 43.2017 61.4697 40.9051L49.3298 30.4829C49.7629 29.9783 50.3624 29.6375 51.0101 29.5225L53.8077 45.276ZM52.9829 43.3202C55.7743 44.2048 58.7488 44.3985 61.6345 43.8861L58.8368 28.1326C58.4911 28.194 58.1353 28.1688 57.8165 28.0678L52.9829 43.3202ZM61.6345 43.8861C71.4932 42.1353 78.0793 32.7051 76.3285 22.8462L60.575 25.6438C60.7807 26.8022 59.9952 27.9268 58.8368 28.1326L61.6345 43.8861ZM76.3285 22.8462C74.5777 12.9873 65.1474 6.40143 55.2887 8.15221L58.0863 23.9057C59.2447 23.7 60.3692 24.4854 60.575 25.6438L76.3285 22.8462ZM58.6832 27.2672C58.4623 27.3064 58.238 27.2853 58.0492 27.2189L52.7414 42.3129C55.5448 43.2987 58.5618 43.5391 61.4808 43.0207L58.6832 27.2672ZM58.0499 27.2192C56.6468 26.7256 55.1724 26.6227 53.774 26.871L56.5716 42.6245C55.3188 42.847 53.9975 42.7547 52.7407 42.3126L58.0499 27.2192ZM53.774 26.871C51.7339 27.2333 49.8356 28.3485 48.5189 30.0891L61.2794 39.7416C60.0997 41.3011 58.3986 42.3001 56.5716 42.6245L53.774 26.871ZM48.5199 30.0877C49.089 29.3358 49.9289 28.8218 50.8564 28.6571L53.6541 44.4106C56.6959 43.8704 59.4137 42.2069 61.2783 39.7429L48.5199 30.0877ZM50.8564 28.6571C51.0188 28.6283 51.1877 28.6097 51.3613 28.603L51.9797 44.591C52.5432 44.5692 53.1024 44.5086 53.6541 44.4106L50.8564 28.6571ZM57.324 42.2572C59.1948 40.3886 60.4833 37.9724 60.9668 35.3137L45.225 32.451C45.332 31.8625 45.6136 31.3397 46.017 30.9368L57.324 42.2572ZM60.9671 35.3125C61.5402 32.1582 60.2766 28.9499 57.7031 27.0341L48.1489 39.8684C45.8432 38.152 44.7114 35.2779 45.2248 32.4522L60.9671 35.3125ZM57.7035 27.0344C57.4379 26.8367 57.2716 26.5676 57.2135 26.2408L41.46 29.0384C42.2305 33.3773 44.6135 37.2361 48.1485 39.8681L57.7035 27.0344ZM57.2135 26.2408C57.0925 25.5595 57.5587 24.892 58.2399 24.771L55.4423 9.01752C46.0606 10.6836 39.7939 19.6568 41.46 29.0384L57.2135 26.2408ZM58.2399 24.771C58.9212 24.6501 59.5887 25.1162 59.7097 25.7975L75.4632 22.9998C73.7971 13.6183 64.824 7.35145 55.4423 9.01752L58.2399 24.771ZM59.7097 25.7975C59.8306 26.4787 59.3644 27.1462 58.6832 27.2672L61.4808 43.0207C70.8625 41.3546 77.1292 32.3815 75.4632 22.9998L59.7097 25.7975Z" fill="#394F6F" mask="url(#path-7-inside-2_1466_181)"/>
</g>
<g clip-path="url(#clip1_1466_181)">
<path d="M132.891 24.3925L114.723 28.2543C114.485 28.3048 114.334 28.5382 114.384 28.7756C114.435 29.0129 114.668 29.1645 114.906 29.114L133.074 25.2522C133.311 25.2018 133.463 24.9684 133.412 24.731C133.362 24.4936 133.129 24.3421 132.891 24.3925Z" fill="#394F6F"/>
<path d="M133.256 26.112L115.088 29.9738C114.851 30.0243 114.699 30.2576 114.75 30.495C114.8 30.7324 115.033 30.884 115.271 30.8335L133.439 26.9717C133.677 26.9213 133.828 26.6879 133.778 26.4505C133.727 26.2131 133.494 26.0616 133.256 26.112Z" fill="#394F6F"/>
<path d="M114.175 25.6753L122.4 23.9272C122.637 23.8767 122.788 23.6433 122.738 23.4059C122.688 23.1685 122.454 23.017 122.217 23.0675L113.992 24.8156C113.755 24.8661 113.603 25.0994 113.654 25.3368C113.704 25.5742 113.938 25.7258 114.175 25.6753Z" fill="#394F6F"/>
<path d="M132.16 20.9538L123.936 22.702C123.698 22.7524 123.547 22.9858 123.597 23.2232C123.648 23.4606 123.881 23.6121 124.118 23.5617L132.343 21.8135C132.58 21.763 132.732 21.5297 132.681 21.2923C132.631 21.0549 132.398 20.9033 132.16 20.9538Z" fill="#394F6F"/>
<path d="M114.54 27.3946L122.765 25.6464C123.002 25.5959 123.154 25.3626 123.103 25.1252C123.053 24.8878 122.819 24.7362 122.582 24.7867L114.358 26.5349C114.12 26.5853 113.969 26.8187 114.019 27.0561C114.07 27.2935 114.303 27.445 114.54 27.3946Z" fill="#394F6F"/>
<path d="M132.525 22.6732L124.301 24.4213C124.064 24.4718 123.912 24.7052 123.962 24.9425C124.013 25.1799 124.246 25.3315 124.484 25.281L132.708 23.5329C132.946 23.4824 133.097 23.249 133.047 23.0116C132.996 22.7743 132.763 22.6227 132.525 22.6732Z" fill="#394F6F"/>
<path d="M129.786 9.77767L111.617 13.6395C111.38 13.6899 111.228 13.9233 111.279 14.1607L113.106 22.7577C113.157 22.9951 113.39 23.1466 113.627 23.0962L131.796 19.2344C132.033 19.1839 132.185 18.9505 132.134 18.7132L130.307 10.1162C130.256 9.87876 130.023 9.72721 129.786 9.77767ZM122.611 15.7954L120.62 16.2187C120.219 13.9657 120.61 12.6265 120.884 12.5683C121.158 12.51 122.06 13.5742 122.611 15.7954ZM119.759 16.4015L117.771 16.8242C117.618 15.2761 118.395 13.8031 119.694 13.0335C119.488 13.9415 119.542 15.19 119.759 16.4015ZM119.942 17.2612C120.237 18.4563 120.695 19.619 121.252 20.3649C119.752 20.1901 118.443 19.1606 117.954 17.6839L119.942 17.2612ZM120.802 17.0784L122.794 16.6551C123.194 18.9082 122.803 20.2473 122.529 20.3056C122.255 20.3638 121.353 19.2996 120.802 17.0784ZM123.654 16.4723L125.642 16.0497C125.796 17.5978 125.018 19.0708 123.72 19.8404C123.925 18.9324 123.871 17.6839 123.654 16.4723ZM123.471 15.6126C123.176 14.4175 122.718 13.2548 122.161 12.509C123.661 12.6838 124.97 13.7133 125.459 15.19L123.471 15.6126ZM113.875 22.1451L112.23 14.4078L118.171 13.1451C117.135 14.2601 116.639 15.844 116.978 17.442C117.318 19.0399 118.416 20.2848 119.815 20.8824L113.875 22.1451ZM131.183 18.466L125.242 19.7288C126.278 18.6137 126.775 17.0298 126.435 15.4319C126.095 13.8339 124.997 12.5891 123.598 11.9915L129.539 10.7287L131.183 18.466Z" fill="#394F6F"/>
<path d="M129.237 7.19857L111.069 11.0604C110.831 11.1108 110.68 11.3442 110.73 11.5816C110.78 11.819 111.014 11.9705 111.251 11.9201L129.42 8.05827C129.657 8.00781 129.809 7.77444 129.758 7.53705C129.708 7.29966 129.474 7.14811 129.237 7.19857Z" fill="#394F6F"/>
<path d="M128.872 5.47921L110.703 9.34101C110.466 9.39146 110.314 9.62483 110.365 9.86222C110.415 10.0996 110.649 10.2512 110.886 10.2007L129.054 6.33891C129.292 6.28845 129.443 6.05508 129.393 5.81769C129.342 5.5803 129.109 5.42875 128.872 5.47921Z" fill="#394F6F"/>
<path d="M135.646 3.53012L134.356 3.80422L134.082 2.51467C134.031 2.27728 133.798 2.12573 133.561 2.17619L132.271 2.45029L131.997 1.16074C131.947 0.923352 131.713 0.771802 131.476 0.822261L106.43 6.14594C106.192 6.1964 106.041 6.42976 106.091 6.66715L111.781 33.4325C112.032 34.6176 113.201 35.3768 114.387 35.1249L139.433 29.8012C140.618 29.5493 141.377 28.3803 141.125 27.1951L136.167 3.8686C136.116 3.63121 135.883 3.47966 135.646 3.53012ZM114.204 34.2652C113.493 34.4163 112.791 33.9608 112.64 33.2497L107.042 6.91427L131.229 1.77333L136.826 28.1088C136.929 28.5922 137.185 29.0048 137.531 29.3068L114.204 34.2652ZM140.265 27.3779C140.416 28.089 139.961 28.7904 139.25 28.9415C139.099 28.9735 138.949 28.978 138.804 28.959C139.267 28.6752 139.525 28.121 139.406 27.5606L134.813 5.95347C134.762 5.71608 134.529 5.56453 134.292 5.61499C134.054 5.66545 133.903 5.89882 133.953 6.13621L138.546 27.7433C138.596 27.9804 138.444 28.2142 138.207 28.2646C137.97 28.3149 137.737 28.1631 137.686 27.9261L132.454 3.30999L133.314 3.12726L133.588 4.41681C133.638 4.6542 133.871 4.80575 134.109 4.75529L135.398 4.48119L140.265 27.3779Z" fill="#394F6F"/>
</g>
<g clip-path="url(#clip2_1466_181)">
<path d="M161.447 45.0187C161.689 44.9972 161.867 44.7838 161.846 44.542C161.825 44.3003 161.611 44.1217 161.369 44.1432C161.128 44.1647 160.949 44.3781 160.971 44.6199C160.992 44.8616 161.205 45.0402 161.447 45.0187Z" fill="#394F6F"/>
<path d="M177.425 55.8728L171.01 45.417C172.352 44.989 173.269 43.6742 173.139 42.2146C173.053 41.2492 172.198 40.5335 171.233 40.6194C170.418 40.6917 169.782 41.3116 169.654 42.0833L163.208 42.6563C162.993 42.4552 162.744 42.2904 162.473 42.1701C162.743 41.8295 162.889 41.3895 162.848 40.9236C162.762 39.9581 161.907 39.2425 160.941 39.3283C159.976 39.4141 159.26 40.2694 159.346 41.2349C159.387 41.7008 159.608 42.1082 159.934 42.3958C159.688 42.5621 159.473 42.7681 159.297 43.0039L152.851 43.577C152.589 42.8399 151.853 42.3421 151.039 42.4145C150.073 42.5003 149.358 43.3556 149.443 44.3211C149.573 45.7806 150.708 46.913 152.104 47.0977L147.634 58.521C147.61 58.5842 147.6 58.6524 147.606 58.72C147.756 60.4096 149.253 61.6619 150.942 61.5117L157.129 60.9618C158.818 60.8116 160.071 59.3149 159.92 57.6253C159.914 57.5577 159.893 57.4923 159.857 57.4344L153.487 47.0499L159.608 46.5058C159.679 46.5719 159.753 46.6341 159.831 46.6921L161.146 61.487C160.422 61.5514 159.885 62.1928 159.95 62.9169C159.998 63.4587 160.369 63.8954 160.856 64.0541C160.451 64.4311 160.131 64.8695 159.828 65.2843C159.153 66.2105 158.569 67.0103 157.236 67.1289L155.923 67.2456C154.716 67.3529 153.821 68.422 153.929 69.6288C153.95 69.8705 154.163 70.0491 154.405 70.0276L172.79 68.3933C173.031 68.3718 173.21 68.1584 173.189 67.9167C173.081 66.7098 172.012 65.8153 170.805 65.9226L169.492 66.0393C168.159 66.1579 167.443 65.4735 166.615 64.681C166.244 64.3261 165.852 63.9509 165.386 63.6514C165.838 63.4093 166.126 62.9139 166.078 62.3722C166.014 61.648 165.372 61.1113 164.648 61.1757L163.333 46.3808C163.399 46.31 163.461 46.2357 163.519 46.1581L169.641 45.6139L165.202 56.9593C165.177 57.0226 165.167 57.0907 165.173 57.1583C165.324 58.8479 166.82 60.1002 168.51 59.95L174.696 59.4001C176.386 59.2499 177.638 57.7532 177.488 56.0636C177.482 55.996 177.46 55.9306 177.425 55.8728ZM157.051 60.0863L150.864 60.6363C149.808 60.7302 148.857 60.0556 148.564 59.076L152.051 58.766C152.293 58.7445 152.471 58.5311 152.45 58.2894C152.428 58.0477 152.215 57.8691 151.973 57.8906L148.711 58.1806L152.469 48.5766L153.325 58.2116C153.347 58.4533 153.56 58.6319 153.802 58.6104L159.04 58.1448C158.925 59.1606 158.108 59.9924 157.051 60.0863ZM158.737 57.2893L154.162 57.696L153.344 48.4988L158.737 57.2893ZM159.01 45.6766L152.702 46.2373C151.495 46.3446 150.426 45.4501 150.319 44.2432C150.276 43.7605 150.634 43.3329 151.117 43.29C151.599 43.247 152.027 43.6049 152.07 44.0876C152.091 44.3293 152.305 44.5079 152.546 44.4864L158.854 43.9257C158.782 44.2083 158.754 44.5076 158.782 44.8145C158.809 45.1214 158.889 45.4112 159.01 45.6766ZM161.019 40.2037C161.502 40.1608 161.929 40.5187 161.972 41.0014C162.015 41.4841 161.657 41.9117 161.175 41.9547C160.692 41.9976 160.264 41.6398 160.221 41.157C160.178 40.6743 160.536 40.2467 161.019 40.2037ZM170.883 66.798C171.454 66.7473 171.973 67.07 172.199 67.5634L154.84 69.1066C154.975 68.581 155.43 68.1718 156 68.1211L170.883 66.798ZM166.008 65.3161C166.341 65.635 166.692 65.9701 167.097 66.2522L159.631 66.916C159.98 66.5668 160.266 66.175 160.538 65.8023C161.214 64.8761 161.797 64.0763 163.131 63.9577C164.464 63.8392 165.179 64.5236 166.008 65.3161ZM165.202 62.45C165.224 62.6914 165.045 62.9052 164.804 62.9266L161.302 63.2379C161.06 63.2594 160.847 63.0805 160.825 62.8391C160.804 62.5977 160.983 62.3839 161.224 62.3625L164.726 62.0512C164.967 62.0297 165.181 62.2086 165.202 62.45ZM162.022 61.4092L160.753 47.1346C161.035 47.2074 161.335 47.2347 161.641 47.2074C161.948 47.1801 162.238 47.1005 162.504 46.979L163.773 61.2535L162.022 61.4092ZM161.564 46.3319C160.598 46.4178 159.743 45.7021 159.657 44.7367C159.571 43.7712 160.287 42.9159 161.252 42.8301C162.218 42.7443 163.073 43.4599 163.159 44.4254C163.245 45.3908 162.529 46.2461 161.564 46.3319ZM176.305 55.7276L171.729 56.1344L170.912 46.9371L176.305 55.7276ZM163.962 45.2364C164.034 44.9537 164.062 44.6544 164.034 44.3475C164.007 44.0407 163.928 43.7509 163.806 43.4855L170.114 42.9247C170.356 42.9032 170.534 42.6898 170.513 42.4481C170.47 41.9654 170.828 41.5377 171.31 41.4948C171.793 41.4519 172.221 41.8097 172.264 42.2924C172.371 43.4993 171.476 44.5684 170.27 44.6756L163.962 45.2364ZM170.036 47.0149L170.854 56.2122L166.279 56.6189L170.036 47.0149ZM174.618 58.5246L168.432 59.0746C167.375 59.1686 166.424 58.494 166.132 57.5143L176.607 56.5831C176.492 57.5989 175.675 58.4307 174.618 58.5246Z" fill="#394F6F"/>
</g>
<g clip-path="url(#clip3_1466_181)">
<path d="M173.736 117.11C174.907 117.418 176.112 116.716 176.42 115.545C176.729 114.373 176.027 113.169 174.855 112.86C173.684 112.551 172.479 113.253 172.171 114.425C171.862 115.597 172.564 116.801 173.736 117.11ZM174.631 113.71C175.334 113.895 175.755 114.618 175.57 115.321C175.385 116.024 174.663 116.445 173.96 116.26C173.257 116.074 172.835 115.352 173.021 114.649C173.206 113.946 173.928 113.525 174.631 113.71Z" fill="#394F6F"/>
<path d="M155.173 109.947C154.864 111.118 155.566 112.322 156.738 112.631C157.909 112.94 159.113 112.238 159.422 111.066C159.731 109.895 159.029 108.69 157.857 108.382C156.686 108.073 155.481 108.775 155.173 109.947ZM158.572 110.842C158.387 111.545 157.664 111.966 156.962 111.781C156.259 111.596 155.837 110.873 156.023 110.17C156.208 109.468 156.93 109.046 157.633 109.231C158.336 109.417 158.757 110.139 158.572 110.842Z" fill="#394F6F"/>
<path d="M179.821 116.44C180.447 114.064 179.473 111.635 177.568 110.302C178.888 109.942 179.987 108.909 180.36 107.493C180.422 107.259 180.282 107.018 180.047 106.957L156.25 100.687C156.015 100.625 155.775 100.765 155.713 101C155.34 102.415 155.787 103.856 156.758 104.819C154.444 105.041 152.4 106.674 151.774 109.051C151.11 111.571 152.245 114.15 154.382 115.42C153.905 115.704 153.534 116.168 153.382 116.746C153.112 117.772 153.617 118.823 154.533 119.276L151.693 130.056C151.631 130.29 151.772 130.531 152.006 130.592L169.004 135.071C169.239 135.133 169.479 134.993 169.541 134.758L172.381 123.978C173.402 124.036 174.359 123.37 174.63 122.344C174.782 121.766 174.688 121.18 174.413 120.697C176.898 120.645 179.157 118.961 179.821 116.44ZM156.481 101.657L179.368 107.686C178.782 109.072 177.248 109.855 175.752 109.46L158.754 104.982C157.258 104.588 156.309 103.151 156.481 101.657ZM156.905 130.974L154.355 130.302L156.288 122.965C156.473 122.262 157.196 121.841 157.899 122.026C158.602 122.211 159.023 122.934 158.838 123.637L156.905 130.974ZM162.004 132.318L159.454 131.646L161.388 124.308C161.573 123.605 162.295 123.184 162.998 123.369C163.701 123.555 164.122 124.277 163.937 124.98L162.004 132.318ZM167.103 133.661L164.554 132.989L166.487 125.652C166.672 124.949 167.395 124.528 168.098 124.713C168.801 124.898 169.222 125.621 169.037 126.324L167.103 133.661ZM168.803 134.109L167.953 133.885L169.887 126.548C170.195 125.376 169.493 124.172 168.322 123.863C167.15 123.554 165.946 124.256 165.637 125.428L163.704 132.765L162.854 132.542L164.787 125.204C165.096 124.032 164.394 122.828 163.222 122.52C162.051 122.211 160.846 122.913 160.538 124.084L158.604 131.422L157.755 131.198L159.688 123.861C159.996 122.689 159.294 121.485 158.123 121.176C156.951 120.867 155.747 121.569 155.438 122.741L153.505 130.078L152.655 129.855L155.372 119.542L171.52 123.797L168.803 134.109ZM172.169 123.059L155.171 118.581C154.468 118.395 154.047 117.673 154.232 116.97C154.417 116.267 155.14 115.846 155.843 116.031L172.841 120.509C173.544 120.694 173.965 121.417 173.78 122.12C173.595 122.823 172.872 123.244 172.169 123.059ZM163.538 114.423C163.772 114.484 164.013 114.344 164.075 114.11L164.41 112.835L165.26 113.059L164.924 114.333C164.739 115.036 164.017 115.458 163.314 115.272C162.611 115.087 162.19 114.365 162.375 113.662L162.711 112.387L163.561 112.611L163.225 113.886C163.163 114.12 163.303 114.361 163.538 114.423ZM163.09 116.122C163.784 116.305 164.49 116.133 165.014 115.719C165.266 116.338 165.795 116.835 166.489 117.018C167.34 117.242 168.208 116.933 168.738 116.298C168.968 117.266 169.448 118.159 170.124 118.884L159.007 115.956C159.953 115.657 160.811 115.117 161.488 114.388C161.636 115.202 162.239 115.898 163.09 116.122ZM166.937 115.318C167.172 115.38 167.412 115.24 167.474 115.005L167.81 113.73L168.66 113.954L168.324 115.229C168.139 115.932 167.416 116.353 166.713 116.168C166.01 115.983 165.589 115.26 165.774 114.557L166.11 113.283L166.96 113.506L166.624 114.781C166.562 115.016 166.703 115.256 166.937 115.318ZM173.065 119.659C170.487 118.98 168.943 116.331 169.622 113.753C169.684 113.519 169.924 113.379 170.159 113.44C170.393 113.502 170.533 113.743 170.472 113.977C169.916 116.086 171.18 118.254 173.289 118.809C175.398 119.365 177.565 118.101 178.121 115.992C178.676 113.884 177.413 111.716 175.304 111.16L160.006 107.13C159.771 107.068 159.531 107.208 159.469 107.443C159.407 107.677 159.547 107.918 159.782 107.98L175.08 112.01C176.72 112.442 177.703 114.128 177.271 115.769C176.839 117.409 175.153 118.392 173.513 117.959C171.872 117.527 170.889 115.841 171.322 114.201C171.507 113.498 171.086 112.776 170.383 112.59C169.829 112.444 169.263 112.675 168.957 113.124L162.861 111.518C162.816 110.977 162.438 110.497 161.884 110.351C161.181 110.166 160.458 110.587 160.273 111.29C159.841 112.93 158.155 113.913 156.514 113.481C154.874 113.049 153.891 111.363 154.324 109.723C154.756 108.082 156.442 107.1 158.082 107.532C158.317 107.594 158.557 107.454 158.619 107.219C158.681 106.984 158.541 106.744 158.306 106.682C156.197 106.126 154.029 107.39 153.474 109.499C152.918 111.608 154.182 113.775 156.291 114.331C158.399 114.887 160.567 113.623 161.123 111.514C161.185 111.28 161.425 111.139 161.66 111.201C161.894 111.263 162.034 111.504 161.973 111.738C161.294 114.315 158.644 115.86 156.067 115.181C153.489 114.502 151.945 111.852 152.624 109.275C153.303 106.697 155.952 105.153 158.53 105.832L175.528 110.31C178.105 110.989 179.65 113.639 178.971 116.216C178.292 118.794 175.642 120.338 173.065 119.659Z" fill="#394F6F"/>
</g>
<g clip-path="url(#clip4_1466_181)">
<path d="M122.678 150.772L122.623 150.124C123.542 149.859 124.112 148.919 123.905 147.972C123.729 147.167 123.029 146.588 122.232 146.535C121.552 144.146 119.114 142.664 116.655 143.201C114.193 143.738 112.594 146.108 112.978 148.567C112.276 148.942 111.88 149.758 112.055 150.56C112.261 151.504 113.171 152.117 114.113 151.969L114.338 152.593C115.067 154.617 117.203 155.796 119.306 155.336C121.409 154.877 122.859 152.915 122.678 150.772ZM119.118 154.478C117.444 154.843 115.745 153.905 115.164 152.295L114.81 151.313C114.735 151.106 114.52 150.986 114.305 151.032L114.033 151.09C113.526 151.201 113.024 150.879 112.914 150.372C112.811 149.903 113.087 149.425 113.542 149.278L113.58 149.269C113.694 149.243 113.792 149.172 113.854 149.073C113.916 148.973 113.935 148.853 113.908 148.739L113.902 148.716C113.898 148.698 113.894 148.68 113.89 148.663C113.435 146.579 114.759 144.514 116.843 144.059C118.926 143.604 120.991 144.929 121.446 147.012C121.449 147.026 121.451 147.039 121.454 147.052L121.459 147.077C121.482 147.193 121.551 147.295 121.65 147.359C121.748 147.424 121.869 147.446 121.984 147.42L122.006 147.415C122.488 147.36 122.942 147.684 123.046 148.16C123.158 148.674 122.831 149.183 122.318 149.295L122.06 149.351C121.844 149.398 121.697 149.598 121.715 149.817L121.802 150.846C121.946 152.551 120.792 154.112 119.118 154.478Z" fill="#394F6F"/>
<path d="M119.58 150.418C119.342 150.47 119.192 150.704 119.244 150.941C119.347 151.415 119.046 151.884 118.573 151.988C118.099 152.091 117.63 151.79 117.527 151.317C117.475 151.079 117.241 150.929 117.004 150.981C116.766 151.033 116.616 151.267 116.668 151.504C116.875 152.451 117.813 153.053 118.76 152.846C119.707 152.639 120.309 151.701 120.103 150.754C120.051 150.517 119.817 150.367 119.58 150.418Z" fill="#394F6F"/>
<path d="M112.465 157.244L111.51 152.871C111.283 151.834 110.355 151.128 109.333 151.142L108.855 148.952C108.625 147.903 107.677 147.193 106.64 147.225C106.466 146.809 106.169 146.457 105.776 146.213C105.268 145.897 104.668 145.803 104.087 145.946C102.943 146.229 102.221 147.412 102.477 148.584L105.179 160.955C105.348 161.729 105.74 162.427 106.313 162.973L113.407 169.737L113.165 171.996C112.165 172.375 111.564 173.442 111.799 174.518C111.851 174.755 112.085 174.906 112.322 174.854L122.197 172.697C122.434 172.645 122.584 172.411 122.533 172.174L120.731 163.923C120.505 162.891 119.891 162.008 119.002 161.438L112.465 157.244ZM106.872 148.113C107.41 148.181 107.874 148.58 107.996 149.14L109.333 155.261C109.385 155.498 109.619 155.649 109.856 155.597C110.093 155.545 110.243 155.311 110.191 155.074L109.527 152.032C110.065 152.1 110.529 152.498 110.651 153.058L111.425 156.603C110.995 156.406 110.514 156.353 110.043 156.456C109.573 156.558 109.158 156.807 108.849 157.166L106.872 148.113ZM121.58 171.932L112.638 173.885C112.706 173.347 113.105 172.884 113.665 172.761L121.393 171.074L121.58 171.932L121.58 171.932ZM121.205 170.215L114.073 171.773L114.304 169.615C114.318 169.48 114.269 169.345 114.17 169.251L106.92 162.337C106.474 161.912 106.169 161.369 106.037 160.767L103.335 148.396C103.18 147.685 103.612 146.969 104.298 146.799C104.647 146.713 105.007 146.77 105.312 146.96C105.617 147.149 105.827 147.447 105.903 147.798L108.366 159.071C108.491 159.644 108.832 160.135 109.326 160.452L116.629 165.137C116.833 165.268 117.105 165.208 117.236 165.004C117.367 164.8 117.308 164.528 117.104 164.397L109.8 159.712C109.504 159.522 109.299 159.227 109.224 158.883C109.149 158.539 109.212 158.187 109.403 157.89C109.593 157.594 109.887 157.389 110.231 157.314C110.575 157.239 110.928 157.302 111.224 157.492L118.527 162.178C119.219 162.621 119.697 163.308 119.872 164.11L121.205 170.215Z" fill="#394F6F"/>
<path d="M129.223 140.456C128.634 140.568 128.128 140.905 127.798 141.404C127.544 141.789 127.42 142.233 127.435 142.684C126.479 143.087 125.913 144.127 126.142 145.177L126.621 147.367C125.686 147.78 125.136 148.808 125.363 149.845L126.318 154.219L122.124 160.756C121.554 161.645 121.364 162.703 121.589 163.735L123.391 171.986C123.443 172.224 123.677 172.374 123.914 172.322L133.789 170.165C134.026 170.114 134.176 169.879 134.125 169.642C133.89 168.566 132.899 167.847 131.832 167.919L130.67 165.967L134.298 156.861C134.591 156.126 134.657 155.328 134.488 154.554L131.786 142.182C131.53 141.011 130.38 140.237 129.223 140.456ZM127.001 144.989C126.879 144.429 127.134 143.874 127.595 143.587L129.572 152.64C129.275 152.504 128.954 152.436 128.629 152.441L127.001 144.989ZM126.221 149.658C126.099 149.098 126.354 148.542 126.815 148.256L127.77 152.629C127.472 152.76 127.209 152.955 126.996 153.203L126.221 149.658ZM131.697 168.823C132.256 168.701 132.812 168.956 133.099 169.417L124.156 171.37L123.969 170.511L131.697 168.823ZM133.629 154.741C133.761 155.343 133.71 155.964 133.481 156.536L129.773 165.843C129.723 165.97 129.734 166.113 129.804 166.23L130.913 168.095L123.781 169.652L122.448 163.548C122.273 162.745 122.42 161.922 122.864 161.23L127.549 153.927C127.739 153.631 128.033 153.426 128.378 153.351C128.722 153.276 129.074 153.339 129.371 153.529C129.667 153.719 129.872 154.014 129.947 154.358C130.022 154.702 129.959 155.054 129.768 155.351L125.083 162.654C124.952 162.858 125.012 163.13 125.216 163.261C125.42 163.392 125.692 163.333 125.823 163.129L130.508 155.825C130.825 155.331 130.931 154.743 130.805 154.17L128.343 142.897C128.267 142.546 128.334 142.188 128.532 141.888C128.73 141.589 129.033 141.387 129.387 141.32C130.081 141.188 130.772 141.659 130.927 142.37L133.629 154.741Z" fill="#394F6F"/>
</g>
<g clip-path="url(#clip5_1466_181)">
<path d="M30.2386 54.0293L28.4904 54.2133C28.249 54.2387 28.074 54.455 28.0994 54.6964L28.2374 56.0075L22.1189 56.6517L21.9808 55.3405C21.965 55.1904 21.8732 55.0588 21.7377 54.9921L15.8353 52.0906L15.6613 50.4382L16.6106 50.3382C16.8445 50.8279 17.3688 51.1422 17.9385 51.0822L18.8126 50.9902C19.054 50.9647 19.2291 50.7485 19.2037 50.5071L18.9889 48.4676C18.9635 48.2262 18.7473 48.0511 18.5059 48.0766L17.1199 48.2225C16.8859 47.7328 16.3614 47.4186 15.7916 47.4786L14.9176 47.5706C14.6762 47.596 14.5011 47.8122 14.5265 48.0536L14.9612 52.1826L9.79254 56.2497C9.67388 56.3431 9.61144 56.491 9.62725 56.6411L9.76528 57.9523L3.64675 58.5964L3.50872 57.2853C3.4833 57.0439 3.26703 56.8689 3.02567 56.8943L1.27752 57.0783C1.03616 57.1037 0.861074 57.32 0.886491 57.5614L3.09505 78.5392C3.12047 78.7806 3.33674 78.9556 3.5781 78.9302L32.5391 75.8812C32.7806 75.8558 32.9556 75.6395 32.9302 75.3981L30.7216 54.4203C30.6962 54.1789 30.48 54.0039 30.2386 54.0293ZM17.2868 49.0887L18.1609 48.9967L18.2836 50.1621L17.8465 50.2081C17.6055 50.2335 17.3889 50.0581 17.3635 49.8171L17.2868 49.0887ZM15.4466 48.3986L15.8837 48.3526C16.1247 48.3273 16.3413 48.5026 16.3667 48.7437L16.4434 49.4721L15.5693 49.5641L15.4466 48.3986ZM1.80658 57.9064L2.68065 57.8144L2.77268 58.6884L1.8986 58.7805L1.80658 57.9064ZM11.7898 77.1819L3.92311 78.0101L3.64704 75.3879L11.5137 74.5597L11.7898 77.1819ZM11.4217 73.6856L3.55502 74.5138L2.35872 63.1508L10.2254 62.3226L11.4217 73.6856ZM10.1334 61.4486L2.26669 62.2768L1.99062 59.6545L9.8573 58.8263L10.1334 61.4486ZM21.5212 76.1574L14.412 76.9058L14.32 76.0318L21.4291 75.2833L21.5212 76.1574ZM21.3371 74.4092L14.228 75.1577L14.1359 74.2836L15.9424 74.0934C16.1837 74.068 16.3588 73.8518 16.3334 73.6104C16.308 73.369 16.0917 73.194 15.8503 73.2194L14.0439 73.4095L13.2157 65.5429L16.3333 65.2146L17.2075 73.5184C17.2329 73.7598 17.4492 73.9348 17.6905 73.9094L21.2451 73.5352L21.3371 74.4092ZM21.1531 72.6611L18.0355 72.9893L17.2073 65.1226L20.3249 64.7944L21.1531 72.6611ZM23.2693 75.9733L22.3952 76.0654L21.1529 64.2653C21.1275 64.0239 20.9113 63.8489 20.6699 63.8743L12.6867 64.7148C12.4453 64.7402 12.2702 64.9564 12.2956 65.1978L13.5379 76.9979L12.6639 77.0899L10.5267 56.7905L15.4781 52.8945L21.1322 55.6739L23.2693 75.9733ZM32.0101 75.0531L24.1434 75.8813L23.8673 73.2591L31.734 72.4309L32.0101 75.0531ZM31.642 71.5568L23.7753 72.385L22.579 61.022L30.4457 60.1938L31.642 71.5568ZM30.3537 59.3198L22.487 60.148L22.2109 57.5257L30.0776 56.6975L30.3537 59.3198ZM29.9856 55.8234L29.1115 55.9155L29.0195 55.0414L29.8935 54.9494L29.9856 55.8234Z" fill="#394F6F"/>
<path d="M4.77411 73.5016L6.52226 73.3176C6.76362 73.2922 6.9387 73.0759 6.91328 72.8345L6.54519 69.3382C6.51977 69.0968 6.3035 68.9218 6.06214 68.9472L4.31399 69.1312C4.07263 69.1566 3.89755 69.3729 3.92296 69.6143L4.29106 73.1106C4.31647 73.352 4.53275 73.527 4.77411 73.5016ZM4.84305 69.9593L5.71713 69.8673L5.9932 72.4895L5.11912 72.5815L4.84305 69.9593Z" fill="#394F6F"/>
<path d="M8.2702 73.1337L10.0184 72.9496C10.2597 72.9242 10.4348 72.708 10.4094 72.4666L10.0413 68.9703C10.0159 68.7289 9.7996 68.5539 9.55824 68.5793L7.81008 68.7633C7.56872 68.7887 7.39364 69.0049 7.41906 69.2464L7.78715 72.7427C7.81257 72.9841 8.02884 73.1591 8.2702 73.1337ZM8.33915 69.5914L9.21322 69.4994L9.48929 72.1216L8.61522 72.2136L8.33915 69.5914Z" fill="#394F6F"/>
<path d="M4.22137 68.2572L5.96952 68.0732C6.21089 68.0478 6.38597 67.8316 6.36055 67.5901L5.99246 64.0938C5.96704 63.8524 5.75077 63.6774 5.50941 63.7028L3.76126 63.8868C3.5199 63.9123 3.34481 64.1285 3.37023 64.3699L3.73832 67.8662C3.76374 68.1076 3.98001 68.2826 4.22137 68.2572ZM4.29032 64.7149L5.16439 64.6229L5.44046 67.2451L4.56639 67.3371L4.29032 64.7149Z" fill="#394F6F"/>
<path d="M7.71747 67.8891L9.46562 67.705C9.70698 67.6796 9.88206 67.4634 9.85664 67.222L9.48855 63.7257C9.46313 63.4842 9.24686 63.3092 9.0055 63.3346L7.25735 63.5187C7.01599 63.5441 6.84091 63.7603 6.86632 64.0017L7.23442 67.498C7.25983 67.7395 7.47611 67.9145 7.71747 67.8891ZM7.78641 64.3467L8.66049 64.2547L8.93656 66.877L8.06248 66.969L7.78641 64.3467Z" fill="#394F6F"/>
<path d="M24.9948 71.3729L26.743 71.1889C26.9844 71.1635 27.1594 70.9473 27.134 70.7059L26.7659 67.2096C26.7405 66.9681 26.5243 66.7931 26.2828 66.8185L24.5347 67.0026C24.2933 67.028 24.1183 67.2442 24.1437 67.4856L24.5118 70.9819C24.5372 71.2233 24.7534 71.3984 24.9948 71.3729ZM25.0638 67.8306L25.9378 67.7386L26.2139 70.3608L25.3398 70.4529L25.0638 67.8306Z" fill="#394F6F"/>
<path d="M28.4909 71.0048L30.2391 70.8207C30.4805 70.7953 30.6555 70.5791 30.6301 70.3377L30.262 66.8414C30.2366 66.6 30.0204 66.4249 29.7789 66.4504L28.0308 66.6344C27.7894 66.6598 27.6143 66.876 27.6398 67.1175L28.0079 70.6138C28.0333 70.8552 28.2495 71.0302 28.4909 71.0048ZM28.5598 67.4625L29.4339 67.3704L29.71 69.9927L28.8359 70.0847L28.5598 67.4625Z" fill="#394F6F"/>
<path d="M24.4421 66.1286L26.1902 65.9445C26.4316 65.9191 26.6067 65.7029 26.5813 65.4615L26.2132 61.9652C26.1877 61.7237 25.9715 61.5487 25.7301 61.5741L23.982 61.7582C23.7405 61.7836 23.5655 61.9998 23.5909 62.2412L23.959 65.7375C23.9844 65.979 24.2007 66.154 24.4421 66.1286ZM24.511 62.5863L25.3851 62.4942L25.6612 65.1165L24.7871 65.2085L24.511 62.5863Z" fill="#394F6F"/>
<path d="M27.9382 65.7604L29.6863 65.5764C29.9277 65.5509 30.1028 65.3347 30.0773 65.0933L29.7093 61.597C29.6838 61.3556 29.4676 61.1806 29.2262 61.206L27.4781 61.39C27.2366 61.4154 27.0616 61.6317 27.087 61.8731L27.4551 65.3694C27.4805 65.6108 27.6968 65.7858 27.9382 65.7604ZM28.0071 62.2181L28.8812 62.1261L29.1573 64.7483L28.2832 64.8403L28.0071 62.2181Z" fill="#394F6F"/>
<path d="M17.4601 63.3284L20.5776 63.0002C20.8191 62.9747 20.9941 62.7585 20.9687 62.5171L20.5806 58.8314C20.4648 57.7309 19.4752 56.9299 18.3747 57.0457C17.2742 57.1616 16.4732 58.1511 16.589 59.2517L16.9771 62.9374C17.0025 63.1788 17.2187 63.3538 17.4601 63.3284ZM17.4631 59.1596C17.398 58.5411 17.8482 57.9849 18.4667 57.9198C19.0852 57.8547 19.6414 58.305 19.7066 58.9234L19.8645 60.4239L17.6211 60.6601L17.4631 59.1596ZM17.7131 61.5342L19.9566 61.298L20.0486 62.1721L17.8051 62.4083L17.7131 61.5342Z" fill="#394F6F"/>
<path d="M13.5095 57.5582C12.409 57.6741 11.6079 58.6636 11.7238 59.7641L12.1118 63.4498C12.1372 63.6912 12.3535 63.8662 12.5949 63.8408L15.7124 63.5126C15.9538 63.4872 16.1289 63.271 16.1034 63.0296L15.7154 59.3439C15.5995 58.2434 14.61 57.4423 13.5095 57.5582ZM15.1833 62.6845L12.9399 62.9207L12.8479 62.0467L15.0913 61.8105L15.1833 62.6845ZM14.9993 60.9364L12.7558 61.1726L12.5979 59.6721C12.5328 59.0536 12.983 58.4974 13.6015 58.4323C14.22 58.3672 14.7762 58.8174 14.8413 59.4359L14.9993 60.9364Z" fill="#394F6F"/>
</g>
<g clip-path="url(#clip6_1466_181)">
<path d="M38.6782 112.407L34.7764 113.112C34.4253 111.539 33.7356 110.12 32.7986 108.919L33.9254 107.966L34.542 108.695C34.2687 109.163 34.3038 109.774 34.6739 110.211L35.2417 110.882C35.3985 111.067 35.6758 111.09 35.861 110.933L37.4265 109.609C37.6118 109.452 37.6348 109.175 37.478 108.989L36.5777 107.925C36.851 107.456 36.8157 106.846 36.4456 106.409L35.8778 105.738C35.7211 105.553 35.4438 105.529 35.2585 105.686L32.23 108.249C31.1707 107.101 29.8683 106.198 28.4226 105.607L28.922 104.217L29.8203 104.539C29.8182 105.082 30.1536 105.593 30.6928 105.787L31.5199 106.084C31.7483 106.166 32 106.047 32.082 105.819L32.7754 103.889C32.8574 103.66 32.7388 103.409 32.5104 103.327L31.1987 102.855C31.201 102.313 30.8652 101.802 30.326 101.608L29.4989 101.311C29.2704 101.229 29.0188 101.348 28.9367 101.576L27.5958 105.309C26.1429 104.851 24.5727 104.701 22.9765 104.923L22.7143 103.472L23.6536 103.302C23.9231 103.773 24.4691 104.048 25.0329 103.946L25.8978 103.79C26.1367 103.746 26.2952 103.518 26.2521 103.279L25.8875 101.261C25.8444 101.022 25.6158 100.863 25.3769 100.907L24.0055 101.154C23.736 100.683 23.1898 100.409 22.626 100.51L21.7611 100.667C21.5222 100.71 21.3636 100.938 21.4067 101.177L22.1116 105.079C20.5821 105.421 19.1486 106.097 17.9177 107.055L16.9658 105.93L17.6944 105.313C18.1633 105.587 18.7735 105.552 19.2108 105.182L19.8817 104.614C20.067 104.457 20.0901 104.18 19.9333 103.994L18.6085 102.429C18.4517 102.244 18.1744 102.221 17.9892 102.377L16.9253 103.278C16.4564 103.004 15.8461 103.04 15.4087 103.41L14.7378 103.978C14.5525 104.134 14.5294 104.412 14.6862 104.597L17.2467 107.622C16.0982 108.681 15.1928 109.985 14.6029 111.431L14.4969 111.393L13.2166 110.933L13.5393 110.035C14.082 110.037 14.593 109.702 14.7866 109.163L15.0838 108.335C15.1658 108.107 15.0472 107.855 14.8188 107.773L12.8887 107.08C12.6603 106.998 12.4087 107.117 12.3266 107.345L11.8554 108.657C11.3126 108.654 10.8017 108.99 10.608 109.529L10.3109 110.356C10.2288 110.585 10.3475 110.837 10.5759 110.919L14.7103 112.404C14.9395 112.485 15.1902 112.367 15.2723 112.139C15.677 111.016 16.28 109.994 17.0359 109.112L17.4672 109.034C17.9441 108.948 18.4022 109.266 18.4883 109.743C18.5745 110.219 18.2566 110.678 17.7797 110.764C17.5409 110.807 17.3822 111.035 17.4254 111.274L18.217 115.657C18.2601 115.895 18.1011 116.124 17.8627 116.167C17.6242 116.21 17.3952 116.051 17.3521 115.813C17.3089 115.574 17.0803 115.415 16.8415 115.458L14.7091 115.844C14.6784 115.15 14.722 114.457 14.8406 113.771C14.8819 113.532 14.7216 113.304 14.4824 113.263C14.2434 113.222 14.0159 113.382 13.9745 113.621C13.7883 114.698 13.771 115.792 13.922 116.879L12.4715 117.141L12.3018 116.202C12.7729 115.932 13.0476 115.386 12.9458 114.823L12.7895 113.958C12.7464 113.719 12.5178 113.56 12.279 113.603L10.2608 113.968C10.0219 114.011 9.86335 114.24 9.9065 114.478L10.1543 115.85C9.68313 116.119 9.40848 116.666 9.51033 117.229L9.66658 118.094C9.70972 118.333 9.93827 118.492 10.1772 118.449L14.0789 117.744C14.43 119.317 15.1197 120.735 16.0567 121.936L14.93 122.89L14.3134 122.161C14.5866 121.692 14.5515 121.082 14.1814 120.645L13.6137 119.974C13.4569 119.788 13.1796 119.765 12.9944 119.922L11.4289 121.247C11.2436 121.404 11.2206 121.681 11.3773 121.866L12.2777 122.93C12.0043 123.399 12.0396 124.009 12.4098 124.447L12.9775 125.118C13.1343 125.303 13.4116 125.326 13.5968 125.169L16.6253 122.606C17.6847 123.754 18.987 124.658 20.4327 125.249L19.9334 126.639L19.035 126.316C19.0372 125.773 18.7017 125.262 18.1626 125.069L17.3355 124.772C17.107 124.69 16.8554 124.808 16.7733 125.037L16.08 126.967C15.998 127.195 16.1166 127.447 16.345 127.529L17.6566 128C17.6544 128.543 17.9901 129.054 18.5294 129.247L19.3565 129.545C19.5849 129.627 19.8366 129.508 19.9186 129.28L21.2596 125.547C22.7125 126.004 24.2827 126.154 25.8789 125.933L26.141 127.384L25.2017 127.554C24.9323 127.083 24.3863 126.808 23.8225 126.91L22.9576 127.066C22.7188 127.109 22.5601 127.338 22.6033 127.576L22.9678 129.595C23.011 129.833 23.2396 129.992 23.4784 129.949L24.8499 129.701C25.1193 130.172 25.6656 130.447 26.2294 130.345L27.0943 130.189C27.3332 130.146 27.4918 129.917 27.4486 129.678L26.7438 125.777C28.3166 125.425 29.7351 124.736 30.936 123.799L31.8896 124.925L31.1609 125.542C30.692 125.269 30.0818 125.304 29.6445 125.674L28.9737 126.242C28.7884 126.398 28.7653 126.676 28.9221 126.861L30.2469 128.426C30.4037 128.612 30.6809 128.635 30.8662 128.478L31.9301 127.578C32.399 127.851 33.0093 127.816 33.4467 127.446L34.1176 126.878C34.3029 126.721 34.326 126.444 34.1692 126.259L31.6063 123.23C32.754 122.171 33.6578 120.868 34.2486 119.423L35.6388 119.922L35.3161 120.82C34.7734 120.818 34.2624 121.154 34.0688 121.693L33.7716 122.52C33.6896 122.748 33.8082 123 34.0366 123.082L35.9667 123.775C36.1951 123.857 36.4467 123.739 36.5288 123.51L37 122.199C37.5427 122.201 38.0537 121.865 38.2474 121.326L38.5445 120.499C38.6266 120.27 38.5079 120.019 38.2795 119.937L34.5468 118.596C35.0043 117.143 35.1541 115.573 34.9328 113.977L36.3838 113.714L36.5535 114.654C36.0824 114.923 35.8077 115.469 35.9095 116.033L36.0658 116.898C36.1089 117.137 36.3375 117.295 36.5763 117.252L38.5945 116.888C38.8333 116.844 38.9919 116.616 38.9488 116.377L38.701 115.006C39.1722 114.736 39.4468 114.19 39.345 113.626L39.1887 112.761C39.1456 112.522 38.917 112.364 38.6782 112.407ZM36.5232 109.222L35.6287 109.979L35.3448 109.643C35.1883 109.458 35.2114 109.18 35.3964 109.024L35.9554 108.551L36.5232 109.222ZM35.4908 106.641L35.7747 106.977C35.9312 107.162 35.9081 107.439 35.7231 107.596L35.164 108.069L34.5963 107.398L35.4908 106.641ZM30.7249 104.397L30.9725 103.708L31.7996 104.005L31.4034 105.108L30.9899 104.96C30.7618 104.878 30.6429 104.625 30.7249 104.397ZM29.6153 102.287L30.0289 102.435C30.2569 102.517 30.3758 102.769 30.2939 102.997L30.0462 103.687L29.2191 103.39L29.6153 102.287ZM24.2358 102.006L25.1007 101.85L25.3091 103.003L24.8766 103.081C24.6381 103.124 24.4091 102.965 24.366 102.727L24.2358 102.006ZM22.3498 101.453L22.7822 101.375C23.0207 101.332 23.2497 101.491 23.2928 101.73L23.423 102.45L22.5581 102.607L22.3498 101.453ZM18.2215 103.332L18.9785 104.227L18.6431 104.511C18.4581 104.667 18.1803 104.644 18.0237 104.459L17.5506 103.9L18.2215 103.332ZM13.0052 108.056L14.108 108.452L13.9595 108.866C13.8775 109.094 13.6253 109.212 13.3973 109.131L12.708 108.883L13.0052 108.056ZM11.4352 109.827C11.5171 109.598 11.7693 109.48 11.9973 109.562L12.6866 109.809L12.3895 110.636L11.2866 110.24L11.4352 109.827ZM11.6066 117.297L10.4534 117.506L10.3752 117.073C10.3322 116.835 10.4911 116.606 10.7296 116.563L11.4503 116.432L11.6066 117.297ZM11.7265 115.489L11.0058 115.62L10.8495 114.755L12.0027 114.546L12.0809 114.979C12.1239 115.217 11.965 115.446 11.7265 115.489ZM12.3321 121.634L13.2266 120.877L13.5105 121.212C13.6671 121.397 13.6439 121.675 13.4589 121.832L12.8999 122.305L12.3321 121.634ZM13.3645 124.214L13.0806 123.879C12.9241 123.694 12.9473 123.416 13.1322 123.26L13.6913 122.787L14.259 123.457L13.3645 124.214ZM18.1304 126.458L17.8828 127.147L17.0557 126.85L17.4519 125.747L17.8655 125.896C18.0935 125.978 18.2124 126.23 18.1304 126.458ZM19.24 128.569L18.8264 128.42C18.5984 128.338 18.4795 128.086 18.5615 127.858L18.8091 127.169L19.6362 127.466L19.24 128.569ZM24.6195 128.85L23.7546 129.006L23.5462 127.853L23.9787 127.775C24.2172 127.731 24.4462 127.89 24.4893 128.129L24.6195 128.85ZM26.5055 129.402L26.0731 129.48C25.8346 129.523 25.6056 129.364 25.5625 129.126L25.4323 128.405L26.2972 128.249L26.5055 129.402ZM30.6338 127.523L29.8768 126.629L30.2123 126.345C30.3973 126.188 30.675 126.211 30.8316 126.396L31.3047 126.956L30.6338 127.523ZM33.2143 126.491L32.8789 126.775C32.6939 126.931 32.4161 126.908 32.2595 126.723L31.7864 126.164L32.4573 125.596L33.2143 126.491ZM36.4658 120.219L37.5687 120.615L37.4202 121.029C37.3382 121.257 37.086 121.376 36.858 121.294L36.1687 121.046L36.4658 120.219ZM35.8501 122.8L34.7473 122.404L34.8958 121.99C34.9778 121.762 35.2299 121.643 35.458 121.725L36.1473 121.973L35.8501 122.8ZM33.9993 113.699C34.0788 114.139 34.1265 114.577 34.1454 115.012L32.4462 115.319C32.2077 115.362 31.9787 115.203 31.9356 114.965L31.7794 114.1C31.7362 113.861 31.5077 113.702 31.2688 113.745L29.9714 113.98L29.7371 112.682C29.6939 112.443 29.4654 112.285 29.2265 112.328L27.0642 112.719C26.8257 112.762 26.5967 112.603 26.5536 112.364L26.3974 111.499L28.5597 111.109C28.7985 111.066 28.9571 110.837 28.914 110.598L28.6692 109.243C28.54 108.528 29.0169 107.841 29.7322 107.711L30.2232 107.623C32.1402 109.045 33.5424 111.17 33.9993 113.699ZM24.6195 105.702C24.3642 106.441 23.7218 107.011 22.9329 107.153C22.1448 107.296 21.3445 106.988 20.8467 106.386C21.4393 106.15 22.059 105.972 22.6985 105.856C23.3444 105.739 23.9871 105.69 24.6195 105.702ZM15.641 104.365L15.9764 104.081C16.1614 103.924 16.4392 103.947 16.5958 104.132L17.0689 104.691L16.398 105.259L15.641 104.365ZM15.5025 119.296C15.5778 119.267 15.6559 119.245 15.7367 119.231L18.7639 118.684C19.4793 118.554 20.1664 119.031 20.2956 119.747C20.4249 120.462 19.948 121.149 19.2327 121.278C19.0495 121.312 18.907 121.456 18.877 121.64L18.6191 123.223C17.2777 122.224 16.1894 120.881 15.5025 119.296ZM24.2358 125.153C24.4911 124.414 25.1335 123.845 25.9224 123.702C26.7113 123.56 27.5125 123.869 28.0102 124.471C27.422 124.704 26.8026 124.883 26.1568 124.999C25.5109 125.116 24.8682 125.165 24.2358 125.153ZM28.8315 124.101C28.1522 123.135 26.9493 122.623 25.7661 122.837C24.583 123.051 23.6351 123.951 23.3367 125.093C21.9343 124.934 20.602 124.471 19.4219 123.762L19.6985 122.064C20.7151 121.723 21.3568 120.676 21.1606 119.591C20.9452 118.398 19.8 117.603 18.6077 117.819L15.5805 118.366C15.446 118.39 15.316 118.427 15.1906 118.474C15.0506 118.049 14.9378 117.61 14.856 117.157C14.8299 117.012 14.8071 116.868 14.7876 116.723L16.6395 116.388C16.9089 116.859 17.4552 117.134 18.019 117.032C18.7344 116.903 19.2112 116.216 19.082 115.5L18.3586 111.496C19.069 111.169 19.4987 110.391 19.3533 109.586C19.2208 108.853 18.6482 108.308 17.9569 108.173C18.5817 107.616 19.2769 107.14 20.0261 106.758C20.7057 107.722 21.9073 108.232 23.0892 108.018C24.2723 107.805 25.2202 106.904 25.5187 105.762C26.8262 105.911 28.073 106.323 29.1922 106.953C28.2189 107.319 27.613 108.34 27.8043 109.399L27.971 110.322L25.8087 110.713C25.5698 110.756 25.4112 110.984 25.4544 111.223L25.6887 112.521C25.818 113.236 26.5051 113.713 27.2205 113.584L28.9503 113.271L29.1065 114.136L25.2144 114.839C24.0221 115.054 23.2274 116.2 23.4428 117.392C23.6389 118.478 24.6062 119.234 25.6779 119.198L26.9544 121.432C27.323 122.078 28.062 122.422 28.7933 122.29C29.5246 122.158 30.0964 121.577 30.2159 120.843L30.6758 118.021C30.6838 117.971 30.6834 117.921 30.6745 117.872L30.1277 114.845L30.9926 114.688L31.0707 115.121C31.1999 115.836 31.8871 116.313 32.6024 116.184L34.1436 115.905C33.9724 119.393 31.9193 122.531 28.8315 124.101ZM29.2628 115.001L29.7962 117.954L29.3484 120.702C29.2887 121.069 29.0028 121.359 28.6371 121.425C28.2714 121.491 27.9019 121.319 27.7176 120.996L26.2991 118.513C26.2068 118.352 26.0225 118.266 25.8394 118.299C25.1241 118.428 24.4369 117.951 24.3077 117.236C24.1785 116.52 24.6553 115.833 25.3707 115.704L29.2628 115.001ZM38.0058 116.101L36.8526 116.309L36.7744 115.877C36.7314 115.638 36.8903 115.409 37.1288 115.366L37.8495 115.236L38.0058 116.101ZM38.4801 113.782C38.5231 114.021 38.3642 114.25 38.1257 114.293L37.405 114.423L37.2487 113.558L38.4019 113.35L38.4801 113.782Z" fill="#394F6F"/>
<path d="M26.0848 109.77C26.3237 109.726 26.4823 109.498 26.4391 109.259L26.2829 108.394C26.2397 108.155 26.0112 107.997 25.7723 108.04C25.5334 108.083 25.3748 108.311 25.418 108.55L25.5742 109.415C25.6174 109.654 25.8459 109.813 26.0848 109.77Z" fill="#394F6F"/>
<path d="M31.9988 118.105C31.7593 118.066 31.5335 118.228 31.4944 118.468L31.3446 119.388C31.3363 119.439 31.3371 119.489 31.3457 119.537C31.3779 119.715 31.5189 119.862 31.7077 119.893C31.7584 119.901 31.8086 119.9 31.8564 119.891C32.0345 119.859 32.1813 119.718 32.212 119.529L32.3619 118.609C32.3702 118.558 32.3694 118.508 32.3607 118.46C32.3285 118.282 32.1875 118.136 31.9988 118.105Z" fill="#394F6F"/>
</g>
<g clip-path="url(#clip7_1466_181)">
<path d="M72.8624 145.008L69.389 143.994C69.4736 142.975 68.8331 142.001 67.8145 141.703L66.9708 141.457C66.2746 141.254 66.0941 140.977 65.6117 140.238C64.994 139.292 64.0604 137.861 61.8036 137.202C59.5468 136.544 57.9903 137.248 56.9603 137.713C56.156 138.077 55.8551 138.213 55.1589 138.01L54.3152 137.764C53.1521 137.424 51.9298 138.094 51.5903 139.257C51.5223 139.49 51.6561 139.734 51.8891 139.802L72.6162 145.852C73.314 146.055 73.716 146.789 73.5124 147.486L69.786 160.255C69.3107 161.883 67.5994 162.821 65.9712 162.346L59.9889 160.6C60.4642 158.176 59.0162 155.738 56.5997 155.033C54.1833 154.328 51.6514 155.604 50.7482 157.903L44.766 156.157C43.1377 155.682 42.1996 153.97 42.6748 152.342L46.4012 139.574C46.6049 138.876 47.3383 138.474 48.0361 138.678L50.2017 139.31C50.4346 139.378 50.6786 139.244 50.7466 139.011C50.8146 138.778 50.6809 138.534 50.4479 138.466L48.2824 137.834C47.1193 137.495 45.897 138.165 45.5575 139.328L39.615 159.689C39.2755 160.852 39.9456 162.075 41.1086 162.414L65.6887 169.588C66.8517 169.927 68.0741 169.257 68.4135 168.094L74.3561 147.733C74.6955 146.57 74.0255 145.347 72.8624 145.008ZM54.2446 139.574L52.6294 139.103C52.9468 138.663 53.519 138.447 54.069 138.607L54.4908 138.731L54.2446 139.574ZM57.2505 140.452C57.5309 140.349 57.7935 140.23 58.0467 140.116C58.9577 139.704 59.7444 139.348 61.0649 139.734C62.3853 140.119 62.8572 140.842 63.4036 141.679C63.5555 141.912 63.713 142.153 63.8942 142.39L57.2505 140.452ZM66.0624 143.001C65.0508 142.594 64.6243 141.942 64.1396 141.199C63.5791 140.34 62.9436 139.366 61.3111 138.89C59.6786 138.413 58.6192 138.892 57.6846 139.315C56.8765 139.68 56.1659 140.001 55.0942 139.8L55.3417 138.952C56.0892 139.072 56.5813 138.849 57.3225 138.514C58.3428 138.053 59.6127 137.479 61.5573 138.046C63.502 138.614 64.2636 139.781 64.8757 140.719C65.3202 141.4 65.6155 141.852 66.3099 142.153L66.0624 143.001ZM66.9002 143.268L67.1464 142.424L67.5683 142.547C68.1183 142.708 68.4845 143.197 68.5153 143.739L66.9002 143.268ZM59.1412 160.352L57.1898 159.783C57.4965 158.591 57.6437 157.35 57.5062 156.429C58.7441 157.293 59.4095 158.82 59.1412 160.352ZM56.9435 160.627L58.895 161.196C58.2969 162.632 56.9147 163.561 55.4063 163.624C56.0176 162.922 56.561 161.797 56.9435 160.627ZM56.3535 155.877C56.6224 155.955 56.9129 157.32 56.3457 159.537L54.3914 158.966C55.1057 156.792 56.0846 155.798 56.3535 155.877ZM56.0994 160.38C55.3851 162.554 54.4063 163.548 54.1374 163.47C53.8685 163.391 53.5779 162.027 54.1452 159.81L56.0994 160.38ZM55.0846 155.722C54.4734 156.425 53.9299 157.55 53.5473 158.72L51.5959 158.15C52.1939 156.714 53.5761 155.785 55.0846 155.722ZM53.3011 159.564C52.9944 160.756 52.8472 161.997 52.9846 162.917C51.7467 162.053 51.0813 160.526 51.3497 158.994L53.3011 159.564ZM67.5698 167.848C67.3662 168.546 66.6327 168.948 65.9349 168.744L64.6693 168.375L64.7925 167.953C64.8605 167.72 64.7268 167.476 64.4937 167.408C64.2607 167.34 64.0167 167.474 63.9488 167.707L63.8256 168.129L43.4642 162.186L43.5873 161.764C43.6553 161.531 43.5215 161.287 43.2885 161.219C43.0556 161.151 42.8116 161.285 42.7436 161.518L42.6204 161.94L41.3549 161.57C40.657 161.367 40.255 160.633 40.4587 159.936L41.9794 154.725C42.3713 155.662 43.1186 156.443 44.1049 156.854L43.9748 157.299C43.9068 157.532 44.0405 157.776 44.2735 157.844C44.5065 157.912 44.7505 157.779 44.8185 157.546L44.9416 157.124L50.502 158.747C50.0267 161.171 51.4746 163.608 53.8911 164.314C56.3076 165.019 58.8395 163.743 59.7427 161.444L65.3031 163.066L65.1799 163.488C65.1119 163.721 65.2456 163.965 65.4787 164.033C65.7117 164.101 65.9557 163.967 66.0237 163.734L66.1538 163.289C67.2062 163.473 68.256 163.217 69.0906 162.637L67.5698 167.848Z" fill="#394F6F"/>
<path d="M44.0273 158.688C43.7943 158.62 43.5503 158.754 43.4823 158.987L43.2361 159.831C43.1681 160.063 43.3019 160.307 43.5348 160.375C43.7678 160.443 44.0118 160.31 44.0798 160.077L44.3261 159.233C44.3941 159 44.2603 158.756 44.0273 158.688Z" fill="#394F6F"/>
<path d="M65.2324 164.877C64.9994 164.809 64.7554 164.943 64.6874 165.176L64.4412 166.019C64.3732 166.252 64.5069 166.496 64.7399 166.564C64.973 166.632 65.2169 166.498 65.2849 166.265L65.5311 165.422C65.5991 165.189 65.4654 164.945 65.2324 164.877Z" fill="#394F6F"/>
</g>
<defs>
<clipPath id="clip0_1466_181">
<rect width="30" height="30" fill="white" transform="translate(45 8.24561) rotate(-10.07)"/>
</clipPath>
<clipPath id="clip1_1466_181">
<rect width="30" height="30" fill="white" transform="translate(106 6.2373) rotate(-12)"/>
</clipPath>
<clipPath id="clip2_1466_181">
<rect width="30" height="30" fill="white" transform="translate(146 40.6565) rotate(-5.08)"/>
</clipPath>
<clipPath id="clip3_1466_181">
<rect width="30" height="30" fill="white" transform="translate(153.643 100) rotate(14.76)"/>
</clipPath>
<clipPath id="clip4_1466_181">
<rect width="30" height="30" fill="white" transform="translate(102 146.401) rotate(-12.32)"/>
</clipPath>
<clipPath id="clip5_1466_181">
<rect width="30" height="30" fill="white" transform="translate(0 49.1411) rotate(-6.01)"/>
</clipPath>
<clipPath id="clip6_1466_181">
<rect width="30" height="30" fill="white" transform="translate(7 103.333) rotate(-10.24)"/>
</clipPath>
<clipPath id="clip7_1466_181">
<rect width="30" height="30" fill="white" transform="translate(47.4043 133) rotate(16.27)"/>
</clipPath>
</defs>
</svg>
