<svg width="20" height="20" viewBox="0 0 20 20" fill="none" xmlns="http://www.w3.org/2000/svg">
<path d="M11.675 8.18858H10.8128C10.8128 7.23477 10.4733 6.89536 9.51953 6.89536V6.03326C10.9476 6.03326 11.675 6.7607 11.675 8.18858Z" fill="#08234B"/>
<path d="M13.3992 8.18856H12.5371C12.5371 6.27036 11.4379 5.17099 9.51953 5.17099V4.3089C11.9121 4.3089 13.3992 5.79614 13.3992 8.18856Z" fill="#08234B"/>
<path d="M15.1235 8.18855H14.2614C14.2614 5.35426 12.3538 3.44679 9.51953 3.44679V2.58453C12.8711 2.58453 15.1235 4.83694 15.1235 8.18855Z" fill="#08234B"/>
<path d="M5.20804 19.9999V17.0256L4.28659 16.9178C2.08265 16.6483 0.358462 14.838 0.185916 12.6125C0.0889879 11.2977 0.0351562 9.95064 0.0351562 8.61969C0.0351562 7.28874 0.0889879 5.94705 0.185916 4.62684C0.358462 2.40143 2.11501 0.585517 4.36205 0.310676C7.78375 -0.103559 11.2429 -0.103559 14.6647 0.310676C16.917 0.585517 18.6737 2.40143 18.8461 4.62684C18.9485 5.94153 18.997 7.28874 18.997 8.61969C18.997 9.95064 18.9432 11.2977 18.8461 12.6125C18.6791 14.8324 16.9547 16.643 14.7563 16.9178C13.2168 17.1082 11.668 17.2143 10.1168 17.2357L5.20804 19.9999ZM9.51868 0.860359C7.83111 0.860674 6.14497 0.963286 4.46971 1.1674C2.62697 1.39378 1.18819 2.87565 1.04817 4.69693C0.945716 5.99015 0.897251 7.31021 0.897251 8.61969C0.897251 9.92901 0.945716 11.2546 1.04817 12.5478C1.18898 14.3653 2.58624 15.8344 4.39441 16.0664C4.82175 16.1203 5.25114 16.167 5.68211 16.2065L6.07551 16.2442V18.529L9.8906 16.379H9.99827C11.5548 16.3617 13.1091 16.2573 14.6538 16.0664C16.4483 15.8456 17.8492 14.3637 17.9893 12.5532C18.0916 11.26 18.1403 9.93438 18.1403 8.62506C18.1403 7.31557 18.0916 5.99552 17.9893 4.69693C17.8492 2.87565 16.4105 1.39378 14.5623 1.1674C12.8888 0.96376 11.2045 0.861148 9.51868 0.860359Z" fill="#08234B"/>
<path d="M11.2114 14.2236H10.8126C6.77127 14.2236 3.48439 10.9367 3.48439 6.89537V6.49661C3.48233 5.80895 3.75591 5.14908 4.24419 4.66459L4.59985 4.30893C5.15475 3.75388 6.12466 3.75388 6.67971 4.30893L7.79518 5.42439C8.07207 5.69939 8.22725 6.074 8.22615 6.46424C8.22488 6.85417 8.07002 7.22783 7.79518 7.50425L7.69272 7.6067C7.48166 7.8184 7.36342 8.10524 7.36405 8.40408C7.36516 8.70275 7.48324 8.98896 7.69272 9.2016L8.50099 10.0099C8.92138 10.4303 9.68102 10.4303 10.1014 10.0099L10.2037 9.90757C10.7588 9.35252 11.7287 9.35252 12.2837 9.90757L13.399 11.0282C13.9733 11.6027 13.9733 12.5338 13.399 13.1083L13.0435 13.4639C12.559 13.952 11.8992 14.2256 11.2114 14.2236ZM5.6397 4.74005C5.47821 4.73974 5.32303 4.80367 5.20873 4.91781L4.85307 5.27348C4.52724 5.59694 4.34475 6.03754 4.34648 6.49661V6.89537C4.34948 10.4653 7.24281 13.3585 10.8126 13.3615H11.2114C11.6687 13.362 12.1071 13.1795 12.4291 12.8551L12.7848 12.4994C12.8994 12.3851 12.9636 12.2301 12.9636 12.0683C12.9636 11.9064 12.8994 11.7514 12.7848 11.6371L11.6748 10.5218C11.4333 10.2918 11.0541 10.2918 10.8126 10.5218L10.7103 10.6241C9.93187 11.4019 8.67053 11.4019 7.89211 10.6241L7.08384 9.81585C6.71113 9.44045 6.50196 8.93308 6.50196 8.40408C6.50117 7.87665 6.71049 7.37054 7.08384 6.99782L7.1863 6.89537C7.2998 6.7806 7.36374 6.62574 7.36405 6.46424C7.36437 6.30275 7.30043 6.14757 7.1863 6.03327L6.07083 4.91781C5.95638 4.80367 5.80136 4.73974 5.6397 4.74005Z" fill="#08234B"/>
</svg>
