<svg width="20" height="12" viewBox="0 0 20 12" fill="none" xmlns="http://www.w3.org/2000/svg">
<path d="M17.8413 7.87512L17.8305 7.86505C17.6598 7.70743 17.1367 7.19839 16.9603 6.97592C16.7532 6.69836 16.801 6.51648 16.9562 6.24395C17.1523 5.89956 17.5452 5.3713 17.961 4.81192C19.2928 3.02084 20.1526 1.78091 19.9756 0.900174L19.8802 0.429746L14.9619 0.431882C14.9446 0.478269 14.688 1.60574 13.6049 3.5256C12.8195 4.91766 12.3044 5.35498 12.123 5.43219L12.0949 5.42364C12.0358 5.35071 11.9327 5.15387 11.8903 4.64651C11.846 4.11505 11.8852 3.47159 11.9232 2.84933C11.9676 2.11966 12.0059 1.48947 11.9142 1.03857L11.7648 0.304013C11.5843 0.275174 10.9235 0.0201997 9.08218 0.000821012C7.4881 -0.0155059 7.01981 0.214749 6.78986 0.417691L6.02921 1.08893L6.99066 1.41241C7.35657 1.53555 7.47803 1.67761 7.57767 2.3818C7.64267 2.84079 7.6767 3.61212 7.60651 4.30075C7.50565 5.28814 7.26379 5.47186 7.25128 5.48163C7.20963 5.46743 6.85638 5.31286 6.24313 4.01632C5.81772 3.11712 5.44479 2.05343 5.17227 1.27676C4.86038 0.387326 4.91653 0.576688 4.7583 0.156461L0 0.156308L0.307922 0.952817C1.59164 4.27664 2.76947 6.87231 4.3457 8.73663C6.08719 10.7964 8.2515 11.8749 11.1668 11.8749H11.7528V11.289C11.7528 10.7412 11.7981 10.3467 11.8953 10.0477C11.9547 9.86548 12.0335 9.71487 12.1164 9.55694C12.2394 9.3244 12.3596 9.22476 12.4252 9.20996C12.4847 9.19638 12.5894 9.24002 12.7054 9.32654C13.0383 9.5748 13.3026 9.90103 13.5825 10.2465C13.9862 10.745 14.4037 11.2603 15.0661 11.5977C15.428 11.782 16.0915 11.8751 16.4566 11.8751C16.5532 11.8751 19.9957 11.8749 20 11.8749L19.9748 11.2649C19.9373 10.3527 19.2194 9.2121 17.8413 7.87512ZM16.4793 10.703H16.4699C16.2181 10.7072 15.7376 10.6246 15.5978 10.5535C15.1575 10.3292 14.8497 9.94909 14.4931 9.50903C14.1801 9.12253 13.8565 8.7229 13.4059 8.38705C13.0415 8.11529 12.7106 8.03579 12.4478 8.03579C12.3428 8.03579 12.2485 8.04846 12.1677 8.06677C11.8626 8.13543 11.4264 8.35486 11.0796 9.01083C10.9818 9.19745 10.8708 9.40878 10.7809 9.68527C10.6868 9.97458 10.6282 10.2961 10.6003 10.6872C8.40332 10.5623 6.689 9.6932 5.24063 7.9801C3.89404 6.38724 2.83463 4.1593 1.71265 1.32773C1.79382 1.32773 3.82797 1.32803 3.94806 1.32803C3.98483 1.43133 4.02451 1.54455 4.06662 1.66449C4.36035 2.50235 4.76273 3.64966 5.23682 4.62805C5.91568 6.02911 6.53564 6.65396 7.24686 6.65396C7.60193 6.65396 7.92038 6.50351 8.16772 6.21863C8.52036 5.81259 8.72513 5.14242 8.79379 4.16968C8.84796 3.40262 8.79761 2.63861 8.7381 2.21762C8.68896 1.87124 8.61893 1.50763 8.44803 1.18185C9.17633 1.14904 10.1515 1.20092 10.7693 1.28958C10.8255 1.59536 10.7889 2.19641 10.7535 2.77792C10.6679 4.18265 10.5795 5.63223 11.3231 6.31048C11.4539 6.42981 11.5926 6.49374 11.5965 6.49634L11.9749 6.61245C12.121 6.56744 12.9668 6.99652 14.5683 4.20157C15.0815 3.30603 15.5592 2.27408 15.8165 1.60009C16.4131 1.59887 18.4457 1.60116 18.6845 1.60147C18.3463 2.34594 17.5446 3.4078 17.0206 4.11261C16.5637 4.72693 16.1693 5.25747 15.9378 5.66397C15.5078 6.41913 15.5801 7.09219 16.028 7.68591L16.035 7.69507C16.2849 8.01321 16.9022 8.6022 17.0302 8.72091C17.9576 9.62134 18.4045 10.2682 18.6172 10.7029H16.4793V10.703Z" fill="#08234B"/>
</svg>
