<svg width="20" height="20" viewBox="0 0 20 20" fill="none" xmlns="http://www.w3.org/2000/svg">
<g clip-path="url(#clip0_218_4238)">
<path d="M4.83719 18.5728C6.38245 19.5027 8.14926 19.9928 9.9646 19.9928C15.4655 19.9928 20 15.504 20 9.99634C20 4.49509 15.472 0 9.9646 0C4.47403 0 0.00717164 4.48441 0.00717164 9.99634C0.00717164 11.8359 0.497437 13.6162 1.42715 15.1627L0 20L4.83719 18.5728ZM1.17874 9.99634C1.17874 5.13031 5.12009 1.17142 9.9646 1.17142C14.8521 1.17142 18.8286 5.13031 18.8286 9.99634C18.8286 14.8625 14.8521 18.8213 9.9646 18.8213C8.28278 18.8213 6.64841 18.3449 5.23865 17.4434L5.01343 17.2995L1.73264 18.2675L2.7005 14.9866L2.55661 14.7615C1.65512 13.3514 1.17874 11.7038 1.17874 9.99634Z" fill="#08234B"/>
<path d="M4.8692 8.15447C5.06268 9.17056 5.63702 11.1249 7.30923 12.7971C8.98144 14.4693 10.9358 15.0438 11.952 15.2373C13.1157 15.4589 14.8233 15.4923 15.6578 14.6578L16.123 14.1925C16.3578 13.9577 16.4872 13.6453 16.4872 13.3132C16.4872 12.981 16.3578 12.6688 16.123 12.434L14.2625 10.5734C14.0275 10.3385 13.7153 10.2092 13.3831 10.2092C13.051 10.2092 12.7388 10.3385 12.5038 10.5734L12.0387 11.0385C11.7546 11.3227 11.2182 11.3239 10.932 11.042L9.0762 9.10845C9.07345 9.10555 9.0707 9.10265 9.0678 9.09991C8.78323 8.81533 8.78323 8.35223 9.0678 8.06765L9.53289 7.60256C10.019 7.11642 10.019 6.32983 9.53289 5.84383L7.67239 3.98333C7.18762 3.49856 6.39874 3.49856 5.91381 3.98333L5.44872 4.44857V4.44842C4.78268 5.11462 4.56066 6.5346 4.8692 8.15447ZM6.27712 5.27697C6.7654 4.79983 6.73931 4.79067 6.79318 4.79067C6.81164 4.79067 6.8301 4.79769 6.84414 4.81173C8.80459 6.78271 8.72585 6.66689 8.72585 6.72335C8.72585 6.74303 8.71868 6.76028 8.7048 6.77431L8.23956 7.2394C7.49874 7.98022 7.49584 9.17941 8.23483 9.92358L10.0917 11.8584C10.0946 11.8611 10.0973 11.864 10.1002 11.8669C10.8409 12.6076 12.124 12.61 12.8671 11.8669L13.3322 11.4018C13.3603 11.3738 13.406 11.3738 13.4341 11.4018C15.3946 13.3727 15.3158 13.2569 15.3158 13.3133C15.3158 13.3332 15.3086 13.3502 15.2948 13.3643L14.8295 13.8294C14.5108 14.1481 13.4954 14.3389 12.1711 14.0866C11.2873 13.9182 9.58798 13.4192 8.13763 11.9689C6.68728 10.5185 6.18832 8.81915 6.02001 7.93536C5.76763 6.61105 5.95837 5.59557 6.27712 5.27697Z" fill="#08234B"/>
</g>
<defs>
<clipPath id="clip0_218_4238">
<rect width="20" height="20" fill="white"/>
</clipPath>
</defs>
</svg>
