<svg width="20" height="20" viewBox="0 0 20 20" fill="none" xmlns="http://www.w3.org/2000/svg">
<g clip-path="url(#clip0_219_6376)">
<path d="M4.83719 18.5728C6.38245 19.5027 8.14926 19.9928 9.9646 19.9928C15.4655 19.9928 20 15.504 20 9.99634C20 4.49509 15.472 0 9.9646 0C4.47403 0 0.00717164 4.48441 0.00717164 9.99634C0.00717164 11.8359 0.497437 13.6162 1.42715 15.1627L0 20L4.83719 18.5728ZM1.17874 9.99634C1.17874 5.13031 5.12009 1.17142 9.9646 1.17142C14.8521 1.17142 18.8286 5.13031 18.8286 9.99634C18.8286 14.8625 14.8521 18.8213 9.9646 18.8213C8.28278 18.8213 6.64841 18.3449 5.23865 17.4434L5.01343 17.2995L1.73264 18.2675L2.7005 14.9866L2.55661 14.7615C1.65512 13.3514 1.17874 11.7038 1.17874 9.99634Z" fill="#FF7D47"/>
<path d="M4.86822 8.15447C5.0617 9.17056 5.63604 11.1249 7.30825 12.7971C8.98046 14.4693 10.9348 15.0438 11.951 15.2373C13.1147 15.4589 14.8223 15.4923 15.6568 14.6578L16.122 14.1925C16.3569 13.9577 16.4863 13.6453 16.4863 13.3132C16.4863 12.981 16.3569 12.6688 16.122 12.434L14.2615 10.5734C14.0265 10.3385 13.7143 10.2092 13.3822 10.2092C13.05 10.2092 12.7378 10.3385 12.5028 10.5734L12.0377 11.0385C11.7536 11.3227 11.2172 11.3239 10.931 11.042L9.07522 9.10845C9.07247 9.10555 9.06973 9.10265 9.06683 9.09991C8.78225 8.81533 8.78225 8.35223 9.06683 8.06765L9.53191 7.60256C10.0181 7.11642 10.0181 6.32983 9.53191 5.84383L7.67141 3.98333C7.18664 3.49856 6.39776 3.49856 5.91284 3.98333L5.44775 4.44857V4.44842C4.7817 5.11462 4.55969 6.5346 4.86822 8.15447ZM6.27615 5.27697C6.76443 4.79983 6.73834 4.79067 6.7922 4.79067C6.81066 4.79067 6.82913 4.79769 6.84316 4.81173C8.80361 6.78271 8.72488 6.66689 8.72488 6.72335C8.72488 6.74303 8.71771 6.76028 8.70382 6.77431L8.23858 7.2394C7.49777 7.98022 7.49487 9.17941 8.23385 9.92358L10.0907 11.8584C10.0936 11.8611 10.0963 11.864 10.0992 11.8669C10.8399 12.6076 12.123 12.61 12.8661 11.8669L13.3312 11.4018C13.3593 11.3738 13.4051 11.3738 13.4331 11.4018C15.3936 13.3727 15.3148 13.2569 15.3148 13.3133C15.3148 13.3332 15.3077 13.3502 15.2938 13.3643L14.8285 13.8294C14.5098 14.1481 13.4945 14.3389 12.1702 14.0866C11.2864 13.9182 9.587 13.4192 8.13665 11.9689C6.6863 10.5185 6.18734 8.81915 6.01904 7.93536C5.76666 6.61105 5.95739 5.59557 6.27615 5.27697Z" fill="#FF7D47"/>
</g>
<defs>
<clipPath id="clip0_219_6376">
<rect width="20" height="20" fill="white"/>
</clipPath>
</defs>
</svg>
