<svg width="20" height="16" viewBox="0 0 20 16" fill="none" xmlns="http://www.w3.org/2000/svg">
<path d="M2.92969 15.2344H17.0703C18.6858 15.2344 20 13.9201 20 12.3047V2.92969C20 1.31424 18.6858 0 17.0703 0H2.92969C1.31424 0 0 1.31424 0 2.92969V12.3047C0 13.9201 1.31424 15.2344 2.92969 15.2344ZM1.17188 2.92969C1.17188 1.96045 1.96045 1.17188 2.92969 1.17188H17.0703C18.0396 1.17188 18.8281 1.96045 18.8281 2.92969V12.3047C18.8281 13.2739 18.0396 14.0625 17.0703 14.0625H2.92969C1.96045 14.0625 1.17188 13.2739 1.17188 12.3047V2.92969Z" fill="#08234B"/>
<path d="M7.07031 3.69171V11.6565L14.1211 7.6088L7.07031 3.69171ZM8.24219 5.68329L11.7383 7.62558L8.24219 9.63257V5.68329Z" fill="#08234B"/>
</svg>
